
<svg xmlns="http://www.w3.org/2000/svg" version="1.1" xmlns:xlink="http://www.w3.org/1999/xlink" preserveAspectRatio="none" x="0px" y="0px" width="1024px" height="768px" viewBox="0 0 1024 768">
<defs>
<linearGradient id="Gradient_1" gradientUnits="userSpaceOnUse" x1="498.07500000000005" y1="325.375" x2="496.125" y2="-100.67500000000001" spreadMethod="pad">
<stop  offset="0%" stop-color="#FFFFFF"/>

<stop  offset="100%" stop-color="#99CCFF"/>
</linearGradient>

<linearGradient id="Gradient_2" gradientUnits="userSpaceOnUse" x1="129.2625" y1="569" x2="129.1375" y2="402" spreadMethod="pad">
<stop  offset="0%" stop-color="#FFFFFF" stop-opacity="0"/>

<stop  offset="100%" stop-color="#009933"/>
</linearGradient>

<linearGradient id="Gradient_3" gradientUnits="userSpaceOnUse" x1="509.2625" y1="569" x2="509.1375" y2="402" spreadMethod="pad">
<stop  offset="0%" stop-color="#FFFFFF" stop-opacity="0"/>

<stop  offset="100%" stop-color="#009933"/>
</linearGradient>

<linearGradient id="Gradient_4" gradientUnits="userSpaceOnUse" x1="903.5625" y1="569" x2="903.4375" y2="402" spreadMethod="pad">
<stop  offset="0%" stop-color="#FFFFFF" stop-opacity="0"/>

<stop  offset="100%" stop-color="#009933"/>
</linearGradient>

<linearGradient id="Gradient_5" gradientUnits="userSpaceOnUse" x1="1282.7625" y1="569" x2="1282.6375" y2="402" spreadMethod="pad">
<stop  offset="0%" stop-color="#FFFFFF" stop-opacity="0"/>

<stop  offset="100%" stop-color="#009933"/>
</linearGradient>

<filter id="Filter_1" x="-20%" y="-20%" width="140%" height="140%" color-interpolation-filters="sRGB">
<feColorMatrix in="SourceGraphic" type="matrix" values="1 0 0 0 0 0 1 0 0 0 0 0 1 0 0 0 0 0 0.67 0" result="result1"/>
</filter>

<g id="Layer4_0_FILL">
<path fill="url(#Gradient_1)" stroke="none" d="
M 1036.7 -156
L -11.45 -156 -11.45 589.4 1036.7 589.4 1036.7 -156 Z"/>
</g>

<g id="Tween_12_0_Layer0_0_FILL">
<path fill="#FFFFFF" stroke="none" d="
M 966.95 -38.2
Q 954.65 -33 954.65 -25.65 954.65 -18.3 966.95 -13.1 979.3 -7.9 996.75 -7.9 1014.2 -7.9 1026.5 -13.1 1037.7 -17.8 1038.75 -24.3 1043.8 -23.7 1049.35 -23.7 1064.3 -23.7 1075.6 -28.05 1082.5 -20.2 1098.5 -13.85 1117.6 -6.25 1142.1 -3.8 1134.8 2.15 1134.8 9.8 1134.8 19.9 1147.5 27 1160.2 34.15 1178.2 34.15 1196.2 34.15 1208.9 27 1221.6 19.9 1221.6 9.8 1221.6 0.2 1210.15 -6.7 1223.1 -9.4 1234.25 -13.85 1262.4 -25 1262.4 -40.8 1262.4 -51.75 1248.95 -60.45 1250.5 -61.1 1252.05 -61.8 1266.3 -68.35 1266.3 -77.6 1266.3 -86.85 1252.05 -93.4 1237.8 -99.95 1217.65 -99.95 1197.5 -99.95 1183.25 -93.4 1170.05 -87.35 1169.1 -78.9 1167.75 -78.95 1166.4 -78.95 1157.75 -78.95 1149.65 -78.4 1144.45 -85.9 1127.05 -91.7 1102.25 -100 1067.1 -100 1031.95 -100 1007.1 -91.7 982.3 -83.4 982.3 -71.7 982.3 -60 1007.1 -51.7 1007.35 -51.6 1007.6 -51.5 1005.95 -48.65 1005.95 -45.4 1005.95 -44.15 1006.2 -42.95 1001.65 -43.4 996.75 -43.4 979.3 -43.4 966.95 -38.2 Z"/>
</g>

<g id="Tween_14_0_Layer0_0_FILL">
<path fill="#FFFFFF" stroke="none" d="
M 1234.25 34.15
Q 1225.35 34.15 1219.1 39.1 1213.2 43.8 1212.9 50.35 1210.85 50.2 1208.7 50.15 1206.25 45.55 1200.05 41.9 1189.9 35.95 1175.55 35.95 1161.15 35.95 1151 41.9 1140.85 47.9 1140.85 56.4 1140.85 64.9 1151 70.85 1154.55 72.95 1158.65 74.35 1158.6 74.7 1158.6 75.05 1158.6 76.05 1158.75 77 1142.85 77.75 1131.15 83.9 1117.7 90.9 1117.7 100.85 1117.7 110.8 1131.15 117.85 1144.55 124.85 1163.55 124.85 1182.5 124.85 1195.9 117.85 1199.9 115.75 1202.7 113.45 1204.15 112.65 1205.5 111.55 1205.7 111.4 1205.85 111.3 1207.95 117.45 1214.65 122.3 1224.4 129.35 1238.2 129.35 1252 129.35 1261.8 122.3 1271.55 115.25 1271.55 105.3 1271.55 95.4 1261.8 88.35 1257.35 85.15 1252.05 83.4 1254.65 79.5 1254.65 75.05 1254.65 68.55 1249.05 63.2 1249.2 63.1 1249.35 63 1255.6 58.05 1255.6 51.05 1255.6 44.05 1249.35 39.1 1243.1 34.15 1234.25 34.15 Z"/>
</g>

<g id="Tween_16_0_Layer0_0_FILL">
<path fill="#FFFFFF" stroke="none" d="
M 1385.55 268.05
Q 1409.65 260 1409.65 248.55 1409.65 237.1 1385.55 229 1361.5 220.95 1327.45 220.95 1297.1 220.95 1274.7 227.35 1269.9 213.8 1254.45 203.25 1232.15 188.05 1200.55 188.05 1168.95 188.05 1146.6 203.25 1135.5 210.85 1129.95 219.95 1126.25 219.65 1122.35 219.65 1099.2 219.65 1082.8 230.25 1072.4 237 1068.65 245.5 1062.15 244.6 1054.6 244.6 1038.8 244.6 1027.6 248.45 1016.45 252.3 1016.45 257.75 1016.45 263.2 1027.6 267.05 1038.8 270.9 1054.6 270.9 1063.3 270.9 1070.6 269.75 1074.65 276.1 1082.8 281.35 1099.2 291.95 1122.35 291.95 1143.15 291.95 1158.45 283.4 1176.9 291.95 1200.55 291.95 1232.15 291.95 1254.45 276.7 1261.25 272.1 1266 266.9 1267.55 267.45 1269.3 268.05 1293.4 276.15 1327.45 276.15 1361.5 276.15 1385.55 268.05 Z"/>
</g>

<g id="Layer2_0_FILL">
<path fill="#009933" stroke="none" d="
M 227.3 395.85
Q 227.4 395.9 227.45 395.95
L 227.55 396
Q 227.7 396.05 228.1 396.05
L 228.45 395.75
Q 228.5 395.7 228.5 395.65
L 227.65 395.75
Q 227.4 395.75 227.3 395.7
L 227.3 395.85
M 203.45 393.2
Q 203.55 393.4 203.55 393.65 203.65 393.5 203.65 393.35 203.55 393.25 203.45 393.2
M 111.75 390.9
Q 112.45 390.25 113.8 390.25 113.85 390.25 114.75 390.7 114.3 390.2 114 390.05
L 112.55 389.95
Q 112.2 390.15 111.75 390.9
M 607.3 395.85
Q 607.35 395.9 607.45 395.95
L 607.55 396
Q 607.7 396.05 608.05 396.05 608.1 396.05 608.45 395.75 608.45 395.7 608.5 395.65
L 607.65 395.75
Q 607.35 395.75 607.3 395.7
L 607.3 395.85
M 583.5 393.2
Q 583.55 393.4 583.55 393.65 583.7 393.5 583.7 393.35 583.6 393.25 583.5 393.2
M 494 390.05
L 492.5 389.95
Q 492.2 390.15 491.75 390.9 492.4 390.25 493.8 390.25
L 494.7 390.7
Q 494.3 390.2 494 390.05
M 963.65 394.65
Q 963.3 394.85 962.85 395.6 963.55 394.95 964.9 394.95 964.95 394.95 965.85 395.4 965.4 394.9 965.1 394.75
L 963.65 394.65
M 1342.85 395.6
Q 1343.5 394.95 1344.9 394.95
L 1345.8 395.4
Q 1345.4 394.9 1345.1 394.75
L 1343.6 394.65
Q 1343.3 394.85 1342.85 395.6 Z"/>

<path fill="url(#Gradient_2)" stroke="none" d="
M 303.95 396.7
L 304.55 396.6
Q 304.4 396.55 304.35 396.5 304.3 396.5 304.3 396.1 304.3 396 304.3 395.95 304.15 396 303.95 396.05 303.45 396.05 303.05 396 303.5 396.3 303.95 396.7
M 306.75 395.45
Q 306.65 395.3 306.55 395.15
L 306.5 395.15
Q 306.45 395.15 305.85 395.35 306.25 395.35 306.75 395.45
M 300.4 394.85
Q 300.75 394.9 301.05 395 300.95 394.75 300.65 394.65 300.55 394.7 300.4 394.85
M 19.2 395.45
Q 18.95 395.45 18.3 395.2
L 18.15 395.15
Q 17.35 394.9 17.1 394.9 16.9 394.9 16.5 395.45 16.1 396 15.2 396 13.65 395.9 13.6 395.95 13.55 396 13.5 396.2 13.35 396.5 12.9 396.9 12.75 396.8 12 396.75 11.4 396.7 11.1 396.7 11.1 396.85 11.9 397
L 10.2 397
Q 9.1 398.1 8.45 398.5 8.1 398.7 7.25 398.8 6.5 398 4.95 397.2 3.7 396.5 3.5 396.5 3 396.5 2.6 396.05 2.2 395.6 1.15 395.6 0.85 395.6 0.7 395.65
L 0.65 395.65
Q 0.65 393.8 -1.25 392.25 -2.7 390.95 -3.45 390.95 -4.3 390.95 -5 390.45 -5.4 390.25 -6.65 390.8 -7.1 391.05 -7.6 391.65 -8.2 392.4 -8.95 392.85 -9.75 393.35 -10.55 394.55 -11.5 395.95 -11.6 397.15 -12.2 397.15 -13.35 396.7
L -14.45 396.25
Q -14.5 396.25 -15.05 396.9
L -15.65 397.6
Q -16.65 396.5 -17.45 395.8 -18.9 394.4 -19.65 394.4 -21.9 394.4 -22.55 393.7 -23 393.15 -23.3 392.75 -23.9 391.95 -24.9 391.15
L -26.9 391.15
Q -28.05 391.65 -29.7 392.6 -29.8 392.65 -29.85 392.65
L -29.85 392.7
Q -30.05 392.65 -30.3 392.6 -31.4 392.3 -32.05 392.95 -32.8 393.6 -33.9 393.5
L -33.95 393.5
Q -33.95 393.7 -32.65 393.7 -32.35 393.7 -32 393.3 -31.6 392.85 -30.3 392.85 -30.25 392.85 -30.2 392.9 -31.1 393.4 -32.55 394.35
L -33.1 394.65
Q -34.05 395.35 -34.7 394.8 -35.3 394.1 -35.7 394 -35.95 393.9 -36.25 393.9
L -36.15 393.35
Q -37.1 393.15 -37.9 392.85 -39.1 392.15 -39.2 392.15 -39.6 392.15 -40.2 392.15
L -40.7 392.25
Q -40.95 392.35 -41.25 392.75
L -43.05 392.85
Q -43.25 393.05 -43.35 393.5 -43.2 393.6 -43.05 393.7 -43.05 393.65 -43 393.6 -42.9 393.25 -41.5 393.3 -42.15 393.6 -42.8 394.3 -43.6 395.15 -43.85 395.15 -44.25 395.15 -44.95 394.8 -45.2 395.15 -45.25 395.15 -45.9 395.15 -46.1 394.8 -46.3 394.45 -46.65 394.45
L -46.7 394.45
Q -46.75 394.55 -46.8 394.9 -46.9 394.9 -47.15 395.15
L -47.95 395.05
Q -47.8 394.95 -47.65 394.85 -48.05 394.75 -48.95 394.45
L -50.3 394
Q -51.45 394 -51.75 394.3 -51.85 394.4 -52.05 394.9
L -53.55 394.95
Q -53.65 395.05 -53.75 395.25 -53.8 395.35 -53.85 395.5 -54.05 395.45 -54.35 395.15 -54.45 395.05 -54.55 395
L -55.35 395.05
Q -56.05 395 -56.35 394.85 -56.7 394.7 -57.1 394.5 -57.15 394.55 -57.2 394.6
L -57.55 394.35
Q -58.25 394.1 -59.15 393.8 -60.7 393.05 -61.45 393.4 -61.9 393.8 -62.35 394 -62.65 393.85 -62.85 393.7 -62.8 393.7 -62.75 393.65 -62.45 393.5 -61.55 393.4
L -61.5 393.25
Q -61.55 393.15 -62.3 393.2 -63.05 393.25 -63.15 393.25 -63.15 393.3 -63.1 393.5 -63.1 393.55 -63.1 393.6 -63.35 393.4 -63.6 393.15 -63.95 392.85 -64.35 392.35 -65.5 392.35 -66.9 393 -68.3 393.65 -68.35 393.65 -69.8 393.65 -70.2 394.75 -70.25 394.95 -70.4 395.6 -70.5 396.1 -70.7 396.2 -71.75 395.6 -71.9 395.6 -72.1 395.6 -72.55 395.6 -72.6 395.6 -73.15 395.5 -73.75 395.35 -74.3 395.35 -75.3 395.35 -75.6 395.6 -75.7 395.7 -75.7 396.1 -75.7 396.5 -75.6 396.5 -75.6 396.55 -75.4 396.6
L -76.05 396.7
Q -76.8 396.1 -77.6 395.6 -79.2 394.65 -81.2 394.65 -81.2 394.55 -81.2 394.5
L -81.3 394.1 -80.9 394.05
Q -80.9 393.7 -81.15 393.5
L -81.4 393.4
Q -81.7 393.6 -84.15 393.8 -86.85 395.3 -87.8 396.75 -88.7 398.1 -88.75 400.1 -88.45 398.8 -87.8 397.7
L -87.55 397.8
Q -87.25 400.6 -88 405.6 -89.1 412.7 -89.15 413.4
L -89.3 413.4
Q -89.2 412.1 -89.05 411 -88.85 409.35 -88.95 406.35 -89 405.9 -89 405.5 -89.04375 405.0625 -89.05 404.6 -89.05625 405.0625 -89.1 405.5 -89.35 408.6 -89.75 413.7 -90.7 427.15 -90.75 431.65 -90.8 432.55 -92.8 446.6 -94.75 460.85 -94.75 463.55 -94.75 470.85 -91.85 482.5 -89.55 491.7 -89.45 492.05 -88.15 497.6 -87.55 502.05 -87.2 505.25 -86.5 511.75 -85.85 517.55 -85 521.5 -82.55 532.6 -75.9 540.65 -70.75 546.95 -65.5 550.4 -56.75 556.1 -43.35 558.35 -33.8 559.85 -22.7 562.2 -14.45 563.95 -8.4 565.4 -7.75 565.55 1 568.15 11.7 571.05 22.4 573.45 56.65 581.05 83.4 581.05 88.15 581.05 109.4 579.3 132.65 577.3 140.85 575.9 146.35 574.95 153.7 572.5 165 568.75 167.2 568.05 178.65 564.75 190.2 560.1 191.9 559.4 194 558.55 194.7 558.55 195.2 558.25
L 195.55 557.95
Q 199.5 556.35 204.45 554.3 205.65 554.05 207.05 553.85 209.7 553.15 210.45 552.05 217.75 549.55 224.75 548.3 235.25 546.45 249.4 546.45 255.85 546.45 263.4 547.9 267.25 548.7 277.05 551.15 286 553.45 291.65 554.45 300.25 555.9 308.5 555.9 316.2 555.9 322.65 554.55 318.2 552.75 314.5 550.4 309.25 546.95 304.1 540.65 297.45 532.6 295 521.5 294.15 517.55 293.5 511.75 292.85 505.25 292.4 502.05 291.85 497.6 290.55 492.05 290.45 491.7 288.15 482.5 285.2 470.85 285.2 463.55 285.2 460.85 287.2 446.6 289.2 432.55 289.25 431.65 289.3 427.15 290.25 413.7 290.6 408.6 290.9 405.5 290.9 405 290.95 404.5 290.95 405 291 405.5 291 405.9 291 406.35 291.15 409.35 290.9 411 290.8 412.1 290.7 413.4
L 290.8 413.4
Q 290.9 412.7 291.95 405.6 292.65 401.05 292.45 398.3 292 398.45 291.9 398.7 291.95 399.45 291.6 399.7 291.45 399.7 291.3 399.7 291.3 399.9 291.2 400.1 291.2 399.9 291.25 399.7 287.95 399.75 287.4 399.75 285.55 399.75 283.6 398.4 282 397 281.75 397 281.65 397 281.55 397.1
L 281.5 397.1
Q 281.35 397.15 281.2 397.3 281 397.6 280.7 397.6 280 397.6 279.95 397.4 279.95 397.35 279.9 397.3 279.85 396.9 279.65 396.8 279.2 397.1 278.9 397.3 278.35 397.6 277.8 397.6 276.9 397.6 276.1 397.2
L 275.5 396.8
Q 275.3 396.8 273.85 397.7 272.4 398.6 272.2 398.6 271.15 398.6 271.15 398.4 270.95 398.4 270.8 398.3 270.6 398.5 270.1 398.8 269.15 399.3 268.95 399.5 265.75 399.5 263.35 400.05 261.35 400.5 260.15 401.2 259.35 401.1 258.95 401.1 258.8 401.1 258.6 401.1
L 257.6 402
Q 257.35 402.5 257.15 402.85 256.65 403.5 256.35 403.5 256.1 403.5 255.35 403.4 254.5 403.3 253.4 403.2 252.6 401.8 252.5 401.65 251.75 400.55 250.65 400 249.75 399.5 248.9 398.75 247.95 397.8 247.8 397.1 246.4 397.1 246.35 397.1 245.9 397 245.7 396.8
L 245.6 396.25
Q 245.7 396.2 245.7 396.1 245.7 396 245.5 395.75 245.3 395.5 245.2 395.4 243.95 395.9 242.25 395.1 240.75 394.2 240.7 394.2 240.4 394.2 239.9 394.5 239.5 394.75 239.2 394.75 238.85 394.75 238.6 394.35 238.4 394 237.3 394 237 394 236.2 394.3 235.4 394.55 235.1 394.55 234.4 393.95 233.8 393.6 232.6 393.05 231.6 394.4 231.2 395 230.2 395.35
L 230.2 395.4
Q 230.4 395.6 230.7 395.6 230.8 395.6 230.9 395.55
L 231.2 396.1
Q 231.3 396.2 231.9 396.6 229.5 396.2 228.15 396.35 227.5 396.4 227.1 396.55
L 226.9 396.05
Q 227 396 227.05 396 225.7 395.8 224.35 396.3 223.45 396.7 222.1 396.8 221.95 396.7 221.75 396.6 218.65 394.65 217.85 394.2
L 214.55 394.2
Q 214.45 394.3 213.65 394.4 212.75 394.5 212.55 394.55 212.55 394.65 212.5 395.45 212.15 396.2 210.95 396.2 210.65 396.2 210.25 395.85 210.2 395.8 210.15 395.7 209.55 395.05 209.3 394.9
L 207.55 394.9
Q 205.3 395 203.5 394.85
L 203.45 394.85
Q 202.4 394.8 201.5 394.65 201.4 394.6 201.4 394.55 201.35 394.55 201.35 394.8
L 201.3 394.8
Q 201.2 394.4 201.5 393.7 201.9 392.85 202.6 392.85 202.8 392.85 202.95 392.85 201.9 392.25 201.55 392.95 201.3 394.2 201.1 394.5
L 199.5 394.65
Q 199.2 395 197.8 395.6 196.45 396.2 195.85 396.2 195.5 396.2 195.35 395.9 195.25 395.6 194 395.6 193.85 395.6 193.5 396.3 193.2 397 193.2 397.3
L 191.7 397.4
Q 190.5 398.5 188.1 400
L 186.25 401.1
Q 185.4 401.5 185.2 401.5 184.95 401.5 184.3 400.95 183.5 400.25 183.5 400.2 183.1 399.95 181.35 399.75 179.75 399.55 178.65 399.55 178.35 399.55 178.55 399.85 178.75 400.1 178.45 400.1 177.55 399.85 176.5 399.55 174.45 399.05 173.7 399.1 173.7 399 173.65 398.9
L 173.65 398.95 172.15 398.85
Q 172.15 398.7 171.95 398.7
L 171.85 398.6
Q 171 398.75 170.35 398.5 169.55 398.15 168.8 398.15 168.65 398.15 168.35 398.7 167.95 399.2 167.1 399.2 166.95 399.2 165.1 397.9 163.35 396.6 163.05 396.25 161.95 395.7 158.75 396.5 155.5 397.6 155 397.7 153.8 398 151.95 400.65 150.5 402.7 149.9 403.1
L 149.8 403.7
Q 149.75 403.7 149.7 403.7
L 149.7 403.9 145.5 404.1
Q 145.4587890625 404.1 145.4 404.1
L 144.5 404.15
Q 144.45 404.25 144.4 404.35 144.1 404.35 143.85 404.5 143.5 404.75 143.25 404.85 143.2 404.45 142.95 404.1 142.7 403.7 142.4 403.5
L 142.3 403.7 142.25 403.6
Q 141.75 403.2 141.2 402.5 140.45 401.6 140.15 401.2 137.4 401.2 137.2 401.05 137.25 400.55 136.4 399.85 134.25 399.65 132.55 399.2
L 131.25 398.75
Q 130.15 398.3 129.45 398
L 129.35 397.95
Q 126.25 396.7 124.65 396 121.8 394.55 120.55 393.3
L 117.45 393.2
Q 117.35 392.25 117.3 391.75 117.25 390.95 116.5 390.95 115.45 390.95 115.05 390.85
L 111.3 391.55
Q 110.85 392.05 110.5 392.4 107.3 392.65 107.25 393.25 107.2 393.4 107.45 393.9 107.65 394.2 107.7 394.5 105.2 393.1 104.45 393.5 104 393.8 103.75 394 103.3 394.35 102.6 394.35 102.35 394.35 101.85 394.1 101.25 393.85 100.75 393.75 100.45 394.6 99.8 396.15 99.2 397.4 99 398 98.8 397.9 98.65 397.8 98.65 397.75 98.6 397.7 96.9 397.5 94.95 396.4 94.45 396.1 93.9 395.95 92.75 395.6 91.3 395.75 90.9 395.45 90.45 395.15
L 88.55 394.05
Q 88.5 394.05 88.45 394 86.95 393.25 86.65 393.25 86 393.25 85.45 393.3
L 85.45 392.8
Q 85.15 392.8 84.55 392.6 83.85 392.35 83.55 392.35
L 82.15 392.4
Q 81.95 393 80.55 393.65 80.85 393.6 81.05 393.6 80.95 393.95 80.55 393.95 80.35 393.95 80.05 393.9 79.95 393.9 79.85 393.95
L 79.3 393.9
Q 79.35 393.9 79.55 393.8 79.45 393.8 79.35 393.75 78.5 393.5 78.2 393.5 77.8 393.5 77.35 394.1 77.25 394.2 77.15 394.35
L 76.35 395.4
Q 75.2 395.85 72.4 396.05 72.15 396.2 72 396.6
L 70.75 396.9
Q 70.55 396.8 70.35 396.7
L 69.95 396.6
Q 69.85 397 69.85 397.6 69.75 398 68.3 398.15
L 68.1 398.15
Q 68 398 67.55 397.9 67.05 397.7 66.65 397.7 66.35 397.7 65.95 398 65.55 398.25 65.25 398.25 65 398.25 64.65 398 64.35 397.7 64.05 397.7 63.8 397.7 63.2 398.2 62.65 398.7 62.6 398.7 62.25 398.7 62.2 398.6 62.15 398.4 62.1 398.3 62 398.15 62.1 397.8 62.2 397.4 62.2 397.25 62.1 397.2 57.8 393.5 54.2 390.45 52.8 390.45 52.75 390.65 52.55 390.75 52.25 390.85 51.2 390.05
L 47.4 389.95
Q 46.7 390.85 46.6 390.85
L 46.6 390.9 44.8 391.85
Q 44.3 392.35 43.75 393.05 42.15 395.3 42.85 396.15
L 42.55 395.9
Q 42.35 395.6 42 395.6 41.75 395.6 41.45 395.9 41.4 395.95 41.35 396
L 39.85 396.35
Q 39.05 396.4 38.55 396.4 37.25 396.4 36.85 396.2 36.55 395.95 36.2 395.85 36.15 395.85 36.1 395.8
L 36.1 396.2
Q 36.1 396.4 36.15 396.6
L 36 396.7
Q 34.15 395.9 33.15 395.25 31.95 394.5 31.1 393.5 29 393.3 28.15 393.1 27.75 393.05 26.3 393.05 25.55 393.05 24.7 393.6
L 23.75 394.3
Q 22.6 395.25 21.4 395.25
L 19.2 395.45
M 186.4 558.65
Q 186.65 558.05 187.1 557.75 188.6 556.8 195.85 556.3 195.35 556.75 195 557.3 193.75 556.5 193.2 556.55 192.5 556.95 191.75 557.15 191.75 557.45 192.15 558.15 192.5 558.2 193.05 558.45
L 193.1 558.45
Q 189.35 559.75 186.1 560.85
L 185.7 559.7
Q 186.15 559.35 186.4 558.65
M 196.35 557.3
Q 196.25 557.35 196.2 557.35 197.8 555.85 201.15 555 202.3 554.75 203.9 554.45 200.1 556 196.35 557.3
M 210.85 549.95
Q 210.85 550.1 210.85 550.4 210.85 550.6 210.85 550.75
L 210.45 549.85 210.85 549.95
M 211.65 551
Q 211.4 551.15 211.05 551.25
L 211 551.05
Q 211.2 551.05 211.65 550.95
L 211.65 551
M -65.3 392.75
Q -65.2 392.6 -64.55 392.6
L -64.15 393 -65.3 392.75
M -15.15 397.9
Q -14.95 397.7 -14.6 397.1 -14.3 396.6 -14.1 396.55 -13.95 396.7 -13.55 396.85
L -15.15 397.9 Z"/>

<path fill="url(#Gradient_3)" stroke="none" d="
M 681.05 395
Q 680.9 394.75 680.6 394.65 680.15 394.95 679 396.45
L 677.85 397.9
Q 677.1 397.9 676.5 397.6 676.05 397.25 676 397.25 675.8 397.25 674.95 397.7 674.15 398.2 673.65 398.2 672.1 398.2 671.9 398.7 671.95 399.45 671.6 399.7 667.95 399.75 667.35 399.75 665.55 399.75 663.6 398.4 662 397 661.75 397 661.65 397 661.55 397.1
L 661.5 397.1
Q 661.35 397.15 661.25 397.3 660.95 397.6 660.65 397.6 660.05 397.6 659.95 397.4 659.95 397.35 659.95 397.3 659.85 396.9 659.65 396.8 659.2 397.1 658.9 397.3 658.35 397.6 657.75 397.6 656.9 397.6 656.15 397.2 655.55 396.8 655.45 396.8 655.25 396.8 653.85 397.7 652.4 398.6 652.2 398.6 651.15 398.6 651.15 398.4 650.95 398.4 650.85 398.3 650.55 398.5 650.05 398.8 649.15 399.3 648.95 399.5 645.75 399.5 643.35 400.05 641.35 400.5 640.2 401.2 639.4 401.1 638.95 401.1 638.8 401.1 638.6 401.1
L 637.6 402
Q 637.35 402.5 637.1 402.85 636.65 403.5 636.3 403.5 636.1 403.5 635.4 403.4 634.5 403.3 633.4 403.2 632.6 401.8 632.5 401.65 631.7 400.55 630.7 400 629.7 399.5 628.9 398.75 627.9 397.8 627.8 397.1 626.35 397.1 626.3 397.1 625.85 397 625.7 396.8
L 625.6 396.25
Q 625.7 396.2 625.7 396.1 625.7 396 625.5 395.75 625.25 395.5 625.2 395.4 623.95 395.9 622.25 395.1 620.75 394.2 620.65 394.2 620.35 394.2 619.9 394.5 619.45 394.75 619.15 394.75 618.85 394.75 618.6 394.35 618.35 394 617.25 394 616.95 394 616.2 394.3 615.35 394.55 615.05 394.55 614.35 393.95 613.75 393.6 612.6 393.05 611.6 394.4 611.15 395 610.15 395.35
L 610.2 395.4
Q 610.35 395.6 610.65 395.6 610.75 395.6 610.9 395.55
L 611.2 396.1
Q 611.3 396.2 611.9 396.6 609.45 396.2 608.15 396.35 607.5 396.4 607.1 396.55
L 606.9 396.05
Q 606.95 396 607.05 396 605.7 395.8 604.35 396.3 603.45 396.7 602.1 396.8 601.9 396.7 601.75 396.6 598.65 394.65 597.9 394.2
L 594.55 394.2
Q 594.45 394.3 593.6 394.4 592.7 394.5 592.55 394.55 592.55 394.65 592.5 395.45 592.15 396.2 590.9 396.2 590.6 396.2 590.25 395.85 590.2 395.8 590.15 395.7 589.55 395.05 589.3 394.9
L 587.5 394.9
Q 585.3 395 583.5 394.85
L 583.45 394.85
Q 582.4 394.8 581.45 394.65 581.4 394.6 581.35 394.55 581.3 394.55 581.3 394.8 581.2 394.4 581.5 393.7 581.9 392.85 582.6 392.85 582.8 392.85 582.95 392.85 581.9 392.25 581.5 392.95 581.3 394.2 581.05 394.5
L 579.5 394.65
Q 579.2 395 577.85 395.6 576.45 396.2 575.85 396.2 575.45 396.2 575.35 395.9 575.25 395.6 574 395.6 573.85 395.6 573.5 396.3 573.15 397 573.15 397.3
L 571.65 397.4
Q 570.45 398.5 568.1 400
L 566.25 401.1
Q 565.4 401.5 565.2 401.5 564.95 401.5 564.3 400.95 563.55 400.25 563.45 400.2 563.15 399.95 561.35 399.75 559.7 399.55 558.6 399.55 558.3 399.55 558.5 399.85 558.75 400.1 558.45 400.1 557.5 399.85 556.5 399.55 554.45 399.05 553.7 399.1 553.7 399 553.65 398.9 553.6 398.85 553.6 398.95
L 552.2 398.85
Q 552.15 398.7 552 398.7
L 551.8 398.6
Q 551 398.75 550.35 398.5 549.5 398.15 548.8 398.15 548.65 398.15 548.3 398.7 547.95 399.2 547.1 399.2 546.9 399.2 545.1 397.9 543.35 396.6 543 396.25 542 395.7 538.75 396.5 535.5 397.6 535.05 397.7 533.75 398 531.95 400.65 530.5 402.7 529.9 403.1
L 529.75 403.7 529.65 403.7 529.65 403.9 524.45 404.15
Q 524.45 404.25 524.35 404.35 524.05 404.35 523.85 404.5 523.45 404.75 523.25 404.85 523.2 404.45 522.95 404.1 522.7 403.7 522.4 403.5
L 522.3 403.7 522.25 403.6
Q 521.75 403.2 521.15 402.5 520.45 401.6 520.15 401.2 517.4 401.2 517.2 401.05 517.25 400.55 516.4 399.85 514.25 399.65 512.5 399.2
L 511.25 398.75
Q 510.15 398.3 509.4 398
L 509.4 397.95
Q 506.25 396.7 504.7 396 501.8 394.55 500.5 393.3
L 497.4 393.2
Q 497.35 392.25 497.3 391.75 497.2 390.95 496.5 390.95 495.5 390.95 495.1 390.85
L 491.25 391.55
Q 490.85 392.05 490.5 392.4 487.3 392.65 487.25 393.25 487.15 393.4 487.45 393.9 487.65 394.2 487.65 394.5 485.2 393.1 484.45 393.5 484.05 393.8 483.75 394 483.3 394.35 482.6 394.35 482.35 394.35 481.85 394.1 481.25 393.85 480.75 393.75 480.45 394.6 479.8 396.15 479.25 397.4 478.95 398 478.75 397.9 478.65 397.8 478.65 397.75 478.55 397.7 476.85 397.5 474.95 396.4 474.45 396.1 473.85 395.95 472.75 395.6 471.3 395.75 470.85 395.45 470.4 395.15
L 468.5 394.05 468.5 394
Q 466.95 393.25 466.6 393.25 466 393.25 465.45 393.3
L 465.45 392.8
Q 465.15 392.8 464.5 392.6 463.9 392.35 463.6 392.35
L 462.1 392.4
Q 461.9 393 460.55 393.65 460.8 393.6 461.05 393.6 460.95 393.95 460.55 393.95 460.35 393.95 460 393.9 459.9 393.9 459.85 393.95
L 459.3 393.9 459.5 393.8
Q 459.45 393.8 459.4 393.75 458.5 393.5 458.2 393.5 457.8 393.5 457.3 394.1 457.25 394.2 457.1 394.35
L 456.3 395.4
Q 455.2 395.85 452.4 396.05 452.1 396.2 452 396.6
L 450.75 396.9
Q 450.55 396.8 450.3 396.7 449.95 396.6 449.9 396.6 449.8 397 449.85 397.6 449.7 398 448.3 398.15
L 448.05 398.15
Q 448 398 447.5 397.9 447.05 397.7 446.65 397.7 446.35 397.7 445.95 398 445.55 398.25 445.25 398.25 444.95 398.25 444.65 398 444.35 397.7 444.05 397.7 443.75 397.7 443.2 398.2 442.65 398.7 442.6 398.7 442.25 398.7 442.2 398.6 442.15 398.4 442.05 398.3 442.05 398.15 442.15 397.8 442.2 397.4 442.15 397.25 442.15 397.2 437.75 393.5 434.15 390.45 432.75 390.45 432.75 390.65 432.55 390.75 432.25 390.85 431.2 390.05
L 427.4 389.95
Q 426.65 390.85 426.55 390.85
L 426.55 390.9 424.8 391.85
Q 424.3 392.35 423.75 393.05 422.1 395.3 422.85 396.15 422.8 396.15 422.6 395.9 422.35 395.6 422 395.6 421.7 395.6 421.4 395.9 421.4 395.95 421.4 396
L 419.8 396.35
Q 419 396.4 418.5 396.4 417.2 396.4 416.85 396.2 416.6 395.95 416.2 395.85 416.15 395.85 416.1 395.8
L 416.1 396.2
Q 416.1 396.4 416.1 396.6
L 416 396.7
Q 414.15 395.9 413.15 395.25 411.9 394.5 411.1 393.5 409 393.3 408.15 393.1 407.8 393.05 406.3 393.05 405.5 393.05 404.7 393.6
L 403.75 394.3
Q 402.55 395.25 401.35 395.25
L 399.2 395.45
Q 398.95 395.45 398.25 395.2
L 398.15 395.15
Q 397.35 394.9 397.05 394.9 396.85 394.9 396.45 395.45 396.1 396 395.15 396 393.65 395.9 393.55 395.95 393.55 396 393.45 396.2 393.35 396.5 392.85 396.9 392.75 396.8 391.95 396.75 391.35 396.7 391.05 396.7 391.05 396.85 391.9 397
L 390.15 397
Q 389.05 398.1 388.45 398.5 388.05 398.7 387.25 398.8 386.45 398 384.95 397.2 383.7 396.5 383.5 396.5 383 396.5 382.55 396.05 382.15 395.6 381.15 395.6 380.8 395.6 380.65 395.65
L 380.6 395.65
Q 380.6 393.8 378.75 392.25 377.3 390.95 376.5 390.95 375.7 390.95 375 390.45 374.6 390.25 373.35 390.8 372.9 391.05 372.4 391.65 371.8 392.4 371 392.85 370.25 393.35 369.45 394.55 368.5 395.95 368.4 397.15 367.8 397.15 366.65 396.7 365.55 396.25 365.5 396.25
L 364.35 397.6
Q 363.3 396.5 362.55 395.8 361.1 394.4 360.4 394.4 358.05 394.4 357.45 393.7 357 393.15 356.7 392.75 356.05 391.95 355.1 391.15
L 353.05 391.15
Q 351.95 391.65 350.35 392.6 350.25 392.65 350.15 392.65
L 350.15 392.7
Q 349.95 392.65 349.75 392.6 348.6 392.3 347.95 392.95 347.2 393.6 346.05 393.5 346.05 393.7 347.35 393.7 347.65 393.7 348 393.3 348.35 392.85 349.65 392.85 349.75 392.85 349.85 392.9 348.9 393.4 347.45 394.35
L 346.9 394.65
Q 345.95 395.35 345.25 394.8 344.65 394.1 344.35 394 344.05 393.9 343.75 393.9
L 343.85 393.35
Q 342.85 393.15 342.05 392.85 340.85 392.15 340.75 392.15 340.4 392.15 339.85 392.15
L 339.25 392.25
Q 339.05 392.35 338.75 392.75
L 336.95 392.85
Q 336.75 393.05 336.6 393.5 336.75 393.6 336.95 393.7 336.95 393.65 336.95 393.6 337.1 393.25 338.45 393.3 337.85 393.6 337.15 394.3 336.35 395.15 336.1 395.15 335.75 395.15 335.05 394.8 334.8 395.15 334.75 395.15 334.1 395.15 333.9 394.8 333.7 394.45 333.3 394.45 333.25 394.55 333.2 394.9 333.1 394.9 332.85 395.15
L 332 395.05
Q 332.2 394.95 332.3 394.85 331.9 394.75 331.05 394.45
L 329.7 394
Q 328.55 394 328.3 394.3 328.1 394.4 327.95 394.9
L 326.45 394.95
Q 326.3 395.05 326.25 395.25 326.2 395.35 326.15 395.5 325.95 395.45 325.6 395.15 325.5 395.05 325.4 395
L 324.7 395.05
Q 323.95 395 323.65 394.85 323.3 394.7 322.9 394.5 322.85 394.55 322.8 394.6
L 322.45 394.35
Q 321.7 394.1 320.85 393.8 319.3 393.05 318.5 393.4 318.1 393.8 317.6 394 317.35 393.85 317.15 393.7 317.2 393.7 317.25 393.65 317.55 393.5 318.45 393.4
L 318.5 393.25
Q 318.4 393.15 317.7 393.2 316.9 393.25 316.85 393.25 316.85 393.3 316.9 393.5 316.9 393.55 316.9 393.6 316.65 393.4 316.4 393.15 316.05 392.85 315.65 392.35 314.5 392.35 313.05 393
L 311.65 393.65
Q 310.2 393.65 309.8 394.75 309.75 394.95 309.55 395.6 309.5 396.1 309.3 396.2 308.25 395.6 308.15 395.6 307.85 395.6 307.45 395.6 307.4 395.6 306.85 395.5 306.75 395.5 306.75 395.45 306.25 395.35 305.85 395.35 305.75 395.35 305.7 395.35 304.65 395.35 304.4 395.6 304.35 395.65 304.3 395.95 304.3 396 304.3 396.1 304.3 396.5 304.35 396.5 304.4 396.55 304.55 396.6
L 303.95 396.7
Q 303.5 396.3 303.05 396 302.75 395.8 302.4 395.6 301.75 395.25 301.05 395 300.75 394.9 300.4 394.85 299.65 394.65 298.85 394.65 298.8 394.55 298.75 394.5
L 298.75 394.1 299.1 394.05
Q 299.1 393.7 298.85 393.5
L 298.6 393.4
Q 298.3 393.6 295.85 393.8 293.15 395.3 292.15 396.75 291.35 397.95 291.25 399.7 291.2 399.9 291.2 400.1 291.3 399.9 291.3 399.7 291.65 398.65 292.15 397.7
L 292.4 397.8
Q 292.45 398.05 292.45 398.3 292.65 401.05 291.95 405.6 290.9 412.7 290.8 413.4
L 290.7 413.4
Q 290.8 412.1 290.9 411 291.15 409.35 291 406.35 291 405.9 291 405.5 290.95 405 290.95 404.5 290.9 405 290.9 405.5 290.6 408.6 290.25 413.7 289.3 427.15 289.25 431.65 289.2 432.55 287.2 446.6 285.2 460.85 285.2 463.55 285.2 470.85 288.15 482.5 290.45 491.7 290.55 492.05 291.85 497.6 292.4 502.05 292.85 505.25 293.5 511.75 294.15 517.55 295 521.5 297.45 532.6 304.1 540.65 309.25 546.95 314.5 550.4 318.2 552.75 322.65 554.55 328.9 557.05 336.65 558.35 346.15 559.85 357.3 562.2 365.5 563.95 371.6 565.4 372.2 565.55 380.95 568.15 391.7 571.05 402.4 573.45 436.65 581.05 463.4 581.05 468.15 581.05 489.4 579.3 512.65 577.3 520.85 575.9 526.35 574.95 533.7 572.5 545 568.75 547.2 568.05 558.6 564.75 570.15 560.1 571.95 559.4 573.95 558.55 574.7 558.55 575.2 558.25
L 575.55 557.95
Q 579.45 556.35 584.5 554.3 585.65 554.05 587 553.85 589.7 553.15 590.4 552.05 597.7 549.55 604.75 548.3 615.25 546.45 629.4 546.45 635.85 546.45 643.4 547.9 647.25 548.7 657.05 551.15 665.95 553.45 671.6 554.45 680.25 555.9 688.5 555.9 701.7890625 555.9 711.3 551.9 710.0111328125 551.1888671875 708.8 550.4 703.55 546.95 698.4 540.65 691.75 532.6 689.3 521.5 688.45 517.55 687.8 511.75 687.1 505.25 686.75 502.05 686.15 497.6 684.85 492.05 684.75 491.7 682.45 482.5 679.55 470.85 679.55 463.55 679.55 460.85 681.5 446.6 683.5 432.55 683.55 431.65 683.6 427.15 684.55 413.7 684.95 408.6 685.2 405.5 685.246875 405.1248046875 685.25 404.8 685.253125 405.125 685.3 405.5 685.3 405.9 685.35 406.35 685.45 409.35 685.25 411 685.1 412.1 685 413.4
L 685.15 413.4
Q 685.2 412.7 686.3 405.6 687.05 400.6 686.75 397.8
L 686.5 397.7
Q 685.85 398.8 685.55 400.1 685.6 398.1 686.5 396.75 686.7203125 396.413671875 687 396.05 686.7615234375 395.596875 686.5 395.15 686.4 395.15 683.9 396.05 681.8 396 681.3 395.45
L 681.05 395
M 314.7 392.75
Q 314.8 392.6 315.45 392.6
L 315.8 393 314.7 392.75
M 566.1 560.85
L 565.7 559.7
Q 566.15 559.35 566.4 558.65 566.65 558.05 567.15 557.75 568.6 556.8 575.85 556.3 575.35 556.75 574.95 557.3 573.75 556.5 573.25 556.55 572.55 556.95 571.75 557.15 571.75 557.45 572.15 558.15 572.55 558.2 573.05 558.45 569.35 559.75 566.1 560.85
M 591 551.05
Q 591.2 551.05 591.65 550.95
L 591.65 551
Q 591.4 551.15 591.05 551.25
L 591 551.05
M 590.85 550.4
Q 590.85 550.6 590.85 550.75
L 590.45 549.85 590.85 549.95
Q 590.85 550.1 590.85 550.4
M 581.15 555
Q 582.3 554.75 583.9 554.45 580.05 556 576.35 557.3 576.25 557.35 576.15 557.35 577.75 555.85 581.15 555
M 366.5 396.85
L 364.8 397.9
Q 365.05 397.7 365.4 397.1 365.7 396.6 365.9 396.55 366.05 396.7 366.5 396.85 Z"/>

<path fill="url(#Gradient_4)" stroke="none" d="
M 975.8 394.65
Q 975.7 394.6 975.7 394.55 975.65 394.55 975.65 394.8
L 975.6 394.8
Q 975.5 394.4 975.8 393.7 976.2 392.85 976.9 392.85 977.1 392.85 977.25 392.85 976.2 392.25 975.85 392.95 975.6 394.2 975.4 394.5
L 973.8 394.65
Q 973.5 395 972.1 395.6 970.75 396.2 970.15 396.2 969.8 396.2 969.65 395.9 969.55 395.6 968.3 395.6 968.15 395.6 967.8 396.3 967.5 397 967.5 397.3
L 966 397.4
Q 964.8 398.5 962.4 400
L 960.55 401.1
Q 959.7 401.5 959.5 401.5 959.25 401.5 958.6 400.95 957.8 400.25 957.8 400.2 957.4 399.95 955.65 399.75 954.05 399.55 952.95 399.55 952.65 399.55 952.85 399.85 953.05 400.1 952.75 400.1 951.85 399.85 950.8 399.55 948.75 399.05 948 399.1 948 399 947.95 398.9
L 947.95 398.95 946.45 398.85
Q 946.45 398.7 946.25 398.7
L 946.15 398.6
Q 945.3 398.75 944.65 398.5 943.85 398.15 943.1 398.15 942.95 398.15 942.65 398.7 942.25 399.2 941.4 399.2 941.25 399.2 939.4 397.9 937.65 396.6 937.35 396.25 936.25 395.7 933.05 396.5 929.8 397.6 929.3 397.7 928.1 398 926.25 400.65 924.8 402.7 924.2 403.1
L 924.1 403.7
Q 924.05 403.7 924 403.7
L 924 403.9 919.8 404.1
Q 919.75 404.1 919.7 404.1
L 918.8 404.15
Q 918.75 404.25 918.7 404.35 918.4 404.35 918.15 404.5 917.8 404.75 917.55 404.85 917.5 404.45 917.25 404.1 917 403.7 916.7 403.5
L 916.6 403.7 916.55 403.6
Q 916.05 403.2 915.5 402.5 914.75 401.6 914.45 401.2 911.7 401.2 911.5 401.05 911.55 400.55 910.7 399.85 908.55 399.65 906.85 399.2
L 905.55 398.75
Q 904.45 398.3 903.75 398
L 903.65 397.95
Q 900.55 396.7 898.95 396 896.1 394.55 894.85 393.3
L 891.75 393.2
Q 891.65 392.25 891.6 391.75 891.55 390.95 890.8 390.95 889.75 390.95 889.35 390.85
L 885.6 391.55
Q 885.15 392.05 884.8 392.4 881.6 392.65 881.55 393.25 881.5 393.4 881.75 393.9 881.95 394.2 882 394.5 879.5 393.1 878.75 393.5 878.3 393.8 878.05 394 877.6 394.35 876.9 394.35 876.65 394.35 876.15 394.1 875.55 393.85 875.05 393.75 874.75 394.6 874.1 396.15 873.5 397.4 873.3 398 873.1 397.9 872.95 397.8 872.95 397.75 872.9 397.7 871.2 397.5 869.25 396.4 868.75 396.1 868.2 395.95 867.05 395.6 865.6 395.75 865.2 395.45 864.75 395.15
L 862.85 394.05
Q 862.8 394.05 862.75 394 861.25 393.25 860.95 393.25 860.3 393.25 859.75 393.3
L 859.75 392.8
Q 859.45 392.8 858.85 392.6 858.15 392.35 857.85 392.35
L 856.45 392.4
Q 856.25 393 854.85 393.65 855.15 393.6 855.35 393.6 855.25 393.95 854.85 393.95 854.65 393.95 854.35 393.9 854.25 393.9 854.15 393.95
L 853.6 393.9
Q 853.65 393.9 853.85 393.8 853.75 393.8 853.65 393.75 852.8 393.5 852.5 393.5 852.1 393.5 851.65 394.1 851.55 394.2 851.45 394.35
L 850.65 395.4
Q 849.5 395.85 846.7 396.05 846.45 396.2 846.3 396.6
L 845.05 396.9
Q 844.85 396.8 844.65 396.7
L 844.25 396.6
Q 844.15 397 844.15 397.6 844.05 398 842.6 398.15
L 842.4 398.15
Q 842.3 398 841.85 397.9 841.35 397.7 840.95 397.7 840.65 397.7 840.25 398 839.85 398.25 839.55 398.25 839.3 398.25 838.95 398 838.65 397.7 838.35 397.7 838.1 397.7 837.5 398.2 836.95 398.7 836.9 398.7 836.55 398.7 836.5 398.6 836.45 398.4 836.4 398.3 836.3 398.15 836.4 397.8 836.5 397.4 836.5 397.25 836.4 397.2 832.1 393.5 828.5 390.45 827.1 390.45 827.05 390.65 826.85 390.75 826.55 390.85 825.5 390.05
L 821.7 389.95
Q 821 390.85 820.9 390.85
L 820.9 390.9 819.1 391.85
Q 818.6 392.35 818.05 393.05 816.45 395.3 817.15 396.15
L 816.85 395.9
Q 816.65 395.6 816.3 395.6 816.05 395.6 815.75 395.9 815.7 395.95 815.65 396
L 814.15 396.35
Q 813.35 396.4 812.85 396.4 811.55 396.4 811.15 396.2 810.85 395.95 810.5 395.85 810.45 395.85 810.4 395.8
L 810.4 396.2
Q 810.4 396.4 810.45 396.6
L 810.3 396.7
Q 808.45 395.9 807.45 395.25 806.25 394.5 805.4 393.5 803.3 393.3 802.45 393.1 802.05 393.05 800.6 393.05 799.85 393.05 799 393.6
L 798.05 394.3
Q 796.9 395.25 795.7 395.25
L 793.5 395.45
Q 793.25 395.45 792.6 395.2
L 792.45 395.15
Q 791.65 394.9 791.4 394.9 791.2 394.9 790.8 395.45 790.4 396 789.5 396 787.95 395.9 787.9 395.95 787.85 396 787.8 396.2 787.65 396.5 787.2 396.9 787.05 396.8 786.3 396.75 785.7 396.7 785.4 396.7 785.4 396.85 786.2 397
L 784.5 397
Q 783.4 398.1 782.75 398.5 782.4 398.7 781.55 398.8 780.8 398 779.25 397.2 778 396.5 777.8 396.5 777.3 396.5 776.9 396.05 776.5 395.6 775.45 395.6 775.15 395.6 775 395.65
L 774.95 395.65
Q 774.95 393.8 773.05 392.25 771.6 390.95 770.85 390.95 770 390.95 769.3 390.45 768.9 390.25 767.65 390.8 767.2 391.05 766.7 391.65 766.1 392.4 765.35 392.85 764.55 393.35 763.75 394.55 762.8 395.95 762.7 397.15 762.1 397.15 760.95 396.7
L 759.85 396.25
Q 759.8 396.25 759.25 396.9
L 758.65 397.6
Q 757.65 396.5 756.85 395.8 755.4 394.4 754.65 394.4 752.4 394.4 751.75 393.7 751.3 393.15 751 392.75 750.4 391.95 749.4 391.15
L 747.4 391.15
Q 746.25 391.65 744.6 392.6 744.5 392.65 744.45 392.65
L 744.45 392.7
Q 744.25 392.65 744 392.6 742.9 392.3 742.25 392.95 741.5 393.6 740.4 393.5
L 740.35 393.5
Q 740.35 393.7 741.65 393.7 741.95 393.7 742.3 393.3 742.7 392.85 744 392.85 744.05 392.85 744.1 392.9 743.2 393.4 741.75 394.35
L 741.2 394.65
Q 740.25 395.35 739.6 394.8 739 394.1 738.6 394 738.35 393.9 738.05 393.9
L 738.15 393.35
Q 737.2 393.15 736.4 392.85 735.2 392.15 735.1 392.15 734.7 392.15 734.1 392.15
L 733.6 392.25
Q 733.35 392.35 733.05 392.75
L 731.25 392.85
Q 731.05 393.05 730.95 393.5 731.1 393.6 731.25 393.7 731.25 393.65 731.3 393.6 731.4 393.25 732.8 393.3 732.15 393.6 731.5 394.3 730.7 395.15 730.45 395.15 730.05 395.15 729.35 394.8 729.1 395.15 729.05 395.15 728.4 395.15 728.2 394.8 728 394.45 727.65 394.45
L 727.6 394.45
Q 727.55 394.55 727.5 394.9 727.4 394.9 727.15 395.15
L 726.35 395.05
Q 726.5 394.95 726.65 394.85 726.25 394.75 725.35 394.45
L 724 394
Q 722.85 394 722.55 394.3 722.45 394.4 722.25 394.9
L 720.75 394.95
Q 720.65 395.05 720.55 395.25 720.5 395.35 720.45 395.5 720.25 395.45 719.95 395.15 719.85 395.05 719.75 395
L 718.95 395.05
Q 718.25 395 717.95 394.85 717.6 394.7 717.2 394.5 717.15 394.55 717.1 394.6
L 716.75 394.35
Q 716.05 394.1 715.15 393.8 713.6 393.05 712.85 393.4 712.4 393.8 711.95 394 711.65 393.85 711.45 393.7 711.5 393.7 711.55 393.65 711.85 393.5 712.75 393.4
L 712.8 393.25
Q 712.75 393.15 712 393.2 711.25 393.25 711.15 393.25 711.15 393.3 711.2 393.5 711.2 393.55 711.2 393.6 710.95 393.4 710.7 393.15 710.35 392.85 709.95 392.35 708.8 392.35 707.4 393 706 393.65 705.95 393.65 704.5 393.65 704.1 394.75 704.05 394.95 703.9 395.6 703.8 396.1 703.6 396.2 702.55 395.6 702.4 395.6 702.2 395.6 701.75 395.6 701.7 395.6 701.15 395.5 700.55 395.35 700 395.35 699 395.35 698.7 395.6 698.6 395.7 698.6 396.1 698.6 396.5 698.7 396.5 698.7 396.55 698.9 396.6
L 698.25 396.7
Q 697.5 396.1 696.7 395.6 695.1 394.65 693.1 394.65 693.1 394.55 693.1 394.5
L 693 394.1 693.4 394.05
Q 693.4 393.7 693.15 393.5
L 692.9 393.4
Q 692.6 393.6 690.15 393.8 688.0763671875 394.9521484375 687 396.05 686.7203125 396.413671875 686.5 396.75 685.6 398.1 685.55 400.1 685.85 398.8 686.5 397.7
L 686.75 397.8
Q 687.05 400.6 686.3 405.6 685.2 412.7 685.15 413.4
L 685 413.4
Q 685.1 412.1 685.25 411 685.45 409.35 685.35 406.35 685.3 405.9 685.3 405.5 685.253125 405.125 685.25 404.8 685.246875 405.1248046875 685.2 405.5 684.95 408.6 684.55 413.7 683.6 427.15 683.55 431.65 683.5 432.55 681.5 446.6 679.55 460.85 679.55 463.55 679.55 470.85 682.45 482.5 684.75 491.7 684.85 492.05 686.15 497.6 686.75 502.05 687.1 505.25 687.8 511.75 688.45 517.55 689.3 521.5 691.75 532.6 698.4 540.65 703.55 546.95 708.8 550.4 710.0111328125 551.1888671875 711.3 551.9 719.4046875 556.4115234375 730.95 558.35 740.5 559.85 751.6 562.2 759.85 563.95 765.9 565.4 766.55 565.55 775.3 568.15 786 571.05 796.7 573.45 830.95 581.05 857.7 581.05 862.45 581.05 883.7 579.3 906.95 577.3 915.15 575.9 920.65 574.95 928 572.5 939.3 568.75 941.5 568.05 952.95 564.75 964.5 560.1 966.2 559.4 968.3 558.55 969 558.55 969.5 558.25
L 969.85 557.95
Q 973.8 556.35 978.75 554.3 979.95 554.05 981.35 553.85 984 553.15 984.75 552.05 992.05 549.55 999.05 548.3 1009.55 546.45 1023.7 546.45 1030.15 546.45 1037.7 547.9 1041.55 548.7 1051.35 551.15 1060.3 553.45 1065.95 554.45 1074.55 555.9 1082.8 555.9 1090.1859375 555.9 1096.4 554.65 1096.2853515625 554.6041015625 1096.15 554.55 1091.7 552.75 1088 550.4 1082.75 546.95 1077.6 540.65 1070.95 532.6 1068.5 521.5 1067.65 517.55 1067 511.75 1066.35 505.25 1065.9 502.05 1065.35 497.6 1064.05 492.05 1063.95 491.7 1061.65 482.5 1058.7 470.85 1058.7 463.55 1058.7 460.85 1060.7 446.6 1062.7 432.55 1062.75 431.65 1062.8 427.15 1063.75 413.7 1064.1 408.6 1064.4 405.5 1064.4 405 1064.45 404.5 1064.45 405 1064.5 405.5 1064.5 405.9 1064.5 406.35 1064.65 409.35 1064.4 411 1064.3 412.1 1064.2 413.4
L 1064.3 413.4
Q 1064.3654296875 412.942578125 1064.8 409.75 1065.0265625 407.2921875 1065.2 405.5 1065.2 405 1065.25 404.5 1065.25 405 1065.3 405.5 1065.3 405.9 1065.3 406.35 1065.3048828125 406.448828125 1065.3 406.55 1065.377734375 406.0884765625 1065.45 405.6 1065.9939453125 402.064453125 1066 399.6 1065.9513671875 399.66328125 1065.9 399.7 1065.75 399.7 1065.6 399.7 1065.6 399.9 1065.5 400.1 1065.5 399.9 1065.55 399.7 1065.15390625 399.7060546875 1064.8 399.7 1064.8 399.9 1064.7 400.1 1064.7 399.9 1064.75 399.7 1062.179296875 399.75 1061.7 399.75 1059.85 399.75 1057.9 398.4 1056.3 397 1056.05 397 1055.95 397 1055.85 397.1
L 1055.8 397.1
Q 1055.65 397.15 1055.5 397.3 1055.3 397.6 1055 397.6 1054.3 397.6 1054.25 397.4 1054.25 397.35 1054.2 397.3 1054.15 396.9 1053.95 396.8 1053.5 397.1 1053.2 397.3 1052.65 397.6 1052.1 397.6 1051.2 397.6 1050.4 397.2
L 1049.8 396.8
Q 1049.6 396.8 1048.15 397.7 1046.7 398.6 1046.5 398.6 1045.45 398.6 1045.45 398.4 1045.25 398.4 1045.1 398.3 1044.9 398.5 1044.4 398.8 1043.45 399.3 1043.25 399.5 1040.05 399.5 1037.65 400.05 1035.65 400.5 1034.45 401.2 1033.65 401.1 1033.25 401.1 1033.1 401.1 1032.9 401.1
L 1031.9 402
Q 1031.65 402.5 1031.45 402.85 1030.95 403.5 1030.65 403.5 1030.4 403.5 1029.65 403.4 1028.8 403.3 1027.7 403.2 1026.9 401.8 1026.8 401.65 1026.05 400.55 1024.95 400 1024.05 399.5 1023.2 398.75 1022.25 397.8 1022.1 397.1 1020.7 397.1 1020.65 397.1 1020.2 397 1020 396.8
L 1019.9 396.25
Q 1020 396.2 1020 396.1 1020 396 1019.8 395.75 1019.6 395.5 1019.5 395.4 1018.25 395.9 1016.55 395.1 1015.05 394.2 1015 394.2 1014.7 394.2 1014.2 394.5 1013.8 394.75 1013.5 394.75 1013.15 394.75 1012.9 394.35 1012.7 394 1011.6 394 1011.3 394 1010.5 394.3 1009.7 394.55 1009.4 394.55 1008.7 393.95 1008.1 393.6 1006.9 393.05 1005.9 394.4 1005.5 395 1004.5 395.35
L 1004.5 395.4
Q 1004.7 395.6 1005 395.6 1005.1 395.6 1005.2 395.55
L 1005.5 396.1
Q 1005.6 396.2 1006.2 396.6 1003.8 396.2 1002.45 396.35 1001.8 396.4 1001.4 396.55
L 1001.2 396.05
Q 1001.3 396 1001.35 396 1000 395.8 998.65 396.3 997.75 396.7 996.4 396.8 996.25 396.7 996.05 396.6 992.95 394.65 992.15 394.2
L 988.85 394.2
Q 988.75 394.3 987.95 394.4 987.05 394.5 986.85 394.55 986.85 394.65 986.8 395.45 986.45 396.2 985.25 396.2 984.95 396.2 984.55 395.85 984.5 395.8 984.45 395.7 983.85 395.05 983.6 394.9
L 981.85 394.9
Q 979.6 395 977.8 394.85
L 977.75 394.85
Q 976.7 394.8 975.8 394.65
M 709 392.75
Q 709.1 392.6 709.75 392.6
L 710.15 393 709 392.75
M 960.4 560.85
L 960 559.7
Q 960.45 559.35 960.7 558.65 960.95 558.05 961.4 557.75 962.9 556.8 970.15 556.3 969.65 556.75 969.3 557.3 968.05 556.5 967.5 556.55 966.8 556.95 966.05 557.15 966.05 557.45 966.45 558.15 966.8 558.2 967.35 558.45
L 967.4 558.45
Q 963.65 559.75 960.4 560.85
M 970.65 557.3
Q 970.55 557.35 970.5 557.35 972.1 555.85 975.45 555 976.6 554.75 978.2 554.45 974.4 556 970.65 557.3
M 760.75 396.85
L 759.15 397.9
Q 759.35 397.7 759.7 397.1 760 396.6 760.2 396.55 760.35 396.7 760.75 396.85
M 985.35 551.25
L 985.3 551.05
Q 985.5 551.05 985.95 550.95
L 985.95 551
Q 985.7 551.15 985.35 551.25
M 985.15 550.75
L 984.75 549.85 985.15 549.95
Q 985.15 550.1 985.15 550.4 985.15 550.6 985.15 550.75 Z"/>

<path fill="url(#Gradient_5)" stroke="none" d="
M 1348.85 395.9
Q 1348.75 395.6 1347.5 395.6 1347.35 395.6 1347 396.3 1346.65 397 1346.65 397.3
L 1345.15 397.4
Q 1343.95 398.5 1341.6 400
L 1339.75 401.1
Q 1338.9 401.5 1338.7 401.5 1338.45 401.5 1337.8 400.95 1337.05 400.25 1336.95 400.2 1336.65 399.95 1334.85 399.75 1333.2 399.55 1332.1 399.55 1331.8 399.55 1332 399.85 1332.25 400.1 1331.95 400.1 1331 399.85 1330 399.55 1327.95 399.05 1327.2 399.1 1327.2 399 1327.15 398.9 1327.1 398.85 1327.1 398.95
L 1325.7 398.85
Q 1325.65 398.7 1325.5 398.7
L 1325.3 398.6
Q 1324.5 398.75 1323.85 398.5 1323 398.15 1322.3 398.15 1322.15 398.15 1321.8 398.7 1321.45 399.2 1320.6 399.2 1320.4 399.2 1318.6 397.9 1316.85 396.6 1316.5 396.25 1315.5 395.7 1312.25 396.5 1309 397.6 1308.55 397.7 1307.25 398 1305.45 400.65 1304 402.7 1303.4 403.1
L 1303.25 403.7 1303.15 403.7 1303.15 403.9 1297.95 404.15
Q 1297.95 404.25 1297.85 404.35 1297.55 404.35 1297.35 404.5 1296.95 404.75 1296.75 404.85 1296.7 404.45 1296.45 404.1 1296.2 403.7 1295.9 403.5
L 1295.8 403.7 1295.75 403.6
Q 1295.25 403.2 1294.65 402.5 1293.95 401.6 1293.65 401.2 1290.9 401.2 1290.7 401.05 1290.75 400.55 1289.9 399.85 1287.75 399.65 1286 399.2
L 1284.75 398.75
Q 1283.65 398.3 1282.9 398
L 1282.9 397.95
Q 1279.75 396.7 1278.2 396 1275.3 394.55 1274 393.3
L 1270.9 393.2
Q 1270.85 392.25 1270.8 391.75 1270.7 390.95 1270 390.95 1269 390.95 1268.6 390.85
L 1264.75 391.55
Q 1264.35 392.05 1264 392.4 1260.8 392.65 1260.75 393.25 1260.65 393.4 1260.95 393.9 1261.15 394.2 1261.15 394.5 1258.7 393.1 1257.95 393.5 1257.55 393.8 1257.25 394 1256.8 394.35 1256.1 394.35 1255.85 394.35 1255.35 394.1 1254.75 393.85 1254.25 393.75 1253.95 394.6 1253.3 396.15 1252.75 397.4 1252.45 398 1252.25 397.9 1252.15 397.8 1252.15 397.75 1252.05 397.7 1250.35 397.5 1248.45 396.4 1247.95 396.1 1247.35 395.95 1246.25 395.6 1244.8 395.75 1244.35 395.45 1243.9 395.15
L 1242 394.05 1242 394
Q 1240.45 393.25 1240.1 393.25 1239.5 393.25 1238.95 393.3
L 1238.95 392.8
Q 1238.65 392.8 1238 392.6 1237.4 392.35 1237.1 392.35
L 1235.6 392.4
Q 1235.4 393 1234.05 393.65 1234.3 393.6 1234.55 393.6 1234.45 393.95 1234.05 393.95 1233.85 393.95 1233.5 393.9 1233.4 393.9 1233.35 393.95
L 1232.8 393.9 1233 393.8
Q 1232.95 393.8 1232.9 393.75 1232 393.5 1231.7 393.5 1231.3 393.5 1230.8 394.1 1230.75 394.2 1230.6 394.35
L 1229.8 395.4
Q 1228.7 395.85 1225.9 396.05 1225.6 396.2 1225.5 396.6
L 1224.25 396.9
Q 1224.05 396.8 1223.8 396.7 1223.45 396.6 1223.4 396.6 1223.3 397 1223.35 397.6 1223.2 398 1221.8 398.15
L 1221.55 398.15
Q 1221.5 398 1221 397.9 1220.55 397.7 1220.15 397.7 1219.85 397.7 1219.45 398 1219.05 398.25 1218.75 398.25 1218.45 398.25 1218.15 398 1217.85 397.7 1217.55 397.7 1217.25 397.7 1216.7 398.2 1216.15 398.7 1216.1 398.7 1215.75 398.7 1215.7 398.6 1215.65 398.4 1215.55 398.3 1215.55 398.15 1215.65 397.8 1215.7 397.4 1215.65 397.25 1215.65 397.2 1211.25 393.5 1207.65 390.45 1206.25 390.45 1206.25 390.65 1206.05 390.75 1205.75 390.85 1204.7 390.05
L 1200.9 389.95
Q 1200.15 390.85 1200.05 390.85
L 1200.05 390.9 1198.3 391.85
Q 1197.8 392.35 1197.25 393.05 1195.6 395.3 1196.35 396.15 1196.3 396.15 1196.1 395.9 1195.85 395.6 1195.5 395.6 1195.2 395.6 1194.9 395.9 1194.9 395.95 1194.9 396
L 1193.3 396.35
Q 1192.5 396.4 1192 396.4 1190.7 396.4 1190.35 396.2 1190.1 395.95 1189.7 395.85 1189.65 395.85 1189.6 395.8
L 1189.6 396.2
Q 1189.6 396.4 1189.6 396.6
L 1189.5 396.7
Q 1187.65 395.9 1186.65 395.25 1185.4 394.5 1184.6 393.5 1182.5 393.3 1181.65 393.1 1181.3 393.05 1179.8 393.05 1179 393.05 1178.2 393.6
L 1177.25 394.3
Q 1176.05 395.25 1174.85 395.25
L 1172.7 395.45
Q 1172.45 395.45 1171.75 395.2
L 1171.65 395.15
Q 1170.85 394.9 1170.55 394.9 1170.35 394.9 1169.95 395.45 1169.6 396 1168.65 396 1167.15 395.9 1167.05 395.95 1167.05 396 1166.95 396.2 1166.85 396.5 1166.35 396.9 1166.25 396.8 1165.45 396.75 1164.85 396.7 1164.55 396.7 1164.55 396.85 1165.4 397
L 1163.65 397
Q 1162.55 398.1 1161.95 398.5 1161.55 398.7 1160.75 398.8 1159.95 398 1158.45 397.2 1157.2 396.5 1157 396.5 1156.5 396.5 1156.05 396.05 1155.65 395.6 1154.65 395.6 1154.3 395.6 1154.15 395.65
L 1154.1 395.65
Q 1154.1 393.8 1152.25 392.25 1150.8 390.95 1150 390.95 1149.2 390.95 1148.5 390.45 1148.1 390.25 1146.85 390.8 1146.4 391.05 1145.9 391.65 1145.3 392.4 1144.5 392.85 1143.75 393.35 1142.95 394.55 1142 395.95 1141.9 397.15 1141.3 397.15 1140.15 396.7 1139.05 396.25 1139 396.25
L 1137.85 397.6
Q 1136.8 396.5 1136.05 395.8 1134.6 394.4 1133.9 394.4 1131.55 394.4 1130.95 393.7 1130.5 393.15 1130.2 392.75 1129.55 391.95 1128.6 391.15
L 1126.55 391.15
Q 1125.45 391.65 1123.85 392.6 1123.75 392.65 1123.65 392.65
L 1123.65 392.7
Q 1123.45 392.65 1123.25 392.6 1122.1 392.3 1121.45 392.95 1120.7 393.6 1119.55 393.5 1119.55 393.7 1120.85 393.7 1121.15 393.7 1121.5 393.3 1121.85 392.85 1123.15 392.85 1123.25 392.85 1123.35 392.9 1122.4 393.4 1120.95 394.35
L 1120.4 394.65
Q 1119.45 395.35 1118.75 394.8 1118.15 394.1 1117.85 394 1117.55 393.9 1117.25 393.9
L 1117.35 393.35
Q 1116.35 393.15 1115.55 392.85 1114.35 392.15 1114.25 392.15 1113.9 392.15 1113.35 392.15
L 1112.75 392.25
Q 1112.55 392.35 1112.25 392.75
L 1110.45 392.85
Q 1110.25 393.05 1110.1 393.5 1110.25 393.6 1110.45 393.7 1110.45 393.65 1110.45 393.6 1110.6 393.25 1111.95 393.3 1111.35 393.6 1110.65 394.3 1109.85 395.15 1109.6 395.15 1109.25 395.15 1108.55 394.8 1108.3 395.15 1108.25 395.15 1107.6 395.15 1107.4 394.8 1107.2 394.45 1106.8 394.45 1106.75 394.55 1106.7 394.9 1106.6 394.9 1106.35 395.15
L 1105.5 395.05
Q 1105.7 394.95 1105.8 394.85 1105.4 394.75 1104.55 394.45
L 1103.2 394
Q 1102.05 394 1101.8 394.3 1101.6 394.4 1101.45 394.9
L 1099.95 394.95
Q 1099.8 395.05 1099.75 395.25 1099.7 395.35 1099.65 395.5 1099.45 395.45 1099.1 395.15 1099 395.05 1098.9 395
L 1098.2 395.05
Q 1097.45 395 1097.15 394.85 1096.8 394.7 1096.4 394.5 1096.35 394.55 1096.3 394.6
L 1095.95 394.35
Q 1095.2 394.1 1094.35 393.8 1092.8 393.05 1092 393.4 1091.6 393.8 1091.1 394 1090.85 393.85 1090.65 393.7 1090.7 393.7 1090.75 393.65 1091.05 393.5 1091.95 393.4
L 1092 393.25
Q 1091.9 393.15 1091.2 393.2 1090.4 393.25 1090.35 393.25 1090.35 393.3 1090.4 393.5 1090.4 393.55 1090.4 393.6 1090.15 393.4 1089.9 393.15 1089.55 392.85 1089.15 392.35 1088 392.35 1086.55 393
L 1085.15 393.65
Q 1083.7 393.65 1083.3 394.75 1083.25 394.95 1083.05 395.6 1083 396.1 1082.8 396.2 1081.75 395.6 1081.65 395.6 1081.35 395.6 1080.95 395.6 1080.9 395.6 1080.35 395.5 1080.25 395.5 1080.25 395.45 1079.75 395.35 1079.35 395.35 1079.25 395.35 1079.2 395.35 1078.15 395.35 1077.9 395.6 1077.85 395.65 1077.8 395.95 1077.8 396 1077.8 396.1 1077.8 396.5 1077.85 396.5 1077.9 396.55 1078.05 396.6
L 1077.45 396.7
Q 1077 396.3 1076.55 396 1076.25 395.8 1075.9 395.6 1075.25 395.25 1074.55 395 1074.25 394.9 1073.9 394.85 1073.15 394.65 1072.35 394.65 1072.3 394.55 1072.25 394.5
L 1072.25 394.1 1072.6 394.05
Q 1072.6 393.7 1072.35 393.5
L 1072.1 393.4
Q 1071.8 393.6 1069.35 393.8 1066.65 395.3 1065.65 396.75 1064.85 397.95 1064.75 399.7 1064.7 399.9 1064.7 400.1 1064.8 399.9 1064.8 399.7 1065.15 398.65 1065.65 397.7
L 1065.9 397.8
Q 1065.95 398.05 1065.95 398.3 1065.99453125 398.9130859375 1066 399.6 1065.9939453125 402.064453125 1065.45 405.6 1065.377734375 406.0884765625 1065.3 406.55 1065.034375 408.3962890625 1064.8 409.75 1064.3654296875 412.942578125 1064.3 413.4
L 1064.2 413.4
Q 1064.3 412.1 1064.4 411 1064.65 409.35 1064.5 406.35 1064.5 405.9 1064.5 405.5 1064.45 405 1064.45 404.5 1064.4 405 1064.4 405.5 1064.1 408.6 1063.75 413.7 1062.8 427.15 1062.75 431.65 1062.7 432.55 1060.7 446.6 1058.7 460.85 1058.7 463.55 1058.7 470.85 1061.65 482.5 1063.95 491.7 1064.05 492.05 1065.35 497.6 1065.9 502.05 1066.35 505.25 1067 511.75 1067.65 517.55 1068.5 521.5 1070.95 532.6 1077.6 540.65 1082.75 546.95 1088 550.4 1091.7 552.75 1096.15 554.55 1096.2853515625 554.6041015625 1096.4 554.65 1102.56796875 557.078125 1110.15 558.35 1119.65 559.85 1130.8 562.2 1139 563.95 1145.1 565.4 1145.7 565.55 1154.45 568.15 1165.2 571.05 1175.9 573.45 1210.15 581.05 1236.9 581.05 1241.65 581.05 1262.9 579.3 1286.15 577.3 1294.35 575.9 1299.85 574.95 1307.2 572.5 1318.5 568.75 1320.7 568.05 1332.1 564.75 1343.65 560.1 1345.45 559.4 1347.45 558.55 1348.2 558.55 1348.7 558.25
L 1349.05 557.95
Q 1352.95 556.35 1358 554.3 1359.15 554.05 1360.5 553.85 1363.2 553.15 1363.9 552.05 1371.2 549.55 1378.25 548.3 1388.75 546.45 1402.9 546.45 1409.35 546.45 1416.9 547.9 1420.75 548.7 1430.55 551.15 1439.45 553.45 1445.1 554.45 1453.75 555.9 1462 555.9 1486.45 555.9 1498.15 542.4 1498.55 541.95 1498.95 541.45 1503.15 536.2 1505.1 529.55 1505.45 528.45 1505.7 527.35 1505.95 526.75 1506.15 526.25 1506.1 526.15 1506 526.15 1506.6 523 1506.6 520.05 1506.6 515.55 1505.85 511.95 1505.25 509.15 1503.9 505.55 1502.1 501.2 1501.1 498.5 1499.2 493.6 1497.8 488.45 1496.95 485.15 1496.1 480.45 1495.1 475.05 1494.6 472.3 1492.8 462.35 1490.15 456.4 1488.8 453.3 1487 448.65 1485.05 443.3 1484.05 440.65 1480.25 430.85 1476.5 424.7 1475.9 423.75 1471.35 416.55 1470.65 415.5 1470.05 414.5
L 1469.75 414.6 1469.75 414.55
Q 1468.6 410.7 1467.8 408.8 1466.05 404.25 1463.7 400.95 1463.25 400.3 1462.8 399.75
L 1462.65 399.9
Q 1461.2 397.2 1460 395.15 1459.9 395.15 1457.4 396.05 1455.3 396 1454.8 395.45
L 1454.55 395
Q 1454.4 394.75 1454.1 394.65 1453.65 394.95 1452.5 396.45
L 1451.35 397.9
Q 1450.6 397.9 1450 397.6 1449.55 397.25 1449.5 397.25 1449.3 397.25 1448.45 397.7 1447.65 398.2 1447.15 398.2 1445.6 398.2 1445.4 398.7 1445.45 399.45 1445.1 399.7 1441.45 399.75 1440.85 399.75 1439.05 399.75 1437.1 398.4 1435.5 397 1435.25 397 1435.15 397 1435.05 397.1
L 1435 397.1
Q 1434.85 397.15 1434.75 397.3 1434.45 397.6 1434.15 397.6 1433.55 397.6 1433.45 397.4 1433.45 397.35 1433.45 397.3 1433.35 396.9 1433.15 396.8 1432.7 397.1 1432.4 397.3 1431.85 397.6 1431.25 397.6 1430.4 397.6 1429.65 397.2 1429.05 396.8 1428.95 396.8 1428.75 396.8 1427.35 397.7 1425.9 398.6 1425.7 398.6 1424.65 398.6 1424.65 398.4 1424.45 398.4 1424.35 398.3 1424.05 398.5 1423.55 398.8 1422.65 399.3 1422.45 399.5 1419.25 399.5 1416.85 400.05 1414.85 400.5 1413.7 401.2 1412.9 401.1 1412.45 401.1 1412.3 401.1 1412.1 401.1
L 1411.1 402
Q 1410.85 402.5 1410.6 402.85 1410.15 403.5 1409.8 403.5 1409.6 403.5 1408.9 403.4 1408 403.3 1406.9 403.2 1406.1 401.8 1406 401.65 1405.2 400.55 1404.2 400 1403.2 399.5 1402.4 398.75 1401.4 397.8 1401.3 397.1 1399.85 397.1 1399.8 397.1 1399.35 397 1399.2 396.8
L 1399.1 396.25
Q 1399.2 396.2 1399.2 396.1 1399.2 396 1399 395.75 1398.75 395.5 1398.7 395.4 1397.45 395.9 1395.75 395.1 1394.25 394.2 1394.15 394.2 1393.85 394.2 1393.4 394.5 1392.95 394.75 1392.65 394.75 1392.35 394.75 1392.1 394.35 1391.85 394 1390.75 394 1390.45 394 1389.7 394.3 1388.85 394.55 1388.55 394.55 1387.85 393.95 1387.25 393.6 1386.1 393.05 1385.1 394.4 1384.65 395 1383.65 395.35
L 1383.7 395.4
Q 1383.85 395.6 1384.15 395.6 1384.25 395.6 1384.4 395.55
L 1384.7 396.1
Q 1384.8 396.2 1385.4 396.6 1382.95 396.2 1381.65 396.35 1381 396.4 1380.6 396.55
L 1380.4 396.05
Q 1380.45 396 1380.55 396 1379.2 395.8 1377.85 396.3 1376.95 396.7 1375.6 396.8 1375.4 396.7 1375.25 396.6 1372.15 394.65 1371.4 394.2
L 1368.05 394.2
Q 1367.95 394.3 1367.1 394.4 1366.2 394.5 1366.05 394.55 1366.05 394.65 1366 395.45 1365.65 396.2 1364.4 396.2 1364.1 396.2 1363.75 395.85 1363.7 395.8 1363.65 395.7 1363.05 395.05 1362.8 394.9
L 1361 394.9
Q 1358.8 395 1357 394.85
L 1356.95 394.85
Q 1355.9 394.8 1354.95 394.65 1354.9 394.6 1354.85 394.55 1354.8 394.55 1354.8 394.8 1354.7 394.4 1355 393.7 1355.4 392.85 1356.1 392.85 1356.3 392.85 1356.45 392.85 1355.4 392.25 1355 392.95 1354.8 394.2 1354.55 394.5
L 1353 394.65
Q 1352.7 395 1351.35 395.6 1349.95 396.2 1349.35 396.2 1348.95 396.2 1348.85 395.9
M 1502.15 536.4
Q 1500.9 538.65 1499.2 540.6 1498.95 541 1498.65 541.3 1498.25 541.7 1497.9 542.1
L 1497.85 542.2 1497.9 540.9 1496.4 540.1
Q 1497.1 540.15 1497.95 540.2 1498.5 540.25 1499.1 540.25 1500.85 538.6 1502.15 536.4
M 1363.95 549.85
L 1364.35 549.95
Q 1364.35 550.1 1364.35 550.4 1364.35 550.6 1364.35 550.75
L 1363.95 549.85
M 1365.15 551
Q 1364.9 551.15 1364.55 551.25
L 1364.5 551.05
Q 1364.7 551.05 1365.15 550.95
L 1365.15 551
M 1339.6 560.85
L 1339.2 559.7
Q 1339.65 559.35 1339.9 558.65 1340.15 558.05 1340.65 557.75 1342.1 556.8 1349.35 556.3 1348.85 556.75 1348.45 557.3 1347.25 556.5 1346.75 556.55 1346.05 556.95 1345.25 557.15 1345.25 557.45 1345.65 558.15 1346.05 558.2 1346.55 558.45 1342.85 559.75 1339.6 560.85
M 1349.85 557.3
Q 1349.75 557.35 1349.65 557.35 1351.25 555.85 1354.65 555 1355.8 554.75 1357.4 554.45 1353.55 556 1349.85 557.3
M 1088.95 392.6
L 1089.3 393 1088.2 392.75
Q 1088.3 392.6 1088.95 392.6
M 1140 396.85
L 1138.3 397.9
Q 1138.55 397.7 1138.9 397.1 1139.2 396.6 1139.4 396.55 1139.55 396.7 1140 396.85 Z"/>
</g>

<g id="Tween_10_0_Layer0_0_FILL">
<path fill="#FFFF99" stroke="none" d="
M -235.6 127.35
L -180.7 217.55
Q -29.05 257.15 156.8 212.3 187.8 164.1 215.6 110.65 -0.1 208.15 -235.6 127.35
M 128.5 -3.25
Q 128 -3.15 127.55 -3
L 126.05 -8.5 127.45 -2.95
Q 87.65 7.6 45.75 14.15
L 45.7 14.15
Q 16.8 18.65 -13.15 21.25 -34.35 23.1 -56.05 23.95
L -56.1 23.95
Q -71.75 24.6 -87.7 24.7 -89.65 24.7 -91.6 24.75 -162.4 25 -238.4 15.35
L -238.45 15.35
Q -268.7 11.5 -299.75 6.1
L -308.85 4.8
Q -319.4 10.85 -257.3 91.65 57.25 153.4 258.95 19.55 276.7 -25.05 308.95 -73.8 312.7 -79.1 306.6 -83 300.55 -86.95 186.8 -24.8
L 197.4 -87.65
Q 189.3 -84.65 181.05 -81.8
L 174.85 -41.45 172.3 -24.75 170.9 -15.9
Q 152.55 -9.85 133.75 -4.7 132.75 -4.4 131.8 -4.15 130.15 -3.7 128.5 -3.25
M 211.75 -201.3
Q 212.9 -202.05 215.9 -202.8 218.9 -203.55 223 -210.25 227.05 -216.95 227.05 -223.6 227.05 -228.6 225.2 -232.1
L 218.1 -236.1 -115.6 -183.95 -119.15 -178.85
Q -121.7 -174.45 -121.7 -173.1 -121.7 -164.35 -111.85 -165.1 -111.65 -165.15 -111.4 -165.15
L -97.35 -166.7 -77.8 -168.9 39.6 -182 39.65 -182 99.95 -188.75 163.5 -195.9 174.1 -197.05 211.75 -201.3 Z"/>

<path fill="#FF6600" stroke="none" d="
M -257.3 91.65
L -235.6 127.35
Q -0.1 208.15 215.6 110.65 238.35 66.85 258.95 19.55 57.25 153.4 -257.3 91.65 Z"/>

<path fill="#FFFF62" stroke="none" d="
M -101.8 -45.35
Q -175 -47.15 -257.1 -57.8
L -238.4 15.35
Q -162.4 25 -91.6 24.75
L -101.8 -45.35
M 128.35 -8.45
Q 127.3 -8.45 126.95 -8.65 126.639453125 -8.793359375 126.35 -9.15 126.01328125 -9.4755859375 125.7 -10.05 125.6244140625 -10.16328125 125.55 -10.3
L 125.55 -10.3 125.55 -10.35
Q 122.5 -32.15 133.45 -67.8 96.3 -58.55 55.35 -53
L 45.6 13.45 45.75 14.15
Q 87.65 7.6 127.45 -2.95
L 126.05 -8.5 127.55 -3
Q 128 -3.15 128.5 -3.25 130.15 -3.7 131.8 -4.15 132.75 -4.4 133.75 -4.7 152.55 -9.85 170.9 -15.9
L 172.3 -24.75 132.25 -9.9
Q 131.45 -9.15 130.5 -8.8 129.5 -8.45 128.35 -8.45 Z"/>

<path fill="#D9A300" stroke="none" d="
M -56.1 -45.1
Q -78.5 -44.8 -101.8 -45.35
L -91.6 24.75
Q -89.65 24.7 -87.7 24.7 -71.75 24.6 -56.1 23.95
L -56.1 -45.1
M 157.7 -74.4
Q 145.8 -70.9 133.45 -67.8 122.5 -32.15 125.55 -10.35
L 125.55 -10.3 125.55 -10.3
Q 125.6244140625 -10.16328125 125.7 -10.05 126.01328125 -9.4755859375 126.35 -9.15 127.993359375 -7.7546875 132.25 -9.9
L 172.3 -24.75 174.85 -41.45 151.85 -35.95
Q 151.75 -35.9 151.65 -35.8 145.1 -32 157.7 -74.4 Z"/>

<path fill="#FFFFFF" stroke="none" d="
M -210.05 -78.35
Q -210 -78.4 -209.95 -78.35
L -209.75 -80.75 -210.05 -78.35 Z"/>

<path fill="#FFFF0D" stroke="none" d="
M 155.6 -104.25
Q 154.9 -104.05 154.2 -103.8 61.3 -72.4 -57.6 -70.3 -70.6 -70.05 -83.9 -70.2
L -84 -70.2
Q -143.85 -70.75 -209.95 -78.35 -210 -78.4 -210.05 -78.35 -232.75 -81 -256.15 -84.45 -256.25 -84.4 -256.3 -84.35 -256.4 -84.25 -259.6 -84.3 -259.5 -84.45 -260 -84.6 -262.25 -85.35 -264.1 -85.35 -271.35 -85.35 -275.35 -80.05 -279.1 -75.05 -279.45 -69.9 -279.85 -64.75 -277.4 -62.7 -275 -60.65 -270.75 -59.6 -270 -59.5 -269.3 -59.4 -263.25 -58.6 -257.25 -57.8 -257.2 -57.8 -257.1 -57.8 -175 -47.15 -101.8 -45.35 -78.5 -44.8 -56.1 -45.1
L -56.05 -45.1
Q 2.75 -45.95 55.35 -53 96.3 -58.55 133.45 -67.8 145.8 -70.9 157.7 -74.4 169.6 -77.9 181.05 -81.8 189.3 -84.65 197.4 -87.65 224 -97.7 242.2 -108.6 242.15 -132.8 185.35 -114.95 178.45 -112.8 170.7 -110 163.5 -107.4 155.6 -104.25 Z"/>

<path fill="#D9D900" stroke="none" d="
M 114.65 -102.85
Q 114.4 -102.75 114.15 -102.6 86.35 -90.25 99.95 -188.75
L 39.65 -182 39.6 -182 41.05 -108.3
Q 41.05 -106.9 41 -105.6 40.7 -94 39 -91.9 38.35 -91.15 37.45 -91.75 37.3 -91.75 37.15 -91.7 -11.4 -82.5 -60.8 -78.9
L -62.85 -78.55 -77.8 -168.9 -97.35 -166.7 -84.05 -77.5
Q -146.15 -74.7 -209.75 -80.75
L -209.95 -78.35
Q -143.85 -70.75 -84 -70.2
L -83.9 -70.2
Q -70.6 -70.05 -57.6 -70.3 61.3 -72.4 154.2 -103.8 154.9 -104.05 155.6 -104.25 163.5 -107.4 170.7 -110 178.45 -112.8 185.35 -114.95
L 184.95 -116.15
Q 207.95 -156 187.3 -140.9
L 171.4 -130.85 170.5 -130.75 166.85 -128.9 174.15 -196.5 174.1 -197.05 163.5 -195.9 154.2 -122.6 114.65 -102.85 Z"/>
</g>

<g id="Tween_10_0_Layer0_0_MEMBER_0_FILL">
<path fill="#999999" stroke="none" d="
M 287.15 552.4
Q 296.3 562.7 309.25 562.7 322.2 562.7 331.35 552.4 340.5 542.15 340.5 527.65 340.5 513.15 331.35 502.85 322.2 492.6 309.25 492.6 296.3 492.6 287.15 502.85 278 513.15 278 527.65 278 542.15 287.15 552.4
M 308.9 510.7
Q 315.45 510.7 320.1 516 324.75 521.3 324.75 528.8 324.75 536.3 320.1 541.6 315.45 546.9 308.9 546.9 302.35 546.9 297.7 541.6 293.05 536.3 293.05 528.8 293.05 521.3 297.7 516 302.35 510.7 308.9 510.7 Z"/>

<path fill="#666666" stroke="none" d="
M 320.1 516
Q 315.45 510.7 308.9 510.7 302.35 510.7 297.7 516 293.05 521.3 293.05 528.8 293.05 536.3 297.7 541.6 302.35 546.9 308.9 546.9 315.45 546.9 320.1 541.6 324.75 536.3 324.75 528.8 324.75 521.3 320.1 516
M 303 535.65
Q 300.65 532.9 300.65 529 300.65 525.2 303 522.4 305.3 519.65 308.6 519.65 311.85 519.65 314.2 522.4 316.5 525.2 316.5 529 316.5 532.9 314.2 535.65 311.85 538.35 308.6 538.35 305.3 538.35 303 535.65 Z"/>
</g>

<g id="Tween_10_0_Layer0_0_MEMBER_1_FILL">
<path fill="#999999" stroke="none" d="
M 287.15 552.4
Q 296.3 562.7 309.25 562.7 322.2 562.7 331.35 552.4 340.5 542.15 340.5 527.65 340.5 513.15 331.35 502.85 322.2 492.6 309.25 492.6 296.3 492.6 287.15 502.85 278 513.15 278 527.65 278 542.15 287.15 552.4
M 308.9 510.7
Q 315.45 510.7 320.1 516 324.75 521.3 324.75 528.8 324.75 536.3 320.1 541.6 315.45 546.9 308.9 546.9 302.35 546.9 297.7 541.6 293.05 536.3 293.05 528.8 293.05 521.3 297.7 516 302.35 510.7 308.9 510.7 Z"/>

<path fill="#666666" stroke="none" d="
M 320.1 516
Q 315.45 510.7 308.9 510.7 302.35 510.7 297.7 516 293.05 521.3 293.05 528.8 293.05 536.3 297.7 541.6 302.35 546.9 308.9 546.9 315.45 546.9 320.1 541.6 324.75 536.3 324.75 528.8 324.75 521.3 320.1 516
M 303 535.65
Q 300.65 532.9 300.65 529 300.65 525.2 303 522.4 305.3 519.65 308.6 519.65 311.85 519.65 314.2 522.4 316.5 525.2 316.5 529 316.5 532.9 314.2 535.65 311.85 538.35 308.6 538.35 305.3 538.35 303 535.65 Z"/>
</g>

<g id="Tween_10_0_Layer0_0_MEMBER_2_FILL">
<path fill="#999999" stroke="none" d="
M 287.15 552.4
Q 296.3 562.7 309.25 562.7 322.2 562.7 331.35 552.4 340.5 542.15 340.5 527.65 340.5 513.15 331.35 502.85 322.2 492.6 309.25 492.6 296.3 492.6 287.15 502.85 278 513.15 278 527.65 278 542.15 287.15 552.4
M 308.9 510.7
Q 315.45 510.7 320.1 516 324.75 521.3 324.75 528.8 324.75 536.3 320.1 541.6 315.45 546.9 308.9 546.9 302.35 546.9 297.7 541.6 293.05 536.3 293.05 528.8 293.05 521.3 297.7 516 302.35 510.7 308.9 510.7 Z"/>

<path fill="#666666" stroke="none" d="
M 320.1 516
Q 315.45 510.7 308.9 510.7 302.35 510.7 297.7 516 293.05 521.3 293.05 528.8 293.05 536.3 297.7 541.6 302.35 546.9 308.9 546.9 315.45 546.9 320.1 541.6 324.75 536.3 324.75 528.8 324.75 521.3 320.1 516
M 303 535.65
Q 300.65 532.9 300.65 529 300.65 525.2 303 522.4 305.3 519.65 308.6 519.65 311.85 519.65 314.2 522.4 316.5 525.2 316.5 529 316.5 532.9 314.2 535.65 311.85 538.35 308.6 538.35 305.3 538.35 303 535.65 Z"/>
</g>

<g id="Tween_10_0_Layer0_0_MEMBER_3_FILL">
<path fill="#999999" stroke="none" d="
M 287.15 552.4
Q 296.3 562.7 309.25 562.7 322.2 562.7 331.35 552.4 340.5 542.15 340.5 527.65 340.5 513.15 331.35 502.85 322.2 492.6 309.25 492.6 296.3 492.6 287.15 502.85 278 513.15 278 527.65 278 542.15 287.15 552.4
M 308.9 510.7
Q 315.45 510.7 320.1 516 324.75 521.3 324.75 528.8 324.75 536.3 320.1 541.6 315.45 546.9 308.9 546.9 302.35 546.9 297.7 541.6 293.05 536.3 293.05 528.8 293.05 521.3 297.7 516 302.35 510.7 308.9 510.7 Z"/>

<path fill="#666666" stroke="none" d="
M 320.1 516
Q 315.45 510.7 308.9 510.7 302.35 510.7 297.7 516 293.05 521.3 293.05 528.8 293.05 536.3 297.7 541.6 302.35 546.9 308.9 546.9 315.45 546.9 320.1 541.6 324.75 536.3 324.75 528.8 324.75 521.3 320.1 516
M 303 535.65
Q 300.65 532.9 300.65 529 300.65 525.2 303 522.4 305.3 519.65 308.6 519.65 311.85 519.65 314.2 522.4 316.5 525.2 316.5 529 316.5 532.9 314.2 535.65 311.85 538.35 308.6 538.35 305.3 538.35 303 535.65 Z"/>
</g>

<g id="Tween_10_0_Layer0_0_MEMBER_4_FILL">
<path fill="#999999" stroke="none" d="
M 287.15 552.4
Q 296.3 562.7 309.25 562.7 322.2 562.7 331.35 552.4 340.5 542.15 340.5 527.65 340.5 513.15 331.35 502.85 322.2 492.6 309.25 492.6 296.3 492.6 287.15 502.85 278 513.15 278 527.65 278 542.15 287.15 552.4
M 308.9 510.7
Q 315.45 510.7 320.1 516 324.75 521.3 324.75 528.8 324.75 536.3 320.1 541.6 315.45 546.9 308.9 546.9 302.35 546.9 297.7 541.6 293.05 536.3 293.05 528.8 293.05 521.3 297.7 516 302.35 510.7 308.9 510.7 Z"/>

<path fill="#666666" stroke="none" d="
M 320.1 516
Q 315.45 510.7 308.9 510.7 302.35 510.7 297.7 516 293.05 521.3 293.05 528.8 293.05 536.3 297.7 541.6 302.35 546.9 308.9 546.9 315.45 546.9 320.1 541.6 324.75 536.3 324.75 528.8 324.75 521.3 320.1 516
M 303 535.65
Q 300.65 532.9 300.65 529 300.65 525.2 303 522.4 305.3 519.65 308.6 519.65 311.85 519.65 314.2 522.4 316.5 525.2 316.5 529 316.5 532.9 314.2 535.65 311.85 538.35 308.6 538.35 305.3 538.35 303 535.65 Z"/>
</g>

<g id="Tween_10_0_Layer0_0_MEMBER_5_FILL">
<path fill="#999999" stroke="none" d="
M 287.15 552.4
Q 296.3 562.7 309.25 562.7 322.2 562.7 331.35 552.4 340.5 542.15 340.5 527.65 340.5 513.15 331.35 502.85 322.2 492.6 309.25 492.6 296.3 492.6 287.15 502.85 278 513.15 278 527.65 278 542.15 287.15 552.4
M 308.9 510.7
Q 315.45 510.7 320.1 516 324.75 521.3 324.75 528.8 324.75 536.3 320.1 541.6 315.45 546.9 308.9 546.9 302.35 546.9 297.7 541.6 293.05 536.3 293.05 528.8 293.05 521.3 297.7 516 302.35 510.7 308.9 510.7 Z"/>

<path fill="#666666" stroke="none" d="
M 320.1 516
Q 315.45 510.7 308.9 510.7 302.35 510.7 297.7 516 293.05 521.3 293.05 528.8 293.05 536.3 297.7 541.6 302.35 546.9 308.9 546.9 315.45 546.9 320.1 541.6 324.75 536.3 324.75 528.8 324.75 521.3 320.1 516
M 303 535.65
Q 300.65 532.9 300.65 529 300.65 525.2 303 522.4 305.3 519.65 308.6 519.65 311.85 519.65 314.2 522.4 316.5 525.2 316.5 529 316.5 532.9 314.2 535.65 311.85 538.35 308.6 538.35 305.3 538.35 303 535.65 Z"/>
</g>

<g id="Layer0_0_FILL">
<path fill="#CCCC66" stroke="none" d="
M 213.85 596
L 213.8 596
Q 213.8 596.30625 213.8 596.6 213.80625 596.30625 213.85 596
M 103.8 596
L 103.75 596
Q 103.75 596.30625 103.75 596.6 103.75625 596.30625 103.8 596
M 311.95 230.05
Q 311.99375 230.590625 312 231.1 312.00625 230.590625 312 230.05
L 311.95 230.05
M 546.6 269
L 546.55 269
Q 546.55 269.4125 546.55 269.8 546.5625 269.4125 546.6 269
M 529.95 230.05
Q 529.99375 230.590625 530 231.1 530.00625 230.590625 530 230.05
L 529.95 230.05
M 638.95 230.05
Q 638.99375 230.590625 639 231.1 639.00625 230.590625 639 230.05
L 638.95 230.05
M 420.95 230.05
Q 420.99375 230.590625 421 231.1 421.00625 230.590625 421 230.05
L 420.95 230.05
M 856.95 230.05
Q 856.99375 230.590625 857 231.1 857.00625 230.590625 857 230.05
L 856.95 230.05
M 965.95 230.05
Q 965.99375 230.590625 966 231.1 966.00625 230.590625 966 230.05
L 965.95 230.05
M 747.95 230.05
Q 747.99375 230.590625 748 231.1 748.00625 230.590625 748 230.05
L 747.95 230.05
M 1183.95 230.05
Q 1183.99375 230.590625 1184 231.1 1184.00625 230.590625 1184 230.05
L 1183.95 230.05
M 1074.95 230.05
Q 1074.99375 230.590625 1075 231.1 1075.00625 230.590625 1075 230.05
L 1074.95 230.05 Z"/>
</g>

<g id="onda1_0_Layer0_0_FILL">
<path fill="#CCCC66" fill-opacity="0.7215686274509804" stroke="none" d="
M 1948.2 -345.7
Q 1948.25 -345 1948.25 -344.25 1948.25 -326.25 1932.3 -313.5 1916.35 -300.75 1893.75 -300.75 1871.15 -300.75 1855.2 -313.5 1839.5 -326.05 1839.25 -343.7 1839 -326.05 1823.3 -313.5 1807.35 -300.75 1784.75 -300.75 1762.15 -300.75 1746.2 -313.5 1730.5 -326.05 1730.25 -343.7 1730 -326.05 1714.3 -313.5 1698.35 -300.75 1675.75 -300.75 1653.15 -300.75 1637.2 -313.5 1621.5 -326.05 1621.25 -343.7 1621 -326.05 1605.3 -313.5 1589.35 -300.75 1566.75 -300.75 1544.15 -300.75 1528.2 -313.5 1512.5 -326.05 1512.25 -343.7 1512 -326.05 1496.3 -313.5 1480.35 -300.75 1457.75 -300.75 1435.15 -300.75 1419.2 -313.5 1403.5 -326.05 1403.25 -343.7 1403 -326.05 1387.3 -313.5 1371.35 -300.75 1348.75 -300.75 1326.15 -300.75 1310.2 -313.5 1294.5 -326.05 1294.25 -343.7 1294 -326.05 1278.3 -313.5 1262.35 -300.75 1239.75 -300.75 1217.15 -300.75 1201.2 -313.5 1185.5 -326.05 1185.25 -343.7 1185 -326.05 1169.3 -313.5 1153.35 -300.75 1130.75 -300.75 1108.15 -300.75 1092.2 -313.5 1076.5 -326.05 1076.25 -343.7 1076 -326.05 1060.3 -313.5 1044.35 -300.75 1021.75 -300.75 999.15 -300.75 983.2 -313.5 967.5 -326.05 967.25 -343.7 967 -326.05 951.3 -313.5 935.35 -300.75 912.75 -300.75 890.15 -300.75 874.2 -313.5 858.5 -326.05 858.25 -343.7 858 -326.05 842.3 -313.5 826.35 -300.75 803.75 -300.75 781.15 -300.75 765.2 -313.5 749.5 -326.05 749.25 -343.7 749 -326.05 733.3 -313.5 717.35 -300.75 694.75 -300.75 672.15 -300.75 656.2 -313.5 640.25 -326.25 640.25 -344.25 640.25 -345 640.25 -345.7
L 637.65 -345.7
Q 637.65 -345 637.65 -344.25 637.65 -326.25 621.7 -313.5 605.75 -300.75 583.15 -300.75 560.55 -300.75 544.6 -313.5 528.9 -326.05 528.65 -343.7 528.4 -326.05 512.7 -313.5 496.75 -300.75 474.15 -300.75 451.55 -300.75 435.6 -313.5 419.9 -326.05 419.65 -343.7 419.4 -326.05 403.7 -313.5 387.75 -300.75 365.15 -300.75 342.55 -300.75 326.6 -313.5 310.9 -326.05 310.65 -343.7 310.4 -326.05 294.7 -313.5 278.75 -300.75 256.15 -300.75 233.55 -300.75 217.6 -313.5 201.9 -326.05 201.65 -343.7 201.4 -326.05 185.7 -313.5 169.75 -300.75 147.15 -300.75 124.55 -300.75 108.6 -313.5 92.9 -326.05 92.65 -343.7 92.4 -326.05 76.7 -313.5 60.75 -300.75 38.15 -300.75 15.55 -300.75 -0.4 -313.5 -16.1 -326.05 -16.35 -343.7 -16.6 -326.05 -32.3 -313.5 -48.25 -300.75 -70.85 -300.75 -93.45 -300.75 -109.4 -313.5 -125.1 -326.05 -125.35 -343.7 -125.6 -326.05 -141.3 -313.5 -157.25 -300.75 -179.85 -300.75 -202.45 -300.75 -218.4 -313.5 -234.1 -326.05 -234.35 -343.7 -234.6 -326.05 -250.3 -313.5 -266.25 -300.75 -288.85 -300.75 -311.45 -300.75 -327.4 -313.5 -343.1 -326.05 -343.35 -343.7 -343.6 -326.05 -359.3 -313.5 -375.25 -300.75 -397.85 -300.75 -420.45 -300.75 -436.4 -313.5 -452.1 -326.05 -452.35 -343.7 -452.6 -326.05 -468.3 -313.5 -484.25 -300.75 -506.85 -300.75 -529.45 -300.75 -545.4 -313.5 -561.1 -326.05 -561.35 -343.7 -561.6 -326.05 -577.3 -313.5 -593.25 -300.75 -615.85 -300.75 -638.45 -300.75 -654.4 -313.5 -670.35 -326.25 -670.35 -344.25 -670.35 -345 -670.3 -345.7
L -703.4 -345.7 -703.4 330.35 1992.1 330.35 1992.1 -181.65 1981.3 -181.65 1981.3 -345.7 1948.2 -345.7 Z"/>
</g>

<g id="onda2_0_Layer0_0_FILL">
<path fill="#CCCC66" fill-opacity="0.7215686274509804" stroke="none" d="
M 1948.2 -345.7
Q 1948.25 -345 1948.25 -344.25 1948.25 -326.25 1932.3 -313.5 1916.35 -300.75 1893.75 -300.75 1871.15 -300.75 1855.2 -313.5 1839.5 -326.05 1839.25 -343.7 1839 -326.05 1823.3 -313.5 1807.35 -300.75 1784.75 -300.75 1762.15 -300.75 1746.2 -313.5 1730.5 -326.05 1730.25 -343.7 1730 -326.05 1714.3 -313.5 1698.35 -300.75 1675.75 -300.75 1653.15 -300.75 1637.2 -313.5 1621.5 -326.05 1621.25 -343.7 1621 -326.05 1605.3 -313.5 1589.35 -300.75 1566.75 -300.75 1544.15 -300.75 1528.2 -313.5 1512.5 -326.05 1512.25 -343.7 1512 -326.05 1496.3 -313.5 1480.35 -300.75 1457.75 -300.75 1435.15 -300.75 1419.2 -313.5 1403.5 -326.05 1403.25 -343.7 1403 -326.05 1387.3 -313.5 1371.35 -300.75 1348.75 -300.75 1326.15 -300.75 1310.2 -313.5 1294.5 -326.05 1294.25 -343.7 1294 -326.05 1278.3 -313.5 1262.35 -300.75 1239.75 -300.75 1217.15 -300.75 1201.2 -313.5 1185.5 -326.05 1185.25 -343.7 1185 -326.05 1169.3 -313.5 1153.35 -300.75 1130.75 -300.75 1108.15 -300.75 1092.2 -313.5 1076.5 -326.05 1076.25 -343.7 1076 -326.05 1060.3 -313.5 1044.35 -300.75 1021.75 -300.75 999.15 -300.75 983.2 -313.5 967.5 -326.05 967.25 -343.7 967 -326.05 951.3 -313.5 935.35 -300.75 912.75 -300.75 890.15 -300.75 874.2 -313.5 858.5 -326.05 858.25 -343.7 858 -326.05 842.3 -313.5 826.35 -300.75 803.75 -300.75 781.15 -300.75 765.2 -313.5 749.5 -326.05 749.25 -343.7 749 -326.05 733.3 -313.5 717.35 -300.75 694.75 -300.75 672.15 -300.75 656.2 -313.5 640.25 -326.25 640.25 -344.25 640.25 -345 640.25 -345.7
L 637.65 -345.7
Q 637.65 -345 637.65 -344.25 637.65 -326.25 621.7 -313.5 605.75 -300.75 583.15 -300.75 560.55 -300.75 544.6 -313.5 528.9 -326.05 528.65 -343.7 528.4 -326.05 512.7 -313.5 496.75 -300.75 474.15 -300.75 451.55 -300.75 435.6 -313.5 419.9 -326.05 419.65 -343.7 419.4 -326.05 403.7 -313.5 387.75 -300.75 365.15 -300.75 342.55 -300.75 326.6 -313.5 310.9 -326.05 310.65 -343.7 310.4 -326.05 294.7 -313.5 278.75 -300.75 256.15 -300.75 233.55 -300.75 217.6 -313.5 201.9 -326.05 201.65 -343.7 201.4 -326.05 185.7 -313.5 169.75 -300.75 147.15 -300.75 124.55 -300.75 108.6 -313.5 92.9 -326.05 92.65 -343.7 92.4 -326.05 76.7 -313.5 60.75 -300.75 38.15 -300.75 15.55 -300.75 -0.4 -313.5 -16.1 -326.05 -16.35 -343.7 -16.6 -326.05 -32.3 -313.5 -48.25 -300.75 -70.85 -300.75 -93.45 -300.75 -109.4 -313.5 -125.1 -326.05 -125.35 -343.7 -125.6 -326.05 -141.3 -313.5 -157.25 -300.75 -179.85 -300.75 -202.45 -300.75 -218.4 -313.5 -234.1 -326.05 -234.35 -343.7 -234.6 -326.05 -250.3 -313.5 -266.25 -300.75 -288.85 -300.75 -311.45 -300.75 -327.4 -313.5 -343.1 -326.05 -343.35 -343.7 -343.6 -326.05 -359.3 -313.5 -375.25 -300.75 -397.85 -300.75 -420.45 -300.75 -436.4 -313.5 -452.1 -326.05 -452.35 -343.7 -452.6 -326.05 -468.3 -313.5 -484.25 -300.75 -506.85 -300.75 -529.45 -300.75 -545.4 -313.5 -561.1 -326.05 -561.35 -343.7 -561.6 -326.05 -577.3 -313.5 -593.25 -300.75 -615.85 -300.75 -638.45 -300.75 -654.4 -313.5 -670.35 -326.25 -670.35 -344.25 -670.35 -345 -670.3 -345.7
L -703.4 -345.7 -703.4 330.35 1992.1 330.35 1992.1 -181.65 1981.3 -181.65 1981.3 -345.7 1948.2 -345.7 Z"/>
</g>

<g id="onda3_0_Layer0_0_FILL">
<path fill="#C8C859" fill-opacity="0.9333333333333333" stroke="none" d="
M 1981.3 -345.7
L 1948.2 -345.7
Q 1948.25 -345 1948.25 -344.25 1948.25 -326.25 1932.3 -313.5 1916.35 -300.75 1893.75 -300.75 1871.15 -300.75 1855.2 -313.5 1839.5 -326.05 1839.25 -343.7 1839 -326.05 1823.3 -313.5 1807.35 -300.75 1784.75 -300.75 1762.15 -300.75 1746.2 -313.5 1730.5 -326.05 1730.25 -343.7 1730 -326.05 1714.3 -313.5 1698.35 -300.75 1675.75 -300.75 1653.15 -300.75 1637.2 -313.5 1621.5 -326.05 1621.25 -343.7 1621 -326.05 1605.3 -313.5 1589.35 -300.75 1566.75 -300.75 1544.15 -300.75 1528.2 -313.5 1512.5 -326.05 1512.25 -343.7 1512 -326.05 1496.3 -313.5 1480.35 -300.75 1457.75 -300.75 1435.15 -300.75 1419.2 -313.5 1403.5 -326.05 1403.25 -343.7 1403 -326.05 1387.3 -313.5 1371.35 -300.75 1348.75 -300.75 1326.15 -300.75 1310.2 -313.5 1294.5 -326.05 1294.25 -343.7 1294 -326.05 1278.3 -313.5 1262.35 -300.75 1239.75 -300.75 1217.15 -300.75 1201.2 -313.5 1185.5 -326.05 1185.25 -343.7 1185 -326.05 1169.3 -313.5 1153.35 -300.75 1130.75 -300.75 1108.15 -300.75 1092.2 -313.5 1076.5 -326.05 1076.25 -343.7 1076 -326.05 1060.3 -313.5 1044.35 -300.75 1021.75 -300.75 999.15 -300.75 983.2 -313.5 967.5 -326.05 967.25 -343.7 967 -326.05 951.3 -313.5 935.35 -300.75 912.75 -300.75 890.15 -300.75 874.2 -313.5 858.5 -326.05 858.25 -343.7 858 -326.05 842.3 -313.5 826.35 -300.75 803.75 -300.75 781.15 -300.75 765.2 -313.5 749.5 -326.05 749.25 -343.7 749 -326.05 733.3 -313.5 717.35 -300.75 694.75 -300.75 672.15 -300.75 656.2 -313.5 640.25 -326.25 640.25 -344.25 640.25 -345 640.25 -345.7
L 637.65 -345.7
Q 637.65 -345 637.65 -344.25 637.65 -326.25 621.7 -313.5 605.75 -300.75 583.15 -300.75 560.55 -300.75 544.6 -313.5 528.9 -326.05 528.65 -343.7 528.4 -326.05 512.7 -313.5 496.75 -300.75 474.15 -300.75 451.55 -300.75 435.6 -313.5 419.9 -326.05 419.65 -343.7 419.4 -326.05 403.7 -313.5 387.75 -300.75 365.15 -300.75 342.55 -300.75 326.6 -313.5 310.9 -326.05 310.65 -343.7 310.4 -326.05 294.7 -313.5 278.75 -300.75 256.15 -300.75 233.55 -300.75 217.6 -313.5 201.9 -326.05 201.65 -343.7 201.4 -326.05 185.7 -313.5 169.75 -300.75 147.15 -300.75 124.55 -300.75 108.6 -313.5 92.9 -326.05 92.65 -343.7 92.4 -326.05 76.7 -313.5 60.75 -300.75 38.15 -300.75 15.55 -300.75 -0.4 -313.5 -16.1 -326.05 -16.35 -343.7 -16.6 -326.05 -32.3 -313.5 -48.25 -300.75 -70.85 -300.75 -93.45 -300.75 -109.4 -313.5 -125.1 -326.05 -125.35 -343.7 -125.6 -326.05 -141.3 -313.5 -157.25 -300.75 -179.85 -300.75 -202.45 -300.75 -218.4 -313.5 -234.1 -326.05 -234.35 -343.7 -234.6 -326.05 -250.3 -313.5 -266.25 -300.75 -288.85 -300.75 -311.45 -300.75 -327.4 -313.5 -343.1 -326.05 -343.35 -343.7 -343.6 -326.05 -359.3 -313.5 -375.25 -300.75 -397.85 -300.75 -420.45 -300.75 -436.4 -313.5 -452.1 -326.05 -452.35 -343.7 -452.6 -326.05 -468.3 -313.5 -484.25 -300.75 -506.85 -300.75 -529.45 -300.75 -545.4 -313.5 -561.1 -326.05 -561.35 -343.7 -561.6 -326.05 -577.3 -313.5 -593.25 -300.75 -615.85 -300.75 -638.45 -300.75 -654.4 -313.5 -670.35 -326.25 -670.35 -344.25 -670.35 -345 -670.3 -345.7
L -703.4 -345.7 -703.4 330.35 1992.1 330.35 1992.1 -181.65 1981.3 -181.65 1981.3 -345.7 Z"/>
</g>
</defs>

<g transform="matrix( 1, 0, 0, 1, 0,0) ">
<use xlink:href="#Layer4_0_FILL"/>
</g>

<g transform="matrix( 1, 0, 0, 1, 1162.6,32.5) ">
<g transform="matrix( 1, 0, 0, 1, 155.8,67.05) ">
<g transform="matrix( 1, 0, 0, 1, -1110.45,32.95) ">
<use filter="url(#Filter_1)" xlink:href="#Tween_12_0_Layer0_0_FILL"/>
</g>
</g>
</g>

<g transform="matrix( 1, 0, 0, 1, 515.7,81.9) ">
<g transform="matrix( 1, 0, 0, 1, 76.9,47.6) ">
<g transform="matrix( 1, 0, 0, 1, -1194.6,-81.75) ">
<use filter="url(#Filter_1)" xlink:href="#Tween_14_0_Layer0_0_FILL"/>
</g>
</g>
</g>

<g transform="matrix( 1, 0, 0, 1, 1734.2,-51.35) ">
<g transform="matrix( 1, 0, 0, 1, 196.6,51.95) ">
<g transform="matrix( 1, 0, 0, 1, -1213.05,-240) ">
<use filter="url(#Filter_1)" xlink:href="#Tween_16_0_Layer0_0_FILL"/>
</g>
</g>
</g>

<g transform="matrix( 1, 0, 0, 1, 409.3,198.55) ">
<g transform="matrix( 1, 0, 0, 1, 492.4,110.7) ">
<g transform="matrix( 1, 0, 0, 1, -1194.6,-81.75) ">
<use filter="url(#Filter_1)" xlink:href="#Tween_14_0_Layer0_0_FILL"/>
</g>
</g>
</g>

<g transform="matrix( 1, 0, 0, 1, -565,0) ">
<g transform="matrix( 1, 0, 0, 1, 196.6,51.95) ">
<g transform="matrix( 1, 0, 0, 1, -1213.05,-240) ">
<use filter="url(#Filter_1)" xlink:href="#Tween_16_0_Layer0_0_FILL"/>
</g>
</g>
</g>

<g transform="matrix( 1, 0, 0, 1, 213.8,285.5) ">
<g transform="matrix( 1, 0, 0, 1, -4.65,-215.4) ">
<g transform="matrix( 1, 0, 0, 1, -1194.6,-81.75) ">
<use filter="url(#Filter_1)" xlink:href="#Tween_14_0_Layer0_0_FILL"/>
</g>
</g>
</g>

<g transform="matrix( 1, 0, 0, 1, 0,0) ">
<use xlink:href="#Layer2_0_FILL"/>
</g>

<g transform="matrix( 0.650115966796875, 0, 0, 0.650115966796875, 116.7,206.1) ">
<g transform="matrix( 1, 0, 0, 1, -507.55,243.55) ">
<g transform="matrix( 1, 0, 0, 1, 0,0) ">
<use xlink:href="#Tween_10_0_Layer0_0_FILL"/>
</g>

<g transform="matrix( 1, 0, 0, 1, -548.2,-502.5) ">
<use xlink:href="#Tween_10_0_Layer0_0_MEMBER_0_FILL"/>
</g>

<g transform="matrix( 1, 0, 0, 1, -455.45,-488.8) ">
<use xlink:href="#Tween_10_0_Layer0_0_MEMBER_1_FILL"/>
</g>

<g transform="matrix( 1, 0, 0, 1, -360.25,-488.8) ">
<use xlink:href="#Tween_10_0_Layer0_0_MEMBER_2_FILL"/>
</g>

<g transform="matrix( 1, 0, 0, 1, -265,-497.15) ">
<use xlink:href="#Tween_10_0_Layer0_0_MEMBER_3_FILL"/>
</g>

<g transform="matrix( 1, 0, 0, 1, -172.6,-517.35) ">
<use xlink:href="#Tween_10_0_Layer0_0_MEMBER_4_FILL"/>
</g>

<g transform="matrix( 1, 0, 0, 1, -90.7,-550.4) ">
<use xlink:href="#Tween_10_0_Layer0_0_MEMBER_5_FILL"/>
</g>
</g>
</g>

<g transform="matrix( 1, 0, 0, 1, 0,0) ">
<use xlink:href="#Layer0_0_FILL"/>
</g>

<g transform="matrix( 0.7685546875, 0, 0, 0.7685546875, -11.5,641.55) ">
<g transform="matrix( 1, 0, 0, 1, 671.15,82) ">
<g transform="matrix( 1, 0, 0, 1, 0,0) ">
<use xlink:href="#onda1_0_Layer0_0_FILL"/>
</g>
</g>
</g>

<g transform="matrix( 0.7685546875, 0, 0, 0.7685546875, 46.3,691.15) ">
<g transform="matrix( 1, 0, 0, 1, 21.15,82) ">
<g transform="matrix( 1, 0, 0, 1, -678.8,55.4) ">
<use xlink:href="#onda2_0_Layer0_0_FILL"/>
</g>
</g>
</g>

<g transform="matrix( 0.7685546875, 0, 0, 0.7685546875, -25.2,833.05) ">
<g transform="matrix( 1, 0, 0, 1, 681.55,82) ">
<g transform="matrix( 1, 0, 0, 1, 0,0) ">
<use xlink:href="#onda3_0_Layer0_0_FILL"/>
</g>
</g>
</g>
</svg>
