
<svg xmlns="http://www.w3.org/2000/svg" version="1.1" xmlns:xlink="http://www.w3.org/1999/xlink" preserveAspectRatio="none" x="0px" y="0px" width="1024px" height="768px" viewBox="0 0 1024 768">
<defs>
<linearGradient id="Gradient_1" gradientUnits="userSpaceOnUse" x1="495.875" y1="495.9375" x2="493.92499999999995" y2="56.96249999999998" spreadMethod="pad">
<stop  offset="0%" stop-color="#FFFFFF"/>

<stop  offset="100%" stop-color="#99CCFF"/>
</linearGradient>

<linearGradient id="Gradient_2" gradientUnits="userSpaceOnUse" x1="121.7125" y1="723.525" x2="121.5875" y2="551.475" spreadMethod="pad">
<stop  offset="0%" stop-color="#FFFFFF" stop-opacity="0"/>

<stop  offset="100%" stop-color="#009933"/>
</linearGradient>

<linearGradient id="Gradient_3" gradientUnits="userSpaceOnUse" x1="113.6625" y1="896.625" x2="113.5375" y2="724.575" spreadMethod="pad">
<stop  offset="0%" stop-color="#FFFFFF" stop-opacity="0"/>

<stop  offset="100%" stop-color="#009933"/>
</linearGradient>

<linearGradient id="Gradient_4" gradientUnits="userSpaceOnUse" x1="495.0625" y1="896.625" x2="494.9375" y2="724.575" spreadMethod="pad">
<stop  offset="0%" stop-color="#FFFFFF" stop-opacity="0"/>

<stop  offset="100%" stop-color="#009933"/>
</linearGradient>

<linearGradient id="Gradient_5" gradientUnits="userSpaceOnUse" x1="890.8125" y1="896.625" x2="890.6875" y2="724.575" spreadMethod="pad">
<stop  offset="0%" stop-color="#FFFFFF" stop-opacity="0"/>

<stop  offset="100%" stop-color="#009933"/>
</linearGradient>

<image id="bitmaps_botao_sair_png" x="0" y="0" width="56" height="25" xlink:href="./imagens/bitmaps_botao_sair_png.png"/>

<image id="bitmaps_titulo_jogo_da_memoria_png" x="0" y="0" width="1011" height="99" xlink:href="./imagens/bitmaps_titulo_jogo_da_memoria_png.png"/>

<image id="bitmaps_botao_escolher_outro_jogo_png" x="0" y="0" width="252" height="60" xlink:href="./imagens/bitmaps_botao_escolher_outro_jogo_png.png"/>

<g id="fundo_0_Layer0_0_MEMBER_0_FILL">
<path fill="url(#Gradient_1)" stroke="none" d="
M 1024 768
L 1024 0 0 0 0.05 768 1024 768 Z"/>
</g>

<g id="fundo_0_Layer0_0_MEMBER_1_FILL">
<path fill="#FFFFFF" stroke="none" d="
M 840.75 46.6
Q 840.75 37.05 826.5 30.35 812.15 23.55 791.9 23.55 771.7 23.55 757.4 30.35 744.2 36.55 743.2 45.25 741.85 45.2 740.55 45.2 731.8 45.2 723.7 45.75 718.45 38 701.05 32.05 676.15 23.5 640.8 23.5 605.55 23.5 580.6 32.05 555.7 40.65 555.7 52.65 555.7 64.7 580.6 73.3 580.85 73.4 581.1 73.45 579.45 76.4 579.45 79.75 579.45 81.1 579.7 82.3 575.15 81.85 570.2 81.85 552.7 81.85 540.35 87.15 528 92.55 528 100.1 528 107.7 540.35 113 552.7 118.4 570.2 118.4 587.75 118.4 600.1 113 611.3 108.2 612.4 101.5 617.45 102.15 623 102.15 638 102.15 649.4 97.65 656.3 105.75 672.35 112.25 691.5 120.15 716.15 122.6 708.8 128.75 708.8 136.65 708.8 147.05 721.5 154.35 734.25 161.7 752.35 161.7 770.4 161.7 783.15 154.35 795.9 147.05 795.9 136.65 795.9 126.8 784.45 119.6 797.4 116.85 808.6 112.25 836.85 100.8 836.85 84.5 836.85 73.2 823.35 64.25 824.95 63.6 826.5 62.85 840.75 56.15 840.75 46.6 Z"/>
</g>

<g id="Objetos_nuvem_nuvem_1_0_Layer0_0_FILL">
<path fill="#FFFFFF" stroke="none" d="
M 24.5 -42.65
Q 18.6 -37.95 18.3 -31.4 16.25 -31.55 14.1 -31.6 11.65 -36.2 5.45 -39.85 -4.7 -45.8 -19.05 -45.8 -33.45 -45.8 -43.6 -39.85 -53.75 -33.85 -53.75 -25.35 -53.75 -16.85 -43.6 -10.9 -40.05 -8.8 -35.95 -7.4 -36 -7.05 -36 -6.7 -36 -5.7 -35.85 -4.75 -51.75 -4 -63.45 2.15 -76.9 9.15 -76.9 19.1 -76.9 29.05 -63.45 36.1 -50.05 43.1 -31.05 43.1 -12.1 43.1 1.3 36.1 5.3 34 8.1 31.7 9.55 30.9 10.9 29.8 11.1 29.65 11.25 29.55 13.35 35.7 20.05 40.55 29.8 47.6 43.6 47.6 57.4 47.6 67.2 40.55 76.95 33.5 76.95 23.55 76.95 13.65 67.2 6.6 62.75 3.4 57.45 1.65 60.05 -2.25 60.05 -6.7 60.05 -13.2 54.45 -18.55 54.6 -18.65 54.75 -18.75 61 -23.7 61 -30.7 61 -37.7 54.75 -42.65 48.5 -47.6 39.65 -47.6 30.75 -47.6 24.5 -42.65 Z"/>
</g>

<g id="Objetos_nuvem_nuvem_2_0_Layer0_0_FILL">
<path fill="#FFFFFF" stroke="none" d="
M 61.65 -12.65
Q 56.85 -26.2 41.4 -36.75 19.1 -51.95 -12.5 -51.95 -44.1 -51.95 -66.45 -36.75 -77.55 -29.15 -83.1 -20.05 -86.8 -20.35 -90.7 -20.35 -113.85 -20.35 -130.25 -9.75 -140.65 -3 -144.4 5.5 -150.9 4.6 -158.45 4.6 -174.25 4.6 -185.45 8.45 -196.6 12.3 -196.6 17.75 -196.6 23.2 -185.45 27.05 -174.25 30.9 -158.45 30.9 -149.75 30.9 -142.45 29.75 -138.4 36.1 -130.25 41.35 -113.85 51.95 -90.7 51.95 -69.9 51.95 -54.6 43.4 -36.15 51.95 -12.5 51.95 19.1 51.95 41.4 36.7 48.2 32.1 52.95 26.9 54.5 27.45 56.25 28.05 80.35 36.15 114.4 36.15 148.45 36.15 172.5 28.05 196.6 20 196.6 8.55 196.6 -2.9 172.5 -11 148.45 -19.05 114.4 -19.05 84.05 -19.05 61.65 -12.65 Z"/>
</g>

<g id="fundo_0_Layer0_0_MEMBER_4_FILL">
<path fill="#009933" stroke="none" d="
M 601.85 545
Q 601.5 545 601.45 544.95
L 601.45 545.15
Q 601.5 545.2 601.65 545.2
L 601.7 545.25
Q 601.9 545.35 602.2 545.35 602.3 545.35 602.6 545 602.6 544.95 602.65 544.95
L 601.85 545
M 577.75 542.6
Q 577.7 542.45 577.6 542.4 577.65 542.6 577.65 542.85 577.75 542.7 577.75 542.6
M 488.5 539.85
Q 488.05 539.3 487.8 539.1
L 486.25 539.05
Q 485.95 539.25 485.5 540 486.2 539.4 487.55 539.4
L 488.5 539.85
M 106.15 539.4
Q 106.2 539.4 107.1 539.85 106.65 539.3 106.35 539.1
L 104.95 539.05
Q 104.55 539.25 104.1 540 104.8 539.4 106.15 539.4
M 220.05 544.95
L 220.05 545.15 220.35 545.25
Q 220.45 545.35 220.9 545.35
L 221.3 544.95 220.45 545
Q 220.2 545 220.05 544.95
M 196.25 542.85
Q 196.35 542.7 196.35 542.6 196.25 542.45 196.15 542.4 196.25 542.6 196.25 542.85
M 960.65 544
L 959.15 543.85
Q 958.75 544.1 958.3 544.9 959.05 544.2 960.35 544.2 960.45 544.2 961.35 544.7 960.9 544.1 960.65 544 Z"/>

<path fill="url(#Gradient_2)" stroke="none" d="
M 297.4 545.2
Q 297.2 545.25 297 545.35 296.5 545.35 296.1 545.25 296.55 545.6 297 545.95
L 297.65 545.9
Q 297.45 545.85 297.4 545.8
L 297.4 545.4
Q 297.4 545.25 297.4 545.2
M 294.1 544.25
Q 294 544 293.7 543.85 293.6 543.9 293.5 544.1 293.8 544.1 294.1 544.25
M 299.65 544.45
L 299.55 544.45
Q 299.5 544.45 298.9 544.65 299.3 544.65 299.8 544.7 299.75 544.55 299.65 544.45 Z"/>

<path fill="url(#Gradient_3)" stroke="none" d="
M 62.4 715.8
Q 62 715.8 61.55 716.4 61.5 716.55 61.35 716.65
L 60.5 717.75
Q 59.35 718.2 56.55 718.45 56.35 718.55 56.15 718.95
L 54.95 719.3
Q 54.7 719.2 54.5 719.1
L 54.1 718.95
Q 54 719.4 54 720.05 53.95 720.45 52.45 720.55
L 52.25 720.55
Q 52.15 720.45 51.7 720.3 51.25 720.1 50.8 720.1 50.55 720.1 50.1 720.45 49.7 720.7 49.4 720.7 49.15 720.7 48.8 720.45 48.5 720.1 48.25 720.1 48 720.1 47.35 720.6 46.8 721.15 46.75 721.15 46.4 721.15 46.4 721.05 46.3 720.8 46.25 720.75 46.1 720.55 46.25 720.25 46.4 719.8 46.4 719.65 46.25 719.6 41.95 715.8 38.3 712.6 36.9 712.6 36.85 712.9 36.65 712.95 36.35 713.05 35.3 712.25
L 31.45 712.1
Q 30.75 713.05 30.7 713.05
L 30.7 713.15 28.9 714.1
Q 28.4 714.6 27.8 715.3 26.2 717.7 26.9 718.5
L 26.6 718.25
Q 26.4 717.95 26.1 717.95 25.85 717.95 25.5 718.25 25.45 718.3 25.45 718.4
L 23.9 718.7
Q 23.1 718.75 22.65 718.75 21.3 718.75 20.9 718.55 20.6 718.3 20.25 718.2 20.2 718.2 20.15 718.2
L 20.15 718.55
Q 20.15 718.75 20.2 718.95
L 20.05 719.1
Q 18.2 718.25 17.2 717.6 16 716.85 15.15 715.8 13.05 715.55 12.2 715.35 11.75 715.3 10.35 715.3 9.6 715.3 8.7 715.9
L 7.8 716.6
Q 6.65 717.6 5.4 717.6
L 3.2 717.8
Q 2.9 717.8 2.3 717.55
L 2.15 717.5
Q 1.3 717.25 1.05 717.25 0.85 717.25 0.5 717.8 0.3 718.05 0 718.2
L 0 768 272.55 768
Q 274.15 755.95 274.2 755.1 274.3 750.45 275.25 736.6 275.55 731.35 275.9 728.15 275.9 727.65 275.95 727.15 275.95 727.65 276 728.15 276 728.55 276 729 276.15 732.15 275.9 733.8 275.8 734.95 275.7 736.3
L 275.8 736.3
Q 275.9 735.6 276.95 728.25 277.7 723.55 277.4 720.75 276.95 720.9 276.9 721.15 276.95 721.9 276.6 722.15 276.45 722.15 276.25 722.15 272.95 722.2 272.35 722.2 270.5 722.2 268.6 720.8 267 719.4 266.75 719.4 266.6 719.4 266.45 719.45 266.3 719.55 266.15 719.75 265.95 720.05 265.65 720.05 264.95 720.05 264.85 719.8
L 264.85 719.75
Q 264.8 719.3 264.6 719.2 264.15 719.45 263.85 719.75 263.25 720.05 262.75 720.05 261.85 720.05 261.05 719.6
L 260.45 719.2
Q 260.2 719.2 258.8 720.1 257.3 721.05 257.15 721.05 256.05 721.05 256.05 720.8 255.85 720.8 255.7 720.75 255.55 720.95 255 721.25 254.05 721.75 253.85 721.95 250.65 721.95 248.25 722.55 246.25 723 245.05 723.7 244.2 723.65 243.8 723.65 243.7 723.65 243.5 723.65
L 242.45 724.55
Q 242.2 725.05 242.05 725.4 241.5 726.15 241.2 726.15 240.95 726.15 240.25 726 239.35 725.85 238.25 725.8 237.4 724.35 237.35 724.2 236.6 723.05 235.5 722.5 234.6 721.95 233.7 721.2 232.8 720.25 232.6 719.45 231.2 719.45 231.15 719.45 230.7 719.4 230.5 719.2
L 230.45 718.65
Q 230.5 718.55 230.5 718.45 230.5 718.4 230.3 718.15 230.1 717.85 230 717.75 228.8 718.25 227.05 717.4 225.6 716.55 225.5 716.55 225.2 716.55 224.7 716.85 224.3 717.1 224 717.1 223.65 717.1 223.4 716.65 223.2 716.35 222.1 716.35 221.8 716.35 220.95 716.6 220.2 716.85 219.9 716.85 219.2 716.25 218.6 715.9 217.4 715.3 216.35 716.7 216 717.35 214.95 717.7
L 214.95 717.75
Q 215.15 717.95 215.45 717.95 215.6 717.95 215.65 717.95
L 216 718.45
Q 216.05 718.55 216.7 718.95 214.25 718.55 212.9 718.7 212.25 718.75 211.9 718.95
L 211.65 718.45
Q 211.75 718.4 211.8 718.4 210.45 718.2 209.05 718.7 208.15 719.1 206.85 719.2 206.7 719.1 206.5 718.95 203.35 716.95 202.55 716.55
L 199.25 716.55
Q 199.15 716.6 198.4 716.7 197.5 716.85 197.25 716.85 197.25 716.95 197.25 717.8 196.85 718.55 195.65 718.55 195.35 718.55 194.9 718.2
L 194.85 718.05
Q 194.2 717.35 193.95 717.25
L 192.25 717.25
Q 190 717.35 188.15 717.15 187.05 717.1 186.15 716.95 186.1 716.9 186.1 716.85 186.05 716.85 186.05 717.1
L 185.95 717.1
Q 185.85 716.7 186.15 716 186.55 715.1 187.25 715.1 187.45 715.1 187.65 715.1 186.55 714.5 186.2 715.25 185.95 716.55 185.75 716.85
L 184.15 716.95
Q 183.85 717.35 182.45 717.95 181.1 718.55 180.45 718.55 180.15 718.55 180 718.25 179.9 717.95 178.6 717.95 178.45 717.95 178.15 718.7 177.85 719.4 177.85 719.75
L 176.3 719.8
Q 175.15 720.95 172.7 722.5
L 170.85 723.65
Q 170.05 724 169.75 724 169.6 724 168.85 723.45 168.1 722.75 168.1 722.65 167.7 722.4 165.95 722.2 164.35 722.05 163.25 722.05 162.9 722.05 163.1 722.35 163.3 722.6 163.05 722.6 162.1 722.35 161.05 722.05 159 721.5 158.25 721.6 158.25 721.45 158.2 721.35
L 158.2 721.4 156.7 721.35
Q 156.7 721.15 156.5 721.15
L 156.4 721.05
Q 155.55 721.2 154.9 720.95 154.1 720.55 153.3 720.55 153.2 720.55 152.85 721.15 152.5 721.65 151.65 721.65 151.45 721.65 149.6 720.3 147.9 718.95 147.55 718.65 146.45 718.05 143.25 718.9 140 720.05 139.5 720.1 138.3 720.45 136.45 723.2 134.95 725.3 134.4 725.7
L 134.25 726.3 134.2 726.3 134.2 726.5 129.95 726.7
Q 129.9 726.7 129.85 726.7
L 128.95 726.75
Q 128.85 726.9 128.85 726.95 128.55 726.95 128.3 727.15 128 727.4 127.7 727.45 127.65 727.1 127.4 726.7 127.15 726.3 126.85 726.15
L 126.75 726.3 126.7 726.2
Q 126.2 725.8 125.6 725.05 124.9 724.15 124.6 723.7 121.85 723.7 121.65 723.55 121.65 723.05 120.8 722.35 118.65 722.15 116.95 721.65
L 115.65 721.2
Q 114.55 720.75 113.85 720.45
L 113.75 720.35
Q 110.65 719.1 109.05 718.4 106.15 716.85 104.95 715.55
L 101.8 715.5
Q 101.65 714.5 101.65 713.95 101.6 713.15 100.85 713.15 99.8 713.15 99.35 713.05
L 95.65 713.75
Q 95.15 714.3 94.85 714.65 91.65 714.95 91.55 715.55 91.5 715.7 91.75 716.2 91.95 716.55 92 716.85 89.5 715.35 88.75 715.8 88.3 716.1 88.05 716.35 87.6 716.65 86.9 716.65 86.65 716.65 86.1 716.4 85.55 716.15 85.05 716.1 84.7 716.9 84.05 718.5 83.5 719.8 83.3 720.45 83.1 720.3 82.9 720.25 82.9 720.15 82.85 720.1 81.2 719.9 79.2 718.75 78.7 718.45 78.2 718.3 77.05 717.95 75.55 718.15 75.2 717.8 74.75 717.5
L 72.8 716.35
Q 72.75 716.35 72.7 716.35 71.2 715.55 70.9 715.55 70.25 715.55 69.65 715.55
L 69.65 715.05
Q 69.35 715.05 68.8 714.85 68.05 714.6 67.75 714.6
L 66.35 714.65
Q 66.15 715.25 64.75 715.95 65.05 715.9 65.25 715.9 65.2 716.25 64.75 716.25 64.55 716.25 64.25 716.2 64.15 716.2 64.05 716.25
L 63.55 716.2 63.8 716.1
Q 63.65 716.1 63.55 716.1 62.7 715.8 62.4 715.8 Z"/>

<path fill="url(#Gradient_4)" stroke="none" d="
M 667.5 717.35
Q 667.3 717.1 667.05 716.95 666.55 717.3 665.4 718.85
L 664.25 720.3
Q 663.55 720.3 662.9 720.05 662.45 719.65 662.4 719.65 662.2 719.65 661.35 720.1 660.55 720.6 660.1 720.6 658.5 720.6 658.3 721.15 658.35 721.9 657.95 722.15 654.3 722.2 653.75 722.2 651.9 722.2 649.95 720.8 648.35 719.4 648.1 719.4 648 719.4 647.9 719.45
L 647.85 719.45
Q 647.75 719.55 647.6 719.75 647.3 720.05 647 720.05 646.4 720.05 646.3 719.8
L 646.3 719.75
Q 646.2 719.3 646 719.2 645.55 719.45 645.25 719.75 644.7 720.05 644.1 720.05 643.25 720.05 642.5 719.6 641.9 719.2 641.8 719.2 641.6 719.2 640.2 720.1 638.7 721.05 638.5 721.05 637.5 721.05 637.5 720.8 637.3 720.8 637.15 720.75 636.85 720.95 636.35 721.25 635.45 721.75 635.25 721.95 632.05 721.95 629.6 722.55 627.65 723 626.5 723.7 625.65 723.65 625.2 723.65 625.05 723.65 624.9 723.65
L 623.85 724.55
Q 623.6 725.05 623.35 725.4 622.9 726.15 622.55 726.15 622.4 726.15 621.7 726 620.8 725.85 619.65 725.8 618.85 724.35 618.75 724.2 617.95 723.05 616.95 722.5 615.9 721.95 615.15 721.2 614.15 720.25 614 719.45 612.6 719.45 612.55 719.45 612.1 719.4 611.95 719.2
L 611.8 718.65
Q 611.95 718.55 611.95 718.45 611.95 718.4 611.7 718.15 611.45 717.85 611.45 717.75 610.15 718.25 608.45 717.4 606.95 716.55 606.85 716.55 606.55 716.55 606.15 716.85 605.7 717.1 605.35 717.1 605.05 717.1 604.8 716.65 604.55 716.35 603.45 716.35 603.1 716.35 602.4 716.6 601.5 716.85 601.25 716.85 600.55 716.25 599.9 715.9 598.75 715.3 597.75 716.7 597.3 717.35 596.35 717.7
L 596.35 717.75
Q 596.55 717.95 596.85 717.95 596.9 717.95 597.05 717.95
L 597.35 718.45
Q 597.5 718.55 598.05 718.95 595.65 718.55 594.3 718.7 593.65 718.75 593.25 718.95
L 593.05 718.45
Q 593.05 718.4 593.2 718.4 591.85 718.2 590.5 718.7 589.6 719.1 588.2 719.2 588 719.1 587.9 718.95 584.75 716.95 584.05 716.55
L 580.65 716.55
Q 580.55 716.6 579.7 716.7 578.8 716.85 578.65 716.85 578.65 716.95 578.6 717.8 578.2 718.55 577 718.55 576.7 718.55 576.35 718.2 576.3 718.2 576.25 718.05 575.65 717.35 575.4 717.25
L 573.55 717.25
Q 571.35 717.35 569.6 717.15
L 569.5 717.15
Q 568.45 717.1 567.55 716.95 567.45 716.9 567.4 716.85 567.35 716.85 567.35 717.1 567.3 716.7 567.55 716 568 715.1 568.7 715.1 568.9 715.1 569 715.1 568 714.5 567.55 715.25 567.35 716.55 567.1 716.85
L 565.55 716.95
Q 565.25 717.35 563.9 717.95 562.5 718.55 561.9 718.55 561.5 718.55 561.4 718.25 561.25 717.95 560.05 717.95 559.85 717.95 559.55 718.7 559.15 719.4 559.15 719.75
L 557.7 719.8
Q 556.45 720.95 554.1 722.5
L 552.25 723.65
Q 551.4 724 551.2 724 550.95 724 550.3 723.45 549.55 722.75 549.4 722.65 549.15 722.4 547.3 722.2 545.7 722.05 544.55 722.05 544.3 722.05 544.5 722.35 544.75 722.6 544.45 722.6 543.45 722.35 542.45 722.05 540.4 721.5 539.65 721.6 539.65 721.45 539.65 721.35 539.55 721.35 539.55 721.4
L 538.15 721.35
Q 538.1 721.15 537.95 721.15
L 537.75 721.05
Q 536.95 721.2 536.3 720.95 535.45 720.55 534.75 720.55 534.55 720.55 534.25 721.15 533.85 721.65 533.05 721.65 532.85 721.65 531.05 720.3 529.25 718.95 528.95 718.65 527.9 718.05 524.65 718.9 521.4 720.05 520.95 720.1 519.65 720.45 517.8 723.2 516.4 725.3 515.75 725.7
L 515.65 726.3 515.5 726.3 515.5 726.5 510.3 726.75
Q 510.3 726.9 510.2 726.95 509.85 726.95 509.7 727.15 509.3 727.4 509.1 727.45 509.05 727.1 508.8 726.7 508.55 726.3 508.25 726.15
L 508.15 726.3 508.1 726.2
Q 507.55 725.8 507 725.05 506.3 724.15 505.95 723.7 503.2 723.7 503 723.55 503.1 723.05 502.2 722.35 500.1 722.15 498.3 721.65
L 497.05 721.2
Q 495.9 720.75 495.2 720.45
L 495.2 720.35
Q 492 719.1 490.5 718.4 487.55 716.85 486.25 715.55
L 483.1 715.5
Q 483.1 714.5 483.05 713.95 482.95 713.15 482.2 713.15 481.25 713.15 480.8 713.05
L 476.95 713.75
Q 476.6 714.3 476.2 714.65 473 714.95 472.95 715.55 472.9 715.7 473.15 716.2 473.4 716.55 473.4 716.85 470.9 715.35 470.15 715.8 469.75 716.1 469.4 716.35 468.95 716.65 468.25 716.65 468 716.65 467.55 716.4 466.95 716.15 466.4 716.1 466.15 716.9 465.45 718.5 464.95 719.8 464.6 720.45 464.45 720.3 464.3 720.25 464.3 720.15 464.25 720.1 462.5 719.9 460.6 718.75 460.15 718.45 459.5 718.3 458.4 717.95 456.95 718.15 456.5 717.8 456.05 717.5
L 454.1 716.35
Q 452.6 715.55 452.2 715.55 451.65 715.55 451.05 715.55
L 451.05 715.05
Q 450.8 715.05 450.15 714.85 449.5 714.6 449.2 714.6
L 447.7 714.65
Q 447.55 715.25 446.2 715.95 446.45 715.9 446.65 715.9 446.55 716.25 446.2 716.25 445.95 716.25 445.6 716.2 445.5 716.2 445.5 716.25
L 444.9 716.2 445.1 716.1 445.05 716.1
Q 444.1 715.8 443.8 715.8 443.35 715.8 442.9 716.4 442.85 716.55 442.65 716.65
L 441.9 717.75
Q 440.8 718.2 438 718.45 437.7 718.55 437.6 718.95
L 436.35 719.3
Q 436.15 719.2 435.9 719.1
L 435.5 718.95
Q 435.35 719.4 435.45 720.05 435.25 720.45 433.85 720.55
L 433.65 720.55
Q 433.6 720.45 433.05 720.3 432.6 720.1 432.25 720.1 431.9 720.1 431.55 720.45 431.1 720.7 430.85 720.7 430.5 720.7 430.2 720.45 429.95 720.1 429.6 720.1 429.3 720.1 428.8 720.6 428.2 721.15 428.15 721.15 427.8 721.15 427.75 721.05 427.7 720.8 427.55 720.75 427.55 720.55 427.7 720.25 427.75 719.8 427.7 719.65 427.7 719.6 423.3 715.8 419.7 712.6 418.3 712.6 418.3 712.9 418.05 712.95 417.75 713.05 416.7 712.25
L 412.9 712.1
Q 412.15 713.05 412 713.05
L 412 713.15 410.3 714.1
Q 409.75 714.6 409.2 715.3 407.6 717.7 408.3 718.5
L 408.05 718.25
Q 407.85 717.95 407.45 717.95 407.15 717.95 406.9 718.25 406.9 718.3 406.9 718.4
L 405.3 718.7
Q 404.45 718.75 403.95 718.75 402.65 718.75 402.3 718.55 402.05 718.3 401.65 718.2
L 401.6 718.2 401.6 718.55
Q 401.6 718.75 401.6 718.95
L 401.45 719.1
Q 399.6 718.25 398.55 717.6 397.35 716.85 396.5 715.8 394.4 715.55 393.6 715.35 393.2 715.3 391.7 715.3 390.9 715.3 390.1 715.9
L 389.15 716.6
Q 387.95 717.6 386.75 717.6
L 384.55 717.8
Q 384.35 717.8 383.65 717.55
L 383.55 717.5
Q 382.7 717.25 382.45 717.25 382.25 717.25 381.8 717.8 381.5 718.4 380.5 718.4 379 718.25 378.9 718.3 378.9 718.4 378.8 718.55 378.75 718.9 378.2 719.3 378.1 719.2 377.3 719.15 376.7 719.1 376.45 719.1 376.45 719.2 377.25 719.4
L 375.55 719.4
Q 374.4 720.55 373.8 720.95 373.4 721.15 372.6 721.25 371.8 720.45 370.3 719.6 369 718.9 368.8 718.9 368.3 718.9 367.85 718.45 367.45 717.95 366.45 717.95 366.1 717.95 366 718
L 365.95 718
Q 365.95 716.1 364.1 714.5 362.6 713.15 361.75 713.15 361 713.15 360.3 712.6 359.9 712.45 358.65 713 358.2 713.25 357.7 713.9 357.1 714.65 356.25 715.1 355.5 715.65 354.75 716.85 353.75 718.3 353.65 719.55 353.05 719.55 351.9 719.1 350.85 718.65 350.75 718.65
L 349.6 720.05
Q 348.5 718.9 347.8 718.2 346.35 716.7 345.65 716.7 343.3 716.7 342.7 716 342.25 715.45 341.95 715 341.3 714.2 340.35 713.4
L 338.3 713.4
Q 337.15 713.9 335.55 714.85 335.45 714.95 335.35 714.95
L 335.35 715
Q 335.15 714.95 334.95 714.85 333.8 714.55 333.15 715.25 332.4 715.9 331.25 715.8 331.25 716 332.5 716 332.85 716 333.25 715.55 333.55 715.1 334.85 715.1 334.95 715.1 335.1 715.2 334.1 715.7 332.65 716.65
L 332.1 716.95
Q 331.1 717.7 330.4 717.1 329.85 716.4 329.5 716.35 329.25 716.2 328.95 716.2
L 329 715.65
Q 328.05 715.45 327.2 715.1 326 714.4 325.95 714.4 325.55 714.4 325.05 714.4
L 324.4 714.5
Q 324.2 714.6 323.9 715
L 322.1 715.1
Q 321.9 715.3 321.75 715.8 321.9 715.9 322.1 716 322.1 715.95 322.1 715.9 322.3 715.55 323.65 715.55 323 715.9 322.3 716.6 321.5 717.5 321.25 717.5 320.9 717.5 320.15 717.1 320 717.5 319.9 717.5 319.3 717.5 319 717.1 318.85 716.8 318.45 716.8 318.4 716.85 318.3 717.25 318.25 717.25 318 717.5
L 317.15 717.35
Q 317.35 717.3 317.4 717.15 317.05 717.1 316.2 716.8
L 314.85 716.35
Q 313.7 716.35 313.45 716.6 313.2 716.7 313.05 717.25
L 311.6 717.3
Q 311.4 717.35 311.35 717.6 311.35 717.7 311.3 717.85 311.1 717.8 310.7 717.5 310.65 717.35 310.5 717.35
L 309.8 717.35
Q 309.05 717.35 308.8 717.15 308.4 717.05 308 716.85 307.95 716.85 307.9 716.9
L 307.55 716.65
Q 306.8 716.4 305.95 716.1 304.35 715.3 303.6 715.7 303.2 716.1 302.7 716.35 302.45 716.15 302.25 716 302.3 716 302.3 715.95 302.65 715.8 303.55 715.7
L 303.6 715.55
Q 303.45 715.45 302.75 715.5 302 715.55 301.95 715.55
L 302 715.8 302 715.9
Q 301.75 715.7 301.5 715.45 301.1 715.1 300.7 714.6 299.55 714.6 298.1 715.25
L 296.7 715.95
Q 295.3 715.95 294.85 717.1 294.85 717.3 294.65 717.95 294.55 718.45 294.4 718.55 293.3 717.95 293.25 717.95 292.9 717.95 292.5 717.95 292.45 717.95 291.9 717.85 291.8 717.85 291.8 717.8 291.3 717.7 290.9 717.7 290.8 717.7 290.75 717.7 289.7 717.7 289.45 717.95 289.4 718 289.3 718.3 289.3 718.4 289.3 718.45 289.3 718.9 289.4 718.9 289.45 718.95 289.6 718.95
L 289 719.1
Q 288.55 718.7 288.1 718.4 287.8 718.2 287.4 717.95 286.75 717.6 286.05 717.35 285.8 717.25 285.4 717.15 284.65 716.95 283.9 716.95 283.8 716.85 283.75 716.85
L 283.75 716.4 284.15 716.35
Q 284.15 716 283.9 715.8
L 283.65 715.7
Q 283.3 715.9 280.9 716.1 278.1 717.7 277.15 719.15 276.35 720.35 276.25 722.15 276.65 721.05 277.15 720.1
L 277.4 720.25
Q 277.4 720.5 277.4 720.75 277.7 723.55 276.95 728.25 275.9 735.6 275.8 736.3
L 275.7 736.3
Q 275.8 734.95 275.9 733.8 276.15 732.15 276 729 276 728.55 276 728.15 275.95 727.65 275.95 727.15 275.9 727.65 275.9 728.15 275.55 731.35 275.25 736.6 274.3 750.45 274.2 755.1 274.15 755.95 272.55 768
L 668.25 768
Q 669.95 755.95 670 755.1 670.05 750.45 670.95 736.6 671.4 731.35 671.65 728.15 671.65 727.8 671.65 727.75 671.65 727.8 671.75 728.15 671.75 728.55 671.8 729 671.9 732.15 671.65 733.8 671.55 734.95 671.45 736.3
L 671.6 736.3
Q 671.65 735.6 672.75 728.25 673.5 723.1 673.2 720.25
L 672.95 720.1
Q 672.3 721.25 672 722.6 672.05 720.55 672.95 719.15 673.15 718.75 673.5 718.45 673.2 717.95 672.95 717.5 672.8 717.5 670.3 718.45 668.2 718.4 667.7 717.8
L 667.5 717.35
M 300.9 715.25
L 299.75 715
Q 299.9 714.85 300.5 714.85
L 300.9 715.25
M 350.05 720.3
Q 350.3 720.1 350.65 719.45 350.95 718.95 351.15 718.95 351.35 719.1 351.8 719.2
L 350.05 720.3 Z"/>

<path fill="url(#Gradient_5)" stroke="none" d="
M 713.8 717.5
L 712.95 717.35
Q 713.05 717.3 713.25 717.15 712.8 717.1 711.9 716.8
L 710.6 716.35
Q 709.4 716.35 709.1 716.6 709.05 716.7 708.85 717.25
L 707.3 717.3
Q 707.25 717.35 707.1 717.6 707.05 717.7 707 717.85 706.8 717.8 706.55 717.5 706.4 717.35 706.3 717.35
L 705.5 717.35
Q 704.8 717.35 704.5 717.15 704.2 717.05 703.75 716.85
L 703.65 716.9 703.3 716.65
Q 702.6 716.4 701.7 716.1 700.15 715.3 699.4 715.7 698.95 716.1 698.5 716.35 698.15 716.15 697.95 716 698.05 716 698.1 715.95 698.4 715.8 699.3 715.7
L 699.3 715.55
Q 699.3 715.45 698.55 715.5 697.8 715.55 697.7 715.55
L 697.7 715.9
Q 697.45 715.7 697.25 715.45 696.9 715.1 696.5 714.6 695.35 714.6 693.95 715.25 692.55 715.95 692.45 715.95 691 715.95 690.6 717.1 690.55 717.3 690.4 717.95 690.3 718.45 690.1 718.55 689.05 717.95 688.9 717.95 688.7 717.95 688.25 717.95 688.2 717.95 687.65 717.85 687 717.7 686.5 717.7 685.5 717.7 685.15 717.95 685.1 718.05 685.1 718.45 685.1 718.9 685.15 718.9 685.15 718.95 685.35 718.95
L 684.7 719.1
Q 684 718.45 683.2 717.95 681.6 716.95 679.6 716.95
L 679.6 716.85 679.45 716.4 679.85 716.35
Q 679.85 716 679.6 715.8
L 679.35 715.7
Q 679.1 715.9 676.6 716.1 674.55 717.3 673.5 718.45 673.15 718.75 672.95 719.15 672.05 720.55 672 722.6 672.3 721.25 672.95 720.1
L 673.2 720.25
Q 673.5 723.1 672.75 728.25 671.65 735.6 671.6 736.3
L 671.45 736.3
Q 671.55 734.95 671.65 733.8 671.9 732.15 671.8 729 671.75 728.55 671.75 728.15 671.65 727.8 671.65 727.75 671.65 727.8 671.65 728.15 671.4 731.35 670.95 736.6 670.05 750.45 670 755.1 669.95 755.95 668.25 768
L 1024 768 1024 722.95
Q 1022.9 723.25 1022.2 723.7 1021.35 723.65 1021 723.65 1020.85 723.65 1020.6 723.65
L 1019.65 724.55
Q 1019.4 725.05 1019.2 725.4 1018.7 726.15 1018.35 726.15 1018.1 726.15 1017.35 726 1016.5 725.85 1015.4 725.8 1014.6 724.35 1014.5 724.2 1013.75 723.05 1012.65 722.5 1011.75 721.95 1010.85 721.2 1009.9 720.25 1009.8 719.45 1008.35 719.45 1008.3 719.45 1007.85 719.4 1007.65 719.2
L 1007.6 718.65
Q 1007.65 718.55 1007.65 718.45 1007.65 718.4 1007.5 718.15 1007.3 717.85 1007.15 717.75 1005.95 718.25 1004.2 717.4
L 1002.7 716.55
Q 1002.35 716.55 1001.85 716.85 1001.45 717.1 1001.15 717.1 1000.8 717.1 1000.55 716.65 1000.35 716.35 999.2 716.35 998.95 716.35 998.15 716.6 997.35 716.85 997.05 716.85 996.35 716.25 995.7 715.9 994.55 715.3 993.5 716.7 993.15 717.35 992.1 717.7
L 992.1 717.75
Q 992.3 717.95 992.65 717.95 992.7 717.95 992.8 717.95
L 993.15 718.45
Q 993.2 718.55 993.85 718.95 991.4 718.55 990.05 718.7 989.45 718.75 989 718.95
L 988.8 718.45
Q 988.9 718.4 989 718.4 987.55 718.2 986.25 718.7 985.35 719.1 984 719.2 983.85 719.1 983.65 718.95 980.55 716.95 979.7 716.55
L 976.45 716.55
Q 976.3 716.6 975.45 716.7 974.6 716.85 974.4 716.85 974.4 716.95 974.3 717.8 974 718.55 972.8 718.55 972.45 718.55 972.1 718.2 972 718.2 972 718.05 971.4 717.35 971.1 717.25
L 969.4 717.25
Q 967.15 717.35 965.3 717.15 964.2 717.1 963.3 716.95 963.2015625 716.90078125 963.2 716.85
L 963.2 717.1 963.1 717.1
Q 963 716.7 963.3 716 963.7 715.1 964.4 715.1 964.6 715.1 964.8 715.1 963.7 714.5 963.4 715.25 963.1 716.55 962.95 716.85
L 961.35 716.95
Q 961 717.35 959.6 717.95 958.25 718.55 957.6 718.55 957.3 718.55 957.1 718.25 957.05 717.95 955.75 717.95 955.65 717.95 955.25 718.7 955 719.4 955 719.75
L 953.45 719.8
Q 952.25 720.95 949.85 722.5
L 948 723.65
Q 947.1 724 946.95 724 946.65 724 946.05 723.45 945.25 722.75 945.25 722.65 944.8 722.4 943.1 722.2 941.5 722.05 940.4 722.05 940.1 722.05 940.25 722.35 940.45 722.6 940.15 722.6 939.25 722.35 938.25 722.05 936.2 721.5 935.4 721.6 935.4 721.45 935.35 721.35
L 935.35 721.4 933.85 721.35
Q 933.85 721.15 933.7 721.15
L 933.55 721.05
Q 932.7 721.2 932 720.95 931.25 720.55 930.5 720.55 930.35 720.55 930.05 721.15 929.65 721.65 928.75 721.65 928.65 721.65 926.75 720.3 925.05 718.95 924.7 718.65 923.65 718.05 920.45 718.9 917.15 720.05 916.65 720.1 915.45 720.45 913.6 723.2 912.1 725.3 911.55 725.7
L 911.4 726.3 911.35 726.3 911.35 726.5 907.1 726.7
Q 907.05 726.7 907 726.7
L 906.1 726.75
Q 906.05 726.9 905.95 726.95 905.7 726.95 905.45 727.15 905.05 727.4 904.8 727.45 904.8 727.1 904.55 726.7 904.3 726.3 904 726.15
L 903.9 726.3 903.85 726.2
Q 903.35 725.8 902.75 725.05 902.05 724.15 901.75 723.7 899 723.7 898.8 723.55 898.8 723.05 897.95 722.35 895.8 722.15 894.15 721.65
L 892.8 721.2
Q 891.7 720.75 891 720.45
L 890.85 720.35
Q 887.8 719.1 886.2 718.4 883.3 716.85 882.05 715.55
L 878.95 715.5
Q 878.85 714.5 878.75 713.95 878.75 713.15 878 713.15 876.9 713.15 876.55 713.05
L 872.75 713.75
Q 872.3 714.3 872 714.65 868.8 714.95 868.7 715.55 868.65 715.7 868.9 716.2 869.1 716.55 869.15 716.85 866.65 715.35 865.9 715.8 865.45 716.1 865.2 716.35 864.75 716.65 864.05 716.65 863.8 716.65 863.3 716.4 862.7 716.15 862.2 716.1 861.85 716.9 861.25 718.5 860.65 719.8 860.4 720.45 860.2 720.3 860.1 720.25 860.1 720.15 860 720.1 858.35 719.9 856.35 718.75 855.85 718.45 855.35 718.3 854.15 717.95 852.7 718.15 852.25 717.8 851.85 717.5
L 849.95 716.35
Q 849.9 716.35 849.85 716.35 848.35 715.55 848.05 715.55 847.4 715.55 846.85 715.55
L 846.85 715.05
Q 846.5 715.05 845.95 714.85 845.25 714.6 844.9 714.6
L 843.5 714.65
Q 843.3 715.25 841.9 715.95 842.25 715.9 842.4 715.9 842.3 716.25 841.9 716.25 841.7 716.25 841.4 716.2 841.35 716.2 841.2 716.25
L 840.7 716.2 840.9 716.1
Q 840.8 716.1 840.7 716.1 839.85 715.8 839.55 715.8 839.15 715.8 838.7 716.4 838.6 716.55 838.5 716.65
L 837.7 717.75
Q 836.55 718.2 833.7 718.45 833.45 718.55 833.35 718.95
L 832.05 719.3
Q 831.85 719.2 831.65 719.1
L 831.3 718.95
Q 831.15 719.4 831.15 720.05 831.1 720.45 829.6 720.55
L 829.45 720.55
Q 829.3 720.45 828.85 720.3 828.35 720.1 827.95 720.1 827.65 720.1 827.25 720.45 826.85 720.7 826.55 720.7 826.3 720.7 825.95 720.45 825.65 720.1 825.35 720.1 825.05 720.1 824.5 720.6
L 823.9 721.15
Q 823.55 721.15 823.45 721.05 823.45 720.8 823.4 720.75 823.3 720.55 823.4 720.25 823.45 719.8 823.45 719.65 823.4 719.6 819.05 715.8 815.45 712.6 814.05 712.6 814 712.9 813.8 712.95 813.5 713.05 812.45 712.25
L 808.6 712.1
Q 807.9 713.05 807.85 713.05
L 807.85 713.15 806.05 714.1
Q 805.55 714.6 805 715.3 803.4 717.7 804.1 718.5
L 803.75 718.25
Q 803.55 717.95 803.25 717.95 803 717.95 802.65 718.25 802.6 718.3 802.55 718.4
L 801.05 718.7
Q 800.25 718.75 799.75 718.75 798.45 718.75 798.05 718.55 797.75 718.3 797.4 718.2 797.35 718.2 797.3 718.2
L 797.3 718.55
Q 797.3 718.75 797.35 718.95
L 797.25 719.1
Q 795.3 718.25 794.35 717.6 793.15 716.85 792.3 715.8 790.2 715.55 789.3 715.35 788.9 715.3 787.45 715.3 786.75 715.3 785.85 715.9
L 784.9 716.6
Q 783.75 717.6 782.6 717.6
L 780.35 717.8
Q 780.1 717.8 779.45 717.55
L 779.3 717.5
Q 778.5 717.25 778.2 717.25 778.05 717.25 777.65 717.8 777.2 718.4 776.3 718.4 774.75 718.25 774.7 718.3 774.65 718.4 774.65 718.55 774.45 718.9 774 719.3 773.85 719.2 773.1 719.15 772.55 719.1 772.2 719.1 772.2 719.2 773.05 719.4
L 771.3 719.4
Q 770.2 720.55 769.5 720.95 769.2 721.15 768.35 721.25 767.6 720.45 766.05 719.6 764.8 718.9 764.6 718.9 764.1 718.9 763.7 718.45 763.25 717.95 762.2 717.95 761.9 717.95 761.8 718
L 761.7 718
Q 761.7 716.1 759.8 714.5 758.4 713.15 757.6 713.15 756.8 713.15 756.1 712.6 755.65 712.45 754.4 713 753.95 713.25 753.45 713.9 752.8 714.65 752.1 715.1 751.3 715.65 750.45 716.85 749.55 718.3 749.4 719.55 748.85 719.55 747.7 719.1
L 746.55 718.65 745.4 720.05
Q 744.35 718.9 743.55 718.2 742.15 716.7 741.35 716.7 739.05 716.7 738.4 716 737.95 715.45 737.7 715 737.05 714.2 736.05 713.4
L 734.05 713.4
Q 732.9 713.9 731.25 714.85 731.2 714.95 731.1 714.95
L 731.1 715
Q 730.95 714.95 730.65 714.85 729.6 714.55 728.9 715.25 728.2 715.9 727 715.8 727 716 728.3 716 728.6 716 728.95 715.55 729.35 715.1 730.65 715.1 730.75 715.1 730.75 715.2 729.85 715.7 728.35 716.65
L 727.85 716.95
Q 726.9 717.7 726.25 717.1 725.6 716.4 725.25 716.35 725 716.2 724.65 716.2
L 724.8 715.65
Q 723.8 715.45 723.05 715.1 721.85 714.4 721.7 714.4 721.35 714.4 720.75 714.4
L 720.25 714.5
Q 720 714.6 719.65 715
L 717.85 715.1
Q 717.7 715.3 717.55 715.8 717.7 715.9 717.85 716 717.85 715.95 717.95 715.9 718 715.55 719.4 715.55 718.75 715.9 718.15 716.6 717.3 717.5 717.05 717.5 716.65 717.5 715.95 717.1 715.7 717.5 715.65 717.5 715 717.5 714.8 717.1 714.6 716.8 714.2 716.8 714.15 716.85 714.1 717.25 713.95 717.25 713.8 717.5
M 696.3 714.85
L 696.7 715.25 695.55 715
Q 695.6 714.85 696.3 714.85
M 747.45 719.2
L 745.85 720.3
Q 746.05 720.1 746.4 719.45 746.75 718.95 746.95 718.95 747.05 719.1 747.45 719.2 Z"/>
</g>

<g id="fundo_0_Layer0_0_MEMBER_5_FILL">
<path fill="#CCCC66" stroke="none" d="
M 527.9 398.35
Q 527.9125 397.96875 528 397.75
L 527.9 397.75
Q 527.9 397.96875 527.9 398.35
M 214.55 609.95
Q 214.55 610.184375 214.55 610.45 214.55625 610.184375 214.65 609.95
L 214.55 609.95
M 104.1 609.95
Q 104.1 610.16875 104.1 610.4 104.10625 610.16875 104.15 609.95
L 104.1 609.95
M 309.1 398.3
Q 309.109375 397.953125 309.15 397.75
L 309.1 397.75
Q 309.1 397.953125 309.1 398.3
M 746.75 398.3
Q 746.759375 397.953125 746.8 397.75
L 746.75 397.75
Q 746.75 397.953125 746.75 398.3
M 856.1 398.35
Q 856.1125 397.96875 856.2 397.75
L 856.1 397.75
Q 856.1 397.96875 856.1 398.35
M 965.55 398.3
Q 965.559375 397.953125 965.6 397.75
L 965.55 397.75
Q 965.55 397.953125 965.55 398.3 Z"/>
</g>

<g id="Objetos_personagem_iara_partes_bracomenina_0_Layer0_0_FILL">
<path fill="#FFCC99" stroke="none" d="
M 46.1 34.4
Q 43.45 32.05 40.95 29.1 37.15 24.55 35.1 19.9
L 0 36.75
Q 0.25 37.45 0.9 40 1.85 43.65 2.75 44.35
L 46.1 34.4 Z"/>

<path fill="#9999CC" stroke="none" d="
M 45.5 6
Q 47.5 3.9 49.9 2.7 48.5 2 47.2 1.45 39.6 -1.65 35.45 1.8 31.2 5.3 32.85 13.3 33.5 16.6 35.1 19.9 37.15 24.55 40.95 29.1 43.45 32.05 46.1 34.4 50.3 38.15 54.95 40.05 62.5 43.1 66.75 39.65 70.9 36.15 69.3 28.2 69.05 27.1 68.8 26.1 68 27.3 66.95 28.4 66 29.4 65.05 30.25 49.7 24.15 45.5 6
M 71.3 17.1
Q 71.2 10.6 66.7 5.9 62.3 1.3 56 1.4 52.7 1.4 49.9 2.7 47.5 3.9 45.5 6 49.7 24.15 65.05 30.25 66 29.4 66.95 28.4 68 27.3 68.8 26.1 71.3 22.2 71.3 17.1 Z"/>
</g>

<g id="Objetos_personagem_iara_partes_iarabracoesquerda_0_Layer0_0_FILL">
<path fill="#FF99CC" stroke="none" d="
M 45.35 23.4
Q 43.65 16 42.75 12.9 41.25 7.8 38.8 5.1 35.75 1.75 29.75 0.2 27.7 -0.35 25.9 0.55 24 1.5 23.4 3.7
L 21.9 11.4
Q 21.4 13.3 20.1 15.6 18.75 18.05 12.15 23.35 13.05 23.95 15.4 25.5 17.85 27.05 22.8 25.65 27.65 24.3 29.8 14.5 27.65 24.3 22.8 25.65 17.85 27.05 15.4 25.5 13.05 23.95 12.15 23.35 11.95 23.25 11.75 23.1 10.6 22.3 10.3 22.2 7 21.35 4.15 24.7 1.7 27.6 0.4 32.55 -0.5 36 0.7 38.55 2.05 41.45 5.75 42.4 6.6 42.65 10.55 43.1 14.45 43.55 17.4 44.3 22.15 45.55 24.75 46.6 26.45 47.15 27.2 47.7 29.55 49.15 30.2 52.6 29.55 49.15 27.2 47.7 26.45 47.15 24.75 46.6 21.5 50.95 19.55 55.3 16.45 62.25 18.3 65.6 18.6 66.25 19.1 66.75 21.4 69.05 26.3 67.75 28.25 67.25 30.55 66.15 36.05 63.65 41.65 59.05 44.4 56.75 47.15 53.95 51.3 49.8 54.3 45.7 57.45 41.4 59.35 37.2 63 29 59.8 25.75 56.55 22.55 48.35 26.35 47.45 26.8 46.55 27.25
L 46.5 27.3
Q 48.1 32.15 50.4 36.3 48.1 32.15 46.5 27.3 46.45 27.1 46.4 27 45.8 25.25 45.35 23.4
M 32.8 54.15
Q 42.25 52.6 47.3 42.9 42.25 52.6 32.8 54.15 Z"/>

<path fill="#FFCC99" stroke="none" d="
M 91 70.5
Q 93.1 66.6 92.1 67.15
L 54.3 45.7
Q 51.3 49.8 47.15 53.95 44.4 56.75 41.65 59.05
L 87.8 74.75 87.9 74.3
Q 87.85 74.55 87.85 74.75 87.8 75.25 87.95 75.5 88.95 74.4 91 70.5 Z"/>
</g>

<g id="Objetos_personagem_iara_partes_corpomenina_0_Layer0_0_FILL">
<path fill="#FFFF00" stroke="none" d="
M 39.95 10.1
L 38.9 10.55
Q 38.9 17.2 36.6 21.65 34.25 26.05 30.7 25.55 27.15 25.05 26.4 20.1 25.65 15.15 26.1 12 26.55 8.75 26.75 7.25 25.15 10.65 13.6 32 2 53.35 0.35 51.45
L 0 51.7
Q 4.4 60.45 10.5 63.8 16.25 67 26.5 67 35.75 67 38 66.8 41.8 66.5 43.6 65.15 45.1 63.95 47.1 60.25 51.1 52.9 52.45 50.7 52.45 50.65 52.5 50.65 52.5 50.5701171875 52.5 50.55
L 52.55 50.5 39.95 10.1 Z"/>

<path fill="#FFCC99" stroke="none" d="
M 38.05 3.4
Q 38.05 0.35 33.95 0.05 29.8 -0.3 29.8 2.15 29.8 2.55 29.95 2.85 28.3 5.05 26.75 7.25 26.55 8.75 26.1 12 25.65 15.15 26.4 20.1 27.15 25.05 30.7 25.55 34.25 26.05 36.6 21.65 38.9 17.2 38.9 10.55 38.9 8.9 38.8 7.35 38.05 5.7 37.35 4.1 37.65 4.1 37.8 4 37.9 3.9 38 3.75 38.05 4.05 38.05 3.4 Z"/>
</g>

<g id="Objetos_personagem_iara_partes_Tween_9_0_Layer0_0_FILL">
<path fill="#FFCC99" stroke="none" d="
M -13.9 11.5
Q 2.1 12.5 7.8 8.7 -25.15 -20.45 -37.2 -7.85 -47.05 7.8 -13.9 11.5 Z"/>
</g>

<g id="Objetos_personagem_iara_partes_Tween_9_0_Layer0_1_FILL">
<path fill="#FFCC99" stroke="none" d="
M 38.75 -1.65
Q 26.4 -23.4 -1.75 10.85 44.85 13.65 38.75 -1.65 Z"/>
</g>

<g id="Objetos_personagem_iara_partes_cabecamenina_0_Layer0_0_FILL">
<path fill="#FFCC99" stroke="none" d="
M 382.6 292.2
Q 379.35 292.2 377 294.7 374.7 297.25 374.7 300.85 374.7 304.45 377 306.95 379.35 309.5 382.6 309.5 385.85 309.5 388.15 306.95 390.5 304.45 390.5 300.85 390.5 297.25 388.15 294.7 385.85 292.2 382.6 292.2 Z"/>
</g>

<g id="Objetos_personagem_iara_partes_cabecamenina_0_Layer0_1_FILL">
<path fill="#FFCC99" stroke="none" d="
M 317 278.85
Q 320.15 278.85 322.4 276.45 324.65 274.1 324.65 270.7 324.65 267.3 322.4 264.9 320.15 262.55 317 262.55 313.85 262.55 311.6 264.9 309.35 267.3 309.35 270.7 309.35 274.1 311.6 276.45 313.85 278.85 317 278.85 Z"/>
</g>

<g id="Objetos_personagem_iara_partes_cabecamenina_0_Layer0_2_FILL">
<path fill="#FFFFCC" stroke="none" d="
M 73.15 9.45
Q 69.95 6.9 65.7 5.1 42.8 -3.2 25.4 14.3
L 25.55 14.55
Q 45.65 0.3 73.15 9.45
M 83.45 37.25
L 83.05 37.2
Q 58.1 4 19.8 20.8 15.45 26.45 11.55 33.85 16 26.3 33.4 25.35 50.85 24.45 64.5 44.9 76.3 62.5 76.95 59.4 77.65 58.35 77.55 59.2 82.55 48.35 83.45 37.25 Z"/>

<path fill="#FFCC33" stroke="none" d="
M 83.05 37.2
L 83.45 37.25
Q 85.05 18.7 73.15 9.45 45.65 0.3 25.55 14.55
L 25.4 14.3 25.35 14.3
Q 22.45 17.25 19.8 20.8 58.1 4 83.05 37.2 Z"/>
</g>

<g id="Objetos_personagem_iara_partes_cabecamenina_0_Layer0_2_MEMBER_0_FILL">
<path fill="#FF0000" stroke="none" d="
M 392.45 244.5
Q 390.5 238.5 387.3 238.5 384.4 238.5 382.35 241.7 380.25 244.9 380.25 249.65 380.25 255.8 382.1 261.3 383.8 266.35 387.55 272.25
L 388.2 272.85
Q 390.0603515625 270.709375 393.35 269.5 395.3 268.75 399.3 267.65 406.1 265.35 406.1 257.75 406.1 254 404.55 251.85 402.7 249.25 398.8 249.25 397.1 249.25 395.6 249.85 394.0015625 250.529296875 393.85 251.55 393.85 251.8341796875 393.85 252.1 393.85 251.8341796875 393.85 251.55 393.73359375 248.534375 392.45 244.5 Z"/>
</g>

<g id="Objetos_personagem_iara_partes_cabecamenina_0_Layer0_3_FILL">
<path fill="#FFCC99" stroke="none" d="
M 70.95 41.45
Q 62.9 32.15 49.45 27.6 36 23.1 24.15 26.25 21.65 26.85 19.6 27.8 19.2 28 18.8 28.15 18.5 28.35 18.1 28.5 11.5 32 9.6 38.3 8.2 42.8 9.65 47.45 10.95 51.95 14.85 56.5 18.55 60.85 23.35 64 29 67.65 36.1 69.7 49.2 73.45 61.45 70.45 73.75 67.4 76.35 59.1 79 50.75 70.95 41.45
M 56.25 45.25
Q 56.8 45.75 58.35 47.3 58.35 47.35 58.4 47.35 58.5 47.45 58.65 47.55 59.6 48.6 59.95 49.1 59.6 48.6 58.65 47.55 58.5 47.45 58.4 47.35 58.35 47.35 58.35 47.3 56.8 45.75 56.25 45.25
M 57.55 48.05
Q 57.7 47.9 57.95 47.75 57.7 47.9 57.55 48.05
L 57.7 48.35
Q 54.55 54.15 51.1 57.7 47.55 61.2 46 62.1 44.4 63 43.75 63.2
L 43.9 63.5
Q 44.7 62.95 45.1 62.8 46.2 62.15 44.15 64.1 41.45 66.65 39.2 66.75 37.05 66.85 35.8 65.4 34.55 63.85 33.85 62.3
L 33.1 60.85
Q 29.3 55.8 27.9 51.7 27.75 51.4 27.65 51.1 24.2 48.9 21.45 45.85 24.2 48.9 27.65 51.1 27.9 51.25 28.1 51.35 28.2 51.45 28.4 51.5 29.6 52.25 30.75 52.85 30.4 52.55 30.6 51.25 30.7 50 31.9 49.4 33.1 48.8 34.15 50.55 35.15 52.35 36 53.15 36.05 53 36.75 52.25 37.95 51 39.35 50.85 40.65 50.6 42.15 52 42.9 52.7 44.5 54.8 48.55 54.1 57.5 48.05
L 57.55 48.05
M 38.55 44.65
Q 37.8 43.8 37.2 43.25 36.1 42.05 35.45 42.1 34.85 42.05 34.5 42.3 34.1 42.55 33.8 43.8 34.1 42.55 34.5 42.3 34.85 42.05 35.45 42.1 36.1 42.05 37.2 43.25 37.8 43.8 38.55 44.65
M 45.1 62.8
Q 44.7 62.95 43.9 63.5
L 44.15 64.1
Q 46.2 62.15 45.1 62.8
M 27.65 51.1
Q 27.75 51.4 27.9 51.7
L 28.4 51.5
Q 28.2 51.45 28.1 51.35 27.9 51.25 27.65 51.1
M 34.25 61.8
Q 33.65 61.35 33.1 60.85
L 33.85 62.3 34.25 61.8 Z"/>

<path fill="#FF99CC" stroke="none" d="
M 35.8 65.4
Q 37.05 66.85 39.2 66.75 41.45 66.65 44.15 64.1
L 43.9 63.5 43.75 63.2
Q 42.45 63.65 41.25 63.8 37.75 64.25 34.25 61.8
L 33.85 62.3
Q 34.55 63.85 35.8 65.4
M 36 53.15
Q 35.15 52.35 34.15 50.55 33.1 48.8 31.9 49.4 30.7 50 30.6 51.25 30.4 52.55 30.75 52.85 30.9 52.9 31.1 53 37.35 55.7 44.2 54.8 44.35 54.8 44.5 54.8 42.9 52.7 42.15 52 40.65 50.6 39.35 50.85 37.95 51 36.75 52.25 36.05 53 36 53.15 Z"/>

<path fill="#FFFFFF" stroke="none" d="
M 57.55 48.05
L 57.5 48.05
Q 48.55 54.1 44.5 54.8 44.35 54.8 44.2 54.8 37.35 55.7 31.1 53 30.9 52.9 30.75 52.85 29.6 52.25 28.4 51.5
L 27.9 51.7
Q 29.3 55.8 33.1 60.85 33.65 61.35 34.25 61.8 37.75 64.25 41.25 63.8 42.45 63.65 43.75 63.2 44.4 63 46 62.1 47.55 61.2 51.1 57.7 54.55 54.15 57.7 48.35
L 57.55 48.05 Z"/>
</g>

<g id="Objetos_personagem_iara_partes_cabecamenina_0_Layer0_3_MEMBER_0_MEMBER_0_FILL">
<path fill="#000000" stroke="none" d="
M 31.85 33.2
Q 31.15 34.1 30.8 35.35 30.5 36.6 30.7 37.5 30.95 38.6 31.65 38.75 32.3 38.9 32.95 38.1 33.7 37.4 34.05 36.15 34.35 34.9 34.1 33.85 33.85 32.8 33.2 32.65 32.55 32.45 31.85 33.2 Z"/>
</g>

<g id="Objetos_personagem_iara_partes_cabecamenina_0_Layer0_3_MEMBER_0_MEMBER_1_FILL">
<path fill="#FFFFFF" stroke="none" d="
M 33.15 33.6
Q 33 33.05 32.65 33 32.3 32.9 31.95 33.3 31.6 33.75 31.4 34.35 31.25 35.05 31.35 35.55 31.5 36.1 31.85 36.2 32.15 36.25 32.55 35.85 32.9 35.5 33.1 34.8 33.25 34.2 33.15 33.6 Z"/>
</g>

<g id="Objetos_personagem_iara_partes_cabecamenina_0_Layer0_3_MEMBER_1_MEMBER_0_FILL">
<path fill="#000000" stroke="none" d="
M 43.15 35.8
Q 42.45 36.7 42.1 37.95 41.8 39.2 42 40.1 42.25 41.2 42.95 41.35 43.6 41.5 44.25 40.7 45 40 45.35 38.75 45.65 37.5 45.4 36.45 45.15 35.4 44.5 35.25 43.85 35.05 43.15 35.8 Z"/>
</g>

<g id="Objetos_personagem_iara_partes_cabecamenina_0_Layer0_3_MEMBER_1_MEMBER_1_FILL">
<path fill="#FFFFFF" stroke="none" d="
M 44.45 36.15
Q 44.3 35.6 43.95 35.55 43.6 35.45 43.25 35.85 42.9 36.3 42.7 36.9 42.55 37.6 42.65 38.1 42.8 38.65 43.15 38.75 43.45 38.8 43.85 38.4 44.2 38.05 44.4 37.35 44.55 36.75 44.45 36.15 Z"/>
</g>

<path id="Objetos_personagem_iara_partes_bracomenina_0_Layer0_0_1_STROKES" stroke="#000000" stroke-width="1" stroke-linejoin="round" stroke-linecap="round" fill="none" d="
M 35.1 19.9
Q 33.5 16.6 32.85 13.3 31.2 5.3 35.45 1.8 39.6 -1.65 47.2 1.45 48.5 2 49.9 2.7 52.7 1.4 56 1.4 62.3 1.3 66.7 5.9 71.2 10.6 71.3 17.1 71.3 22.2 68.8 26.1 69.05 27.1 69.3 28.2 70.9 36.15 66.75 39.65 62.5 43.1 54.95 40.05 50.3 38.15 46.1 34.4
L 2.75 44.35
M 0 36.75
L 35.1 19.9
Q 37.15 24.55 40.95 29.1 43.45 32.05 46.1 34.4
M 68.8 26.1
Q 68 27.3 66.95 28.4 66 29.4 65.05 30.25 49.7 24.15 45.5 6 47.5 3.9 49.9 2.7"/>

<path id="Objetos_personagem_iara_partes_iarabracoesquerda_0_Layer0_0_1_STROKES" stroke="#000000" stroke-width="1" stroke-linejoin="round" stroke-linecap="round" fill="none" d="
M 87.85 74.75
L 87.8 74.75 41.65 59.05
Q 36.05 63.65 30.55 66.15 28.25 67.25 26.3 67.75 21.4 69.05 19.1 66.75 18.6 66.25 18.3 65.6 16.45 62.25 19.55 55.3 21.5 50.95 24.75 46.6 22.15 45.55 17.4 44.3 14.45 43.55 10.55 43.1 6.6 42.65 5.75 42.4 2.05 41.45 0.7 38.55 -0.5 36 0.4 32.55 1.7 27.6 4.15 24.7 7 21.35 10.3 22.2 10.6 22.3 11.75 23.1 11.95 23.25 12.15 23.35 18.75 18.05 20.1 15.6 21.4 13.3 21.9 11.4
L 23.4 3.7
Q 24 1.5 25.9 0.55 27.7 -0.35 29.75 0.2 35.75 1.75 38.8 5.1 41.25 7.8 42.75 12.9 43.65 16 45.35 23.4 45.8 25.25 46.4 27 46.45 27.1 46.5 27.3
L 46.55 27.25
Q 47.45 26.8 48.35 26.35 56.55 22.55 59.8 25.75 63 29 59.35 37.2 57.45 41.4 54.3 45.7
L 92.1 67.15
M 50.4 36.3
Q 48.1 32.15 46.5 27.3
M 24.75 46.6
Q 26.45 47.15 27.2 47.7 29.55 49.15 30.2 52.6
M 29.8 14.5
Q 27.65 24.3 22.8 25.65 17.85 27.05 15.4 25.5 13.05 23.95 12.15 23.35
M 54.3 45.7
Q 51.3 49.8 47.15 53.95 44.4 56.75 41.65 59.05
M 32.8 54.15
Q 42.25 52.6 47.3 42.9"/>

<path id="Objetos_personagem_iara_partes_corpomenina_0_Layer0_0_1_STROKES" stroke="#000000" stroke-width="1" stroke-linejoin="round" stroke-linecap="round" fill="none" d="
M 37.35 4.1
Q 38.05 5.7 38.8 7.35 39.4 8.7 39.95 10.1
L 52.55 50.5 52.55 50.55
Q 52.55 50.65 52.45 50.7 51.1 52.9 47.1 60.25 45.1 63.95 43.6 65.15 41.8 66.5 38 66.8 35.75 67 26.5 67 16.25 67 10.5 63.8 4.4 60.45 0 51.7
M 0.35 51.45
Q 2 53.35 13.6 32 25.15 10.65 26.75 7.25 28.3 5.05 29.95 2.85
M 38.8 7.35
Q 38.9 8.9 38.9 10.55 38.9 17.2 36.6 21.65 34.25 26.05 30.7 25.55 27.15 25.05 26.4 20.1 25.65 15.15 26.1 12 26.55 8.75 26.75 7.25
M 52.45 50.7
Q 52.45 50.65 52.5 50.65 52.5 50.5701171875 52.525 50.55
L 52.55 50.5
M 52.525 50.55
L 52.55 50.55"/>

<path id="Objetos_personagem_iara_partes_Tween_9_0_Layer0_0_1_STROKES" stroke="#000000" stroke-width="1" stroke-linejoin="round" stroke-linecap="round" fill="none" d="
M 7.8 8.7
Q -25.15 -20.45 -37.2 -7.85 -47.05 7.8 -13.9 11.5 2.1 12.5 7.8 8.7 Z"/>

<path id="Objetos_personagem_iara_partes_Tween_9_0_Layer0_1_1_STROKES" stroke="#000000" stroke-width="1" stroke-linejoin="round" stroke-linecap="round" fill="none" d="
M 38.75 -1.65
Q 26.4 -23.4 -1.75 10.85 44.85 13.65 38.75 -1.65 Z"/>

<path id="Objetos_personagem_iara_partes_cabecamenina_0_Layer0_0_1_STROKES" stroke="#000000" stroke-width="1" stroke-linejoin="round" stroke-linecap="round" fill="none" d="
M 75.06232604980471 54.111239624023455
Q 78.2827201843262 53.68416137695314 80.89029006958003 55.85914764404296 83.55397491455079 58.07710800170898 84.02704620361328 61.64431381225589 84.50011749267577 65.21151962280274 82.5000465393066 67.99755630493163 80.55609054565434 70.82656707763672 77.33569641113286 71.25364532470704 74.11530227661137 71.68072357177735 71.45161743164061 69.46276321411133 68.84404754638672 67.28777694702148 68.37097625732423 63.72057113647463 67.89790496826174 60.15336532592772 69.84186096191405 57.32435455322266 71.84193191528323 54.53831787109377 75.06232604980471 54.111239624023455 Z"/>

<path id="Objetos_personagem_iara_partes_cabecamenina_0_Layer0_1_1_STROKES" stroke="#000000" stroke-width="1" stroke-linejoin="round" stroke-linecap="round" fill="none" d="
M 8.705603027343727 49.25326156616214
Q 5.584297943115246 49.66719894409184 3.0394134521484375 47.584731292724626 0.5010993957519645 45.551808166503946 0.054309844970703125 42.182780456542986 -0.3924797058105014 38.813752746582026 1.521643066406284 36.13994598388669 3.442336273193405 33.515683746337885 6.563641357421886 33.101746368408186 9.684946441650368 32.68780899047849 12.223260498046841 34.72073211669917 14.76814498901365 36.80319976806638 15.214934539794854 40.17222747802734 15.661724090576115 43.5412551879883 13.741030883788994 46.165517425537104 11.826908111572209 48.83932418823244 8.705603027343727 49.25326156616214 Z"/>

<path id="Objetos_personagem_iara_partes_cabecamenina_0_Layer0_2_1_STROKES" stroke="#000000" stroke-width="1" stroke-linejoin="round" stroke-linecap="round" fill="none" d="
M 83.45 37.25
Q 85.05 18.7 73.15 9.45 45.65 0.3 25.55 14.55
M 25.4 14.3
L 25.35 14.3
Q 22.45 17.25 19.8 20.8 58.1 4 83.05 37.2
M 25.4 14.3
Q 42.8 -3.2 65.7 5.1 69.95 6.9 73.15 9.45
M 76.95 59.4
Q 76.3 62.5 64.5 44.9 50.85 24.45 33.4 25.35 16 26.3 11.55 33.85
L 11.4 34.15
Q 11.35 34.25 11.3 34.35 10.95 35.1 10.55 35.95
M 19.8 20.8
Q 15.45 26.45 11.55 33.85
M 83.45 37.25
Q 82.55 48.35 77.55 59.2"/>

<path id="Objetos_personagem_iara_partes_cabecamenina_0_Layer0_2_MEMBER_0_1_STROKES" stroke="#000000" stroke-width="1" stroke-linejoin="round" stroke-linecap="round" fill="none" d="
M 77.74563064575193 33.442501068115234
Q 73.25447998046872 28.08902969360355 70.90635223388676 23.308427429199213 68.35045700073243 18.10163574218751 67.54229354858398 12.00765914916991 66.9181022644043 7.300929260253895 68.57846450805664 3.8541213989257415 70.18928222656245 0.4138839721679517 73.06286468505857 0.03279876708984375 76.23371429443358 -0.38770904541016193 78.95440292358398 5.30138702392577 80.75645571947098 9.130335521698015 81.26808090209965 12.103192901611322 81.28413348197932 11.071871238946898 82.77874450683595 10.188713836669905 84.18623504638674 9.39706649780274 85.87074890136716 9.17367172241211 89.73522186279297 8.661177825927723 91.9100318908691 10.994387054443365 93.72844085693362 12.921118164062506 94.22122344970705 16.636957550048834 95.21992950439454 24.167725372314493 88.78411407470702 27.3403526306152 84.96510162353513 28.95596694946289 83.13142166137698 29.95538177490235 80.03066265285014 31.586028373241447 78.49332695007325 33.94833450317387
M 81.26808090209965 12.103192901611322
Q 81.30542458295827 12.384783855080599 81.34035568237306 12.64818267822264"/>

<path id="Objetos_personagem_iara_partes_cabecamenina_0_Layer0_3_1_STROKES" stroke="#000000" stroke-width="1" stroke-linejoin="round" stroke-linecap="round" fill="none" d="
M 70.95 41.45
Q 79 50.75 76.35 59.1 73.75 67.4 61.45 70.45 49.2 73.45 36.1 69.7 29 67.65 23.35 64 18.55 60.85 14.85 56.5 10.95 51.95 9.65 47.45 8.2 42.8 9.6 38.3 11.5 32 18.1 28.5 18.5 28.35 18.8 28.15 19.2 28 19.6 27.8 21.65 26.85 24.15 26.25 36 23.1 49.45 27.6 62.9 32.15 70.95 41.45 Z
M 56.25 45.25
Q 56.8 45.75 58.35 47.3 58.35 47.35 58.4 47.35 58.5 47.45 58.65 47.55 59.6 48.6 59.95 49.1
M 57.55 48.05
Q 57.7 47.9 57.95 47.75
M 44.5 54.8
Q 48.55 54.1 57.5 48.05
L 57.55 48.05
M 57.7 48.35
Q 54.55 54.15 51.1 57.7 47.55 61.2 46 62.1 44.4 63 43.75 63.2
M 43.9 63.5
Q 44.7 62.95 45.1 62.8 46.2 62.15 44.15 64.1 41.45 66.65 39.2 66.75 37.05 66.85 35.8 65.4 34.55 63.85 33.85 62.3
L 33.1 60.85
Q 29.3 55.8 27.9 51.7 27.75 51.4 27.65 51.1 24.2 48.9 21.45 45.85
M 38.55 44.65
Q 37.8 43.8 37.2 43.25 36.1 42.05 35.45 42.1 34.85 42.05 34.5 42.3 34.1 42.55 33.8 43.8
M 44.5 54.8
Q 42.9 52.7 42.15 52 40.65 50.6 39.35 50.85 37.95 51 36.75 52.25 36.05 53 36 53.15 35.15 52.35 34.15 50.55 33.1 48.8 31.9 49.4 30.7 50 30.6 51.25 30.4 52.55 30.75 52.85 30.9 52.9 31.1 53 37.35 55.7 44.2 54.8 44.35 54.8 44.5 54.8 Z
M 34.25 61.8
Q 33.65 61.35 33.1 60.85
M 28.4 51.5
Q 28.2 51.45 28.1 51.35 27.9 51.25 27.65 51.1
M 28.4 51.5
Q 29.6 52.25 30.75 52.85
M 43.75 63.2
Q 42.45 63.65 41.25 63.8 37.75 64.25 34.25 61.8"/>

<path id="Objetos_personagem_iara_partes_cabecamenina_0_Layer0_3_MEMBER_2_1_STROKES" stroke="#000000" stroke-width="1" stroke-linejoin="round" stroke-linecap="round" fill="none" d="
M 47.172517395019554 35.024495697021536
L 44.8496063232422 31.954689025878906"/>

<path id="Objetos_personagem_iara_partes_cabecamenina_0_Layer0_3_MEMBER_3_1_STROKES" stroke="#000000" stroke-width="1" stroke-linejoin="round" stroke-linecap="round" fill="none" d="
M 31.196626281738304 31.647836303710903
L 34.66829452514651 30.834523773193354"/>

<path id="Objetos_personagem_iara_partes_cabecamenina_0_Layer0_3_MEMBER_4_1_STROKES" stroke="#000000" stroke-width="1" stroke-linejoin="round" stroke-linecap="round" fill="none" d="
M 66.45 69.15
Q 67.8 84.25 76.35 84.4
M 61.65 71.3
Q 59.25 81.8 68.25 85.9
M 56.7 72.15
Q 53.95 81.5 60.05 85.95"/>

<path id="Objetos_personagem_iara_partes_cabecamenina_0_Layer0_3_MEMBER_5_1_STROKES" stroke="#000000" stroke-width="1" stroke-linejoin="round" stroke-linecap="round" fill="none" d="
M 23 64.1
Q 22.85 74.85 13.1 76.75
M 18.9 60.85
Q 13.95 75.25 5.6 73.35
M 27.65 66.1
Q 28.05 75.85 21.1 78.75"/>
</defs>

<g transform="matrix( 1, 0, 0, 1, 0,0) ">
<g transform="matrix( 1, 0, 0, 1, 0,0) ">
<use xlink:href="#fundo_0_Layer0_0_MEMBER_0_FILL"/>
</g>

<g transform="matrix( 1, 0, 0, 1, 0,0) ">
<use xlink:href="#fundo_0_Layer0_0_MEMBER_1_FILL"/>
</g>

<g transform="matrix( 1.00372314453125, 0, 0, 1.0301513671875, 559.1,376.9) ">
<g transform="matrix( 1, 0, 0, 1, 0,0) ">
<use xlink:href="#Objetos_nuvem_nuvem_1_0_Layer0_0_FILL"/>
</g>
</g>

<g transform="matrix( 1.00372314453125, 0, 0, 1.0301513671875, 206.8,307.05) ">
<g transform="matrix( 1, 0, 0, 1, 0,0) ">
<use xlink:href="#Objetos_nuvem_nuvem_2_0_Layer0_0_FILL"/>
</g>
</g>

<g transform="matrix( 1, 0, 0, 1, 0,0) ">
<use xlink:href="#fundo_0_Layer0_0_MEMBER_4_FILL"/>
</g>

<g transform="matrix( 1, 0, 0, 1, 0,0) ">
<use xlink:href="#fundo_0_Layer0_0_MEMBER_5_FILL"/>
</g>
</g>

<g transform="matrix( 1, 0, 0, 1, 1082,13) ">
<use xlink:href="#bitmaps_botao_sair_png"/>
</g>

<g transform="matrix( 1, 0, 0, 1, -1046,38) ">
<use xlink:href="#bitmaps_titulo_jogo_da_memoria_png"/>
</g>

<g transform="matrix( 1, 0, 0, 1, 1124,137) ">
<use xlink:href="#bitmaps_botao_escolher_outro_jogo_png"/>
</g>

<g id="menina" transform="matrix( 1.764739990234375, 0, 0, 1.764739990234375, 954.8,828.4) ">
<g transform="matrix( 0.8242645263671875, 0.563507080078125, -0.563507080078125, 0.8242645263671875, 132.9,50.45) ">
<g transform="matrix( 1, 0, 0, 1, 0,0) ">
<use xlink:href="#Objetos_personagem_iara_partes_bracomenina_0_Layer0_0_FILL"/>

<use xlink:href="#Objetos_personagem_iara_partes_bracomenina_0_Layer0_0_1_STROKES"/>
</g>
</g>

<g transform="matrix( 0.936981201171875, -0.3463134765625, 0.3463134765625, 0.936981201171875, -14.1,47.3) ">
<g transform="matrix( 1, 0, 0, 1, 0,0) ">
<use xlink:href="#Objetos_personagem_iara_partes_iarabracoesquerda_0_Layer0_0_FILL"/>

<use xlink:href="#Objetos_personagem_iara_partes_iarabracoesquerda_0_Layer0_0_1_STROKES"/>
</g>
</g>

<g transform="matrix( 1, 0, 0, 1, 68.25,66.85) ">
<g transform="matrix( 1, 0, 0, 1, 0,0) ">
<use xlink:href="#Objetos_personagem_iara_partes_corpomenina_0_Layer0_0_FILL"/>

<use xlink:href="#Objetos_personagem_iara_partes_corpomenina_0_Layer0_0_1_STROKES"/>
</g>
</g>

<g transform="matrix( 1, 0, 0, 1, 96.65,127) ">
<g transform="matrix( 1, 0, 0, 1, 0,0) ">
<use xlink:href="#Objetos_personagem_iara_partes_Tween_9_0_Layer0_0_FILL"/>

<use xlink:href="#Objetos_personagem_iara_partes_Tween_9_0_Layer0_0_1_STROKES"/>
</g>

<g transform="matrix( 1, 0, 0, 1, 0,0) ">
<use xlink:href="#Objetos_personagem_iara_partes_Tween_9_0_Layer0_1_FILL"/>

<use xlink:href="#Objetos_personagem_iara_partes_Tween_9_0_Layer0_1_1_STROKES"/>
</g>
</g>

<g transform="matrix( 1, 0, 0, 1, 58.4,0) ">
<g transform="matrix( 0.9908905029296875, -0.13140869140625, 0.13140869140625, 0.9908905029296875, -342.45,-185.15) ">
<use xlink:href="#Objetos_personagem_iara_partes_cabecamenina_0_Layer0_0_FILL"/>

<use xlink:href="#Objetos_personagem_iara_partes_cabecamenina_0_Layer0_0_1_STROKES" transform="matrix( 0.9917449951171875, 0.1315155029296875, -0.1315155029296875, 0.9917449951171875, 315.25,228.65) "/>
</g>

<g transform="matrix( 0.9908905029296875, -0.13140869140625, 0.13140869140625, 0.9908905029296875, -342.05,-185.4) ">
<use xlink:href="#Objetos_personagem_iara_partes_cabecamenina_0_Layer0_1_FILL"/>

<use xlink:href="#Objetos_personagem_iara_partes_cabecamenina_0_Layer0_1_1_STROKES" transform="matrix( 0.9917449951171875, 0.1315155029296875, -0.1315155029296875, 0.9917449951171875, 314.8,228.85) "/>
</g>

<g transform="matrix( 1, 0, 0, 1, 0,0) ">
<use xlink:href="#Objetos_personagem_iara_partes_cabecamenina_0_Layer0_2_FILL"/>

<use xlink:href="#Objetos_personagem_iara_partes_cabecamenina_0_Layer0_2_1_STROKES"/>
</g>

<g transform="matrix( 0.9908905029296875, -0.13140869140625, 0.13140869140625, 0.9908905029296875, -342.05,-185.4) ">
<use xlink:href="#Objetos_personagem_iara_partes_cabecamenina_0_Layer0_2_MEMBER_0_FILL"/>

<use xlink:href="#Objetos_personagem_iara_partes_cabecamenina_0_Layer0_2_MEMBER_0_1_STROKES" transform="matrix( 0.9917449951171875, 0.1315155029296875, -0.1315155029296875, 0.9917449951171875, 314.8,228.85) "/>
</g>

<g transform="matrix( 1, 0, 0, 1, 0,0) ">
<use xlink:href="#Objetos_personagem_iara_partes_cabecamenina_0_Layer0_3_FILL"/>

<use xlink:href="#Objetos_personagem_iara_partes_cabecamenina_0_Layer0_3_1_STROKES"/>
</g>

<g transform="matrix( 1, 0, 0, 1, 0,0) ">
<use xlink:href="#Objetos_personagem_iara_partes_cabecamenina_0_Layer0_3_MEMBER_0_MEMBER_0_FILL"/>
</g>

<g transform="matrix( 1, 0, 0, 1, 0,0) ">
<use xlink:href="#Objetos_personagem_iara_partes_cabecamenina_0_Layer0_3_MEMBER_0_MEMBER_1_FILL"/>
</g>

<g transform="matrix( 1, 0, 0, 1, 0,0) ">
<use xlink:href="#Objetos_personagem_iara_partes_cabecamenina_0_Layer0_3_MEMBER_1_MEMBER_0_FILL"/>
</g>

<g transform="matrix( 1, 0, 0, 1, 0,0) ">
<use xlink:href="#Objetos_personagem_iara_partes_cabecamenina_0_Layer0_3_MEMBER_1_MEMBER_1_FILL"/>
</g>

<g transform="matrix( 0.9908905029296875, -0.13140869140625, 0.13140869140625, 0.9908905029296875, -340.75,-182.6) ">
<use xlink:href="#Objetos_personagem_iara_partes_cabecamenina_0_Layer0_3_MEMBER_2_1_STROKES" transform="matrix( 0.9917449951171875, 0.1315155029296875, -0.1315155029296875, 0.9917449951171875, 313.9,225.9) "/>
</g>

<g transform="matrix( 0.9908905029296875, -0.13140869140625, 0.13140869140625, 0.9908905029296875, -340.75,-182.6) ">
<use xlink:href="#Objetos_personagem_iara_partes_cabecamenina_0_Layer0_3_MEMBER_3_1_STROKES" transform="matrix( 0.9917449951171875, 0.1315155029296875, -0.1315155029296875, 0.9917449951171875, 313.9,225.9) "/>
</g>

<g transform="matrix( 1, 0, 0, 1, 0,0) ">
<use xlink:href="#Objetos_personagem_iara_partes_cabecamenina_0_Layer0_3_MEMBER_4_1_STROKES"/>
</g>

<g transform="matrix( 1, 0, 0, 1, 0,0) ">
<use xlink:href="#Objetos_personagem_iara_partes_cabecamenina_0_Layer0_3_MEMBER_5_1_STROKES"/>
</g>
</g>
</g>
</svg>
