
<svg xmlns="http://www.w3.org/2000/svg" version="1.1" xmlns:xlink="http://www.w3.org/1999/xlink" preserveAspectRatio="none" x="0px" y="0px" width="550px" height="400px" viewBox="0 0 550 400">
<defs>
<linearGradient id="Gradient_1" gradientUnits="userSpaceOnUse" x1="384.45" y1="230.2125" x2="369.65000000000003" y2="128.98749999999998" spreadMethod="pad">
<stop  offset="0%" stop-color="#D6F589"/>

<stop  offset="100%" stop-color="#FDC2B5"/>
</linearGradient>

<linearGradient id="Gradient_2" gradientUnits="userSpaceOnUse" x1="556.375" y1="228.275" x2="556.425" y2="109.82500000000002" spreadMethod="pad">
<stop  offset="0%" stop-color="#D6F589"/>

<stop  offset="100%" stop-color="#FDC2B5"/>
</linearGradient>

<g id="Layer0_0_FILL">
<path fill="#99CCFF" stroke="none" d="
M -73.4 384.95
L -20.5 372.6 -41.75 1.15
Q -56.7 -5.5 -73.4 -12.95
L -73.4 384.95
M 33.35 34.2
L 32.55 35.85 11.15 365.15 86.75 347.45 86.6 346.95 76.35 52.35
Q 64.15 47.55 33.35 34.2
M 183.15 90.9
L 183.15 90.1
Q 158.55 82.35 134.35 73.9
L 133.7 75.75 138.45 334.2 138.7 335.3 183.05 324.9 184.2 324.65
Q 187.65 219.55 183.15 90.9
M 270.2 56.7
L 267.85 56.8
Q 244.75 67.1 221 76.55 220.9 76.6 220.75 76.65
L 243.75 334.75 243.8 334.75 267.4 338.4 282.8 340.75 270.2 56.7
M 485.5 -38.4
L 485.45 -38.35 487.05 372.2 499.05 374.05 540.95 380.5 542.95 380.3
Q 540.65 354.35 538.1 329.05 530.8 257.1 521.4 190.6 513 131.3 502.9 76.4
L 502.9 76.35 502.95 76.4 568.25 48.5 575.35 -84.45 575.1 -84.9 485.5 -38.4
M 397.85 -2.3
L 397.75 -2.55
Q 342.4 20.3 333.1 25.2
L 333.1 26 333.1 26.05 337.9 141.95 338.05 142.45 399.6 122.9 399.3 122 397.85 -2.3 Z"/>

<path fill="#6699FF" stroke="none" d="
M 282.8 340.75
L 267.4 338.4 93 413.95 196.75 413.95 347.15 350.7 282.8 340.75
M 138.7 335.3
L 86.75 347.45 11.15 365.15 -20.5 372.6 -73.4 384.95 -73.4 413.95 -0.9 413.95 225.8 331.95 184.05 325.55 183.15 325.4 183.05 324.9 138.7 335.3
M 183.15 90.1
L 183.15 90.9
Q 183.3 90.85 183.4 90.8 202.3 84 220.75 76.65
L 220.7 75.8 -46.9 -85.9 -73.4 -85.9 -73.4 -12.95
Q -56.7 -5.5 -41.75 1.15 4.1 21.5 33.3 34.15
L 33.35 34.2
Q 64.15 47.55 76.35 52.35 105.05 63.65 134.35 73.9 158.55 82.35 183.15 90.1
M 543 380.85
L 540.95 380.5 495.05 413.95 567.05 413.95 591.6 388.3 556.35 382.9 543 380.85
M 489.55 378.55
L 487.05 373.3 487.05 372.2 436.8 364.5 313.95 413.95 415.05 413.95 489.55 378.55
M 397.8 -2.6
L 397.85 -2.6
Q 432.55 -16.95 485.4 -38.35
L 484.95 -39.45 492.1 -85.9 381.25 -85.9 397.8 -2.6
M 261.95 -85.9
L 124.65 -85.9 267.45 55.9 270.15 55.75
Q 302.05 41.4 332.7 25.4
L 261.95 -85.9 Z"/>

<path fill="#0099CC" stroke="none" d="
M 267.4 338.4
L 243.8 334.75 243.75 334.75 225.8 331.95 -0.9 413.95 93 413.95 267.4 338.4
M 267.85 56.8
L 267.45 55.9 124.65 -85.9 -46.9 -85.9 220.7 75.8 221 76.55
Q 244.75 67.1 267.85 56.8
M 635.5 394.8
L 633.8 394.8 633.2 394.7 591.6 388.3 567.05 413.95 635.5 413.95 635.5 394.8
M 499.05 374.05
L 489.55 378.55 415.05 413.95 495.05 413.95 540.95 380.5 499.05 374.05
M 436.8 364.5
L 347.15 350.7 196.75 413.95 313.95 413.95 436.8 364.5
M 484.95 -39.45
L 485.5 -38.4 575.1 -84.9 575.1 -85.9 492.1 -85.9 484.95 -39.45
M 397.75 -2.55
L 397.8 -2.6 381.25 -85.9 261.95 -85.9 332.7 25.4
Q 332.9 25.3 333.1 25.2 342.4 20.3 397.75 -2.55 Z"/>

<path fill="#CCCCFF" stroke="none" d="
M 32.55 35.85
L 33.3 34.15
Q 4.1 21.5 -41.75 1.15
L -20.5 372.6 11.15 365.15 32.55 35.85
M 133.7 75.75
L 134.35 73.9
Q 105.05 63.65 76.35 52.35
L 86.6 346.95 86.75 347.45 138.7 335.3 138.45 334.2 133.7 75.75
M 183.4 90.8
Q 183.3 90.85 183.15 90.9 187.65 219.55 184.2 324.65 184.1 325.1 184.05 325.55
L 225.8 331.95 243.75 334.75 220.75 76.65
Q 202.3 84 183.4 90.8
M 577 -85.9
L 575.35 -84.45 568.25 48.5 634 20.4 635.5 20.4 635.5 -85.9 577 -85.9
M 397.85 -2.6
L 397.85 -2.3 399.3 122 399.6 122.9 440 110.05 440.8 110.1 440.25 119.8 430.4 295.95 349.85 289.9 336.9 288.9 336.5 288.55 321.95 147.55 331.3 144.6 333.1 26.05 333.1 26 332.7 25.4
Q 302.05 41.4 270.15 55.75
L 270.2 56.7 282.8 340.75 347.15 350.7 436.8 364.5 487.05 372.2 485.45 -38.35 485.4 -38.35
Q 432.55 -16.95 397.85 -2.6 Z"/>

<path fill="#FFCC00" stroke="none" d="
M 270.15 55.75
Q 269 56.25 267.85 56.8
L 270.2 56.7 270.15 55.75 Z"/>

<path fill="#0099FF" stroke="none" d="
M 489.55 378.55
L 499.05 374.05 487.05 372.2 487.05 373.3 489.55 378.55 Z"/>

<path fill="url(#Gradient_1)" stroke="none" d="
M 338.15 152.7
L 337.9 152.95 349.85 289.9 430.4 295.95 440.25 119.8 338.65 153.1 338.15 152.7 Z"/>

<path fill="#006699" stroke="none" d="
M 338.05 142.45
L 337.9 141.95 333.1 26.05 331.3 144.6 321.95 147.55 336.5 288.55 336.9 288.9 349.85 289.9 337.9 152.95 337.75 152.35 338.15 152.7 338.65 153.1 440.25 119.8 440.8 110.1 440 110.05 399.6 122.9 338.05 142.45
M 635.5 20.4
L 634 20.4 568.25 48.5 502.95 76.4 503.2 76.55
Q 503.3 77.3 502.9 76.4 513 131.3 521.4 190.6 530.8 257.1 538.1 329.05 540.65 354.35 542.95 380.3 543 380.55 543 380.85
L 556.35 382.9
Q 548.6 295.3 538.1 218.4 536.2 204.3 534.2 190.6 525.95 134.45 516.15 84.35
L 516.35 84.05 516.6 84.2 634.6 36.95 635.5 36.55 635.5 20.4 Z"/>

<path fill="url(#Gradient_2)" stroke="none" d="
M 516.6 84.2
L 516.15 84.35
Q 525.95 134.45 534.2 190.6 536.2 204.3 538.1 218.4 548.6 295.3 556.35 382.9
L 591.6 388.3 633.2 394.7 633.25 394.15 634.6 36.95 516.6 84.2 Z"/>

<path fill="#CC9900" stroke="none" d="
M 484.95 -39.45
L 485.4 -38.35 485.45 -38.35 485.5 -38.4 484.95 -39.45
M 397.75 -2.55
L 397.8 -2.55 397.8 -2.6 397.75 -2.55 Z"/>

<path fill="#FFFFFF" stroke="none" d="
M 968.5 34.8
Q 953.55 28.15 936.85 20.7
L 936.85 418.6 989.75 406.25 968.5 34.8
M 1293.05 374.4
L 1277.65 372.05 1103.25 447.6 1207 447.6 1357.4 384.35 1293.05 374.4 1293.1 375.8 1293.05 374.4
M 1254 368.4
L 1236.05 365.6 1009.35 447.6 1103.25 447.6 1277.65 372.05 1254.05 368.4 1254 368.4
M 1194.3 359.2
Q 1194.25 359.5 1194.2 359.85 1194.25 359.5 1194.3 359.2
L 1193.4 359.05 1193.3 358.55 1021.4 398.8 1021.3 400.3 1021.4 398.8 989.75 406.25 989.8 407.5 989.75 406.25 936.85 418.6 936.85 447.6 1009.35 447.6 1236.05 365.6 1194.3 359.2
M 1042.8 69.5
L 1043.55 67.8
Q 1014.35 55.15 968.5 34.8
L 989.75 406.25 1021.4 398.8 1042.8 69.5
M 1193.65 124.45
Q 1193.55 124.5 1193.4 124.55 1194.2 147.45 1194.75 169.6 1197.3 271.9 1194.45 358.3 1194.35 358.75 1194.3 359.2
L 1236.05 365.6 1254 368.4 1231 110.3
Q 1212.55 117.65 1193.65 124.45
M 1280.4 89.4
Q 1279.25 89.9 1278.1 90.45 1255 100.75 1231.25 110.2 1231.15 110.25 1231 110.3
L 1254 368.4 1254.05 368.4 1277.65 372.05 1293.05 374.4 1280.4 89.4
M 1134.9 -52.25
L 963.35 -52.25 1230.95 109.45 1230.85 108.6 1230.95 109.45 1231.25 110.2
Q 1255 100.75 1278.1 90.45
L 1277.7 89.55 1134.9 -52.25
M 1272.2 -52.25
L 1134.9 -52.25 1277.7 89.55 1280.4 89.4 1280.35 88.65 1280.4 89.4
Q 1282.4 88.5 1284.35 87.65 1314.2 74.05 1342.95 59.05
L 1272.2 -52.25
M 963.35 -52.25
L 936.85 -52.25 936.85 20.7
Q 953.55 28.15 968.5 34.8 1014.35 55.15 1043.55 67.8
L 1043.6 67.85
Q 1074.4 81.2 1086.6 86
L 1086.5 83.85 1086.6 86
Q 1115.3 97.3 1144.6 107.55 1168.8 116 1193.4 123.75 1168.8 116 1144.6 107.55 1115.3 97.3 1086.6 86
L 1096.85 380.6 1086.6 86
Q 1074.4 81.2 1043.6 67.85
L 1042.8 69.5 1021.4 398.8 1193.3 358.55 1194.45 358.3
Q 1197.3 271.9 1194.75 169.6 1194.2 147.45 1193.4 124.55 1193.55 124.5 1193.65 124.45 1212.55 117.65 1231 110.3
L 1230.95 109.45 963.35 -52.25
M 1143.95 109.4
L 1148.7 367.85 1143.95 109.4
M 1324.2 447.6
L 1447.05 398.15 1357.4 384.35 1207 447.6 1324.2 447.6
M 1505.3 447.6
L 1551.2 414.15 1509.3 407.7 1425.3 447.6 1505.3 447.6
M 1497.3 406.95
L 1497.3 405.85 1447.05 398.15 1324.2 447.6 1425.3 447.6 1509.3 407.7 1497.3 405.85 1497.3 406.95
M 1553.25 414.5
L 1551.2 414.15 1505.3 447.6 1577.3 447.6 1601.85 421.95 1566.6 416.55 1553.25 414.5
M 1348.9 186.75
L 1348.2 186.85 1360.1 323.55 1440.65 329.6 1450.5 153.45 1348.9 186.75
M 1408.05 31.1
L 1408.05 31.05 1391.5 -52.25 1272.2 -52.25 1342.95 59.05
Q 1343.15 58.95 1343.35 58.85 1352.65 53.95 1408 31.1
L 1408.05 31.1
M 1526.4 118
L 1526.6 117.7 1513.45 110.2
Q 1513.55 110.95 1513.15 110.05 1518.5 139.2 1523.4 169.6 1527.7 196.45 1531.65 224.25 1541.05 290.75 1548.35 362.7 1550.9 388 1553.2 413.95 1553.25 414.2 1553.25 414.5
L 1566.6 416.55
Q 1558.85 328.95 1548.35 252.05 1546.45 237.95 1544.45 224.25 1540.3 196.15 1535.8 169.6 1531.3 143.05 1526.4 118
M 1526.85 117.85
L 1526.4 118
Q 1531.3 143.05 1535.8 169.6 1540.3 196.15 1544.45 224.25 1546.45 237.95 1548.35 252.05 1558.85 328.95 1566.6 416.55
L 1601.85 421.95 1644.05 428.45 1601.85 421.95 1577.3 447.6 1645.75 447.6 1645.75 70.2 1526.85 117.85
M 1587.25 -52.25
L 1585.6 -50.8 1578.5 82.15 1644.25 54.05 1578.5 82.15 1578.4 82.2 1513.2 110.05 1513.45 110.2 1526.6 117.7 1526.85 117.85 1645.75 70.2 1645.75 -52.25 1587.25 -52.25
M 1495.7 -4.7
L 1495.65 -4.7
Q 1442.8 16.7 1408.1 31.05
L 1408.1 31.35 1408.65 34.05 1408.1 31.35 1409.55 155.65 1408.1 31.35 1408 31.1
Q 1352.65 53.95 1343.35 58.85
L 1343.35 59.65 1343.35 59.7 1348.15 175.6 1343.35 59.7 1341.55 178.25 1450.25 143.7 1341.55 178.25 1332.2 181.2 1332.4 183 1348.15 186.6 1348 186 1348.9 186.75 1450.5 153.45 1451.05 143.75 1450.5 153.45 1451.05 153.25 1450.5 153.45 1440.65 329.6 1441.65 329.65 1440.65 329.6 1360.1 323.55 1347.15 322.55 1360.1 323.55 1348.2 186.85 1348.15 186.6 1332.4 183 1346.75 322.2 1332.4 183 1331.4 182.8 1332.4 183 1332.2 181.2 1341.55 178.25 1343.35 59.7 1343.35 59.65 1342.95 59.05
Q 1314.2 74.05 1284.35 87.65 1282.4 88.5 1280.4 89.4
L 1293.05 374.4 1357.4 384.35 1358.5 383.8 1357.4 384.35 1447.05 398.15 1497.3 405.85 1495.7 -4.7
M 1495.75 -4.75
L 1495.7 -4.7 1497.3 405.85 1509.3 407.7 1510.85 406.95 1509.3 407.7 1551.2 414.15 1552.35 413.3 1551.2 414.15 1553.2 413.95
Q 1550.9 388 1548.35 362.7 1541.05 290.75 1531.65 224.25 1527.7 196.45 1523.4 169.6 1518.5 139.2 1513.15 110.05
L 1513.15 110 1513.2 110.05 1578.4 82.2 1578.5 82.15 1585.6 -50.8 1585.35 -51.25 1495.75 -4.75
M 1495.7 -4.7
L 1495.75 -4.75 1585.35 -51.25 1585.35 -52.25 1502.35 -52.25 1495.2 -5.8 1502.35 -52.25 1391.5 -52.25 1408.05 31.05 1408.1 31.05
Q 1442.8 16.7 1495.65 -4.7
L 1495.7 -4.7 Z"/>
</g>

<g id="Layer0_1_FILL">
<path fill="#990000" stroke="none" d="
M -404.25 130.6
Q -402.6 125.85 -447.9 137.5 -473.7 144.2 -486.1 178.45 -498.5 212.65 -456.15 346 -451.65 352.05 -408.4 359.7 -462.8 164.7 -404.25 130.6 Z"/>

<path fill="#FF3333" stroke="none" d="
M -317.8 205.7
Q -316.05 172.6 -317.85 163.05 -322.5 128.65 -398.15 130.1 -398.246875 130.0515625 -398.35 130.05
L -398.4 130.05
Q -399.7 130.15 -401 130.35 -402.6 130.4 -404.25 130.6 -462.8 164.7 -408.4 359.7
L -395.4 357.25 -337.3 335.2
Q -325.15 292.7 -317.8 205.7 Z"/>
</g>

<g id="Layer0_1_MEMBER_0_FILL">
<path fill="#CCCCCC" stroke="none" d="
M -341.8 200.65
Q -339.7 199.8 -338.25 204.95 -337.65 206.85 -337.3 208.65 -336.3 214.2 -336.95 219.3 -337.75 226.15 -341.4 232.25 -345 238.35 -345.45 240.55 -345.95 242.75 -344.05 242.95 -339.05 243.5 -336 237.1 -332.95 230.7 -332.15 223.55 -331.5 216.8 -333.15 208 -333.25 207.45 -333.35 207 -335.15 197.5 -341.8 200.65 Z"/>
</g>

<g id="Layer0_2_FILL">
<path fill="#996600" stroke="none" d="
M -282.6 375.2
Q -279.05 375.65 -276.7 375.05 -278.45 366.05 -276.4 346.05 -280.3 346.35 -284.6 346.5 -290.55 374.2 -282.6 375.2
M -304.85 346.3
Q -306.9 346.2 -308.8 346.1 -309.35 353.55 -308.75 362.75 -308.3 370.65 -309.15 375.95 -301.1 376.7 -299.85 371.3 -298.55 365.6 -299.1 356.4 -299.45 351.2 -299.4 346.55 -300.65 346.5 -301.85 346.45 -302.2 346.45 -302.5 346.45 -302.65 346.4 -302.85 346.4 -303.9 346.35 -304.85 346.3 Z"/>

<path fill="#CC6600" stroke="none" d="
M -315.95 345.4
Q -316.25 345.35 -316.5 345.35 -317.05 345.25 -317.55 345.2 -317.85 345.15 -318.1 345.1 -319.05 344.95 -319.85 344.85
L -319.95 345.4
Q -328.85 381.05 -319.8 382.2 -310.8 383.35 -309.5 377.65 -309.3 376.85 -309.15 375.95 -308.3 370.65 -308.75 362.75 -309.35 353.55 -308.8 346.1 -310.4 345.95 -311.9 345.85 -314 345.65 -315.95 345.4
M -257.05 326
L -257.05 325.95
Q -257.1 323.85 -267.5 322.35 -277.9 320.85 -292.65 320.85 -307.4 320.85 -317.85 322.35 -328.25 323.85 -328.25 325.95 -328.25 328.05 -317.85 329.55 -307.4 331.05 -292.65 331.05 -277.9 331.05 -267.5 329.55 -257.15 328.05 -257.05 326
M -275.1 345.95
Q -275.75 346 -276.4 346.05 -278.45 366.05 -276.7 375.05 -275.4 381.95 -271.85 382.35 -263.75 383.25 -262.9 375.9 -262.05 368.55 -263.3 360.6 -264.55 352.55 -266.15 344.8 -266.25 344.9 -267.75 345.1 -269.75 345.4 -271.85 345.65 -273.45 345.8 -275.1 345.95 Z"/>

<path fill="#CC9900" stroke="none" d="
M -276.4 346.05
Q -275.75 346 -275.1 345.95 -273.45 345.8 -271.85 345.65 -269.75 345.4 -267.75 345.1 -266.25 344.9 -266.15 344.8 -264.55 344.55 -264.2 344.5 -260.4 343.6 -257.7 342.25
L -257.4 341.95 -257.4 341.9
Q -257.3 341.303515625 -257.3 341.5 -255.5 332.4 -257.05 326 -257.15 328.05 -267.5 329.55 -277.9 331.05 -292.65 331.05 -307.4 331.05 -317.85 329.55 -328.25 328.05 -328.25 325.95
L -328.5 325.95
Q -330.65 333.5 -328.5 341.4 -328.4 341.75 -328.1 342.1 -327.15 343.6 -319.95 344.8 -319.9 344.8 -319.85 344.85 -319.05 344.95 -318.1 345.1 -317.85 345.15 -317.55 345.2 -317.05 345.25 -316.5 345.35 -316.25 345.35 -315.95 345.4 -314 345.65 -311.9 345.85 -310.4 345.95 -308.8 346.1 -306.9 346.2 -304.85 346.3 -303.9 346.35 -302.85 346.4 -302.65 346.4 -302.5 346.45 -302.2 346.45 -301.85 346.45 -300.65 346.5 -299.4 346.55 -296.25 346.6 -292.9 346.6 -288.6 346.6 -284.6 346.5 -280.3 346.35 -276.4 346.05 Z"/>
</g>

<g id="Layer0_3_FILL">
<path fill="#996600" stroke="none" d="
M -73.15 353.65
L -73.25 354 -73.2 354 -73.15 353.65
M -72.35 280.7
Q -75.08828125 281.5978515625 -77.8 282.4 -82.4 283.8 -86.95 284.95 -100.6 288.4 -113.6 289.9
L -116.7 290.15 -117.9 301.1
Q -101.95 294.75 -85.55 290.2 -80.95 288.85 -76.25 287.7 -73.4 287 -70.55 286.35
L -68.6 285.5 -68.6 285.9
Q -65.65 285.25 -62.65 284.65
L -60 276.8 -60.6 276.6
Q -65.65 278.5 -70.6 280.15
L -70.65 280.15
Q -71.5 280.4333984375 -72.35 280.7
M -170.55 293.95
L -170.8 294 -165.15 294.6
Q -167.85 294.25 -170.55 293.95 Z"/>

<path fill="#CC9900" stroke="none" d="
M -133.4 298.9
Q -133.5177734375 298.9998046875 -133.5 299.15
L -136.6 370.9 -127.7 371.9 -127.7 371.85 -126.45 300.05
Q -132.6376953125 298.3361328125 -133.4 298.9
M -164.55 341.5
L -164.5 341.45 -164.55 341.35 -164.55 341.5
M -235.65 277.35
Q -222.85 280.75 -208.75 283.3 -195.55 285.6 -181.15 287.2 -172.25 288.1 -162.85 288.8 -141 290.3 -116.7 290.15
L -113.6 289.9
Q -100.6 288.4 -86.95 284.95 -82.4 283.8 -77.8 282.4 -75.08828125 281.5978515625 -72.35 280.7 -71.5 280.4333984375 -70.65 280.15
L -70.6 280.15
Q -65.65 278.5 -60.6 276.6
L -60.6 276.05
Q -121.55 279.9 -178.15 270.1 -193.65 273.75 -209.5 275.6 -222.45 277.1 -235.65 277.35
M -212.85 289.1
L -218.5 288.45 -218.5 288.55 -221.35 358.05 -212.15 359.6 -212.05 359.15 -212 359.2 -212.85 289.1 Z"/>

<path fill="#CC6600" stroke="none" d="
M -68.6 285.5
L -70.55 286.35 -73.15 353.65 -70.55 351.65 -68.6 285.9 -68.6 285.5
M -164.95 294.85
L -165.15 294.6 -170.8 294 -164.95 294.85
M -234.95 286.95
Q -226.7033203125 287.7306640625 -218.5 288.55
L -218.5 288.45 -212.85 289.1 -212 359.2 -211.9 359.3 -208.05 357.25 -209.7 289.45
Q -209.55 289.45 -209.4 289.5 -195.6 290.9 -181.8 292.55 -176.2 293.2 -170.55 293.95 -167.85 294.25 -165.15 294.6 -164.4 294.7 -163.6 294.8
L -163.55 294.8
Q -163.4140625 294.8453125 -163.25 294.85
L -164.95 294.85 -164.55 341.35 -164.5 341.45 -161.9 340 -163.2 294.85
Q -148.3 296.75 -133.45 298.9
L -133.4 298.9
Q -132.6376953125 298.3361328125 -126.45 300.05
L -127.7 371.85 -123.35 370.2 -123.45 300.5
Q -120.75 300.8 -118.5 301.1 -118.2 301.15 -117.85 301.2
L -117.9 301.1 -116.7 290.15
Q -141 290.3 -162.85 288.8 -172.25 288.1 -181.15 287.2 -195.55 285.6 -208.75 283.3 -222.85 280.75 -235.65 277.35
L -234.95 286.95 Z"/>

<path fill="#663300" stroke="none" d="
M -70.55 286.35
Q -73.4 287 -76.25 287.7
L -81.5 352 -73.25 354 -73.15 353.65 -70.55 286.35
M -164.95 294.85
L -170.8 294 -171.85 340.75 -164.85 341.35 -164.55 341.35 -164.95 294.85 Z"/>
</g>

<g id="Layer0_4_FILL">
<path fill="#CCCC99" stroke="none" d="
M -214.65 251.35
Q -209.5 261.5 -203.9 268 -202.7 269.4 -201.5 270.6 -199.35 272.75 -197.15 274.35 -197 274.4 -196.8 274.45 -196.6 274.5 -196.4 274.55 -187.95 276.55 -176.05 276.55 -165 276.55 -158.3 274.85 -155.9 273.1 -153.45 270.6 -151.55 268.6 -149.55 266.15 -145.15 260.6 -140.85 251.45 -142.5 253.15 -152.1 254.2 -161.7 255.2 -176.8 255.6 -191.9 256 -202.5 254.5 -213.1 252.95 -214.65 251.35 Z"/>

<path fill="#999966" stroke="none" d="
M -203.15 247.8
Q -203.2 247.8 -203.25 247.8 -203.7 247.85 -204.1 247.9 -215.6 249.35 -214.85 251.05 -214.7 251.15 -214.65 251.35 -213.1 252.95 -202.5 254.5 -191.9 256 -176.8 255.6 -161.7 255.2 -152.1 254.2 -142.5 253.15 -140.85 251.45 -140.55 251.1 -140.45 250.8 -140.45 250.7 -140.4 250.4 -140.35 250.05 -147.1 248.15 -153.85 246.15 -173.2 246.3 -191.85 246.4 -203.15 247.8 Z"/>
</g>

<g id="Layer0_5_FILL">
<path fill="#CCCC99" stroke="none" d="
M -98.4 213.45
Q -107.05 214.65 -114.6 212.75
L -112.4 241.45
Q -121.5 242.95 -128.65 249.7 -136.15 256.7 -138 264.5 -139.85 272.25 -131.45 279.15 -123.05 286.05 -111.65 286.1 -100.25 286.15 -91.65 278.9 -83.1 271.6 -85.6 263.85 -88.1 256.05 -93.8 249.6 -99.55 243.15 -104.85 241.7
L -98.4 213.45 Z"/>
</g>

<g id="Layer0_6_FILL">
<path fill="#FFFFFF" stroke="none" d="
M 369.9 130.6
Q 371.55 125.85 326.25 137.5 300.45 144.2 288.05 178.45 275.65 212.65 318 346 322.5 352.05 365.75 359.7 311.35 164.7 369.9 130.6
M 373.15 130.35
Q 371.55 130.4 369.9 130.6 311.35 164.7 365.75 359.7
L 378.75 357.25 436.85 335.2
Q 449 292.7 456.35 205.7 458.1 172.6 456.3 163.05 451.65 128.65 376 130.1 375.903125 130.0515625 375.8 130.05
L 375.75 130.05
Q 374.45 130.15 373.15 130.35
M 435.9 204.95
Q 434.45 199.8 432.35 200.65 439 197.5 440.8 207 440.9 207.45 441 208 442.65 216.8 442 223.55 441.2 230.7 438.15 237.1 435.1 243.5 430.1 242.95 428.2 242.75 428.7 240.55 429.15 238.35 432.75 232.25 436.4 226.15 437.2 219.3 437.85 214.2 436.85 208.65 436.5 206.85 435.9 204.95
M 432.35 200.65
Q 434.45 199.8 435.9 204.95 436.5 206.85 436.85 208.65 437.85 214.2 437.2 219.3 436.4 226.15 432.75 232.25 429.15 238.35 428.7 240.55 428.2 242.75 430.1 242.95 435.1 243.5 438.15 237.1 441.2 230.7 442 223.55 442.65 216.8 441 208 440.9 207.45 440.8 207 439 197.5 432.35 200.65 Z"/>
</g>

<g id="Layer0_7_FILL">
<path fill="#FFFFFF" stroke="none" d="
M 489.55 346.5
Q 483.6 374.2 491.55 375.2 495.1 375.65 497.45 375.05 495.7 366.05 497.75 346.05 493.85 346.35 489.55 346.5
M 499.05 345.95
Q 498.4 346 497.75 346.05 495.7 366.05 497.45 375.05 498.75 381.95 502.3 382.35 510.4 383.25 511.25 375.9 512.1 368.55 510.85 360.6 509.6 352.55 508 344.8 507.9 344.9 506.4 345.1 504.4 345.4 502.3 345.65 500.7 345.8 499.05 345.95
M 472.3 346.45
Q 471.95 346.45 471.65 346.45 471.5 346.4 471.3 346.4 470.25 346.35 469.3 346.3 467.25 346.2 465.35 346.1 464.8 353.55 465.4 362.75 465.85 370.65 465 375.95 473.05 376.7 474.3 371.3 475.6 365.6 475.05 356.4 474.7 351.2 474.75 346.55 473.5 346.5 472.3 346.45
M 456.3 322.35
Q 445.9 323.85 445.9 325.95 445.9 328.05 456.3 329.55 466.75 331.05 481.5 331.05 496.25 331.05 506.65 329.55 517 328.05 517.1 326
L 517.1 325.95
Q 517.05 323.85 506.65 322.35 496.25 320.85 481.5 320.85 466.75 320.85 456.3 322.35
M 454.3 344.85
L 454.2 345.4
Q 445.3 381.05 454.35 382.2 463.35 383.35 464.65 377.65 464.85 376.85 465 375.95 465.85 370.65 465.4 362.75 464.8 353.55 465.35 346.1 463.75 345.95 462.25 345.85 460.15 345.65 458.2 345.4 457.9 345.35 457.65 345.35 457.1 345.25 456.6 345.2 456.3 345.15 456.05 345.1 455.1 344.95 454.3 344.85
M 445.9 325.95
L 445.65 325.95
Q 443.5 333.5 445.65 341.4 445.75 341.75 446.05 342.1 447 343.6 454.2 344.8 454.25 344.8 454.3 344.85 455.1 344.95 456.05 345.1 456.3 345.15 456.6 345.2 457.1 345.25 457.65 345.35 457.9 345.35 458.2 345.4 460.15 345.65 462.25 345.85 463.75 345.95 465.35 346.1 467.25 346.2 469.3 346.3 470.25 346.35 471.3 346.4 471.5 346.4 471.65 346.45 471.95 346.45 472.3 346.45 473.5 346.5 474.75 346.55 477.9 346.6 481.25 346.6 485.55 346.6 489.55 346.5 493.85 346.35 497.75 346.05 498.4 346 499.05 345.95 500.7 345.8 502.3 345.65 504.4 345.4 506.4 345.1 507.9 344.9 508 344.8 509.6 344.55 509.95 344.5 513.75 343.6 516.45 342.25
L 516.75 341.95 516.75 341.9
Q 516.85 341.303515625 516.85 341.5 518.65 332.4 517.1 326 517 328.05 506.65 329.55 496.25 331.05 481.5 331.05 466.75 331.05 456.3 329.55 445.9 328.05 445.9 325.95 Z"/>
</g>

<g id="Layer0_8_FILL">
<path fill="#FFFFFF" stroke="none" d="
M 647.7 300.5
L 647.7 300.05 640.65 299.75 637.55 370.9 646.45 371.9 646.45 371.85 647.7 300.5
M 564.45 289.45
L 561.5 289.45 562.15 359.2 562.25 359.3 566.1 357.25 564.45 289.45
M 561.5 289.45
L 561.5 289.15 556.05 288.9 552.8 358.05 562 359.6 562.1 359.15 562.15 359.2 561.5 289.45
M 609 294.85
L 609 294.6 603.55 294.6 602.3 340.75 609.3 341.35 609.6 341.35 609 294.85
M 610.9 294.85
L 609 294.85 609.6 341.35 609.6 341.5 612.25 340 610.95 294.85 610.9 294.85
M 650.8 370.2
L 650.7 300.5 647.7 300.5 646.45 371.85 650.8 370.2
M 650.7 300.5
Q 653.4 300.8 655.65 301.1 655.95 301.15 656.3 301.2
L 656.25 301.1 657.45 290.15
Q 633.15 290.3 611.3 288.8 601.9 288.1 593 287.2 578.6 285.6 565.4 283.3 551.3 280.75 538.5 277.35
L 539.2 286.95
Q 547.65 287.75 556.05 288.6 558.75 288.85 561.5 289.15 562.95 289.3 564.45 289.45 564.6 289.45 564.75 289.5 578.55 290.9 592.35 292.55 597.95 293.2 603.6 293.95 606.3 294.25 609 294.6 609.75 294.7 610.55 294.8
L 610.6 294.8
Q 610.7359375 294.8453125 610.9 294.85
L 610.95 294.85
Q 625.85 296.75 640.7 298.9 644.5 299.45 647.7 300.05 649.9 300.25 650.7 300.5
M 703.6 286.35
Q 700.75 287 697.9 287.7
L 692.65 352 700.95 354 701 353.65 703.6 286.35
M 705.55 286.35
L 703.6 286.35 701 353.65 703.6 351.65 705.55 286.35
M 687.2 284.95
Q 673.55 288.4 660.55 289.9
L 657.45 290.15 656.25 301.1
Q 672.2 294.75 688.6 290.2 693.2 288.85 697.9 287.7 700.75 287 703.6 286.35 704.55 286.1 705.55 285.9 708.5 285.25 711.5 284.65
L 714.15 276.8 713.55 276.6
Q 708.5 278.5 703.55 280.15
L 703.5 280.15
Q 699.9 281.35 696.35 282.4 691.75 283.8 687.2 284.95
M 660.55 289.9
Q 673.55 288.4 687.2 284.95 691.75 283.8 696.35 282.4 699.9 281.35 703.5 280.15
L 703.55 280.15
Q 708.5 278.5 713.55 276.6
L 713.55 276.05
Q 652.6 279.9 596 270.1 580.5 273.75 564.65 275.6 551.7 277.1 538.5 277.35 551.3 280.75 565.4 283.3 578.6 285.6 593 287.2 601.9 288.1 611.3 288.8 633.15 290.3 657.45 290.15
L 660.55 289.9 Z"/>
</g>

<g id="Layer0_9_FILL">
<path fill="#FFFFFF" stroke="none" d="
M 571.65 254.5
Q 582.25 256 597.35 255.6 612.45 255.2 622.05 254.2 631.65 253.15 633.3 251.45 633.6 251.1 633.7 250.8 633.7 250.7 633.75 250.4 633.8 250.05 627.05 248.15 620.3 246.15 600.95 246.3 582.3 246.4 571 247.8 570.95 247.8 570.9 247.8 570.45 247.85 570.05 247.9 558.55 249.35 559.3 251.05 559.45 251.15 559.5 251.35 561.05 252.95 571.65 254.5
M 597.35 255.6
Q 582.25 256 571.65 254.5 561.05 252.95 559.5 251.35 564.65 261.5 570.25 268 571.45 269.4 572.65 270.6 574.8 272.75 577 274.35 577.15 274.4 577.35 274.45 577.55 274.5 577.75 274.55 586.2 276.55 598.1 276.55 609.15 276.55 615.85 274.85 618.25 273.1 620.7 270.6 622.6 268.6 624.6 266.15 629 260.6 633.3 251.45 631.65 253.15 622.05 254.2 612.45 255.2 597.35 255.6 Z"/>
</g>

<g id="Layer0_10_FILL">
<path fill="#FFFFFF" stroke="none" d="
M 668.9 213.45
Q 660.25 214.65 652.7 212.75
L 654.9 241.45
Q 645.8 242.95 638.65 249.7 631.15 256.7 629.3 264.5 627.45 272.25 635.85 279.15 644.25 286.05 655.65 286.1 667.05 286.15 675.65 278.9 684.2 271.6 681.7 263.85 679.2 256.05 673.5 249.6 667.75 243.15 662.45 241.7
L 668.9 213.45 Z"/>
</g>

<path id="Layer0_0_1_STROKES" stroke="#000000" stroke-width="1" stroke-linejoin="round" stroke-linecap="round" fill="none" d="
M 1408.1 31.05
Q 1442.8 16.7 1495.65 -4.7
L 1495.7 -4.7 1495.75 -4.75 1585.35 -51.25
M 1585.35 -52.25
L 1502.35 -52.25 1495.2 -5.8
M 1585.35 -51.25
L 1587.25 -52.25 1645.75 -52.25 1645.75 70.2 1645.75 447.6 1577.3 447.6 1505.3 447.6 1425.3 447.6 1324.2 447.6 1207 447.6 1103.25 447.6 1009.35 447.6 936.85 447.6 936.85 418.6 936.85 20.7 936.85 -52.25 963.35 -52.25 1134.9 -52.25 1272.2 -52.25 1391.5 -52.25 1502.35 -52.25
M 1585.35 -52.25
L 1587.25 -52.25
M 1513.2 110.05
L 1578.4 82.2 1578.5 82.15 1585.6 -50.8
M 1526.4 118
L 1526.85 117.85 1526.6 117.7
M 1526.4 118
Q 1531.3 143.05 1535.8 169.6 1540.3 196.15 1544.45 224.25 1546.45 237.95 1548.35 252.05 1558.85 328.95 1566.6 416.55
L 1601.85 421.95 1644.05 428.45
M 1513.15 110.05
Q 1513.55 110.95 1513.45 110.2
L 1513.2 110.05 1513.15 110.05 1513.15 110 1513.2 110.05
M 1526.6 117.7
L 1513.45 110.2
M 1513.15 110.05
Q 1518.5 139.2 1523.4 169.6 1527.7 196.45 1531.65 224.25 1541.05 290.75 1548.35 362.7 1550.9 388 1553.2 413.95 1553.25 414.2 1553.25 414.5
L 1566.6 416.55
M 1408.1 31.05
L 1408.05 31.1 1408.1 31.35 1408.1 31.05 Z
M 1408.05 31.05
L 1408.05 31.1 1408 31.1
M 1408.65 34.05
L 1408.1 31.35
M 1343.35 58.85
L 1343.35 59.65 1343.35 59.7 1348.15 175.6
M 1343.35 59.65
L 1342.95 59.05
Q 1314.2 74.05 1284.35 87.65 1282.4 88.5 1280.4 89.4
L 1293.05 374.4 1357.4 384.35 1358.5 383.8
M 1342.95 59.05
Q 1343.15 58.95 1343.35 58.85 1352.65 53.95 1408 31.1
M 1450.25 143.7
L 1341.55 178.25 1332.2 181.2 1332.4 183 1348.15 186.6 1348 186
M 1348.9 186.75
L 1450.5 153.45 1451.05 143.75
M 1346.75 322.2
L 1332.4 183 1331.4 182.8
M 1348.9 186.75
L 1348.15 186.6 1348.2 186.85
M 1450.5 153.45
L 1451.05 153.25
M 1408.1 31.35
L 1409.55 155.65
M 1343.35 59.7
L 1341.55 178.25
M 1441.65 329.65
L 1440.65 329.6 1360.1 323.55 1347.15 322.55
M 1440.65 329.6
L 1450.5 153.45
M 1348.2 186.85
L 1360.1 323.55
M 1553.25 414.5
L 1551.2 414.15 1552.35 413.3
M 1551.2 414.15
L 1509.3 407.7 1425.3 447.6
M 1601.85 421.95
L 1577.3 447.6
M 1495.7 -4.7
L 1497.3 405.85 1509.3 407.7 1510.85 406.95
M 1497.3 406.95
L 1497.3 405.85 1447.05 398.15 1324.2 447.6
M 1551.2 414.15
L 1505.3 447.6
M 1447.05 398.15
L 1357.4 384.35 1207 447.6
M 1526.85 117.85
L 1645.75 70.2
M 1578.5 82.15
L 1644.25 54.05
M 1408.05 31.05
L 1391.5 -52.25
M 1280.35 88.65
L 1280.4 89.4
Q 1279.25 89.9 1278.1 90.45
M 1194.45 358.3
Q 1197.3 271.9 1194.75 169.6 1194.2 147.45 1193.4 124.55 1193.55 124.5 1193.65 124.45 1212.55 117.65 1231 110.3
L 1230.95 109.45 963.35 -52.25
M 1193.4 123.75
Q 1168.8 116 1144.6 107.55 1115.3 97.3 1086.6 86
L 1096.85 380.6
M 1231 110.3
Q 1231.15 110.25 1231.25 110.2
M 1230.85 108.6
L 1230.95 109.45
M 1231.25 110.2
Q 1255 100.75 1278.1 90.45
M 1086.5 83.85
L 1086.6 86
Q 1074.4 81.2 1043.6 67.85
M 1042.8 69.5
L 1021.4 398.8 1193.3 358.55 1194.45 358.3
Q 1194.35 358.75 1194.3 359.2
L 1236.05 365.6 1254 368.4 1231 110.3
M 1043.6 67.85
L 1043.55 67.8
Q 1014.35 55.15 968.5 34.8
L 989.75 406.25 1021.4 398.8 1021.3 400.3
M 1194.2 359.85
Q 1194.25 359.5 1194.3 359.2
L 1193.4 359.05
M 1254 368.4
L 1254.05 368.4 1277.65 372.05 1293.05 374.4 1293.1 375.8
M 1143.95 109.4
L 1148.7 367.85
M 968.5 34.8
Q 953.55 28.15 936.85 20.7
M 989.8 407.5
L 989.75 406.25 936.85 418.6
M 1277.65 372.05
L 1103.25 447.6
M 1009.35 447.6
L 1236.05 365.6
M 1277.7 89.55
L 1134.9 -52.25
M 1272.2 -52.25
L 1342.95 59.05"/>

<path id="Layer0_6_1_STROKES" stroke="#000000" stroke-width="1" stroke-linejoin="round" stroke-linecap="round" fill="none" d="
M 375.8 130.05
Q 376.053125 130.0494140625 376.3 130 376.15 130.05 376 130.1 451.65 128.65 456.3 163.05 458.1 172.6 456.35 205.7 449 292.7 436.85 335.2
L 378.75 357.25 365.75 359.7
Q 322.5 352.05 318 346 275.65 212.65 288.05 178.45 300.45 144.2 326.25 137.5 371.55 125.85 369.9 130.6 371.55 130.4 373.15 130.35 374.45 130.15 375.75 130.05
L 375.8 130.05
Q 375.903125 130.0515625 376 130.1
M 432.35 200.65
Q 439 197.5 440.8 207 440.9 207.45 441 208 442.65 216.8 442 223.55 441.2 230.7 438.15 237.1 435.1 243.5 430.1 242.95 428.2 242.75 428.7 240.55 429.15 238.35 432.75 232.25 436.4 226.15 437.2 219.3 437.85 214.2 436.85 208.65 436.5 206.85 435.9 204.95 434.45 199.8 432.35 200.65 Z
M 369.9 130.6
Q 311.35 164.7 365.75 359.7"/>

<path id="Layer0_7_1_STROKES" stroke="#000000" stroke-width="1" stroke-linejoin="round" stroke-linecap="round" fill="none" d="
M 445.65 325.95
Q 443.5 333.5 445.65 341.4 445.75 341.75 446.05 342.1 447 343.6 454.2 344.8 454.25 344.8 454.3 344.85 455.1 344.95 456.05 345.1 456.3 345.15 456.6 345.2 457.1 345.25 457.65 345.35 457.9 345.35 458.2 345.4 460.15 345.65 462.25 345.85 463.75 345.95 465.35 346.1 467.25 346.2 469.3 346.3 470.25 346.35 471.3 346.4 471.5 346.4 471.65 346.45 471.95 346.45 472.3 346.45 473.5 346.5 474.75 346.55 477.9 346.6 481.25 346.6 485.55 346.6 489.55 346.5 493.85 346.35 497.75 346.05 498.4 346 499.05 345.95 500.7 345.8 502.3 345.65 504.4 345.4 506.4 345.1 507.9 344.9 508 344.8 509.6 344.55 509.95 344.5 513.75 343.6 516.45 342.25
M 516.75 341.95
L 516.75 341.925
Q 516.85 341.303515625 516.85 341.5 518.65 332.4 517.1 326 517 328.05 506.65 329.55 496.25 331.05 481.5 331.05 466.75 331.05 456.3 329.55 445.9 328.05 445.9 325.95 445.9 323.85 456.3 322.35 466.75 320.85 481.5 320.85 496.25 320.85 506.65 322.35 517.05 323.85 517.1 325.95
L 517.1 326
M 446.05 342.1
Q 445.65 341.8 445.65 341.5 445.65 341.45 445.65 341.4
M 474.75 346.55
Q 474.7 351.2 475.05 356.4 475.6 365.6 474.3 371.3 473.05 376.7 465 375.95 464.85 376.85 464.65 377.65 463.35 383.35 454.35 382.2 445.3 381.05 454.2 345.4
M 465.35 346.1
Q 464.8 353.55 465.4 362.75 465.85 370.65 465 375.95
M 516.85 341.5
Q 516.85 341.7 516.8 341.9 516.7626953125 341.9 516.75 341.925
M 508 344.8
Q 509.6 352.55 510.85 360.6 512.1 368.55 511.25 375.9 510.4 383.25 502.3 382.35 498.75 381.95 497.45 375.05 495.1 375.65 491.55 375.2 483.6 374.2 489.55 346.5
M 497.75 346.05
Q 495.7 366.05 497.45 375.05"/>

<path id="Layer0_8_1_STROKES" stroke="#000000" stroke-width="1" stroke-linejoin="round" stroke-linecap="round" fill="none" d="
M 538.5 277.35
Q 551.3 280.75 565.4 283.3 578.6 285.6 593 287.2 601.9 288.1 611.3 288.8 633.15 290.3 657.45 290.15
L 660.55 289.9
Q 673.55 288.4 687.2 284.95 691.75 283.8 696.35 282.4 699.9 281.35 703.5 280.15
L 703.55 280.15
Q 708.5 278.5 713.55 276.6
M 713.55 276.05
Q 652.6 279.9 596 270.1 580.5 273.75 564.65 275.6 551.7 277.1 538.5 277.35
L 539.2 286.95
Q 547.65 287.75 556.05 288.6 558.75 288.85 561.5 289.15 562.95 289.3 564.45 289.45 564.6 289.45 564.75 289.5 578.55 290.9 592.35 292.55 597.95 293.2 603.6 293.95 606.3 294.25 609 294.6 609.75 294.7 610.55 294.8
L 610.6 294.8
Q 610.7359375 294.8453125 610.925 294.85
L 610.95 294.85
Q 625.85 296.75 640.7 298.9 644.5 299.45 647.7 300.05 649.9 300.25 650.7 300.5 653.4 300.8 655.65 301.1 655.95 301.15 656.3 301.2
L 656.25 301.1 657.45 290.15
M 705.55 286.35
L 705.55 285.9
Q 704.55 286.1 703.6 286.35
M 705.55 286.35
L 703.6 351.65 701 353.65 700.95 354 692.65 352 697.9 287.7
Q 693.2 288.85 688.6 290.2 672.2 294.75 656.25 301.1
M 697.9 287.7
Q 700.75 287 703.6 286.35
L 701 353.65
M 711.25 285.25
L 711.5 284.65 714.15 276.8
M 705.55 285.9
Q 708.5 285.25 711.5 284.65
M 713.55 276.05
Q 713.85 276 714.2 276
M 650.7 300.5
L 650.8 370.2 646.45 371.85 646.45 371.9 637.55 370.9 640.65 299.75 640.7 298.9
M 603.55 294.6
L 603.6 293.95
M 609 294.85
L 609.6 341.35 609.6 341.5 612.25 340 610.95 294.85
M 609 294.85
L 609 294.6
M 603.55 294.6
L 602.3 340.75 609.3 341.35 609.6 341.35
M 561.5 289.15
L 561.5 289.45
M 564.45 289.45
L 566.1 357.25 562.25 359.3 562.15 359.35 562.15 359.2 562.1 359.15 562 359.6 552.8 358.05 556.05 288.9 556.05 288.6
M 562.15 359.2
L 562.25 359.3
M 647.7 300.5
L 647.7 300.05
M 609.6 341.5
L 609.3 341.35
M 646.45 371.85
L 647.7 300.5
M 562.15 359.2
L 561.5 289.45"/>

<path id="Layer0_9_1_STROKES" stroke="#000000" stroke-width="1" stroke-linejoin="round" stroke-linecap="round" fill="none" d="
M 633.3 251.45
Q 631.65 253.15 622.05 254.2 612.45 255.2 597.35 255.6 582.25 256 571.65 254.5 561.05 252.95 559.5 251.35 564.65 261.5 570.25 268 571.45 269.4 572.65 270.6 574.8 272.75 577 274.35 577.15 274.4 577.35 274.45 577.55 274.5 577.75 274.55 586.2 276.55 598.1 276.55 609.15 276.55 615.85 274.85 618.25 273.1 620.7 270.6 622.6 268.6 624.6 266.15 629 260.6 633.3 251.45 633.6 251.1 633.7 250.8 633.7 250.7 633.75 250.4 633.8 250.05 627.05 248.15 620.3 246.15 600.95 246.3 582.3 246.4 571 247.8 570.95 247.8 570.9 247.8 570.45 247.85 570.05 247.9 558.55 249.35 559.3 251.05 559.45 251.15 559.5 251.35 559.4 251.2 559.35 251.1
L 559.3 251.05"/>

<path id="Layer0_10_1_STROKES" stroke="#000000" stroke-width="1" stroke-linejoin="round" stroke-linecap="round" fill="none" d="
M 652.7 212.75
L 654.9 241.45
Q 645.8 242.95 638.65 249.7 631.15 256.7 629.3 264.5 627.45 272.25 635.85 279.15 644.25 286.05 655.65 286.1 667.05 286.15 675.65 278.9 684.2 271.6 681.7 263.85 679.2 256.05 673.5 249.6 667.75 243.15 662.45 241.7
L 668.9 213.45
Q 660.25 214.65 652.7 212.75 Z"/>
</defs>

<g transform="matrix( 1, 0, 0, 1, 0,0) ">
<use xlink:href="#Layer0_0_FILL"/>

<use xlink:href="#Layer0_0_1_STROKES"/>
</g>

<g transform="matrix( 1, 0, 0, 1, 500.1,13.9) ">
<use xlink:href="#Layer0_1_FILL"/>
</g>

<g transform="matrix( 1, 0, 0, 1, 500.1,13.9) ">
<use xlink:href="#Layer0_1_MEMBER_0_FILL"/>
</g>

<g transform="matrix( 1, 0, 0, 1, 500.1,13.9) ">
<use xlink:href="#Layer0_2_FILL"/>
</g>

<g transform="matrix( 1, 0, 0, 1, 500.1,13.9) ">
<use xlink:href="#Layer0_3_FILL"/>
</g>

<g transform="matrix( 1, 0, 0, 1, 497.7,17.05) ">
<use xlink:href="#Layer0_4_FILL"/>
</g>

<g transform="matrix( 1, 0, 0, 1, 500.1,13.9) ">
<use xlink:href="#Layer0_5_FILL"/>
</g>

<g transform="matrix( 1, 0, 0, 1, 736.2,47.55) ">
<use xlink:href="#Layer0_6_FILL"/>

<use xlink:href="#Layer0_6_1_STROKES"/>
</g>

<g transform="matrix( 1, 0, 0, 1, 736.2,47.55) ">
<use xlink:href="#Layer0_7_FILL"/>

<use xlink:href="#Layer0_7_1_STROKES"/>
</g>

<g transform="matrix( 1, 0, 0, 1, 736.2,47.55) ">
<use xlink:href="#Layer0_8_FILL"/>

<use xlink:href="#Layer0_8_1_STROKES"/>
</g>

<g transform="matrix( 1, 0, 0, 1, 736.2,47.55) ">
<use xlink:href="#Layer0_9_FILL"/>

<use xlink:href="#Layer0_9_1_STROKES"/>
</g>

<g transform="matrix( 1, 0, 0, 1, 743.05,47.55) ">
<use xlink:href="#Layer0_10_FILL"/>

<use xlink:href="#Layer0_10_1_STROKES"/>
</g>
</svg>
