
<svg xmlns="http://www.w3.org/2000/svg" version="1.1" xmlns:xlink="http://www.w3.org/1999/xlink" preserveAspectRatio="none" x="0px" y="0px" width="550px" height="400px" viewBox="0 0 550 400">
<defs>
<linearGradient id="Gradient_1" gradientUnits="userSpaceOnUse" x1="276.5625" y1="263.35" x2="276.5375" y2="-9.349999999999994" spreadMethod="pad">
<stop  offset="0%" stop-color="#FFFF99"/>

<stop  offset="100%" stop-color="#FAB7FB"/>
</linearGradient>

<g id="Layer0_0_FILL">
<path fill="#CC9900" stroke="none" d="
M 243.6 236.85
L 237.5 235.35
Q 241.45 236.85 243.6 236.85
M 243.25 266.2
L 257.85 266.3
Q 265.8 264.8 273.8 262.7 231.5 260.6 189.85 260.2 173.9 260 158.05 260.1 165.35 262.4 172.7 264.2
L 188.9 264.65 186.8 267.05
Q 195.2 268.45 203.65 269.15 203.85 269.15 204.1 269.2
L 208.15 266.35 222.05 266.35 225 269.75
Q 234.65 269.55 244.35 268.4 244.7 268.35 245.05 268.3
L 243.25 266.2
M 244.6 236.8
L 244.05 236.2 243.6 236.85
Q 244.1 236.85 244.6 236.8
M 240.15 167.75
Q 232.75 164.8 225.45 162.35 218.05 159.8 210.75 157.7 207.05 156.6 203.35 155.6 189.5 151.95 175.7 149.65 153.95 175.55 143.5 208.4 141.25 215.25 139.55 222.4 145.15 222.7 160.15 226.8 161.9 227.25 163.75 227.8
L 164 227
Q 162.9 226.35 160.75 224.65 158.4 222.85 157.6 222.05 161.3 220.35 164.75 223.7 168.2 227.05 167.85 224.9 167.45 222.7 170.85 226.25 171.15 226.6 171.55 226.9 179.05 233.35 191.1 233.35 191.35 233.35 193.8 232.7 196.2 232.1 197.35 231.9 196.85 231.55 196.2 231.1 192.35 228.5 191.6 227 192.65 226.05 197.55 225.75 202.5 225.5 204.95 229.15 207.4 232.85 214.3 232.15 221.1 231.45 225.35 231.45 227.2 231.45 230.1 230.75 233 230 234.5 230 235.4 230 239.55 232.4 240.65 233.05 241.55 233.6
L 239.6 231.6 244.65 231.3
Q 233.75 196.85 240.15 167.75
M 186.2 176.35
L 186.2 176.3 211.75 173.55 212.1 176.95 215.65 208.2 219.85 208.6 218.1 212.6 171.3 209.25 170.75 205.35 175.35 205.6 184.75 180.05 186.2 176.35
M 418.15 262.2
Q 420.7 263 423.2 263.75 428 265.1 432.8 266.3
L 449 266.75 446.9 269.15
Q 455.3 270.55 463.75 271.25 463.95 271.25 464.2 271.3
L 468.25 268.45 482.15 268.45 485.1 271.85
Q 495.1 271.65 505.15 270.4
L 503.35 268.3 517.95 268.4
Q 524.05 267.25 530.25 265.75 532.05 265.3 533.9 264.8 475.4 261.9 418.15 262.2
M 199.3 233.65
Q 199.15 233.9 199.45 234.45 199.6 234.4 199.8 234.35 199.65 234 199.3 233.65
M 391.65 311.1
Q 397.2 306.65 402.8 300.8 385.85 302.6 370.65 303.15 370.6 303.15 370.55 303.15 366.75 303.25 363.1 303.3 361.05 303.35 358.55 303.35 349.25 303.4 340.4 302.9 339.7 302.85 339.05 302.8 339 302.8 338.95 302.8 338.45 302.8 337.95 302.75 337.9 302.75 337.8 302.75 331.5 302.3 325.65 301.6
L 325.6 301.6
Q 323.9 301.4 322.25 301.2 322.1 301.2 321.95 301.15 313.2 299.95 305.35 298.1 298.1 296.45 291.65 294.2 283.45 291.35 276.55 287.7
L 276.2 288.35 276.2 288.4
Q 281.15 300.7 286.85 307 289.3 307.7 291.5 308.6 298.3 311.35 299.8 311.8 302.35 312.5 305.3 312.9 308.3 313.25 311.7 313.25 312.4 313.25 319.9 312.75 328.05 312.3 332.4 312.7 337.45 313.1 348 314.6 357.2 315.95 359.2 315.95 367.5 315.95 376.75 313.25 386 310.55 387.9 310.55 388.5 310.55 391.65 311.1 Z"/>

<path fill="#99CC99" stroke="none" d="
M 211 345.2
Q 209.7 344.75 208.5 344.25 206.2 343.25 197.5 337.85 194.2 335.8 190.85 334.3 192.6 335.7 193.25 337.5 193.65 338.5 194.25 340.4 195 342 196.65 342.9 200.2 344.85 211 345.2
M 549 311.4
L 549 302.95
Q 545.1 304.55 541.3 305.95 533.9 308.75 527 310.25 528 310.45 528.65 310.65 529.55 310.9 530.65 311.45 531.85 311.8 534.4 311.8 538 311.8 541.45 311.7 545.35 311.6 549 311.4
M 548.35 285.4
L 547 285.5
Q 547.6 286 548.7 286.55 548.85 286.6 549 286.7
L 549 285.45
Q 548.65 285.4 548.35 285.4
M 522.85 280
L 526.45 280
Q 541.15 282.35 549 283.75
L 549 267.25
Q 541.6 266.4 534.15 265.95 528 274.35 522.85 280
M 483.85 313.4
Q 481.9 314.8 479.2 314.95 479.6 316.15 481 318.25 478.35 320.05 458.4 324.95 458.1 325 457.8 325.1 457.75 325.1 457.7 325.15 454.45 325.9 451.45 326.6 433.3 330.85 425.95 332.65 424.1 333.15 422.35 333.6 430.2 332.55 441.85 331.05 459.9 328.85 477.85 325.9 496.05 322.85 498.65 321.6 501 320.45 504.3 314.5 505.05 313.1 505.95 312.1 488.7 312.2 483.85 313.4
M 370.05 346.3
Q 369.4 346.35 368.95 346.35 353.2 346.35 343.75 344.2 339.85 343.3 337 342.05 336.05 341.6 331.7 339.05 329.4 337.7 327.1 337.7 292.85 337.7 257.2 342.45 252.15 343.25 247.9 343.95 258.85 343.15 271.75 341.95 306.85 338.6 314.95 338.6 327.3 338.6 336.7 344.25 339.05 345.65 343.05 348.1 346.45 349.85 349.7 349.85 355.7 349.85 370.05 346.3
M 346.25 270.85
Q 347.15 270.75 348.05 270.55 343.6 270.1 337.05 269.05 342 271.25 346.25 270.85
M 356.35 270.6
Q 354.25 270.85 353.05 270.85 351.4 270.85 349.1 270.65 348.55 271.2 348.15 271.6 348.35 271.8 356.55 273.15
L 356.35 270.6
M -0.95 297.05
L -0.95 400 549 400 549 315.95
Q 535.1 317.95 532.3 318.45
L 532.3 323.2 531.6 324.2 531.6 326.95
Q 532.25 326.9 533 326.9 528.4 328.3 523.8 329.7 509.45 334.1 509.45 334.3 509.45 335.45 510.35 338 511.25 340.55 511.25 341.65 511.25 344.65 506.85 345.85 503.4 346.8 492.55 347.55 454.9 350.1 428.1 354.45 409.6 357.5 390.2 360.35 351.7 365.95 339.7 365.95 316.35 365.95 312.85 362.4 311.7 361.25 312.65 359.6 314 358.05 314.15 357.6 314.15 357.3 312.7 356.55 311 355.6 309.55 355.6 308.1 355.6 263.2 359.95 218.35 364.25 216.85 364.25
L 158.8 363.1
Q 158.2 363.1 156.7 362.55 155.35 362.05 154.95 361.75 154.2 361.25 153.5 360.4 152.65 359.35 152.6 358.5 152.85 357.6 153.05 356.8 153 356.8 153 356.75 149.4 352.7 146.05 350.05 142.2 348.65 135.95 346.35 123.75 341.8 120.3 341.05 114.6 339.85 101.9 336.85 90.55 334.1 80.7 332.2 67.3 329.55 39.6 326.7 31.8 325.9 28.9 325 25.25 323.85 25.25 321.5 25.25 320.4 26.15 318.9 27.05 317.45 27.05 316.3 27.05 313.8 21.2 310.55 17.2 308.35 8.25 304.75 6.8 304.15 0.05 297.95 -0.45 297.5 -0.95 297.05
M 153.2 355.95
Q 153.3 355.5 153.35 355.1
L 153.2 355.9 153.2 355.95
M -0.95 269.75
L -0.95 276.75
Q 13.1 279.15 34.95 280.9 36.25 281 37.5 281.1 49.1 282 59.9 282.6 61.6 282.7 63.3 282.8 67.2 283 71.05 283.15 72.7 283.85 82.1 290.85 90.45 297.1 96.7 298.55 99.6 299.25 103.05 300.35 103.1 300.35 103.2 300.4 103.4 300.45 103.6 300.55 111.55 302 114.85 303.95 115.45 304.3 116.35 304.6 119 305.4 124.15 305.4 126 305.4 131.1 306.65 134.9 307.6 136.75 307.85 137.35 307.9 137.75 307.9 138.85 307.9 143.55 307.1 149.55 306.1 153.4 305.65
L 153.4 307
Q 150.75 307.2 148.4 307.65 153.6 307.55 159.45 307.2
L 163.15 307.45
Q 163.3 307.8 163.35 307.7 163.4 307.75 163.4 309.1 163.4 310.25 162.5 312.2 161.6 314.2 161.6 315.3 161.6 316.45 162.15 317.5 162.2 317.6 162.25 317.65 162.75 318.55 163.7 319.35 164.75 320.25 166.35 321 169.4 322.5 179.5 326.2 181.6 327.05 186.5 328.65
L 186.55 328.65
Q 193.6 330.95 206.45 334.85 207.25 335.1 208.05 335.35 209.4 335.35 239.95 330.1 270.55 324.85 285.8 324.85 303.5 324.85 313.75 327.4 318.9 328.7 321.7 329.95 324.65 329.9 327.25 330 327.3 330 327.4 330 337.95 330.4 341.55 332.9 342.4 333.5 343.6 335.1 344 335.6 344.5 335.85 344.95 336.1 345.55 336.1 365.4 336.1 382.45 330.45 385 329.65 393.6 326.35 398.95 324.3 401.65 323.95 424.55 321.25 449.55 318.4 453.2 317.85 455.85 317.15 455.95 317.1 456.15 317.1 458.5 316.45 459.95 315.75 463.1 314.2 463.1 311.6 463.1 310.45 462.2 308.2 461.3 305.95 461.3 304.95 470.5 303.8 475.95 302.3 479 301.5 482.9 300.15 489.95 298.1 514.3 298.1 523.05 298.1 533.05 295.2 544.85 291.8 549 290.6
L 549 288.65
Q 539.75 283.45 522.25 281.35
L 522.25 280.65
Q 521.05 281.9 519.9 283.1 516.55 282.25 511.85 281 497.25 279.05 475.15 284.35 453 289.65 458.4 286.6 463.85 283.5 440.95 279.55 431.9 277.95 426.45 278.3 421.9 272.1 418.25 263.8 411.95 264.3 407.65 266.85
L 420.6 277.4 408.2 277.85 399.75 270.45
Q 398.45 270.7 396.95 270.8 395.85 270.85 394.7 270.85 393.6 270.85 392.35 270.8 388.05 270.55 382.05 269.55 374.3 268.25 370.5 268.25 368.6 268.25 362.1 269.55 361.6 269.65 361.1 269.75
L 361.3 273.3 360.3 273.3 359.95 273.5 359.25 273.6
Q 361.3 273.9 363.75 274.3 363.85 274.35 364 274.35 374.7 276.05 391.95 276.7 374.55 276.45 363.75 276.55 353.7 276.6 349.25 277 347.9 277.05 346.6 277.2 338 277.65 330.25 276.35 321.25 274.85 316.3 274.85 313.75 274.85 311.55 275.1 307.8 275.4 305.2 276.35 301 277.85 295.65 277.85 294.35 277.85 265.95 274.25 262.05 278.85 258.65 282.1 258.4 282.05 258.15 282.05 258.05 282.05 254.2 283.5 250.3 284.9 247.75 284.9 240.45 284.9 234.5 284.05 228.55 283.2 213.95 283.2 210.4 283.2 197 281.3 183.7 279.4 179.2 279.4 175.45 279.4 172.35 280.75 171.5 281.1 170.7 281.35 166.95 277.45 163.7 272.35 154.1 273.85 150 273.85 142.2 273.85 118.05 270.9 93.9 267.95 89.1 267.95 88.45 267.95 84.6 268.45 80.7 268.9 80.1 268.9 78.5 268.9 58.65 266.45 20.85 269.1 -0.95 269.75
M 333.9 291.5
Q 337.45 291.85 341.2 292.3 341.4 292.3 341.6 292.3 341.65 292.3 341.75 292.3 354.25 293.7 367.9 295.5
L 367.95 295.5
Q 384.55 297.65 402.9 300.4
L 402.8 300.8
Q 397.2 306.65 391.65 311.1 388.5 310.55 387.9 310.55 386 310.55 376.75 313.25 367.5 315.95 359.2 315.95 357.2 315.95 348 314.6 337.45 313.1 332.4 312.7 328.05 312.3 319.9 312.75 312.4 313.25 311.7 313.25 308.3 313.25 305.3 312.9 302.35 312.5 299.8 311.8 298.3 311.35 291.5 308.6 289.3 307.7 286.85 307 281.15 300.7 276.2 288.4
L 276.2 288.35 276.55 287.7
Q 276.35 287.6 276.2 287.55 276.15 287.5 276.1 287.45 276.15 287.45 276.2 287.45 290.25 287.8 306.95 289.05 307.05 289.05 307.1 289.05 319.7 290 333.9 291.5
M -0.95 281.1
L -0.95 288.8
Q 1.9 289.05 5.1 289.45 17.85 291.05 23.35 292.35 29.75 294.4 53.8 302.6
L 54.85 303.85
Q 52.75 305.7 50.9 308.75 49.85 310.4 48.1 313.4 54 316.85 77.55 320.6 108 325.4 152.15 327.35 155.15 327.5 157.95 327.65 157.9 327.35 157.9 327 157.9 325.25 159.25 322.7 160.1 321.1 160.4 320 160.6 319.3 160.6 318.8 160.6 317.15 127.4 309.5 125.15 309 123 308.5
L 134.15 308.25
Q 133.55 308.15 132.95 308.1 125.3 307.2 124.15 307.2 121.85 307.2 118.4 306.55
L 118.2 307.35
Q 119.6 307.65 120.55 307.95 119.35 307.65 118.2 307.4
L 118.15 307.4
Q 117 307.1 115.85 306.85 113.65 306.35 111.55 305.85
L 111.5 305.85
Q 106.6 304.7 102.15 303.7
L 102.1 303.7
Q 62.25 294.5 60 293.95 59.8 295.15 59.8 292.9 59.8 292.6 62.9 289.85 66.2 286.85 66.85 285.5 64.85 284.9 65.55 284.2 66.25 283.4 66 283.25 65.6 283.05 63.4 282.85 63.35 282.85 63.3 282.85 61.9 282.75 59.95 282.65
L 59.9 282.65
Q 52.75 282.25 37.4 282 36.15 282 34.95 281.95
L 34.9 281.95
Q 14.4 281.65 -0.95 281.1
M 122.3 308.5
Q 124.75 309.65 111.2 308.75
L 122.3 308.5 Z"/>

<path fill="#FFCC00" stroke="none" d="
M 208.15 266.35
L 204.1 269.2
Q 214.5 270 225 269.75
L 222.05 266.35 208.15 266.35
M 186.8 267.05
L 188.9 264.65 172.7 264.2
Q 179.7 265.85 186.8 267.05
M 245.05 268.3
Q 251.4 267.5 257.85 266.3
L 243.25 266.2 245.05 268.3
M 503.35 268.3
L 505.15 270.4
Q 511.5 269.6 517.95 268.4
L 503.35 268.3
M 446.9 269.15
L 449 266.75 432.8 266.3
Q 439.8 267.95 446.9 269.15
M 482.15 268.45
L 468.25 268.45 464.2 271.3
Q 474.6 272.1 485.1 271.85
L 482.15 268.45 Z"/>

<path fill="#99CCCC" stroke="none" d="
M 275.5 229.2
Q 275 229 274.6 228.75 273.1 227.9 272.55 229.15 272.4 229.6 271.65 229.6 269.1 229.6 266.95 227.95 266.35 227.45 265.7 227.8 265.3 227.95 265.05 228.6 264.8 229.45 264.45 230.1
L 275.8 229.4
Q 275.65 229.3 275.5 229.2
M 250.55 230.35
Q 249.35 230.7 248.2 231.1
L 256.85 230.55
Q 255 229.4 252.1 229.9 251.35 230.1 250.55 230.35
M 80.3 201.4
L 79.7 201.2
Q 79.85 201.35 80 201.5 80.15 201.7 80.35 201.9 80.3 201.7 80.3 201.4
M 139.85 207.8
Q 136.05 206.85 134.2 209.15 133 210.75 130.3 209.95 129.9 209.85 129.5 209.45 126.85 206.7 124 204.6 122.5 203.5 121.15 201.8 120.05 200.4 117.8 201.05 117.45 201.25 117 201.35 115.4 201.7 114.05 200.25 113.6 199.8 112.9 199.65 112.3 199.55 111.75 199.15 111.65 201.85 111.65 204.55 112.15 204.75 112.65 205 126.7 211.75 112 213.4 112 213.45 112 213.5
L 111.75 213.4
Q 110.95 213.5 110.05 213.55 136.85 220.55 124.75 223.9 124.95 223.85 125.15 223.8 132.55 222.05 139.3 222.4 139.45 222.4 139.55 222.4 141.25 215.25 143.5 208.4 141.6 208.3 139.85 207.8
M 359.3 235.2
Q 359.15 235.2 359.05 235.2
L 361.1 269.75
Q 361.6 269.65 362.1 269.55 368.6 268.25 370.5 268.25 374.3 268.25 382.05 269.55 388.05 270.55 392.35 270.8 394.15 270.6 396 270.7 396.45 270.75 396.95 270.8 398.45 270.7 399.75 270.45
L 359.3 235.2
M 335.6 242.25
Q 334.2 242.8 333.65 243.5 333.25 244.05 332.55 243.8 330.95 243.35 330.65 244.55 328.7 243.35 328.2 244.7 328.05 245.1 327.3 245.15 322.5 245.45 320.2 242.5 319.75 241.95 319.05 242.25 317.6 242.8 317.15 243.5 316.75 244.05 316 243.95 314.6 243.95 313.4 242.5 313 241.95 312.25 241.8 310.15 241.2 308.95 239.15 308 237.45 305.5 238.1 304.7 238.35 303.9 238.55 300.2 239.45 299.2 235.8 299.05 235.2 298.65 235 298.4 234.85 298.15 234.75
L 294 235.1
Q 293 235.9 291.25 235.35
L 267.8 237.35
Q 268.85 238.05 270 238.85 273.65 241.45 278.35 245.7
L 278.9 246.95
Q 279.65 246.6 280.4 246.2 284.3 244.2 286.5 244.2 293.55 244.2 298.05 244.35 302.6 244.55 317 248.55 331.35 252.5 327.85 259.8 326.75 262 325.7 263.7 328.85 264.7 334.3 267.7 335.7 268.45 337.05 269.05 343.6 270.1 348.05 270.55 348.9 270.35 349.7 270.05 349.4 270.35 349.1 270.65 351.4 270.85 353.05 270.85 354.25 270.85 356.35 270.6
L 353.3 236.65
Q 351.8 236.3 350.6 234.7 348.4 236.35 346.3 240.4 346.05 240.9 345.35 240.7 344.2 240.4 343 240.1 338.7 239.05 336.7 241.45 336.3 241.95 335.6 242.25
M 460.5 241.35
Q 456.95 241.6 453.6 240.8 449.1 239.75 446.7 243.8 445.35 246.1 443.75 247.2 443.15 247.6 442.65 247.15 441.05 245.65 439 245.35 438.3 245.2 437.6 245.15 432.05 244.7 426.5 244.7 425.85 244.7 425.3 245.15 424.2 245.9 422.4 246.1 421.65 246.2 420.9 246.35 419.2 246.65 417.55 246.25 415.2 245.75 412.55 244.5 411.95 243.95 411.35 243.5 406.65 239.65 404 239.45 403.55 239.35 403.2 238.85 402.1 237.35 400.75 238.4 400.25 238.85 399.55 238.55 399.1 238.35 398.65 238.25 394.95 237.8 391.2 237.45 390.45 237.3 389.65 237.3 387.65 237 386.8 235.35 386.7 235.2 385.85 235.35 384.05 235.75 382.2 235.35 381.4 235.2 380.6 234.85 379.15 234.2 377.7 233.5 376.9 233.2 376.1 233 373.6 232.55 371.45 234.25 370.85 234.7 370.25 234.35 368.8 233.25 366.4 233.35
L 407.65 266.85
Q 411.95 264.3 418.25 263.8 417.95 263.1 417.65 262.4
L 418.15 262.2
Q 475.4 261.9 533.9 264.8 534.25 264.7 534.55 264.6 534.9 264.55 535.2 264.45 534.65 265.2 534.15 265.95 541.6 266.4 549 267.25
L 549 249.1
Q 545.9 249.9 542.4 249.65 541.35 249.5 540.4 249.1 539.25 248.55 538.15 248.05 535.65 246.7 532.8 244.5 532 243.75 531.15 243.2 530.6 242.8 530.15 242.35 528.65 240.65 525.75 241.2 524.7 241.35 523.65 241.75 521.15 242.55 518.8 243.8 518.1 244.25 517.4 244.25 510.1 244.7 502.8 244.7 501.75 244.7 501.4 245.45 500.85 246.35 499.35 246.05 497.65 245.65 495.9 245.35 495.2 245.2 494.45 245.15 491.05 244.7 487.65 245.15 486.9 245.2 486.1 245.45 484.25 245.9 482.85 244.5 481.3 242.8 479.3 242.35 477.75 242.05 475.8 242.2 472.35 242.5 468.85 242.8 467.85 242.8 466.8 242.35 464.4 241.3 460.5 241.35
M -0.95 288.8
L -0.95 297.05
Q -0.45 297.5 0.05 297.95 6.8 304.15 8.25 304.75 17.2 308.35 21.2 310.55 27.05 313.8 27.05 316.3 27.05 317.45 26.15 318.9 25.25 320.4 25.25 321.5 25.25 323.85 28.9 325 31.8 325.9 39.6 326.7 67.3 329.55 80.7 332.2 90.55 334.1 101.9 336.85 114.6 339.85 120.3 341.05 123.75 341.8 135.95 346.35 142.2 348.65 146.05 350.05 149.4 352.7 153 356.75 153 356.8 153.05 356.8 152.85 357.6 152.6 358.5 152.65 359.35 153.5 360.4 154.2 361.25 154.95 361.75 155.35 362.05 156.7 362.55 158.2 363.1 158.8 363.1
L 216.85 364.25
Q 218.35 364.25 263.2 359.95 308.1 355.6 309.55 355.6 311 355.6 312.7 356.55 314.15 357.3 314.15 357.6 314 358.05 312.65 359.6 311.7 361.25 312.85 362.4 316.35 365.95 339.7 365.95 351.7 365.95 390.2 360.35 409.6 357.5 428.1 354.45 454.9 350.1 492.55 347.55 503.4 346.8 506.85 345.85 511.25 344.65 511.25 341.65 511.25 340.55 510.35 338 509.45 335.45 509.45 334.3 509.45 334.1 523.8 329.7 528.4 328.3 533 326.9 532.25 326.9 531.6 326.95
L 531.6 324.2 532.3 323.2 532.3 318.45
Q 535.1 317.95 549 315.95
L 549 311.4
Q 545.35 311.6 541.45 311.7 538 311.8 534.4 311.8 531.85 311.8 530.65 311.45 529.55 310.9 528.65 310.65 528 310.45 527 310.25 522.25 311.3 517.75 311.75 514.9 312 512.2 312.05 511.7 312.05 511.25 312.05 508.45 312.05 505.95 312.1 505.05 313.1 504.3 314.5 501 320.45 498.65 321.6 496.05 322.85 477.85 325.9 459.9 328.85 441.85 331.05 430.2 332.55 422.35 333.6 407.25 337.65 396.45 340.4 375.75 345.75 370.05 346.3 355.7 349.85 349.7 349.85 346.45 349.85 343.05 348.1 339.05 345.65 336.7 344.25 327.3 338.6 314.95 338.6 306.85 338.6 271.75 341.95 258.85 343.15 247.9 343.95 227.35 347.15 224.8 347.15 218.95 347.15 214.1 346.05 213.75 345.95 213.4 345.85 212.15 345.55 211 345.2 200.2 344.85 196.65 342.9 195 342 194.25 340.4 193.65 338.5 193.25 337.5 192.6 335.7 190.85 334.3 188.1 333.05 185.4 332.2 184.45 331.9 183.55 331.65 173.8 329.05 159.35 329.25 158.85 329.25 158.35 329.25 158.35 329.15 158.15 328.75 157.95 328.45 157.95 327.65 155.15 327.5 152.15 327.35 108 325.4 77.55 320.6 54 316.85 48.1 313.4 49.85 310.4 50.9 308.75 52.75 305.7 54.85 303.85
L 53.8 302.6
Q 29.75 294.4 23.35 292.35 17.85 291.05 5.1 289.45 1.9 289.05 -0.95 288.8
M 153.35 355.1
Q 153.3 355.5 153.2 355.95
L 153.2 355.9 153.35 355.1
M 213.45 345.6
Q 213.9 345.7 214.25 345.7 219.35 345.7 225.8 345.1 220.45 345.25 215.8 345.25 214 345.25 212.4 345.25 213 345.45 213.45 345.6
M 160.2 327.8
Q 159.7 327.75 159.25 327.75 159.25 328.35 159.3 328.3 159.4 327.9 159.45 328 159.8 327.9 160.2 327.8
M 523.7 309.85
Q 519.15 309.45 511.25 309.45 508.8 309.45 506.85 311.2 509.35 311.15 512.15 311.15 514.85 311.15 517.75 310.85 520.6 310.5 523.7 309.85
M -0.5 189.8
Q -0.7 190 -0.95 190.15
L -0.95 212.4
Q 0.05 211.4 1.15 210.4 20.2 193.1 43.2 191.1 66.15 189.05 75.55 197.05 76.35 197.75 77.25 198.6 81.2 190.75 85.45 183.2 84.95 183 84.4 182.9 81.3 182.1 78.15 181.95 75.25 181.85 73.8 180.2 73.35 179.8 72.65 179.85 71.25 180.2 69.9 180.2 69.55 180.2 69.15 180 67.1 179.35 66.1 178.3 65.7 177.85 65.05 178 63.95 178.3 62.9 178.45 60.6 178.8 58.55 177.4 55.25 178.05 53.75 179.35 53.2 179.8 52.5 179.8 49.45 179.55 46.8 181.25 45.6 182.1 44.25 182.75 42.85 183.55 41.45 184.6 39.35 186.4 38.35 184.8 38 184.1 37.25 183.85 35.5 183.55 33.8 183.1 33.45 183.1 33.05 183.05 31.15 182.75 30.15 182 29.6 181.65 28.95 181.4 28.25 181.2 27.5 180.9 24.65 180 24.45 183.5 24.45 184.1 24.1 184.5 22.3 187.7 19.95 185.25 19 184.3 17.1 184.3 15.85 184.35 14.9 183.85 13.7 183.1 12.7 184.1 12.3 184.5 11.65 184.3 10.15 183.85 9.7 185.2 9.5 186 8.85 186.5 8.45 186.95 8.05 187.2 5.6 188.65 1.85 188.45 0.55 188.4 -0.5 189.8 Z"/>

<path fill="url(#Gradient_1)" stroke="none" d="
M 294 235.1
L 291.25 235.35
Q 293 235.9 294 235.1
M 394.7 270.85
Q 395.85 270.85 396.95 270.8 396.45 270.75 396 270.7 394.15 270.6 392.35 270.8 393.6 270.85 394.7 270.85
M 359.05 235.2
Q 359.15 235.2 359.3 235.2
L 359 234.95 359.05 235.2
M 333.65 243.5
Q 334.2 242.8 335.6 242.25 336.3 241.95 336.7 241.45 338.7 239.05 343 240.1 344.2 240.4 345.35 240.7 346.05 240.9 346.3 240.4 348.4 236.35 350.6 234.7 351.8 236.3 353.3 236.65
L 352.7 230.05 298.15 234.75
Q 298.4 234.85 298.65 235 299.05 235.2 299.2 235.8 300.2 239.45 303.9 238.55 304.7 238.35 305.5 238.1 308 237.45 308.95 239.15 310.15 241.2 312.25 241.8 313 241.95 313.4 242.5 314.6 243.95 316 243.95 316.75 244.05 317.15 243.5 317.6 242.8 319.05 242.25 319.75 241.95 320.2 242.5 322.5 245.45 327.3 245.15 328.05 245.1 328.2 244.7 328.7 243.35 330.65 244.55 330.95 243.35 332.55 243.8 333.25 244.05 333.65 243.5
M -0.95 190.15
Q -0.7 190 -0.5 189.8 0.55 188.4 1.85 188.45 5.6 188.65 8.05 187.2 8.45 186.95 8.85 186.5 9.5 186 9.7 185.2 10.15 183.85 11.65 184.3 12.3 184.5 12.7 184.1 13.7 183.1 14.9 183.85 15.85 184.35 17.1 184.3 19 184.3 19.95 185.25 22.3 187.7 24.1 184.5 24.45 184.1 24.45 183.5 24.65 180 27.5 180.9 28.25 181.2 28.95 181.4 29.6 181.65 30.15 182 31.15 182.75 33.05 183.05 33.45 183.1 33.8 183.1 35.5 183.55 37.25 183.85 38 184.1 38.35 184.8 39.35 186.4 41.45 184.6 42.85 183.55 44.25 182.75 45.6 182.1 46.8 181.25 49.45 179.55 52.5 179.8 53.2 179.8 53.75 179.35 55.25 178.05 58.55 177.4 60.6 178.8 62.9 178.45 63.95 178.3 65.05 178 65.7 177.85 66.1 178.3 67.1 179.35 69.15 180 69.55 180.2 69.9 180.2 71.25 180.2 72.65 179.85 73.35 179.8 73.8 180.2 75.25 181.85 78.15 181.95 81.3 182.1 84.4 182.9 84.95 183 85.45 183.2 126.55 109.3 187.55 65
L 187.55 64.95 187.95 65.55
Q 114.15 130.3 111.75 199.15 112.3 199.55 112.9 199.65 113.6 199.8 114.05 200.25 115.4 201.7 117 201.35 117.45 201.25 117.8 201.05 120.05 200.4 121.15 201.8 122.5 203.5 124 204.6 126.85 206.7 129.5 209.45 129.9 209.85 130.3 209.95 133 210.75 134.2 209.15 136.05 206.85 139.85 207.8 141.6 208.3 143.5 208.4 153.95 175.55 175.7 149.65 174.6 149.45 173.5 149.3 166.35 148.15 159.25 147.4 173.7 137.9 189.4 130.55
L 191.7 135.2 189.5 130.45 189.6 130.4
Q 192.7 128.95 195.9 127.6 195.95 127.55 196.05 127.5 207.45 122.5 219.5 118.65
L 283.6 188.05
Q 261.75 176.25 240.15 167.75 233.75 196.85 244.65 231.3
L 248.2 231.1
Q 249.35 230.7 250.55 230.35 251.35 230.1 252.1 229.9 255 229.4 256.85 230.55
L 264.45 230.1
Q 264.8 229.45 265.05 228.6 265.3 227.95 265.7 227.8 266.35 227.45 266.95 227.95 269.1 229.6 271.65 229.6 272.4 229.6 272.55 229.15 273.1 227.9 274.6 228.75 275 229 275.5 229.2 275.65 229.3 275.8 229.4
L 347.6 225 346 223.6 349.5 219.6 351.95 221.6 350.4 204.75 356.75 203.8 357.1 203.8 358.35 224.35 377.35 223.15 378.25 227.85 361.4 229.3 366.4 233.35
Q 368.8 233.25 370.25 234.35 370.85 234.7 371.45 234.25 373.6 232.55 376.1 233 376.9 233.2 377.7 233.5 379.15 234.2 380.6 234.85 381.4 235.2 382.2 235.35 384.05 235.75 385.85 235.35 386.7 235.2 386.8 235.35 387.65 237 389.65 237.3 390.45 237.3 391.2 237.45 394.95 237.8 398.65 238.25 399.1 238.35 399.55 238.55 400.25 238.85 400.75 238.4 402.1 237.35 403.2 238.85 403.55 239.35 404 239.45 406.65 239.65 411.35 243.5 411.95 243.95 412.55 244.5 415.2 245.75 417.55 246.25 419.2 246.65 420.9 246.35 421.65 246.2 422.4 246.1 424.2 245.9 425.3 245.15 425.85 244.7 426.5 244.7 432.05 244.7 437.6 245.15 438.3 245.2 439 245.35 441.05 245.65 442.65 247.15 443.15 247.6 443.75 247.2 445.35 246.1 446.7 243.8 449.1 239.75 453.6 240.8 456.95 241.6 460.5 241.35 464.4 241.3 466.8 242.35 467.85 242.8 468.85 242.8 472.35 242.5 475.8 242.2 477.75 242.05 479.3 242.35 481.3 242.8 482.85 244.5 484.25 245.9 486.1 245.45 486.9 245.2 487.65 245.15 491.05 244.7 494.45 245.15 495.2 245.2 495.9 245.35 497.65 245.65 499.35 246.05 500.85 246.35 501.4 245.45 501.75 244.7 502.8 244.7 510.1 244.7 517.4 244.25 518.1 244.25 518.8 243.8 521.15 242.55 523.65 241.75 524.7 241.35 525.75 241.2 528.65 240.65 530.15 242.35 530.6 242.8 531.15 243.2 532 243.75 532.8 244.5 535.65 246.7 538.15 248.05 539.25 248.55 540.4 249.1 541.35 249.5 542.4 249.65 545.9 249.9 549 249.1
L 549 -2.95 -0.95 -2.95 -0.95 190.15
M 250.2 28.95
L 250.2 29.45
Q 222.35 28.2 222.85 53.5 202.65 31.7 189.75 59.25 202.05 -4 250.2 28.95
M 185.5 60.55
L 185.4 61.05
Q 158.3 54.4 153.85 79.3 138.25 53.95 120.25 78.5 144.7 18.85 185.5 60.55
M 205.4 92.4
Q 221 67.15 191 62.05 255.2 57 236.35 112.15
L 235.9 112.3
Q 229.65 85.1 205.4 92.4 Z"/>

<path fill="#996600" stroke="none" d="
M 158.05 260.1
L 157.55 260.3
Q 160.35 267 163.7 272.35 166.95 277.45 170.7 281.35 171.5 281.1 172.35 280.75 175.45 279.4 179.2 279.4 183.7 279.4 197 281.3 210.4 283.2 213.95 283.2 228.55 283.2 234.5 284.05 240.45 284.9 247.75 284.9 250.3 284.9 254.2 283.5 258.05 282.05 258.15 282.05 258.4 282.05 258.65 282.1 262.05 278.85 265.95 274.25 266.75 273.3 267.6 272.25 271.15 267.85 275.1 262.35 274.8 262.45 274.45 262.5 274.15 262.6 273.8 262.7 265.8 264.8 257.85 266.3 251.4 267.5 245.05 268.3 244.7 268.35 244.35 268.4 234.65 269.55 225 269.75 214.5 270 204.1 269.2 203.85 269.15 203.65 269.15 195.2 268.45 186.8 267.05 179.7 265.85 172.7 264.2 165.35 262.4 158.05 260.1
M 219.85 208.6
L 215.65 208.2 200.1 207 197.25 207.05 175.35 205.6 170.75 205.35 171.3 209.25 218.1 212.6 219.85 208.6
M 184.75 180.05
L 195.1 178.9 202.85 178.05 212.1 176.95 211.75 173.55 186.2 176.3 186.2 176.35 184.75 180.05
M 195.8 133.3
Q 193.7 134.2 191.7 135.2
L 204.2 152.5
Q 206.25 153 208.25 153.6
L 208.4 153 195.8 133.3
M 234.55 141.8
L 231.3 138.25 211.95 154.65
Q 213.65 155.1 215.3 155.65 215.4 155.65 215.5 155.7
L 234.55 141.8
M 218.85 124.45
Q 216.75 125.15 214.75 125.85
L 214.85 126.2 209.1 153.85
Q 209.3 153.9 209.55 153.95
L 210.65 154.3 211.75 154.55 219.65 125.4 218.85 124.45
M 423.2 263.75
Q 420.7 263 418.15 262.2
L 417.65 262.4
Q 417.95 263.1 418.25 263.8 421.9 272.1 426.45 278.3 431.9 277.95 440.95 279.55 463.85 283.5 458.4 286.6 453 289.65 475.15 284.35 497.25 279.05 511.85 281 516.55 282.25 519.9 283.1 521.05 281.9 522.25 280.65
L 522.25 280 522.85 280
Q 528 274.35 534.15 265.95 534.65 265.2 535.2 264.45 534.9 264.55 534.55 264.6 534.25 264.7 533.9 264.8 532.05 265.3 530.25 265.75 524.05 267.25 517.95 268.4 511.5 269.6 505.15 270.4 495.1 271.65 485.1 271.85 474.6 272.1 464.2 271.3 463.95 271.25 463.75 271.25 455.3 270.55 446.9 269.15 439.8 267.95 432.8 266.3 428 265.1 423.2 263.75
M 341.2 292.3
Q 337.45 291.85 333.9 291.5 319.7 290 307.1 289.05 307.05 289.05 306.95 289.05 290.25 287.8 276.2 287.45 276.15 287.45 276.1 287.45 276.15 287.5 276.2 287.55 276.35 287.6 276.55 287.7 283.45 291.35 291.65 294.2
L 306.8 292.6 314.9 293.25 305.35 298.1
Q 313.2 299.95 321.95 301.15 322.1 301.2 322.25 301.2 323.9 301.4 325.6 301.6
L 325.65 301.6 324.9 301.4 333.45 296.1 341.2 296.5 341.2 296.85 337.95 302.75
Q 338.45 302.8 338.95 302.8 339 302.8 339.05 302.8 339.7 302.85 340.4 302.9 349.25 303.4 358.55 303.35
L 360.8 298.6 367.5 298.95 370.55 303.15
Q 370.6 303.15 370.65 303.15 385.85 302.6 402.8 300.8
L 402.9 300.4
Q 384.55 297.65 367.95 295.5
L 367.9 295.5
Q 354.25 293.7 341.75 292.3 341.65 292.3 341.6 292.3 341.4 292.3 341.2 292.3 Z"/>

<path fill="#FFCC99" stroke="none" d="
M 112 213.4
Q 111.85 213.4 111.75 213.4
L 112 213.5
Q 112 213.45 112 213.4
M 187.95 65.55
L 187.55 65
Q 126.55 109.3 85.45 183.2 81.2 190.75 77.25 198.6 78.4 199.75 79.7 201.2
L 80.3 201.4
Q 80.3 201.3 80.3 201.2 80.3 201.15 80.3 201.1 80.3 199.65 83.8 197.95 86.95 196.45 91.3 196.65 95.5 196.9 111.65 204.55 111.65 201.85 111.75 199.15 114.15 130.3 187.95 65.55 Z"/>

<path fill="#FF9933" stroke="none" d="
M 202.85 178.05
L 195.1 178.9 197.25 207.05 200.1 207 202.85 178.05
M 241.3 164.45
Q 241.35 164.45 241.4 164.5 252.35 168.55 263 173.3
L 234.55 141.8 215.5 155.7
Q 221 157.4 226.45 159.15
L 226.55 159.2
Q 234 161.7 241.3 164.45
M 176.65 145.9
L 176.65 145.95
Q 190.65 148.8 204.15 152.5 204.15 152.45 204.2 152.5
L 191.7 135.2
Q 182.15 139.75 174.15 145.05
L 174.1 145.4
Q 175.35 145.7 176.65 145.9
M 231.3 138.25
L 219.65 125.4 211.75 154.55 210.65 154.3
Q 211.2 154.45 211.75 154.6 211.85 154.65 211.95 154.65
L 231.3 138.25
M 214.75 125.85
Q 214.7 125.85 214.65 125.85 205.85 128.9 198 132.35 197.3 132.65 196.6 132.95
L 196.55 132.95
Q 196.2 133.1 195.8 133.3
L 208.4 153 208.25 153.6
Q 208.65 153.7 209.1 153.85
L 214.85 126.2 214.75 125.85
M 352.65 229.4
L 347.6 225 275.8 229.4 264.45 230.1 256.85 230.55 248.2 231.1 244.65 231.3 239.6 231.6 241.55 233.6
Q 243.55 234.8 244.5 235.4
L 244.55 235.4 244.05 236.2 244.6 236.8
Q 245.05 236.75 245.5 236.7 247.65 236.4 250 235.35 253.3 233.85 257.4 233.85 262.15 233.85 267.8 237.35
L 291.25 235.35 294 235.1 298.15 234.75 352.7 230.05 352.65 229.4
M 378.25 227.85
L 377.35 223.15 358.35 224.35 358.5 226.95 361.4 229.3 378.25 227.85 Z"/>

<path fill="#FFFFFF" stroke="none" d="
M 212.1 176.95
L 202.85 178.05 200.1 207 215.65 208.2 212.1 176.95
M 195.1 178.9
L 184.75 180.05 175.35 205.6 197.25 207.05 195.1 178.9
M 526.45 280
L 522.85 280 522.25 280 522.25 280.65 522.25 281.35
Q 539.75 283.45 549 288.65
L 549 286.7
Q 548.85 286.6 548.7 286.55 547.6 286 547 285.5
L 548.35 285.4
Q 548.65 285.4 549 285.45
L 549 283.75
Q 541.15 282.35 526.45 280
M 111.2 308.75
Q 124.75 309.65 122.3 308.5
L 111.2 308.75
M -0.95 276.75
L -0.95 281.1
Q 14.4 281.65 34.9 281.95
L 34.95 281.95
Q 36.15 282 37.4 282 52.75 282.25 59.9 282.65
L 59.95 282.65
Q 61.9 282.75 63.3 282.85 63.35 282.85 63.4 282.85 65.6 283.05 66 283.25 66.25 283.4 65.55 284.2 64.85 284.9 66.85 285.5 66.2 286.85 62.9 289.85 59.8 292.6 59.8 292.9 59.8 295.15 60 293.95 62.25 294.5 102.1 303.7
L 102.15 303.7
Q 106.6 304.7 111.5 305.85
L 111.55 305.85
Q 113.65 306.35 115.85 306.85 117 307.1 118.15 307.4
L 118.2 307.4
Q 119.35 307.65 120.55 307.95 119.6 307.65 118.2 307.35
L 118.4 306.55
Q 121.85 307.2 124.15 307.2 125.3 307.2 132.95 308.1 133.55 308.15 134.15 308.25
L 123 308.5
Q 125.15 309 127.4 309.5 160.6 317.15 160.6 318.8 160.6 319.3 160.4 320 160.1 321.1 159.25 322.7 157.9 325.25 157.9 327 157.9 327.35 157.95 327.65 157.95 328.45 158.15 328.75 158.35 329.15 158.35 329.25 158.85 329.25 159.35 329.25 173.8 329.05 183.55 331.65 184.45 331.9 185.4 332.2 188.1 333.05 190.85 334.3 194.2 335.8 197.5 337.85 206.2 343.25 208.5 344.25 209.7 344.75 211 345.2 212.15 345.55 213.4 345.85 213.75 345.95 214.1 346.05 218.95 347.15 224.8 347.15 227.35 347.15 247.9 343.95 252.15 343.25 257.2 342.45 292.85 337.7 327.1 337.7 329.4 337.7 331.7 339.05 336.05 341.6 337 342.05 339.85 343.3 343.75 344.2 353.2 346.35 368.95 346.35 369.4 346.35 370.05 346.3 375.75 345.75 396.45 340.4 407.25 337.65 422.35 333.6 424.1 333.15 425.95 332.65 433.3 330.85 451.45 326.6 454.45 325.9 457.7 325.15 457.75 325.1 457.8 325.1 458.1 325 458.4 324.95 478.35 320.05 481 318.25 479.6 316.15 479.2 314.95 481.9 314.8 483.85 313.4 488.7 312.2 505.95 312.1 508.45 312.05 511.25 312.05 511.7 312.05 512.2 312.05 514.9 312 517.75 311.75 522.25 311.3 527 310.25 533.9 308.75 541.3 305.95 545.1 304.55 549 302.95
L 549 290.6
Q 544.85 291.8 533.05 295.2 523.05 298.1 514.3 298.1 489.95 298.1 482.9 300.15 479 301.5 475.95 302.3 470.5 303.8 461.3 304.95 461.3 305.95 462.2 308.2 463.1 310.45 463.1 311.6 463.1 314.2 459.95 315.75 458.5 316.45 456.15 317.1 455.95 317.1 455.85 317.15 453.2 317.85 449.55 318.4 424.55 321.25 401.65 323.95 398.95 324.3 393.6 326.35 385 329.65 382.45 330.45 365.4 336.1 345.55 336.1 344.95 336.1 344.5 335.85 344 335.6 343.6 335.1 342.4 333.5 341.55 332.9 337.95 330.4 327.4 330 327.3 330 327.25 330 324.65 329.9 321.7 329.95 318.9 328.7 313.75 327.4 303.5 324.85 285.8 324.85 270.55 324.85 239.95 330.1 209.4 335.35 208.05 335.35 207.25 335.1 206.45 334.85 193.6 330.95 186.55 328.65
L 186.5 328.65
Q 181.6 327.05 179.5 326.2 169.4 322.5 166.35 321 164.75 320.25 163.7 319.35 162.75 318.55 162.25 317.65 162.2 317.6 162.15 317.5 161.6 316.45 161.6 315.3 161.6 314.2 162.5 312.2 163.4 310.25 163.4 309.1 163.4 307.75 163.35 307.7 163.3 307.8 163.15 307.45
L 159.45 307.2
Q 153.6 307.55 148.4 307.65 150.75 307.2 153.4 307
L 153.4 305.65
Q 149.55 306.1 143.55 307.1 138.85 307.9 137.75 307.9 137.35 307.9 136.75 307.85 134.9 307.6 131.1 306.65 126 305.4 124.15 305.4 119 305.4 116.35 304.6 115.45 304.3 114.85 303.95 111.55 302 103.6 300.55 103.4 300.45 103.2 300.4 103.1 300.35 103.05 300.35 99.6 299.25 96.7 298.55 90.45 297.1 82.1 290.85 72.7 283.85 71.05 283.15 67.2 283 63.3 282.8 61.6 282.7 59.9 282.6 49.1 282 37.5 281.1 36.25 281 34.95 280.9 13.1 279.15 -0.95 276.75
M 511.25 309.45
Q 519.15 309.45 523.7 309.85 520.6 310.5 517.75 310.85 514.85 311.15 512.15 311.15 509.35 311.15 506.85 311.2 508.8 309.45 511.25 309.45
M 159.25 327.75
Q 159.7 327.75 160.2 327.8 159.8 327.9 159.45 328 159.4 327.9 159.3 328.3 159.25 328.35 159.25 327.75
M 214.25 345.7
Q 213.9 345.7 213.45 345.6 213 345.45 212.4 345.25 214 345.25 215.8 345.25 220.45 345.25 225.8 345.1 219.35 345.7 214.25 345.7
M 1367.6 302.95
Q 1363.7 304.55 1359.9 305.95 1352.5 308.75 1345.6 310.25 1346.6 310.45 1347.25 310.65 1348.15 310.9 1349.25 311.45 1350.45 311.8 1353 311.8 1356.6 311.8 1360.05 311.7 1363.95 311.6 1367.6 311.4
L 1367.6 302.95
M 1341.45 280
L 1345.05 280
Q 1359.75 282.35 1367.6 283.75
L 1367.6 267.25
Q 1360.2 266.4 1352.75 265.95 1346.6 274.35 1341.45 280
M 1345.05 280
L 1341.45 280 1340.85 280 1340.85 280.65 1340.85 281.35
Q 1358.35 283.45 1367.6 288.65
L 1367.6 286.7 1367.6 283.75
Q 1359.75 282.35 1345.05 280
M 1321.95 268.3
L 1323.75 270.4
Q 1330.1 269.6 1336.55 268.4
L 1321.95 268.3
M 898.3 201.2
Q 898.45 201.35 898.6 201.5 898.75 201.7 898.95 201.9 898.9 201.7 898.9 201.4
L 898.3 201.2
M 958.45 207.8
Q 954.65 206.85 952.8 209.15 951.6 210.75 948.9 209.95 948.5 209.85 948.1 209.45 945.45 206.7 942.6 204.6 941.1 203.5 939.75 201.8 938.65 200.4 936.4 201.05 936.05 201.25 935.6 201.35 934 201.7 932.65 200.25 932.2 199.8 931.5 199.65 930.9 199.55 930.35 199.15 930.25 201.85 930.25 204.55 930.75 204.75 931.25 205 945.3 211.75 930.6 213.4 930.45 213.4 930.35 213.4 929.55 213.5 928.65 213.55 955.45 220.55 943.35 223.9 943.55 223.85 943.75 223.8 951.15 222.05 957.9 222.4 958.05 222.4 958.15 222.4 959.85 215.25 962.1 208.4 960.2 208.3 958.45 207.8
M 827.45 186.5
Q 827.05 186.95 826.65 187.2 824.2 188.65 820.45 188.45 819.15 188.4 818.1 189.8 817.9 190 817.65 190.15
L 817.65 212.4
Q 818.65 211.4 819.75 210.4 838.8 193.1 861.8 191.1 884.75 189.05 894.15 197.05 894.95 197.75 895.85 198.6 899.8 190.75 904.05 183.2 903.55 183 903 182.9 899.9 182.1 896.75 181.95 893.85 181.85 892.4 180.2 891.95 179.8 891.25 179.85 889.85 180.2 888.5 180.2 888.15 180.2 887.75 180 885.7 179.35 884.7 178.3 884.3 177.85 883.65 178 882.55 178.3 881.5 178.45 879.2 178.8 877.15 177.4 873.85 178.05 872.35 179.35 871.8 179.8 871.1 179.8 868.05 179.55 865.4 181.25 864.2 182.1 862.85 182.75 861.45 183.55 860.05 184.6 857.95 186.4 856.95 184.8 856.6 184.1 855.85 183.85 854.1 183.55 852.4 183.1 852.05 183.1 851.65 183.05 849.75 182.75 848.75 182 848.2 181.65 847.55 181.4 846.85 181.2 846.1 180.9 843.25 180 843.05 183.5 843.05 184.1 842.7 184.5 840.9 187.7 838.55 185.25 837.6 184.3 835.7 184.3 834.45 184.35 833.5 183.85 832.3 183.1 831.3 184.1 830.9 184.5 830.25 184.3 828.75 183.85 828.3 185.2 828.1 186 827.45 186.5
M 1277 324.95
Q 1276.7 325 1276.4 325.1 1276.35 325.1 1276.3 325.15 1273.05 325.9 1270.05 326.6 1251.9 330.85 1244.55 332.65 1242.7 333.15 1240.95 333.6 1248.8 332.55 1260.45 331.05 1278.5 328.85 1296.45 325.9 1314.65 322.85 1317.25 321.6 1319.6 320.45 1322.9 314.5 1323.65 313.1 1324.55 312.1 1307.3 312.2 1302.45 313.4 1300.5 314.8 1297.8 314.95 1298.2 316.15 1299.6 318.25 1296.95 320.05 1277 324.95
M 1155.65 269.05
Q 1160.6 271.25 1164.85 270.85 1165.75 270.75 1166.65 270.55 1162.2 270.1 1155.65 269.05
M 1177.1 226.95
L 1180 229.3 1196.85 227.85 1195.95 223.15 1176.95 224.35 1177.1 226.95
M 1175.7 203.8
L 1175.35 203.8 1169 204.75 1170.55 221.6 1177.1 226.95 1176.95 224.35 1175.7 203.8
M 1265.5 269.15
L 1267.6 266.75 1251.4 266.3
Q 1258.4 267.95 1265.5 269.15
M 1286.85 268.45
L 1282.8 271.3
Q 1293.2 272.1 1303.7 271.85
L 1300.75 268.45 1286.85 268.45
M 1241.8 263.75
Q 1239.3 263 1236.75 262.2
L 1236.25 262.4
Q 1236.55 263.1 1236.85 263.8 1240.5 272.1 1245.05 278.3 1250.5 277.95 1259.55 279.55 1282.45 283.5 1277 286.6 1271.6 289.65 1293.75 284.35 1315.85 279.05 1330.45 281 1335.15 282.25 1338.5 283.1 1339.65 281.9 1340.85 280.65
L 1340.85 280 1341.45 280
Q 1346.6 274.35 1352.75 265.95 1353.25 265.2 1353.8 264.45 1353.5 264.55 1353.15 264.6 1352.85 264.7 1352.5 264.8 1350.65 265.3 1348.85 265.75 1342.65 267.25 1336.55 268.4 1330.1 269.6 1323.75 270.4 1313.7 271.65 1303.7 271.85 1293.2 272.1 1282.8 271.3 1282.55 271.25 1282.35 271.25 1273.9 270.55 1265.5 269.15 1258.4 267.95 1251.4 266.3 1246.6 265.1 1241.8 263.75
M 1236.75 262.2
Q 1239.3 263 1241.8 263.75 1246.6 265.1 1251.4 266.3
L 1267.6 266.75 1265.5 269.15
Q 1273.9 270.55 1282.35 271.25 1282.55 271.25 1282.8 271.3
L 1286.85 268.45 1300.75 268.45 1303.7 271.85
Q 1313.7 271.65 1323.75 270.4
L 1321.95 268.3 1336.55 268.4
Q 1342.65 267.25 1348.85 265.75 1350.65 265.3 1352.5 264.8 1294 261.9 1236.75 262.2
M 1272.2 240.8
Q 1267.7 239.75 1265.3 243.8 1263.95 246.1 1262.35 247.2 1261.75 247.6 1261.25 247.15 1259.65 245.65 1257.6 245.35 1256.9 245.2 1256.2 245.15 1250.65 244.7 1245.1 244.7 1244.45 244.7 1243.9 245.15 1242.8 245.9 1241 246.1 1240.25 246.2 1239.5 246.35 1237.8 246.65 1236.15 246.25 1233.8 245.75 1231.15 244.5 1230.55 243.95 1229.95 243.5 1225.25 239.65 1222.6 239.45 1222.15 239.35 1221.8 238.85 1220.7 237.35 1219.35 238.4 1218.85 238.85 1218.15 238.55 1217.7 238.35 1217.25 238.25 1213.55 237.8 1209.8 237.45 1209.05 237.3 1208.25 237.3 1206.25 237 1205.4 235.35 1205.3 235.2 1204.45 235.35 1202.65 235.75 1200.8 235.35 1200 235.2 1199.2 234.85 1197.75 234.2 1196.3 233.5 1195.5 233.2 1194.7 233 1192.2 232.55 1190.05 234.25 1189.45 234.7 1188.85 234.35 1187.4 233.25 1185 233.35
L 1226.25 266.85
Q 1230.55 264.3 1236.85 263.8 1236.55 263.1 1236.25 262.4
L 1236.75 262.2
Q 1294 261.9 1352.5 264.8 1352.85 264.7 1353.15 264.6 1353.5 264.55 1353.8 264.45 1353.25 265.2 1352.75 265.95 1360.2 266.4 1367.6 267.25
L 1367.6 249.1
Q 1364.5 249.9 1361 249.65 1359.95 249.5 1359 249.1 1357.85 248.55 1356.75 248.05 1354.25 246.7 1351.4 244.5 1350.6 243.75 1349.75 243.2 1349.2 242.8 1348.75 242.35 1347.25 240.65 1344.35 241.2 1343.3 241.35 1342.25 241.75 1339.75 242.55 1337.4 243.8 1336.7 244.25 1336 244.25 1328.7 244.7 1321.4 244.7 1320.35 244.7 1320 245.45 1319.45 246.35 1317.95 246.05 1316.25 245.65 1314.5 245.35 1313.8 245.2 1313.05 245.15 1309.65 244.7 1306.25 245.15 1305.5 245.2 1304.7 245.45 1302.85 245.9 1301.45 244.5 1299.9 242.8 1297.9 242.35 1296.35 242.05 1294.4 242.2 1290.95 242.5 1287.45 242.8 1286.45 242.8 1285.4 242.35 1283 241.3 1279.1 241.35 1275.55 241.6 1272.2 240.8
M 1075.8 342.45
Q 1070.75 343.25 1066.5 343.95 1077.45 343.15 1090.35 341.95 1125.45 338.6 1133.55 338.6 1145.9 338.6 1155.3 344.25 1157.65 345.65 1161.65 348.1 1165.05 349.85 1168.3 349.85 1174.3 349.85 1188.65 346.3 1188 346.35 1187.55 346.35 1171.8 346.35 1162.35 344.2 1158.45 343.3 1155.6 342.05 1154.65 341.6 1150.3 339.05 1148 337.7 1145.7 337.7 1111.45 337.7 1075.8 342.45
M 975.3 362.55
Q 973.95 362.05 973.55 361.75 972.8 361.25 972.1 360.4 971.25 359.35 971.2 358.5 971.45 357.6 971.65 356.8 971.6 356.8 971.6 356.75 968 352.7 964.65 350.05 960.8 348.65 954.55 346.35 942.35 341.8 938.9 341.05 933.2 339.85 920.5 336.85 909.15 334.1 899.3 332.2 885.9 329.55 858.2 326.7 850.4 325.9 847.5 325 843.85 323.85 843.85 321.5 843.85 320.4 844.75 318.9 845.65 317.45 845.65 316.3 845.65 313.8 839.8 310.55 835.8 308.35 826.85 304.75 825.4 304.15 818.65 297.95 818.15 297.5 817.65 297.05
L 817.65 400 1367.6 400 1367.6 315.95
Q 1353.7 317.95 1350.9 318.45
L 1350.9 323.2 1350.2 324.2 1350.2 326.95
Q 1350.85 326.9 1351.6 326.9 1347 328.3 1342.4 329.7 1328.05 334.1 1328.05 334.3 1328.05 335.45 1328.95 338 1329.85 340.55 1329.85 341.65 1329.85 344.65 1325.45 345.85 1322 346.8 1311.15 347.55 1273.5 350.1 1246.7 354.45 1228.2 357.5 1208.8 360.35 1170.3 365.95 1158.3 365.95 1134.95 365.95 1131.45 362.4 1130.3 361.25 1131.25 359.6 1132.6 358.05 1132.75 357.6 1132.75 357.3 1131.3 356.55 1129.6 355.6 1128.15 355.6 1126.7 355.6 1081.8 359.95 1036.95 364.25 1035.45 364.25
L 977.4 363.1
Q 976.8 363.1 975.3 362.55
M 979 320
Q 979.2 319.3 979.2 318.8 979.2 317.15 946 309.5 943.75 309 941.6 308.5
L 952.75 308.25
Q 952.15 308.15 951.55 308.1 943.9 307.2 942.75 307.2 940.45 307.2 937 306.55
L 936.8 307.35
Q 938.2 307.65 939.15 307.95 937.95 307.65 936.8 307.4
L 936.75 307.4
Q 935.6 307.1 934.45 306.85 932.25 306.35 930.15 305.85
L 930.1 305.85
Q 925.2 304.7 920.75 303.7
L 920.7 303.7
Q 880.85 294.5 878.6 293.95 878.4 295.15 878.4 292.9 878.4 292.6 881.5 289.85 884.8 286.85 885.45 285.5 883.45 284.9 884.15 284.2 884.85 283.4 884.6 283.25 884.2 283.05 882 282.85 881.95 282.85 881.9 282.85 880.5 282.75 878.55 282.65
L 878.5 282.65
Q 871.35 282.25 856 282 854.75 282 853.55 281.95
L 853.5 281.95
Q 833 281.65 817.65 281.1
L 817.65 288.8
Q 820.5 289.05 823.7 289.45 836.45 291.05 841.95 292.35 848.35 294.4 872.4 302.6
L 873.45 303.85
Q 871.35 305.7 869.5 308.75 868.45 310.4 866.7 313.4 872.6 316.85 896.15 320.6 926.6 325.4 970.75 327.35 973.75 327.5 976.55 327.65 976.5 327.35 976.5 327 976.5 325.25 977.85 322.7 978.7 321.1 979 320
M 929.8 308.75
L 940.9 308.5
Q 943.35 309.65 929.8 308.75
M 940.9 308.5
L 929.8 308.75
Q 943.35 309.65 940.9 308.5
M 1015.25 342.9
Q 1018.8 344.85 1029.6 345.2 1030.75 345.55 1032 345.85 1032.35 345.95 1032.7 346.05 1037.55 347.15 1043.4 347.15 1045.95 347.15 1066.5 343.95 1070.75 343.25 1075.8 342.45 1111.45 337.7 1145.7 337.7 1148 337.7 1150.3 339.05 1154.65 341.6 1155.6 342.05 1158.45 343.3 1162.35 344.2 1171.8 346.35 1187.55 346.35 1188 346.35 1188.65 346.3 1194.35 345.75 1215.05 340.4 1225.85 337.65 1240.95 333.6 1242.7 333.15 1244.55 332.65 1251.9 330.85 1270.05 326.6 1273.05 325.9 1276.3 325.15 1276.35 325.1 1276.4 325.1 1276.7 325 1277 324.95 1296.95 320.05 1299.6 318.25 1298.2 316.15 1297.8 314.95 1300.5 314.8 1302.45 313.4 1307.3 312.2 1324.55 312.1 1327.05 312.05 1329.85 312.05 1330.3 312.05 1330.8 312.05 1333.5 312 1336.35 311.75 1340.85 311.3 1345.6 310.25 1352.5 308.75 1359.9 305.95 1363.7 304.55 1367.6 302.95
L 1367.6 290.6
Q 1363.45 291.8 1351.65 295.2 1341.65 298.1 1332.9 298.1 1308.55 298.1 1301.5 300.15 1297.6 301.5 1294.55 302.3 1289.1 303.8 1279.9 304.95 1279.9 305.95 1280.8 308.2 1281.7 310.45 1281.7 311.6 1281.7 314.2 1278.55 315.75 1277.1 316.45 1274.75 317.1 1274.55 317.1 1274.45 317.15 1271.8 317.85 1268.15 318.4 1243.15 321.25 1220.25 323.95 1217.55 324.3 1212.2 326.35 1203.6 329.65 1201.05 330.45 1184 336.1 1164.15 336.1 1163.55 336.1 1163.1 335.85 1162.6 335.6 1162.2 335.1 1161 333.5 1160.15 332.9 1156.55 330.4 1146 330 1145.9 330 1145.85 330 1143.25 329.9 1140.3 329.95 1137.5 328.7 1132.35 327.4 1122.1 324.85 1104.4 324.85 1089.15 324.85 1058.55 330.1 1028 335.35 1026.65 335.35 1025.85 335.1 1025.05 334.85 1012.2 330.95 1005.15 328.65
L 1005.1 328.65
Q 1000.2 327.05 998.1 326.2 988 322.5 984.95 321 983.35 320.25 982.3 319.35 981.35 318.55 980.85 317.65 980.8 317.6 980.75 317.5 980.2 316.45 980.2 315.3 980.2 314.2 981.1 312.2 982 310.25 982 309.1 982 307.75 981.95 307.7 981.9 307.8 981.75 307.45
L 978.05 307.2
Q 972.2 307.55 967 307.65 969.35 307.2 972 307
L 972 305.65
Q 968.15 306.1 962.15 307.1 957.45 307.9 956.35 307.9 955.95 307.9 955.35 307.85 953.5 307.6 949.7 306.65 944.6 305.4 942.75 305.4 937.6 305.4 934.95 304.6 934.05 304.3 933.45 303.95 930.15 302 922.2 300.55 922 300.45 921.8 300.4 921.7 300.35 921.65 300.35 918.2 299.25 915.3 298.55 909.05 297.1 900.7 290.85 891.3 283.85 889.65 283.15 885.8 283 881.9 282.8 880.2 282.7 878.5 282.6 867.7 282 856.1 281.1 854.85 281 853.55 280.9 831.7 279.15 817.65 276.75
L 817.65 281.1
Q 833 281.65 853.5 281.95
L 853.55 281.95
Q 854.75 282 856 282 871.35 282.25 878.5 282.65
L 878.55 282.65
Q 880.5 282.75 881.9 282.85 881.95 282.85 882 282.85 884.2 283.05 884.6 283.25 884.85 283.4 884.15 284.2 883.45 284.9 885.45 285.5 884.8 286.85 881.5 289.85 878.4 292.6 878.4 292.9 878.4 295.15 878.6 293.95 880.85 294.5 920.7 303.7
L 920.75 303.7
Q 925.2 304.7 930.1 305.85
L 930.15 305.85
Q 932.25 306.35 934.45 306.85 935.6 307.1 936.75 307.4
L 936.8 307.4
Q 937.95 307.65 939.15 307.95 938.2 307.65 936.8 307.35
L 937 306.55
Q 940.45 307.2 942.75 307.2 943.9 307.2 951.55 308.1 952.15 308.15 952.75 308.25
L 941.6 308.5
Q 943.75 309 946 309.5 979.2 317.15 979.2 318.8 979.2 319.3 979 320 978.7 321.1 977.85 322.7 976.5 325.25 976.5 327 976.5 327.35 976.55 327.65 976.55 328.45 976.75 328.75 976.95 329.15 976.95 329.25 977.45 329.25 977.95 329.25 992.4 329.05 1002.15 331.65 1003.05 331.9 1004 332.2 1006.7 333.05 1009.45 334.3 1011.2 335.7 1011.85 337.5 1012.25 338.5 1012.85 340.4 1013.6 342 1015.25 342.9
M 1029.6 345.2
Q 1018.8 344.85 1015.25 342.9 1013.6 342 1012.85 340.4 1012.25 338.5 1011.85 337.5 1011.2 335.7 1009.45 334.3 1006.7 333.05 1004 332.2 1003.05 331.9 1002.15 331.65 992.4 329.05 977.95 329.25 977.45 329.25 976.95 329.25 976.95 329.15 976.75 328.75 976.55 328.45 976.55 327.65 973.75 327.5 970.75 327.35 926.6 325.4 896.15 320.6 872.6 316.85 866.7 313.4 868.45 310.4 869.5 308.75 871.35 305.7 873.45 303.85
L 872.4 302.6
Q 848.35 294.4 841.95 292.35 836.45 291.05 823.7 289.45 820.5 289.05 817.65 288.8
L 817.65 297.05
Q 818.15 297.5 818.65 297.95 825.4 304.15 826.85 304.75 835.8 308.35 839.8 310.55 845.65 313.8 845.65 316.3 845.65 317.45 844.75 318.9 843.85 320.4 843.85 321.5 843.85 323.85 847.5 325 850.4 325.9 858.2 326.7 885.9 329.55 899.3 332.2 909.15 334.1 920.5 336.85 933.2 339.85 938.9 341.05 942.35 341.8 954.55 346.35 960.8 348.65 964.65 350.05 968 352.7 971.6 356.75 971.6 356.8 971.65 356.8 971.45 357.6 971.2 358.5 971.25 359.35 972.1 360.4 972.8 361.25 973.55 361.75 973.95 362.05 975.3 362.55 976.8 363.1 977.4 363.1
L 1035.45 364.25
Q 1036.95 364.25 1081.8 359.95 1126.7 355.6 1128.15 355.6 1129.6 355.6 1131.3 356.55 1132.75 357.3 1132.75 357.6 1132.6 358.05 1131.25 359.6 1130.3 361.25 1131.45 362.4 1134.95 365.95 1158.3 365.95 1170.3 365.95 1208.8 360.35 1228.2 357.5 1246.7 354.45 1273.5 350.1 1311.15 347.55 1322 346.8 1325.45 345.85 1329.85 344.65 1329.85 341.65 1329.85 340.55 1328.95 338 1328.05 335.45 1328.05 334.3 1328.05 334.1 1342.4 329.7 1347 328.3 1351.6 326.9 1350.85 326.9 1350.2 326.95
L 1350.2 324.2 1350.9 323.2 1350.9 318.45
Q 1353.7 317.95 1367.6 315.95
L 1367.6 311.4
Q 1363.95 311.6 1360.05 311.7 1356.6 311.8 1353 311.8 1350.45 311.8 1349.25 311.45 1348.15 310.9 1347.25 310.65 1346.6 310.45 1345.6 310.25 1340.85 311.3 1336.35 311.75 1333.5 312 1330.8 312.05 1330.3 312.05 1329.85 312.05 1327.05 312.05 1324.55 312.1 1323.65 313.1 1322.9 314.5 1319.6 320.45 1317.25 321.6 1314.65 322.85 1296.45 325.9 1278.5 328.85 1260.45 331.05 1248.8 332.55 1240.95 333.6 1225.85 337.65 1215.05 340.4 1194.35 345.75 1188.65 346.3 1174.3 349.85 1168.3 349.85 1165.05 349.85 1161.65 348.1 1157.65 345.65 1155.3 344.25 1145.9 338.6 1133.55 338.6 1125.45 338.6 1090.35 341.95 1077.45 343.15 1066.5 343.95 1045.95 347.15 1043.4 347.15 1037.55 347.15 1032.7 346.05 1032.35 345.95 1032 345.85 1030.75 345.55 1029.6 345.2
M 971.8 355.9
L 971.95 355.1
Q 971.9 355.5 971.8 355.95
L 971.8 355.9
M 971.95 355.1
L 971.8 355.9 971.8 355.95
Q 971.9 355.5 971.95 355.1
M 1043.6 269.75
L 1040.65 266.35 1026.75 266.35 1022.7 269.2
Q 1033.1 270 1043.6 269.75
M 1061.85 266.2
L 1063.65 268.3
Q 1070 267.5 1076.45 266.3
L 1061.85 266.2
M 1092.4 262.7
Q 1084.4 264.8 1076.45 266.3 1070 267.5 1063.65 268.3 1063.3 268.35 1062.95 268.4 1053.25 269.55 1043.6 269.75 1033.1 270 1022.7 269.2 1022.45 269.15 1022.25 269.15 1013.8 268.45 1005.4 267.05
L 1007.5 264.65 991.3 264.2
Q 983.95 262.4 976.65 260.1
L 976.15 260.3
Q 978.95 267 982.3 272.35 985.55 277.45 989.3 281.35 990.1 281.1 990.95 280.75 994.05 279.4 997.8 279.4 1002.3 279.4 1015.6 281.3 1029 283.2 1032.55 283.2 1047.15 283.2 1053.1 284.05 1059.05 284.9 1066.35 284.9 1068.9 284.9 1072.8 283.5 1076.65 282.05 1076.75 282.05 1077 282.05 1077.25 282.1 1080.65 278.85 1084.55 274.25 1085.35 273.3 1086.2 272.25 1089.75 267.85 1093.7 262.35 1093.4 262.45 1093.05 262.5 1092.75 262.6 1092.4 262.7
M 1076.45 266.3
Q 1084.4 264.8 1092.4 262.7 1050.1 260.6 1008.45 260.2 992.5 260 976.65 260.1 983.95 262.4 991.3 264.2
L 1007.5 264.65 1005.4 267.05
Q 1013.8 268.45 1022.25 269.15 1022.45 269.15 1022.7 269.2
L 1026.75 266.35 1040.65 266.35 1043.6 269.75
Q 1053.25 269.55 1062.95 268.4 1063.3 268.35 1063.65 268.3
L 1061.85 266.2 1076.45 266.3
M 1056.1 235.35
Q 1060.05 236.85 1062.2 236.85
L 1056.1 235.35
M 1122.5 238.55
Q 1123.3 238.35 1124.1 238.1 1126.6 237.45 1127.55 239.15 1128.75 241.2 1130.85 241.8 1131.6 241.95 1132 242.5 1133.2 243.95 1134.6 243.95 1135.35 244.05 1135.75 243.5 1136.2 242.8 1137.65 242.25 1138.35 241.95 1138.8 242.5 1141.1 245.45 1145.9 245.15 1146.65 245.1 1146.8 244.7 1147.3 243.35 1149.25 244.55 1149.55 243.35 1151.15 243.8 1151.85 244.05 1152.25 243.5 1152.8 242.8 1154.2 242.25 1154.9 241.95 1155.3 241.45 1157.3 239.05 1161.6 240.1 1162.8 240.4 1163.95 240.7 1164.65 240.9 1164.9 240.4 1167 236.35 1169.2 234.7 1170.4 236.3 1171.9 236.65
L 1171.3 230.05 1116.75 234.75
Q 1117 234.85 1117.25 235 1117.65 235.2 1117.8 235.8 1118.8 239.45 1122.5 238.55
M 1097.5 246.95
Q 1098.25 246.6 1099 246.2 1102.9 244.2 1105.1 244.2 1112.15 244.2 1116.65 244.35 1121.2 244.55 1135.6 248.55 1149.95 252.5 1146.45 259.8 1145.35 262 1144.3 263.7 1147.45 264.7 1152.9 267.7 1154.3 268.45 1155.65 269.05 1162.2 270.1 1166.65 270.55 1167.5 270.35 1168.3 270.05 1168 270.35 1167.7 270.65 1170 270.85 1171.65 270.85 1172.85 270.85 1174.95 270.6
L 1171.9 236.65
Q 1170.4 236.3 1169.2 234.7 1167 236.35 1164.9 240.4 1164.65 240.9 1163.95 240.7 1162.8 240.4 1161.6 240.1 1157.3 239.05 1155.3 241.45 1154.9 241.95 1154.2 242.25 1152.8 242.8 1152.25 243.5 1151.85 244.05 1151.15 243.8 1149.55 243.35 1149.25 244.55 1147.3 243.35 1146.8 244.7 1146.65 245.1 1145.9 245.15 1141.1 245.45 1138.8 242.5 1138.35 241.95 1137.65 242.25 1136.2 242.8 1135.75 243.5 1135.35 244.05 1134.6 243.95 1133.2 243.95 1132 242.5 1131.6 241.95 1130.85 241.8 1128.75 241.2 1127.55 239.15 1126.6 237.45 1124.1 238.1 1123.3 238.35 1122.5 238.55 1118.8 239.45 1117.8 235.8 1117.65 235.2 1117.25 235 1117 234.85 1116.75 234.75
L 1112.6 235.1
Q 1111.6 235.9 1109.85 235.35
L 1086.4 237.35
Q 1087.45 238.05 1088.6 238.85 1092.25 241.45 1096.95 245.7
L 1097.5 246.95
M 1099 246.2
Q 1098.25 246.6 1097.5 246.95
L 1096.95 245.7
Q 1092.25 241.45 1088.6 238.85 1087.45 238.05 1086.4 237.35 1080.75 233.85 1076 233.85 1071.9 233.85 1068.6 235.35 1066.25 236.4 1064.1 236.7 1063.65 236.75 1063.2 236.8 1062.7 236.85 1062.2 236.85 1060.05 236.85 1056.1 235.35
L 1062.2 236.85 1063.15 235.4 1063.1 235.4
Q 1062.15 234.8 1060.15 233.6 1059.25 233.05 1058.15 232.4 1054 230 1053.1 230 1051.6 230 1048.7 230.75 1045.8 231.45 1043.95 231.45 1039.7 231.45 1032.9 232.15 1026 232.85 1023.55 229.15 1021.1 225.5 1016.15 225.75 1011.25 226.05 1010.2 227 1010.95 228.5 1014.8 231.1 1015.45 231.55 1015.95 231.9 1014.8 232.1 1012.4 232.7 1009.95 233.35 1009.7 233.35 997.65 233.35 990.15 226.9 989.75 226.6 989.45 226.25 986.05 222.7 986.45 224.9 986.8 227.05 983.35 223.7 979.9 220.35 976.2 222.05 977 222.85 979.35 224.65 981.5 226.35 982.6 227
L 982.35 227.8
Q 980.5 227.25 978.75 226.8 963.75 222.7 958.15 222.4 958.05 222.4 957.9 222.4 951.15 222.05 943.75 223.8 943.55 223.85 943.35 223.9 955.45 220.55 928.65 213.55 929.55 213.5 930.35 213.4 930.45 213.4 930.6 213.4 945.3 211.75 931.25 205 930.75 204.75 930.25 204.55 914.1 196.9 909.9 196.65 905.55 196.45 902.4 197.95 898.9 199.65 898.9 201.1 898.9 201.15 898.9 201.2 898.9 201.3 898.9 201.4 898.9 201.7 898.95 201.9 898.75 201.7 898.6 201.5 898.45 201.35 898.3 201.2 897 199.75 895.85 198.6 894.95 197.75 894.15 197.05 884.75 189.05 861.8 191.1 838.8 193.1 819.75 210.4 818.65 211.4 817.65 212.4
L 817.65 269.75
Q 839.45 269.1 877.25 266.45 897.1 268.9 898.7 268.9 899.3 268.9 903.2 268.45 907.05 267.95 907.7 267.95 912.5 267.95 936.65 270.9 960.8 273.85 968.6 273.85 972.7 273.85 982.3 272.35 978.95 267 976.15 260.3
L 976.65 260.1
Q 992.5 260 1008.45 260.2 1050.1 260.6 1092.4 262.7 1092.75 262.6 1093.05 262.5 1093.4 262.45 1093.7 262.35 1089.75 267.85 1086.2 272.25 1085.35 273.3 1084.55 274.25 1112.95 277.85 1114.25 277.85 1119.6 277.85 1123.8 276.35 1126.4 275.4 1130.15 275.1 1132.35 274.85 1134.9 274.85 1139.85 274.85 1148.85 276.35 1156.6 277.65 1165.2 277.2 1166.5 277.05 1167.85 277 1172.3 276.6 1182.35 276.55 1193.15 276.45 1210.55 276.7 1193.3 276.05 1182.6 274.35 1182.45 274.35 1182.35 274.3 1179.9 273.9 1177.85 273.6 1176.4 273.35 1175.15 273.15 1166.95 271.8 1166.75 271.6 1167.15 271.2 1167.7 270.65 1168 270.35 1168.3 270.05 1167.5 270.35 1166.65 270.55 1165.75 270.75 1164.85 270.85 1160.6 271.25 1155.65 269.05 1154.3 268.45 1152.9 267.7 1147.45 264.7 1144.3 263.7 1145.35 262 1146.45 259.8 1149.95 252.5 1135.6 248.55 1121.2 244.55 1116.65 244.35 1112.15 244.2 1105.1 244.2 1102.9 244.2 1099 246.2
M 1094.4 229.4
Q 1094.25 229.3 1094.1 229.2 1093.6 229 1093.2 228.75 1091.7 227.9 1091.15 229.15 1091 229.6 1090.25 229.6 1087.7 229.6 1085.55 227.95 1084.95 227.45 1084.3 227.8 1083.9 227.95 1083.65 228.6 1083.4 229.45 1083.05 230.1
L 1075.45 230.55
Q 1073.6 229.4 1070.7 229.9 1069.95 230.1 1069.15 230.35 1067.95 230.7 1066.8 231.1
L 1063.25 231.3 1058.2 231.6 1060.15 233.6
Q 1062.15 234.8 1063.1 235.4
L 1063.15 235.4 1062.2 236.85
Q 1062.7 236.85 1063.2 236.8 1063.65 236.75 1064.1 236.7 1066.25 236.4 1068.6 235.35 1071.9 233.85 1076 233.85 1080.75 233.85 1086.4 237.35
L 1109.85 235.35
Q 1111.6 235.9 1112.6 235.1
L 1116.75 234.75 1171.3 230.05 1171.9 236.65 1174.95 270.6
Q 1172.85 270.85 1171.65 270.85 1170 270.85 1167.7 270.65 1167.15 271.2 1166.75 271.6 1166.95 271.8 1175.15 273.15 1176.4 273.35 1177.85 273.6 1179.9 273.9 1182.35 274.3 1182.45 274.35 1182.6 274.35 1193.3 276.05 1210.55 276.7 1193.15 276.45 1182.35 276.55 1172.3 276.6 1167.85 277 1166.5 277.05 1165.2 277.2 1156.6 277.65 1148.85 276.35 1139.85 274.85 1134.9 274.85 1132.35 274.85 1130.15 275.1 1126.4 275.4 1123.8 276.35 1119.6 277.85 1114.25 277.85 1112.95 277.85 1084.55 274.25 1080.65 278.85 1077.25 282.1 1077 282.05 1076.75 282.05 1076.65 282.05 1072.8 283.5 1068.9 284.9 1066.35 284.9 1059.05 284.9 1053.1 284.05 1047.15 283.2 1032.55 283.2 1029 283.2 1015.6 281.3 1002.3 279.4 997.8 279.4 994.05 279.4 990.95 280.75 990.1 281.1 989.3 281.35 985.55 277.45 982.3 272.35 972.7 273.85 968.6 273.85 960.8 273.85 936.65 270.9 912.5 267.95 907.7 267.95 907.05 267.95 903.2 268.45 899.3 268.9 898.7 268.9 897.1 268.9 877.25 266.45 839.45 269.1 817.65 269.75
L 817.65 276.75
Q 831.7 279.15 853.55 280.9 854.85 281 856.1 281.1 867.7 282 878.5 282.6 880.2 282.7 881.9 282.8 885.8 283 889.65 283.15 891.3 283.85 900.7 290.85 909.05 297.1 915.3 298.55 918.2 299.25 921.65 300.35 921.7 300.35 921.8 300.4 922 300.45 922.2 300.55 930.15 302 933.45 303.95 934.05 304.3 934.95 304.6 937.6 305.4 942.75 305.4 944.6 305.4 949.7 306.65 953.5 307.6 955.35 307.85 955.95 307.9 956.35 307.9 957.45 307.9 962.15 307.1 968.15 306.1 972 305.65
L 972 307
Q 969.35 307.2 967 307.65 972.2 307.55 978.05 307.2
L 981.75 307.45
Q 981.9 307.8 981.95 307.7 982 307.75 982 309.1 982 310.25 981.1 312.2 980.2 314.2 980.2 315.3 980.2 316.45 980.75 317.5 980.8 317.6 980.85 317.65 981.35 318.55 982.3 319.35 983.35 320.25 984.95 321 988 322.5 998.1 326.2 1000.2 327.05 1005.1 328.65
L 1005.15 328.65
Q 1012.2 330.95 1025.05 334.85 1025.85 335.1 1026.65 335.35 1028 335.35 1058.55 330.1 1089.15 324.85 1104.4 324.85 1122.1 324.85 1132.35 327.4 1137.5 328.7 1140.3 329.95 1143.25 329.9 1145.85 330 1145.9 330 1146 330 1156.55 330.4 1160.15 332.9 1161 333.5 1162.2 335.1 1162.6 335.6 1163.1 335.85 1163.55 336.1 1164.15 336.1 1184 336.1 1201.05 330.45 1203.6 329.65 1212.2 326.35 1217.55 324.3 1220.25 323.95 1243.15 321.25 1268.15 318.4 1271.8 317.85 1274.45 317.15 1274.55 317.1 1274.75 317.1 1277.1 316.45 1278.55 315.75 1281.7 314.2 1281.7 311.6 1281.7 310.45 1280.8 308.2 1279.9 305.95 1279.9 304.95 1289.1 303.8 1294.55 302.3 1297.6 301.5 1301.5 300.15 1308.55 298.1 1332.9 298.1 1341.65 298.1 1351.65 295.2 1363.45 291.8 1367.6 290.6
L 1367.6 288.65
Q 1358.35 283.45 1340.85 281.35
L 1340.85 280.65
Q 1339.65 281.9 1338.5 283.1 1335.15 282.25 1330.45 281 1315.85 279.05 1293.75 284.35 1271.6 289.65 1277 286.6 1282.45 283.5 1259.55 279.55 1250.5 277.95 1245.05 278.3 1240.5 272.1 1236.85 263.8 1230.55 264.3 1226.25 266.85
L 1239.2 277.4 1226.8 277.85 1177.65 235.25 1179.7 269.75
Q 1180.2 269.65 1180.7 269.55 1187.2 268.25 1189.1 268.25 1192.9 268.25 1200.65 269.55 1206.65 270.55 1210.95 270.8 1212.75 270.6 1214.6 270.7 1215.05 270.75 1215.55 270.8 1215.05 270.75 1214.6 270.7 1212.75 270.6 1210.95 270.8 1206.65 270.55 1200.65 269.55 1192.9 268.25 1189.1 268.25 1187.2 268.25 1180.7 269.55 1180.2 269.65 1179.7 269.75
L 1177.65 235.25 1226.8 277.85 1239.2 277.4 1226.25 266.85 1185 233.35 1180 229.3 1177.1 226.95 1170.55 221.6 1168.1 219.6 1164.6 223.6 1166.2 225 1177.6 234.95 1166.2 225 1094.4 229.4
M 1094.8 287.55
Q 1094.75 287.5 1094.7 287.45 1094.75 287.45 1094.8 287.45 1108.85 287.8 1125.55 289.05 1125.65 289.05 1125.7 289.05 1138.3 290 1152.5 291.5 1156.05 291.85 1159.8 292.3 1160 292.3 1160.2 292.3 1160.25 292.3 1160.35 292.3 1172.85 293.7 1186.5 295.5
L 1186.55 295.5
Q 1203.15 297.65 1221.5 300.4
L 1221.4 300.8
Q 1215.8 306.65 1210.25 311.1 1207.1 310.55 1206.5 310.55 1204.6 310.55 1195.35 313.25 1186.1 315.95 1177.8 315.95 1175.8 315.95 1166.6 314.6 1156.05 313.1 1151 312.7 1146.65 312.3 1138.5 312.75 1131 313.25 1130.3 313.25 1126.9 313.25 1123.9 312.9 1120.95 312.5 1118.4 311.8 1116.9 311.35 1110.1 308.6 1107.9 307.7 1105.45 307 1099.75 300.7 1094.8 288.4
L 1094.8 288.35 1095.15 287.7
Q 1094.95 287.6 1094.8 287.55
M 1181.7 303.3
Q 1185.35 303.25 1189.15 303.15
L 1186.1 298.95 1179.4 298.6 1177.15 303.35
Q 1179.65 303.35 1181.7 303.3
M 1159.8 296.85
L 1159.8 296.5 1152.05 296.1 1143.5 301.4 1144.25 301.6
Q 1150.1 302.3 1156.4 302.75 1156.5 302.75 1156.55 302.75
L 1159.8 296.85
M 1133.5 293.25
L 1125.4 292.6 1110.25 294.2
Q 1116.7 296.45 1123.95 298.1
L 1133.5 293.25
M 1110.25 294.2
Q 1102.05 291.35 1095.15 287.7
L 1094.8 288.35 1094.8 288.4
Q 1099.75 300.7 1105.45 307 1107.9 307.7 1110.1 308.6 1116.9 311.35 1118.4 311.8 1120.95 312.5 1123.9 312.9 1126.9 313.25 1130.3 313.25 1131 313.25 1138.5 312.75 1146.65 312.3 1151 312.7 1156.05 313.1 1166.6 314.6 1175.8 315.95 1177.8 315.95 1186.1 315.95 1195.35 313.25 1204.6 310.55 1206.5 310.55 1207.1 310.55 1210.25 311.1 1215.8 306.65 1221.4 300.8 1204.45 302.6 1189.25 303.15 1189.2 303.15 1189.15 303.15 1185.35 303.25 1181.7 303.3 1179.65 303.35 1177.15 303.35 1167.85 303.4 1159 302.9 1158.3 302.85 1157.65 302.8 1157.6 302.8 1157.55 302.8 1157.05 302.8 1156.55 302.75 1156.5 302.75 1156.4 302.75 1150.1 302.3 1144.25 301.6
L 1144.2 301.6
Q 1142.5 301.4 1140.85 301.2 1140.7 301.2 1140.55 301.15 1131.8 299.95 1123.95 298.1 1116.7 296.45 1110.25 294.2
M 1094.7 287.45
Q 1094.75 287.5 1094.8 287.55 1094.95 287.6 1095.15 287.7 1102.05 291.35 1110.25 294.2
L 1125.4 292.6 1133.5 293.25 1123.95 298.1
Q 1131.8 299.95 1140.55 301.15 1140.7 301.2 1140.85 301.2 1142.5 301.4 1144.2 301.6
L 1144.25 301.6 1143.5 301.4 1152.05 296.1 1159.8 296.5 1159.8 296.85 1156.55 302.75
Q 1157.05 302.8 1157.55 302.8 1157.6 302.8 1157.65 302.8 1158.3 302.85 1159 302.9 1167.85 303.4 1177.15 303.35
L 1179.4 298.6 1186.1 298.95 1189.15 303.15
Q 1189.2 303.15 1189.25 303.15 1204.45 302.6 1221.4 300.8
L 1221.5 300.4
Q 1203.15 297.65 1186.55 295.5
L 1186.5 295.5
Q 1172.85 293.7 1160.35 292.3 1160.25 292.3 1160.2 292.3 1160 292.3 1159.8 292.3 1156.05 291.85 1152.5 291.5 1138.3 290 1125.7 289.05 1125.65 289.05 1125.55 289.05 1108.85 287.8 1094.8 287.45 1094.75 287.45 1094.7 287.45
M 1029.35 157.7
Q 1025.65 156.6 1021.95 155.6 1008.1 151.95 994.3 149.65 972.55 175.55 962.1 208.4 959.85 215.25 958.15 222.4 963.75 222.7 978.75 226.8 980.5 227.25 982.35 227.8
L 982.6 227
Q 981.5 226.35 979.35 224.65 977 222.85 976.2 222.05 979.9 220.35 983.35 223.7 986.8 227.05 986.45 224.9 986.05 222.7 989.45 226.25 989.75 226.6 990.15 226.9 997.65 233.35 1009.7 233.35 1009.95 233.35 1012.4 232.7 1014.8 232.1 1015.95 231.9 1015.45 231.55 1014.8 231.1 1010.95 228.5 1010.2 227 1011.25 226.05 1016.15 225.75 1021.1 225.5 1023.55 229.15 1026 232.85 1032.9 232.15 1039.7 231.45 1043.95 231.45 1045.8 231.45 1048.7 230.75 1051.6 230 1053.1 230 1054 230 1058.15 232.4 1059.25 233.05 1060.15 233.6
L 1058.2 231.6 1063.25 231.3
Q 1052.35 196.85 1058.75 167.75 1051.35 164.8 1044.05 162.35 1036.65 159.8 1029.35 157.7
M 1003.35 180.05
L 1004.8 176.35 1004.8 176.3 1030.35 173.55 1034.25 208.2 1038.45 208.6 1036.7 212.6 989.9 209.25 989.35 205.35 993.95 205.6 1003.35 180.05
M 1013.7 178.9
L 1003.35 180.05 993.95 205.6 1015.85 207.05 1013.7 178.9
M 1021.45 178.05
L 1013.7 178.9 1015.85 207.05 993.95 205.6 989.35 205.35 989.9 209.25 1036.7 212.6 1038.45 208.6 1034.25 208.2 1018.7 207 1021.45 178.05
M 1004.8 176.35
L 1003.35 180.05 1013.7 178.9 1021.45 178.05 1018.7 207 1034.25 208.2 1030.35 173.55 1004.8 176.3 1004.8 176.35
M 1010.3 135.2
Q 1000.75 139.75 992.75 145.05
L 992.7 145.4
Q 993.95 145.7 995.25 145.9
L 995.25 145.95
Q 1009.25 148.8 1022.75 152.5 1022.75 152.45 1022.8 152.5
L 1010.3 135.2
M 1014.65 127.5
Q 1014.55 127.55 1014.5 127.6 1011.3 128.95 1008.2 130.4
L 1008.1 130.45 1010.3 135.2 1022.8 152.5
Q 1022.75 152.45 1022.75 152.5 1009.25 148.8 995.25 145.95
L 995.25 145.9
Q 993.95 145.7 992.7 145.4
L 992.75 145.05
Q 1000.75 139.75 1010.3 135.2
L 1008 130.55
Q 992.3 137.9 977.85 147.4 984.95 148.15 992.1 149.3 993.2 149.45 994.3 149.65 1008.1 151.95 1021.95 155.6 1025.65 156.6 1029.35 157.7 1036.65 159.8 1044.05 162.35 1051.35 164.8 1058.75 167.75 1080.35 176.25 1102.2 188.05
L 1038.1 118.65
Q 1026.05 122.5 1014.65 127.5
M 1015.15 132.95
L 1015.2 132.95
Q 1015.9 132.65 1016.6 132.35 1024.45 128.9 1033.25 125.85 1033.3 125.85 1033.35 125.85
L 1033.45 126.2 1027.7 153.85
Q 1027.25 153.7 1026.85 153.6
L 1027 153 1014.4 133.3
Q 1014.8 133.1 1015.15 132.95
M 1038.25 125.4
L 1049.9 138.25 1030.35 154.55 1029.25 154.3 1030.35 154.55 1038.25 125.4
M 1045.15 159.2
L 1045.05 159.15
Q 1039.6 157.4 1034.1 155.7
L 1053.15 141.8 1081.6 173.3
Q 1070.95 168.55 1060 164.5 1059.95 164.45 1059.9 164.45 1052.6 161.7 1045.15 159.2
M 1045.05 159.15
L 1045.15 159.2
Q 1052.6 161.7 1059.9 164.45 1059.95 164.45 1060 164.5 1070.95 168.55 1081.6 173.3
L 1053.15 141.8 1034.1 155.7
Q 1039.6 157.4 1045.05 159.15
M 1049.9 138.25
L 1038.25 125.4 1030.35 154.55 1049.9 138.25
M 1015.2 132.95
L 1015.15 132.95
Q 1014.8 133.1 1014.4 133.3
L 1027 153 1026.85 153.6
Q 1027.25 153.7 1027.7 153.85
L 1033.45 126.2 1033.35 125.85
Q 1033.3 125.85 1033.25 125.85 1024.45 128.9 1016.6 132.35 1015.9 132.65 1015.2 132.95
M 1006.15 64.95
L 1006.55 65.55
Q 932.75 130.3 930.35 199.15 930.9 199.55 931.5 199.65 932.2 199.8 932.65 200.25 934 201.7 935.6 201.35 936.05 201.25 936.4 201.05 938.65 200.4 939.75 201.8 941.1 203.5 942.6 204.6 945.45 206.7 948.1 209.45 948.5 209.85 948.9 209.95 951.6 210.75 952.8 209.15 954.65 206.85 958.45 207.8 960.2 208.3 962.1 208.4 972.55 175.55 994.3 149.65 993.2 149.45 992.1 149.3 984.95 148.15 977.85 147.4 992.3 137.9 1008 130.55
L 1010.3 135.2 1008.1 130.45 1008.2 130.4
Q 1011.3 128.95 1014.5 127.6 1014.55 127.55 1014.65 127.5 1026.05 122.5 1038.1 118.65
L 1102.2 188.05
Q 1080.35 176.25 1058.75 167.75 1052.35 196.85 1063.25 231.3
L 1066.8 231.1
Q 1067.95 230.7 1069.15 230.35 1069.95 230.1 1070.7 229.9 1073.6 229.4 1075.45 230.55
L 1083.05 230.1
Q 1083.4 229.45 1083.65 228.6 1083.9 227.95 1084.3 227.8 1084.95 227.45 1085.55 227.95 1087.7 229.6 1090.25 229.6 1091 229.6 1091.15 229.15 1091.7 227.9 1093.2 228.75 1093.6 229 1094.1 229.2 1094.25 229.3 1094.4 229.4
L 1166.2 225 1164.6 223.6 1168.1 219.6 1170.55 221.6 1169 204.75 1175.35 203.8 1175.7 203.8 1176.95 224.35 1195.95 223.15 1196.85 227.85 1180 229.3 1185 233.35
Q 1187.4 233.25 1188.85 234.35 1189.45 234.7 1190.05 234.25 1192.2 232.55 1194.7 233 1195.5 233.2 1196.3 233.5 1197.75 234.2 1199.2 234.85 1200 235.2 1200.8 235.35 1202.65 235.75 1204.45 235.35 1205.3 235.2 1205.4 235.35 1206.25 237 1208.25 237.3 1209.05 237.3 1209.8 237.45 1213.55 237.8 1217.25 238.25 1217.7 238.35 1218.15 238.55 1218.85 238.85 1219.35 238.4 1220.7 237.35 1221.8 238.85 1222.15 239.35 1222.6 239.45 1225.25 239.65 1229.95 243.5 1230.55 243.95 1231.15 244.5 1233.8 245.75 1236.15 246.25 1237.8 246.65 1239.5 246.35 1240.25 246.2 1241 246.1 1242.8 245.9 1243.9 245.15 1244.45 244.7 1245.1 244.7 1250.65 244.7 1256.2 245.15 1256.9 245.2 1257.6 245.35 1259.65 245.65 1261.25 247.15 1261.75 247.6 1262.35 247.2 1263.95 246.1 1265.3 243.8 1267.7 239.75 1272.2 240.8 1275.55 241.6 1279.1 241.35 1283 241.3 1285.4 242.35 1286.45 242.8 1287.45 242.8 1290.95 242.5 1294.4 242.2 1296.35 242.05 1297.9 242.35 1299.9 242.8 1301.45 244.5 1302.85 245.9 1304.7 245.45 1305.5 245.2 1306.25 245.15 1309.65 244.7 1313.05 245.15 1313.8 245.2 1314.5 245.35 1316.25 245.65 1317.95 246.05 1319.45 246.35 1320 245.45 1320.35 244.7 1321.4 244.7 1328.7 244.7 1336 244.25 1336.7 244.25 1337.4 243.8 1339.75 242.55 1342.25 241.75 1343.3 241.35 1344.35 241.2 1347.25 240.65 1348.75 242.35 1349.2 242.8 1349.75 243.2 1350.6 243.75 1351.4 244.5 1354.25 246.7 1356.75 248.05 1357.85 248.55 1359 249.1 1359.95 249.5 1361 249.65 1364.5 249.9 1367.6 249.1
L 1367.6 -2.95 817.65 -2.95 817.65 190.15
Q 817.9 190 818.1 189.8 819.15 188.4 820.45 188.45 824.2 188.65 826.65 187.2 827.05 186.95 827.45 186.5 828.1 186 828.3 185.2 828.75 183.85 830.25 184.3 830.9 184.5 831.3 184.1 832.3 183.1 833.5 183.85 834.45 184.35 835.7 184.3 837.6 184.3 838.55 185.25 840.9 187.7 842.7 184.5 843.05 184.1 843.05 183.5 843.25 180 846.1 180.9 846.85 181.2 847.55 181.4 848.2 181.65 848.75 182 849.75 182.75 851.65 183.05 852.05 183.1 852.4 183.1 854.1 183.55 855.85 183.85 856.6 184.1 856.95 184.8 857.95 186.4 860.05 184.6 861.45 183.55 862.85 182.75 864.2 182.1 865.4 181.25 868.05 179.55 871.1 179.8 871.8 179.8 872.35 179.35 873.85 178.05 877.15 177.4 879.2 178.8 881.5 178.45 882.55 178.3 883.65 178 884.3 177.85 884.7 178.3 885.7 179.35 887.75 180 888.15 180.2 888.5 180.2 889.85 180.2 891.25 179.85 891.95 179.8 892.4 180.2 893.85 181.85 896.75 181.95 899.9 182.1 903 182.9 903.55 183 904.05 183.2 945.15 109.3 1006.15 65
L 1006.15 64.95
M 1068.8 28.95
L 1068.8 29.45
Q 1040.95 28.2 1041.45 53.5 1021.25 31.7 1008.35 59.25 1020.65 -4 1068.8 28.95
M 1004.1 60.55
L 1004 61.05
Q 976.9 54.4 972.45 79.3 956.85 53.95 938.85 78.5 963.3 18.85 1004.1 60.55
M 1024 92.4
Q 1039.6 67.15 1009.6 62.05 1073.8 57 1054.95 112.15
L 1054.5 112.3
Q 1048.25 85.1 1024 92.4
M 1009.6 62.05
Q 1039.6 67.15 1024 92.4 1048.25 85.1 1054.5 112.3
L 1054.95 112.15
Q 1073.8 57 1009.6 62.05
M 1004 61.05
L 1004.1 60.55
Q 963.3 18.85 938.85 78.5 956.85 53.95 972.45 79.3 976.9 54.4 1004 61.05
M 1068.8 29.45
L 1068.8 28.95
Q 1020.65 -4 1008.35 59.25 1021.25 31.7 1041.45 53.5 1040.95 28.2 1068.8 29.45
M 1006.55 65.55
L 1006.15 65
Q 945.15 109.3 904.05 183.2 899.8 190.75 895.85 198.6 897 199.75 898.3 201.2
L 898.9 201.4
Q 898.9 201.3 898.9 201.2 898.9 201.15 898.9 201.1 898.9 199.65 902.4 197.95 905.55 196.45 909.9 196.65 914.1 196.9 930.25 204.55 930.25 201.85 930.35 199.15 932.75 130.3 1006.55 65.55
M 1006.15 65
L 1006.55 65.55 1006.15 64.95 1006.15 65 Z"/>

<path fill="#FF6600" stroke="none" d="
M 214.65 125.85
Q 214.7 125.85 214.75 125.85 216.75 125.15 218.85 124.45
L 219.65 125.4 231.3 138.25 234.55 141.8 263 173.3
Q 252.35 168.55 241.4 164.5 241.35 164.45 241.3 164.45 234 161.7 226.55 159.2
L 226.45 159.15
Q 221 157.4 215.5 155.7 215.4 155.65 215.3 155.65 213.65 155.1 211.95 154.65 211.85 154.65 211.75 154.6 211.2 154.45 210.65 154.3
L 209.55 153.95
Q 209.3 153.9 209.1 153.85 208.65 153.7 208.25 153.6 206.25 153 204.2 152.5 204.15 152.45 204.15 152.5 190.65 148.8 176.65 145.95
L 176.65 145.9
Q 175.35 145.7 174.1 145.4
L 174.15 145.05
Q 182.15 139.75 191.7 135.2
L 189.4 130.55
Q 173.7 137.9 159.25 147.4 166.35 148.15 173.5 149.3 174.6 149.45 175.7 149.65 189.5 151.95 203.35 155.6 207.05 156.6 210.75 157.7 218.05 159.8 225.45 162.35 232.75 164.8 240.15 167.75 261.75 176.25 283.6 188.05
L 219.5 118.65
Q 207.45 122.5 196.05 127.5 195.95 127.55 195.9 127.6 192.7 128.95 189.6 130.4
L 189.5 130.45 191.7 135.2
Q 193.7 134.2 195.8 133.3 196.2 133.1 196.55 132.95
L 196.6 132.95
Q 197.3 132.65 198 132.35 205.85 128.9 214.65 125.85
M 352.65 229.4
L 352.7 230.05 353.3 236.65 356.35 270.6 356.55 273.15
Q 357.8 273.35 359.25 273.6
L 359.95 273.5 360.3 273.3 361.3 273.3 361.1 269.75 359.05 235.2 359 234.95 352.65 229.4
M 356.75 203.8
L 350.4 204.75 351.95 221.6 358.5 226.95 358.35 224.35 357.1 203.8 356.75 203.8 Z"/>

<path fill="#FFFF99" stroke="none" d="
M 187.55 64.95
L 187.55 65 187.95 65.55 187.55 64.95 Z"/>

<path fill="#FFCC33" stroke="none" d="
M 408.2 277.85
L 420.6 277.4 407.65 266.85 366.4 233.35 361.4 229.3 358.5 226.95 351.95 221.6 349.5 219.6 346 223.6 347.6 225 352.65 229.4 359 234.95 359.3 235.2 399.75 270.45 408.2 277.85 Z"/>

<path fill="#006666" stroke="none" d="
M -0.95 212.4
L -0.95 269.75
Q 20.85 269.1 58.65 266.45 78.5 268.9 80.1 268.9 80.7 268.9 84.6 268.45 88.45 267.95 89.1 267.95 93.9 267.95 118.05 270.9 142.2 273.85 150 273.85 154.1 273.85 163.7 272.35 160.35 267 157.55 260.3
L 158.05 260.1
Q 173.9 260 189.85 260.2 231.5 260.6 273.8 262.7 274.15 262.6 274.45 262.5 274.8 262.45 275.1 262.35 271.15 267.85 267.6 272.25 266.75 273.3 265.95 274.25 294.35 277.85 295.65 277.85 301 277.85 305.2 276.35 307.8 275.4 311.55 275.1 313.75 274.85 316.3 274.85 321.25 274.85 330.25 276.35 338 277.65 346.6 277.2 347.9 277.05 349.25 277 353.7 276.6 363.75 276.55 374.55 276.45 391.95 276.7 374.7 276.05 364 274.35 363.85 274.35 363.75 274.3 361.3 273.9 359.25 273.6 357.8 273.35 356.55 273.15 348.35 271.8 348.15 271.6 348.55 271.2 349.1 270.65 349.4 270.35 349.7 270.05 348.9 270.35 348.05 270.55 347.15 270.75 346.25 270.85 342 271.25 337.05 269.05 335.7 268.45 334.3 267.7 328.85 264.7 325.7 263.7 326.75 262 327.85 259.8 331.35 252.5 317 248.55 302.6 244.55 298.05 244.35 293.55 244.2 286.5 244.2 284.3 244.2 280.4 246.2 279.65 246.6 278.9 246.95
L 278.35 245.7
Q 273.65 241.45 270 238.85 268.85 238.05 267.8 237.35 262.15 233.85 257.4 233.85 253.3 233.85 250 235.35 247.65 236.4 245.5 236.7 245.05 236.75 244.6 236.8 244.1 236.85 243.6 236.85 241.45 236.85 237.5 235.35
L 243.6 236.85 244.05 236.2 244.55 235.4 244.5 235.4
Q 243.55 234.8 241.55 233.6 240.65 233.05 239.55 232.4 235.4 230 234.5 230 233 230 230.1 230.75 227.2 231.45 225.35 231.45 221.1 231.45 214.3 232.15 207.4 232.85 204.95 229.15 202.5 225.5 197.55 225.75 192.65 226.05 191.6 227 192.35 228.5 196.2 231.1 196.85 231.55 197.35 231.9 196.2 232.1 193.8 232.7 191.35 233.35 191.1 233.35 179.05 233.35 171.55 226.9 171.15 226.6 170.85 226.25 167.45 222.7 167.85 224.9 168.2 227.05 164.75 223.7 161.3 220.35 157.6 222.05 158.4 222.85 160.75 224.65 162.9 226.35 164 227
L 163.75 227.8
Q 161.9 227.25 160.15 226.8 145.15 222.7 139.55 222.4 139.45 222.4 139.3 222.4 132.55 222.05 125.15 223.8 124.95 223.85 124.75 223.9 136.85 220.55 110.05 213.55 110.95 213.5 111.75 213.4 111.85 213.4 112 213.4 126.7 211.75 112.65 205 112.15 204.75 111.65 204.55 95.5 196.9 91.3 196.65 86.95 196.45 83.8 197.95 80.3 199.65 80.3 201.1 80.3 201.15 80.3 201.2 80.3 201.3 80.3 201.4 80.3 201.7 80.35 201.9 80.15 201.7 80 201.5 79.85 201.35 79.7 201.2 78.4 199.75 77.25 198.6 76.35 197.75 75.55 197.05 66.15 189.05 43.2 191.1 20.2 193.1 1.15 210.4 0.05 211.4 -0.95 212.4
M 199.45 234.45
Q 199.15 233.9 199.3 233.65 199.65 234 199.8 234.35 199.6 234.4 199.45 234.45 Z"/>

<path fill="#FF9900" stroke="none" d="
M 314.9 293.25
L 306.8 292.6 291.65 294.2
Q 298.1 296.45 305.35 298.1
L 314.9 293.25
M 370.55 303.15
L 367.5 298.95 360.8 298.6 358.55 303.35
Q 361.05 303.35 363.1 303.3 366.75 303.25 370.55 303.15
M 341.2 296.5
L 333.45 296.1 324.9 301.4 325.65 301.6
Q 331.5 302.3 337.8 302.75 337.9 302.75 337.95 302.75
L 341.2 296.85 341.2 296.5 Z"/>

<path fill="#99CC00" stroke="none" d="
M 191 62.05
Q 221 67.15 205.4 92.4 229.65 85.1 235.9 112.3
L 236.35 112.15
Q 255.2 57 191 62.05
M 185.4 61.05
L 185.5 60.55
Q 144.7 18.85 120.25 78.5 138.25 53.95 153.85 79.3 158.3 54.4 185.4 61.05
M 250.2 29.45
L 250.2 28.95
Q 202.05 -4 189.75 59.25 202.65 31.7 222.85 53.5 222.35 28.2 250.2 29.45 Z"/>
</g>

<path id="Layer0_0_1_STROKES" stroke="#000000" stroke-width="1" stroke-linejoin="round" stroke-linecap="round" fill="none" d="
M 1068.8 28.95
Q 1020.65 -4 1008.35 59.25 1021.25 31.7 1041.45 53.5 1040.95 28.2 1068.8 29.45
L 1068.8 28.95 Z
M 1004 61.05
Q 976.9 54.4 972.45 79.3 956.85 53.95 938.85 78.5 963.3 18.85 1004.1 60.55
L 1004 61.05 Z
M 1006.15 64.95
L 1006.15 65 1006.55 65.55 1006.15 64.95 Z
M 1054.95 112.15
Q 1073.8 57 1009.6 62.05 1039.6 67.15 1024 92.4 1048.25 85.1 1054.5 112.3
L 1054.95 112.15 Z
M 1022.75 152.5
Q 1009.25 148.8 995.25 145.95
L 995.25 145.9
Q 993.95 145.7 992.7 145.4
L 992.75 145.05
Q 1000.75 139.75 1010.3 135.2
L 1008 130.55
Q 992.3 137.9 977.85 147.4 984.95 148.15 992.1 149.3 993.2 149.45 994.3 149.65 1008.1 151.95 1021.95 155.6 1025.65 156.6 1029.35 157.7 1036.65 159.8 1044.05 162.35 1051.35 164.8 1058.75 167.75 1080.35 176.25 1102.2 188.05
L 1038.1 118.65
Q 1026.05 122.5 1014.65 127.5 1014.55 127.55 1014.5 127.6 1011.3 128.95 1008.2 130.4
L 1008.1 130.45 1010.3 135.2 1022.8 152.5
Q 1022.75 152.45 1022.75 152.5 Z
M 1033.45 126.2
L 1027.7 153.85
Q 1027.25 153.7 1026.85 153.6
L 1027 153 1014.4 133.3
Q 1014.8 133.1 1015.15 132.95
L 1015.2 132.95
Q 1015.9 132.65 1016.6 132.35 1024.45 128.9 1033.25 125.85 1033.3 125.85 1033.35 125.85
L 1033.45 126.2 Z
M 1029.25 154.3
L 1030.35 154.55 1038.25 125.4 1049.9 138.25 1030.35 154.55
M 1021.45 178.05
L 1018.7 207 1034.25 208.2 1030.35 173.55 1004.8 176.3 1004.8 176.35 1003.35 180.05 1013.7 178.9 1021.45 178.05 Z
M 1059.9 164.45
Q 1052.6 161.7 1045.15 159.2
L 1045.05 159.15
Q 1039.6 157.4 1034.1 155.7
L 1053.15 141.8 1081.6 173.3
Q 1070.95 168.55 1060 164.5 1059.95 164.45 1059.9 164.45 Z
M 1058.75 167.75
Q 1052.35 196.85 1063.25 231.3
L 1066.8 231.1
Q 1067.95 230.7 1069.15 230.35 1069.95 230.1 1070.7 229.9 1073.6 229.4 1075.45 230.55
L 1083.05 230.1
Q 1083.4 229.45 1083.65 228.6 1083.9 227.95 1084.3 227.8 1084.95 227.45 1085.55 227.95 1087.7 229.6 1090.25 229.6 1091 229.6 1091.15 229.15 1091.7 227.9 1093.2 228.75 1093.6 229 1094.1 229.2 1094.25 229.3 1094.4 229.4
L 1166.2 225 1164.6 223.6 1168.1 219.6 1170.55 221.6 1169 204.75 1175.35 203.8 1175.7 203.8 1176.95 224.35 1195.95 223.15 1196.85 227.85 1180 229.3 1185 233.35
Q 1187.4 233.25 1188.85 234.35 1189.45 234.7 1190.05 234.25 1192.2 232.55 1194.7 233 1195.5 233.2 1196.3 233.5 1197.75 234.2 1199.2 234.85 1200 235.2 1200.8 235.35 1202.65 235.75 1204.45 235.35 1205.3 235.2 1205.4 235.35 1206.25 237 1208.25 237.3 1209.05 237.3 1209.8 237.45 1213.55 237.8 1217.25 238.25 1217.7 238.35 1218.15 238.55 1218.85 238.85 1219.35 238.4 1220.7 237.35 1221.8 238.85 1222.15 239.35 1222.6 239.45 1225.25 239.65 1229.95 243.5 1230.55 243.95 1231.15 244.5 1233.8 245.75 1236.15 246.25 1237.8 246.65 1239.5 246.35 1240.25 246.2 1241 246.1 1242.8 245.9 1243.9 245.15 1244.45 244.7 1245.1 244.7 1250.65 244.7 1256.2 245.15 1256.9 245.2 1257.6 245.35 1259.65 245.65 1261.25 247.15 1261.75 247.6 1262.35 247.2 1263.95 246.1 1265.3 243.8 1267.7 239.75 1272.2 240.8 1275.55 241.6 1279.1 241.35 1283 241.3 1285.4 242.35 1286.45 242.8 1287.45 242.8 1290.95 242.5 1294.4 242.2 1296.35 242.05 1297.9 242.35 1299.9 242.8 1301.45 244.5 1302.85 245.9 1304.7 245.45 1305.5 245.2 1306.25 245.15 1309.65 244.7 1313.05 245.15 1313.8 245.2 1314.5 245.35 1316.25 245.65 1317.95 246.05 1319.45 246.35 1320 245.45 1320.35 244.7 1321.4 244.7 1328.7 244.7 1336 244.25 1336.7 244.25 1337.4 243.8 1339.75 242.55 1342.25 241.75 1343.3 241.35 1344.35 241.2 1347.25 240.65 1348.75 242.35 1349.2 242.8 1349.75 243.2 1350.6 243.75 1351.4 244.5 1354.25 246.7 1356.75 248.05 1357.85 248.55 1359 249.1 1359.95 249.5 1361 249.65 1364.5 249.9 1367.6 249.1
L 1367.6 -2.95 817.65 -2.95 817.65 190.15
Q 817.9 190 818.1 189.8 819.15 188.4 820.45 188.45 824.2 188.65 826.65 187.2 827.05 186.95 827.45 186.5 828.1 186 828.3 185.2 828.75 183.85 830.25 184.3 830.9 184.5 831.3 184.1 832.3 183.1 833.5 183.85 834.45 184.35 835.7 184.3 837.6 184.3 838.55 185.25 840.9 187.7 842.7 184.5 843.05 184.1 843.05 183.5 843.25 180 846.1 180.9 846.85 181.2 847.55 181.4 848.2 181.65 848.75 182 849.75 182.75 851.65 183.05 852.05 183.1 852.4 183.1 854.1 183.55 855.85 183.85 856.6 184.1 856.95 184.8 857.95 186.4 860.05 184.6 861.45 183.55 862.85 182.75 864.2 182.1 865.4 181.25 868.05 179.55 871.1 179.8 871.8 179.8 872.35 179.35 873.85 178.05 877.15 177.4 879.2 178.8 881.5 178.45 882.55 178.3 883.65 178 884.3 177.85 884.7 178.3 885.7 179.35 887.75 180 888.15 180.2 888.5 180.2 889.85 180.2 891.25 179.85 891.95 179.8 892.4 180.2 893.85 181.85 896.75 181.95 899.9 182.1 903 182.9 903.55 183 904.05 183.2 945.15 109.3 1006.15 65
M 817.65 269.75
Q 839.45 269.1 877.25 266.45 897.1 268.9 898.7 268.9 899.3 268.9 903.2 268.45 907.05 267.95 907.7 267.95 912.5 267.95 936.65 270.9 960.8 273.85 968.6 273.85 972.7 273.85 982.3 272.35 978.95 267 976.15 260.3
L 976.65 260.1
Q 992.5 260 1008.45 260.2 1050.1 260.6 1092.4 262.7 1092.75 262.6 1093.05 262.5 1093.4 262.45 1093.7 262.35 1089.75 267.85 1086.2 272.25 1085.35 273.3 1084.55 274.25 1112.95 277.85 1114.25 277.85 1119.6 277.85 1123.8 276.35 1126.4 275.4 1130.15 275.1 1132.35 274.85 1134.9 274.85 1139.85 274.85 1148.85 276.35 1156.6 277.65 1165.2 277.2 1166.5 277.05 1167.85 277 1172.3 276.6 1182.35 276.55 1193.15 276.45 1210.55 276.7 1193.3 276.05 1182.6 274.35 1182.45 274.35 1182.35 274.3 1179.9 273.9 1177.85 273.6 1176.4 273.35 1175.15 273.15 1166.95 271.8 1166.75 271.6 1167.15 271.2 1167.7 270.65 1168 270.35 1168.3 270.05 1167.5 270.35 1166.65 270.55 1165.75 270.75 1164.85 270.85 1160.6 271.25 1155.65 269.05 1154.3 268.45 1152.9 267.7 1147.45 264.7 1144.3 263.7 1145.35 262 1146.45 259.8 1149.95 252.5 1135.6 248.55 1121.2 244.55 1116.65 244.35 1112.15 244.2 1105.1 244.2 1102.9 244.2 1099 246.2 1098.25 246.6 1097.5 246.95
L 1096.95 245.7
Q 1092.25 241.45 1088.6 238.85 1087.45 238.05 1086.4 237.35 1080.75 233.85 1076 233.85 1071.9 233.85 1068.6 235.35 1066.25 236.4 1064.1 236.7 1063.65 236.75 1063.2 236.8 1062.7 236.85 1062.2 236.85 1060.05 236.85 1056.1 235.35
L 1062.2 236.85 1063.15 235.4 1063.1 235.4
Q 1062.15 234.8 1060.15 233.6 1059.25 233.05 1058.15 232.4 1054 230 1053.1 230 1051.6 230 1048.7 230.75 1045.8 231.45 1043.95 231.45 1039.7 231.45 1032.9 232.15 1026 232.85 1023.55 229.15 1021.1 225.5 1016.15 225.75 1011.25 226.05 1010.2 227 1010.95 228.5 1014.8 231.1 1015.45 231.55 1015.95 231.9 1014.8 232.1 1012.4 232.7 1009.95 233.35 1009.7 233.35 997.65 233.35 990.15 226.9 989.75 226.6 989.45 226.25 986.05 222.7 986.45 224.9 986.8 227.05 983.35 223.7 979.9 220.35 976.2 222.05 977 222.85 979.35 224.65 981.5 226.35 982.6 227
L 982.35 227.8
Q 980.5 227.25 978.75 226.8 963.75 222.7 958.15 222.4 958.05 222.4 957.9 222.4 951.15 222.05 943.75 223.8 943.55 223.85 943.35 223.9 955.45 220.55 928.65 213.55 929.55 213.5 930.35 213.4 930.45 213.4 930.6 213.4 945.3 211.75 931.25 205 930.75 204.75 930.25 204.55 914.1 196.9 909.9 196.65 905.55 196.45 902.4 197.95 898.9 199.65 898.9 201.1 898.9 201.15 898.9 201.2 898.9 201.3 898.9 201.4 898.9 201.7 898.95 201.9 898.75 201.7 898.6 201.5 898.45 201.35 898.3 201.2 897 199.75 895.85 198.6 894.95 197.75 894.15 197.05 884.75 189.05 861.8 191.1 838.8 193.1 819.75 210.4 818.65 211.4 817.65 212.4
L 817.65 269.75 817.65 276.75
Q 831.7 279.15 853.55 280.9 854.85 281 856.1 281.1 867.7 282 878.5 282.6 880.2 282.7 881.9 282.8 885.8 283 889.65 283.15 891.3 283.85 900.7 290.85 909.05 297.1 915.3 298.55 918.2 299.25 921.65 300.35 921.7 300.35 921.8 300.4 922 300.45 922.2 300.55 930.15 302 933.45 303.95 934.05 304.3 934.95 304.6 937.6 305.4 942.75 305.4 944.6 305.4 949.7 306.65 953.5 307.6 955.35 307.85 955.95 307.9 956.35 307.9 957.45 307.9 962.15 307.1 968.15 306.1 972 305.65
L 972 307
Q 969.35 307.2 967 307.65 972.2 307.55 978.05 307.2
L 981.75 307.45
Q 981.9 307.8 981.95 307.7 982 307.75 982 309.1 982 310.25 981.1 312.2 980.2 314.2 980.2 315.3 980.2 316.45 980.75 317.5 980.8 317.6 980.85 317.65 981.35 318.55 982.3 319.35 983.35 320.25 984.95 321 988 322.5 998.1 326.2 1000.2 327.05 1005.1 328.65
L 1005.15 328.65
Q 1012.2 330.95 1025.05 334.85 1025.85 335.1 1026.65 335.35 1028 335.35 1058.55 330.1 1089.15 324.85 1104.4 324.85 1122.1 324.85 1132.35 327.4 1137.5 328.7 1140.3 329.95 1143.25 329.9 1145.85 330 1145.9 330 1146 330 1156.55 330.4 1160.15 332.9 1161 333.5 1162.2 335.1 1162.6 335.6 1163.1 335.85 1163.55 336.1 1164.15 336.1 1184 336.1 1201.05 330.45 1203.6 329.65 1212.2 326.35 1217.55 324.3 1220.25 323.95 1243.15 321.25 1268.15 318.4 1271.8 317.85 1274.45 317.15 1274.55 317.1 1274.75 317.1 1277.1 316.45 1278.55 315.75 1281.7 314.2 1281.7 311.6 1281.7 310.45 1280.8 308.2 1279.9 305.95 1279.9 304.95 1289.1 303.8 1294.55 302.3 1297.6 301.5 1301.5 300.15 1308.55 298.1 1332.9 298.1 1341.65 298.1 1351.65 295.2 1363.45 291.8 1367.6 290.6
M 1367.6 288.65
Q 1358.35 283.45 1340.85 281.35
L 1340.85 280.65
Q 1339.65 281.9 1338.5 283.1 1335.15 282.25 1330.45 281 1315.85 279.05 1293.75 284.35 1271.6 289.65 1277 286.6 1282.45 283.5 1259.55 279.55 1250.5 277.95 1245.05 278.3 1240.5 272.1 1236.85 263.8 1230.55 264.3 1226.25 266.85
L 1239.2 277.4 1226.8 277.85 1177.65 235.25 1179.7 269.75
Q 1180.2 269.65 1180.7 269.55 1187.2 268.25 1189.1 268.25 1192.9 268.25 1200.65 269.55 1206.65 270.55 1210.95 270.8 1212.75 270.6 1214.6 270.7 1215.05 270.75 1215.55 270.8
M 1167.7 270.65
Q 1170 270.85 1171.65 270.85 1172.85 270.85 1174.95 270.6
L 1171.9 236.65
Q 1170.4 236.3 1169.2 234.7 1167 236.35 1164.9 240.4 1164.65 240.9 1163.95 240.7 1162.8 240.4 1161.6 240.1 1157.3 239.05 1155.3 241.45 1154.9 241.95 1154.2 242.25 1152.8 242.8 1152.25 243.5 1151.85 244.05 1151.15 243.8 1149.55 243.35 1149.25 244.55 1147.3 243.35 1146.8 244.7 1146.65 245.1 1145.9 245.15 1141.1 245.45 1138.8 242.5 1138.35 241.95 1137.65 242.25 1136.2 242.8 1135.75 243.5 1135.35 244.05 1134.6 243.95 1133.2 243.95 1132 242.5 1131.6 241.95 1130.85 241.8 1128.75 241.2 1127.55 239.15 1126.6 237.45 1124.1 238.1 1123.3 238.35 1122.5 238.55 1118.8 239.45 1117.8 235.8 1117.65 235.2 1117.25 235 1117 234.85 1116.75 234.75
L 1112.6 235.1
Q 1111.6 235.9 1109.85 235.35
L 1086.4 237.35
M 1063.25 231.3
L 1058.2 231.6 1060.15 233.6
M 976.65 260.1
Q 983.95 262.4 991.3 264.2
L 1007.5 264.65 1005.4 267.05
Q 1013.8 268.45 1022.25 269.15 1022.45 269.15 1022.7 269.2
L 1026.75 266.35 1040.65 266.35 1043.6 269.75
Q 1053.25 269.55 1062.95 268.4 1063.3 268.35 1063.65 268.3
L 1061.85 266.2 1076.45 266.3
Q 1084.4 264.8 1092.4 262.7
M 1084.55 274.25
Q 1080.65 278.85 1077.25 282.1 1077 282.05 1076.75 282.05 1076.65 282.05 1072.8 283.5 1068.9 284.9 1066.35 284.9 1059.05 284.9 1053.1 284.05 1047.15 283.2 1032.55 283.2 1029 283.2 1015.6 281.3 1002.3 279.4 997.8 279.4 994.05 279.4 990.95 280.75 990.1 281.1 989.3 281.35 985.55 277.45 982.3 272.35
M 1063.65 268.3
Q 1070 267.5 1076.45 266.3
M 1125.55 289.05
Q 1108.85 287.8 1094.8 287.45 1094.75 287.45 1094.7 287.45 1094.75 287.5 1094.8 287.55 1094.95 287.6 1095.15 287.7 1102.05 291.35 1110.25 294.2
L 1125.4 292.6 1133.5 293.25 1123.95 298.1
Q 1131.8 299.95 1140.55 301.15 1140.7 301.2 1140.85 301.2 1142.5 301.4 1144.2 301.6
L 1144.25 301.6 1143.5 301.4 1152.05 296.1 1159.8 296.5 1159.8 296.85 1156.55 302.75
Q 1157.05 302.8 1157.55 302.8 1157.6 302.8 1157.65 302.8 1158.3 302.85 1159 302.9 1167.85 303.4 1177.15 303.35
L 1179.4 298.6 1186.1 298.95 1189.15 303.15
Q 1189.2 303.15 1189.25 303.15 1204.45 302.6 1221.4 300.8
L 1221.5 300.4
Q 1203.15 297.65 1186.55 295.5
L 1186.5 295.5
Q 1172.85 293.7 1160.35 292.3 1160.25 292.3 1160.2 292.3 1160 292.3 1159.8 292.3 1156.05 291.85 1152.5 291.5 1138.3 290 1125.7 289.05 1125.65 289.05 1125.55 289.05 Z
M 1221.4 300.8
Q 1215.8 306.65 1210.25 311.1 1207.1 310.55 1206.5 310.55 1204.6 310.55 1195.35 313.25 1186.1 315.95 1177.8 315.95 1175.8 315.95 1166.6 314.6 1156.05 313.1 1151 312.7 1146.65 312.3 1138.5 312.75 1131 313.25 1130.3 313.25 1126.9 313.25 1123.9 312.9 1120.95 312.5 1118.4 311.8 1116.9 311.35 1110.1 308.6 1107.9 307.7 1105.45 307 1099.75 300.7 1094.8 288.4
L 1094.8 288.35 1095.15 287.7
M 1013.7 178.9
L 1015.85 207.05 993.95 205.6 989.35 205.35 989.9 209.25 1036.7 212.6 1038.45 208.6 1034.25 208.2
M 1022.7 269.2
Q 1033.1 270 1043.6 269.75
M 1367.6 311.4
Q 1363.95 311.6 1360.05 311.7 1356.6 311.8 1353 311.8 1350.45 311.8 1349.25 311.45 1348.15 310.9 1347.25 310.65 1346.6 310.45 1345.6 310.25 1340.85 311.3 1336.35 311.75 1333.5 312 1330.8 312.05 1330.3 312.05 1329.85 312.05 1327.05 312.05 1324.55 312.1 1323.65 313.1 1322.9 314.5 1319.6 320.45 1317.25 321.6 1314.65 322.85 1296.45 325.9 1278.5 328.85 1260.45 331.05 1248.8 332.55 1240.95 333.6 1225.85 337.65 1215.05 340.4 1194.35 345.75 1188.65 346.3 1174.3 349.85 1168.3 349.85 1165.05 349.85 1161.65 348.1 1157.65 345.65 1155.3 344.25 1145.9 338.6 1133.55 338.6 1125.45 338.6 1090.35 341.95 1077.45 343.15 1066.5 343.95 1045.95 347.15 1043.4 347.15 1037.55 347.15 1032.7 346.05 1032.35 345.95 1032 345.85 1030.75 345.55 1029.6 345.2 1018.8 344.85 1015.25 342.9 1013.6 342 1012.85 340.4 1012.25 338.5 1011.85 337.5 1011.2 335.7 1009.45 334.3 1006.7 333.05 1004 332.2 1003.05 331.9 1002.15 331.65 992.4 329.05 977.95 329.25 977.45 329.25 976.95 329.25 976.95 329.15 976.75 328.75 976.55 328.45 976.55 327.65 973.75 327.5 970.75 327.35 926.6 325.4 896.15 320.6 872.6 316.85 866.7 313.4 868.45 310.4 869.5 308.75 871.35 305.7 873.45 303.85
L 872.4 302.6
Q 848.35 294.4 841.95 292.35 836.45 291.05 823.7 289.45 820.5 289.05 817.65 288.8
L 817.65 297.05
Q 818.15 297.5 818.65 297.95 825.4 304.15 826.85 304.75 835.8 308.35 839.8 310.55 845.65 313.8 845.65 316.3 845.65 317.45 844.75 318.9 843.85 320.4 843.85 321.5 843.85 323.85 847.5 325 850.4 325.9 858.2 326.7 885.9 329.55 899.3 332.2 909.15 334.1 920.5 336.85 933.2 339.85 938.9 341.05 942.35 341.8 954.55 346.35 960.8 348.65 964.65 350.05 968 352.7 971.6 356.75 971.6 356.8 971.65 356.8 971.45 357.6 971.2 358.5 971.25 359.35 972.1 360.4 972.8 361.25 973.55 361.75 973.95 362.05 975.3 362.55 976.8 363.1 977.4 363.1
L 1035.45 364.25
Q 1036.95 364.25 1081.8 359.95 1126.7 355.6 1128.15 355.6 1129.6 355.6 1131.3 356.55 1132.75 357.3 1132.75 357.6 1132.6 358.05 1131.25 359.6 1130.3 361.25 1131.45 362.4 1134.95 365.95 1158.3 365.95 1170.3 365.95 1208.8 360.35 1228.2 357.5 1246.7 354.45 1273.5 350.1 1311.15 347.55 1322 346.8 1325.45 345.85 1329.85 344.65 1329.85 341.65 1329.85 340.55 1328.95 338 1328.05 335.45 1328.05 334.3 1328.05 334.1 1342.4 329.7 1347 328.3 1351.6 326.9 1350.85 326.9 1350.2 326.95
L 1350.2 324.2 1350.9 323.2 1350.9 318.45
Q 1353.7 317.95 1367.6 315.95
L 1367.6 311.4 1367.6 302.95
Q 1363.7 304.55 1359.9 305.95 1352.5 308.75 1345.6 310.25
M 976.55 327.65
Q 976.5 327.35 976.5 327 976.5 325.25 977.85 322.7 978.7 321.1 979 320 979.2 319.3 979.2 318.8 979.2 317.15 946 309.5 943.75 309 941.6 308.5
L 952.75 308.25
Q 952.15 308.15 951.55 308.1 943.9 307.2 942.75 307.2 940.45 307.2 937 306.55
L 936.8 307.35
Q 938.2 307.65 939.15 307.95 937.95 307.65 936.8 307.4
L 936.75 307.4
Q 935.6 307.1 934.45 306.85 932.25 306.35 930.15 305.85
L 930.1 305.85
Q 925.2 304.7 920.75 303.7
L 920.7 303.7
Q 880.85 294.5 878.6 293.95 878.4 295.15 878.4 292.9 878.4 292.6 881.5 289.85 884.8 286.85 885.45 285.5 883.45 284.9 884.15 284.2 884.85 283.4 884.6 283.25 884.2 283.05 882 282.85 881.95 282.85 881.9 282.85 880.5 282.75 878.55 282.65
L 878.5 282.65
Q 871.35 282.25 856 282 854.75 282 853.55 281.95
L 853.5 281.95
Q 833 281.65 817.65 281.1
L 817.65 288.8
M 1188.65 346.3
Q 1188 346.35 1187.55 346.35 1171.8 346.35 1162.35 344.2 1158.45 343.3 1155.6 342.05 1154.65 341.6 1150.3 339.05 1148 337.7 1145.7 337.7 1111.45 337.7 1075.8 342.45 1070.75 343.25 1066.5 343.95
M 1110.25 294.2
Q 1116.7 296.45 1123.95 298.1
M 1286.85 268.45
L 1300.75 268.45 1303.7 271.85
Q 1313.7 271.65 1323.75 270.4
L 1321.95 268.3 1336.55 268.4
Q 1342.65 267.25 1348.85 265.75 1350.65 265.3 1352.5 264.8 1294 261.9 1236.75 262.2 1239.3 263 1241.8 263.75 1246.6 265.1 1251.4 266.3
L 1267.6 266.75 1265.5 269.15
Q 1273.9 270.55 1282.35 271.25 1282.55 271.25 1282.8 271.3
L 1286.85 268.45 Z
M 1236.85 263.8
Q 1236.55 263.1 1236.25 262.4
L 1236.75 262.2
M 1251.4 266.3
Q 1258.4 267.95 1265.5 269.15
M 1176.95 224.35
L 1177.1 226.95 1180 229.3
M 1116.75 234.75
L 1171.3 230.05 1171.9 236.65
M 1155.65 269.05
Q 1162.2 270.1 1166.65 270.55
M 1170.55 221.6
L 1177.1 226.95
M 1177.6 234.95
L 1166.2 225
M 1177.15 303.35
Q 1179.65 303.35 1181.7 303.3 1185.35 303.25 1189.15 303.15
M 1144.25 301.6
Q 1150.1 302.3 1156.4 302.75 1156.5 302.75 1156.55 302.75
M 1324.55 312.1
Q 1307.3 312.2 1302.45 313.4 1300.5 314.8 1297.8 314.95 1298.2 316.15 1299.6 318.25 1296.95 320.05 1277 324.95 1276.7 325 1276.4 325.1 1276.35 325.1 1276.3 325.15 1273.05 325.9 1270.05 326.6 1251.9 330.85 1244.55 332.65 1242.7 333.15 1240.95 333.6
M 1185 233.35
L 1226.25 266.85
M 993.95 205.6
L 1003.35 180.05
M 1006.55 65.55
Q 932.75 130.3 930.35 199.15 930.9 199.55 931.5 199.65 932.2 199.8 932.65 200.25 934 201.7 935.6 201.35 936.05 201.25 936.4 201.05 938.65 200.4 939.75 201.8 941.1 203.5 942.6 204.6 945.45 206.7 948.1 209.45 948.5 209.85 948.9 209.95 951.6 210.75 952.8 209.15 954.65 206.85 958.45 207.8 960.2 208.3 962.1 208.4 972.55 175.55 994.3 149.65
M 958.15 222.4
Q 959.85 215.25 962.1 208.4
M 930.35 199.15
Q 930.25 201.85 930.25 204.55
M 898.9 201.4
L 898.3 201.2
M 971.8 355.9
L 971.8 355.95
Q 971.9 355.5 971.95 355.1
L 971.8 355.9 Z
M 929.8 308.75
Q 943.35 309.65 940.9 308.5
L 929.8 308.75 Z
M 817.65 190.15
L 817.65 212.4
M 895.85 198.6
Q 899.8 190.75 904.05 183.2
M 817.65 297.05
L 817.65 400 1367.6 400 1367.6 315.95
M 1367.6 267.25
L 1367.6 249.1
M 1352.5 264.8
Q 1352.85 264.7 1353.15 264.6 1353.5 264.55 1353.8 264.45 1353.25 265.2 1352.75 265.95 1360.2 266.4 1367.6 267.25
L 1367.6 283.75
M 1367.6 288.65
L 1367.6 286.7
M 1367.6 283.75
Q 1359.75 282.35 1345.05 280
L 1341.45 280 1340.85 280 1340.85 280.65
M 1341.45 280
Q 1346.6 274.35 1352.75 265.95
M 1323.75 270.4
Q 1330.1 269.6 1336.55 268.4
M 1367.6 302.95
L 1367.6 290.6
M 1282.8 271.3
Q 1293.2 272.1 1303.7 271.85"/>
</defs>

<g transform="matrix( 1, 0, 0, 1, 0,0) ">
<use xlink:href="#Layer0_0_FILL"/>

<use xlink:href="#Layer0_0_1_STROKES"/>
</g>
</svg>
