
<svg xmlns="http://www.w3.org/2000/svg" version="1.1" xmlns:xlink="http://www.w3.org/1999/xlink" preserveAspectRatio="none" x="0px" y="0px" width="550px" height="400px" viewBox="0 0 550 400">
<defs>
<linearGradient id="Gradient_1" gradientUnits="userSpaceOnUse" x1="-572.65" y1="263.8625" x2="-587.4499999999999" y2="162.6375" spreadMethod="pad">
<stop  offset="0%" stop-color="#D6F589"/>

<stop  offset="100%" stop-color="#FDC2B5"/>
</linearGradient>

<linearGradient id="Gradient_2" gradientUnits="userSpaceOnUse" x1="-400.72499999999997" y1="261.925" x2="-400.675" y2="143.475" spreadMethod="pad">
<stop  offset="0%" stop-color="#D6F589"/>

<stop  offset="100%" stop-color="#FDC2B5"/>
</linearGradient>

<g id="Layer0_0_FILL">
<path fill="#FFFFFF" stroke="none" d="
M -33.05 -6.95
Q -48 -13.6 -64.7 -21.05
L -64.7 376.85 -11.8 364.5 -33.05 -6.95
M 276.1 330.3
L 252.5 326.65 252.45 326.65 234.5 323.85 7.8 405.85 101.7 405.85 276.1 330.3
M 291.5 332.65
L 291.55 334.05 291.5 332.65 276.1 330.3 101.7 405.85 205.45 405.85 355.85 342.6 291.5 332.65
M 19.85 357.05
L 19.75 358.55 19.85 357.05 -11.8 364.5 -11.75 365.75 -11.8 364.5 -64.7 376.85 -64.7 405.85 7.8 405.85 234.5 323.85 192.75 317.45
Q 192.7 317.75 192.65 318.1 192.7 317.75 192.75 317.45
L 191.85 317.3 191.75 316.8 19.85 357.05
M 41.25 27.75
L 42 26.05
Q 12.8 13.4 -33.05 -6.95
L -11.8 364.5 19.85 357.05 41.25 27.75
M 192.1 82.7
Q 192 82.75 191.85 82.8 192.65 105.7 193.2 127.85 195.75 230.15 192.9 316.55 192.8 317 192.75 317.45
L 234.5 323.85 252.45 326.65 229.45 68.55
Q 211 75.9 192.1 82.7
M 191.85 82.8
Q 192 82.75 192.1 82.7 211 75.9 229.45 68.55
L 229.4 67.7 -38.2 -94 -64.7 -94 -64.7 -21.05
Q -48 -13.6 -33.05 -6.95 12.8 13.4 42 26.05
L 42.05 26.1
Q 72.85 39.45 85.05 44.25
L 84.95 42.1 85.05 44.25
Q 113.75 55.55 143.05 65.8 167.25 74.25 191.85 82 167.25 74.25 143.05 65.8 113.75 55.55 85.05 44.25
L 95.3 338.85 85.05 44.25
Q 72.85 39.45 42.05 26.1
L 41.25 27.75 19.85 357.05 191.75 316.8 192.9 316.55
Q 195.75 230.15 193.2 127.85 192.65 105.7 191.85 82.8
M 142.4 67.65
L 147.15 326.1 142.4 67.65
M 278.85 47.65
Q 277.7 48.15 276.55 48.7 253.45 59 229.7 68.45 229.6 68.5 229.45 68.55
L 252.45 326.65 252.5 326.65 276.1 330.3 291.5 332.65 278.85 47.65
M 276.55 48.7
L 276.15 47.8 133.35 -94 -38.2 -94 229.4 67.7 229.3 66.85 229.4 67.7 229.7 68.45
Q 253.45 59 276.55 48.7
M 549.65 372.4
L 507.75 365.95 423.75 405.85 503.75 405.85 549.65 372.4
M 551.7 372.75
L 549.65 372.4 503.75 405.85 575.75 405.85 600.3 380.2 565.05 374.8 551.7 372.75
M 507.75 365.95
L 495.75 364.1 495.75 365.2 495.75 364.1 445.5 356.4 322.65 405.85 423.75 405.85 507.75 365.95
M 445.5 356.4
L 355.85 342.6 205.45 405.85 322.65 405.85 445.5 356.4
M 347.35 145
L 346.65 145.1 358.55 281.8 439.1 287.85 448.95 111.7 347.35 145
M 525.3 76.1
L 524.85 76.25
Q 529.75 101.3 534.25 127.85 538.75 154.4 542.9 182.5 544.9 196.2 546.8 210.3 557.3 287.2 565.05 374.8
L 600.3 380.2 642.5 386.7 600.3 380.2 575.75 405.85 644.2 405.85 644.2 28.45 525.3 76.1
M 511.9 68.45
Q 512 69.2 511.6 68.3 516.95 97.45 521.85 127.85 526.15 154.7 530.1 182.5 539.5 249 546.8 320.95 549.35 346.25 551.65 372.2 551.7 372.45 551.7 372.75
L 565.05 374.8
Q 557.3 287.2 546.8 210.3 544.9 196.2 542.9 182.5 538.75 154.4 534.25 127.85 529.75 101.3 524.85 76.25
L 525.05 75.95 511.9 68.45
M 585.7 -94
L 584.05 -92.55 576.95 40.4 642.7 12.3 576.95 40.4 511.65 68.3 511.9 68.45 525.05 75.95 525.3 76.1 644.2 28.45 644.2 -94 585.7 -94
M 494.2 -46.5
L 494.15 -46.45 495.75 364.1 507.75 365.95 509.3 365.2 507.75 365.95 549.65 372.4 550.8 371.55 549.65 372.4 551.65 372.2
Q 549.35 346.25 546.8 320.95 539.5 249 530.1 182.5 526.15 154.7 521.85 127.85 516.95 97.45 511.6 68.3
L 511.6 68.25 511.65 68.3 576.95 40.4 584.05 -92.55 583.8 -93 494.2 -46.5
M 406.5 -10.65
L 406.5 -10.7 389.95 -94 270.65 -94 341.4 17.3
Q 341.6 17.2 341.8 17.1 351.1 12.2 406.45 -10.65
L 406.5 -10.65
M 406.5 -10.7
L 406.55 -10.7
Q 441.25 -25.05 494.1 -46.45
L 494.15 -46.45 494.2 -46.5 583.8 -93 583.8 -94 500.8 -94 493.65 -47.55 500.8 -94 389.95 -94 406.5 -10.7
M 406.55 -10.7
L 406.55 -10.4 407.1 -7.7 406.55 -10.4 408 113.9 406.55 -10.4 406.45 -10.65
Q 351.1 12.2 341.8 17.1
L 341.8 17.9 341.8 17.95 346.6 133.85 341.8 17.95 340 136.5 448.7 101.95 340 136.5 330.65 139.45 330.85 141.25 346.6 144.85 346.45 144.25 347.35 145 448.95 111.7 449.5 102 448.95 111.7 449.5 111.5 448.95 111.7 439.1 287.85 440.1 287.9 439.1 287.85 358.55 281.8 345.6 280.8 358.55 281.8 346.65 145.1 346.6 144.85 330.85 141.25 345.2 280.45 330.85 141.25 329.85 141.05 330.85 141.25 330.65 139.45 340 136.5 341.8 17.95 341.8 17.9 341.4 17.3
Q 310.75 33.3 278.85 47.65
L 291.5 332.65 355.85 342.6 356.95 342.05 355.85 342.6 445.5 356.4 495.75 364.1 494.15 -46.45 494.1 -46.45
Q 441.25 -25.05 406.55 -10.7
M 270.65 -94
L 133.35 -94 276.15 47.8 278.85 47.65 278.8 46.9 278.85 47.65
Q 310.75 33.3 341.4 17.3
L 270.65 -94 Z"/>

<path fill="#0099CC" stroke="none" d="
M -643.15 447.6
L -520.3 398.15 -609.95 384.35 -760.35 447.6 -643.15 447.6
M -458.05 407.7
L -467.55 412.2 -542.05 447.6 -462.05 447.6 -416.15 414.15 -458.05 407.7
M -365.5 421.95
L -390.05 447.6 -321.6 447.6 -321.6 428.45 -323.3 428.45 -323.9 428.35 -365.5 421.95
M -559.35 31.1
L -559.3 31.05 -575.85 -52.25 -695.15 -52.25 -624.4 59.05
Q -624.2 58.95 -624 58.85 -614.7 53.95 -559.35 31.1
M -689.7 372.05
L -713.3 368.4 -713.35 368.4 -731.3 365.6 -958 447.6 -864.1 447.6 -689.7 372.05
M -832.45 -52.25
L -1004 -52.25 -736.4 109.45 -736.1 110.2
Q -712.35 100.75 -689.25 90.45
L -689.65 89.55 -832.45 -52.25
M -472.15 -5.8
L -471.6 -4.75 -382 -51.25 -382 -52.25 -465 -52.25 -472.15 -5.8 Z"/>

<path fill="#6699FF" stroke="none" d="
M -467.55 412.2
L -470.05 406.95 -470.05 405.85 -520.3 398.15 -643.15 447.6 -542.05 447.6 -467.55 412.2
M -365.5 421.95
L -400.75 416.55 -414.1 414.5 -416.15 414.15 -462.05 447.6 -390.05 447.6 -365.5 421.95
M -674.3 374.4
L -689.7 372.05 -864.1 447.6 -760.35 447.6 -609.95 384.35 -674.3 374.4
M -818.4 368.95
L -870.35 381.1 -945.95 398.8 -977.6 406.25 -1030.5 418.6 -1030.5 447.6 -958 447.6 -731.3 365.6 -773.05 359.2 -773.95 359.05 -774.05 358.55 -818.4 368.95
M -695.15 -52.25
L -832.45 -52.25 -689.65 89.55 -686.95 89.4
Q -655.05 75.05 -624.4 59.05
L -695.15 -52.25
M -1004 -52.25
L -1030.5 -52.25 -1030.5 20.7
Q -1013.8 28.15 -998.85 34.8 -953 55.15 -923.8 67.8
L -923.75 67.85
Q -892.95 81.2 -880.75 86 -852.05 97.3 -822.75 107.55 -798.55 116 -773.95 123.75
L -773.95 124.55
Q -773.8 124.5 -773.7 124.45 -754.8 117.65 -736.35 110.3
L -736.4 109.45 -1004 -52.25
M -471.7 -4.7
L -472.15 -5.8 -465 -52.25 -575.85 -52.25 -559.3 31.05 -559.25 31.05
Q -524.55 16.7 -471.7 -4.7 Z"/>

<path fill="#0099FF" stroke="none" d="
M -467.55 412.2
L -458.05 407.7 -470.05 405.85 -470.05 406.95 -467.55 412.2 Z"/>

<path fill="#006699" stroke="none" d="
M -619.35 186
L -618.95 186.35 -618.45 186.75 -516.85 153.45 -516.3 143.75 -517.1 143.7 -557.5 156.55 -619.05 176.1 -619.2 175.6 -624 59.7 -625.8 178.25 -635.15 181.2 -620.6 322.2 -620.2 322.55 -607.25 323.55 -619.2 186.6 -619.35 186
M -321.6 54.05
L -323.1 54.05 -388.85 82.15 -454.15 110.05 -453.9 110.2
Q -453.8 110.95 -454.2 110.05 -444.1 164.95 -435.7 224.25 -426.3 290.75 -419 362.7 -416.45 388 -414.15 413.95 -414.1 414.2 -414.1 414.5
L -400.75 416.55
Q -408.5 328.95 -419 252.05 -420.9 237.95 -422.9 224.25 -431.15 168.1 -440.95 118
L -440.75 117.7 -440.5 117.85 -322.5 70.6 -321.6 70.2 -321.6 54.05 Z"/>

<path fill="url(#Gradient_1)" stroke="none" d="
M -618.95 186.35
L -619.2 186.6 -607.25 323.55 -526.7 329.6 -516.85 153.45 -618.45 186.75 -618.95 186.35 Z"/>

<path fill="#99CCFF" stroke="none" d="
M -559.25 31.35
L -559.35 31.1
Q -614.7 53.95 -624 58.85
L -624 59.65 -624 59.7 -619.2 175.6 -619.05 176.1 -557.5 156.55 -557.8 155.65 -559.25 31.35
M -998.85 34.8
Q -1013.8 28.15 -1030.5 20.7
L -1030.5 418.6 -977.6 406.25 -998.85 34.8
M -923.75 67.85
L -924.55 69.5 -945.95 398.8 -870.35 381.1 -870.5 380.6 -880.75 86
Q -892.95 81.2 -923.75 67.85
M -773.95 124.55
L -773.95 123.75
Q -798.55 116 -822.75 107.55
L -823.4 109.4 -818.65 367.85 -818.4 368.95 -774.05 358.55 -772.9 358.3
Q -769.45 253.2 -773.95 124.55
M -686.9 90.35
L -689.25 90.45
Q -712.35 100.75 -736.1 110.2 -736.2 110.25 -736.35 110.3
L -713.35 368.4 -713.3 368.4 -689.7 372.05 -674.3 374.4 -686.9 90.35
M -471.6 -4.75
L -471.65 -4.7 -470.05 405.85 -458.05 407.7 -416.15 414.15 -414.15 413.95
Q -416.45 388 -419 362.7 -426.3 290.75 -435.7 224.25 -444.1 164.95 -454.2 110.05
L -454.2 110 -454.15 110.05 -388.85 82.15 -381.75 -50.8 -382 -51.25 -471.6 -4.75 Z"/>

<path fill="#CC9900" stroke="none" d="
M -559.35 31.1
L -559.3 31.1 -559.3 31.05 -559.35 31.1
M -472.15 -5.8
L -471.7 -4.7 -471.65 -4.7 -471.6 -4.75 -472.15 -5.8 Z"/>

<path fill="url(#Gradient_2)" stroke="none" d="
M -440.5 117.85
L -440.95 118
Q -431.15 168.1 -422.9 224.25 -420.9 237.95 -419 252.05 -408.5 328.95 -400.75 416.55
L -365.5 421.95 -323.9 428.35 -323.85 427.8 -322.5 70.6 -440.5 117.85 Z"/>

<path fill="#CCCCFF" stroke="none" d="
M -823.4 109.4
L -822.75 107.55
Q -852.05 97.3 -880.75 86
L -870.5 380.6 -870.35 381.1 -818.4 368.95 -818.65 367.85 -823.4 109.4
M -924.55 69.5
L -923.8 67.8
Q -953 55.15 -998.85 34.8
L -977.6 406.25 -945.95 398.8 -924.55 69.5
M -773.7 124.45
Q -773.8 124.5 -773.95 124.55 -769.45 253.2 -772.9 358.3 -773 358.75 -773.05 359.2
L -731.3 365.6 -713.35 368.4 -736.35 110.3
Q -754.8 117.65 -773.7 124.45
M -380.1 -52.25
L -381.75 -50.8 -388.85 82.15 -323.1 54.05 -321.6 54.05 -321.6 -52.25 -380.1 -52.25
M -471.65 -4.7
L -471.7 -4.7
Q -524.55 16.7 -559.25 31.05
L -559.25 31.35 -557.8 155.65 -557.5 156.55 -517.1 143.7 -516.3 143.75 -516.85 153.45 -526.7 329.6 -607.25 323.55 -620.2 322.55 -620.6 322.2 -635.15 181.2 -625.8 178.25 -624 59.7 -624 59.65 -624.4 59.05
Q -655.05 75.05 -686.95 89.4
L -686.9 90.35 -674.3 374.4 -609.95 384.35 -520.3 398.15 -470.05 405.85 -471.65 -4.7 Z"/>

<path fill="#FFCC00" stroke="none" d="
M -686.9 90.35
L -686.95 89.4
Q -688.1 89.9 -689.25 90.45
L -686.9 90.35 Z"/>
</g>

<g id="Layer0_1_FILL">
<path fill="#990000" stroke="none" d="
M -404.25 130.6
Q -402.6 125.85 -447.9 137.5 -473.7 144.2 -486.1 178.45 -498.5 212.65 -456.15 346 -451.65 352.05 -408.4 359.7 -462.8 164.7 -404.25 130.6 Z"/>

<path fill="#FF3333" stroke="none" d="
M -317.8 205.7
Q -316.05 172.6 -317.85 163.05 -322.5 128.65 -398.15 130.1 -398.246875 130.0515625 -398.35 130.05
L -398.4 130.05
Q -399.7 130.15 -401 130.35 -402.6 130.4 -404.25 130.6 -462.8 164.7 -408.4 359.7
L -395.4 357.25 -337.3 335.2
Q -325.15 292.7 -317.8 205.7 Z"/>
</g>

<g id="Layer0_1_MEMBER_0_FILL">
<path fill="#CCCCCC" stroke="none" d="
M -341.8 200.65
Q -339.7 199.8 -338.25 204.95 -337.65 206.85 -337.3 208.65 -336.3 214.2 -336.95 219.3 -337.75 226.15 -341.4 232.25 -345 238.35 -345.45 240.55 -345.95 242.75 -344.05 242.95 -339.05 243.5 -336 237.1 -332.95 230.7 -332.15 223.55 -331.5 216.8 -333.15 208 -333.25 207.45 -333.35 207 -335.15 197.5 -341.8 200.65 Z"/>
</g>

<g id="Layer0_2_FILL">
<path fill="#996600" stroke="none" d="
M -282.6 375.2
Q -279.05 375.65 -276.7 375.05 -278.45 366.05 -276.4 346.05 -280.3 346.35 -284.6 346.5 -290.55 374.2 -282.6 375.2
M -304.85 346.3
Q -306.9 346.2 -308.8 346.1 -309.35 353.55 -308.75 362.75 -308.3 370.65 -309.15 375.95 -301.1 376.7 -299.85 371.3 -298.55 365.6 -299.1 356.4 -299.45 351.2 -299.4 346.55 -300.65 346.5 -301.85 346.45 -302.2 346.45 -302.5 346.45 -302.65 346.4 -302.85 346.4 -303.9 346.35 -304.85 346.3 Z"/>

<path fill="#CC6600" stroke="none" d="
M -315.95 345.4
Q -316.25 345.35 -316.5 345.35 -317.05 345.25 -317.55 345.2 -317.85 345.15 -318.1 345.1 -319.05 344.95 -319.85 344.85
L -319.95 345.4
Q -328.85 381.05 -319.8 382.2 -310.8 383.35 -309.5 377.65 -309.3 376.85 -309.15 375.95 -308.3 370.65 -308.75 362.75 -309.35 353.55 -308.8 346.1 -310.4 345.95 -311.9 345.85 -314 345.65 -315.95 345.4
M -257.05 326
L -257.05 325.95
Q -257.1 323.85 -267.5 322.35 -277.9 320.85 -292.65 320.85 -307.4 320.85 -317.85 322.35 -328.25 323.85 -328.25 325.95 -328.25 328.05 -317.85 329.55 -307.4 331.05 -292.65 331.05 -277.9 331.05 -267.5 329.55 -257.15 328.05 -257.05 326
M -275.1 345.95
Q -275.75 346 -276.4 346.05 -278.45 366.05 -276.7 375.05 -275.4 381.95 -271.85 382.35 -263.75 383.25 -262.9 375.9 -262.05 368.55 -263.3 360.6 -264.55 352.55 -266.15 344.8 -266.25 344.9 -267.75 345.1 -269.75 345.4 -271.85 345.65 -273.45 345.8 -275.1 345.95 Z"/>

<path fill="#CC9900" stroke="none" d="
M -276.4 346.05
Q -275.75 346 -275.1 345.95 -273.45 345.8 -271.85 345.65 -269.75 345.4 -267.75 345.1 -266.25 344.9 -266.15 344.8 -264.55 344.55 -264.2 344.5 -260.4 343.6 -257.7 342.25
L -257.4 341.95 -257.4 341.9
Q -257.3 341.303515625 -257.3 341.5 -255.5 332.4 -257.05 326 -257.15 328.05 -267.5 329.55 -277.9 331.05 -292.65 331.05 -307.4 331.05 -317.85 329.55 -328.25 328.05 -328.25 325.95
L -328.5 325.95
Q -330.65 333.5 -328.5 341.4 -328.4 341.75 -328.1 342.1 -327.15 343.6 -319.95 344.8 -319.9 344.8 -319.85 344.85 -319.05 344.95 -318.1 345.1 -317.85 345.15 -317.55 345.2 -317.05 345.25 -316.5 345.35 -316.25 345.35 -315.95 345.4 -314 345.65 -311.9 345.85 -310.4 345.95 -308.8 346.1 -306.9 346.2 -304.85 346.3 -303.9 346.35 -302.85 346.4 -302.65 346.4 -302.5 346.45 -302.2 346.45 -301.85 346.45 -300.65 346.5 -299.4 346.55 -296.25 346.6 -292.9 346.6 -288.6 346.6 -284.6 346.5 -280.3 346.35 -276.4 346.05 Z"/>
</g>

<g id="Layer0_3_FILL">
<path fill="#996600" stroke="none" d="
M -73.15 353.65
L -73.25 354 -73.2 354 -73.15 353.65
M -72.35 280.7
Q -75.08828125 281.5978515625 -77.8 282.4 -82.4 283.8 -86.95 284.95 -100.6 288.4 -113.6 289.9
L -116.7 290.15 -117.9 301.1
Q -101.95 294.75 -85.55 290.2 -80.95 288.85 -76.25 287.7 -73.4 287 -70.55 286.35
L -68.6 285.5 -68.6 285.9
Q -65.65 285.25 -62.65 284.65
L -60 276.8 -60.6 276.6
Q -65.65 278.5 -70.6 280.15
L -70.65 280.15
Q -71.5 280.4333984375 -72.35 280.7
M -170.55 293.95
L -170.8 294 -165.15 294.6
Q -167.85 294.25 -170.55 293.95 Z"/>

<path fill="#CC9900" stroke="none" d="
M -133.4 298.9
Q -133.5177734375 298.9998046875 -133.5 299.15
L -136.6 370.9 -127.7 371.9 -127.7 371.85 -126.45 300.05
Q -132.6376953125 298.3361328125 -133.4 298.9
M -164.55 341.5
L -164.5 341.45 -164.55 341.35 -164.55 341.5
M -235.65 277.35
Q -222.85 280.75 -208.75 283.3 -195.55 285.6 -181.15 287.2 -172.25 288.1 -162.85 288.8 -141 290.3 -116.7 290.15
L -113.6 289.9
Q -100.6 288.4 -86.95 284.95 -82.4 283.8 -77.8 282.4 -75.08828125 281.5978515625 -72.35 280.7 -71.5 280.4333984375 -70.65 280.15
L -70.6 280.15
Q -65.65 278.5 -60.6 276.6
L -60.6 276.05
Q -121.55 279.9 -178.15 270.1 -193.65 273.75 -209.5 275.6 -222.45 277.1 -235.65 277.35
M -212.85 289.1
L -218.5 288.45 -218.5 288.55 -221.35 358.05 -212.15 359.6 -212.05 359.15 -212 359.2 -212.85 289.1 Z"/>

<path fill="#CC6600" stroke="none" d="
M -68.6 285.5
L -70.55 286.35 -73.15 353.65 -70.55 351.65 -68.6 285.9 -68.6 285.5
M -164.95 294.85
L -165.15 294.6 -170.8 294 -164.95 294.85
M -234.95 286.95
Q -226.7033203125 287.7306640625 -218.5 288.55
L -218.5 288.45 -212.85 289.1 -212 359.2 -211.9 359.3 -208.05 357.25 -209.7 289.45
Q -209.55 289.45 -209.4 289.5 -195.6 290.9 -181.8 292.55 -176.2 293.2 -170.55 293.95 -167.85 294.25 -165.15 294.6 -164.4 294.7 -163.6 294.8
L -163.55 294.8
Q -163.4140625 294.8453125 -163.25 294.85
L -164.95 294.85 -164.55 341.35 -164.5 341.45 -161.9 340 -163.2 294.85
Q -148.3 296.75 -133.45 298.9
L -133.4 298.9
Q -132.6376953125 298.3361328125 -126.45 300.05
L -127.7 371.85 -123.35 370.2 -123.45 300.5
Q -120.75 300.8 -118.5 301.1 -118.2 301.15 -117.85 301.2
L -117.9 301.1 -116.7 290.15
Q -141 290.3 -162.85 288.8 -172.25 288.1 -181.15 287.2 -195.55 285.6 -208.75 283.3 -222.85 280.75 -235.65 277.35
L -234.95 286.95 Z"/>

<path fill="#663300" stroke="none" d="
M -70.55 286.35
Q -73.4 287 -76.25 287.7
L -81.5 352 -73.25 354 -73.15 353.65 -70.55 286.35
M -164.95 294.85
L -170.8 294 -171.85 340.75 -164.85 341.35 -164.55 341.35 -164.95 294.85 Z"/>
</g>

<g id="Layer0_4_FILL">
<path fill="#CCCC99" stroke="none" d="
M -214.65 251.35
Q -209.5 261.5 -203.9 268 -202.7 269.4 -201.5 270.6 -199.35 272.75 -197.15 274.35 -197 274.4 -196.8 274.45 -196.6 274.5 -196.4 274.55 -187.95 276.55 -176.05 276.55 -165 276.55 -158.3 274.85 -155.9 273.1 -153.45 270.6 -151.55 268.6 -149.55 266.15 -145.15 260.6 -140.85 251.45 -142.5 253.15 -152.1 254.2 -161.7 255.2 -176.8 255.6 -191.9 256 -202.5 254.5 -213.1 252.95 -214.65 251.35 Z"/>

<path fill="#999966" stroke="none" d="
M -203.15 247.8
Q -203.2 247.8 -203.25 247.8 -203.7 247.85 -204.1 247.9 -215.6 249.35 -214.85 251.05 -214.7 251.15 -214.65 251.35 -213.1 252.95 -202.5 254.5 -191.9 256 -176.8 255.6 -161.7 255.2 -152.1 254.2 -142.5 253.15 -140.85 251.45 -140.55 251.1 -140.45 250.8 -140.45 250.7 -140.4 250.4 -140.35 250.05 -147.1 248.15 -153.85 246.15 -173.2 246.3 -191.85 246.4 -203.15 247.8 Z"/>
</g>

<g id="Layer0_5_FILL">
<path fill="#CCCC99" stroke="none" d="
M -98.4 213.45
Q -107.05 214.65 -114.6 212.75
L -112.4 241.45
Q -121.5 242.95 -128.65 249.7 -136.15 256.7 -138 264.5 -139.85 272.25 -131.45 279.15 -123.05 286.05 -111.65 286.1 -100.25 286.15 -91.65 278.9 -83.1 271.6 -85.6 263.85 -88.1 256.05 -93.8 249.6 -99.55 243.15 -104.85 241.7
L -98.4 213.45 Z"/>
</g>

<g id="Layer0_6_FILL">
<path fill="#FFFFFF" stroke="none" d="
M 369.9 130.6
Q 371.55 125.85 326.25 137.5 300.45 144.2 288.05 178.45 275.65 212.65 318 346 322.5 352.05 365.75 359.7 311.35 164.7 369.9 130.6
M 373.15 130.35
Q 371.55 130.4 369.9 130.6 311.35 164.7 365.75 359.7
L 378.75 357.25 436.85 335.2
Q 449 292.7 456.35 205.7 458.1 172.6 456.3 163.05 451.65 128.65 376 130.1 375.903125 130.0515625 375.8 130.05
L 375.75 130.05
Q 374.45 130.15 373.15 130.35
M 435.9 204.95
Q 434.45 199.8 432.35 200.65 439 197.5 440.8 207 440.9 207.45 441 208 442.65 216.8 442 223.55 441.2 230.7 438.15 237.1 435.1 243.5 430.1 242.95 428.2 242.75 428.7 240.55 429.15 238.35 432.75 232.25 436.4 226.15 437.2 219.3 437.85 214.2 436.85 208.65 436.5 206.85 435.9 204.95
M 432.35 200.65
Q 434.45 199.8 435.9 204.95 436.5 206.85 436.85 208.65 437.85 214.2 437.2 219.3 436.4 226.15 432.75 232.25 429.15 238.35 428.7 240.55 428.2 242.75 430.1 242.95 435.1 243.5 438.15 237.1 441.2 230.7 442 223.55 442.65 216.8 441 208 440.9 207.45 440.8 207 439 197.5 432.35 200.65 Z"/>
</g>

<g id="Layer0_7_FILL">
<path fill="#FFFFFF" stroke="none" d="
M 489.55 346.5
Q 483.6 374.2 491.55 375.2 495.1 375.65 497.45 375.05 495.7 366.05 497.75 346.05 493.85 346.35 489.55 346.5
M 499.05 345.95
Q 498.4 346 497.75 346.05 495.7 366.05 497.45 375.05 498.75 381.95 502.3 382.35 510.4 383.25 511.25 375.9 512.1 368.55 510.85 360.6 509.6 352.55 508 344.8 507.9 344.9 506.4 345.1 504.4 345.4 502.3 345.65 500.7 345.8 499.05 345.95
M 472.3 346.45
Q 471.95 346.45 471.65 346.45 471.5 346.4 471.3 346.4 470.25 346.35 469.3 346.3 467.25 346.2 465.35 346.1 464.8 353.55 465.4 362.75 465.85 370.65 465 375.95 473.05 376.7 474.3 371.3 475.6 365.6 475.05 356.4 474.7 351.2 474.75 346.55 473.5 346.5 472.3 346.45
M 456.3 322.35
Q 445.9 323.85 445.9 325.95 445.9 328.05 456.3 329.55 466.75 331.05 481.5 331.05 496.25 331.05 506.65 329.55 517 328.05 517.1 326
L 517.1 325.95
Q 517.05 323.85 506.65 322.35 496.25 320.85 481.5 320.85 466.75 320.85 456.3 322.35
M 454.3 344.85
L 454.2 345.4
Q 445.3 381.05 454.35 382.2 463.35 383.35 464.65 377.65 464.85 376.85 465 375.95 465.85 370.65 465.4 362.75 464.8 353.55 465.35 346.1 463.75 345.95 462.25 345.85 460.15 345.65 458.2 345.4 457.9 345.35 457.65 345.35 457.1 345.25 456.6 345.2 456.3 345.15 456.05 345.1 455.1 344.95 454.3 344.85
M 445.9 325.95
L 445.65 325.95
Q 443.5 333.5 445.65 341.4 445.75 341.75 446.05 342.1 447 343.6 454.2 344.8 454.25 344.8 454.3 344.85 455.1 344.95 456.05 345.1 456.3 345.15 456.6 345.2 457.1 345.25 457.65 345.35 457.9 345.35 458.2 345.4 460.15 345.65 462.25 345.85 463.75 345.95 465.35 346.1 467.25 346.2 469.3 346.3 470.25 346.35 471.3 346.4 471.5 346.4 471.65 346.45 471.95 346.45 472.3 346.45 473.5 346.5 474.75 346.55 477.9 346.6 481.25 346.6 485.55 346.6 489.55 346.5 493.85 346.35 497.75 346.05 498.4 346 499.05 345.95 500.7 345.8 502.3 345.65 504.4 345.4 506.4 345.1 507.9 344.9 508 344.8 509.6 344.55 509.95 344.5 513.75 343.6 516.45 342.25
L 516.75 341.95 516.75 341.9
Q 516.85 341.303515625 516.85 341.5 518.65 332.4 517.1 326 517 328.05 506.65 329.55 496.25 331.05 481.5 331.05 466.75 331.05 456.3 329.55 445.9 328.05 445.9 325.95 Z"/>
</g>

<g id="Layer0_8_FILL">
<path fill="#FFFFFF" stroke="none" d="
M 647.7 300.5
L 647.7 300.05 640.65 299.75 637.55 370.9 646.45 371.9 646.45 371.85 647.7 300.5
M 564.45 289.45
L 561.5 289.45 562.15 359.2 562.25 359.3 566.1 357.25 564.45 289.45
M 561.5 289.45
L 561.5 289.15 556.05 288.9 552.8 358.05 562 359.6 562.1 359.15 562.15 359.2 561.5 289.45
M 609 294.85
L 609 294.6 603.55 294.6 602.3 340.75 609.3 341.35 609.6 341.35 609 294.85
M 610.9 294.85
L 609 294.85 609.6 341.35 609.6 341.5 612.25 340 610.95 294.85 610.9 294.85
M 650.8 370.2
L 650.7 300.5 647.7 300.5 646.45 371.85 650.8 370.2
M 650.7 300.5
Q 653.4 300.8 655.65 301.1 655.95 301.15 656.3 301.2
L 656.25 301.1 657.45 290.15
Q 633.15 290.3 611.3 288.8 601.9 288.1 593 287.2 578.6 285.6 565.4 283.3 551.3 280.75 538.5 277.35
L 539.2 286.95
Q 547.65 287.75 556.05 288.6 558.75 288.85 561.5 289.15 562.95 289.3 564.45 289.45 564.6 289.45 564.75 289.5 578.55 290.9 592.35 292.55 597.95 293.2 603.6 293.95 606.3 294.25 609 294.6 609.75 294.7 610.55 294.8
L 610.6 294.8
Q 610.7359375 294.8453125 610.9 294.85
L 610.95 294.85
Q 625.85 296.75 640.7 298.9 644.5 299.45 647.7 300.05 649.9 300.25 650.7 300.5
M 703.6 286.35
Q 700.75 287 697.9 287.7
L 692.65 352 700.95 354 701 353.65 703.6 286.35
M 705.55 286.35
L 703.6 286.35 701 353.65 703.6 351.65 705.55 286.35
M 687.2 284.95
Q 673.55 288.4 660.55 289.9
L 657.45 290.15 656.25 301.1
Q 672.2 294.75 688.6 290.2 693.2 288.85 697.9 287.7 700.75 287 703.6 286.35 704.55 286.1 705.55 285.9 708.5 285.25 711.5 284.65
L 714.15 276.8 713.55 276.6
Q 708.5 278.5 703.55 280.15
L 703.5 280.15
Q 699.9 281.35 696.35 282.4 691.75 283.8 687.2 284.95
M 660.55 289.9
Q 673.55 288.4 687.2 284.95 691.75 283.8 696.35 282.4 699.9 281.35 703.5 280.15
L 703.55 280.15
Q 708.5 278.5 713.55 276.6
L 713.55 276.05
Q 652.6 279.9 596 270.1 580.5 273.75 564.65 275.6 551.7 277.1 538.5 277.35 551.3 280.75 565.4 283.3 578.6 285.6 593 287.2 601.9 288.1 611.3 288.8 633.15 290.3 657.45 290.15
L 660.55 289.9 Z"/>
</g>

<g id="Layer0_9_FILL">
<path fill="#FFFFFF" stroke="none" d="
M 571.65 254.5
Q 582.25 256 597.35 255.6 612.45 255.2 622.05 254.2 631.65 253.15 633.3 251.45 633.6 251.1 633.7 250.8 633.7 250.7 633.75 250.4 633.8 250.05 627.05 248.15 620.3 246.15 600.95 246.3 582.3 246.4 571 247.8 570.95 247.8 570.9 247.8 570.45 247.85 570.05 247.9 558.55 249.35 559.3 251.05 559.45 251.15 559.5 251.35 561.05 252.95 571.65 254.5
M 597.35 255.6
Q 582.25 256 571.65 254.5 561.05 252.95 559.5 251.35 564.65 261.5 570.25 268 571.45 269.4 572.65 270.6 574.8 272.75 577 274.35 577.15 274.4 577.35 274.45 577.55 274.5 577.75 274.55 586.2 276.55 598.1 276.55 609.15 276.55 615.85 274.85 618.25 273.1 620.7 270.6 622.6 268.6 624.6 266.15 629 260.6 633.3 251.45 631.65 253.15 622.05 254.2 612.45 255.2 597.35 255.6 Z"/>
</g>

<g id="Layer0_10_FILL">
<path fill="#FFFFFF" stroke="none" d="
M 668.9 213.45
Q 660.25 214.65 652.7 212.75
L 654.9 241.45
Q 645.8 242.95 638.65 249.7 631.15 256.7 629.3 264.5 627.45 272.25 635.85 279.15 644.25 286.05 655.65 286.1 667.05 286.15 675.65 278.9 684.2 271.6 681.7 263.85 679.2 256.05 673.5 249.6 667.75 243.15 662.45 241.7
L 668.9 213.45 Z"/>
</g>

<path id="Layer0_0_1_STROKES" stroke="#000000" stroke-width="1" stroke-linejoin="round" stroke-linecap="round" fill="none" d="
M 585.7 -94
L 644.2 -94 644.2 28.45 644.2 405.85 575.75 405.85 503.75 405.85 423.75 405.85 322.65 405.85 205.45 405.85 101.7 405.85 7.8 405.85 -64.7 405.85 -64.7 376.85 -64.7 -21.05 -64.7 -94 -38.2 -94 133.35 -94 270.65 -94 389.95 -94 500.8 -94 583.8 -94 585.7 -94 Z
M 584.05 -92.55
L 576.95 40.4 642.7 12.3
M 406.55 -10.7
L 406.5 -10.65 406.55 -10.4 406.55 -10.7
Q 441.25 -25.05 494.1 -46.45
L 494.15 -46.45 494.2 -46.5 583.8 -93
M 406.45 -10.65
Q 351.1 12.2 341.8 17.1
L 341.8 17.9 341.8 17.95 346.6 133.85
M 406.5 -10.7
L 406.5 -10.65 406.45 -10.65
M 407.1 -7.7
L 406.55 -10.4 408 113.9
M 406.5 -10.7
L 389.95 -94
M 500.8 -94
L 493.65 -47.55
M 585.7 -94
L 583.8 -93
M 511.6 68.3
Q 512 69.2 511.9 68.45
L 511.65 68.3 511.6 68.3 511.6 68.25 511.65 68.3 576.95 40.4
M 524.85 76.25
L 525.3 76.1 525.05 75.95
M 524.85 76.25
Q 529.75 101.3 534.25 127.85 538.75 154.4 542.9 182.5 544.9 196.2 546.8 210.3 557.3 287.2 565.05 374.8
L 600.3 380.2 642.5 386.7
M 525.05 75.95
L 511.9 68.45
M 511.6 68.3
Q 516.95 97.45 521.85 127.85 526.15 154.7 530.1 182.5 539.5 249 546.8 320.95 549.35 346.25 551.65 372.2 551.7 372.45 551.7 372.75
L 565.05 374.8
M 525.3 76.1
L 644.2 28.45
M 341.8 17.9
L 341.4 17.3
Q 310.75 33.3 278.85 47.65
L 291.5 332.65 355.85 342.6 356.95 342.05
M 341.4 17.3
Q 341.6 17.2 341.8 17.1
M 448.7 101.95
L 340 136.5 330.65 139.45 330.85 141.25 346.6 144.85 346.45 144.25
M 347.35 145
L 448.95 111.7 449.5 102
M 345.2 280.45
L 330.85 141.25 329.85 141.05
M 347.35 145
L 346.6 144.85 346.65 145.1
M 448.95 111.7
L 449.5 111.5
M 341.8 17.95
L 340 136.5
M 440.1 287.9
L 439.1 287.85 358.55 281.8 345.6 280.8
M 322.65 405.85
L 445.5 356.4 355.85 342.6 205.45 405.85
M 494.15 -46.45
L 495.75 364.1 507.75 365.95 509.3 365.2
M 495.75 365.2
L 495.75 364.1 445.5 356.4
M 551.7 372.75
L 549.65 372.4 550.8 371.55
M 549.65 372.4
L 507.75 365.95 423.75 405.85
M 439.1 287.85
L 448.95 111.7
M 346.65 145.1
L 358.55 281.8
M 278.8 46.9
L 278.85 47.65
Q 277.7 48.15 276.55 48.7
M 192.9 316.55
Q 195.75 230.15 193.2 127.85 192.65 105.7 191.85 82.8 192 82.75 192.1 82.7 211 75.9 229.45 68.55
L 229.4 67.7 -38.2 -94
M 229.45 68.55
Q 229.6 68.5 229.7 68.45
M 229.3 66.85
L 229.4 67.7
M 229.7 68.45
Q 253.45 59 276.55 48.7
M 84.95 42.1
L 85.05 44.25
Q 113.75 55.55 143.05 65.8 167.25 74.25 191.85 82
M 42.05 26.1
L 42 26.05
Q 12.8 13.4 -33.05 -6.95
L -11.8 364.5 19.85 357.05 41.25 27.75
M 95.3 338.85
L 85.05 44.25
Q 72.85 39.45 42.05 26.1
M 191.75 316.8
L 19.85 357.05 19.75 358.55
M 7.8 405.85
L 234.5 323.85 192.75 317.45
Q 192.7 317.75 192.65 318.1
M 191.85 317.3
L 192.75 317.45
Q 192.8 317 192.9 316.55
L 191.75 316.8
M 291.5 332.65
L 291.55 334.05
M 229.45 68.55
L 252.45 326.65 252.5 326.65 276.1 330.3 291.5 332.65
M 234.5 323.85
L 252.45 326.65
M 142.4 67.65
L 147.15 326.1
M 549.65 372.4
L 503.75 405.85
M 600.3 380.2
L 575.75 405.85
M 276.1 330.3
L 101.7 405.85
M 276.15 47.8
L 133.35 -94
M 270.65 -94
L 341.4 17.3
M -33.05 -6.95
Q -48 -13.6 -64.7 -21.05
M -11.75 365.75
L -11.8 364.5 -64.7 376.85"/>

<path id="Layer0_6_1_STROKES" stroke="#000000" stroke-width="1" stroke-linejoin="round" stroke-linecap="round" fill="none" d="
M 375.8 130.05
Q 376.053125 130.0494140625 376.3 130 376.15 130.05 376 130.1 451.65 128.65 456.3 163.05 458.1 172.6 456.35 205.7 449 292.7 436.85 335.2
L 378.75 357.25 365.75 359.7
Q 322.5 352.05 318 346 275.65 212.65 288.05 178.45 300.45 144.2 326.25 137.5 371.55 125.85 369.9 130.6 371.55 130.4 373.15 130.35 374.45 130.15 375.75 130.05
L 375.8 130.05
Q 375.903125 130.0515625 376 130.1
M 432.35 200.65
Q 439 197.5 440.8 207 440.9 207.45 441 208 442.65 216.8 442 223.55 441.2 230.7 438.15 237.1 435.1 243.5 430.1 242.95 428.2 242.75 428.7 240.55 429.15 238.35 432.75 232.25 436.4 226.15 437.2 219.3 437.85 214.2 436.85 208.65 436.5 206.85 435.9 204.95 434.45 199.8 432.35 200.65 Z
M 369.9 130.6
Q 311.35 164.7 365.75 359.7"/>

<path id="Layer0_7_1_STROKES" stroke="#000000" stroke-width="1" stroke-linejoin="round" stroke-linecap="round" fill="none" d="
M 445.65 325.95
Q 443.5 333.5 445.65 341.4 445.75 341.75 446.05 342.1 447 343.6 454.2 344.8 454.25 344.8 454.3 344.85 455.1 344.95 456.05 345.1 456.3 345.15 456.6 345.2 457.1 345.25 457.65 345.35 457.9 345.35 458.2 345.4 460.15 345.65 462.25 345.85 463.75 345.95 465.35 346.1 467.25 346.2 469.3 346.3 470.25 346.35 471.3 346.4 471.5 346.4 471.65 346.45 471.95 346.45 472.3 346.45 473.5 346.5 474.75 346.55 477.9 346.6 481.25 346.6 485.55 346.6 489.55 346.5 493.85 346.35 497.75 346.05 498.4 346 499.05 345.95 500.7 345.8 502.3 345.65 504.4 345.4 506.4 345.1 507.9 344.9 508 344.8 509.6 344.55 509.95 344.5 513.75 343.6 516.45 342.25
M 516.75 341.95
L 516.75 341.925
Q 516.85 341.303515625 516.85 341.5 518.65 332.4 517.1 326 517 328.05 506.65 329.55 496.25 331.05 481.5 331.05 466.75 331.05 456.3 329.55 445.9 328.05 445.9 325.95 445.9 323.85 456.3 322.35 466.75 320.85 481.5 320.85 496.25 320.85 506.65 322.35 517.05 323.85 517.1 325.95
L 517.1 326
M 446.05 342.1
Q 445.65 341.8 445.65 341.5 445.65 341.45 445.65 341.4
M 474.75 346.55
Q 474.7 351.2 475.05 356.4 475.6 365.6 474.3 371.3 473.05 376.7 465 375.95 464.85 376.85 464.65 377.65 463.35 383.35 454.35 382.2 445.3 381.05 454.2 345.4
M 465.35 346.1
Q 464.8 353.55 465.4 362.75 465.85 370.65 465 375.95
M 516.85 341.5
Q 516.85 341.7 516.8 341.9 516.7626953125 341.9 516.75 341.925
M 508 344.8
Q 509.6 352.55 510.85 360.6 512.1 368.55 511.25 375.9 510.4 383.25 502.3 382.35 498.75 381.95 497.45 375.05 495.1 375.65 491.55 375.2 483.6 374.2 489.55 346.5
M 497.75 346.05
Q 495.7 366.05 497.45 375.05"/>

<path id="Layer0_8_1_STROKES" stroke="#000000" stroke-width="1" stroke-linejoin="round" stroke-linecap="round" fill="none" d="
M 538.5 277.35
Q 551.3 280.75 565.4 283.3 578.6 285.6 593 287.2 601.9 288.1 611.3 288.8 633.15 290.3 657.45 290.15
L 660.55 289.9
Q 673.55 288.4 687.2 284.95 691.75 283.8 696.35 282.4 699.9 281.35 703.5 280.15
L 703.55 280.15
Q 708.5 278.5 713.55 276.6
M 713.55 276.05
Q 652.6 279.9 596 270.1 580.5 273.75 564.65 275.6 551.7 277.1 538.5 277.35
L 539.2 286.95
Q 547.65 287.75 556.05 288.6 558.75 288.85 561.5 289.15 562.95 289.3 564.45 289.45 564.6 289.45 564.75 289.5 578.55 290.9 592.35 292.55 597.95 293.2 603.6 293.95 606.3 294.25 609 294.6 609.75 294.7 610.55 294.8
L 610.6 294.8
Q 610.7359375 294.8453125 610.925 294.85
L 610.95 294.85
Q 625.85 296.75 640.7 298.9 644.5 299.45 647.7 300.05 649.9 300.25 650.7 300.5 653.4 300.8 655.65 301.1 655.95 301.15 656.3 301.2
L 656.25 301.1 657.45 290.15
M 705.55 286.35
L 705.55 285.9
Q 704.55 286.1 703.6 286.35
M 705.55 286.35
L 703.6 351.65 701 353.65 700.95 354 692.65 352 697.9 287.7
Q 693.2 288.85 688.6 290.2 672.2 294.75 656.25 301.1
M 697.9 287.7
Q 700.75 287 703.6 286.35
L 701 353.65
M 711.25 285.25
L 711.5 284.65 714.15 276.8
M 705.55 285.9
Q 708.5 285.25 711.5 284.65
M 713.55 276.05
Q 713.85 276 714.2 276
M 650.7 300.5
L 650.8 370.2 646.45 371.85 646.45 371.9 637.55 370.9 640.65 299.75 640.7 298.9
M 603.55 294.6
L 603.6 293.95
M 609 294.85
L 609.6 341.35 609.6 341.5 612.25 340 610.95 294.85
M 609 294.85
L 609 294.6
M 603.55 294.6
L 602.3 340.75 609.3 341.35 609.6 341.35
M 561.5 289.15
L 561.5 289.45
M 564.45 289.45
L 566.1 357.25 562.25 359.3 562.15 359.35 562.15 359.2 562.1 359.15 562 359.6 552.8 358.05 556.05 288.9 556.05 288.6
M 562.15 359.2
L 562.25 359.3
M 647.7 300.5
L 647.7 300.05
M 609.6 341.5
L 609.3 341.35
M 646.45 371.85
L 647.7 300.5
M 562.15 359.2
L 561.5 289.45"/>

<path id="Layer0_9_1_STROKES" stroke="#000000" stroke-width="1" stroke-linejoin="round" stroke-linecap="round" fill="none" d="
M 633.3 251.45
Q 631.65 253.15 622.05 254.2 612.45 255.2 597.35 255.6 582.25 256 571.65 254.5 561.05 252.95 559.5 251.35 564.65 261.5 570.25 268 571.45 269.4 572.65 270.6 574.8 272.75 577 274.35 577.15 274.4 577.35 274.45 577.55 274.5 577.75 274.55 586.2 276.55 598.1 276.55 609.15 276.55 615.85 274.85 618.25 273.1 620.7 270.6 622.6 268.6 624.6 266.15 629 260.6 633.3 251.45 633.6 251.1 633.7 250.8 633.7 250.7 633.75 250.4 633.8 250.05 627.05 248.15 620.3 246.15 600.95 246.3 582.3 246.4 571 247.8 570.95 247.8 570.9 247.8 570.45 247.85 570.05 247.9 558.55 249.35 559.3 251.05 559.45 251.15 559.5 251.35 559.4 251.2 559.35 251.1
L 559.3 251.05"/>

<path id="Layer0_10_1_STROKES" stroke="#000000" stroke-width="1" stroke-linejoin="round" stroke-linecap="round" fill="none" d="
M 652.7 212.75
L 654.9 241.45
Q 645.8 242.95 638.65 249.7 631.15 256.7 629.3 264.5 627.45 272.25 635.85 279.15 644.25 286.05 655.65 286.1 667.05 286.15 675.65 278.9 684.2 271.6 681.7 263.85 679.2 256.05 673.5 249.6 667.75 243.15 662.45 241.7
L 668.9 213.45
Q 660.25 214.65 652.7 212.75 Z"/>
</defs>

<g transform="matrix( 1, 0, 0, 1, 0,0) ">
<use xlink:href="#Layer0_0_FILL"/>

<use xlink:href="#Layer0_0_1_STROKES"/>
</g>

<g transform="matrix( 1, 0, 0, 1, -457,47.55) ">
<use xlink:href="#Layer0_1_FILL"/>
</g>

<g transform="matrix( 1, 0, 0, 1, -457,47.55) ">
<use xlink:href="#Layer0_1_MEMBER_0_FILL"/>
</g>

<g transform="matrix( 1, 0, 0, 1, -457,47.55) ">
<use xlink:href="#Layer0_2_FILL"/>
</g>

<g transform="matrix( 1, 0, 0, 1, -457,47.55) ">
<use xlink:href="#Layer0_3_FILL"/>
</g>

<g transform="matrix( 1, 0, 0, 1, -459.4,50.7) ">
<use xlink:href="#Layer0_4_FILL"/>
</g>

<g transform="matrix( 1, 0, 0, 1, -457,47.55) ">
<use xlink:href="#Layer0_5_FILL"/>
</g>

<g transform="matrix( 1, 0, 0, 1, -265.35,5.8) ">
<use xlink:href="#Layer0_6_FILL"/>

<use xlink:href="#Layer0_6_1_STROKES"/>
</g>

<g transform="matrix( 1, 0, 0, 1, -265.35,5.8) ">
<use xlink:href="#Layer0_7_FILL"/>

<use xlink:href="#Layer0_7_1_STROKES"/>
</g>

<g transform="matrix( 1, 0, 0, 1, -265.35,5.8) ">
<use xlink:href="#Layer0_8_FILL"/>

<use xlink:href="#Layer0_8_1_STROKES"/>
</g>

<g transform="matrix( 1, 0, 0, 1, -265.35,5.8) ">
<use xlink:href="#Layer0_9_FILL"/>

<use xlink:href="#Layer0_9_1_STROKES"/>
</g>

<g transform="matrix( 1, 0, 0, 1, -258.5,5.8) ">
<use xlink:href="#Layer0_10_FILL"/>

<use xlink:href="#Layer0_10_1_STROKES"/>
</g>
</svg>
