
<svg xmlns="http://www.w3.org/2000/svg" version="1.1" xmlns:xlink="http://www.w3.org/1999/xlink" preserveAspectRatio="none" x="0px" y="0px" width="550px" height="400px" viewBox="0 0 550 400">
<defs>
<linearGradient id="Gradient_1" gradientUnits="userSpaceOnUse" x1="-387.6375" y1="284.29999999999995" x2="-387.66249999999997" y2="11.599999999999994" spreadMethod="pad">
<stop  offset="0%" stop-color="#FFFF99"/>

<stop  offset="100%" stop-color="#FAB7FB"/>
</linearGradient>

<g id="Layer0_0_FILL">
<path fill="#FFFFFF" stroke="none" d="
M -0.55 293.05
L -0.55 396 549.4 400 549.4 311.95
Q 535.5 313.95 532.7 314.45
L 532.7 319.2 532 320.2 532 322.95
Q 532.65 322.9 533.4 322.9 528.8 324.3 524.2 325.7 509.85 330.1 509.85 330.3 509.85 331.45 510.75 334 511.65 336.55 511.65 337.65 511.65 340.65 507.25 341.85 503.8 342.8 492.95 343.55 455.3 346.1 428.5 350.45 410 353.5 390.6 356.35 352.1 361.95 340.1 361.95 316.75 361.95 313.25 358.4 312.1 357.25 313.05 355.6 314.4 354.05 314.55 353.6 314.55 353.3 313.1 352.55 311.4 351.6 309.95 351.6 308.5 351.6 263.6 355.95 218.75 360.25 217.25 360.25
L 159.2 359.1
Q 158.6 359.1 157.1 358.55 155.75 358.05 155.35 357.75 154.6 357.25 153.9 356.4 153.05 355.35 153 354.5 153.25 353.6 153.45 352.8 153.4 352.8 153.4 352.75 149.8 348.7 146.45 346.05 142.6 344.65 136.35 342.35 124.15 337.8 120.7 337.05 115 335.85 102.3 332.85 90.95 330.1 81.1 328.2 67.7 325.55 40 322.7 32.2 321.9 29.3 321 25.65 319.85 25.65 317.5 25.65 316.4 26.55 314.9 27.45 313.45 27.45 312.3 27.45 309.8 21.6 306.55 17.6 304.35 8.65 300.75 7.2 300.15 0.45 293.95 -0.05 293.5 -0.55 293.05
M -0.55 284.8
L -0.55 293.05
Q -0.05 293.5 0.45 293.95 7.2 300.15 8.65 300.75 17.6 304.35 21.6 306.55 27.45 309.8 27.45 312.3 27.45 313.45 26.55 314.9 25.65 316.4 25.65 317.5 25.65 319.85 29.3 321 32.2 321.9 40 322.7 67.7 325.55 81.1 328.2 90.95 330.1 102.3 332.85 115 335.85 120.7 337.05 124.15 337.8 136.35 342.35 142.6 344.65 146.45 346.05 149.8 348.7 153.4 352.75 153.4 352.8 153.45 352.8 153.25 353.6 153 354.5 153.05 355.35 153.9 356.4 154.6 357.25 155.35 357.75 155.75 358.05 157.1 358.55 158.6 359.1 159.2 359.1
L 217.25 360.25
Q 218.75 360.25 263.6 355.95 308.5 351.6 309.95 351.6 311.4 351.6 313.1 352.55 314.55 353.3 314.55 353.6 314.4 354.05 313.05 355.6 312.1 357.25 313.25 358.4 316.75 361.95 340.1 361.95 352.1 361.95 390.6 356.35 410 353.5 428.5 350.45 455.3 346.1 492.95 343.55 503.8 342.8 507.25 341.85 511.65 340.65 511.65 337.65 511.65 336.55 510.75 334 509.85 331.45 509.85 330.3 509.85 330.1 524.2 325.7 528.8 324.3 533.4 322.9 532.65 322.9 532 322.95
L 532 320.2 532.7 319.2 532.7 314.45
Q 535.5 313.95 549.4 311.95
L 549.4 307.4
Q 545.75 307.6 541.85 307.7 538.4 307.8 534.8 307.8 532.25 307.8 531.05 307.45 529.95 306.9 529.05 306.65 528.4 306.45 527.4 306.25 522.65 307.3 518.15 307.75 515.3 308 512.6 308.05 512.1 308.05 511.65 308.05 508.85 308.05 506.35 308.1 505.45 309.1 504.7 310.5 501.4 316.45 499.05 317.6 496.45 318.85 478.25 321.9 460.3 324.85 442.25 327.05 430.6 328.55 422.75 329.6 407.65 333.65 396.85 336.4 376.15 341.75 370.45 342.3 356.1 345.85 350.1 345.85 346.85 345.85 343.45 344.1 339.45 341.65 337.1 340.25 327.7 334.6 315.35 334.6 307.25 334.6 272.15 337.95 259.25 339.15 248.3 339.95 227.75 343.15 225.2 343.15 219.35 343.15 214.5 342.05 214.15 341.95 213.8 341.85 212.55 341.55 211.4 341.2 200.6 340.85 197.05 338.9 195.4 338 194.65 336.4 194.05 334.5 193.65 333.5 193 331.7 191.25 330.3 188.5 329.05 185.8 328.2 184.85 327.9 183.95 327.65 174.2 325.05 159.75 325.25 159.25 325.25 158.75 325.25 158.75 325.15 158.55 324.75 158.35 324.45 158.35 323.65 155.55 323.5 152.55 323.35 108.4 321.4 77.95 316.6 54.4 312.85 48.5 309.4 50.25 306.4 51.3 304.75 53.15 301.7 55.25 299.85
L 54.2 298.6
Q 30.15 290.4 23.75 288.35 18.25 287.05 5.5 285.45 2.3 285.05 -0.55 284.8
M 153.6 351.95
L 153.6 351.9 153.75 351.1
Q 153.7 351.5 153.6 351.95
M 153.6 351.9
L 153.6 351.95
Q 153.7 351.5 153.75 351.1
L 153.6 351.9
M 454 236.8
Q 449.5 235.75 447.1 239.8 445.75 242.1 444.15 243.2 443.55 243.6 443.05 243.15 441.45 241.65 439.4 241.35 438.7 241.2 438 241.15 432.45 240.7 426.9 240.7 426.25 240.7 425.7 241.15 424.6 241.9 422.8 242.1 422.05 242.2 421.3 242.35 419.6 242.65 417.95 242.25 415.6 241.75 412.95 240.5 412.35 239.95 411.75 239.5 407.05 235.65 404.4 235.45 403.95 235.35 403.6 234.85 402.5 233.35 401.15 234.4 400.65 234.85 399.95 234.55 399.5 234.35 399.05 234.25 395.35 233.8 391.6 233.45 390.85 233.3 390.05 233.3 388.05 233 387.2 231.35 387.1 231.2 386.25 231.35 384.45 231.75 382.6 231.35 381.8 231.2 381 230.85 379.55 230.2 378.1 229.5 377.3 229.2 376.5 229 374 228.55 371.85 230.25 371.25 230.7 370.65 230.35 369.2 229.25 366.8 229.35
L 408.05 262.85
Q 412.35 260.3 418.65 259.8 418.35 259.1 418.05 258.4
L 418.55 258.2
Q 475.8 257.9 534.3 260.8 534.65 260.7 534.95 260.6 535.3 260.55 535.6 260.45 535.05 261.2 534.55 261.95 542 262.4 549.4 263.25
L 549.4 245.1
Q 546.3 245.9 542.8 245.65 541.75 245.5 540.8 245.1 539.65 244.55 538.55 244.05 536.05 242.7 533.2 240.5 532.4 239.75 531.55 239.2 531 238.8 530.55 238.35 529.05 236.65 526.15 237.2 525.1 237.35 524.05 237.75 521.55 238.55 519.2 239.8 518.5 240.25 517.8 240.25 510.5 240.7 503.2 240.7 502.15 240.7 501.8 241.45 501.25 242.35 499.75 242.05 498.05 241.65 496.3 241.35 495.6 241.2 494.85 241.15 491.45 240.7 488.05 241.15 487.3 241.2 486.5 241.45 484.65 241.9 483.25 240.5 481.7 238.8 479.7 238.35 478.15 238.05 476.2 238.2 472.75 238.5 469.25 238.8 468.25 238.8 467.2 238.35 464.8 237.3 460.9 237.35 457.35 237.6 454 236.8
M -0.55 186.15
Q -0.3 186 -0.1 185.8 0.95 184.4 2.25 184.45 6 184.65 8.45 183.2 8.85 182.95 9.25 182.5 9.9 182 10.1 181.2 10.55 179.85 12.05 180.3 12.7 180.5 13.1 180.1 14.1 179.1 15.3 179.85 16.25 180.35 17.5 180.3 19.4 180.3 20.35 181.25 22.7 183.7 24.5 180.5 24.85 180.1 24.85 179.5 25.05 176 27.9 176.9 28.65 177.2 29.35 177.4 30 177.65 30.55 178 31.55 178.75 33.45 179.05 33.85 179.1 34.2 179.1 35.9 179.55 37.65 179.85 38.4 180.1 38.75 180.8 39.75 182.4 41.85 180.6 43.25 179.55 44.65 178.75 46 178.1 47.2 177.25 49.85 175.55 52.9 175.8 53.6 175.8 54.15 175.35 55.65 174.05 58.95 173.4 61 174.8 63.3 174.45 64.35 174.3 65.45 174 66.1 173.85 66.5 174.3 67.5 175.35 69.55 176 69.95 176.2 70.3 176.2 71.65 176.2 73.05 175.85 73.75 175.8 74.2 176.2 75.65 177.85 78.55 177.95 81.7 178.1 84.8 178.9 85.35 179 85.85 179.2 126.95 105.3 187.95 61
L 187.95 60.95 188.35 61.55
Q 114.55 126.3 112.15 195.15 112.7 195.55 113.3 195.65 114 195.8 114.45 196.25 115.8 197.7 117.4 197.35 117.85 197.25 118.2 197.05 120.45 196.4 121.55 197.8 122.9 199.5 124.4 200.6 127.25 202.7 129.9 205.45 130.3 205.85 130.7 205.95 133.4 206.75 134.6 205.15 136.45 202.85 140.25 203.8 142 204.3 143.9 204.4 154.35 171.55 176.1 145.65 175 145.45 173.9 145.3 166.75 144.15 159.65 143.4 174.1 133.9 189.8 126.55
L 192.1 131.2 189.9 126.45 190 126.4
Q 193.1 124.95 196.3 123.6 196.35 123.55 196.45 123.5 207.85 118.5 219.9 114.65
L 284 184.05
Q 262.15 172.25 240.55 163.75 234.15 192.85 245.05 227.3
L 248.6 227.1
Q 249.75 226.7 250.95 226.35 251.75 226.1 252.5 225.9 255.4 225.4 257.25 226.55
L 264.85 226.1
Q 265.2 225.45 265.45 224.6 265.7 223.95 266.1 223.8 266.75 223.45 267.35 223.95 269.5 225.6 272.05 225.6 272.8 225.6 272.95 225.15 273.5 223.9 275 224.75 275.4 225 275.9 225.2 276.05 225.3 276.2 225.4
L 348 221 346.4 219.6 349.9 215.6 352.35 217.6 350.8 200.75 357.15 199.8 357.5 199.8 358.75 220.35 377.75 219.15 378.65 223.85 361.8 225.3 366.8 229.35
Q 369.2 229.25 370.65 230.35 371.25 230.7 371.85 230.25 374 228.55 376.5 229 377.3 229.2 378.1 229.5 379.55 230.2 381 230.85 381.8 231.2 382.6 231.35 384.45 231.75 386.25 231.35 387.1 231.2 387.2 231.35 388.05 233 390.05 233.3 390.85 233.3 391.6 233.45 395.35 233.8 399.05 234.25 399.5 234.35 399.95 234.55 400.65 234.85 401.15 234.4 402.5 233.35 403.6 234.85 403.95 235.35 404.4 235.45 407.05 235.65 411.75 239.5 412.35 239.95 412.95 240.5 415.6 241.75 417.95 242.25 419.6 242.65 421.3 242.35 422.05 242.2 422.8 242.1 424.6 241.9 425.7 241.15 426.25 240.7 426.9 240.7 432.45 240.7 438 241.15 438.7 241.2 439.4 241.35 441.45 241.65 443.05 243.15 443.55 243.6 444.15 243.2 445.75 242.1 447.1 239.8 449.5 235.75 454 236.8 457.35 237.6 460.9 237.35 464.8 237.3 467.2 238.35 468.25 238.8 469.25 238.8 472.75 238.5 476.2 238.2 478.15 238.05 479.7 238.35 481.7 238.8 483.25 240.5 484.65 241.9 486.5 241.45 487.3 241.2 488.05 241.15 491.45 240.7 494.85 241.15 495.6 241.2 496.3 241.35 498.05 241.65 499.75 242.05 501.25 242.35 501.8 241.45 502.15 240.7 503.2 240.7 510.5 240.7 517.8 240.25 518.5 240.25 519.2 239.8 521.55 238.55 524.05 237.75 525.1 237.35 526.15 237.2 529.05 236.65 530.55 238.35 531 238.8 531.55 239.2 532.4 239.75 533.2 240.5 536.05 242.7 538.55 244.05 539.65 244.55 540.8 245.1 541.75 245.5 542.8 245.65 546.3 245.9 549.4 245.1
L 551.4 -10.95 -0.55 -6.95 -0.55 186.15
M 250.6 24.95
L 250.6 25.45
Q 222.75 24.2 223.25 49.5 203.05 27.7 190.15 55.25 202.45 -8 250.6 24.95
M 185.9 56.55
L 185.8 57.05
Q 158.7 50.4 154.25 75.3 138.65 49.95 120.65 74.5 145.1 14.85 185.9 56.55
M 205.8 88.4
Q 221.4 63.15 191.4 58.05 255.6 53 236.75 108.15
L 236.3 108.3
Q 230.05 81.1 205.8 88.4
M 191.4 58.05
Q 221.4 63.15 205.8 88.4 230.05 81.1 236.3 108.3
L 236.75 108.15
Q 255.6 53 191.4 58.05
M 185.8 57.05
L 185.9 56.55
Q 145.1 14.85 120.65 74.5 138.65 49.95 154.25 75.3 158.7 50.4 185.8 57.05
M 250.6 25.45
L 250.6 24.95
Q 202.45 -8 190.15 55.25 203.05 27.7 223.25 49.5 222.75 24.2 250.6 25.45
M 237.9 231.35
Q 241.85 232.85 244 232.85
L 237.9 231.35
M 222.45 262.35
L 208.55 262.35 204.5 265.2
Q 214.9 266 225.4 265.75
L 222.45 262.35
M 245.45 264.3
L 243.65 262.2 258.25 262.3
Q 266.2 260.8 274.2 258.7 231.9 256.6 190.25 256.2 174.3 256 158.45 256.1 165.75 258.4 173.1 260.2
L 189.3 260.65 187.2 263.05
Q 195.6 264.45 204.05 265.15 204.25 265.15 204.5 265.2
L 208.55 262.35 222.45 262.35 225.4 265.75
Q 235.05 265.55 244.75 264.4 245.1 264.35 245.45 264.3
M 245.45 264.3
Q 251.8 263.5 258.25 262.3
L 243.65 262.2 245.45 264.3
M 158.45 256.1
L 157.95 256.3
Q 160.75 263 164.1 268.35 167.35 273.45 171.1 277.35 171.9 277.1 172.75 276.75 175.85 275.4 179.6 275.4 184.1 275.4 197.4 277.3 210.8 279.2 214.35 279.2 228.95 279.2 234.9 280.05 240.85 280.9 248.15 280.9 250.7 280.9 254.6 279.5 258.45 278.05 258.55 278.05 258.8 278.05 259.05 278.1 262.45 274.85 266.35 270.25 267.15 269.3 268 268.25 271.55 263.85 275.5 258.35 275.2 258.45 274.85 258.5 274.55 258.6 274.2 258.7 266.2 260.8 258.25 262.3 251.8 263.5 245.45 264.3 245.1 264.35 244.75 264.4 235.05 265.55 225.4 265.75 214.9 266 204.5 265.2 204.25 265.15 204.05 265.15 195.6 264.45 187.2 263.05
L 189.3 260.65 173.1 260.2
Q 165.75 258.4 158.45 256.1
M 118.2 197.05
Q 117.85 197.25 117.4 197.35 115.8 197.7 114.45 196.25 114 195.8 113.3 195.65 112.7 195.55 112.15 195.15 112.05 197.85 112.05 200.55 112.55 200.75 113.05 201 127.1 207.75 112.4 209.4 112.25 209.4 112.15 209.4 111.35 209.5 110.45 209.55 137.25 216.55 125.15 219.9 125.35 219.85 125.55 219.8 132.95 218.05 139.7 218.4 139.85 218.4 139.95 218.4 141.65 211.25 143.9 204.4 142 204.3 140.25 203.8 136.45 202.85 134.6 205.15 133.4 206.75 130.7 205.95 130.3 205.85 129.9 205.45 127.25 202.7 124.4 200.6 122.9 199.5 121.55 197.8 120.45 196.4 118.2 197.05
M 80.4 197.5
Q 80.55 197.7 80.75 197.9 80.7 197.7 80.7 197.4
L 80.1 197.2
Q 80.25 197.35 80.4 197.5
M 240.55 163.75
Q 233.15 160.8 225.85 158.35 218.45 155.8 211.15 153.7 207.45 152.6 203.75 151.6 189.9 147.95 176.1 145.65 154.35 171.55 143.9 204.4 141.65 211.25 139.95 218.4 145.55 218.7 160.55 222.8 162.3 223.25 164.15 223.8
L 164.4 223
Q 163.3 222.35 161.15 220.65 158.8 218.85 158 218.05 161.7 216.35 165.15 219.7 168.6 223.05 168.25 220.9 167.85 218.7 171.25 222.25 171.55 222.6 171.95 222.9 179.45 229.35 191.5 229.35 191.75 229.35 194.2 228.7 196.6 228.1 197.75 227.9 197.25 227.55 196.6 227.1 192.75 224.5 192 223 193.05 222.05 197.95 221.75 202.9 221.5 205.35 225.15 207.8 228.85 214.7 228.15 221.5 227.45 225.75 227.45 227.6 227.45 230.5 226.75 233.4 226 234.9 226 235.8 226 239.95 228.4 241.05 229.05 241.95 229.6
L 240 227.6 245.05 227.3
Q 234.15 192.85 240.55 163.75
M 186.6 172.35
L 186.6 172.3 212.15 169.55 216.05 204.2 220.25 204.6 218.5 208.6 171.7 205.25 171.15 201.35 175.75 201.6 185.15 176.05 186.6 172.35
M 203.25 174.05
L 195.5 174.9 197.65 203.05 175.75 201.6 171.15 201.35 171.7 205.25 218.5 208.6 220.25 204.6 216.05 204.2 200.5 203 203.25 174.05
M 195.5 174.9
L 185.15 176.05 175.75 201.6 197.65 203.05 195.5 174.9
M 186.6 172.3
L 186.6 172.35 185.15 176.05 195.5 174.9 203.25 174.05 200.5 203 216.05 204.2 212.15 169.55 186.6 172.3
M 174.55 141.05
L 174.5 141.4
Q 175.75 141.7 177.05 141.9
L 177.05 141.95
Q 191.05 144.8 204.55 148.5 204.55 148.45 204.6 148.5
L 192.1 131.2
Q 182.55 135.75 174.55 141.05
M 196.45 123.5
Q 196.35 123.55 196.3 123.6 193.1 124.95 190 126.4
L 189.9 126.45 192.1 131.2 204.6 148.5
Q 204.55 148.45 204.55 148.5 191.05 144.8 177.05 141.95
L 177.05 141.9
Q 175.75 141.7 174.5 141.4
L 174.55 141.05
Q 182.55 135.75 192.1 131.2
L 189.8 126.55
Q 174.1 133.9 159.65 143.4 166.75 144.15 173.9 145.3 175 145.45 176.1 145.65 189.9 147.95 203.75 151.6 207.45 152.6 211.15 153.7 218.45 155.8 225.85 158.35 233.15 160.8 240.55 163.75 262.15 172.25 284 184.05
L 219.9 114.65
Q 207.85 118.5 196.45 123.5
M 215.05 121.85
Q 215.1 121.85 215.15 121.85
L 215.25 122.2 209.5 149.85
Q 209.05 149.7 208.65 149.6
L 208.8 149 196.2 129.3
Q 196.6 129.1 196.95 128.95
L 197 128.95
Q 197.7 128.65 198.4 128.35 206.25 124.9 215.05 121.85
M 220.05 121.4
L 231.7 134.25 212.15 150.55 211.05 150.3 212.15 150.55 220.05 121.4
M 226.95 155.2
L 226.85 155.15
Q 221.4 153.4 215.9 151.7
L 234.95 137.8 263.4 169.3
Q 252.75 164.55 241.8 160.5 241.75 160.45 241.7 160.45 234.4 157.7 226.95 155.2
M 226.85 155.15
L 226.95 155.2
Q 234.4 157.7 241.7 160.45 241.75 160.45 241.8 160.5 252.75 164.55 263.4 169.3
L 234.95 137.8 215.9 151.7
Q 221.4 153.4 226.85 155.15
M 231.7 134.25
L 220.05 121.4 212.15 150.55 231.7 134.25
M 215.15 121.85
Q 215.1 121.85 215.05 121.85 206.25 124.9 198.4 128.35 197.7 128.65 197 128.95
L 196.95 128.95
Q 196.6 129.1 196.2 129.3
L 208.8 149 208.65 149.6
Q 209.05 149.7 209.5 149.85
L 215.25 122.2 215.15 121.85
M 188.35 61.55
L 187.95 61
Q 126.95 105.3 85.85 179.2 81.6 186.75 77.65 194.6 78.8 195.75 80.1 197.2
L 80.7 197.4
Q 80.7 197.3 80.7 197.2 80.7 197.15 80.7 197.1 80.7 195.65 84.2 193.95 87.35 192.45 91.7 192.65 95.9 192.9 112.05 200.55 112.05 197.85 112.15 195.15 114.55 126.3 188.35 61.55
M 187.95 61
L 188.35 61.55 187.95 60.95 187.95 61
M 549.4 307.4
L 549.4 298.95
Q 545.5 300.55 541.7 301.95 534.3 304.75 527.4 306.25 528.4 306.45 529.05 306.65 529.95 306.9 531.05 307.45 532.25 307.8 534.8 307.8 538.4 307.8 541.85 307.7 545.75 307.6 549.4 307.4
M 526.85 276
Q 541.55 278.35 549.4 279.75
L 549.4 263.25
Q 542 262.4 534.55 261.95 528.4 270.35 523.25 276
L 526.85 276
M 523.25 276
L 522.65 276 522.65 276.65 522.65 277.35
Q 540.15 279.45 549.4 284.65
L 549.4 282.7 549.4 279.75
Q 541.55 278.35 526.85 276
L 523.25 276
M 503.75 264.3
L 505.55 266.4
Q 511.9 265.6 518.35 264.4
L 503.75 264.3
M 479.6 310.95
Q 480 312.15 481.4 314.25 478.75 316.05 458.8 320.95 458.5 321 458.2 321.1 458.15 321.1 458.1 321.15 454.85 321.9 451.85 322.6 433.7 326.85 426.35 328.65 424.5 329.15 422.75 329.6 430.6 328.55 442.25 327.05 460.3 324.85 478.25 321.9 496.45 318.85 499.05 317.6 501.4 316.45 504.7 310.5 505.45 309.1 506.35 308.1 489.1 308.2 484.25 309.4 482.3 310.8 479.6 310.95
M 370.45 342.3
Q 369.8 342.35 369.35 342.35 353.6 342.35 344.15 340.2 340.25 339.3 337.4 338.05 336.45 337.6 332.1 335.05 329.8 333.7 327.5 333.7 293.25 333.7 257.6 338.45 252.55 339.25 248.3 339.95 259.25 339.15 272.15 337.95 307.25 334.6 315.35 334.6 327.7 334.6 337.1 340.25 339.45 341.65 343.45 344.1 346.85 345.85 350.1 345.85 356.1 345.85 370.45 342.3
M 346.65 266.85
Q 347.55 266.75 348.45 266.55 344 266.1 337.45 265.05 342.4 267.25 346.65 266.85
M 334.05 239.5
Q 334.6 238.8 336 238.25 336.7 237.95 337.1 237.45 339.1 235.05 343.4 236.1 344.6 236.4 345.75 236.7 346.45 236.9 346.7 236.4 348.8 232.35 351 230.7 352.2 232.3 353.7 232.65
L 353.1 226.05 298.55 230.75
Q 298.8 230.85 299.05 231 299.45 231.2 299.6 231.8 300.6 235.45 304.3 234.55 305.1 234.35 305.9 234.1 308.4 233.45 309.35 235.15 310.55 237.2 312.65 237.8 313.4 237.95 313.8 238.5 315 239.95 316.4 239.95 317.15 240.05 317.55 239.5 318 238.8 319.45 238.25 320.15 237.95 320.6 238.5 322.9 241.45 327.7 241.15 328.45 241.1 328.6 240.7 329.1 239.35 331.05 240.55 331.35 239.35 332.95 239.8 333.65 240.05 334.05 239.5
M 336 238.25
Q 334.6 238.8 334.05 239.5 333.65 240.05 332.95 239.8 331.35 239.35 331.05 240.55 329.1 239.35 328.6 240.7 328.45 241.1 327.7 241.15 322.9 241.45 320.6 238.5 320.15 237.95 319.45 238.25 318 238.8 317.55 239.5 317.15 240.05 316.4 239.95 315 239.95 313.8 238.5 313.4 237.95 312.65 237.8 310.55 237.2 309.35 235.15 308.4 233.45 305.9 234.1 305.1 234.35 304.3 234.55 300.6 235.45 299.6 231.8 299.45 231.2 299.05 231 298.8 230.85 298.55 230.75
L 294.4 231.1
Q 293.4 231.9 291.65 231.35
L 268.2 233.35
Q 269.25 234.05 270.4 234.85 274.05 237.45 278.75 241.7
L 279.3 242.95
Q 280.05 242.6 280.8 242.2 284.7 240.2 286.9 240.2 293.95 240.2 298.45 240.35 303 240.55 317.4 244.55 331.75 248.5 328.25 255.8 327.15 258 326.1 259.7 329.25 260.7 334.7 263.7 336.1 264.45 337.45 265.05 344 266.1 348.45 266.55 349.3 266.35 350.1 266.05 349.8 266.35 349.5 266.65 351.8 266.85 353.45 266.85 354.65 266.85 356.75 266.6
L 353.7 232.65
Q 352.2 232.3 351 230.7 348.8 232.35 346.7 236.4 346.45 236.9 345.75 236.7 344.6 236.4 343.4 236.1 339.1 235.05 337.1 237.45 336.7 237.95 336 238.25
M 350.8 200.75
L 352.35 217.6 358.9 222.95 358.75 220.35 357.5 199.8 357.15 199.8 350.8 200.75
M 378.65 223.85
L 377.75 219.15 358.75 220.35 358.9 222.95 361.8 225.3 378.65 223.85
M 447.3 265.15
L 449.4 262.75 433.2 262.3
Q 440.2 263.95 447.3 265.15
M 482.55 264.45
L 468.65 264.45 464.6 267.3
Q 475 268.1 485.5 267.85
L 482.55 264.45
M 423.6 259.75
Q 421.1 259 418.55 258.2
L 418.05 258.4
Q 418.35 259.1 418.65 259.8 422.3 268.1 426.85 274.3 432.3 273.95 441.35 275.55 464.25 279.5 458.8 282.6 453.4 285.65 475.55 280.35 497.65 275.05 512.25 277 516.95 278.25 520.3 279.1 521.45 277.9 522.65 276.65
L 522.65 276 523.25 276
Q 528.4 270.35 534.55 261.95 535.05 261.2 535.6 260.45 535.3 260.55 534.95 260.6 534.65 260.7 534.3 260.8 532.45 261.3 530.65 261.75 524.45 263.25 518.35 264.4 511.9 265.6 505.55 266.4 495.5 267.65 485.5 267.85 475 268.1 464.6 267.3 464.35 267.25 464.15 267.25 455.7 266.55 447.3 265.15 440.2 263.95 433.2 262.3 428.4 261.1 423.6 259.75
M 418.55 258.2
Q 421.1 259 423.6 259.75 428.4 261.1 433.2 262.3
L 449.4 262.75 447.3 265.15
Q 455.7 266.55 464.15 267.25 464.35 267.25 464.6 267.3
L 468.65 264.45 482.55 264.45 485.5 267.85
Q 495.5 267.65 505.55 266.4
L 503.75 264.3 518.35 264.4
Q 524.45 263.25 530.65 261.75 532.45 261.3 534.3 260.8 475.8 257.9 418.55 258.2
M -0.55 208.4
L -0.55 265.75
Q 21.25 265.1 59.05 262.45 78.9 264.9 80.5 264.9 81.1 264.9 85 264.45 88.85 263.95 89.5 263.95 94.3 263.95 118.45 266.9 142.6 269.85 150.4 269.85 154.5 269.85 164.1 268.35 160.75 263 157.95 256.3
L 158.45 256.1
Q 174.3 256 190.25 256.2 231.9 256.6 274.2 258.7 274.55 258.6 274.85 258.5 275.2 258.45 275.5 258.35 271.55 263.85 268 268.25 267.15 269.3 266.35 270.25 294.75 273.85 296.05 273.85 301.4 273.85 305.6 272.35 308.2 271.4 311.95 271.1 314.15 270.85 316.7 270.85 321.65 270.85 330.65 272.35 338.4 273.65 347 273.2 348.3 273.05 349.65 273 354.1 272.6 364.15 272.55 374.95 272.45 392.35 272.7 375.1 272.05 364.4 270.35 364.25 270.35 364.15 270.3 361.7 269.9 359.65 269.6 358.2 269.35 356.95 269.15 348.75 267.8 348.55 267.6 348.95 267.2 349.5 266.65 349.8 266.35 350.1 266.05 349.3 266.35 348.45 266.55 347.55 266.75 346.65 266.85 342.4 267.25 337.45 265.05 336.1 264.45 334.7 263.7 329.25 260.7 326.1 259.7 327.15 258 328.25 255.8 331.75 248.5 317.4 244.55 303 240.55 298.45 240.35 293.95 240.2 286.9 240.2 284.7 240.2 280.8 242.2 280.05 242.6 279.3 242.95
L 278.75 241.7
Q 274.05 237.45 270.4 234.85 269.25 234.05 268.2 233.35 262.55 229.85 257.8 229.85 253.7 229.85 250.4 231.35 248.05 232.4 245.9 232.7 245.45 232.75 245 232.8 244.5 232.85 244 232.85 241.85 232.85 237.9 231.35
L 244 232.85 244.95 231.4 244.9 231.4
Q 243.95 230.8 241.95 229.6 241.05 229.05 239.95 228.4 235.8 226 234.9 226 233.4 226 230.5 226.75 227.6 227.45 225.75 227.45 221.5 227.45 214.7 228.15 207.8 228.85 205.35 225.15 202.9 221.5 197.95 221.75 193.05 222.05 192 223 192.75 224.5 196.6 227.1 197.25 227.55 197.75 227.9 196.6 228.1 194.2 228.7 191.75 229.35 191.5 229.35 179.45 229.35 171.95 222.9 171.55 222.6 171.25 222.25 167.85 218.7 168.25 220.9 168.6 223.05 165.15 219.7 161.7 216.35 158 218.05 158.8 218.85 161.15 220.65 163.3 222.35 164.4 223
L 164.15 223.8
Q 162.3 223.25 160.55 222.8 145.55 218.7 139.95 218.4 139.85 218.4 139.7 218.4 132.95 218.05 125.55 219.8 125.35 219.85 125.15 219.9 137.25 216.55 110.45 209.55 111.35 209.5 112.15 209.4 112.25 209.4 112.4 209.4 127.1 207.75 113.05 201 112.55 200.75 112.05 200.55 95.9 192.9 91.7 192.65 87.35 192.45 84.2 193.95 80.7 195.65 80.7 197.1 80.7 197.15 80.7 197.2 80.7 197.3 80.7 197.4 80.7 197.7 80.75 197.9 80.55 197.7 80.4 197.5 80.25 197.35 80.1 197.2 78.8 195.75 77.65 194.6 76.75 193.75 75.95 193.05 66.55 185.05 43.6 187.1 20.6 189.1 1.55 206.4 0.45 207.4 -0.55 208.4
M -0.55 265.75
L -0.55 272.75
Q 13.5 275.15 35.35 276.9 36.65 277 37.9 277.1 49.5 278 60.3 278.6 62 278.7 63.7 278.8 67.6 279 71.45 279.15 73.1 279.85 82.5 286.85 90.85 293.1 97.1 294.55 100 295.25 103.45 296.35 103.5 296.35 103.6 296.4 103.8 296.45 104 296.55 111.95 298 115.25 299.95 115.85 300.3 116.75 300.6 119.4 301.4 124.55 301.4 126.4 301.4 131.5 302.65 135.3 303.6 137.15 303.85 137.75 303.9 138.15 303.9 139.25 303.9 143.95 303.1 149.95 302.1 153.8 301.65
L 153.8 303
Q 151.15 303.2 148.8 303.65 154 303.55 159.85 303.2
L 163.55 303.45
Q 163.7 303.8 163.75 303.7 163.8 303.75 163.8 305.1 163.8 306.25 162.9 308.2 162 310.2 162 311.3 162 312.45 162.55 313.5 162.6 313.6 162.65 313.65 163.15 314.55 164.1 315.35 165.15 316.25 166.75 317 169.8 318.5 179.9 322.2 182 323.05 186.9 324.65
L 186.95 324.65
Q 194 326.95 206.85 330.85 207.65 331.1 208.45 331.35 209.8 331.35 240.35 326.1 270.95 320.85 286.2 320.85 303.9 320.85 314.15 323.4 319.3 324.7 322.1 325.95 325.05 325.9 327.65 326 327.7 326 327.8 326 338.35 326.4 341.95 328.9 342.8 329.5 344 331.1 344.4 331.6 344.9 331.85 345.35 332.1 345.95 332.1 365.8 332.1 382.85 326.45 385.4 325.65 394 322.35 399.35 320.3 402.05 319.95 424.95 317.25 449.95 314.4 453.6 313.85 456.25 313.15 456.35 313.1 456.55 313.1 458.9 312.45 460.35 311.75 463.5 310.2 463.5 307.6 463.5 306.45 462.6 304.2 461.7 301.95 461.7 300.95 470.9 299.8 476.35 298.3 479.4 297.5 483.3 296.15 490.35 294.1 514.7 294.1 523.45 294.1 533.45 291.2 545.25 287.8 549.4 286.6
L 549.4 284.65
Q 540.15 279.45 522.65 277.35
L 522.65 276.65
Q 521.45 277.9 520.3 279.1 516.95 278.25 512.25 277 497.65 275.05 475.55 280.35 453.4 285.65 458.8 282.6 464.25 279.5 441.35 275.55 432.3 273.95 426.85 274.3 422.3 268.1 418.65 259.8 412.35 260.3 408.05 262.85
L 421 273.4 408.6 273.85 359.45 231.25 361.5 265.75
Q 362 265.65 362.5 265.55 369 264.25 370.9 264.25 374.7 264.25 382.45 265.55 388.45 266.55 392.75 266.8 394.55 266.6 396.4 266.7 396.85 266.75 397.35 266.8 396.85 266.75 396.4 266.7 394.55 266.6 392.75 266.8 388.45 266.55 382.45 265.55 374.7 264.25 370.9 264.25 369 264.25 362.5 265.55 362 265.65 361.5 265.75
L 359.45 231.25 408.6 273.85 421 273.4 408.05 262.85 366.8 229.35 361.8 225.3 358.9 222.95 352.35 217.6 349.9 215.6 346.4 219.6 348 221 359.4 230.95 348 221 276.2 225.4
Q 276.05 225.3 275.9 225.2 275.4 225 275 224.75 273.5 223.9 272.95 225.15 272.8 225.6 272.05 225.6 269.5 225.6 267.35 223.95 266.75 223.45 266.1 223.8 265.7 223.95 265.45 224.6 265.2 225.45 264.85 226.1
L 257.25 226.55
Q 255.4 225.4 252.5 225.9 251.75 226.1 250.95 226.35 249.75 226.7 248.6 227.1
L 245.05 227.3 240 227.6 241.95 229.6
Q 243.95 230.8 244.9 231.4
L 244.95 231.4 244 232.85
Q 244.5 232.85 245 232.8 245.45 232.75 245.9 232.7 248.05 232.4 250.4 231.35 253.7 229.85 257.8 229.85 262.55 229.85 268.2 233.35
L 291.65 231.35
Q 293.4 231.9 294.4 231.1
L 298.55 230.75 353.1 226.05 353.7 232.65 356.75 266.6
Q 354.65 266.85 353.45 266.85 351.8 266.85 349.5 266.65 348.95 267.2 348.55 267.6 348.75 267.8 356.95 269.15 358.2 269.35 359.65 269.6 361.7 269.9 364.15 270.3 364.25 270.35 364.4 270.35 375.1 272.05 392.35 272.7 374.95 272.45 364.15 272.55 354.1 272.6 349.65 273 348.3 273.05 347 273.2 338.4 273.65 330.65 272.35 321.65 270.85 316.7 270.85 314.15 270.85 311.95 271.1 308.2 271.4 305.6 272.35 301.4 273.85 296.05 273.85 294.75 273.85 266.35 270.25 262.45 274.85 259.05 278.1 258.8 278.05 258.55 278.05 258.45 278.05 254.6 279.5 250.7 280.9 248.15 280.9 240.85 280.9 234.9 280.05 228.95 279.2 214.35 279.2 210.8 279.2 197.4 277.3 184.1 275.4 179.6 275.4 175.85 275.4 172.75 276.75 171.9 277.1 171.1 277.35 167.35 273.45 164.1 268.35 154.5 269.85 150.4 269.85 142.6 269.85 118.45 266.9 94.3 263.95 89.5 263.95 88.85 263.95 85 264.45 81.1 264.9 80.5 264.9 78.9 264.9 59.05 262.45 21.25 265.1 -0.55 265.75
M 342 288.3
Q 342.05 288.3 342.15 288.3 354.65 289.7 368.3 291.5
L 368.35 291.5
Q 384.95 293.65 403.3 296.4
L 403.2 296.8
Q 397.6 302.65 392.05 307.1 388.9 306.55 388.3 306.55 386.4 306.55 377.15 309.25 367.9 311.95 359.6 311.95 357.6 311.95 348.4 310.6 337.85 309.1 332.8 308.7 328.45 308.3 320.3 308.75 312.8 309.25 312.1 309.25 308.7 309.25 305.7 308.9 302.75 308.5 300.2 307.8 298.7 307.35 291.9 304.6 289.7 303.7 287.25 303 281.55 296.7 276.6 284.4
L 276.6 284.35 276.95 283.7
Q 276.75 283.6 276.6 283.55 276.55 283.5 276.5 283.45 276.55 283.45 276.6 283.45 290.65 283.8 307.35 285.05 307.45 285.05 307.5 285.05 320.1 286 334.3 287.5 337.85 287.85 341.6 288.3 341.8 288.3 342 288.3
M 315.3 289.25
L 307.2 288.6 292.05 290.2
Q 298.5 292.45 305.75 294.1
L 315.3 289.25
M 388.3 306.55
Q 388.9 306.55 392.05 307.1 397.6 302.65 403.2 296.8 386.25 298.6 371.05 299.15 371 299.15 370.95 299.15 367.15 299.25 363.5 299.3 361.45 299.35 358.95 299.35 349.65 299.4 340.8 298.9 340.1 298.85 339.45 298.8 339.4 298.8 339.35 298.8 338.85 298.8 338.35 298.75 338.3 298.75 338.2 298.75 331.9 298.3 326.05 297.6
L 326 297.6
Q 324.3 297.4 322.65 297.2 322.5 297.2 322.35 297.15 313.6 295.95 305.75 294.1 298.5 292.45 292.05 290.2 283.85 287.35 276.95 283.7
L 276.6 284.35 276.6 284.4
Q 281.55 296.7 287.25 303 289.7 303.7 291.9 304.6 298.7 307.35 300.2 307.8 302.75 308.5 305.7 308.9 308.7 309.25 312.1 309.25 312.8 309.25 320.3 308.75 328.45 308.3 332.8 308.7 337.85 309.1 348.4 310.6 357.6 311.95 359.6 311.95 367.9 311.95 377.15 309.25 386.4 306.55 388.3 306.55
M 367.9 294.95
L 361.2 294.6 358.95 299.35
Q 361.45 299.35 363.5 299.3 367.15 299.25 370.95 299.15
L 367.9 294.95
M 341.6 292.5
L 333.85 292.1 325.3 297.4 326.05 297.6
Q 331.9 298.3 338.2 298.75 338.3 298.75 338.35 298.75
L 341.6 292.85 341.6 292.5
M 333.85 292.1
L 341.6 292.5 341.6 292.85 338.35 298.75
Q 338.85 298.8 339.35 298.8 339.4 298.8 339.45 298.8 340.1 298.85 340.8 298.9 349.65 299.4 358.95 299.35
L 361.2 294.6 367.9 294.95 370.95 299.15
Q 371 299.15 371.05 299.15 386.25 298.6 403.2 296.8
L 403.3 296.4
Q 384.95 293.65 368.35 291.5
L 368.3 291.5
Q 354.65 289.7 342.15 288.3 342.05 288.3 342 288.3 341.8 288.3 341.6 288.3 337.85 287.85 334.3 287.5 320.1 286 307.5 285.05 307.45 285.05 307.35 285.05 290.65 283.8 276.6 283.45 276.55 283.45 276.5 283.45 276.55 283.5 276.6 283.55 276.75 283.6 276.95 283.7 283.85 287.35 292.05 290.2
L 307.2 288.6 315.3 289.25 305.75 294.1
Q 313.6 295.95 322.35 297.15 322.5 297.2 322.65 297.2 324.3 297.4 326 297.6
L 326.05 297.6 325.3 297.4 333.85 292.1
M -0.55 272.75
L -0.55 277.1
Q 14.8 277.65 35.3 277.95
L 35.35 277.95
Q 36.55 278 37.8 278 53.15 278.25 60.3 278.65
L 60.35 278.65
Q 62.3 278.75 63.7 278.85 63.75 278.85 63.8 278.85 66 279.05 66.4 279.25 66.65 279.4 65.95 280.2 65.25 280.9 67.25 281.5 66.6 282.85 63.3 285.85 60.2 288.6 60.2 288.9 60.2 291.15 60.4 289.95 62.65 290.5 102.5 299.7
L 102.55 299.7
Q 107 300.7 111.9 301.85
L 111.95 301.85
Q 114.05 302.35 116.25 302.85 117.4 303.1 118.55 303.4
L 118.6 303.4
Q 119.75 303.65 120.95 303.95 120 303.65 118.6 303.35
L 118.8 302.55
Q 122.25 303.2 124.55 303.2 125.7 303.2 133.35 304.1 133.95 304.15 134.55 304.25
L 123.4 304.5
Q 125.55 305 127.8 305.5 161 313.15 161 314.8 161 315.3 160.8 316 160.5 317.1 159.65 318.7 158.3 321.25 158.3 323 158.3 323.35 158.35 323.65 158.35 324.45 158.55 324.75 158.75 325.15 158.75 325.25 159.25 325.25 159.75 325.25 174.2 325.05 183.95 327.65 184.85 327.9 185.8 328.2 188.5 329.05 191.25 330.3 193 331.7 193.65 333.5 194.05 334.5 194.65 336.4 195.4 338 197.05 338.9 200.6 340.85 211.4 341.2 212.55 341.55 213.8 341.85 214.15 341.95 214.5 342.05 219.35 343.15 225.2 343.15 227.75 343.15 248.3 339.95 252.55 339.25 257.6 338.45 293.25 333.7 327.5 333.7 329.8 333.7 332.1 335.05 336.45 337.6 337.4 338.05 340.25 339.3 344.15 340.2 353.6 342.35 369.35 342.35 369.8 342.35 370.45 342.3 376.15 341.75 396.85 336.4 407.65 333.65 422.75 329.6 424.5 329.15 426.35 328.65 433.7 326.85 451.85 322.6 454.85 321.9 458.1 321.15 458.15 321.1 458.2 321.1 458.5 321 458.8 320.95 478.75 316.05 481.4 314.25 480 312.15 479.6 310.95 482.3 310.8 484.25 309.4 489.1 308.2 506.35 308.1 508.85 308.05 511.65 308.05 512.1 308.05 512.6 308.05 515.3 308 518.15 307.75 522.65 307.3 527.4 306.25 534.3 304.75 541.7 301.95 545.5 300.55 549.4 298.95
L 549.4 286.6
Q 545.25 287.8 533.45 291.2 523.45 294.1 514.7 294.1 490.35 294.1 483.3 296.15 479.4 297.5 476.35 298.3 470.9 299.8 461.7 300.95 461.7 301.95 462.6 304.2 463.5 306.45 463.5 307.6 463.5 310.2 460.35 311.75 458.9 312.45 456.55 313.1 456.35 313.1 456.25 313.15 453.6 313.85 449.95 314.4 424.95 317.25 402.05 319.95 399.35 320.3 394 322.35 385.4 325.65 382.85 326.45 365.8 332.1 345.95 332.1 345.35 332.1 344.9 331.85 344.4 331.6 344 331.1 342.8 329.5 341.95 328.9 338.35 326.4 327.8 326 327.7 326 327.65 326 325.05 325.9 322.1 325.95 319.3 324.7 314.15 323.4 303.9 320.85 286.2 320.85 270.95 320.85 240.35 326.1 209.8 331.35 208.45 331.35 207.65 331.1 206.85 330.85 194 326.95 186.95 324.65
L 186.9 324.65
Q 182 323.05 179.9 322.2 169.8 318.5 166.75 317 165.15 316.25 164.1 315.35 163.15 314.55 162.65 313.65 162.6 313.6 162.55 313.5 162 312.45 162 311.3 162 310.2 162.9 308.2 163.8 306.25 163.8 305.1 163.8 303.75 163.75 303.7 163.7 303.8 163.55 303.45
L 159.85 303.2
Q 154 303.55 148.8 303.65 151.15 303.2 153.8 303
L 153.8 301.65
Q 149.95 302.1 143.95 303.1 139.25 303.9 138.15 303.9 137.75 303.9 137.15 303.85 135.3 303.6 131.5 302.65 126.4 301.4 124.55 301.4 119.4 301.4 116.75 300.6 115.85 300.3 115.25 299.95 111.95 298 104 296.55 103.8 296.45 103.6 296.4 103.5 296.35 103.45 296.35 100 295.25 97.1 294.55 90.85 293.1 82.5 286.85 73.1 279.85 71.45 279.15 67.6 279 63.7 278.8 62 278.7 60.3 278.6 49.5 278 37.9 277.1 36.65 277 35.35 276.9 13.5 275.15 -0.55 272.75
M -0.55 277.1
L -0.55 284.8
Q 2.3 285.05 5.5 285.45 18.25 287.05 23.75 288.35 30.15 290.4 54.2 298.6
L 55.25 299.85
Q 53.15 301.7 51.3 304.75 50.25 306.4 48.5 309.4 54.4 312.85 77.95 316.6 108.4 321.4 152.55 323.35 155.55 323.5 158.35 323.65 158.3 323.35 158.3 323 158.3 321.25 159.65 318.7 160.5 317.1 160.8 316 161 315.3 161 314.8 161 313.15 127.8 305.5 125.55 305 123.4 304.5
L 134.55 304.25
Q 133.95 304.15 133.35 304.1 125.7 303.2 124.55 303.2 122.25 303.2 118.8 302.55
L 118.6 303.35
Q 120 303.65 120.95 303.95 119.75 303.65 118.6 303.4
L 118.55 303.4
Q 117.4 303.1 116.25 302.85 114.05 302.35 111.95 301.85
L 111.9 301.85
Q 107 300.7 102.55 299.7
L 102.5 299.7
Q 62.65 290.5 60.4 289.95 60.2 291.15 60.2 288.9 60.2 288.6 63.3 285.85 66.6 282.85 67.25 281.5 65.25 280.9 65.95 280.2 66.65 279.4 66.4 279.25 66 279.05 63.8 278.85 63.75 278.85 63.7 278.85 62.3 278.75 60.35 278.65
L 60.3 278.65
Q 53.15 278.25 37.8 278 36.55 278 35.35 277.95
L 35.3 277.95
Q 14.8 277.65 -0.55 277.1
M 111.6 304.75
L 122.7 304.5
Q 125.15 305.65 111.6 304.75
M 122.7 304.5
L 111.6 304.75
Q 125.15 305.65 122.7 304.5
M -0.1 185.8
Q -0.3 186 -0.55 186.15
L -0.55 208.4
Q 0.45 207.4 1.55 206.4 20.6 189.1 43.6 187.1 66.55 185.05 75.95 193.05 76.75 193.75 77.65 194.6 81.6 186.75 85.85 179.2 85.35 179 84.8 178.9 81.7 178.1 78.55 177.95 75.65 177.85 74.2 176.2 73.75 175.8 73.05 175.85 71.65 176.2 70.3 176.2 69.95 176.2 69.55 176 67.5 175.35 66.5 174.3 66.1 173.85 65.45 174 64.35 174.3 63.3 174.45 61 174.8 58.95 173.4 55.65 174.05 54.15 175.35 53.6 175.8 52.9 175.8 49.85 175.55 47.2 177.25 46 178.1 44.65 178.75 43.25 179.55 41.85 180.6 39.75 182.4 38.75 180.8 38.4 180.1 37.65 179.85 35.9 179.55 34.2 179.1 33.85 179.1 33.45 179.05 31.55 178.75 30.55 178 30 177.65 29.35 177.4 28.65 177.2 27.9 176.9 25.05 176 24.85 179.5 24.85 180.1 24.5 180.5 22.7 183.7 20.35 181.25 19.4 180.3 17.5 180.3 16.25 180.35 15.3 179.85 14.1 179.1 13.1 180.1 12.7 180.5 12.05 180.3 10.55 179.85 10.1 181.2 9.9 182 9.25 182.5 8.85 182.95 8.45 183.2 6 184.65 2.25 184.45 0.95 184.4 -0.1 185.8
M -541.9 329.45
L -553 329.7
Q -539.45 330.6 -541.9 329.45
M -464.1 227.95
L -448.55 229.15 -452.1 197.9 -461.35 199 -464.1 227.95
M -469.1 199.85
L -479.45 201 -488.85 226.55 -466.95 228 -469.1 199.85
M -115.2 306.4
L -115.2 304.7
Q -123.05 303.3 -137.75 300.95
L -141.35 300.95 -141.95 300.95 -141.95 301.6 -141.95 302.3
Q -124.45 304.4 -115.2 309.6
L -115.2 307.65
Q -115.35 307.55 -115.5 307.5 -116.6 306.95 -117.2 306.45
L -115.85 306.35
Q -115.55 306.35 -115.2 306.4
M -295.25 367.3
Q -294.8 367.3 -294.15 367.25 -288.45 366.7 -267.75 361.35 -256.95 358.6 -241.85 354.55 -240.1 354.1 -238.25 353.6 -230.9 351.8 -212.75 347.55 -209.75 346.85 -206.5 346.1 -206.45 346.05 -206.4 346.05 -206.1 345.95 -205.8 345.9 -185.85 341 -183.2 339.2 -184.6 337.1 -185 335.9 -182.3 335.75 -180.35 334.35 -175.5 333.15 -158.25 333.05 -155.75 333 -152.95 333 -152.5 333 -152 333 -149.3 332.95 -146.45 332.7 -141.95 332.25 -137.2 331.2 -130.3 329.7 -122.9 326.9 -119.1 325.5 -115.2 323.9
L -115.2 311.55
Q -119.35 312.75 -131.15 316.15 -141.15 319.05 -149.9 319.05 -174.25 319.05 -181.3 321.1 -185.2 322.45 -188.25 323.25 -193.7 324.75 -202.9 325.9 -202.9 326.9 -202 329.15 -201.1 331.4 -201.1 332.55 -201.1 335.15 -204.25 336.7 -205.7 337.4 -208.05 338.05 -208.25 338.05 -208.35 338.1 -211 338.8 -214.65 339.35 -239.65 342.2 -262.55 344.9 -265.25 345.25 -270.6 347.3 -279.2 350.6 -281.75 351.4 -298.8 357.05 -318.65 357.05 -319.25 357.05 -319.7 356.8 -320.2 356.55 -320.6 356.05 -321.8 354.45 -322.65 353.85 -326.25 351.35 -336.8 350.95 -336.9 350.95 -336.95 350.95 -339.55 350.85 -342.5 350.9 -345.3 349.65 -350.45 348.35 -360.7 345.8 -378.4 345.8 -393.65 345.8 -424.25 351.05 -454.8 356.3 -456.15 356.3 -456.95 356.05 -457.75 355.8 -470.6 351.9 -477.65 349.6
L -477.7 349.6
Q -482.6 348 -484.7 347.15 -494.8 343.45 -497.85 341.95 -499.45 341.2 -500.5 340.3 -501.45 339.5 -501.95 338.6 -502 338.55 -502.05 338.45 -502.6 337.4 -502.6 336.25 -502.6 335.15 -501.7 333.15 -500.8 331.2 -500.8 330.05 -500.8 328.7 -500.85 328.65 -500.9 328.75 -501.05 328.4
L -504.75 328.15
Q -510.6 328.5 -515.8 328.6 -513.45 328.15 -510.8 327.95
L -510.8 326.6
Q -514.65 327.05 -520.65 328.05 -525.35 328.85 -526.45 328.85 -526.85 328.85 -527.45 328.8 -529.3 328.55 -533.1 327.6 -538.2 326.35 -540.05 326.35 -545.2 326.35 -547.85 325.55 -548.75 325.25 -549.35 324.9 -552.65 322.95 -560.6 321.5 -560.8 321.4 -561 321.35 -561.1 321.3 -561.15 321.3 -564.6 320.2 -567.5 319.5 -573.75 318.05 -582.1 311.8 -591.5 304.8 -593.15 304.1 -597 303.95 -600.9 303.75 -602.6 303.65 -604.3 303.55 -615.1 302.95 -626.7 302.05 -627.95 301.95 -629.25 301.85 -651.1 300.1 -665.15 297.7
L -665.15 302.05
Q -649.8 302.6 -629.3 302.9
L -629.25 302.9
Q -628.05 302.95 -626.8 302.95 -611.45 303.2 -604.3 303.6
L -604.25 303.6
Q -602.3 303.7 -600.9 303.8 -600.85 303.8 -600.8 303.8 -598.6 304 -598.2 304.2 -597.95 304.35 -598.65 305.15 -599.35 305.85 -597.35 306.45 -598 307.8 -601.3 310.8 -604.4 313.55 -604.4 313.85 -604.4 316.1 -604.2 314.9 -601.95 315.45 -562.1 324.65
L -562.05 324.65
Q -557.6 325.65 -552.7 326.8
L -552.65 326.8
Q -550.55 327.3 -548.35 327.8 -547.2 328.05 -546.05 328.35
L -546 328.35
Q -544.85 328.6 -543.65 328.9 -544.6 328.6 -546 328.3
L -545.8 327.5
Q -542.35 328.15 -540.05 328.15 -538.9 328.15 -531.25 329.05 -530.65 329.1 -530.05 329.2
L -541.2 329.45
Q -539.05 329.95 -536.8 330.45 -503.6 338.1 -503.6 339.75 -503.6 340.25 -503.8 340.95 -504.1 342.05 -504.95 343.65 -506.3 346.2 -506.3 347.95 -506.3 348.3 -506.25 348.6 -506.25 349.4 -506.05 349.7 -505.85 350.1 -505.85 350.2 -505.35 350.2 -504.85 350.2 -490.4 350 -480.65 352.6 -479.75 352.85 -478.8 353.15 -476.1 354 -473.35 355.25 -470 356.75 -466.7 358.8 -458 364.2 -455.7 365.2 -454.5 365.7 -453.2 366.15 -452.05 366.5 -450.8 366.8 -450.45 366.9 -450.1 367 -445.25 368.1 -439.4 368.1 -436.85 368.1 -416.3 364.9 -412.05 364.2 -407 363.4 -371.35 358.65 -337.1 358.65 -334.8 358.65 -332.5 360 -328.15 362.55 -327.2 363 -324.35 364.25 -320.45 365.15 -311 367.3 -295.25 367.3
M -146.45 331.8
Q -149.35 332.1 -152.05 332.1 -154.85 332.1 -157.35 332.15 -155.4 330.4 -152.95 330.4 -145.05 330.4 -140.5 330.8 -143.6 331.45 -146.45 331.8
M -504 348.75
Q -504.4 348.85 -504.75 348.95 -504.8 348.85 -504.9 349.25 -504.95 349.3 -504.95 348.7 -504.5 348.7 -504 348.75
M -450.75 366.55
Q -451.2 366.4 -451.8 366.2 -450.2 366.2 -448.4 366.2 -443.75 366.2 -438.4 366.05 -444.85 366.65 -449.95 366.65 -450.3 366.65 -450.75 366.55 Z"/>

<path fill="#99CC99" stroke="none" d="
M -453.2 366.15
Q -454.5 365.7 -455.7 365.2 -458 364.2 -466.7 358.8 -470 356.75 -473.35 355.25 -471.6 356.65 -470.95 358.45 -470.55 359.45 -469.95 361.35 -469.2 362.95 -467.55 363.85 -464 365.8 -453.2 366.15
M -604.25 303.6
L -604.3 303.6
Q -611.45 303.2 -626.8 302.95 -628.05 302.95 -629.25 302.9
L -629.3 302.9
Q -649.8 302.6 -665.15 302.05
L -665.15 309.75
Q -662.3 310 -659.1 310.4 -646.35 312 -640.85 313.3 -634.45 315.35 -610.4 323.55
L -609.35 324.8
Q -611.45 326.65 -613.3 329.7 -614.35 331.35 -616.1 334.35 -610.2 337.8 -586.65 341.55 -556.2 346.35 -512.05 348.3 -509.05 348.45 -506.25 348.6 -506.3 348.3 -506.3 347.95 -506.3 346.2 -504.95 343.65 -504.1 342.05 -503.8 340.95 -503.6 340.25 -503.6 339.75 -503.6 338.1 -536.8 330.45 -539.05 329.95 -541.2 329.45
L -530.05 329.2
Q -530.65 329.1 -531.25 329.05 -538.9 328.15 -540.05 328.15 -542.35 328.15 -545.8 327.5
L -546 328.3
Q -544.6 328.6 -543.65 328.9 -544.85 328.6 -546 328.35
L -546.05 328.35
Q -547.2 328.05 -548.35 327.8 -550.55 327.3 -552.65 326.8
L -552.7 326.8
Q -557.6 325.65 -562.05 324.65
L -562.1 324.65
Q -601.95 315.45 -604.2 314.9 -604.4 316.1 -604.4 313.85 -604.4 313.55 -601.3 310.8 -598 307.8 -597.35 306.45 -599.35 305.85 -598.65 305.15 -597.95 304.35 -598.2 304.2 -598.6 304 -600.8 303.8 -600.85 303.8 -600.9 303.8 -602.3 303.7 -604.25 303.6
M -553 329.7
L -541.9 329.45
Q -539.45 330.6 -553 329.7
M -115.2 332.35
L -115.2 323.9
Q -119.1 325.5 -122.9 326.9 -130.3 329.7 -137.2 331.2 -136.2 331.4 -135.55 331.6 -134.65 331.85 -133.55 332.4 -132.35 332.75 -129.8 332.75 -126.2 332.75 -122.75 332.65 -118.85 332.55 -115.2 332.35
M -115.2 307.65
L -115.2 306.4
Q -115.55 306.35 -115.85 306.35
L -117.2 306.45
Q -116.6 306.95 -115.5 307.5 -115.35 307.55 -115.2 307.65
M -115.2 288.2
Q -122.6 287.35 -130.05 286.9 -136.2 295.3 -141.35 300.95
L -137.75 300.95
Q -123.05 303.3 -115.2 304.7
L -115.2 288.2
M -171.65 368.5
Q -209.3 371.05 -236.1 375.4 -254.6 378.45 -274 381.3 -312.5 386.9 -324.5 386.9 -347.85 386.9 -351.35 383.35 -352.5 382.2 -351.55 380.55 -350.2 379 -350.05 378.55 -350.05 378.25 -351.5 377.5 -353.2 376.55 -354.65 376.55 -356.1 376.55 -401 380.9 -445.85 385.2 -447.35 385.2
L -505.4 384.05
Q -506 384.05 -507.5 383.5 -508.85 383 -509.25 382.7 -510 382.2 -510.7 381.35 -511.55 380.3 -511.6 379.45 -511.35 378.55 -511.15 377.75 -511.2 377.75 -511.2 377.7 -514.8 373.65 -518.15 371 -522 369.6 -528.25 367.3 -540.45 362.75 -543.9 362 -549.6 360.8 -562.3 357.8 -573.65 355.05 -583.5 353.15 -596.9 350.5 -624.6 347.65 -632.4 346.85 -635.3 345.95 -638.95 344.8 -638.95 342.45 -638.95 341.35 -638.05 339.85 -637.15 338.4 -637.15 337.25 -637.15 334.75 -643 331.5 -647 329.3 -655.95 325.7 -657.4 325.1 -664.15 318.9 -664.65 318.45 -665.15 318
L -665.15 420.95 -115.2 420.95 -115.2 336.9
Q -129.1 338.9 -131.9 339.4
L -131.9 344.15 -132.6 345.15 -132.6 347.9
Q -131.95 347.85 -131.2 347.85 -135.8 349.25 -140.4 350.65 -154.75 355.05 -154.75 355.25 -154.75 356.4 -153.85 358.95 -152.95 361.5 -152.95 362.6 -152.95 365.6 -157.35 366.8 -160.8 367.75 -171.65 368.5
M -185 335.9
Q -184.6 337.1 -183.2 339.2 -185.85 341 -205.8 345.9 -206.1 345.95 -206.4 346.05 -206.45 346.05 -206.5 346.1 -209.75 346.85 -212.75 347.55 -230.9 351.8 -238.25 353.6 -240.1 354.1 -241.85 354.55 -234 353.5 -222.35 352 -204.3 349.8 -186.35 346.85 -168.15 343.8 -165.55 342.55 -163.2 341.4 -159.9 335.45 -159.15 334.05 -158.25 333.05 -175.5 333.15 -180.35 334.35 -182.3 335.75 -185 335.9
M -511 376.85
L -511 376.9
Q -510.9 376.45 -510.85 376.05
L -511 376.85
M -294.15 367.25
Q -294.8 367.3 -295.25 367.3 -311 367.3 -320.45 365.15 -324.35 364.25 -327.2 363 -328.15 362.55 -332.5 360 -334.8 358.65 -337.1 358.65 -371.35 358.65 -407 363.4 -412.05 364.2 -416.3 364.9 -405.35 364.1 -392.45 362.9 -357.35 359.55 -349.25 359.55 -336.9 359.55 -327.5 365.2 -325.15 366.6 -321.15 369.05 -317.75 370.8 -314.5 370.8 -308.5 370.8 -294.15 367.25
M -303.9 294.25
L -304.25 294.45 -304.95 294.55
Q -302.9 294.85 -300.45 295.25 -300.35 295.3 -300.2 295.3 -289.5 297 -272.25 297.65 -289.65 297.4 -300.45 297.5 -310.5 297.55 -314.95 297.95 -316.3 298 -317.6 298.15 -326.2 298.6 -333.95 297.3 -342.95 295.8 -347.9 295.8 -350.45 295.8 -352.65 296.05 -356.4 296.35 -359 297.3 -363.2 298.8 -368.55 298.8 -369.85 298.8 -398.25 295.2 -402.15 299.8 -405.55 303.05 -405.8 303 -406.05 303 -406.15 303 -410 304.45 -413.9 305.85 -416.45 305.85 -423.75 305.85 -429.7 305 -435.65 304.15 -450.25 304.15 -453.8 304.15 -467.2 302.25 -480.5 300.35 -485 300.35 -488.75 300.35 -491.85 301.7 -492.7 302.05 -493.5 302.3 -497.25 298.4 -500.5 293.3 -510.1 294.8 -514.2 294.8 -522 294.8 -546.15 291.85 -570.3 288.9 -575.1 288.9 -575.75 288.9 -579.6 289.4 -583.5 289.85 -584.1 289.85 -585.7 289.85 -605.55 287.4 -643.35 290.05 -665.15 290.7
L -665.15 297.7
Q -651.1 300.1 -629.25 301.85 -627.95 301.95 -626.7 302.05 -615.1 302.95 -604.3 303.55 -602.6 303.65 -600.9 303.75 -597 303.95 -593.15 304.1 -591.5 304.8 -582.1 311.8 -573.75 318.05 -567.5 319.5 -564.6 320.2 -561.15 321.3 -561.1 321.3 -561 321.35 -560.8 321.4 -560.6 321.5 -552.65 322.95 -549.35 324.9 -548.75 325.25 -547.85 325.55 -545.2 326.35 -540.05 326.35 -538.2 326.35 -533.1 327.6 -529.3 328.55 -527.45 328.8 -526.85 328.85 -526.45 328.85 -525.35 328.85 -520.65 328.05 -514.65 327.05 -510.8 326.6
L -510.8 327.95
Q -513.45 328.15 -515.8 328.6 -510.6 328.5 -504.75 328.15
L -501.05 328.4
Q -500.9 328.75 -500.85 328.65 -500.8 328.7 -500.8 330.05 -500.8 331.2 -501.7 333.15 -502.6 335.15 -502.6 336.25 -502.6 337.4 -502.05 338.45 -502 338.55 -501.95 338.6 -501.45 339.5 -500.5 340.3 -499.45 341.2 -497.85 341.95 -494.8 343.45 -484.7 347.15 -482.6 348 -477.7 349.6
L -477.65 349.6
Q -470.6 351.9 -457.75 355.8 -456.95 356.05 -456.15 356.3 -454.8 356.3 -424.25 351.05 -393.65 345.8 -378.4 345.8 -360.7 345.8 -350.45 348.35 -345.3 349.65 -342.5 350.9 -339.55 350.85 -336.95 350.95 -336.9 350.95 -336.8 350.95 -326.25 351.35 -322.65 353.85 -321.8 354.45 -320.6 356.05 -320.2 356.55 -319.7 356.8 -319.25 357.05 -318.65 357.05 -298.8 357.05 -281.75 351.4 -279.2 350.6 -270.6 347.3 -265.25 345.25 -262.55 344.9 -239.65 342.2 -214.65 339.35 -211 338.8 -208.35 338.1 -208.25 338.05 -208.05 338.05 -205.7 337.4 -204.25 336.7 -201.1 335.15 -201.1 332.55 -201.1 331.4 -202 329.15 -202.9 326.9 -202.9 325.9 -193.7 324.75 -188.25 323.25 -185.2 322.45 -181.3 321.1 -174.25 319.05 -149.9 319.05 -141.15 319.05 -131.15 316.15 -119.35 312.75 -115.2 311.55
L -115.2 309.6
Q -124.45 304.4 -141.95 302.3
L -141.95 301.6
Q -143.15 302.85 -144.3 304.05 -147.65 303.2 -152.35 301.95 -166.95 300 -189.05 305.3 -211.2 310.6 -205.8 307.55 -200.35 304.45 -223.25 300.5 -232.3 298.9 -237.75 299.25 -242.3 293.05 -245.95 284.75 -252.25 285.25 -256.55 287.8
L -243.6 298.35 -256 298.8 -264.45 291.4
Q -265.75 291.65 -267.25 291.75 -268.35 291.8 -269.5 291.8 -270.6 291.8 -271.85 291.75 -276.15 291.5 -282.15 290.5 -289.9 289.2 -293.7 289.2 -295.6 289.2 -302.1 290.5 -302.6 290.6 -303.1 290.7
L -302.9 294.25 -303.9 294.25
M -272.55 332.05
Q -275.7 331.5 -276.3 331.5 -278.2 331.5 -287.45 334.2 -296.7 336.9 -305 336.9 -307 336.9 -316.2 335.55 -326.75 334.05 -331.8 333.65 -336.15 333.25 -344.3 333.7 -351.8 334.2 -352.5 334.2 -355.9 334.2 -358.9 333.85 -361.85 333.45 -364.4 332.75 -365.9 332.3 -372.7 329.55 -374.9 328.65 -377.35 327.95 -383.05 321.65 -388 309.35
L -388 309.3 -387.65 308.65
Q -387.85 308.55 -388 308.5 -388.05 308.45 -388.1 308.4 -388.05 308.4 -388 308.4 -373.95 308.75 -357.25 310 -357.15 310 -357.1 310 -344.5 310.95 -330.3 312.45 -326.75 312.8 -323 313.25 -322.8 313.25 -322.6 313.25 -322.55 313.25 -322.45 313.25 -309.95 314.65 -296.3 316.45
L -296.25 316.45
Q -279.65 318.6 -261.3 321.35
L -261.4 321.75
Q -267 327.6 -272.55 332.05
M -317.95 291.8
Q -317.05 291.7 -316.15 291.5 -320.6 291.05 -327.15 290 -322.2 292.2 -317.95 291.8
M -315.1 291.6
Q -315.65 292.15 -316.05 292.55 -315.85 292.75 -307.65 294.1
L -307.85 291.55
Q -309.95 291.8 -311.15 291.8 -312.8 291.8 -315.1 291.6 Z"/>

<path fill="#CC9900" stroke="none" d="
M -426.7 256.3
Q -422.75 257.8 -420.6 257.8
L -426.7 256.3
M -419.6 257.75
L -420.15 257.15 -420.6 257.8
Q -420.1 257.8 -419.6 257.75
M -506.15 281.05
Q -498.85 283.35 -491.5 285.15
L -475.3 285.6 -477.4 288
Q -469 289.4 -460.55 290.1 -460.35 290.1 -460.1 290.15
L -456.05 287.3 -442.15 287.3 -439.2 290.7
Q -429.55 290.5 -419.85 289.35 -419.5 289.3 -419.15 289.25
L -420.95 287.15 -406.35 287.25
Q -398.4 285.75 -390.4 283.65 -432.7 281.55 -474.35 281.15 -490.3 280.95 -506.15 281.05
M -453.45 178.65
Q -457.15 177.55 -460.85 176.55 -474.7 172.9 -488.5 170.6 -510.25 196.5 -520.7 229.35 -522.95 236.2 -524.65 243.35 -519.05 243.65 -504.05 247.75 -502.3 248.2 -500.45 248.75
L -500.2 247.95
Q -501.3 247.3 -503.45 245.6 -505.8 243.8 -506.6 243 -502.9 241.3 -499.45 244.65 -496 248 -496.35 245.85 -496.75 243.65 -493.35 247.2 -493.05 247.55 -492.65 247.85 -485.15 254.3 -473.1 254.3 -472.85 254.3 -470.4 253.65 -468 253.05 -466.85 252.85 -467.35 252.5 -468 252.05 -471.85 249.45 -472.6 247.95 -471.55 247 -466.65 246.7 -461.7 246.45 -459.25 250.1 -456.8 253.8 -449.9 253.1 -443.1 252.4 -438.85 252.4 -437 252.4 -434.1 251.7 -431.2 250.95 -429.7 250.95 -428.8 250.95 -424.65 253.35 -423.55 254 -422.65 254.55
L -424.6 252.55 -419.55 252.25
Q -430.45 217.8 -424.05 188.7 -431.45 185.75 -438.75 183.3 -446.15 180.75 -453.45 178.65
M -478 197.3
L -478 197.25 -452.45 194.5 -452.1 197.9 -448.55 229.15 -444.35 229.55 -446.1 233.55 -492.9 230.2 -493.45 226.3 -488.85 226.55 -479.45 201 -478 197.3
M -276.3 331.5
Q -275.7 331.5 -272.55 332.05 -267 327.6 -261.4 321.75 -278.35 323.55 -293.55 324.1 -293.6 324.1 -293.65 324.1 -297.45 324.2 -301.1 324.25 -303.15 324.3 -305.65 324.3 -314.95 324.35 -323.8 323.85 -324.5 323.8 -325.15 323.75 -325.2 323.75 -325.25 323.75 -325.75 323.75 -326.25 323.7 -326.3 323.7 -326.4 323.7 -332.7 323.25 -338.55 322.55
L -338.6 322.55
Q -340.3 322.35 -341.95 322.15 -342.1 322.15 -342.25 322.1 -351 320.9 -358.85 319.05 -366.1 317.4 -372.55 315.15 -380.75 312.3 -387.65 308.65
L -388 309.3 -388 309.35
Q -383.05 321.65 -377.35 327.95 -374.9 328.65 -372.7 329.55 -365.9 332.3 -364.4 332.75 -361.85 333.45 -358.9 333.85 -355.9 334.2 -352.5 334.2 -351.8 334.2 -344.3 333.7 -336.15 333.25 -331.8 333.65 -326.75 334.05 -316.2 335.55 -307 336.9 -305 336.9 -296.7 336.9 -287.45 334.2 -278.2 331.5 -276.3 331.5
M -464.9 254.6
Q -465.05 254.85 -464.75 255.4 -464.6 255.35 -464.4 255.3 -464.55 254.95 -464.9 254.6
M -241 284.7
Q -236.2 286.05 -231.4 287.25
L -215.2 287.7 -217.3 290.1
Q -208.9 291.5 -200.45 292.2 -200.25 292.2 -200 292.25
L -195.95 289.4 -182.05 289.4 -179.1 292.8
Q -169.1 292.6 -159.05 291.35
L -160.85 289.25 -146.25 289.35
Q -140.15 288.2 -133.95 286.7 -132.15 286.25 -130.3 285.75 -188.8 282.85 -246.05 283.15 -243.5 283.95 -241 284.7 Z"/>

<path fill="#FFCC00" stroke="none" d="
M -420.95 287.15
L -419.15 289.25
Q -412.8 288.45 -406.35 287.25
L -420.95 287.15
M -456.05 287.3
L -460.1 290.15
Q -449.7 290.95 -439.2 290.7
L -442.15 287.3 -456.05 287.3
M -477.4 288
L -475.3 285.6 -491.5 285.15
Q -484.5 286.8 -477.4 288
M -159.05 291.35
Q -152.7 290.55 -146.25 289.35
L -160.85 289.25 -159.05 291.35
M -195.95 289.4
L -200 292.25
Q -189.6 293.05 -179.1 292.8
L -182.05 289.4 -195.95 289.4
M -217.3 290.1
L -215.2 287.7 -231.4 287.25
Q -224.4 288.9 -217.3 290.1 Z"/>

<path fill="#99CCCC" stroke="none" d="
M -412.1 250.85
Q -412.85 251.05 -413.65 251.3 -414.85 251.65 -416 252.05
L -407.35 251.5
Q -409.2 250.35 -412.1 250.85
M -388.7 250.15
Q -389.2 249.95 -389.6 249.7 -391.1 248.85 -391.65 250.1 -391.8 250.55 -392.55 250.55 -395.1 250.55 -397.25 248.9 -397.85 248.4 -398.5 248.75 -398.9 248.9 -399.15 249.55 -399.4 250.4 -399.75 251.05
L -388.4 250.35
Q -388.55 250.25 -388.7 250.15
M -584.5 222.15
Q -584.35 222.3 -584.2 222.45 -584.05 222.65 -583.85 222.85 -583.9 222.65 -583.9 222.35
L -584.5 222.15
M -578.75 204.15
Q -579.25 203.95 -579.8 203.85 -582.9 203.05 -586.05 202.9 -588.95 202.8 -590.4 201.15 -590.85 200.75 -591.55 200.8 -592.95 201.15 -594.3 201.15 -594.65 201.15 -595.05 200.95 -597.1 200.3 -598.1 199.25 -598.5 198.8 -599.15 198.95 -600.25 199.25 -601.3 199.4 -603.6 199.75 -605.65 198.35 -608.95 199 -610.45 200.3 -611 200.75 -611.7 200.75 -614.75 200.5 -617.4 202.2 -618.6 203.05 -619.95 203.7 -621.35 204.5 -622.75 205.55 -624.85 207.35 -625.85 205.75 -626.2 205.05 -626.95 204.8 -628.7 204.5 -630.4 204.05 -630.75 204.05 -631.15 204 -633.05 203.7 -634.05 202.95 -634.6 202.6 -635.25 202.35 -635.95 202.15 -636.7 201.85 -639.55 200.95 -639.75 204.45 -639.75 205.05 -640.1 205.45 -641.9 208.65 -644.25 206.2 -645.2 205.25 -647.1 205.25 -648.35 205.3 -649.3 204.8 -650.5 204.05 -651.5 205.05 -651.9 205.45 -652.55 205.25 -654.05 204.8 -654.5 206.15 -654.7 206.95 -655.35 207.45 -655.75 207.9 -656.15 208.15 -658.6 209.6 -662.35 209.4 -663.65 209.35 -664.7 210.75 -664.9 210.95 -665.15 211.1
L -665.15 233.35
Q -664.15 232.35 -663.05 231.35 -644 214.05 -621 212.05 -598.05 210 -588.65 218 -587.85 218.7 -586.95 219.55 -583 211.7 -578.75 204.15
M -524.9 243.35
Q -524.75 243.35 -524.65 243.35 -522.95 236.2 -520.7 229.35 -522.6 229.25 -524.35 228.75 -528.15 227.8 -530 230.1 -531.2 231.7 -533.9 230.9 -534.3 230.8 -534.7 230.4 -537.35 227.65 -540.2 225.55 -541.7 224.45 -543.05 222.75 -544.15 221.35 -546.4 222 -546.75 222.2 -547.2 222.3 -548.8 222.65 -550.15 221.2 -550.6 220.75 -551.3 220.6 -551.9 220.5 -552.45 220.1 -552.55 222.8 -552.55 225.5 -552.05 225.7 -551.55 225.95 -537.5 232.7 -552.2 234.35 -552.2 234.4 -552.2 234.45
L -552.45 234.35
Q -553.25 234.45 -554.15 234.5 -527.35 241.5 -539.45 244.85 -539.25 244.8 -539.05 244.75 -531.65 243 -524.9 243.35
M -314.5 370.8
Q -317.75 370.8 -321.15 369.05 -325.15 366.6 -327.5 365.2 -336.9 359.55 -349.25 359.55 -357.35 359.55 -392.45 362.9 -405.35 364.1 -416.3 364.9 -436.85 368.1 -439.4 368.1 -445.25 368.1 -450.1 367 -450.45 366.9 -450.8 366.8 -452.05 366.5 -453.2 366.15 -464 365.8 -467.55 363.85 -469.2 362.95 -469.95 361.35 -470.55 359.45 -470.95 358.45 -471.6 356.65 -473.35 355.25 -476.1 354 -478.8 353.15 -479.75 352.85 -480.65 352.6 -490.4 350 -504.85 350.2 -505.35 350.2 -505.85 350.2 -505.85 350.1 -506.05 349.7 -506.25 349.4 -506.25 348.6 -509.05 348.45 -512.05 348.3 -556.2 346.35 -586.65 341.55 -610.2 337.8 -616.1 334.35 -614.35 331.35 -613.3 329.7 -611.45 326.65 -609.35 324.8
L -610.4 323.55
Q -634.45 315.35 -640.85 313.3 -646.35 312 -659.1 310.4 -662.3 310 -665.15 309.75
L -665.15 318
Q -664.65 318.45 -664.15 318.9 -657.4 325.1 -655.95 325.7 -647 329.3 -643 331.5 -637.15 334.75 -637.15 337.25 -637.15 338.4 -638.05 339.85 -638.95 341.35 -638.95 342.45 -638.95 344.8 -635.3 345.95 -632.4 346.85 -624.6 347.65 -596.9 350.5 -583.5 353.15 -573.65 355.05 -562.3 357.8 -549.6 360.8 -543.9 362 -540.45 362.75 -528.25 367.3 -522 369.6 -518.15 371 -514.8 373.65 -511.2 377.7 -511.2 377.75 -511.15 377.75 -511.35 378.55 -511.6 379.45 -511.55 380.3 -510.7 381.35 -510 382.2 -509.25 382.7 -508.85 383 -507.5 383.5 -506 384.05 -505.4 384.05
L -447.35 385.2
Q -445.85 385.2 -401 380.9 -356.1 376.55 -354.65 376.55 -353.2 376.55 -351.5 377.5 -350.05 378.25 -350.05 378.55 -350.2 379 -351.55 380.55 -352.5 382.2 -351.35 383.35 -347.85 386.9 -324.5 386.9 -312.5 386.9 -274 381.3 -254.6 378.45 -236.1 375.4 -209.3 371.05 -171.65 368.5 -160.8 367.75 -157.35 366.8 -152.95 365.6 -152.95 362.6 -152.95 361.5 -153.85 358.95 -154.75 356.4 -154.75 355.25 -154.75 355.05 -140.4 350.65 -135.8 349.25 -131.2 347.85 -131.95 347.85 -132.6 347.9
L -132.6 345.15 -131.9 344.15 -131.9 339.4
Q -129.1 338.9 -115.2 336.9
L -115.2 332.35
Q -118.85 332.55 -122.75 332.65 -126.2 332.75 -129.8 332.75 -132.35 332.75 -133.55 332.4 -134.65 331.85 -135.55 331.6 -136.2 331.4 -137.2 331.2 -141.95 332.25 -146.45 332.7 -149.3 332.95 -152 333 -152.5 333 -152.95 333 -155.75 333 -158.25 333.05 -159.15 334.05 -159.9 335.45 -163.2 341.4 -165.55 342.55 -168.15 343.8 -186.35 346.85 -204.3 349.8 -222.35 352 -234 353.5 -241.85 354.55 -256.95 358.6 -267.75 361.35 -288.45 366.7 -294.15 367.25 -308.5 370.8 -314.5 370.8
M -511 376.9
L -511 376.85 -510.85 376.05
Q -510.9 376.45 -511 376.9
M -451.8 366.2
Q -451.2 366.4 -450.75 366.55 -450.3 366.65 -449.95 366.65 -444.85 366.65 -438.4 366.05 -443.75 366.2 -448.4 366.2 -450.2 366.2 -451.8 366.2
M -504.75 348.95
Q -504.4 348.85 -504 348.75 -504.5 348.7 -504.95 348.7 -504.95 349.3 -504.9 349.25 -504.8 348.85 -504.75 348.95
M -152.05 332.1
Q -149.35 332.1 -146.45 331.8 -143.6 331.45 -140.5 330.8 -145.05 330.4 -152.95 330.4 -155.4 330.4 -157.35 332.15 -154.85 332.1 -152.05 332.1
M -304.9 256.15
Q -305.05 256.15 -305.15 256.15
L -303.1 290.7
Q -302.6 290.6 -302.1 290.5 -295.6 289.2 -293.7 289.2 -289.9 289.2 -282.15 290.5 -276.15 291.5 -271.85 291.75 -270.05 291.55 -268.2 291.65 -267.75 291.7 -267.25 291.75 -265.75 291.65 -264.45 291.4
L -304.9 256.15
M -310.9 257.6
Q -312.4 257.25 -313.6 255.65 -315.8 257.3 -317.9 261.35 -318.15 261.85 -318.85 261.65 -320 261.35 -321.2 261.05 -325.5 260 -327.5 262.4 -327.9 262.9 -328.6 263.2 -330 263.75 -330.55 264.45 -330.95 265 -331.65 264.75 -333.25 264.3 -333.55 265.5 -335.5 264.3 -336 265.65 -336.15 266.05 -336.9 266.1 -341.7 266.4 -344 263.45 -344.45 262.9 -345.15 263.2 -346.6 263.75 -347.05 264.45 -347.45 265 -348.2 264.9 -349.6 264.9 -350.8 263.45 -351.2 262.9 -351.95 262.75 -354.05 262.15 -355.25 260.1 -356.2 258.4 -358.7 259.05 -359.5 259.3 -360.3 259.5 -364 260.4 -365 256.75 -365.15 256.15 -365.55 255.95 -365.8 255.8 -366.05 255.7
L -370.2 256.05
Q -371.2 256.85 -372.95 256.3
L -396.4 258.3
Q -395.35 259 -394.2 259.8 -390.55 262.4 -385.85 266.65
L -385.3 267.9
Q -384.55 267.55 -383.8 267.15 -379.9 265.15 -377.7 265.15 -370.65 265.15 -366.15 265.3 -361.6 265.5 -347.2 269.5 -332.85 273.45 -336.35 280.75 -337.45 282.95 -338.5 284.65 -335.35 285.65 -329.9 288.65 -328.5 289.4 -327.15 290 -320.6 291.05 -316.15 291.5 -315.3 291.3 -314.5 291 -314.8 291.3 -315.1 291.6 -312.8 291.8 -311.15 291.8 -309.95 291.8 -307.85 291.55
L -310.9 257.6
M -217.5 264.75
Q -218.85 267.05 -220.45 268.15 -221.05 268.55 -221.55 268.1 -223.15 266.6 -225.2 266.3 -225.9 266.15 -226.6 266.1 -232.15 265.65 -237.7 265.65 -238.35 265.65 -238.9 266.1 -240 266.85 -241.8 267.05 -242.55 267.15 -243.3 267.3 -245 267.6 -246.65 267.2 -249 266.7 -251.65 265.45 -252.25 264.9 -252.85 264.45 -257.55 260.6 -260.2 260.4 -260.65 260.3 -261 259.8 -262.1 258.3 -263.45 259.35 -263.95 259.8 -264.65 259.5 -265.1 259.3 -265.55 259.2 -269.25 258.75 -273 258.4 -273.75 258.25 -274.55 258.25 -276.55 257.95 -277.4 256.3 -277.5 256.15 -278.35 256.3 -280.15 256.7 -282 256.3 -282.8 256.15 -283.6 255.8 -285.05 255.15 -286.5 254.45 -287.3 254.15 -288.1 253.95 -290.6 253.5 -292.75 255.2 -293.35 255.65 -293.95 255.3 -295.4 254.2 -297.8 254.3
L -256.55 287.8
Q -252.25 285.25 -245.95 284.75 -246.25 284.05 -246.55 283.35
L -246.05 283.15
Q -188.8 282.85 -130.3 285.75 -129.95 285.65 -129.65 285.55 -129.3 285.5 -129 285.4 -129.55 286.15 -130.05 286.9 -122.6 287.35 -115.2 288.2
L -115.2 270.05
Q -118.3 270.85 -121.8 270.6 -122.85 270.45 -123.8 270.05 -124.95 269.5 -126.05 269 -128.55 267.65 -131.4 265.45 -132.2 264.7 -133.05 264.15 -133.6 263.75 -134.05 263.3 -135.55 261.6 -138.45 262.15 -139.5 262.3 -140.55 262.7 -143.05 263.5 -145.4 264.75 -146.1 265.2 -146.8 265.2 -154.1 265.65 -161.4 265.65 -162.45 265.65 -162.8 266.4 -163.35 267.3 -164.85 267 -166.55 266.6 -168.3 266.3 -169 266.15 -169.75 266.1 -173.15 265.65 -176.55 266.1 -177.3 266.15 -178.1 266.4 -179.95 266.85 -181.35 265.45 -182.9 263.75 -184.9 263.3 -186.45 263 -188.4 263.15 -191.85 263.45 -195.35 263.75 -196.35 263.75 -197.4 263.3 -199.8 262.25 -203.7 262.3 -207.25 262.55 -210.6 261.75 -215.1 260.7 -217.5 264.75 Z"/>

<path fill="url(#Gradient_1)" stroke="none" d="
M -372.95 256.3
Q -371.2 256.85 -370.2 256.05
L -372.95 256.3
M -267.25 291.75
Q -267.75 291.7 -268.2 291.65 -270.05 291.55 -271.85 291.75 -270.6 291.8 -269.5 291.8 -268.35 291.8 -267.25 291.75
M -305.2 255.9
L -305.15 256.15
Q -305.05 256.15 -304.9 256.15
L -305.2 255.9
M -310.9 257.6
L -311.5 251 -366.05 255.7
Q -365.8 255.8 -365.55 255.95 -365.15 256.15 -365 256.75 -364 260.4 -360.3 259.5 -359.5 259.3 -358.7 259.05 -356.2 258.4 -355.25 260.1 -354.05 262.15 -351.95 262.75 -351.2 262.9 -350.8 263.45 -349.6 264.9 -348.2 264.9 -347.45 265 -347.05 264.45 -346.6 263.75 -345.15 263.2 -344.45 262.9 -344 263.45 -341.7 266.4 -336.9 266.1 -336.15 266.05 -336 265.65 -335.5 264.3 -333.55 265.5 -333.25 264.3 -331.65 264.75 -330.95 265 -330.55 264.45 -330 263.75 -328.6 263.2 -327.9 262.9 -327.5 262.4 -325.5 260 -321.2 261.05 -320 261.35 -318.85 261.65 -318.15 261.85 -317.9 261.35 -315.8 257.3 -313.6 255.65 -312.4 257.25 -310.9 257.6
M -220.45 268.15
Q -218.85 267.05 -217.5 264.75 -215.1 260.7 -210.6 261.75 -207.25 262.55 -203.7 262.3 -199.8 262.25 -197.4 263.3 -196.35 263.75 -195.35 263.75 -191.85 263.45 -188.4 263.15 -186.45 263 -184.9 263.3 -182.9 263.75 -181.35 265.45 -179.95 266.85 -178.1 266.4 -177.3 266.15 -176.55 266.1 -173.15 265.65 -169.75 266.1 -169 266.15 -168.3 266.3 -166.55 266.6 -164.85 267 -163.35 267.3 -162.8 266.4 -162.45 265.65 -161.4 265.65 -154.1 265.65 -146.8 265.2 -146.1 265.2 -145.4 264.75 -143.05 263.5 -140.55 262.7 -139.5 262.3 -138.45 262.15 -135.55 261.6 -134.05 263.3 -133.6 263.75 -133.05 264.15 -132.2 264.7 -131.4 265.45 -128.55 267.65 -126.05 269 -124.95 269.5 -123.8 270.05 -122.85 270.45 -121.8 270.6 -118.3 270.85 -115.2 270.05
L -115.2 18 -665.15 18 -665.15 211.1
Q -664.9 210.95 -664.7 210.75 -663.65 209.35 -662.35 209.4 -658.6 209.6 -656.15 208.15 -655.75 207.9 -655.35 207.45 -654.7 206.95 -654.5 206.15 -654.05 204.8 -652.55 205.25 -651.9 205.45 -651.5 205.05 -650.5 204.05 -649.3 204.8 -648.35 205.3 -647.1 205.25 -645.2 205.25 -644.25 206.2 -641.9 208.65 -640.1 205.45 -639.75 205.05 -639.75 204.45 -639.55 200.95 -636.7 201.85 -635.95 202.15 -635.25 202.35 -634.6 202.6 -634.05 202.95 -633.05 203.7 -631.15 204 -630.75 204.05 -630.4 204.05 -628.7 204.5 -626.95 204.8 -626.2 205.05 -625.85 205.75 -624.85 207.35 -622.75 205.55 -621.35 204.5 -619.95 203.7 -618.6 203.05 -617.4 202.2 -614.75 200.5 -611.7 200.75 -611 200.75 -610.45 200.3 -608.95 199 -605.65 198.35 -603.6 199.75 -601.3 199.4 -600.25 199.25 -599.15 198.95 -598.5 198.8 -598.1 199.25 -597.1 200.3 -595.05 200.95 -594.65 201.15 -594.3 201.15 -592.95 201.15 -591.55 200.8 -590.85 200.75 -590.4 201.15 -588.95 202.8 -586.05 202.9 -582.9 203.05 -579.8 203.85 -579.25 203.95 -578.75 204.15 -537.65 130.25 -476.65 85.95
L -476.65 85.9 -476.25 86.5
Q -550.05 151.25 -552.45 220.1 -551.9 220.5 -551.3 220.6 -550.6 220.75 -550.15 221.2 -548.8 222.65 -547.2 222.3 -546.75 222.2 -546.4 222 -544.15 221.35 -543.05 222.75 -541.7 224.45 -540.2 225.55 -537.35 227.65 -534.7 230.4 -534.3 230.8 -533.9 230.9 -531.2 231.7 -530 230.1 -528.15 227.8 -524.35 228.75 -522.6 229.25 -520.7 229.35 -510.25 196.5 -488.5 170.6 -489.6 170.4 -490.7 170.25 -497.85 169.1 -504.95 168.35 -490.5 158.85 -474.8 151.5
L -472.5 156.15 -474.7 151.4 -474.6 151.35
Q -471.5 149.9 -468.3 148.55 -468.25 148.5 -468.15 148.45 -456.75 143.45 -444.7 139.6
L -380.6 209
Q -402.45 197.2 -424.05 188.7 -430.45 217.8 -419.55 252.25
L -416 252.05
Q -414.85 251.65 -413.65 251.3 -412.85 251.05 -412.1 250.85 -409.2 250.35 -407.35 251.5
L -399.75 251.05
Q -399.4 250.4 -399.15 249.55 -398.9 248.9 -398.5 248.75 -397.85 248.4 -397.25 248.9 -395.1 250.55 -392.55 250.55 -391.8 250.55 -391.65 250.1 -391.1 248.85 -389.6 249.7 -389.2 249.95 -388.7 250.15 -388.55 250.25 -388.4 250.35
L -316.6 245.95 -318.2 244.55 -314.7 240.55 -312.25 242.55 -313.8 225.7 -307.45 224.75 -307.1 224.75 -305.85 245.3 -286.85 244.1 -285.95 248.8 -302.8 250.25 -297.8 254.3
Q -295.4 254.2 -293.95 255.3 -293.35 255.65 -292.75 255.2 -290.6 253.5 -288.1 253.95 -287.3 254.15 -286.5 254.45 -285.05 255.15 -283.6 255.8 -282.8 256.15 -282 256.3 -280.15 256.7 -278.35 256.3 -277.5 256.15 -277.4 256.3 -276.55 257.95 -274.55 258.25 -273.75 258.25 -273 258.4 -269.25 258.75 -265.55 259.2 -265.1 259.3 -264.65 259.5 -263.95 259.8 -263.45 259.35 -262.1 258.3 -261 259.8 -260.65 260.3 -260.2 260.4 -257.55 260.6 -252.85 264.45 -252.25 264.9 -251.65 265.45 -249 266.7 -246.65 267.2 -245 267.6 -243.3 267.3 -242.55 267.15 -241.8 267.05 -240 266.85 -238.9 266.1 -238.35 265.65 -237.7 265.65 -232.15 265.65 -226.6 266.1 -225.9 266.15 -225.2 266.3 -223.15 266.6 -221.55 268.1 -221.05 268.55 -220.45 268.15
M -478.7 81.5
L -478.8 82
Q -505.9 75.35 -510.35 100.25 -525.95 74.9 -543.95 99.45 -519.5 39.8 -478.7 81.5
M -414 49.9
L -414 50.4
Q -441.85 49.15 -441.35 74.45 -461.55 52.65 -474.45 80.2 -462.15 16.95 -414 49.9
M -427.85 133.1
L -428.3 133.25
Q -434.55 106.05 -458.8 113.35 -443.2 88.1 -473.2 83 -409 77.95 -427.85 133.1 Z"/>

<path fill="#996600" stroke="none" d="
M -491.5 285.15
Q -498.85 283.35 -506.15 281.05
L -506.65 281.25
Q -503.85 287.95 -500.5 293.3 -497.25 298.4 -493.5 302.3 -492.7 302.05 -491.85 301.7 -488.75 300.35 -485 300.35 -480.5 300.35 -467.2 302.25 -453.8 304.15 -450.25 304.15 -435.65 304.15 -429.7 305 -423.75 305.85 -416.45 305.85 -413.9 305.85 -410 304.45 -406.15 303 -406.05 303 -405.8 303 -405.55 303.05 -402.15 299.8 -398.25 295.2 -397.45 294.25 -396.6 293.2 -393.05 288.8 -389.1 283.3 -389.4 283.4 -389.75 283.45 -390.05 283.55 -390.4 283.65 -398.4 285.75 -406.35 287.25 -412.8 288.45 -419.15 289.25 -419.5 289.3 -419.85 289.35 -429.55 290.5 -439.2 290.7 -449.7 290.95 -460.1 290.15 -460.35 290.1 -460.55 290.1 -469 289.4 -477.4 288 -484.5 286.8 -491.5 285.15
M -488.85 226.55
L -493.45 226.3 -492.9 230.2 -446.1 233.55 -444.35 229.55 -448.55 229.15 -464.1 227.95 -466.95 228 -488.85 226.55
M -478 197.25
L -478 197.3 -479.45 201 -469.1 199.85 -461.35 199 -452.1 197.9 -452.45 194.5 -478 197.25
M -448.9 176.6
Q -448.8 176.6 -448.7 176.65
L -429.65 162.75 -432.9 159.2 -452.25 175.6
Q -450.55 176.05 -448.9 176.6
M -468.4 154.25
Q -470.5 155.15 -472.5 156.15
L -460 173.45
Q -457.95 173.95 -455.95 174.55
L -455.8 173.95 -468.4 154.25
M -444.55 146.35
L -445.35 145.4
Q -447.45 146.1 -449.45 146.8
L -449.35 147.15 -455.1 174.8
Q -454.9 174.85 -454.65 174.9
L -453.55 175.25 -452.45 175.5 -444.55 146.35
M -261.4 321.75
L -261.3 321.35
Q -279.65 318.6 -296.25 316.45
L -296.3 316.45
Q -309.95 314.65 -322.45 313.25 -322.55 313.25 -322.6 313.25 -322.8 313.25 -323 313.25 -326.75 312.8 -330.3 312.45 -344.5 310.95 -357.1 310 -357.15 310 -357.25 310 -373.95 308.75 -388 308.4 -388.05 308.4 -388.1 308.4 -388.05 308.45 -388 308.5 -387.85 308.55 -387.65 308.65 -380.75 312.3 -372.55 315.15
L -357.4 313.55 -349.3 314.2 -358.85 319.05
Q -351 320.9 -342.25 322.1 -342.1 322.15 -341.95 322.15 -340.3 322.35 -338.6 322.55
L -338.55 322.55 -339.3 322.35 -330.75 317.05 -323 317.45 -323 317.8 -326.25 323.7
Q -325.75 323.75 -325.25 323.75 -325.2 323.75 -325.15 323.75 -324.5 323.8 -323.8 323.85 -314.95 324.35 -305.65 324.3
L -303.4 319.55 -296.7 319.9 -293.65 324.1
Q -293.6 324.1 -293.55 324.1 -278.35 323.55 -261.4 321.75
M -231.4 287.25
Q -236.2 286.05 -241 284.7 -243.5 283.95 -246.05 283.15
L -246.55 283.35
Q -246.25 284.05 -245.95 284.75 -242.3 293.05 -237.75 299.25 -232.3 298.9 -223.25 300.5 -200.35 304.45 -205.8 307.55 -211.2 310.6 -189.05 305.3 -166.95 300 -152.35 301.95 -147.65 303.2 -144.3 304.05 -143.15 302.85 -141.95 301.6
L -141.95 300.95 -141.35 300.95
Q -136.2 295.3 -130.05 286.9 -129.55 286.15 -129 285.4 -129.3 285.5 -129.65 285.55 -129.95 285.65 -130.3 285.75 -132.15 286.25 -133.95 286.7 -140.15 288.2 -146.25 289.35 -152.7 290.55 -159.05 291.35 -169.1 292.6 -179.1 292.8 -189.6 293.05 -200 292.25 -200.25 292.2 -200.45 292.2 -208.9 291.5 -217.3 290.1 -224.4 288.9 -231.4 287.25 Z"/>

<path fill="#FFCC99" stroke="none" d="
M -552.2 234.45
Q -552.2 234.4 -552.2 234.35 -552.35 234.35 -552.45 234.35
L -552.2 234.45
M -476.25 86.5
L -476.65 85.95
Q -537.65 130.25 -578.75 204.15 -583 211.7 -586.95 219.55 -585.8 220.7 -584.5 222.15
L -583.9 222.35
Q -583.9 222.25 -583.9 222.15 -583.9 222.1 -583.9 222.05 -583.9 220.6 -580.4 218.9 -577.25 217.4 -572.9 217.6 -568.7 217.85 -552.55 225.5 -552.55 222.8 -552.45 220.1 -550.05 151.25 -476.25 86.5 Z"/>

<path fill="#FF9933" stroke="none" d="
M -437.75 180.1
L -437.65 180.15
Q -430.2 182.65 -422.9 185.4 -422.85 185.4 -422.8 185.45 -411.85 189.5 -401.2 194.25
L -429.65 162.75 -448.7 176.65
Q -443.2 178.35 -437.75 180.1
M -464.1 227.95
L -461.35 199 -469.1 199.85 -466.95 228 -464.1 227.95
M -460.05 173.45
Q -460.05 173.4 -460 173.45
L -472.5 156.15
Q -482.05 160.7 -490.05 166
L -490.1 166.35
Q -488.85 166.65 -487.55 166.85
L -487.55 166.9
Q -473.55 169.75 -460.05 173.45
M -453.55 175.25
Q -453 175.4 -452.45 175.55 -452.35 175.6 -452.25 175.6
L -432.9 159.2 -444.55 146.35 -452.45 175.5 -453.55 175.25
M -449.45 146.8
Q -449.5 146.8 -449.55 146.8 -458.35 149.85 -466.2 153.3 -466.9 153.6 -467.6 153.9
L -467.65 153.9
Q -468 154.05 -468.4 154.25
L -455.8 173.95 -455.95 174.55
Q -455.55 174.65 -455.1 174.8
L -449.35 147.15 -449.45 146.8
M -311.5 251
L -311.55 250.35 -316.6 245.95 -388.4 250.35 -399.75 251.05 -407.35 251.5 -416 252.05 -419.55 252.25 -424.6 252.55 -422.65 254.55
Q -420.65 255.75 -419.7 256.35
L -419.65 256.35 -420.15 257.15 -419.6 257.75
Q -419.15 257.7 -418.7 257.65 -416.55 257.35 -414.2 256.3 -410.9 254.8 -406.8 254.8 -402.05 254.8 -396.4 258.3
L -372.95 256.3 -370.2 256.05 -366.05 255.7 -311.5 251
M -286.85 244.1
L -305.85 245.3 -305.7 247.9 -302.8 250.25 -285.95 248.8 -286.85 244.1 Z"/>

<path fill="#FF6600" stroke="none" d="
M -445.35 145.4
L -444.55 146.35 -432.9 159.2 -429.65 162.75 -401.2 194.25
Q -411.85 189.5 -422.8 185.45 -422.85 185.4 -422.9 185.4 -430.2 182.65 -437.65 180.15
L -437.75 180.1
Q -443.2 178.35 -448.7 176.65 -448.8 176.6 -448.9 176.6 -450.55 176.05 -452.25 175.6 -452.35 175.6 -452.45 175.55 -453 175.4 -453.55 175.25
L -454.65 174.9
Q -454.9 174.85 -455.1 174.8 -455.55 174.65 -455.95 174.55 -457.95 173.95 -460 173.45 -460.05 173.4 -460.05 173.45 -473.55 169.75 -487.55 166.9
L -487.55 166.85
Q -488.85 166.65 -490.1 166.35
L -490.05 166
Q -482.05 160.7 -472.5 156.15
L -474.8 151.5
Q -490.5 158.85 -504.95 168.35 -497.85 169.1 -490.7 170.25 -489.6 170.4 -488.5 170.6 -474.7 172.9 -460.85 176.55 -457.15 177.55 -453.45 178.65 -446.15 180.75 -438.75 183.3 -431.45 185.75 -424.05 188.7 -402.45 197.2 -380.6 209
L -444.7 139.6
Q -456.75 143.45 -468.15 148.45 -468.25 148.5 -468.3 148.55 -471.5 149.9 -474.6 151.35
L -474.7 151.4 -472.5 156.15
Q -470.5 155.15 -468.4 154.25 -468 154.05 -467.65 153.9
L -467.6 153.9
Q -466.9 153.6 -466.2 153.3 -458.35 149.85 -449.55 146.8 -449.5 146.8 -449.45 146.8 -447.45 146.1 -445.35 145.4
M -311.55 250.35
L -311.5 251 -310.9 257.6 -307.85 291.55 -307.65 294.1
Q -306.4 294.3 -304.95 294.55
L -304.25 294.45 -303.9 294.25 -302.9 294.25 -303.1 290.7 -305.15 256.15 -305.2 255.9 -311.55 250.35
M -305.85 245.3
L -307.1 224.75 -307.45 224.75 -313.8 225.7 -312.25 242.55 -305.7 247.9 -305.85 245.3 Z"/>

<path fill="#FFFF99" stroke="none" d="
M -476.65 85.9
L -476.65 85.95 -476.25 86.5 -476.65 85.9 Z"/>

<path fill="#FF9900" stroke="none" d="
M -358.85 319.05
L -349.3 314.2 -357.4 313.55 -372.55 315.15
Q -366.1 317.4 -358.85 319.05
M -323 317.8
L -323 317.45 -330.75 317.05 -339.3 322.35 -338.55 322.55
Q -332.7 323.25 -326.4 323.7 -326.3 323.7 -326.25 323.7
L -323 317.8
M -296.7 319.9
L -303.4 319.55 -305.65 324.3
Q -303.15 324.3 -301.1 324.25 -297.45 324.2 -293.65 324.1
L -296.7 319.9 Z"/>

<path fill="#006666" stroke="none" d="
M -315.1 291.6
Q -314.8 291.3 -314.5 291 -315.3 291.3 -316.15 291.5 -317.05 291.7 -317.95 291.8 -322.2 292.2 -327.15 290 -328.5 289.4 -329.9 288.65 -335.35 285.65 -338.5 284.65 -337.45 282.95 -336.35 280.75 -332.85 273.45 -347.2 269.5 -361.6 265.5 -366.15 265.3 -370.65 265.15 -377.7 265.15 -379.9 265.15 -383.8 267.15 -384.55 267.55 -385.3 267.9
L -385.85 266.65
Q -390.55 262.4 -394.2 259.8 -395.35 259 -396.4 258.3 -402.05 254.8 -406.8 254.8 -410.9 254.8 -414.2 256.3 -416.55 257.35 -418.7 257.65 -419.15 257.7 -419.6 257.75 -420.1 257.8 -420.6 257.8 -422.75 257.8 -426.7 256.3
L -420.6 257.8 -420.15 257.15 -419.65 256.35 -419.7 256.35
Q -420.65 255.75 -422.65 254.55 -423.55 254 -424.65 253.35 -428.8 250.95 -429.7 250.95 -431.2 250.95 -434.1 251.7 -437 252.4 -438.85 252.4 -443.1 252.4 -449.9 253.1 -456.8 253.8 -459.25 250.1 -461.7 246.45 -466.65 246.7 -471.55 247 -472.6 247.95 -471.85 249.45 -468 252.05 -467.35 252.5 -466.85 252.85 -468 253.05 -470.4 253.65 -472.85 254.3 -473.1 254.3 -485.15 254.3 -492.65 247.85 -493.05 247.55 -493.35 247.2 -496.75 243.65 -496.35 245.85 -496 248 -499.45 244.65 -502.9 241.3 -506.6 243 -505.8 243.8 -503.45 245.6 -501.3 247.3 -500.2 247.95
L -500.45 248.75
Q -502.3 248.2 -504.05 247.75 -519.05 243.65 -524.65 243.35 -524.75 243.35 -524.9 243.35 -531.65 243 -539.05 244.75 -539.25 244.8 -539.45 244.85 -527.35 241.5 -554.15 234.5 -553.25 234.45 -552.45 234.35 -552.35 234.35 -552.2 234.35 -537.5 232.7 -551.55 225.95 -552.05 225.7 -552.55 225.5 -568.7 217.85 -572.9 217.6 -577.25 217.4 -580.4 218.9 -583.9 220.6 -583.9 222.05 -583.9 222.1 -583.9 222.15 -583.9 222.25 -583.9 222.35 -583.9 222.65 -583.85 222.85 -584.05 222.65 -584.2 222.45 -584.35 222.3 -584.5 222.15 -585.8 220.7 -586.95 219.55 -587.85 218.7 -588.65 218 -598.05 210 -621 212.05 -644 214.05 -663.05 231.35 -664.15 232.35 -665.15 233.35
L -665.15 290.7
Q -643.35 290.05 -605.55 287.4 -585.7 289.85 -584.1 289.85 -583.5 289.85 -579.6 289.4 -575.75 288.9 -575.1 288.9 -570.3 288.9 -546.15 291.85 -522 294.8 -514.2 294.8 -510.1 294.8 -500.5 293.3 -503.85 287.95 -506.65 281.25
L -506.15 281.05
Q -490.3 280.95 -474.35 281.15 -432.7 281.55 -390.4 283.65 -390.05 283.55 -389.75 283.45 -389.4 283.4 -389.1 283.3 -393.05 288.8 -396.6 293.2 -397.45 294.25 -398.25 295.2 -369.85 298.8 -368.55 298.8 -363.2 298.8 -359 297.3 -356.4 296.35 -352.65 296.05 -350.45 295.8 -347.9 295.8 -342.95 295.8 -333.95 297.3 -326.2 298.6 -317.6 298.15 -316.3 298 -314.95 297.95 -310.5 297.55 -300.45 297.5 -289.65 297.4 -272.25 297.65 -289.5 297 -300.2 295.3 -300.35 295.3 -300.45 295.25 -302.9 294.85 -304.95 294.55 -306.4 294.3 -307.65 294.1 -315.85 292.75 -316.05 292.55 -315.65 292.15 -315.1 291.6
M -464.75 255.4
Q -465.05 254.85 -464.9 254.6 -464.55 254.95 -464.4 255.3 -464.6 255.35 -464.75 255.4 Z"/>

<path fill="#FFCC33" stroke="none" d="
M -314.7 240.55
L -318.2 244.55 -316.6 245.95 -311.55 250.35 -305.2 255.9 -304.9 256.15 -264.45 291.4 -256 298.8 -243.6 298.35 -256.55 287.8 -297.8 254.3 -302.8 250.25 -305.7 247.9 -312.25 242.55 -314.7 240.55 Z"/>

<path fill="#99CC00" stroke="none" d="
M -428.3 133.25
L -427.85 133.1
Q -409 77.95 -473.2 83 -443.2 88.1 -458.8 113.35 -434.55 106.05 -428.3 133.25
M -414 50.4
L -414 49.9
Q -462.15 16.95 -474.45 80.2 -461.55 52.65 -441.35 74.45 -441.85 49.15 -414 50.4
M -478.8 82
L -478.7 81.5
Q -519.5 39.8 -543.95 99.45 -525.95 74.9 -510.35 100.25 -505.9 75.35 -478.8 82 Z"/>
</g>

<path id="Layer0_0_1_STROKES" stroke="#000000" stroke-width="1" stroke-linejoin="round" stroke-linecap="round" fill="none" d="
M -0.55 186.15
Q -0.3 186 -0.1 185.8 0.95 184.4 2.25 184.45 6 184.65 8.45 183.2 8.85 182.95 9.25 182.5 9.9 182 10.1 181.2 10.55 179.85 12.05 180.3 12.7 180.5 13.1 180.1 14.1 179.1 15.3 179.85 16.25 180.35 17.5 180.3 19.4 180.3 20.35 181.25 22.7 183.7 24.5 180.5 24.85 180.1 24.85 179.5 25.05 176 27.9 176.9 28.65 177.2 29.35 177.4 30 177.65 30.55 178 31.55 178.75 33.45 179.05 33.85 179.1 34.2 179.1 35.9 179.55 37.65 179.85 38.4 180.1 38.75 180.8 39.75 182.4 41.85 180.6 43.25 179.55 44.65 178.75 46 178.1 47.2 177.25 49.85 175.55 52.9 175.8 53.6 175.8 54.15 175.35 55.65 174.05 58.95 173.4 61 174.8 63.3 174.45 64.35 174.3 65.45 174 66.1 173.85 66.5 174.3 67.5 175.35 69.55 176 69.95 176.2 70.3 176.2 71.65 176.2 73.05 175.85 73.75 175.8 74.2 176.2 75.65 177.85 78.55 177.95 81.7 178.1 84.8 178.9 85.35 179 85.85 179.2 126.95 105.3 187.95 61
L 187.95 60.95 188.35 61.55
Q 114.55 126.3 112.15 195.15 112.7 195.55 113.3 195.65 114 195.8 114.45 196.25 115.8 197.7 117.4 197.35 117.85 197.25 118.2 197.05 120.45 196.4 121.55 197.8 122.9 199.5 124.4 200.6 127.25 202.7 129.9 205.45 130.3 205.85 130.7 205.95 133.4 206.75 134.6 205.15 136.45 202.85 140.25 203.8 142 204.3 143.9 204.4 154.35 171.55 176.1 145.65 175 145.45 173.9 145.3 166.75 144.15 159.65 143.4 174.1 133.9 189.8 126.55
L 192.1 131.2 189.9 126.45 190 126.4
Q 193.1 124.95 196.3 123.6 196.35 123.55 196.45 123.5 207.85 118.5 219.9 114.65
L 284 184.05
Q 262.15 172.25 240.55 163.75 234.15 192.85 245.05 227.3
L 248.6 227.1
Q 249.75 226.7 250.95 226.35 251.75 226.1 252.5 225.9 255.4 225.4 257.25 226.55
L 264.85 226.1
Q 265.2 225.45 265.45 224.6 265.7 223.95 266.1 223.8 266.75 223.45 267.35 223.95 269.5 225.6 272.05 225.6 272.8 225.6 272.95 225.15 273.5 223.9 275 224.75 275.4 225 275.9 225.2 276.05 225.3 276.2 225.4
L 348 221 346.4 219.6 349.9 215.6 352.35 217.6 350.8 200.75 357.15 199.8 357.5 199.8 358.75 220.35 377.75 219.15 378.65 223.85 361.8 225.3 366.8 229.35
Q 369.2 229.25 370.65 230.35 371.25 230.7 371.85 230.25 374 228.55 376.5 229 377.3 229.2 378.1 229.5 379.55 230.2 381 230.85 381.8 231.2 382.6 231.35 384.45 231.75 386.25 231.35 387.1 231.2 387.2 231.35 388.05 233 390.05 233.3 390.85 233.3 391.6 233.45 395.35 233.8 399.05 234.25 399.5 234.35 399.95 234.55 400.65 234.85 401.15 234.4 402.5 233.35 403.6 234.85 403.95 235.35 404.4 235.45 407.05 235.65 411.75 239.5 412.35 239.95 412.95 240.5 415.6 241.75 417.95 242.25 419.6 242.65 421.3 242.35 422.05 242.2 422.8 242.1 424.6 241.9 425.7 241.15 426.25 240.7 426.9 240.7 432.45 240.7 438 241.15 438.7 241.2 439.4 241.35 441.45 241.65 443.05 243.15 443.55 243.6 444.15 243.2 445.75 242.1 447.1 239.8 449.5 235.75 454 236.8 457.35 237.6 460.9 237.35 464.8 237.3 467.2 238.35 468.25 238.8 469.25 238.8 472.75 238.5 476.2 238.2 478.15 238.05 479.7 238.35 481.7 238.8 483.25 240.5 484.65 241.9 486.5 241.45 487.3 241.2 488.05 241.15 491.45 240.7 494.85 241.15 495.6 241.2 496.3 241.35 498.05 241.65 499.75 242.05 501.25 242.35 501.8 241.45 502.15 240.7 503.2 240.7 510.5 240.7 517.8 240.25 518.5 240.25 519.2 239.8 521.55 238.55 524.05 237.75 525.1 237.35 526.15 237.2 529.05 236.65 530.55 238.35 531 238.8 531.55 239.2 532.4 239.75 533.2 240.5 536.05 242.7 538.55 244.05 539.65 244.55 540.8 245.1 541.75 245.5 542.8 245.65 546.3 245.9 549.4 245.1
L 551.4 -10.95 -0.55 -6.95 -0.55 186.15 -0.55 208.4
Q 0.45 207.4 1.55 206.4 20.6 189.1 43.6 187.1 66.55 185.05 75.95 193.05 76.75 193.75 77.65 194.6 81.6 186.75 85.85 179.2
M -0.55 284.8
L -0.55 293.05
Q -0.05 293.5 0.45 293.95 7.2 300.15 8.65 300.75 17.6 304.35 21.6 306.55 27.45 309.8 27.45 312.3 27.45 313.45 26.55 314.9 25.65 316.4 25.65 317.5 25.65 319.85 29.3 321 32.2 321.9 40 322.7 67.7 325.55 81.1 328.2 90.95 330.1 102.3 332.85 115 335.85 120.7 337.05 124.15 337.8 136.35 342.35 142.6 344.65 146.45 346.05 149.8 348.7 153.4 352.75 153.4 352.8 153.45 352.8 153.25 353.6 153 354.5 153.05 355.35 153.9 356.4 154.6 357.25 155.35 357.75 155.75 358.05 157.1 358.55 158.6 359.1 159.2 359.1
L 217.25 360.25
Q 218.75 360.25 263.6 355.95 308.5 351.6 309.95 351.6 311.4 351.6 313.1 352.55 314.55 353.3 314.55 353.6 314.4 354.05 313.05 355.6 312.1 357.25 313.25 358.4 316.75 361.95 340.1 361.95 352.1 361.95 390.6 356.35 410 353.5 428.5 350.45 455.3 346.1 492.95 343.55 503.8 342.8 507.25 341.85 511.65 340.65 511.65 337.65 511.65 336.55 510.75 334 509.85 331.45 509.85 330.3 509.85 330.1 524.2 325.7 528.8 324.3 533.4 322.9 532.65 322.9 532 322.95
L 532 320.2 532.7 319.2 532.7 314.45
Q 535.5 313.95 549.4 311.95
L 549.4 307.4
Q 545.75 307.6 541.85 307.7 538.4 307.8 534.8 307.8 532.25 307.8 531.05 307.45 529.95 306.9 529.05 306.65 528.4 306.45 527.4 306.25 522.65 307.3 518.15 307.75 515.3 308 512.6 308.05 512.1 308.05 511.65 308.05 508.85 308.05 506.35 308.1 505.45 309.1 504.7 310.5 501.4 316.45 499.05 317.6 496.45 318.85 478.25 321.9 460.3 324.85 442.25 327.05 430.6 328.55 422.75 329.6 407.65 333.65 396.85 336.4 376.15 341.75 370.45 342.3 356.1 345.85 350.1 345.85 346.85 345.85 343.45 344.1 339.45 341.65 337.1 340.25 327.7 334.6 315.35 334.6 307.25 334.6 272.15 337.95 259.25 339.15 248.3 339.95 227.75 343.15 225.2 343.15 219.35 343.15 214.5 342.05 214.15 341.95 213.8 341.85 212.55 341.55 211.4 341.2 200.6 340.85 197.05 338.9 195.4 338 194.65 336.4 194.05 334.5 193.65 333.5 193 331.7 191.25 330.3 188.5 329.05 185.8 328.2 184.85 327.9 183.95 327.65 174.2 325.05 159.75 325.25 159.25 325.25 158.75 325.25 158.75 325.15 158.55 324.75 158.35 324.45 158.35 323.65 155.55 323.5 152.55 323.35 108.4 321.4 77.95 316.6 54.4 312.85 48.5 309.4 50.25 306.4 51.3 304.75 53.15 301.7 55.25 299.85
L 54.2 298.6
Q 30.15 290.4 23.75 288.35 18.25 287.05 5.5 285.45 2.3 285.05 -0.55 284.8
L -0.55 277.1
M -0.55 272.75
L -0.55 265.75 -0.55 208.4
M -0.55 293.05
L -0.55 396
M 549.4 400
L 549.4 311.95
M 549.4 284.65
Q 540.15 279.45 522.65 277.35
L 522.65 276.65
Q 521.45 277.9 520.3 279.1 516.95 278.25 512.25 277 497.65 275.05 475.55 280.35 453.4 285.65 458.8 282.6 464.25 279.5 441.35 275.55 432.3 273.95 426.85 274.3 422.3 268.1 418.65 259.8 412.35 260.3 408.05 262.85
L 421 273.4 408.6 273.85 359.45 231.25 361.5 265.75
Q 362 265.65 362.5 265.55 369 264.25 370.9 264.25 374.7 264.25 382.45 265.55 388.45 266.55 392.75 266.8 394.55 266.6 396.4 266.7 396.85 266.75 397.35 266.8
M 468.65 264.45
L 482.55 264.45 485.5 267.85
Q 495.5 267.65 505.55 266.4
L 503.75 264.3 518.35 264.4
Q 524.45 263.25 530.65 261.75 532.45 261.3 534.3 260.8 475.8 257.9 418.55 258.2 421.1 259 423.6 259.75 428.4 261.1 433.2 262.3
L 449.4 262.75 447.3 265.15
Q 455.7 266.55 464.15 267.25 464.35 267.25 464.6 267.3
L 468.65 264.45 Z
M 418.65 259.8
Q 418.35 259.1 418.05 258.4
L 418.55 258.2
M 464.6 267.3
Q 475 268.1 485.5 267.85
M 433.2 262.3
Q 440.2 263.95 447.3 265.15
M 350.1 266.05
Q 349.8 266.35 349.5 266.65 351.8 266.85 353.45 266.85 354.65 266.85 356.75 266.6
L 353.7 232.65
Q 352.2 232.3 351 230.7 348.8 232.35 346.7 236.4 346.45 236.9 345.75 236.7 344.6 236.4 343.4 236.1 339.1 235.05 337.1 237.45 336.7 237.95 336 238.25 334.6 238.8 334.05 239.5 333.65 240.05 332.95 239.8 331.35 239.35 331.05 240.55 329.1 239.35 328.6 240.7 328.45 241.1 327.7 241.15 322.9 241.45 320.6 238.5 320.15 237.95 319.45 238.25 318 238.8 317.55 239.5 317.15 240.05 316.4 239.95 315 239.95 313.8 238.5 313.4 237.95 312.65 237.8 310.55 237.2 309.35 235.15 308.4 233.45 305.9 234.1 305.1 234.35 304.3 234.55 300.6 235.45 299.6 231.8 299.45 231.2 299.05 231 298.8 230.85 298.55 230.75
L 294.4 231.1
Q 293.4 231.9 291.65 231.35
L 268.2 233.35
Q 269.25 234.05 270.4 234.85 274.05 237.45 278.75 241.7
L 279.3 242.95
Q 280.05 242.6 280.8 242.2 284.7 240.2 286.9 240.2 293.95 240.2 298.45 240.35 303 240.55 317.4 244.55 331.75 248.5 328.25 255.8 327.15 258 326.1 259.7 329.25 260.7 334.7 263.7 336.1 264.45 337.45 265.05 344 266.1 348.45 266.55 349.3 266.35 350.1 266.05 Z
M 298.55 230.75
L 353.1 226.05 353.7 232.65
M 358.75 220.35
L 358.9 222.95 361.8 225.3
M 359.4 230.95
L 348 221
M 352.35 217.6
L 358.9 222.95
M -0.55 265.75
Q 21.25 265.1 59.05 262.45 78.9 264.9 80.5 264.9 81.1 264.9 85 264.45 88.85 263.95 89.5 263.95 94.3 263.95 118.45 266.9 142.6 269.85 150.4 269.85 154.5 269.85 164.1 268.35 160.75 263 157.95 256.3
L 158.45 256.1
Q 174.3 256 190.25 256.2 231.9 256.6 274.2 258.7 274.55 258.6 274.85 258.5 275.2 258.45 275.5 258.35 271.55 263.85 268 268.25 267.15 269.3 266.35 270.25 294.75 273.85 296.05 273.85 301.4 273.85 305.6 272.35 308.2 271.4 311.95 271.1 314.15 270.85 316.7 270.85 321.65 270.85 330.65 272.35 338.4 273.65 347 273.2 348.3 273.05 349.65 273 354.1 272.6 364.15 272.55 374.95 272.45 392.35 272.7 375.1 272.05 364.4 270.35 364.25 270.35 364.15 270.3 361.7 269.9 359.65 269.6 358.2 269.35 356.95 269.15 348.75 267.8 348.55 267.6 348.95 267.2 349.5 266.65
M 348.45 266.55
Q 347.55 266.75 346.65 266.85 342.4 267.25 337.45 265.05
M 307.35 285.05
Q 290.65 283.8 276.6 283.45 276.55 283.45 276.5 283.45 276.55 283.5 276.6 283.55 276.75 283.6 276.95 283.7 283.85 287.35 292.05 290.2
L 307.2 288.6 315.3 289.25 305.75 294.1
Q 313.6 295.95 322.35 297.15 322.5 297.2 322.65 297.2 324.3 297.4 326 297.6
L 326.05 297.6 325.3 297.4 333.85 292.1 341.6 292.5 341.6 292.85 338.35 298.75
Q 338.85 298.8 339.35 298.8 339.4 298.8 339.45 298.8 340.1 298.85 340.8 298.9 349.65 299.4 358.95 299.35
L 361.2 294.6 367.9 294.95 370.95 299.15
Q 371 299.15 371.05 299.15 386.25 298.6 403.2 296.8
L 403.3 296.4
Q 384.95 293.65 368.35 291.5
L 368.3 291.5
Q 354.65 289.7 342.15 288.3 342.05 288.3 342 288.3 341.8 288.3 341.6 288.3 337.85 287.85 334.3 287.5 320.1 286 307.5 285.05 307.45 285.05 307.35 285.05 Z
M 403.2 296.8
Q 397.6 302.65 392.05 307.1 388.9 306.55 388.3 306.55 386.4 306.55 377.15 309.25 367.9 311.95 359.6 311.95 357.6 311.95 348.4 310.6 337.85 309.1 332.8 308.7 328.45 308.3 320.3 308.75 312.8 309.25 312.1 309.25 308.7 309.25 305.7 308.9 302.75 308.5 300.2 307.8 298.7 307.35 291.9 304.6 289.7 303.7 287.25 303 281.55 296.7 276.6 284.4
L 276.6 284.35 276.95 283.7
M 370.45 342.3
Q 369.8 342.35 369.35 342.35 353.6 342.35 344.15 340.2 340.25 339.3 337.4 338.05 336.45 337.6 332.1 335.05 329.8 333.7 327.5 333.7 293.25 333.7 257.6 338.45 252.55 339.25 248.3 339.95
M -0.55 272.75
Q 13.5 275.15 35.35 276.9 36.65 277 37.9 277.1 49.5 278 60.3 278.6 62 278.7 63.7 278.8 67.6 279 71.45 279.15 73.1 279.85 82.5 286.85 90.85 293.1 97.1 294.55 100 295.25 103.45 296.35 103.5 296.35 103.6 296.4 103.8 296.45 104 296.55 111.95 298 115.25 299.95 115.85 300.3 116.75 300.6 119.4 301.4 124.55 301.4 126.4 301.4 131.5 302.65 135.3 303.6 137.15 303.85 137.75 303.9 138.15 303.9 139.25 303.9 143.95 303.1 149.95 302.1 153.8 301.65
L 153.8 303
Q 151.15 303.2 148.8 303.65 154 303.55 159.85 303.2
L 163.55 303.45
Q 163.7 303.8 163.75 303.7 163.8 303.75 163.8 305.1 163.8 306.25 162.9 308.2 162 310.2 162 311.3 162 312.45 162.55 313.5 162.6 313.6 162.65 313.65 163.15 314.55 164.1 315.35 165.15 316.25 166.75 317 169.8 318.5 179.9 322.2 182 323.05 186.9 324.65
L 186.95 324.65
Q 194 326.95 206.85 330.85 207.65 331.1 208.45 331.35 209.8 331.35 240.35 326.1 270.95 320.85 286.2 320.85 303.9 320.85 314.15 323.4 319.3 324.7 322.1 325.95 325.05 325.9 327.65 326 327.7 326 327.8 326 338.35 326.4 341.95 328.9 342.8 329.5 344 331.1 344.4 331.6 344.9 331.85 345.35 332.1 345.95 332.1 365.8 332.1 382.85 326.45 385.4 325.65 394 322.35 399.35 320.3 402.05 319.95 424.95 317.25 449.95 314.4 453.6 313.85 456.25 313.15 456.35 313.1 456.55 313.1 458.9 312.45 460.35 311.75 463.5 310.2 463.5 307.6 463.5 306.45 462.6 304.2 461.7 301.95 461.7 300.95 470.9 299.8 476.35 298.3 479.4 297.5 483.3 296.15 490.35 294.1 514.7 294.1 523.45 294.1 533.45 291.2 545.25 287.8 549.4 286.6
M 549.4 284.65
L 549.4 282.7
M 549.4 279.75
Q 541.55 278.35 526.85 276
L 523.25 276 522.65 276 522.65 276.65
M 358.95 299.35
Q 361.45 299.35 363.5 299.3 367.15 299.25 370.95 299.15
M 326.05 297.6
Q 331.9 298.3 338.2 298.75 338.3 298.75 338.35 298.75
M 506.35 308.1
Q 489.1 308.2 484.25 309.4 482.3 310.8 479.6 310.95 480 312.15 481.4 314.25 478.75 316.05 458.8 320.95 458.5 321 458.2 321.1 458.15 321.1 458.1 321.15 454.85 321.9 451.85 322.6 433.7 326.85 426.35 328.65 424.5 329.15 422.75 329.6
M 366.8 229.35
L 408.05 262.85
M 505.55 266.4
Q 511.9 265.6 518.35 264.4
M 534.3 260.8
Q 534.65 260.7 534.95 260.6 535.3 260.55 535.6 260.45 535.05 261.2 534.55 261.95 542 262.4 549.4 263.25
L 549.4 245.1
M 549.4 279.75
L 549.4 263.25
M 523.25 276
Q 528.4 270.35 534.55 261.95
M 549.4 307.4
L 549.4 298.95
Q 545.5 300.55 541.7 301.95 534.3 304.75 527.4 306.25
M 549.4 298.95
L 549.4 286.6
M 250.6 24.95
Q 202.45 -8 190.15 55.25 203.05 27.7 223.25 49.5 222.75 24.2 250.6 25.45
L 250.6 24.95 Z
M 185.8 57.05
Q 158.7 50.4 154.25 75.3 138.65 49.95 120.65 74.5 145.1 14.85 185.9 56.55
L 185.8 57.05 Z
M 187.95 61
L 188.35 61.55
M 236.75 108.15
Q 255.6 53 191.4 58.05 221.4 63.15 205.8 88.4 230.05 81.1 236.3 108.3
L 236.75 108.15 Z
M 215.25 122.2
L 209.5 149.85
Q 209.05 149.7 208.65 149.6
L 208.8 149 196.2 129.3
Q 196.6 129.1 196.95 128.95
L 197 128.95
Q 197.7 128.65 198.4 128.35 206.25 124.9 215.05 121.85 215.1 121.85 215.15 121.85
L 215.25 122.2 Z
M 211.05 150.3
L 212.15 150.55 220.05 121.4 231.7 134.25 212.15 150.55
M 192.1 131.2
L 204.6 148.5
Q 204.55 148.45 204.55 148.5 191.05 144.8 177.05 141.95
L 177.05 141.9
Q 175.75 141.7 174.5 141.4
L 174.55 141.05
Q 182.55 135.75 192.1 131.2 Z
M 203.25 174.05
L 200.5 203 216.05 204.2 212.15 169.55 186.6 172.3 186.6 172.35 185.15 176.05 195.5 174.9 203.25 174.05 Z
M 241.7 160.45
Q 234.4 157.7 226.95 155.2
L 226.85 155.15
Q 221.4 153.4 215.9 151.7
L 234.95 137.8 263.4 169.3
Q 252.75 164.55 241.8 160.5 241.75 160.45 241.7 160.45 Z
M 176.1 145.65
Q 189.9 147.95 203.75 151.6 207.45 152.6 211.15 153.7 218.45 155.8 225.85 158.35 233.15 160.8 240.55 163.75
M 268.2 233.35
Q 262.55 229.85 257.8 229.85 253.7 229.85 250.4 231.35 248.05 232.4 245.9 232.7 245.45 232.75 245 232.8 244.5 232.85 244 232.85 241.85 232.85 237.9 231.35
L 244 232.85 244.95 231.4 244.9 231.4
Q 243.95 230.8 241.95 229.6 241.05 229.05 239.95 228.4 235.8 226 234.9 226 233.4 226 230.5 226.75 227.6 227.45 225.75 227.45 221.5 227.45 214.7 228.15 207.8 228.85 205.35 225.15 202.9 221.5 197.95 221.75 193.05 222.05 192 223 192.75 224.5 196.6 227.1 197.25 227.55 197.75 227.9 196.6 228.1 194.2 228.7 191.75 229.35 191.5 229.35 179.45 229.35 171.95 222.9 171.55 222.6 171.25 222.25 167.85 218.7 168.25 220.9 168.6 223.05 165.15 219.7 161.7 216.35 158 218.05 158.8 218.85 161.15 220.65 163.3 222.35 164.4 223
L 164.15 223.8
Q 162.3 223.25 160.55 222.8 145.55 218.7 139.95 218.4 139.85 218.4 139.7 218.4 132.95 218.05 125.55 219.8 125.35 219.85 125.15 219.9 137.25 216.55 110.45 209.55 111.35 209.5 112.15 209.4 112.25 209.4 112.4 209.4 127.1 207.75 113.05 201 112.55 200.75 112.05 200.55 95.9 192.9 91.7 192.65 87.35 192.45 84.2 193.95 80.7 195.65 80.7 197.1 80.7 197.15 80.7 197.2 80.7 197.3 80.7 197.4 80.7 197.7 80.75 197.9 80.55 197.7 80.4 197.5 80.25 197.35 80.1 197.2 78.8 195.75 77.65 194.6
M 80.7 197.4
L 80.1 197.2
M 139.95 218.4
Q 141.65 211.25 143.9 204.4
M 158.35 323.65
Q 158.3 323.35 158.3 323 158.3 321.25 159.65 318.7 160.5 317.1 160.8 316 161 315.3 161 314.8 161 313.15 127.8 305.5 125.55 305 123.4 304.5
L 134.55 304.25
Q 133.95 304.15 133.35 304.1 125.7 303.2 124.55 303.2 122.25 303.2 118.8 302.55
L 118.6 303.35
Q 120 303.65 120.95 303.95 119.75 303.65 118.6 303.4
L 118.55 303.4
Q 117.4 303.1 116.25 302.85 114.05 302.35 111.95 301.85
L 111.9 301.85
Q 107 300.7 102.55 299.7
L 102.5 299.7
Q 62.65 290.5 60.4 289.95 60.2 291.15 60.2 288.9 60.2 288.6 63.3 285.85 66.6 282.85 67.25 281.5 65.25 280.9 65.95 280.2 66.65 279.4 66.4 279.25 66 279.05 63.8 278.85 63.75 278.85 63.7 278.85 62.3 278.75 60.35 278.65
L 60.3 278.65
Q 53.15 278.25 37.8 278 36.55 278 35.35 277.95
L 35.3 277.95
Q 14.8 277.65 -0.55 277.1
M 153.6 351.9
L 153.6 351.95
Q 153.7 351.5 153.75 351.1
L 153.6 351.9 Z
M 111.6 304.75
Q 125.15 305.65 122.7 304.5
L 111.6 304.75 Z
M 243.65 262.2
L 245.45 264.3
Q 251.8 263.5 258.25 262.3
L 243.65 262.2 Z
M 158.45 256.1
Q 165.75 258.4 173.1 260.2
L 189.3 260.65 187.2 263.05
Q 195.6 264.45 204.05 265.15 204.25 265.15 204.5 265.2
L 208.55 262.35 222.45 262.35 225.4 265.75
Q 235.05 265.55 244.75 264.4 245.1 264.35 245.45 264.3
M 266.35 270.25
Q 262.45 274.85 259.05 278.1 258.8 278.05 258.55 278.05 258.45 278.05 254.6 279.5 250.7 280.9 248.15 280.9 240.85 280.9 234.9 280.05 228.95 279.2 214.35 279.2 210.8 279.2 197.4 277.3 184.1 275.4 179.6 275.4 175.85 275.4 172.75 276.75 171.9 277.1 171.1 277.35 167.35 273.45 164.1 268.35
M 258.25 262.3
Q 266.2 260.8 274.2 258.7
M 292.05 290.2
Q 298.5 292.45 305.75 294.1
M 195.5 174.9
L 197.65 203.05 175.75 201.6 171.15 201.35 171.7 205.25 218.5 208.6 220.25 204.6 216.05 204.2
M 245.05 227.3
L 240 227.6 241.95 229.6
M 204.5 265.2
Q 214.9 266 225.4 265.75
M 175.75 201.6
L 185.15 176.05
M 112.15 195.15
Q 112.05 197.85 112.05 200.55
M -0.55 402
L 551.4 408"/>
</defs>

<g transform="matrix( 1, 0, 0, 1, 0,0) ">
<use xlink:href="#Layer0_0_FILL"/>

<use xlink:href="#Layer0_0_1_STROKES"/>
</g>
</svg>
