
<svg xmlns="http://www.w3.org/2000/svg" version="1.1" xmlns:xlink="http://www.w3.org/1999/xlink" preserveAspectRatio="none" x="0px" y="0px" width="590px" height="457px" viewBox="0 0 590 457">
<defs>
<g id="Layer0_0_FILL">
<path fill="white" stroke="black" stroke-width="1" d="
M 155.25 293.8
Q 156.2 293.55 157.2 293.4 158.2 293.15 159.25 292.95 173.95 289.95 189.3 287.55 178.7 277.45 163.1 268.6 154.7 263.8 145.7 259.9 103 241.2 46.7 241.2 22.05 241.2 0 244.8
L 0 360.8
Q 17.8 343.45 49.45 328.35 62.35 322.2 77.5 316.4 113.65 302.6 155.25 293.8
M 428.15 281.2
L 427.8 284.35
Q 489.4 291.95 540.95 308.85 551.9 312.4 562.35 316.4 577.85 322.3 590.95 328.6
L 590.95 256.05
Q 573.8 254.35 555.25 254.35 507.35 254.35 468.5 265.5 446.9 271.65 428.15 281.2 Z"/>

<path fill="white" stroke="black" stroke-width="1" d="
M 79.4 192.95
Q 80.05 182.15 76.35 174.25 72.6 166.35 66.65 166 60.7 165.65 56.05 173.05 51.45 180.5 50.8 191.3 50.2 202.15 53.9 210 56.7 215.85 60.7 217.55 61.25 217.75 61.9 217.95 62.7 218.15 63.6 218.2 69.55 218.55 74.2 211.2 78.8 203.8 79.4 192.95
M 427.8 284.35
Q 425.5 284.05 423.25 283.8 374.7 278.1 319.95 278.1 249.5 278.1 189.3 287.55 173.95 289.95 159.25 292.95 158.2 293.15 157.2 293.4 156.2 293.55 155.25 293.8 113.65 302.6 77.5 316.4 62.35 322.2 49.45 328.35 17.8 343.45 0 360.8
L 0 457.15
Q 0.4 457.55 0.85 457.95
L 590.95 457.95 590.95 328.6
Q 577.85 322.3 562.35 316.4 551.9 312.4 540.95 308.85 489.4 291.95 427.8 284.35
M 345.8 129.9
Q 334.85 131.85 329.4 146.6 324.1 161.35 327.4 180.25 330.75 199.15 340.85 211.2 348.05 219.7 355.65 221.15 358 221.6 360.35 221.4 361.15 221.35 361.95 221.2 372.95 219.3 378.3 204.55 383.7 189.8 380.35 170.9 377.05 152 366.85 139.95 356.8 128 345.8 129.9
M 215.55 155.25
Q 211.8 174.05 217.3 189.05 222.75 203.95 234.3 206.25 245.8 208.55 256.6 196.85 267.35 185.1 271.1 166.3 274.85 147.5 269.4 132.55 263.9 117.6 252.4 115.3 240.85 113 230.1 124.75 219.3 136.45 215.55 155.25
M 169.9 145.8
Q 174.6 119.65 167.2 99.25 159.8 78.9 144.65 76.15 129.45 73.4 115.35 89.9 101.3 106.4 96.6 132.55 91.85 158.65 99.25 179.05 106.65 199.45 121.85 202.2 137 204.95 151.1 188.4 165.15 171.9 169.9 145.8
M 131.65 146.05
Q 133 146.05 136.7 138.5 159.95 61.55 147.3 107.2 134.65 152.85 136.8 154.1 138.1 154.85 141.95 154.85 145.7 154.85 150.55 152.7 157.75 149.5 161.95 148.3 160.45 149.4 155.1 151.4 148.35 153.9 145.45 155.3 133.15 161.15 133.15 169.55 133.15 172.9 136.35 176.05 137.7 177.35 155.3 182.55 138.2 177.95 137.1 177.75 132.75 176.95 132 176.95 129.2 176.95 126.35 178.5 125 179.2 124.3 179.85 123.8 173.5 120.35 164.9 116.7 155.7 106.1 133.2 119.95 159.75 124.35 161.5 125.5 157.45 127.4 165.7 129.3 173.95 122.9 125.65 116.45 77.3 124.7 123.15 128.1 146.05 131.65 146.05
M 123.75 183.4
Q 123.95 184.3 124.1 184.65
L 124.35 186.5
Q 122.85 179.5 123.75 183.4
M 141.95 179.1
L 141.95 179.15
Q 141.8056640625 179.101953125 141.7 179.1
L 141.95 179.1
M 508.55 152.3
Q 505.05 122.95 490.85 103.55 476.6 84.2 459.9 86.2 443.2 88.15 433.95 110.3 424.65 132.5 428.15 161.85 431.6 191.25 445.8 210.6 460.05 230 476.75 228.05 493.45 226.05 502.7 203.85 512 181.7 508.55 152.3
M 565.7 196.25
Q 562.8 188.65 557.1 187.65 551.4 186.65 546.2 192.9 540.95 199.15 539.25 208.9 537.55 218.65 540.45 226.25 543.3 233.85 549 234.85 554.7 235.85 559.95 229.6 565.15 223.4 566.85 213.65 568.55 203.9 565.7 196.25 Z"/>

<path fill="white" stroke="black" stroke-width="1" d="
M 453.8 237.35
Q 453.6 236.2 453.5 235.3 452.65 235.2 452 235.25
L 451.5 235.3
Q 451.45 235.6 451.35 235.5 451.35 235.55 451.35 236.7 451.35 238 451.45 238.95 450.6 238.85 449.45 239.05 449.1 239.3 448.85 239.45 448.45 239.8 448.45 240.9 448.45 240.95 448.6 241.25 448.35 241.4 448.15 241.55 446.65 238.75 445.4 238 445.25 237.9 445.1 237.85 443.65 235.55 443.45 233.3 442.6 233.7 441.9 234.25 441.45 233.55 441 233.1 440.7 233.3 440.25 234.9 439.9 234.3 438.05 234.15 435.95 234.05 435.3 233.95
L 435.3 236.1
Q 435.05 236.35 434.9 236.65 433.5 236.45 433.1 236.1 432.25 235.35 430.7 235.35 430.65 235.35 430.6 235.35 429.9 234.65 428.95 234.25 426.5 233.15 426.5 237.15 426.5 237.75 427 238.45 426.45 240.15 424.6 240.75 424.6 240.4 424.6 240.05 424.6 238.6 424.55 238.15 424.45 237.6 424.05 236.8 422.65 238.15 420.65 239.35 419.2 237.8 418.9 237.55
L 418.8 237.65
Q 418.5 237 418.45 236.95
L 417.7 237.15
Q 417.7 237.75 418.05 239.15 418.1 239.6 418.05 240.05 417.85 240 417.6 239.95 416.5 239.65 415.4 239.05 415.35 238.75 415.25 238.55
L 414.25 238.55
Q 413.55 238.3 413 238.3 412.75 238.3 412.5 238.5
L 410.45 238.45
Q 410.6 239.5 411.3 240.7 410.6 242.3 408.85 242.3 407.95 242.3 407.65 241.45 407.4 240.55 406.45 240.55 405.3 240.55 404.95 241.15 404.85 241.65 404.75 241.55 404.25 240.4 402.2 238.1 399.8 235.45 398.4 235.35 398.3 235.1 398.25 234.85 398.2 234.7 398.15 234.55 399.35 233.4 399.4 233.3 397.75 231.75 397.05 231.85 396.25 232.15 395.35 232.45 395.5 231.6 395.55 231.05 395.15 231.4 394.6 232.4 394 231.45 393.25 230.45 390.7 227.05 389.45 227.05 388.3 227.05 388.1 227.35
L 388.15 227.6
Q 388.15 228.7 387.85 229 387.75 229 387.65 228.95 387.95 228.5 387.95 228.35 387.95 227.2 387.85 227 387.7 227.05 387.7 226.85 384.65 225.55 383.1 227.1 382 226.45 381.4 226.15 381.4 225 381.25 224.3 381.2 224.1 380.85 222.9
L 380.1 222.9
Q 380.1 223.9 379.8 225.7 379.05 225.65 378.55 225.55 375.5 221.95 374.3 223.65 373.35 225.95 372.15 227.5 371.1 227.75 370.2 227.9 369.45 227.5 368.45 226.9 365.7 225.25 364.8 224.95 364.7 224.6 364.6 224.3 364.15 222.75 362.95 222.05 362.4 223.55 362 224.65 361.1 224.55 359.95 224.4 360 223.95 360.1 223.4 360.25 222.3 360.35 221.4 358 221.6 355.65 221.15 355.45 221.6 355.25 222.15 354.8 223.3 354.3 224.25 353.55 224.3 352.65 224.4 352 224 351.7 223.8 350.85 223.35 349.7 223.35 349.35 223.35 347.8 224.15 347 224.55 346.55 224.9 346.7 224.65 346.7 224.6 346.7 222.85 344.25 220.8 341.45 218.9 340.8 218.2 340.35 218.35 340.25 218.5 340.15 218.8 340.15 220.1 340.15 220.8 340.45 223.05 340.55 224.2 340.6 224.95 340.45 224.8 340.4 224.7 339.95 223.75 338.65 223.55
L 337.05 225.5
Q 335.6 225.65 334.75 226.45 334.55 226.8 334.4 227.15 333.7 226.5 333.45 226.25 332.5 225.55 331.05 230.3 330.1 230.25 329.05 230.3 328.2 230.25 327.45 230.25 326 230.3 325.6 230.3 325.65 230.4 325.7 230.5 324.65 230.55 323.5 230.7 323.2 228.45 323.2 227.2
L 321.3 227.05 320.45 227.2 320.25 227.6
Q 319.9 228.25 320.2 228.85 320.35 229.15 318.6 230.5 318 230.25 315.75 229.9 313.75 229.55 313.45 229.55 313.7 227.1 313.25 225.7 312.6 225.95 311.5 227.9 310.4 229.85 309.2 230.3
L 304.05 230.85 304.05 231.45
Q 304 232.9 303.55 233.95 303.4 234.3 303.2 234.6 302.25 233.35 300.9 232.3 300.4 231.95 299.9 231.6 300 230.95 300 230.7 300 229.5 299.9 229.4 299.95 229.25 300 229.1
L 299.75 228.25
Q 298.55 228.25 298.45 228.3 297.75 228.55 297.75 229.75 297.75 230.05 297.7 230.5 297.45 230.4 297.25 230.35 296 227.35 294.4 226.45 294.3 226.25 294.2 226.1 294 225.95 293.95 226.65
L 293.2 226.65
Q 293.2 226.9 292.9 227.4 292.6 227.9 292.6 229 292.6 229.3 292.6 229.65 291.75 229.7 291 229.9 290.95 229.25 290.95 228.8
L 289.7 228.8
Q 289.65 229.3 289.6 229.75 288.9 229.5 288.05 229.3 288 228.8 287.8 228.2 287.4 227.05 285.95 224.95 283.9 225.1 283.5 226.25 283.05 227.4 281.2 227.6 280.85 226.05 280.05 224.95
L 279 224.95 279 227.4
Q 278.6 227.5 278.05 227.55 278.35 226.5 278.65 225.9 276.2 225 275.4 227.05 274.75 226.25 273.75 225.9 273.55 223.5 273.3 222.25
L 272.35 222.35
Q 272.25 222.2 272.2 222.25 272 222.4 272 223.55 272 224.4 272.15 225.6 271.9 225.55 271.6 225.55 270.15 225.55 268.95 225.2 268.7 224.65 268.35 224.2
L 267.4 224.2 267.35 224.65
Q 266.95 224.5 266.6 224.45 265.75 222.4 263.95 222.25
L 263.95 224.2
Q 264.35 223.95 264.85 224.8 264.65 224.95 264.4 225.2
L 264.4 225.15 263.65 225.15 263.65 226
Q 263.05 226.6 263 226.65 262.5 225.65 261.1 224.9 259.9 224.25 258.75 224.15 258.7 223.8 258.7 223.7 258.7 223.55 258.5 223.1
L 258 223.1
Q 258 223.6 258 224.25 253.15 225.9 252.85 225.9 251.75 225.9 251.65 225.2 251.45 224.35 251.35 224.3 250.2 223.8 246.85 223.75 246.2 223.75 245.7 223.8 245.75 223.25 245.85 222.8
L 245.45 222.05
Q 244.15 222.45 243.55 224.3 243.109765625 224.5447265625 243.1 224.9 243.10078125 224.39609375 243.15 224.15 242.2 224.2 241.4 224.3 240.1 224.45 238.5 224.4 238.5 225.3 238.5 226.1 238.5 226.7 238.5 227.3 236.9 227.75 235.7 229 236.05 229.25 237.05 228.6 237.8 228.1 238.45 227.95 238.45 228.6 238.4 229.2 238.35 230.3 238.25 231.05
L 236.25 231.05
Q 236.2 230.95 236.2 230.9 236 230.5 235.5 230.05 234.85 229.4 234.1 229.3 233.7 229.4 233.5 229.6
L 233.35 229.75
Q 233.35 230.85 233.45 231.4 233.45 231.65 233.1 232.55 231.35 232.4 228.85 232.35 227.2 233.35 225.8 234.25 225.6 234.25 225.5 234.25 225.1 233.8 224.65 233.3 224.25 233.9 223.95 234.4 223.3 234.5 222.7 234.55
L 222.65 234.55
Q 222.45 234.6 222.25 234.6 220.75 234.75 219.85 234.85 219.15 232.25 218.25 230.1 216.6 230.45 215.9 231.85 215.45 233.35 215.25 233.6 213.4 232.5 213.5 232.05 213.55 231.9 212 231.45 211.4 232.35 211.35 232.4 211.2 232.5 211.1 232.6 210.8 232.45 210.55 232.35 210.3 232.25 210.05 232.15 210.1 232.05 210.1 232 210.35 231.2 210.1 230.85
L 209 230.8
Q 208.7 231.1 208.55 231.6 207.95 231.45 207.5 231.45 206.85 231.45 206.05 232.75 203 232 202.05 231.8
L 201.85 232.35
Q 202.3 233.2 202.9 234 202.95 234.1 203.05 234.25 202.75 234.25 202.45 234.25 201.75 234.25 200.1 234.1 200.25 233.75 200.35 233.4 199.65 233.45 198.8 234 198.25 233.9 197.65 233.85 197.75 232.7 197.75 232.2 197.55 228.05 197.45 225.9
L 196.7 225.9
Q 196.55 226.75 196.45 227.5 196.15 227.25 195.75 227.2 195.45 227.35 195.15 227.8 195.05 227.5 194.75 227.2
L 194.45 226.85
Q 193.15 226.6 191.95 227.45 191.15 226.05 190.2 225.4 190.2 225.15 190.25 224.95 190 225.05 189.8 225.2 189.1 224.85 188.35 224.85 187.45 224.85 187.3 225.65 187.15 226.45 186.2 226.45 186.3 226.05 186.15 225.65 185.95 225.15 185.15 224.95 185.05 224.3 184.9 223.65
L 184.15 223.65 184.1 224.85
Q 184.05 224.85 183.95 224.85 183.4 224.85 182.4 224.75 182.35 224.7 182.35 224.65 182.3 224.4 182.3 224.25 182.25 223.75 181.9 222.9
L 181.2 222.9
Q 180.55 222 179.95 221.5 179.4 222 178.9 222.45 177.8 221.25 177.2 222.4
L 177.2 218.5
Q 175.85 218.35 173.95 218 172.7 217.75 172.45 217.85
L 172.45 221.1
Q 172.5 221.2 172.9 221.95 173.2 222.5 173.2 222.8 173.05 223.05 172.85 223.25 171.85 223.15 170.95 223.1 171.6 222.45 171.7 222.35 171.3 222.45 170.95 222.6 171.1 222.2 171.3 222.05
L 170.95 220.95
Q 169.9 221.5 169.35 223.05 169.05 223.05 168.8 223.05 169.25 221.6 169.25 220.65 169.25 219.5 169.05 219.55
L 168.85 219.8
Q 167.65 220.15 166.55 222.75 166.45 222.95 166.4 223.15 165.8 221.3 164.1 220.75 164.1 220.85 164 220.95 163.1 220.85 162.25 221.2 161.8 218.6 161.2 217.75
L 161.2 218.05
Q 161.1 217.6 161 217.4 160.8 216.95 160.8 218.1 160.8 219.25 161.25 221.7 161.05 221.85 160.8 222.05 160.7 222.15 160.6 222.25 159.6 222.25 159.5 222.2 158.75 222.1 156.75 221.1 156.75 221.3 156 221.5 156.3 222.6 156.95 224.6 156.6 224.75 156.25 225.05 154.7 225.35 151.95 226.2 151.85 225.7 151.7 225.15 151.2 223.35 150.1 223.35 148.95 223.35 148.85 223.6 148.8 223.65 148.8 223.7 148.75 222.4 148.25 221.85
L 147.1 221.85
Q 146.95 223.25 146.55 225.15 146.35 226.15 146.1 227.3 146 227.7 145.95 228.1 145.1 228.35 145.05 228.35 143.05 228.35 141.1 227.8 141.05 225.55 140.65 224.6
L 140.2 224.6
Q 140.1 225.6 139.85 227.45 138.55 227.1 138.4 227.1 137.35 227.05 136.85 231.3 136.35 231.4 135.9 231.5 135.1 230.1 133.9 230.1 133.55 230.1 133.25 230.3 133 230.05 132.75 229.8 130.25 227.25 129.5 226.65 129.5 226.85 129.1 227.05 129.35 227.4 131.55 231.1 131.7 231.35 131.9 231.65 131.7 231.9 131.55 232.2 131.4 232.45 131.3 232.7 131.2 232.75 131.15 232.75
L 131.2 232.65
Q 130.25 232.75 128.9 232.35 127.75 231.95 127.6 232 127.6 232.65 127.95 233.45 127.7 233.3 127.45 233.15 125.2 231.65 125 231.45 124.6 232.1 123.7 234.75 123.05 236.5 122.75 237.4 119.85 237 117.45 236.55 117.35 236.25 117.3 236.05 116.45 235.95 115.45 235.9 115.45 234.95 114.65 233.75 113.35 231.75 111.4 231.6 110.6 233.2 109.9 233.5 109.15 233.1 108.4 231.95
L 107.75 230.85 103.85 230.85
Q 103.75 230.8 103.7 230.8 101.05 230.85 99.3 230.45 99.9 229.1 100.05 228.7
L 99.7 227.95
Q 99.4 227.95 99.15 228 99.1 227.9 99.1 227.8 98.3 227.3 98.1 227.2 97.6 227.05 96.3 227.05 96.1 227.05 95.2 228.05 94 227.25 93 227.2 92.2 227.45 90.55 228.2 90 228.2 89.55 228.2 88.5 227.05 87.5 227.05 86.4 227.05 84.75 226.75 84.45 226.5 84.15 226.2 83.75 225.8 83.35 225.5 83.85 223.85 83.75 223.7 83.15 222.6 77.95 222.6 77.9 222.6 75.4 224.85 75.2 224.85 75 224.85 74 224.85 73.1 226.6 73.05 226.75 72.95 226.9 72.45 227.25 72.05 227.55 71.6 227.1 71.05 226.75
L 70.9 226.3
Q 70.8 226.2 70.05 226.25 68.85 225.7 67.25 225.4
L 67.25 225.35
Q 67.25 223.15 65.95 222.35 64.75 221.65 63.05 222.3 61.25 222.95 60.25 224.15 59.85 224.1 59.45 224.1 59.05 224.1 58.6 224.1 58.95 223.75 60.45 221.3 61.9 218.85 61.9 218.6 61.9 218.2 61.9 217.95 61.25 217.75 60.7 217.55 59.15 217.9 56.7 219.95 53.75 222.45 53.25 222.45 52.35 222.45 50.65 221.5 48.95 220.55 48 220.55 47.5 220.55 45.2 223 44.8 222.55 44.45 222.2 42.3 220 40.35 219.8 40.35 220 39.75 220.2 39.8 220.35 40.95 222.1 42 223.7 42 224.3 42 224.6 41.2 225.7 31.8 226.6 23.6 227.05 23.35 227.6 23.05 228.15 19.85 227.1 13.35 230.9 11 232.3 9.1 233.7 8.4 233.8 7.65 233.85 2.45 234.35 0 236.3
L 0 244.8
Q 22.05 241.2 46.7 241.2 103 241.2 145.7 259.9 154.7 263.8 163.1 268.6 178.7 277.45 189.3 287.55 249.5 278.1 319.95 278.1 374.7 278.1 423.25 283.8 425.5 284.05 427.8 284.35
L 428.15 281.2
Q 446.9 271.65 468.5 265.5 507.35 254.35 555.25 254.35 573.8 254.35 590.95 256.05
L 590.95 244.9
Q 589.6 244.5 588.2 243.8 588.3 242.65 588.1 241.6 587.6 239.05 585 239.05 584.65 239.05 584.4 239.1 584.55 238.45 584.65 238.05 585.15 236.25 583.15 235.3 582.6 236.25 579.85 238.55 579.2 238.3 578.75 238.3 577.95 238.3 575.75 240.3 573.5 242.3 571.8 242.3 571.35 241.8 570.65 241.3 570.25 241 569.85 240.8 569.1 238.9 568.6 237.7
L 567.85 237.7
Q 567.85 239.65 567.75 240.3 567.6 240.25 567.5 240.25 567.45 238.7 567 238.3 566.65 238.6 566.5 238.95 566.45 239.15 566.45 239.3 566.45 239.9 566.4 240.35 566.1 240.4 565.75 240.5 565.5 239.65 564.75 237.7
L 564.4 238.3
Q 564.45 239.3 562.5 241.75 562.55 241.1 562.75 240.1 562.9 239.05 562.7 238.45 561.7 239.05 561.4 240.7 561.2 241.55 561.1 242.6 560.5 242.55 559.05 241.6 557.5 240.65 556.7 240.45 556.05 240.8 555.8 241 555.4 241.4 555.4 242.6 555.4 243.5 555.1 244 554.25 244.1 553.7 244.1 553.35 244.1 552.25 243.05 551.1 241.95 550.05 241.95 549.1 241.95 548.8 243.25 548.5 244.55 547.45 244.55 547.05 244.45 546.7 244.3 546.85 243.6 546.85 242.8 546.85 241.45 546.8 241.2 546.8 241.1 546.5 240.6 546.25 240.65 546.1 241.95 545.95 243.05 545.05 243.15 545.05 243.1 545.1 243.05 544.9 243.05 544.75 243.05 544 242.7 543.8 242.65 543.6 242.6 543 243.3 541.85 243 541 242.85 541.05 242.75 541.1 242.65 542.45 240.3 542.45 239.3 542.45 238.15 542.2 238.1
L 541.9 238.3
Q 541.4 238.5 540.9 237.9 540.25 237.15 539.25 237.15 538.8 237.15 538.4 237.35 538.05 236.4 537.7 235.45 537.6 235.45 537.55 235.5 537.7 234.5 537.85 233.95 537.25 233.5 536.95 233.4 536.55 233.3 535.25 233.3 535.1 233.3 534.15 234.7 533.2 236.05 533.1 236.05 531.75 236.05 531.45 235.55 530.9 234.6 528.3 233.4 528.4 234.25 529.15 236.9
L 529.2 236.95
Q 528.8 237.1 528.5 237.4 528.4 237.45 528.3 237.55 527.35 238.55 527.35 240.6 527.35 241.15 528.4 243.45 529.45 245.7 529.45 246.45 529.45 246.8 529.1 246.7 528.6 246.6 528.4 246.65 528 246.75 527.8 247.4 527.3 247.15 526.8 246.9 523.7 245.85 523.15 245.6 523.65 247.65 521.75 248.35 519.25 248.9 517.05 249.4 516.75 249.05 516.4 248.6 516.55 248.4 516.7 248.25 517.45 247.55 517.45 246.45 517.45 245.25 517.15 245.3
L 516.85 245.6
Q 516.15 246.15 515.9 246.35 515.45 246.7 515.25 246.7 516.15 244.75 515.45 243.35
L 514.15 244.45
Q 514.15 245.3 514.1 245.9 513.85 245.7 513.65 245.55 513.6 245.2 513.55 244.8 513.45 243.7 511.9 242.1 511.35 242.65 510.85 244.05 510.85 244.1 510.85 244.15 510.1 243.9 509.3 243.75 509.2 243.75 509.15 243.75 509.05 243.7 509 243.6 508.9 243.6 508.75 243.65 508.3 243.6 507.8 243.55 507.6 242.1 506.55 241.95 505.95 242.7 505.5 243.5 504.35 243.55 504.2 244.35 504.15 244.7 504.05 245.05 502.85 243.8 501.5 242.25
L 499.9 240.45
Q 499.55 241.2 499.5 243.15 498.2 242.7 496.25 242.7 493.85 243.15 493.3 243.25
L 492.8 243.05
Q 492.25 242.6 491.1 241.2 490.8 241.45 490.05 242.35 489.25 243.25 488.55 243.8 488.25 243.35 487.45 242.75 486.55 242.05 485.95 241.95 484.95 242.6 484.5 243.1 483.9 243.9 483 244.65 482.25 243.95 481.5 242.95 480.65 241.75 480.1 241.2 478.4 241.8 477.8 241.65 477.55 241.6 476.55 240.6 476.15 240.6 475.8 240.55
L 475.75 240.5
Q 475.1 239.5 473.95 239 473.7 237.65 473.65 237.15
L 473.1 237.15
Q 473.05 237.65 473.25 238.75 472.15 238.45 470.75 238.45 469.6 238.45 469.2 239.25 469.05 239.85 468.95 240
L 468.85 240
Q 467.95 237.95 466.65 237.4 465.25 237.25 464.75 237.15 464.65 237.6 464.8 238.75 464.75 239.7 463.6 239.7 462.75 239.7 462.55 239.5
L 462.75 240.25
Q 462.75 241.4 463.05 241.85 463.1 241.9 463.15 242 463 242.05 462.9 242.15 462.15 241.7 461.7 241.45 461.4 241.3 461.15 241.15 460.9 240.85 460.65 240.5 459.3 238.7 458.35 237.9 458.4 238.65 458.3 239.45 457.7 239.05 457.25 239.05 456.5 239.05 455.85 239.65 455.35 238.15 453.8 237.35
M 454.9 239.9
Q 455.05 240.15 455.15 240.35 454.95 240.45 454.8 240.55 454.6 239.85 454.35 239.2 454.65 239.5 454.9 239.9
M 460.3 240.85
Q 460.05 240.8 459.8 240.8 459.55 240.55 459.35 240.35 459.3 239.95 459.2 239.5
L 459.7 239.5
Q 459.75 239.55 460.3 240.85
M 441.75 236.95
Q 441.75 236.85 441.75 236.8 441.8 236.9 441.8 236.95
L 441.75 236.95
M 442.9 235.3
Q 442.9 235.6 442.95 235.9 442.7 235.55 442.5 235.2 442.65 234.95 442.7 234.9
L 442.9 235.3
M 363.45 224.8
Q 363.25 224.75 363.05 224.75 363.1 224.5 363.1 224.3 363.25 224.45 363.45 224.8
M 340.45 272.5
L 340.9 272.45
Q 341.2 272.55 341.45 272.7
L 340.9 274.55 340.45 272.6
Q 340.4 272.55 340.45 272.5
M 584.15 240.1
Q 584.2 240.85 584.35 241.3 584.1 241.1 583.9 240.95 584.05 240.5 584.15 240.1
M 581.2 238.95
L 581.2 239.2
Q 581.05 239.15 580.95 239.1 581 238.9 581 238.75 581.1 239.05 581.2 238.95
M 539.6 237.95
Q 539.8 237.95 539.95 238 540.15 239.45 539.2 240.5 539.05 239.85 538.9 239.2 539.15 238.35 539.35 238 539.35 237.95 539.6 237.95
M 125.3 236.7
Q 125 236.35 125 236.2
L 125.25 236.6 125.3 236.7
M 95.6 230.55
Q 95.7 230.45 95.8 230.4 96 230.55 96.3 230.8
L 95.6 230.55
M 91.25 230.1
L 91.75 230.1
Q 91.45 230.5 91.15 230.8 91.1 230.6 91 230.4 91.15 230.25 91.25 230.1
M 81.4 226.05
Q 81.3 226 81.15 225.95 79.9 225.65 78.9 225.4 79.45 225.35 80.1 225.35 81.2 225.35 81.3 225.7 81.35 225.9 81.4 226.05
M 111.5 234.95
Q 112.05 234.8 112.5 234.8 112.5 235.1 112.55 235.4 111.9 235.2 111.35 235.05 111.4 235 111.5 234.95
M 106.85 232.65
Q 107.1 232.7 107.55 232.75 108.15 233 108.25 233.8 107.5 233.15 106.85 232.65
M 71.05 228.2
Q 71 228.2 71 228.25 70.45 228.35 69.85 228.35 69.8 228.3 69.75 228.3
L 70.6 227.55
Q 70.75 227.8 71.05 228.2
M 295.15 229.8
Q 294.8 229.75 294.45 229.7 294.3 228.65 294.1 227.45 294.3 228.1 295.15 229.8
M 285.7 228.35
L 285.7 228.15
Q 286 228.55 286.1 228.95 285.9 228.95 285.7 228.9 285.7 228.65 285.7 228.35
M 222.25 234.7
Q 222.45 234.6 222.7 234.6 223.3 234.6 223.85 234.6 223.55 235.05 223.35 235.35 222.6 236.45 221 236.6 221.75 236.5 221.75 235.6 221.75 234.9 222.25 234.7
M 180.1 223.35
Q 180.15 223.25 180.25 223.2 180.3 223.3 180.4 223.4 180.25 223.35 180.1 223.35
M 165.5 223.95
Q 165.35 224.1 165.2 224.3
L 165.2 223.35
Q 165.25 223.15 165.3 222.95 165.5 223.35 165.7 223.8 165.6 223.85 165.5 223.95
M 193.9 227.75
Q 194.1396484375 227.941796875 194.6 227.95
L 194 227.95
Q 193.95 227.85 193.9 227.75
M 195.75 232.65
Q 195.75 232.85 195.75 233.05
L 195.75 233.15
Q 195.75 233.35 195.75 233.6
L 195.3 233.55
Q 195.55 233 195.75 232.65 Z"/>

<path fill="white" stroke="black" stroke-width="1" d="
M 195.75 233.05
Q 195.75 232.85 195.75 232.65 195.55 233 195.3 233.55
L 195.75 233.6
Q 195.75 233.35 195.75 233.15
L 195.75 233.05
M 194.6 227.95
Q 194.1396484375 227.941796875 193.9 227.75 193.95 227.85 194 227.95
L 194.6 227.95
M 165.2 224.3
Q 165.35 224.1 165.5 223.95 165.6 223.85 165.7 223.8 165.5 223.35 165.3 222.95 165.25 223.15 165.2 223.35
L 165.2 224.3
M 180.25 223.2
Q 180.15 223.25 180.1 223.35 180.25 223.35 180.4 223.4 180.3 223.3 180.25 223.2
M 222.7 234.6
Q 222.45 234.6 222.25 234.7 221.75 234.9 221.75 235.6 221.75 236.5 221 236.6 222.6 236.45 223.35 235.35 223.55 235.05 223.85 234.6 223.3 234.6 222.7 234.6
M 285.7 228.15
L 285.7 228.35
Q 285.7 228.65 285.7 228.9 285.9 228.95 286.1 228.95 286 228.55 285.7 228.15
M 294.45 229.7
Q 294.8 229.75 295.15 229.8 294.3 228.1 294.1 227.45 294.3 228.65 294.45 229.7
M 71 228.25
Q 71 228.2 71.05 228.2 70.75 227.8 70.6 227.55
L 69.75 228.3
Q 69.8 228.3 69.85 228.35 70.45 228.35 71 228.25
M 107.55 232.75
Q 107.1 232.7 106.85 232.65 107.5 233.15 108.25 233.8 108.15 233 107.55 232.75
M 112.5 234.8
Q 112.05 234.8 111.5 234.95 111.4 235 111.35 235.05 111.9 235.2 112.55 235.4 112.5 235.1 112.5 234.8
M 81.15 225.95
Q 81.3 226 81.4 226.05 81.35 225.9 81.3 225.7 81.2 225.35 80.1 225.35 79.45 225.35 78.9 225.4 79.9 225.65 81.15 225.95
M 91.75 230.1
L 91.25 230.1
Q 91.15 230.25 91 230.4 91.1 230.6 91.15 230.8 91.45 230.5 91.75 230.1
M 95.8 230.4
Q 95.7 230.45 95.6 230.55
L 96.3 230.8
Q 96 230.55 95.8 230.4
M 125 236.2
Q 125 236.35 125.3 236.7
L 125.25 236.6 125 236.2
M 539.95 238
Q 539.8 237.95 539.6 237.95 539.35 237.95 539.35 238 539.15 238.35 538.9 239.2 539.05 239.85 539.2 240.5 540.15 239.45 539.95 238
M 581.2 239.2
L 581.2 238.95
Q 581.1 239.05 581 238.75 581 238.9 580.95 239.1 581.05 239.15 581.2 239.2
M 584.35 241.3
Q 584.2 240.85 584.15 240.1 584.05 240.5 583.9 240.95 584.1 241.1 584.35 241.3
M 363.05 224.75
Q 363.25 224.75 363.45 224.8 363.25 224.45 363.1 224.3 363.1 224.5 363.05 224.75
M 442.95 235.9
Q 442.9 235.6 442.9 235.3
L 442.7 234.9
Q 442.65 234.95 442.5 235.2 442.7 235.55 442.95 235.9
M 441.75 236.8
Q 441.75 236.85 441.75 236.95
L 441.8 236.95
Q 441.8 236.9 441.75 236.8
M 459.8 240.8
Q 460.05 240.8 460.3 240.85 459.75 239.55 459.7 239.5
L 459.2 239.5
Q 459.3 239.95 459.35 240.35 459.55 240.55 459.8 240.8
M 455.15 240.35
Q 455.05 240.15 454.9 239.9 454.65 239.5 454.35 239.2 454.6 239.85 454.8 240.55 454.95 240.45 455.15 240.35
M 329.4 146.6
Q 334.85 131.85 345.8 129.9 356.8 128 366.85 139.95 377.05 152 380.35 170.9 383.7 189.8 378.3 204.55 372.95 219.3 361.95 221.2 361.15 221.35 360.35 221.4 360.25 222.3 360.1 223.4 360 223.95 359.95 224.4 361.1 224.55 362 224.65 362.4 223.55 362.95 222.05 364.15 222.75 364.6 224.3 364.7 224.6 364.8 224.95 365.7 225.25 368.45 226.9 369.45 227.5 370.2 227.9 371.1 227.75 372.15 227.5 373.35 225.95 374.3 223.65 375.5 221.95 378.55 225.55 379.05 225.65 379.8 225.7 380.1 223.9 380.1 222.9
L 380.85 222.9
Q 381.2 224.1 381.25 224.3 381.4 225 381.4 226.15 382 226.45 383.1 227.1 384.65 225.55 387.7 226.85 387.7 227.05 387.85 227 387.95 227.2 387.95 228.35 387.95 228.5 387.65 228.95 387.75 229 387.85 229 388.15 228.7 388.15 227.6
L 388.1 227.35
Q 388.3 227.05 389.45 227.05 390.7 227.05 393.25 230.45 394 231.45 394.6 232.4 395.15 231.4 395.55 231.05 395.5 231.6 395.35 232.45 396.25 232.15 397.05 231.85 397.75 231.75 399.4 233.3 399.35 233.4 398.15 234.55 398.2 234.7 398.25 234.85 398.3 235.1 398.4 235.35 399.8 235.45 402.2 238.1 404.25 240.4 404.75 241.55 404.85 241.65 404.95 241.15 405.3 240.55 406.45 240.55 407.4 240.55 407.65 241.45 407.95 242.3 408.85 242.3 410.6 242.3 411.3 240.7 410.6 239.5 410.45 238.45
L 412.5 238.5
Q 412.75 238.3 413 238.3 413.55 238.3 414.25 238.55
L 415.25 238.55
Q 415.35 238.75 415.4 239.05 416.5 239.65 417.6 239.95 417.85 240 418.05 240.05 418.1 239.6 418.05 239.15 417.7 237.75 417.7 237.15
L 418.45 236.95
Q 418.5 237 418.8 237.65
L 418.9 237.55
Q 419.2 237.8 420.65 239.35 422.65 238.15 424.05 236.8 424.45 237.6 424.55 238.15 424.6 238.6 424.6 240.05 424.6 240.4 424.6 240.75 426.45 240.15 427 238.45 426.5 237.75 426.5 237.15 426.5 233.15 428.95 234.25 429.9 234.65 430.6 235.35 430.65 235.35 430.7 235.35 432.25 235.35 433.1 236.1 433.5 236.45 434.9 236.65 435.05 236.35 435.3 236.1
L 435.3 233.95
Q 435.95 234.05 438.05 234.15 439.9 234.3 440.25 234.9 440.7 233.3 441 233.1 441.45 233.55 441.9 234.25 442.6 233.7 443.45 233.3 443.65 235.55 445.1 237.85 445.25 237.9 445.4 238 446.65 238.75 448.15 241.55 448.35 241.4 448.6 241.25 448.45 240.95 448.45 240.9 448.45 239.8 448.85 239.45 449.1 239.3 449.45 239.05 450.6 238.85 451.45 238.95 451.35 238 451.35 236.7 451.35 235.55 451.35 235.5 451.45 235.6 451.5 235.3
L 452 235.25
Q 452.65 235.2 453.5 235.3 453.6 236.2 453.8 237.35 455.35 238.15 455.85 239.65 456.5 239.05 457.25 239.05 457.7 239.05 458.3 239.45 458.4 238.65 458.35 237.9 459.3 238.7 460.65 240.5 460.9 240.85 461.15 241.15 461.4 241.3 461.7 241.45 462.15 241.7 462.9 242.15 463 242.05 463.15 242 463.1 241.9 463.05 241.85 462.75 241.4 462.75 240.25
L 462.55 239.5
Q 462.75 239.7 463.6 239.7 464.75 239.7 464.8 238.75 464.65 237.6 464.75 237.15 465.25 237.25 466.65 237.4 467.95 237.95 468.85 240
L 468.95 240
Q 469.05 239.85 469.2 239.25 469.6 238.45 470.75 238.45 472.15 238.45 473.25 238.75 473.05 237.65 473.1 237.15
L 473.65 237.15
Q 473.7 237.65 473.95 239 475.1 239.5 475.75 240.5
L 475.8 240.55
Q 476.15 240.6 476.55 240.6 477.55 241.6 477.8 241.65 478.4 241.8 480.1 241.2 480.65 241.75 481.5 242.95 482.25 243.95 483 244.65 483.9 243.9 484.5 243.1 484.95 242.6 485.95 241.95 486.55 242.05 487.45 242.75 488.25 243.35 488.55 243.8 489.25 243.25 490.05 242.35 490.8 241.45 491.1 241.2 492.25 242.6 492.8 243.05
L 493.3 243.25
Q 493.85 243.15 496.25 242.7 498.2 242.7 499.5 243.15 499.55 241.2 499.9 240.45
L 501.5 242.25
Q 502.85 243.8 504.05 245.05 504.15 244.7 504.2 244.35 504.35 243.55 505.5 243.5 505.95 242.7 506.55 241.95 507.6 242.1 507.8 243.55 508.3 243.6 508.75 243.65 508.9 243.6 509 243.6 509.05 243.7 509.15 243.75 509.2 243.75 509.3 243.75 510.1 243.9 510.85 244.15 510.85 244.1 510.85 244.05 511.35 242.65 511.9 242.1 513.45 243.7 513.55 244.8 513.6 245.2 513.65 245.55 513.85 245.7 514.1 245.9 514.15 245.3 514.15 244.45
L 515.45 243.35
Q 516.15 244.75 515.25 246.7 515.45 246.7 515.9 246.35 516.15 246.15 516.85 245.6
L 517.15 245.3
Q 517.45 245.25 517.45 246.45 517.45 247.55 516.7 248.25 516.55 248.4 516.4 248.6 516.75 249.05 517.05 249.4 519.25 248.9 521.75 248.35 523.65 247.65 523.15 245.6 523.7 245.85 526.8 246.9 527.3 247.15 527.8 247.4 528 246.75 528.4 246.65 528.6 246.6 529.1 246.7 529.45 246.8 529.45 246.45 529.45 245.7 528.4 243.45 527.35 241.15 527.35 240.6 527.35 238.55 528.3 237.55 528.4 237.45 528.5 237.4 528.8 237.1 529.2 236.95
L 529.15 236.9
Q 528.4 234.25 528.3 233.4 530.9 234.6 531.45 235.55 531.75 236.05 533.1 236.05 533.2 236.05 534.15 234.7 535.1 233.3 535.25 233.3 536.55 233.3 536.95 233.4 537.25 233.5 537.85 233.95 537.7 234.5 537.55 235.5 537.6 235.45 537.7 235.45 538.05 236.4 538.4 237.35 538.8 237.15 539.25 237.15 540.25 237.15 540.9 237.9 541.4 238.5 541.9 238.3
L 542.2 238.1
Q 542.45 238.15 542.45 239.3 542.45 240.3 541.1 242.65 541.05 242.75 541 242.85 541.85 243 543 243.3 543.6 242.6 543.8 242.65 544 242.7 544.75 243.05 544.9 243.05 545.1 243.05 545.05 243.1 545.05 243.15 545.95 243.05 546.1 241.95 546.25 240.65 546.5 240.6 546.8 241.1 546.8 241.2 546.85 241.45 546.85 242.8 546.85 243.6 546.7 244.3 547.05 244.45 547.45 244.55 548.5 244.55 548.8 243.25 549.1 241.95 550.05 241.95 551.1 241.95 552.25 243.05 553.35 244.1 553.7 244.1 554.25 244.1 555.1 244 555.4 243.5 555.4 242.6 555.4 241.4 555.8 241 556.05 240.8 556.7 240.45 557.5 240.65 559.05 241.6 560.5 242.55 561.1 242.6 561.2 241.55 561.4 240.7 561.7 239.05 562.7 238.45 562.9 239.05 562.75 240.1 562.55 241.1 562.5 241.75 564.45 239.3 564.4 238.3
L 564.75 237.7
Q 565.5 239.65 565.75 240.5 566.1 240.4 566.4 240.35 566.45 239.9 566.45 239.3 566.45 239.15 566.5 238.95 566.65 238.6 567 238.3 567.45 238.7 567.5 240.25 567.6 240.25 567.75 240.3 567.85 239.65 567.85 237.7
L 568.6 237.7
Q 569.1 238.9 569.85 240.8 570.25 241 570.65 241.3 571.35 241.8 571.8 242.3 573.5 242.3 575.75 240.3 577.95 238.3 578.75 238.3 579.2 238.3 579.85 238.55 582.6 236.25 583.15 235.3 585.15 236.25 584.65 238.05 584.55 238.45 584.4 239.1 584.65 239.05 585 239.05 587.6 239.05 588.1 241.6 588.3 242.65 588.2 243.8 589.6 244.5 590.95 244.9
L 590.95 0 0 0 0 236.3
Q 2.45 234.35 7.65 233.85 8.4 233.8 9.1 233.7 11 232.3 13.35 230.9 19.85 227.1 23.05 228.15 23.35 227.6 23.6 227.05 31.8 226.6 41.2 225.7 42 224.6 42 224.3 42 223.7 40.95 222.1 39.8 220.35 39.75 220.2 40.35 220 40.35 219.8 42.3 220 44.45 222.2 44.8 222.55 45.2 223 47.5 220.55 48 220.55 48.95 220.55 50.65 221.5 52.35 222.45 53.25 222.45 53.75 222.45 56.7 219.95 59.15 217.9 60.7 217.55 56.7 215.85 53.9 210 50.2 202.15 50.8 191.3 51.45 180.5 56.05 173.05 60.7 165.65 66.65 166 72.6 166.35 76.35 174.25 80.05 182.15 79.4 192.95 78.8 203.8 74.2 211.2 69.55 218.55 63.6 218.2 62.7 218.15 61.9 217.95 61.9 218.2 61.9 218.6 61.9 218.85 60.45 221.3 58.95 223.75 58.6 224.1 59.05 224.1 59.45 224.1 59.85 224.1 60.25 224.15 61.25 222.95 63.05 222.3 64.75 221.65 65.95 222.35 67.25 223.15 67.25 225.35
L 67.25 225.4
Q 68.85 225.7 70.05 226.25 70.8 226.2 70.9 226.3
L 71.05 226.75
Q 71.6 227.1 72.05 227.55 72.45 227.25 72.95 226.9 73.05 226.75 73.1 226.6 74 224.85 75 224.85 75.2 224.85 75.4 224.85 77.9 222.6 77.95 222.6 83.15 222.6 83.75 223.7 83.85 223.85 83.35 225.5 83.75 225.8 84.15 226.2 84.45 226.5 84.75 226.75 86.4 227.05 87.5 227.05 88.5 227.05 89.55 228.2 90 228.2 90.55 228.2 92.2 227.45 93 227.2 94 227.25 95.2 228.05 96.1 227.05 96.3 227.05 97.6 227.05 98.1 227.2 98.3 227.3 99.1 227.8 99.1 227.9 99.15 228 99.4 227.95 99.7 227.95
L 100.05 228.7
Q 99.9 229.1 99.3 230.45 101.05 230.85 103.7 230.8 103.75 230.8 103.85 230.85
L 107.75 230.85 108.4 231.95
Q 109.15 233.1 109.9 233.5 110.6 233.2 111.4 231.6 113.35 231.75 114.65 233.75 115.45 234.95 115.45 235.9 116.45 235.95 117.3 236.05 117.35 236.25 117.45 236.55 119.85 237 122.75 237.4 123.05 236.5 123.7 234.75 124.6 232.1 125 231.45 125.2 231.65 127.45 233.15 127.7 233.3 127.95 233.45 127.6 232.65 127.6 232 127.75 231.95 128.9 232.35 130.25 232.75 131.2 232.65
L 131.15 232.75
Q 131.2 232.75 131.3 232.7 131.4 232.45 131.55 232.2 131.7 231.9 131.9 231.65 131.7 231.35 131.55 231.1 129.35 227.4 129.1 227.05 129.5 226.85 129.5 226.65 130.25 227.25 132.75 229.8 133 230.05 133.25 230.3 133.55 230.1 133.9 230.1 135.1 230.1 135.9 231.5 136.35 231.4 136.85 231.3 137.35 227.05 138.4 227.1 138.55 227.1 139.85 227.45 140.1 225.6 140.2 224.6
L 140.65 224.6
Q 141.05 225.55 141.1 227.8 143.05 228.35 145.05 228.35 145.1 228.35 145.95 228.1 146 227.7 146.1 227.3 146.35 226.15 146.55 225.15 146.95 223.25 147.1 221.85
L 148.25 221.85
Q 148.75 222.4 148.8 223.7 148.8 223.65 148.85 223.6 148.95 223.35 150.1 223.35 151.2 223.35 151.7 225.15 151.85 225.7 151.95 226.2 154.7 225.35 156.25 225.05 156.6 224.75 156.95 224.6 156.3 222.6 156 221.5 156.75 221.3 156.75 221.1 158.75 222.1 159.5 222.2 159.6 222.25 160.6 222.25 160.7 222.15 160.8 222.05 161.05 221.85 161.25 221.7 160.8 219.25 160.8 218.1 160.8 216.95 161 217.4 161.1 217.6 161.2 218.05
L 161.2 217.75
Q 161.8 218.6 162.25 221.2 163.1 220.85 164 220.95 164.1 220.85 164.1 220.75 165.8 221.3 166.4 223.15 166.45 222.95 166.55 222.75 167.65 220.15 168.85 219.8
L 169.05 219.55
Q 169.25 219.5 169.25 220.65 169.25 221.6 168.8 223.05 169.05 223.05 169.35 223.05 169.9 221.5 170.95 220.95
L 171.3 222.05
Q 171.1 222.2 170.95 222.6 171.3 222.45 171.7 222.35 171.6 222.45 170.95 223.1 171.85 223.15 172.85 223.25 173.05 223.05 173.2 222.8 173.2 222.5 172.9 221.95 172.5 221.2 172.45 221.1
L 172.45 217.85
Q 172.7 217.75 173.95 218 175.85 218.35 177.2 218.5
L 177.2 222.4
Q 177.8 221.25 178.9 222.45 179.4 222 179.95 221.5 180.55 222 181.2 222.9
L 181.9 222.9
Q 182.25 223.75 182.3 224.25 182.3 224.4 182.35 224.65 182.35 224.7 182.4 224.75 183.4 224.85 183.95 224.85 184.05 224.85 184.1 224.85
L 184.15 223.65 184.9 223.65
Q 185.05 224.3 185.15 224.95 185.95 225.15 186.15 225.65 186.3 226.05 186.2 226.45 187.15 226.45 187.3 225.65 187.45 224.85 188.35 224.85 189.1 224.85 189.8 225.2 190 225.05 190.25 224.95 190.2 225.15 190.2 225.4 191.15 226.05 191.95 227.45 193.15 226.6 194.45 226.85
L 194.75 227.2
Q 195.05 227.5 195.15 227.8 195.45 227.35 195.75 227.2 196.15 227.25 196.45 227.5 196.55 226.75 196.7 225.9
L 197.45 225.9
Q 197.55 228.05 197.75 232.2 197.75 232.7 197.65 233.85 198.25 233.9 198.8 234 199.65 233.45 200.35 233.4 200.25 233.75 200.1 234.1 201.75 234.25 202.45 234.25 202.75 234.25 203.05 234.25 202.95 234.1 202.9 234 202.3 233.2 201.85 232.35
L 202.05 231.8
Q 203 232 206.05 232.75 206.85 231.45 207.5 231.45 207.95 231.45 208.55 231.6 208.7 231.1 209 230.8
L 210.1 230.85
Q 210.35 231.2 210.1 232 210.1 232.05 210.05 232.15 210.3 232.25 210.55 232.35 210.8 232.45 211.1 232.6 211.2 232.5 211.35 232.4 211.4 232.35 212 231.45 213.55 231.9 213.5 232.05 213.4 232.5 215.25 233.6 215.45 233.35 215.9 231.85 216.6 230.45 218.25 230.1 219.15 232.25 219.85 234.85 220.75 234.75 222.25 234.6 222.45 234.6 222.65 234.55
L 222.7 234.55
Q 223.3 234.5 223.95 234.4 224.25 233.9 224.65 233.3 225.1 233.8 225.5 234.25 225.6 234.25 225.8 234.25 227.2 233.35 228.85 232.35 231.35 232.4 233.1 232.55 233.45 231.65 233.45 231.4 233.35 230.85 233.35 229.75
L 233.5 229.6
Q 233.7 229.4 234.1 229.3 234.85 229.4 235.5 230.05 236 230.5 236.2 230.9 236.2 230.95 236.25 231.05
L 238.25 231.05
Q 238.35 230.3 238.4 229.2 238.45 228.6 238.45 227.95 237.8 228.1 237.05 228.6 236.05 229.25 235.7 229 236.9 227.75 238.5 227.3 238.5 226.7 238.5 226.1 238.5 225.3 238.5 224.4 240.1 224.45 241.4 224.3 242.2 224.2 243.15 224.15 243.10078125 224.39609375 243.1 224.9 243.109765625 224.5447265625 243.55 224.3 244.15 222.45 245.45 222.05
L 245.85 222.8
Q 245.75 223.25 245.7 223.8 246.2 223.75 246.85 223.75 250.2 223.8 251.35 224.3 251.45 224.35 251.65 225.2 251.75 225.9 252.85 225.9 253.15 225.9 258 224.25 258 223.6 258 223.1
L 258.5 223.1
Q 258.7 223.55 258.7 223.7 258.7 223.8 258.75 224.15 259.9 224.25 261.1 224.9 262.5 225.65 263 226.65 263.05 226.6 263.65 226
L 263.65 225.15 264.4 225.15 264.4 225.2
Q 264.65 224.95 264.85 224.8 264.35 223.95 263.95 224.2
L 263.95 222.25
Q 265.75 222.4 266.6 224.45 266.95 224.5 267.35 224.65
L 267.4 224.2 268.35 224.2
Q 268.7 224.65 268.95 225.2 270.15 225.55 271.6 225.55 271.9 225.55 272.15 225.6 272 224.4 272 223.55 272 222.4 272.2 222.25 272.25 222.2 272.35 222.35
L 273.3 222.25
Q 273.55 223.5 273.75 225.9 274.75 226.25 275.4 227.05 276.2 225 278.65 225.9 278.35 226.5 278.05 227.55 278.6 227.5 279 227.4
L 279 224.95 280.05 224.95
Q 280.85 226.05 281.2 227.6 283.05 227.4 283.5 226.25 283.9 225.1 285.95 224.95 287.4 227.05 287.8 228.2 288 228.8 288.05 229.3 288.9 229.5 289.6 229.75 289.65 229.3 289.7 228.8
L 290.95 228.8
Q 290.95 229.25 291 229.9 291.75 229.7 292.6 229.65 292.6 229.3 292.6 229 292.6 227.9 292.9 227.4 293.2 226.9 293.2 226.65
L 293.95 226.65
Q 294 225.95 294.2 226.1 294.3 226.25 294.4 226.45 296 227.35 297.25 230.35 297.45 230.4 297.7 230.5 297.75 230.05 297.75 229.75 297.75 228.55 298.45 228.3 298.55 228.25 299.75 228.25
L 300 229.1
Q 299.95 229.25 299.9 229.4 300 229.5 300 230.7 300 230.95 299.9 231.6 300.4 231.95 300.9 232.3 302.25 233.35 303.2 234.6 303.4 234.3 303.55 233.95 304 232.9 304.05 231.45
L 304.05 230.85 309.2 230.3
Q 310.4 229.85 311.5 227.9 312.6 225.95 313.25 225.7 313.7 227.1 313.45 229.55 313.75 229.55 315.75 229.9 318 230.25 318.6 230.5 320.35 229.15 320.2 228.85 319.9 228.25 320.25 227.6
L 320.45 227.2 321.3 227.05 323.2 227.2
Q 323.2 228.45 323.5 230.7 324.65 230.55 325.7 230.5 325.65 230.4 325.6 230.3 326 230.3 327.45 230.25 328.2 230.25 329.05 230.3 330.1 230.25 331.05 230.3 332.5 225.55 333.45 226.25 333.7 226.5 334.4 227.15 334.55 226.8 334.75 226.45 335.6 225.65 337.05 225.5
L 338.65 223.55
Q 339.95 223.75 340.4 224.7 340.45 224.8 340.6 224.95 340.55 224.2 340.45 223.05 340.15 220.8 340.15 220.1 340.15 218.8 340.25 218.5 340.35 218.35 340.8 218.2 341.45 218.9 344.25 220.8 346.7 222.85 346.7 224.6 346.7 224.65 346.55 224.9 347 224.55 347.8 224.15 349.35 223.35 349.7 223.35 350.85 223.35 351.7 223.8 352 224 352.65 224.4 353.55 224.3 354.3 224.25 354.8 223.3 355.25 222.15 355.45 221.6 355.65 221.15 348.05 219.7 340.85 211.2 330.75 199.15 327.4 180.25 324.1 161.35 329.4 146.6
M 557.1 187.65
Q 562.8 188.65 565.7 196.25 568.55 203.9 566.85 213.65 565.15 223.4 559.95 229.6 554.7 235.85 549 234.85 543.3 233.85 540.45 226.25 537.55 218.65 539.25 208.9 540.95 199.15 546.2 192.9 551.4 186.65 557.1 187.65
M 490.85 103.55
Q 505.05 122.95 508.55 152.3 512 181.7 502.7 203.85 493.45 226.05 476.75 228.05 460.05 230 445.8 210.6 431.6 191.25 428.15 161.85 424.65 132.5 433.95 110.3 443.2 88.15 459.9 86.2 476.6 84.2 490.85 103.55
M 167.2 99.25
Q 174.6 119.65 169.9 145.8 165.15 171.9 151.1 188.4 137 204.95 121.85 202.2 106.65 199.45 99.25 179.05 91.85 158.65 96.6 132.55 101.3 106.4 115.35 89.9 129.45 73.4 144.65 76.15 159.8 78.9 167.2 99.25
M 217.3 189.05
Q 211.8 174.05 215.55 155.25 219.3 136.45 230.1 124.75 240.85 113 252.4 115.3 263.9 117.6 269.4 132.55 274.85 147.5 271.1 166.3 267.35 185.1 256.6 196.85 245.8 208.55 234.3 206.25 222.75 203.95 217.3 189.05
M 141.95 179.15
L 141.95 179.1 141.7 179.1
Q 141.8056640625 179.101953125 141.95 179.15
M 124.1 184.65
Q 123.95 184.3 123.75 183.4 122.85 179.5 124.35 186.5
L 124.1 184.65
M 136.7 138.5
Q 133 146.05 131.65 146.05 128.1 146.05 124.7 123.15 116.45 77.3 122.9 125.65 129.3 173.95 127.4 165.7 125.5 157.45 124.35 161.5 119.95 159.75 106.1 133.2 116.7 155.7 120.35 164.9 123.8 173.5 124.3 179.85 125 179.2 126.35 178.5 129.2 176.95 132 176.95 132.75 176.95 137.1 177.75 138.2 177.95 155.3 182.55 137.7 177.35 136.35 176.05 133.15 172.9 133.15 169.55 133.15 161.15 145.45 155.3 148.35 153.9 155.1 151.4 160.45 149.4 161.95 148.3 157.75 149.5 150.55 152.7 145.7 154.85 141.95 154.85 138.1 154.85 136.8 154.1 134.65 152.85 147.3 107.2 159.95 61.55 136.7 138.5 Z"/>

<path fill="white" stroke="black" stroke-width="1" d="
M 340.9 272.45
L 340.45 272.5
Q 340.4 272.55 340.45 272.6
L 340.9 274.55 341.45 272.7
Q 341.2 272.55 340.9 272.45 Z"/>
</g>

<g id="Layer0_1_FILL">
<path fill="white" stroke="black" stroke-width="1" d="
M 106.5 90.25
Q 109.4 88.85 116.15 86.35 121.5 84.35 123 83.25 118.8 84.45 111.6 87.65 106.75 89.8 103 89.8 99.15 89.8 97.85 89.05 95.69453125 87.799609375 108.35 42.15 121.0158203125 -3.4990234375 97.7 73.45 94.043359375 81 92.7 81 89.1587890625 81 85.75 58.1 77.50859375 12.248828125 83.9 60.55 90.3427734375 108.9029296875 88.45 100.65 86.55234375 92.3982421875 85.4 96.45 81.0177734375 94.7060546875 67.15 68.15 77.726171875 90.640625 81.4 99.8 84.852734375 108.4380859375 85.35 114.75 86.066015625 114.1615234375 87.4 113.45 90.25 111.9 93.05 111.9 93.8 111.9 98.15 112.7 99.2658203125 112.8955078125 116.35 117.5 98.73828125 112.3185546875 97.4 111 94.2 107.85 94.2 104.5 94.2 96.1 106.5 90.25 Z"/>
</g>

<g id="Layer0_1_MEMBER_0_FILL">
<path fill="white" stroke="black" stroke-width="1" d="
M 51.55 183.8
Q 55.15 184.05 69.5 187.3 83.85 190.55 87.75 193.65
L 87.75 193
Q 86.6 190.15 84.45 171.1 82.3375 152.8068359375 85.55 122.25 85.70703125 120.9853515625 85.85 119.7 86.6 112.95 89.9 93.15 86.85 108.2 86.8 108.7 85.0568359375 118.0962890625 83.65 122.25 83.389453125 122.98125 83.15 123.55 80.3 133.35 76.1 143.6 69.7 159.15 62.55 169.1 54.4 180.55 47.05 181.85 48 181.85 48 182.7 47.95 183.55 51.55 183.8 Z"/>
</g>

<g id="Layer0_2_FILL">
<path fill="white" stroke="black" stroke-width="1" d="
M 106.5 90.25
Q 109.4 88.85 116.15 86.35 121.5 84.35 123 83.25 118.8 84.45 111.6 87.65 106.75 89.8 103 89.8 99.15 89.8 97.85 89.05 95.69453125 87.799609375 108.35 42.15 121.0158203125 -3.4990234375 97.7 73.45 94.043359375 81 92.7 81 89.1587890625 81 85.75 58.1 77.50859375 12.248828125 83.9 60.55 90.3427734375 108.9029296875 88.45 100.65 86.55234375 92.3982421875 85.4 96.45 81.0177734375 94.7060546875 67.15 68.15 77.726171875 90.640625 81.4 99.8 84.852734375 108.4380859375 85.35 114.75 86.066015625 114.1615234375 87.4 113.45 90.25 111.9 93.05 111.9 93.8 111.9 98.15 112.7 99.2658203125 112.8955078125 116.35 117.5 98.73828125 112.3185546875 97.4 111 94.2 107.85 94.2 104.5 94.2 96.1 106.5 90.25 Z"/>
</g>

<g id="Layer0_2_MEMBER_0_FILL">
<path fill="white" stroke="black" stroke-width="1" d="
M 51.55 183.8
Q 55.15 184.05 69.5 187.3 83.85 190.55 87.75 193.65
L 87.75 193
Q 86.6 190.15 84.45 171.1 82.3375 152.8068359375 85.55 122.25 85.70703125 120.9853515625 85.85 119.7 86.6 112.95 89.9 93.15 86.85 108.2 86.8 108.7 85.0568359375 118.0962890625 83.65 122.25 83.389453125 122.98125 83.15 123.55 80.3 133.35 76.1 143.6 69.7 159.15 62.55 169.1 54.4 180.55 47.05 181.85 48 181.85 48 182.7 47.95 183.55 51.55 183.8 Z"/>
</g>

<g id="Layer0_3_FILL">
<path fill="white" stroke="black" stroke-width="1" d="
M 106.5 90.25
Q 109.4 88.85 116.15 86.35 121.5 84.35 123 83.25 118.8 84.45 111.6 87.65 106.75 89.8 103 89.8 99.15 89.8 97.85 89.05 95.69453125 87.799609375 108.35 42.15 121.0158203125 -3.4990234375 97.7 73.45 94.043359375 81 92.7 81 89.1587890625 81 85.75 58.1 77.50859375 12.248828125 83.9 60.55 90.3427734375 108.9029296875 88.45 100.65 86.55234375 92.3982421875 85.4 96.45 81.0177734375 94.7060546875 67.15 68.15 77.726171875 90.640625 81.4 99.8 84.852734375 108.4380859375 85.35 114.75 86.066015625 114.1615234375 87.4 113.45 90.25 111.9 93.05 111.9 93.8 111.9 98.15 112.7 99.2658203125 112.8955078125 116.35 117.5 98.73828125 112.3185546875 97.4 111 94.2 107.85 94.2 104.5 94.2 96.1 106.5 90.25 Z"/>
</g>

<g id="Layer0_3_MEMBER_0_FILL">
<path fill="white" stroke="black" stroke-width="1" d="
M 51.55 183.8
Q 55.15 184.05 69.5 187.3 83.85 190.55 87.75 193.65
L 87.75 193
Q 86.6 190.15 84.45 171.1 82.3375 152.8068359375 85.55 122.25 85.70703125 120.9853515625 85.85 119.7 86.6 112.95 89.9 93.15 86.85 108.2 86.8 108.7 85.0568359375 118.0962890625 83.65 122.25 83.389453125 122.98125 83.15 123.55 80.3 133.35 76.1 143.6 69.7 159.15 62.55 169.1 54.4 180.55 47.05 181.85 48 181.85 48 182.7 47.95 183.55 51.55 183.8 Z"/>
</g>

<g id="Layer0_4_FILL">
<path fill="white" stroke="black" stroke-width="1" d="
M 106.5 90.25
Q 109.4 88.85 116.15 86.35 121.5 84.35 123 83.25 118.8 84.45 111.6 87.65 106.75 89.8 103 89.8 99.15 89.8 97.85 89.05 95.69453125 87.799609375 108.35 42.15 121.0158203125 -3.4990234375 97.7 73.45 94.043359375 81 92.7 81 89.1587890625 81 85.75 58.1 77.50859375 12.248828125 83.9 60.55 90.3427734375 108.9029296875 88.45 100.65 86.55234375 92.3982421875 85.4 96.45 81.0177734375 94.7060546875 67.15 68.15 77.726171875 90.640625 81.4 99.8 84.852734375 108.4380859375 85.35 114.75 86.066015625 114.1615234375 87.4 113.45 90.25 111.9 93.05 111.9 93.8 111.9 98.15 112.7 99.2658203125 112.8955078125 116.35 117.5 98.73828125 112.3185546875 97.4 111 94.2 107.85 94.2 104.5 94.2 96.1 106.5 90.25 Z"/>
</g>

<g id="Layer0_4_MEMBER_0_FILL">
<path fill="white" stroke="black" stroke-width="1" d="
M 51.55 183.8
Q 55.15 184.05 69.5 187.3 83.85 190.55 87.75 193.65
L 87.75 193
Q 86.6 190.15 84.45 171.1 82.3375 152.8068359375 85.55 122.25 85.70703125 120.9853515625 85.85 119.7 86.6 112.95 89.9 93.15 86.85 108.2 86.8 108.7 85.0568359375 118.0962890625 83.65 122.25 83.389453125 122.98125 83.15 123.55 80.3 133.35 76.1 143.6 69.7 159.15 62.55 169.1 54.4 180.55 47.05 181.85 48 181.85 48 182.7 47.95 183.55 51.55 183.8 Z"/>
</g>

<g id="Layer0_5_FILL">
<path fill="white" stroke="black" stroke-width="1" d="
M 106.5 90.25
Q 109.4 88.85 116.15 86.35 121.5 84.35 123 83.25 118.8 84.45 111.6 87.65 106.75 89.8 103 89.8 99.15 89.8 97.85 89.05 95.69453125 87.799609375 108.35 42.15 121.0158203125 -3.4990234375 97.7 73.45 94.043359375 81 92.7 81 89.1587890625 81 85.75 58.1 77.50859375 12.248828125 83.9 60.55 90.3427734375 108.9029296875 88.45 100.65 86.55234375 92.3982421875 85.4 96.45 81.0177734375 94.7060546875 67.15 68.15 77.726171875 90.640625 81.4 99.8 84.852734375 108.4380859375 85.35 114.75 86.066015625 114.1615234375 87.4 113.45 90.25 111.9 93.05 111.9 93.8 111.9 98.15 112.7 99.2658203125 112.8955078125 116.35 117.5 98.73828125 112.3185546875 97.4 111 94.2 107.85 94.2 104.5 94.2 96.1 106.5 90.25 Z"/>
</g>

<g id="Layer0_5_MEMBER_0_FILL">
<path fill="white" stroke="black" stroke-width="1" d="
M 51.55 183.8
Q 55.15 184.05 69.5 187.3 83.85 190.55 87.75 193.65
L 87.75 193
Q 86.6 190.15 84.45 171.1 82.3375 152.8068359375 85.55 122.25 85.70703125 120.9853515625 85.85 119.7 86.6 112.95 89.9 93.15 86.85 108.2 86.8 108.7 85.0568359375 118.0962890625 83.65 122.25 83.389453125 122.98125 83.15 123.55 80.3 133.35 76.1 143.6 69.7 159.15 62.55 169.1 54.4 180.55 47.05 181.85 48 181.85 48 182.7 47.95 183.55 51.55 183.8 Z"/>
</g>

<g id="Layer0_6_FILL">
<path fill="white" stroke="black" stroke-width="1" d="
M 106.5 90.25
Q 109.4 88.85 116.15 86.35 121.5 84.35 123 83.25 118.8 84.45 111.6 87.65 106.75 89.8 103 89.8 99.15 89.8 97.85 89.05 95.69453125 87.799609375 108.35 42.15 121.0158203125 -3.4990234375 97.7 73.45 94.043359375 81 92.7 81 89.1587890625 81 85.75 58.1 77.50859375 12.248828125 83.9 60.55 90.3427734375 108.9029296875 88.45 100.65 86.55234375 92.3982421875 85.4 96.45 81.0177734375 94.7060546875 67.15 68.15 77.726171875 90.640625 81.4 99.8 84.852734375 108.4380859375 85.35 114.75 86.066015625 114.1615234375 87.4 113.45 90.25 111.9 93.05 111.9 93.8 111.9 98.15 112.7 99.2658203125 112.8955078125 116.35 117.5 98.73828125 112.3185546875 97.4 111 94.2 107.85 94.2 104.5 94.2 96.1 106.5 90.25 Z"/>
</g>

<g id="Layer0_6_MEMBER_0_FILL">
<path fill="white" stroke="black" stroke-width="1" d="
M 51.55 183.8
Q 55.15 184.05 69.5 187.3 83.85 190.55 87.75 193.65
L 87.75 193
Q 86.6 190.15 84.45 171.1 82.3375 152.8068359375 85.55 122.25 85.70703125 120.9853515625 85.85 119.7 86.6 112.95 89.9 93.15 86.85 108.2 86.8 108.7 85.0568359375 118.0962890625 83.65 122.25 83.389453125 122.98125 83.15 123.55 80.3 133.35 76.1 143.6 69.7 159.15 62.55 169.1 54.4 180.55 47.05 181.85 48 181.85 48 182.7 47.95 183.55 51.55 183.8 Z"/>
</g>

<g id="Layer0_7_FILL">
<path fill="white" stroke="black" stroke-width="1" d="
M 384.3 218.75
Q 386.687109375 217.4328125 389.2 216.15 407.9748046875 206.575390625 429.5 200.4 358.2158203125 177.55 258.6 177.55 171.9693359375 177.55 106.7 194.8 115.7435546875 198.7712890625 124.15 203.55 139.7677734375 212.4189453125 150.3 222.45 210.5525390625 213.05 281 213.05 335.7384765625 213.05 384.3 218.75 Z"/>
</g>

<g id="Layer0_8_MEMBER_0_FILL">
<path fill="white" stroke="black" stroke-width="1" d="
M 339.45 407.65
L 428 407.65 374.55 352.1 307.55 353.3 339.45 407.65
M 233.55 354.3
L 160.3 355.25 127.85 407.65 234.25 407.65 233.55 354.3
M 233.1 323.05
L 233.55 354.3 307.55 353.3 288.9 321.5 233.1 323.05
M 233.1 323.05
L 232.75 297.2 196.3 297.05 179.3 324.55 233.1 323.05
M 318.95 294.25
L 273.6 295.45 288.9 321.5 343.5 319.8 318.95 294.25
M 128.95 325.9
L 128.5 325.4 96.75 356.1 160.3 355.25 179.3 324.55 128.95 325.9 Z"/>

<path fill="white" stroke="black" stroke-width="1" d="
M 307.55 353.3
L 233.55 354.3 234.25 407.65 339.45 407.65 307.55 353.3
M 233.1 323.05
L 179.3 324.55 160.3 355.25 233.55 354.3 233.1 323.05
M 232.75 297.2
L 233.1 323.05 288.9 321.5 273.6 295.45 232.75 297.2
M 160.3 355.25
L 96.75 356.1 44.25 406.9 44.25 407.65 127.85 407.65 160.3 355.25
M 156.15 298.65
L 128.5 325.4 128.95 325.9 179.3 324.55 196.3 297.05 156.15 298.65
M 374.55 352.1
L 343.5 319.8 288.9 321.5 307.55 353.3 374.55 352.1 Z"/>
</g>

<g id="Layer0_9_FILL">
<path fill="white" stroke="black" stroke-width="1" d="
M 209.3 301
Q 184.05 301 166.15 308.25 148.3 315.55 148.3 325.8 148.3 336.05 166.15 343.3 184.05 350.6 209.3 350.6 234.55 350.6 252.4 343.3 270.3 336.05 270.3 325.8 270.3 315.55 252.4 308.25 234.55 301 209.3 301
M 208.7 309.9
Q 228.75 309.9 242.95 314.4 257.15 318.95 257.15 325.35 257.15 331.75 242.95 336.25 228.75 340.8 208.7 340.8 188.65 340.8 174.45 336.25 160.25 331.75 160.25 325.35 160.25 318.95 174.45 314.4 188.65 309.9 208.7 309.9 Z"/>

<path fill="white" stroke="black" stroke-width="1" d="
M 242.95 314.4
Q 228.75 309.9 208.7 309.9 188.65 309.9 174.45 314.4 160.25 318.95 160.25 325.35 160.25 331.75 174.45 336.25 188.65 340.8 208.7 340.8 228.75 340.8 242.95 336.25 257.15 331.75 257.15 325.35 257.15 318.95 242.95 314.4 Z"/>
</g>

<g id="Layer0_9_MEMBER_0_FILL">
<path fill="white" stroke="black" stroke-width="1" d="
M 162.4 325.1
Q 162.35 325 162.3 324.85
L 162 324.85
Q 162.15 324.95 162.4 325.1
M 159.75 328.85
Q 159.95 329.15 160.15 329.55 162 332.9 162.8 332.9 176.05 332.9 198.05 334.6 220 336.3 228.5 336.3 235.95 336.3 238.45 335.8 240.6 335.35 244.55 333.2 245.7 332.55 248.15 326.65 250.7 320.35 250.7 317.1 250.7 316.6 250.65 316.15 250.1 316.3 249.15 316.3 247.75 316.3 246.25 315.85 244.8 315.4 244.1 315.4 243.55 315.4 242.1 318.8 240.6 322.15 238.35 322.15 237.4 322.15 237.1 322.05 236.15 321.65 236 320.25 235.45 320.85 233.8 323.6 232.15 326.05 230.7 326.05 229.55 326.05 228.95 324.9 228.45 323.5 228.05 323.05 227.65 323.2 226.05 325.1 224.7 326.7 222.9 326.7 221.25 326.7 219 324.85 217.25 323.4 216.75 322.45 215.3 324.25 212.15 324.25 210.9 324.25 209.2 323.65 207.7 323.05 207.6 323.05
L 207.6 322.75
Q 206.8 327.9 202.65 327.9 201.7 327.9 200.5 326.9 199.45 325.85 199.35 325.75 199.4 326.55 198.55 327.55 197.45 328.9 195.45 328.9 193.25 328.9 191.55 326.95 189.95 325.2 190.5 324.25 188.8 325.75 184.95 325.75 179.3 325.75 179.15 323.35 178.85 323.65 177.55 325.55 176.1 327.3 174.75 327.3 173.55 327.3 172.2 326.1 171.1 325.1 170.95 324.1 170.9 326.4 166.45 326.4 165.35 326.4 163.75 325.75 162.85 325.4 162.4 325.1 162.8 327 161.2 328 160.65 328.35 159.75 328.85 Z"/>

<path fill="white" stroke="black" stroke-width="1" d="
M 190.5 302.9
Q 189.85 303 189.2 303.1 189.85 303.3 190.2 303.45 190.3 303.15 190.5 302.9
M 202.2 298.35
Q 200.65 299.05 199.3 299.85 199.8 299.75 200.4 299.6 201.65 299.35 202.05 298.6 202.1 298.45 202.2 298.35
M 238.5 313.6
Q 238.4 313.6 238.2 313.45 238.05 313.3 237.6 313.3 236.95 313.3 236.55 313.5 237.6 313.8 238.5 313.6
M 242.75 309.7
Q 242.75 309.95 242.75 310.2 242.9 310 243 309.8 242.85 309.75 242.75 309.7
M 231.45 307.3
Q 231.45 306.85 231.65 306.4 231.9 305.95 232.05 305.65 231.85 305.65 231.8 305.5
L 231.75 305.35
Q 229.6 306.3 227.3 303.95 225.15 301.75 225.3 299.8 223.5 301.25 223.25 301.4 222 302.25 220.9 302.25 219.5 302.25 219.5 301.15 219.5 300.4 220.1 299.8
L 219.8 299.8
Q 218.1 301.5 214 302.2 210.25 302.55 210.15 302.55 209.7 302.55 209.1 302.1
L 208.5 301.6
Q 208.3 301.6 205.8 302.85 203.25 304.05 202.05 304.05 200.4 304.05 199.9 303.45 199.15 302.6 199.05 302.55 198.4 303.2 196.2 304.35 193.75 305.65 192.75 305.65 192.4 305.65 191.55 305.05 190.6 304.3 190.2 304.05 188.05 306.8 186.3 307.85 185 308.65 183.6 308.65 182.6 308.65 182.4 308.6 181.9 308.35 181.65 307.15 181.45 307.25 179.75 308.55 178.7 309.35 177.6 309.25 177.6 308.9 177.25 308.35 176.9 307.75 176.4 307.45 176.05 308.1 174.8 308.65 173.5 309.25 172.3 309.25 171.2 309.25 170.35 308.8 169.65 309.1 169.05 309.4 168.35 311.05 166.35 313.2 163.75 316.05 162.35 316.05
L 162.25 316.05
Q 162.4 316.1 162.6 316.3 164.25 316.35 164.3 316.4 165.05 316.6 165.35 317.8 165.5 317.35 166.15 317.25 166.5 317.2 168.3 317.2 170.85 317.2 171.25 317.4 172.05 317.85 172.7 320.25 172.5 320.25 172.45 320.4 172.4 320.5 172.4 320.55 172.65 320.3 173.9 319.8 175.15 319.35 175.5 319.35 176.6 319.35 177.25 320.05 177.95 320.8 177.9 322.15 178.15 322.05 178.45 321.9 180.35 320.9 181.6 319.15 182.6 317.8 184.95 317.8 185.7 317.8 188.6 318.75 188.6 319.95 188.3 320.25
L 188.6 320.25
Q 189.05 319.25 190.45 318.5 191.8 317.8 192.9 317.8 194.45 317.8 195.85 319.05 197.45 320.45 197.85 320.55 197.85 320.35 198 320.3
L 198.15 320.25
Q 197.75 318.65 198.5 318.25 198.8 318.1 200.4 318.1 200.8 318.1 202.55 318.45 204.35 318.75 204.7 318.75 205.7 318.75 205.95 317.7 206.15 316.6 207.45 316.6 207.95 316.6 209.15 317.2 210.35 317.8 210.6 317.8
L 211.85 317.2
Q 213.05 316.6 213.85 316.6 214.65 316.6 215.6 317.3 216.3 317.8 216.75 318.45 217.6 317.4 217.75 317.25 218.55 316.6 219.8 316.6 221.85 316.6 222.95 317.55 224.1 318.45 225 318.45 226.3 318.45 228.1 316.05 229.85 313.6 231.3 313.6 232.65 313.6 233.6 314.25 234.2 314.65 235.4 315.7 235.45 315.65 235.95 314.15 236.1 313.7 236.55 313.5 236.3 313.45 236.1 313.35 234.85 312.85 234.45 312 235.1 311.45 235.1 311.1 234.15 310.5 233.25 309.75 231.45 308.25 231.45 307.3
M 237.5 307.45
Q 237.2 307.25 236.95 307.1 236.95 307.25 236.9 307.45 237.15 307.45 237.5 307.45
M 224.85 296.4
Q 225.15 296.4 225.5 296.25 223.7 295.05 221.95 294.4 222.5 294.65 223 295.05 224.8 296.4 224.85 296.4
M 217.35 293.45
Q 216.85 293.45 216.8 293.6 216.5 294.2 216.4 294.35
L 216.4 293.75
Q 215.05 294.05 213.95 294.4 214.25 294.65 214.65 295.2 216 295.2 217 294.45 218 293.65 219.15 293.65 219.3248046875 293.65 219.55 293.65 218.4203125 293.45 217.35 293.45
M 207.4 296.3
Q 207.05 296.4 206.8 296.5 206.9 296.6 207 296.7 207.2 296.5 207.4 296.3 Z"/>

<path fill="white" stroke="black" stroke-width="1" d="
M 161.9 313.4
L 161.7 313.1
Q 160.95 313.55 159.9 313.9 159.4 314 157.95 315.55 156.2 317.45 156.2 318.9 156.2 319.7 156.9 320.8 157.5 321.7 158.1 322.15 157.8 322.75 156.85 324.3 156.2 325.3 156.2 325.75 156.2 326.5 156.85 327.8 157.6 329.2 158.4 329.5 159.15 329.15 159.75 328.85 160.65 328.35 161.2 328 162.8 327 162.4 325.1 162.15 324.95 162 324.85
L 162.3 324.85
Q 162.35 325 162.4 325.1 162.85 325.4 163.75 325.75 165.35 326.4 166.45 326.4 170.9 326.4 170.95 324.1 171.1 325.1 172.2 326.1 173.55 327.3 174.75 327.3 176.1 327.3 177.55 325.55 178.85 323.65 179.15 323.35 179.3 325.75 184.95 325.75 188.8 325.75 190.5 324.25 189.95 325.2 191.55 326.95 193.25 328.9 195.45 328.9 197.45 328.9 198.55 327.55 199.4 326.55 199.35 325.75 199.45 325.85 200.5 326.9 201.7 327.9 202.65 327.9 206.8 327.9 207.6 322.75
L 207.6 323.05
Q 207.7 323.05 209.2 323.65 210.9 324.25 212.15 324.25 215.3 324.25 216.75 322.45 217.25 323.4 219 324.85 221.25 326.7 222.9 326.7 224.7 326.7 226.05 325.1 227.65 323.2 228.05 323.05 228.45 323.5 228.95 324.9 229.55 326.05 230.7 326.05 232.15 326.05 233.8 323.6 235.45 320.85 236 320.25 236.15 321.65 237.1 322.05 237.4 322.15 238.35 322.15 240.6 322.15 242.1 318.8 243.55 315.4 244.1 315.4 244.8 315.4 246.25 315.85 247.75 316.3 249.15 316.3 250.1 316.3 250.65 316.15 250.85 316.1 251 316 251.6 315.6 251.6 314.35 251.6 311.05 249.7 310.65 247.55 310.65 246.2 310.15 245.85 310 245.9 309.6 245.4 308.95 244.55 308.95 243.65 308.95 243.4 309.3 243.25 309.45 243 309.8 242.9 310 242.75 310.2 242.75 309.95 242.75 309.7 242.55 308.6 241.45 307.85 240.35 307.15 239.1 307.15 238.1 307.35 237.5 307.45 237.15 307.45 236.9 307.45 236.95 307.25 236.95 307.1 237.1 305 235.3 303.85 232.8 302.65 231.75 301.6 231.1 299.8 230.4 298.4 229.05 295.8 226.65 295.8 226.3 295.8 225.75 296.1 225.6 296.2 225.5 296.25 225.15 296.4 224.85 296.4 224.8 296.4 223 295.05 222.5 294.65 221.95 294.4 220.75 293.9 219.6 293.7
L 219.55 293.65
Q 219.3248046875 293.65 219.15 293.65 218 293.65 217 294.45 216 295.2 214.65 295.2 214.25 294.65 213.95 294.4 213.75 294.2 213.6 294.15 213.2 293.95 212.35 293.95 209.5 293.95 207.4 296.3 207.2 296.5 207 296.7 206.9 296.6 206.8 296.5 206.05 295.8 205.6 295.8 204.75 295.8 203.85 296.45 202.9 297.15 202.2 298.35 202.1 298.45 202.05 298.6 201.65 299.35 200.4 299.6 199.8 299.75 199.3 299.85 198.1 300.15 197.55 300.4 197.3 300.5 193.5 300.95 191.4 301.15 190.5 302.9 190.3 303.15 190.2 303.45 189.85 303.3 189.2 303.1 188.65 302.95 187.9 302.75 185.9 302.25 184.8 302.25 181.75 303.7 180 304.4 178.35 305.05 177.9 305.05 177.4 304.95 176.95 304.85 176.9 304.85 176.85 304.85 175.3 304.5 174.65 304.5 173.35 304.5 171.2 307.15 170.55 307.95 169.8 308.45 170.05 308.65 170.35 308.8 171.2 309.25 172.3 309.25 173.5 309.25 174.8 308.65 176.05 308.1 176.4 307.45 176.9 307.75 177.25 308.35 177.6 308.9 177.6 309.25 178.7 309.35 179.75 308.55 181.45 307.25 181.65 307.15 181.9 308.35 182.4 308.6 182.6 308.65 183.6 308.65 185 308.65 186.3 307.85 188.05 306.8 190.2 304.05 190.6 304.3 191.55 305.05 192.4 305.65 192.75 305.65 193.75 305.65 196.2 304.35 198.4 303.2 199.05 302.55 199.15 302.6 199.9 303.45 200.4 304.05 202.05 304.05 203.25 304.05 205.8 302.85 208.3 301.6 208.5 301.6
L 209.1 302.1
Q 209.7 302.55 210.15 302.55 210.25 302.55 214 302.2 218.1 301.5 219.8 299.8
L 220.1 299.8
Q 219.5 300.4 219.5 301.15 219.5 302.25 220.9 302.25 222 302.25 223.25 301.4 223.5 301.25 225.3 299.8 225.15 301.75 227.3 303.95 229.6 306.3 231.75 305.35
L 231.8 305.5
Q 231.85 305.65 232.05 305.65 231.9 305.95 231.65 306.4 231.45 306.85 231.45 307.3 231.45 308.25 233.25 309.75 234.15 310.5 235.1 311.1 235.1 311.45 234.45 312 234.85 312.85 236.1 313.35 236.3 313.45 236.55 313.5 236.95 313.3 237.6 313.3 238.05 313.3 238.2 313.45 238.4 313.6 238.5 313.6 237.6 313.8 236.55 313.5 236.1 313.7 235.95 314.15 235.45 315.65 235.4 315.7 234.2 314.65 233.6 314.25 232.65 313.6 231.3 313.6 229.85 313.6 228.1 316.05 226.3 318.45 225 318.45 224.1 318.45 222.95 317.55 221.85 316.6 219.8 316.6 218.55 316.6 217.75 317.25 217.6 317.4 216.75 318.45 216.3 317.8 215.6 317.3 214.65 316.6 213.85 316.6 213.05 316.6 211.85 317.2
L 210.6 317.8
Q 210.35 317.8 209.15 317.2 207.95 316.6 207.45 316.6 206.15 316.6 205.95 317.7 205.7 318.75 204.7 318.75 204.35 318.75 202.55 318.45 200.8 318.1 200.4 318.1 198.8 318.1 198.5 318.25 197.75 318.65 198.15 320.25
L 198 320.3
Q 197.85 320.35 197.85 320.55 197.45 320.45 195.85 319.05 194.45 317.8 192.9 317.8 191.8 317.8 190.45 318.5 189.05 319.25 188.6 320.25
L 188.3 320.25
Q 188.6 319.95 188.6 318.75 185.7 317.8 184.95 317.8 182.6 317.8 181.6 319.15 180.35 320.9 178.45 321.9 178.15 322.05 177.9 322.15 177.95 320.8 177.25 320.05 176.6 319.35 175.5 319.35 175.15 319.35 173.9 319.8 172.65 320.3 172.4 320.55 172.4 320.5 172.45 320.4 172.5 320.25 172.7 320.25 172.05 317.85 171.25 317.4 170.85 317.2 168.3 317.2 166.5 317.2 166.15 317.25 165.5 317.35 165.35 317.8 165.05 316.6 164.3 316.4 164.25 316.35 162.6 316.3 162.4 316.1 162.25 316.05
L 162.35 316.05
Q 163.75 316.05 166.35 313.2 168.35 311.05 169.05 309.4 166.5 310.6 165.15 311.35 163.3 312.4 161.9 313.4 Z"/>
</g>

<g id="Layer0_10_MEMBER_0_FILL">
<path fill="white" stroke="black" stroke-width="1" d="
M 390.9 293.15
Q 373.05 285.9 347.8 285.9 322.55 285.9 304.65 293.15 286.8 300.45 286.8 310.7 286.8 320.95 304.65 328.2 322.55 335.5 347.8 335.5 373.05 335.5 390.9 328.2 408.8 320.95 408.8 310.7 408.8 300.45 390.9 293.15
M 381.45 299.3
Q 395.65 303.85 395.65 310.25 395.65 316.65 381.45 321.15 367.25 325.7 347.2 325.7 327.15 325.7 312.95 321.15 298.75 316.65 298.75 310.25 298.75 303.85 312.95 299.3 327.15 294.8 347.2 294.8 367.25 294.8 381.45 299.3 Z"/>

<path fill="white" stroke="black" stroke-width="1" d="
M 395.65 310.25
Q 395.65 303.85 381.45 299.3 367.25 294.8 347.2 294.8 327.15 294.8 312.95 299.3 298.75 303.85 298.75 310.25 298.75 316.65 312.95 321.15 327.15 325.7 347.2 325.7 367.25 325.7 381.45 321.15 395.65 316.65 395.65 310.25 Z"/>
</g>

<g id="Layer0_10_MEMBER_1_FILL">
<path fill="white" stroke="black" stroke-width="1" d="
M 373.2 323.8
Q 388.8 321.9 398.25 320.9 407.65 319.85 410.7 316.2 413.7 312.55 409.6 310.65 407.7 304.65 406.4 300.45 406.1 299.55 405.9 298.7
L 405.3 298.85
Q 404.6 300.7 406 302.3 407.2 303.7 393.85 304.5 421.95 305.7 389.9 308.6 357.8 311.5 346.75 307.3 335.65 303.05 334.5 299.4 333.55 301.85 332.3 304.3 329.8 309.2 326.4 314.15 324.75 316.4 330.6 319.6 336.4 322.75 343.4 324.2 350.45 325.6 354.05 325.65 357.6 325.65 373.2 323.8
M 337.15 286.9
Q 338.35 287.45 342.35 289.2 349.05 291.75 357.85 293.6 366.6 295.4 377.1 296.6 387.55 297.85 392 296.25 396.45 294.6 398.65 292.75 400.8 290.9 402.2 290.6
L 404.1 290.4
Q 403.75 287.8 403.75 285.4 403.75 281.95 404.4 278.7 405.2 275.05 405.6 272.85
L 401.95 272.85
Q 383.3 275.7 380.5 276.1 378.7 276.3 363.25 276.3 357.85 276.9 357.1 276.9 354 276.9 347.5 275.5 341 274.1 340.75 274.1 339.55 274.1 338.4 274.9 337.7 275.4 336.55 276.6
L 336.55 278.1 336.3 278
Q 336.35 278.5 336.7 280.3 337.15 283.05 337.15 285.4 337.15 286.15 337.15 286.9 Z"/>

<path fill="white" stroke="black" stroke-width="1" d="
M 342.35 289.2
Q 338.35 287.45 337.15 286.9 336.85 293.1 334.5 299.4 335.65 303.05 346.75 307.3 357.8 311.5 389.9 308.6 421.95 305.7 393.85 304.5 407.2 303.7 406 302.3 404.6 300.7 405.3 298.85
L 405.9 298.7
Q 404.6 294.25 404.1 290.4
L 402.2 290.6
Q 400.8 290.9 398.65 292.75 396.45 294.6 392 296.25 387.55 297.85 377.1 296.6 366.6 295.4 357.85 293.6 349.05 291.75 342.35 289.2 Z"/>
</g>

<g id="Layer0_10_MEMBER_1_MEMBER_0_FILL">
<path fill="white" stroke="black" stroke-width="1" d="
M 414.15 278.05
Q 414.15 274.4 412.95 272.9 411.55 271.15 411.1 267 410.9 264.9 406.05 262.85 401.55 260.9 397.9 260.9 394.85 260.9 391.3 261.95 387.55 263.25 386.05 263.7
L 385.75 263.7
Q 386.35 262.5 386.35 262 386.35 256.95 376.7 256.95 369.85 256.95 365.95 259.1 364.3 260.15 363.65 260.55 362.6 261.2 361.75 261.2 361.6 261.2 358.95 260.3 357.05 260.3 353.5 261.2 349.3 262.35 347.2 262.8 344.05 263.5 342.7 264.95 341.2 266.5 342.3 268.55 332.6 269.2 331.7 273.85 331.8 273.8 331.9 273.75
L 331.9 274.95 331.6 274.95
Q 331.6 274.35 331.7 273.85 329.5 274.65 327.15 274.95 324.75 275.15 323.95 275.3 321.55 275.7 321.55 279.6 321.55 282.6 324.75 287.2 326.55 289.75 330.1 294 332.05 296.55 333.55 298.65 334.4 299.45 336.95 299.45 340.9 299.45 342.75 295.8 344.65 292.1 348.1 292.1 349.1 292.1 350.85 292.7 352.65 293.3 353.6 293.3 355.8 293.3 356.65 292.65 358.4 291.3 360.1 290.55 362.75 297 362.85 297.1 364.5 299.75 368 299.75 371.85 299.75 373.8 294.3 375.3 290.05 375.3 284.1 375.3 283.45 375.1 281.7 374.9 279.8 374.7 279 375.35 279.1 377.3 283 379.5 287.4 382.05 289.35 385.75 292.2 388.8 292.9 390.4 293.3 394.75 293.3 403.4 293.3 407.8 290.85 414.15 287.35 414.15 278.05 Z"/>
</g>

<g id="Layer0_10_MEMBER_2_FILL">
<path fill="white" stroke="black" stroke-width="1" d="
M 346.35 244
Q 344.4 244 343 246.35 341.6 248.7 341.6 252 341.6 255.3 343 257.65 344.4 260 346.35 260 348.3 260 349.7 257.65 351.1 255.3 351.1 252 351.1 248.7 349.7 246.35 348.3 244 346.35 244 Z"/>
</g>

<g id="Layer0_11_FILL">
<path fill="white" stroke="black" stroke-width="1" d="
M 330.9 207.45
L 330.6 206.25
Q 315.85 210.95 302.1 205.85
L 301.55 207.7 301.9 248.7
Q 302 248.75 302.1 248.8 316.3 256.55 330.5 248.7
L 330.9 248.7 330.9 207.45 Z"/>

<path fill="white" stroke="black" stroke-width="1" d="
M 330.3 197.75
Q 328.95 191.6 325.65 187.7 322.3 183.85 316.05 183.9 309.8 183.9 306.05 188.8 302.25 193.7 301.5 199.2 300.85 204 301.1 205.65
L 301.55 205.6
Q 301.85 205.7 302.1 205.85 315.85 210.95 330.6 206.25 330.9 206.1 331.25 206 331.65 203.85 330.3 197.75 Z"/>
</g>

<g id="Layer0_12_FILL">
<path fill="white" stroke="black" stroke-width="1" d="
M 425.95 318.65
Q 416.95 323.5 406.75 326.45 401.95 334.1 396.4 340.85 408.2 336.85 417.75 327.95 422.5 323.55 425.95 318.65
M 330.4 323.25
Q 332.55 325.7 334.95 327.95 347.1 339.25 362.75 342.6 357.85 336.1 353.6 329.4 341.25 327.55 330.4 323.25
M 342.9 310.4
Q 342.25 309.15 341.7 307.95 341.45 308.05 341.2 308.05 338.9 308.1 337.3 300.35 337.15 299.8 337.05 299.3 332.35 304 326.65 306.1 326.05 306.3 325.5 306.5 333.8 308.9 342.9 310.4
M 370.75 330.8
Q 367.8 321.65 366.25 312.55 353.95 312.2 342.9 310.4 347.65 320.1 353.6 329.4 361.85 330.65 370.75 330.8
M 394.7 311.4
Q 393 321.1 390.4 329.75 398.95 328.6 406.75 326.45 412.25 317.5 416.65 307.3 414.35 307.9 412.1 308.45 403.75 310.35 394.7 311.4
M 375.65 343.95
Q 376 343.95 376.35 343.95 381.1 343.95 385.65 343.35 388.3 336.85 390.4 329.75 382.15 330.8 373.2 330.8 371.95 330.8 370.75 330.8 372.8 337.35 375.65 343.95
M 394.7 311.4
Q 395.2 308.4 395.65 305.2 394.5 306.6 393.7 305.85 392.15 304.3 389.75 301.05 382.6 304.45 378.7 304.45 377.15 304.45 372.1 301.55 369.85 305.2 365.4 307.2 365.4 307.3 365.45 307.4 365.8 309.95 366.25 312.55 369.3 312.65 372.45 312.65 384.1 312.65 394.7 311.4
M 365.45 284.4
Q 357.6 284.05 350.5 282.9 348.05 290.35 345.65 300.3 354.2 301.15 363.55 301.45 363.95 300.2 364.6 298.85 364.55 298.15 364.9 297.45
L 364.9 297.4
Q 364.6 290.5 365.45 284.4
M 366.7 252.25
Q 373.65 253 381.45 253 383.45 251.3 385.7 249.65 377.55 249.65 370.45 248.5 368.5 250.2 366.7 252.25
M 362.35 257.75
Q 359.1 262.45 356.25 268.55 362.5 269.65 369.6 269.95 371.75 264.15 375.65 259.2 368.6 258.9 362.35 257.75
M 393.9 244.3
L 393.75 245.25
Q 394 245.25 394.2 245.25 395.65 245.25 397.1 245.25 396.75 244.85 396.35 244.5 396.25 244.55 396.15 244.55
L 393.9 244.3
M 377.35 243.85
Q 375.45 244.8 373.6 246.1 379.35 247.1 385.7 247.35
L 385.7 249.65
Q 387.3 248.5 389.05 247.45 389.1 247.4 389.2 247.35 390.4 246.3 393.75 245.25 384.95 245.2 377.35 243.85
M 425.75 295.85
Q 424.6 296.15 427.15 296.75 422.65 303.45 420.1 298.5 418.95 301.5 417.85 304.4
L 417.85 304.45
Q 417.25 305.85 416.65 307.3 425.55 304.85 433.6 301.35 433.65 301.05 433.75 300.75 431.65 299.45 428.35 297.45 427.05 296.6 425.75 295.85 Z"/>

<path fill="white" stroke="black" stroke-width="1" d="
M 425.95 318.65
Q 431.5 310.65 433.6 301.35 425.55 304.85 416.65 307.3 412.25 317.5 406.75 326.45 416.95 323.5 425.95 318.65
M 342.9 310.4
Q 333.8 308.9 325.5 306.5 322.3 307.4 321.9 305.95
L 320.55 306.4
Q 323.7 315.55 330.4 323.25 341.25 327.55 353.6 329.4 347.65 320.1 342.9 310.4
M 385.65 343.35
Q 391.2 342.55 396.4 340.85 401.95 334.1 406.75 326.45 398.95 328.6 390.4 329.75 388.3 336.85 385.65 343.35
M 375.65 343.95
Q 372.8 337.35 370.75 330.8 361.85 330.65 353.6 329.4 357.85 336.1 362.75 342.6 368.9 343.9 375.65 343.95
M 372.45 312.65
Q 369.3 312.65 366.25 312.55 367.8 321.65 370.75 330.8 371.95 330.8 373.2 330.8 382.15 330.8 390.4 329.75 393 321.1 394.7 311.4 384.1 312.65 372.45 312.65
M 365.45 307.4
L 364.7 307.5
Q 360.7 309.1 363.55 301.45 354.2 301.15 345.65 300.3 345.4 300.25 345.2 300.25 343.65 307.15 341.7 307.95 342.25 309.15 342.9 310.4 353.95 312.2 366.25 312.55 365.8 309.95 365.45 307.4
M 395.65 305.2
Q 395.2 308.4 394.7 311.4 403.75 310.35 412.1 308.45 414.35 307.9 416.65 307.3 417.25 305.85 417.85 304.45
L 417.85 304.4
Q 418.95 301.5 420.1 298.5 417.8 300.3 415.15 303.4 412.9 305.95 411.6 306.2 409.4087890625 306.5486328125 409.95 300.4
L 409.95 300.35
Q 409.5 299.6 409.15 299.1 403.4 308.55 403.9 306.25 402.5 307.45 400.95 304.75 399.45 302.1 399.25 301.9 403.45 308.65 395.65 305.2
M 381.45 253
Q 373.65 253 366.7 252.25 364.45 254.7 362.35 257.75 368.6 258.9 375.65 259.2 378.15 255.95 381.45 253
M 356.25 268.55
Q 355.35 270.3 354.55 272.15 354.15 273.05 353.8 274 353.05 275.7 352.45 277.45 351.45 280 350.5 282.9 357.6 284.05 365.45 284.4 365.95 280.75 366.8 277.45 367.25 275.5 368.65 272.55 369.05 271.25 369.6 269.95 362.5 269.65 356.25 268.55
M 385.7 247.35
Q 379.35 247.1 373.6 246.1 371.95 247.2 370.45 248.5 377.55 249.65 385.7 249.65
L 385.7 247.35
M 393.75 245.25
Q 390.4 246.3 389.2 247.35 389.25 247.4 389.35 247.45 390.65 248.4 391.85 249.5 393.45 250.95 394.75 252.5 396.85 255 398.15 257.75 400.1 262.1 399.9 267.05 399.75 269.25 399.3 271.5
L 399.35 272.2
Q 402.2 272.25 404.9 272.4 405.65 268.7 405.65 265.35 405.65 260.6 404.3 256.4 403.45 253.85 402.1 251.55 401.2 250.05 400.15 248.65 399.6 247.85 398.95 247.15 398.05 246.15 397.1 245.25 395.65 245.25 394.2 245.25 394 245.25 393.75 245.25
M 380.35 242.7
Q 378.8 243.2 377.35 243.85 384.95 245.2 393.75 245.25
L 393.9 244.3 380.35 242.7 Z"/>

<path fill="white" stroke="black" stroke-width="1" d="
M 330.5 275
Q 329 275.3 327.55 275.95 322.95 277.8 318.7 282.4 313 288.45 311.15 293.7 310.05 297 309.75 300.65 309.65 301.85 309.65 303.15 309.65 304.15 310 305.2 310.55 306.7 311.45 306.7 315.75 305.45 319 304.35 319.45 304.2 319.85 304.05 321.45 303.45 322.8 302.9 322.25 303.65 322.05 304.45 321.9 304.9 321.85 305.35 321.8 305.7 321.9 305.95 322.3 307.4 325.5 306.5 326.05 306.3 326.65 306.1 332.35 304 337.05 299.3 337.15 299.8 337.3 300.35 338.9 308.1 341.2 308.05 341.45 308.05 341.7 307.95 343.65 307.15 345.2 300.25 345.4 300.25 345.65 300.3 348.05 290.35 350.5 282.9 351.45 280 352.45 277.45 353.05 275.7 353.8 274 354.15 273.05 354.55 272.15 353.1 271.55 346.05 272.45 336.65 273.55 330.5 275
M 440.7 281.5
Q 436.2 275.95 419.4 273.65 413.05 272.75 404.9 272.4 402.2 272.25 399.35 272.2 386 271.8 368.65 272.55 367.25 275.5 366.8 277.45 365.95 280.75 365.45 284.4 364.6 290.5 364.9 297.4 365.2 297.65 365.05 297.85 365 297.9 364.95 298 364.75 298.4 364.6 298.85 363.95 300.2 363.55 301.45 360.7 309.1 364.7 307.5 365.05 307.35 365.4 307.2 369.85 305.2 372.1 301.55 377.15 304.45 378.7 304.45 382.6 304.45 389.75 301.05 392.15 304.3 393.7 305.85 394.5 306.6 395.65 305.2 403.45 308.65 399.25 301.9 399.45 302.1 400.95 304.75 402.5 307.45 403.9 306.25 403.4 308.55 409.15 299.1 409.5 299.6 409.95 300.35
L 409.95 300.4
Q 409.4087890625 306.5486328125 411.6 306.2 412.9 305.95 415.15 303.4 417.8 300.3 420.1 298.5 422.65 303.45 427.15 296.75 424.6 296.15 425.75 295.85 427.05 296.6 428.35 297.45 431.65 299.45 433.75 300.75 434 300.9 434.3 301.05 436.05 302.05 436.9 302.5 441.3 304.7 444.75 304.8 444.9 304.8 445.05 304.8 450.05 304.8 450.05 299.6 450.05 299.1 450 298.55 449.7 296.25 448.5 293.5 447.55 291.4 446.2 289.15 444 285.6 440.7 281.5 Z"/>
</g>
</defs>

<g transform="matrix( 1, 0, 0, 1, 0,0) ">
<use xlink:href="#Layer0_0_FILL"/>
</g>

<g transform="matrix( 1, 0, 0, 1, 38.95,65.05) ">
<use xlink:href="#Layer0_1_FILL"/>
</g>

<g transform="matrix( 1, 0, 0, 1, 38.95,65.05) ">
<use xlink:href="#Layer0_1_MEMBER_0_FILL"/>
</g>

<g transform="matrix( -1, 0, 0, 1, 561.75,79.95) ">
<use xlink:href="#Layer0_2_FILL"/>
</g>

<g transform="matrix( -1, 0, 0, 1, 561.75,79.95) ">
<use xlink:href="#Layer0_2_MEMBER_0_FILL"/>
</g>

<g transform="matrix( 0.515411376953125, -0.075103759765625, 0.075103759765625, 0.515411376953125, 302.1,156.8) ">
<use xlink:href="#Layer0_3_FILL"/>
</g>

<g transform="matrix( 0.515411376953125, -0.075103759765625, 0.075103759765625, 0.515411376953125, 302.1,156.8) ">
<use xlink:href="#Layer0_3_MEMBER_0_FILL"/>
</g>

<g transform="matrix( 0.657440185546875, -0.2077178955078125, 0.2077178955078125, 0.657440185546875, 167.75,144.3) ">
<use xlink:href="#Layer0_4_FILL"/>
</g>

<g transform="matrix( 0.657440185546875, -0.2077178955078125, 0.2077178955078125, 0.657440185546875, 167.75,144.3) ">
<use xlink:href="#Layer0_4_MEMBER_0_FILL"/>
</g>

<g transform="matrix( 0.36602783203125, -0.0829925537109375, 0.0829925537109375, 0.36602783203125, 23,178.3) ">
<use xlink:href="#Layer0_5_FILL"/>
</g>

<g transform="matrix( 0.36602783203125, -0.0829925537109375, 0.0829925537109375, 0.36602783203125, 23,178.3) ">
<use xlink:href="#Layer0_5_MEMBER_0_FILL"/>
</g>

<g transform="matrix( 0.36602783203125, -0.0829925537109375, 0.0829925537109375, 0.36602783203125, 509.85,196.9) ">
<use xlink:href="#Layer0_6_FILL"/>
</g>

<g transform="matrix( 0.36602783203125, -0.0829925537109375, 0.0829925537109375, 0.36602783203125, 509.85,196.9) ">
<use xlink:href="#Layer0_6_MEMBER_0_FILL"/>
</g>

<g transform="matrix( 1, 0, 0, 1, 38.95,65.05) ">
<use xlink:href="#Layer0_7_FILL"/>
</g>

<g transform="matrix( 1, 0, 0, 1, 46.75,21.55) ">
<use xlink:href="#Layer0_8_MEMBER_0_FILL"/>
</g>

<g transform="matrix( 0.819671630859375, 0, 0, 0.819671630859375, 20.15,128.7) ">
<use xlink:href="#Layer0_9_FILL"/>
</g>

<g transform="matrix( 0.6752471923828125, 0, 0, 0.6752471923828125, 53.7,173.65) ">
<use xlink:href="#Layer0_9_MEMBER_0_FILL"/>
</g>

<g transform="matrix( 0.8508453369140625, 0, 0, 0.8508453369140625, -7.85,101.65) ">
<use xlink:href="#Layer0_10_MEMBER_0_FILL"/>
</g>

<g transform="matrix( 0.8508453369140625, 0, 0, 0.8508453369140625, -27.1,97.3) ">
<use xlink:href="#Layer0_10_MEMBER_1_FILL"/>
</g>

<g transform="matrix( 0.8508453369140625, 0, 0, 0.8508453369140625, -27.1,97.3) ">
<use xlink:href="#Layer0_10_MEMBER_1_MEMBER_0_FILL"/>
</g>

<g transform="matrix( 1.0657958984375, 0, 0, 0.8508453369140625, -81.45,104.2) ">
<use xlink:href="#Layer0_10_MEMBER_2_FILL"/>
</g>

<g transform="matrix( 1.2076873779296875, 0, 0, 1.287994384765625, -168.6,37.7) ">
<use xlink:href="#Layer0_11_FILL"/>
</g>

<g transform="matrix( 1, 0, 0, 1, 10.25,73.1) ">
<use xlink:href="#Layer0_12_FILL"/>
</g>
</svg>
