<?xml version="1.0" standalone="no"?>
<!DOCTYPE svg PUBLIC "-//W3C//DTD SVG 20010904//EN"
 "http://www.w3.org/TR/2001/REC-SVG-20010904/DTD/svg10.dtd">
<svg version="1.0" xmlns="http://www.w3.org/2000/svg"
 width="550.000000pt" height="400.000000pt" viewBox="0 0 550.000000 400.000000"
 preserveAspectRatio="xMidYMid meet">

<g transform="translate(0.000000,400.000000) scale(0.100000,-0.100000)"
fill="#000000" stroke="none">
<path d="M1190 3741 c-157 -52 -294 -239 -361 -497 -32 -120 -35 -385 -6 -479
41 -131 107 -230 182 -272 18 -11 18 -13 -8 -80 -47 -117 -101 -208 -126 -211
-14 -2 -21 0 -17 6 10 16 -14 26 -57 23 -58 -3 -94 7 -100 30 -3 13 -14 19
-32 19 -31 0 -85 -26 -85 -41 0 -6 12 -1 26 10 33 26 70 27 77 3 5 -22 45 -32
119 -32 30 0 47 -4 43 -10 -3 -6 3 -14 15 -18 21 -8 20 -10 -20 -61 -23 -29
-50 -55 -61 -59 -17 -7 -131 1 -194 13 -15 3 -26 22 -44 80 -25 80 -24 97 3
69 9 -9 19 -14 22 -11 9 8 -5 27 -19 27 -11 0 -44 58 -36 63 2 2 16 9 31 16
66 34 108 138 108 271 0 98 -17 161 -58 209 -23 27 -34 32 -71 33 -57 1 -88
-24 -126 -98 -25 -51 -30 -72 -33 -161 -5 -113 5 -154 49 -220 l29 -42 -25
-19 c-21 -17 -30 -18 -55 -9 -22 8 -33 8 -41 0 -9 -9 -18 -8 -36 4 -28 19 -42
10 -25 -17 17 -27 16 -28 -21 -33 l-32 -4 33 -1 c38 -2 52 19 31 45 -13 17
-12 17 12 1 19 -12 29 -14 37 -6 8 8 19 8 38 -1 24 -10 31 -9 65 15 38 26 59
26 59 -1 0 -8 -5 -17 -11 -21 -8 -4 -9 1 -5 17 7 23 7 23 -8 5 -21 -26 -20
-36 4 -36 17 0 19 -5 14 -27 -9 -41 -54 -133 -65 -133 -5 0 -9 -4 -9 -8 0 -5
60 -12 133 -16 160 -9 230 -19 205 -30 -31 -14 -21 -36 15 -35 l32 1 -30 7
-30 7 31 16 c99 53 207 233 300 498 24 69 42 112 39 95 -3 -16 -9 -104 -14
-195 -10 -165 -3 -302 20 -434 6 -37 9 -69 6 -72 -3 -3 -18 1 -34 9 -25 13
-131 42 -240 66 -25 5 -43 5 -43 0 0 -5 10 -9 21 -9 36 0 232 -52 272 -72 l37
-18 0 30 0 30 68 -25 c164 -62 278 -119 397 -199 124 -84 150 -107 133 -118
-10 -6 -9 -8 3 -8 23 0 29 -58 29 -269 l0 -175 -62 -66 -63 -65 63 60 62 59 0
-77 0 -78 55 -25 c67 -31 185 -35 236 -9 38 20 40 23 -46 -118 -66 -109 -72
-116 -102 -117 -17 0 -44 5 -58 10 -19 7 -44 6 -87 -4 -33 -7 -69 -12 -81 -10
-21 4 -21 4 -2 -6 16 -9 14 -9 -14 -5 -18 3 -104 5 -190 5 l-156 1 143 140
c78 77 134 134 124 127 -33 -23 -812 -782 -812 -790 0 -4 867 -8 1927 -8
l1927 0 -69 70 c-38 38 -72 70 -74 70 -3 0 24 -29 59 -65 l64 -65 -436 0 -436
0 -71 121 c-40 67 -70 123 -69 125 2 1 24 -13 48 -32 44 -35 100 -69 100 -60
0 2 -19 16 -42 30 -57 34 -130 99 -103 92 11 -3 47 -12 80 -20 33 -8 71 -17
85 -20 25 -6 97 -102 86 -114 -3 -3 -25 2 -48 11 -23 9 -43 15 -45 13 -8 -7
85 -38 95 -32 6 3 12 0 14 -6 4 -10 42 -13 149 -13 162 1 209 13 324 86 l60
38 45 -42 45 -42 -42 45 -43 46 55 54 c55 54 125 173 125 211 0 23 7 23 53 4
100 -42 147 16 96 118 -58 114 -111 158 -206 171 -36 6 -36 5 7 -7 94 -28 140
-68 189 -164 62 -123 -10 -159 -146 -73 -35 22 -66 40 -67 40 -2 0 -7 -11 -10
-25 -6 -22 -9 -24 -27 -14 -18 9 -26 6 -58 -25 -45 -44 -61 -45 -61 -6 0 33
-14 39 -29 12 -6 -9 -18 -26 -26 -37 -16 -20 -16 -20 -36 5 -11 14 -17 18 -13
8 5 -15 0 -17 -31 -16 -24 1 -41 8 -48 20 -14 22 -29 22 -85 3 -38 -13 -47
-13 -78 0 -36 15 -37 14 -71 -15 -44 -39 -57 -39 -49 3 4 17 11 73 15 122 10
102 29 185 43 185 5 0 8 6 5 13 -12 35 77 160 153 212 l41 28 29 -28 c17 -16
39 -47 50 -70 22 -46 28 -135 8 -135 -6 0 -8 -3 -4 -7 10 -11 56 -11 56 -1 0
4 -7 8 -15 8 -11 0 -15 12 -15 48 0 57 -29 124 -71 163 l-31 29 23 8 c13 5 31
7 39 5 29 -8 78 -103 89 -173 l10 -65 -4 64 c-5 70 -31 135 -68 169 -16 15
-46 24 -109 33 -84 11 -87 11 -125 -12 l-38 -24 65 -3 c36 -2 69 -7 75 -13 12
-12 -70 -12 -115 1 -34 10 -36 9 -82 -42 -26 -29 -60 -76 -75 -105 -15 -28
-31 -49 -36 -46 -5 3 -8 -1 -6 -8 4 -30 -3 -34 -64 -37 -88 -4 -215 -32 -240
-54 -21 -17 -19 -17 23 1 71 30 270 60 270 40 0 -5 -7 -25 -15 -45 -8 -19 -30
-90 -50 -157 -20 -67 -41 -126 -46 -132 -14 -13 -39 21 -39 52 0 27 -12 30
-30 8 -11 -13 -10 -14 1 -10 10 4 19 -6 28 -30 7 -19 17 -35 23 -35 6 0 9 -3
6 -6 -9 -8 -128 17 -128 27 0 5 4 9 8 9 5 0 17 7 28 15 11 10 2 8 -23 -5 -55
-26 -76 -26 -68 0 8 24 7 24 -38 5 -20 -8 -48 -15 -63 -15 -27 0 -27 0 -20 56
7 59 25 103 60 145 11 14 5 8 -15 -13 l-37 -38 -52 93 c-29 50 -60 100 -68
110 -8 9 -13 19 -11 21 2 2 127 7 277 11 150 4 270 11 265 14 -4 4 -80 4 -168
0 -88 -4 -210 -7 -271 -8 l-112 -1 -40 68 c-114 192 -117 181 46 184 l127 2
-145 5 c-95 4 -153 11 -169 20 -17 9 -44 12 -88 8 -34 -2 -63 -1 -63 4 0 12
-59 41 -69 35 -5 -3 -20 3 -34 14 -30 24 -45 27 -23 4 25 -25 30 -61 12 -89
-19 -29 -38 -32 -60 -9 -26 26 -19 104 10 104 8 0 14 5 14 10 0 22 -42 -12
-52 -41 -7 -20 -15 -28 -25 -25 -22 9 -154 -24 -160 -40 -4 -11 -37 -14 -167
-14 -88 0 -167 -4 -173 -8 -7 -4 17 -6 52 -4 36 2 65 2 65 -1 0 -5 -148 -247
-157 -257 -2 -2 -3 136 -2 307 2 308 3 312 23 316 17 3 16 5 -5 6 -20 1 -28 8
-34 29 -13 52 -53 109 -91 127 -55 26 -136 17 -174 -20 -35 -34 -80 -119 -80
-152 0 -27 -12 -30 -31 -7 -37 45 -216 163 -319 211 -33 15 -60 31 -60 34 0 3
35 14 78 24 304 69 465 94 785 121 l79 7 -15 -30 c-9 -16 -23 -35 -31 -42 -25
-21 -19 -29 17 -26 17 2 85 7 150 11 106 6 116 9 104 23 -12 15 -37 66 -37 77
0 3 5 2 10 -1 6 -3 10 -1 10 4 0 6 -7 11 -15 11 -15 0 -37 42 -60 118 -12 38
-12 44 2 49 9 4 29 1 44 -4 21 -8 31 -8 39 1 5 7 6 17 2 21 -4 5 4 1 18 -8 29
-20 56 -22 63 -4 3 7 6 4 6 -7 1 -13 6 -17 21 -13 11 3 20 1 20 -4 0 -15 17
-10 24 7 9 23 3 26 -27 15 -22 -9 -27 -7 -32 9 -8 24 -25 27 -25 4 0 -11 -6
-14 -22 -8 -13 3 -24 11 -26 15 -6 16 -32 10 -32 -7 0 -12 -5 -14 -17 -9 -20
9 -41 10 -62 4 -10 -3 -20 20 -37 81 -12 47 -23 77 -23 67 -2 -47 57 -238 108
-350 17 -37 31 -70 31 -72 0 -3 -24 -5 -52 -6 -29 0 -84 -4 -123 -8 -38 -5
-72 -7 -74 -5 -2 2 5 11 14 21 43 42 72 164 84 343 5 78 13 136 21 145 11 13
10 14 -2 10 -11 -4 -23 6 -38 32 -13 21 -37 53 -54 71 -16 17 -25 32 -19 32 7
0 15 -4 18 -10 3 -5 14 -10 25 -10 10 0 21 -7 24 -16 4 -9 9 -14 12 -11 3 3
-11 42 -30 88 -20 45 -36 85 -36 87 0 3 10 -3 22 -14 l22 -19 -16 25 c-10 14
-43 72 -73 130 -31 58 -61 109 -66 114 -22 23 -5 -21 71 -184 99 -212 97 -233
-9 -134 -34 31 -61 52 -61 47 0 -5 12 -20 26 -34 37 -35 118 -138 138 -176 16
-32 16 -32 -13 -48 -69 -35 -166 -5 -218 68 -48 67 -74 151 -83 262 l-7 100
-1 -75 c-4 -181 72 -333 183 -370 36 -12 102 -10 138 5 15 6 17 -1 17 -79 0
-78 -2 -86 -19 -86 -11 0 -23 -4 -26 -10 -3 -5 -12 -10 -20 -10 -7 0 -31 -17
-52 -38 -23 -23 -53 -41 -73 -45 -19 -4 -47 -10 -62 -13 -24 -5 -28 -3 -28 15
0 14 -6 21 -20 21 -11 0 -20 -4 -20 -10 0 -12 -42 -9 -51 3 -4 5 -19 2 -35 -7
-16 -8 -24 -15 -19 -15 6 -1 17 3 25 9 9 5 19 5 27 -2 7 -6 13 -7 13 -4 0 4 9
2 20 -4 16 -9 22 -8 26 5 9 21 21 19 27 -6 5 -18 11 -21 39 -15 18 3 50 9 71
12 22 4 37 12 37 21 0 9 7 12 25 7 22 -5 25 -3 25 20 0 17 7 29 18 32 9 3 25
10 35 15 33 18 35 -34 5 -152 l-11 -47 -81 -6 c-303 -25 -542 -61 -789 -121
l-107 -26 -93 36 c-50 20 -95 40 -99 43 -9 10 -28 151 -21 167 2 8 21 15 41
17 30 2 36 7 34 22 -2 12 1 16 10 11 7 -3 2 3 -11 14 -30 27 -38 21 -16 -12
l16 -26 -40 2 -41 2 0 143 0 142 33 0 c18 0 56 7 83 16 72 25 196 152 251 259
43 85 94 231 92 268 -1 20 -2 20 -6 2 -34 -149 -112 -325 -143 -325 -11 0 -52
10 -92 23 -67 21 -121 28 -132 16 -3 -3 5 -6 16 -6 38 -3 208 -47 208 -54 0
-3 -29 -36 -65 -73 -72 -74 -147 -116 -208 -116 l-38 0 5 43 c3 23 8 69 11
102 8 78 13 95 30 95 8 0 17 4 20 10 7 11 -23 2 -41 -12 -8 -6 -14 3 -19 29
-3 21 -20 72 -37 113 -16 41 -32 82 -35 90 -3 8 11 -4 31 -28 21 -23 41 -40
46 -37 4 3 13 -9 19 -27 6 -17 13 -29 15 -27 3 2 -5 83 -17 179 -12 96 -23
168 -25 159 -1 -9 4 -70 12 -135 19 -145 20 -134 -2 -134 -22 0 -63 55 -120
160 -23 41 -48 84 -57 95 -15 19 -15 19 -8 0 4 -10 20 -46 35 -78 59 -122 128
-297 134 -339 5 -33 -1 -68 -21 -134 -15 -49 -31 -93 -35 -98 -20 -21 -106 58
-144 131 -50 99 -68 172 -73 299 -11 253 49 464 184 641 101 134 210 183 327
149 129 -38 209 -179 241 -426 l14 -105 -6 90 c-13 215 -88 376 -202 435 -45
22 -142 34 -181 21z m-616 -930 c43 -37 60 -91 63 -201 3 -91 0 -112 -19 -160
-21 -49 -26 -55 -52 -55 -17 0 -33 7 -40 18 -9 16 -4 25 33 58 47 42 52 64 7
28 -15 -11 -33 -18 -41 -15 -8 3 -15 1 -15 -4 0 -6 5 -10 11 -10 8 0 8 -5 -1
-15 -7 -8 -10 -26 -8 -39 7 -37 -16 -39 -37 -4 -17 30 -17 30 3 19 19 -10 20
-9 12 17 -4 15 -11 34 -15 43 -5 13 -1 16 17 12 24 -4 24 -4 25 109 1 95 0
104 -7 58 -5 -30 -10 -79 -11 -108 -1 -31 -7 -51 -13 -49 -6 2 -24 36 -40 76
-43 102 -43 74 -1 -42 19 -53 31 -97 26 -97 -5 0 -25 18 -45 40 -45 50 -47 38
-3 -21 51 -69 67 -97 67 -119 0 -32 -36 -25 -64 13 -40 52 -56 111 -56 203 0
192 111 325 204 245z m1686 -55 c0 -12 -5 -7 -19 24 -11 24 -11 24 3 6 9 -11
16 -24 16 -30z m-1702 -402 c-29 -30 -58 -27 -58 6 0 17 6 20 42 20 l43 0 -27
-26z m-27 -188 c10 -33 19 -64 19 -68 0 -4 -27 -7 -60 -6 -60 2 -68 6 -51 24
15 15 51 130 52 166 1 30 2 29 11 -12 6 -25 19 -72 29 -104z m1505 -368 c34
-37 59 -105 70 -187 l6 -47 -51 -13 c-74 -19 -186 -17 -255 3 l-58 17 7 57 c9
74 56 167 98 193 25 16 45 19 91 16 53 -3 62 -7 92 -39z m-193 -263 c60 -14
169 -11 214 6 13 5 29 9 34 9 5 0 9 -108 9 -268 l0 -268 -42 -20 c-62 -28
-198 -27 -253 2 l-40 21 -3 266 c-2 210 0 267 10 267 7 -1 39 -7 71 -15z
m1014 -156 c6 -6 9 -18 6 -26 -5 -13 -2 -15 18 -9 51 16 119 18 150 6 57 -24
89 -146 53 -199 -23 -32 -74 -51 -139 -51 -73 0 -108 19 -142 78 l-28 47 -6
-67 c-10 -116 -64 -156 -102 -75 -16 33 -20 36 -38 26 -12 -6 -34 -9 -50 -7
-15 3 -26 1 -24 -2 3 -4 25 -10 51 -14 32 -4 52 -13 66 -31 22 -29 49 -32 72
-9 12 12 28 14 68 10 28 -3 48 -2 44 1 -4 4 -23 8 -43 10 -19 1 -37 4 -39 6
-2 2 -1 25 2 53 l6 49 44 -42 c36 -35 52 -43 81 -43 42 0 38 -9 -9 -20 l-33
-8 30 -1 c17 0 41 6 55 14 41 24 69 19 75 -12 13 -60 13 -61 -5 -56 -9 2 -32
0 -51 -5 l-34 -10 45 -2 c41 -1 43 -2 20 -12 -15 -6 -110 -11 -230 -12 -204
-1 -205 -1 -263 26 -35 17 -56 32 -52 38 4 6 -1 14 -11 17 -22 6 -109 118
-116 149 -8 31 2 42 42 46 22 2 39 10 45 23 6 10 27 23 48 28 20 5 37 15 37
22 0 19 15 26 76 41 63 14 101 8 107 -17 3 -10 17 -24 32 -31 25 -11 29 -10
51 15 13 16 24 39 24 52 0 20 4 23 27 19 15 -3 33 -10 40 -15z m-415 -80 c-18
-6 -35 -16 -38 -24 -3 -8 -21 -17 -40 -21 -63 -12 -63 -61 1 -142 19 -25 35
-49 35 -54 0 -4 -61 -8 -136 -8 l-135 0 26 43 c14 23 49 81 78 129 l52 88 95
-1 c77 -1 89 -3 62 -10z m1641 4 c-7 -2 -19 -2 -25 0 -7 3 -2 5 12 5 14 0 19
-2 13 -5z m12 -13 c26 0 35 -3 25 -9 -21 -11 -121 -2 -114 11 4 5 16 7 28 4
11 -3 39 -6 61 -6z m-43 -50 c11 0 16 -4 13 -10 -3 -5 -38 -10 -77 -10 -64 0
-69 2 -57 16 10 12 24 15 58 10 24 -3 52 -6 63 -6z m-898 -85 c41 -68 44 -85
16 -80 -11 2 -20 -1 -20 -7 0 -6 11 -8 28 -5 22 5 30 1 43 -21 120 -203 128
-219 120 -248 l-8 -29 -89 -1 c-49 -1 -100 -6 -112 -13 -86 -46 -225 -71 -397
-71 -143 0 -221 10 -313 39 -194 62 -253 157 -154 248 33 30 139 80 149 70 10
-10 -31 -74 -58 -89 -42 -25 -56 -61 -35 -92 56 -87 362 -132 602 -91 204 36
281 120 170 186 -23 13 -37 31 -41 50 -4 17 -5 32 -3 35 8 8 85 -24 128 -52
78 -52 90 -112 34 -174 -38 -42 -39 -53 -3 -22 29 24 49 66 49 101 0 55 -71
116 -179 156 l-36 14 48 0 c26 1 47 4 47 9 0 4 -23 7 -52 7 -61 0 -69 13 -25
40 24 15 34 31 41 62 6 24 11 42 12 40 1 -1 18 -29 38 -62z m859 30 c-14 -19
-27 -24 -58 -25 -22 0 -50 3 -63 6 -22 6 -22 8 -6 25 13 15 31 19 81 19 l64 0
-18 -25z m-35 -40 c2 -2 -8 -20 -23 -40 -14 -21 -25 -42 -25 -46 0 -5 -19 -10
-42 -11 l-43 -1 38 -4 c35 -4 38 -7 33 -26 -28 -94 -36 -136 -36 -192 0 -95 2
-93 -93 -87 -45 2 -83 5 -85 7 -5 4 38 148 46 157 4 3 32 2 61 -3 30 -4 57 -7
59 -4 2 2 -13 7 -34 10 -89 14 -85 11 -70 53 26 72 39 92 60 93 17 1 18 2 4 6
-23 6 -23 6 7 58 l26 43 57 -5 c31 -3 58 -7 60 -8z m-1659 -130 c-63 -33 -109
-87 -109 -128 0 -41 30 -90 69 -113 17 -10 31 -22 31 -26 0 -4 -83 -8 -185 -8
-102 0 -185 2 -185 4 0 2 41 70 91 150 l91 146 121 0 122 -1 -46 -24z m176
-30 l60 -30 205 1 c113 1 225 6 249 12 39 9 44 9 48 -9 4 -12 11 -18 20 -15
16 7 63 -36 63 -57 0 -28 -54 -67 -118 -87 -107 -33 -197 -43 -342 -37 -239
10 -390 73 -351 145 6 11 17 22 26 26 13 5 14 2 5 -15 -8 -15 -8 -24 0 -34 17
-21 101 -53 171 -65 67 -12 76 -11 379 25 135 16 173 32 177 76 2 24 2 24 -5
-1 -11 -36 -51 -51 -181 -66 -64 -8 -156 -19 -206 -24 -49 -6 -112 -8 -140 -4
-62 8 -154 41 -177 63 -16 15 -15 19 12 63 17 27 30 53 30 59 0 6 3 9 8 7 4
-2 34 -17 67 -33z m2051 -239 c21 -16 22 -15 -80 -52 -46 -17 -53 -13 -38 20
7 17 17 23 30 20 10 -3 24 2 31 10 17 20 32 20 57 2z m-2689 -13 c12 -3 29
-16 38 -30 11 -17 22 -22 35 -18 43 14 221 -63 260 -112 28 -35 22 -93 -12
-130 -48 -52 -195 -107 -316 -119 -89 -9 -126 -23 -42 -17 97 8 244 48 304 83
61 34 86 67 93 120 4 31 0 43 -28 75 -39 44 -129 90 -212 107 -108 22 -60 33
163 36 193 2 220 0 274 -18 34 -11 99 -25 147 -32 l86 -11 6 -141 c4 -78 7
-180 7 -228 l0 -88 -526 0 -525 0 23 41 c13 23 29 44 36 46 6 3 12 9 12 15 0
5 -4 7 -8 4 -14 -8 -165 14 -237 35 -94 28 -157 61 -190 101 -22 26 -26 39
-22 71 3 21 15 49 27 62 24 25 105 67 168 86 23 6 42 16 42 20 0 11 -106 -27
-156 -56 -118 -69 -125 -164 -17 -233 73 -45 204 -85 318 -95 37 -3 39 -12 12
-59 l-21 -38 -413 0 c-227 0 -413 2 -413 3 0 2 117 117 261 255 l260 252 142
-1 c109 -1 131 -3 94 -9 -68 -12 -73 -23 -7 -15 40 5 51 4 40 -4 -8 -6 -23
-11 -32 -11 -10 0 -37 -13 -60 -29 -24 -16 -69 -45 -100 -65 -60 -37 -72 -62
-48 -105 39 -73 390 -117 598 -75 100 20 180 58 188 89 9 38 1 58 -33 80 -18
11 -32 28 -33 38 0 10 -12 22 -27 27 -16 5 -40 16 -55 24 -16 8 -28 11 -28 6
0 -5 23 -17 50 -27 46 -16 66 -33 39 -33 -6 0 -8 -9 -4 -20 10 -32 -29 -108
-61 -116 -23 -6 -265 1 -334 10 -14 2 -62 4 -108 5 -74 1 -83 3 -80 19 3 15
15 17 103 15 171 -5 187 -4 200 7 7 6 45 8 94 5 67 -4 83 -2 88 11 3 8 12 13
19 10 7 -3 19 1 26 9 32 35 38 45 30 45 -6 0 -17 -11 -26 -25 -9 -14 -21 -23
-27 -19 -6 3 -19 -2 -29 -11 -11 -10 -20 -13 -24 -6 -5 7 -13 7 -26 -2 -14 -8
-25 -9 -37 -1 -22 12 -77 11 -95 -3 -21 -17 -80 -24 -94 -12 -16 13 -104 19
-104 7 0 -4 -7 -8 -15 -8 -8 0 -15 4 -15 10 0 11 -60 2 -74 -11 -18 -16 -24
-9 -24 31 -1 38 17 67 26 42 2 -7 14 -12 26 -12 13 0 37 -7 55 -16 19 -10 38
-13 49 -8 18 8 68 12 220 17 64 2 96 7 101 16 5 8 17 11 30 6 16 -5 21 -2 21
12 0 21 -36 71 -44 62 -4 -3 3 -18 15 -32 19 -26 19 -27 2 -27 -11 0 -24 -5
-29 -10 -10 -10 -141 -20 -256 -19 -31 0 -59 -5 -62 -10 -4 -6 -14 -8 -24 -5
-38 13 -117 47 -92 40 8 -2 22 3 31 11 9 8 41 16 70 19 29 3 58 9 63 13 10 8
109 24 213 35 23 2 44 0 47 -5 2 -5 3 -4 2 3 -1 7 -14 14 -27 14 -25 2 -132
-11 -183 -22 -20 -4 -26 -3 -21 6 4 7 1 11 -6 9 -27 -3 -49 1 -49 10 0 5 20 4
45 -1 37 -8 50 -7 71 7 29 19 102 35 124 28 8 -3 25 -8 37 -10z m1475 -20 c3
-40 6 -42 64 -29 30 7 32 5 63 -59 18 -35 43 -77 55 -92 13 -16 28 -38 35 -51
7 -12 17 -20 23 -16 7 4 8 3 4 -5 -4 -6 21 -61 58 -124 36 -63 66 -117 66
-120 0 -4 -232 -7 -515 -7 l-515 0 -1 215 c-1 118 -2 221 -3 228 -1 9 36 14
139 18 109 5 160 13 229 33 49 15 95 30 103 34 7 5 54 9 103 11 l89 2 3 -38z
m1017 -33 c10 0 28 11 41 25 28 30 35 27 19 -8 -9 -21 -23 -27 -93 -41 -107
-21 -128 -21 -124 2 3 13 13 17 46 15 38 -2 45 1 65 32 l22 34 3 -29 c2 -21 9
-30 21 -30z m-492 16 c-3 -22 1 -30 15 -34 20 -5 25 -42 6 -42 -25 0 -193 20
-205 25 -9 3 -8 15 5 45 l17 41 83 -3 84 -3 -5 -29z m224 10 c52 16 52 16 75
-10 13 -14 24 -34 24 -44 0 -17 -10 -20 -77 -26 -42 -3 -105 -6 -140 -6 -58 0
-63 2 -63 22 0 12 14 33 32 48 30 25 34 26 64 14 27 -11 40 -11 85 2z m479 -7
c0 -6 -14 -40 -31 -74 -29 -59 -34 -65 -97 -93 -121 -54 -119 -56 -67 44 l45
88 63 22 c73 26 87 28 87 13z m-2955 -19 c8 -13 -9 -19 -62 -23 -73 -6 -47 11
49 32 4 0 10 -4 13 -9z m1963 -27 l94 -17 25 -51 c14 -27 36 -67 49 -87 23
-36 23 -38 5 -38 -45 0 -197 52 -214 73 -32 40 -78 137 -65 137 7 0 55 -8 106
-17z m822 0 c0 -5 -20 -44 -43 -88 l-43 -79 -73 -19 c-40 -10 -75 -17 -77 -14
-2 2 6 43 17 90 l21 87 37 1 c20 0 59 7 86 14 62 16 75 17 75 8z m-560 -39
l66 -6 17 -76 c9 -43 17 -81 17 -86 0 -9 -135 0 -150 9 -10 6 -100 159 -100
170 0 4 19 5 43 2 23 -4 71 -9 107 -13z m346 -6 c-3 -7 -12 -46 -21 -85 -11
-48 -22 -73 -31 -73 -8 0 -14 -5 -14 -11 0 -5 5 -7 10 -4 15 9 12 -7 -11 -69
l-22 -56 -46 0 -46 0 -22 60 -22 60 72 2 72 2 -75 5 -75 6 -17 60 c-29 107
-31 104 70 108 48 1 108 4 134 5 34 1 46 -2 44 -10z m-2786 -60 c1 -64 13 -67
412 -85 171 -7 191 -1 215 68 10 27 21 49 26 49 24 0 57 -35 57 -60 0 -37 -33
-61 -125 -90 -108 -35 -351 -40 -478 -11 -116 27 -171 56 -175 94 -2 19 4 34
20 47 34 28 48 25 48 -12z m3023 -77 c-52 -48 -164 -121 -187 -121 -3 0 15 28
40 62 42 57 52 65 111 85 36 12 67 24 71 27 3 3 10 6 16 6 6 -1 -17 -27 -51
-59z m-132 -18 c-6 -10 -27 -40 -48 -68 -29 -37 -48 -52 -76 -58 -21 -5 -40
-7 -43 -4 -3 3 2 30 12 60 l17 55 71 15 c39 8 72 15 74 16 1 0 -2 -7 -7 -16z
m-341 -30 c6 -5 40 -96 40 -107 0 -5 -23 -6 -52 -3 -56 7 -78 24 -117 89 l-22
37 73 -6 c40 -3 75 -8 78 -10z"/>
<path d="M2519 1099 c-9 -4 -24 -21 -34 -36 l-18 -28 34 30 c19 17 36 31 38
33 13 7 -7 9 -20 1z"/>
<path d="M4437 3639 c-130 -18 -234 -146 -288 -354 -23 -91 -35 -287 -22 -380
7 -46 8 -22 8 110 0 196 13 268 75 402 67 145 152 212 272 214 74 1 123 -16
185 -67 45 -37 112 -125 157 -208 59 -107 115 -325 117 -455 0 -31 4 -65 9
-76 9 -20 9 -16 -5 145 -26 288 -171 563 -340 644 -63 30 -95 35 -168 25z"/>
<path d="M1291 3370 c-92 -306 -113 -350 -140 -302 -6 9 -11 12 -11 6 0 -6 7
-17 15 -24 25 -21 52 14 80 99 30 93 32 80 5 -31 -11 -46 -20 -92 -19 -103 0
-11 13 32 28 95 16 63 49 195 75 293 26 98 46 186 44 195 -2 9 -37 -93 -77
-228z m-24 -142 c-3 -8 -6 -5 -6 6 -1 11 2 17 5 13 3 -3 4 -12 1 -19z"/>
<path d="M1056 3430 c3 -36 11 -105 19 -155 l14 -90 -4 70 c-4 69 -3 68 20
-43 13 -63 26 -117 31 -120 4 -4 4 7 0 23 -4 17 -21 100 -37 185 -33 176 -53
233 -43 130z"/>
<path d="M4340 3445 c0 -11 11 -55 24 -99 37 -125 116 -429 117 -451 0 -11 3
-14 6 -7 3 7 -3 44 -12 83 -10 38 -15 72 -12 75 2 3 10 -17 16 -43 15 -58 47
-113 67 -113 18 0 40 49 48 105 7 48 3 39 -19 -37 -30 -110 -43 -87 -150 253
-42 134 -78 245 -80 248 -3 2 -5 -4 -5 -14z m117 -387 c-3 -8 -6 -5 -6 6 -1
11 2 17 5 13 3 -3 4 -12 1 -19z"/>
<path d="M2295 3350 c-16 -6 -14 -8 12 -7 18 0 30 4 27 9 -6 10 -12 9 -39 -2z"/>
<path d="M2350 3356 c0 -3 18 -10 40 -16 113 -30 180 -165 181 -365 0 -143
-45 -295 -119 -395 -23 -32 -24 -33 -3 -15 12 11 40 56 61 100 140 295 74 640
-132 689 -16 3 -28 4 -28 2z"/>
<path d="M2217 3315 c-20 -14 -37 -28 -37 -31 0 -3 12 3 28 14 15 10 36 24 47
30 11 6 15 12 10 12 -6 0 -27 -11 -48 -25z"/>
<path d="M4645 3318 c-12 -56 -45 -253 -44 -267 1 -9 8 11 15 44 l13 60 -4
-55 c-2 -30 -7 -82 -9 -115 -3 -33 4 -4 14 65 11 69 18 142 16 163 -2 20 0 35
5 31 5 -3 9 10 9 30 0 19 3 41 6 50 3 9 1 16 -5 16 -6 0 -13 -10 -16 -22z m-8
-155 c-3 -10 -5 -2 -5 17 0 19 2 27 5 18 2 -10 2 -26 0 -35z"/>
<path d="M2116 3215 c-54 -71 -117 -238 -115 -305 0 -14 7 4 15 40 20 93 51
173 95 241 43 66 45 77 5 24z"/>
<path d="M3277 3195 c-50 -17 -78 -44 -111 -105 -103 -189 -54 -538 99 -708
25 -28 61 -61 80 -72 20 -12 33 -26 29 -31 -10 -17 -51 -9 -74 16 -29 30 -50
32 -50 4 0 -23 -36 -58 -61 -59 -17 0 -34 -28 -24 -38 3 -3 5 0 5 6 0 12 67
46 86 43 6 0 9 11 6 31 l-5 31 32 -22 c17 -12 28 -27 25 -33 -4 -7 5 -8 26 -3
30 7 32 6 25 -16 -4 -13 -9 -33 -12 -44 -3 -11 -16 -43 -29 -71 l-24 -50 -397
2 -398 2 382 -7 c210 -3 385 -10 389 -13 4 -4 -1 -10 -10 -14 -34 -13 -13 -21
77 -28 50 -4 102 -9 113 -12 18 -5 21 -2 17 18 l-5 24 74 -7 c40 -4 87 -7 103
-7 42 1 -58 16 -115 17 -25 1 -51 5 -58 10 -15 9 -38 90 -48 167 -5 46 -4 54
10 54 9 0 16 -6 16 -14 0 -7 12 -16 28 -19 15 -2 42 -11 61 -18 31 -13 34 -13
48 9 15 22 43 30 43 13 0 -6 21 -13 48 -17 26 -4 50 -12 54 -18 5 -7 8 -4 8 7
0 13 -8 17 -34 17 -26 0 -35 5 -41 23 -6 18 -8 19 -12 5 -4 -16 -7 -16 -27 -3
-22 15 -24 14 -40 -10 -21 -32 -36 -32 -71 1 l-29 26 30 15 c60 31 100 83 129
169 18 54 35 173 25 179 -4 2 -8 -19 -9 -46 -3 -65 -33 -163 -67 -214 -49 -76
-148 -120 -179 -79 -16 21 -20 38 -7 30 5 -3 8 14 8 37 l-1 42 73 -1 c40 0 67
3 60 8 -7 4 -24 8 -38 8 -30 0 -70 26 -70 44 0 24 40 65 90 92 28 15 48 29 46
32 -3 2 -30 -10 -61 -26 -49 -27 -57 -29 -62 -14 -6 14 6 168 22 297 4 28 3
34 -3 20 -5 -11 -14 -58 -21 -105 -6 -47 -17 -107 -23 -134 -10 -44 -12 -48
-24 -31 -7 10 -25 52 -39 94 -14 42 -30 83 -36 91 -16 23 -3 -41 26 -130 14
-41 23 -64 20 -50 -4 24 -4 24 20 -5 l24 -30 10 25 c9 24 10 23 10 -11 1 -19
6 -40 12 -46 8 -8 6 -18 -6 -37 -14 -22 -16 -32 -7 -51 7 -14 8 -25 3 -25 -5
0 -16 -2 -23 -5 -9 -4 -20 8 -31 31 -19 40 -16 54 8 34 12 -10 15 -10 15 1 0
24 -21 91 -27 85 -3 -3 -1 -19 5 -35 19 -53 -12 -37 -65 34 -26 35 -49 62 -51
60 -3 -2 21 -44 51 -92 31 -48 60 -99 65 -113 10 -29 4 -108 -10 -116 -5 -3
-26 6 -46 20 -220 154 -285 645 -109 813 144 136 342 -8 417 -302 11 -43 20
-97 20 -119 0 -23 4 -47 9 -54 13 -21 1 84 -20 177 -35 153 -128 293 -224 337
-57 27 -93 29 -148 9z m136 -952 c3 -37 15 -103 27 -147 11 -43 20 -79 18 -80
-2 -1 -46 3 -98 9 -90 10 -94 11 -73 26 29 20 69 108 91 198 9 38 20 67 23 65
3 -2 9 -34 12 -71z m71 29 c3 -5 -1 -9 -9 -9 -8 0 -15 4 -15 9 0 4 4 8 9 8 6
0 12 -4 15 -8z"/>
<path d="M1562 3155 c-1 -22 -4 -58 -7 -80 l-5 -40 11 40 c5 22 8 58 6 80 l-4
40 -1 -40z"/>
<path d="M2321 2943 c0 -105 -4 -200 -8 -210 -3 -10 -3 -15 2 -11 4 4 11 22
15 40 l8 33 1 -31 c2 -59 13 -94 30 -94 14 0 14 2 1 10 -11 6 -16 44 -22 152
-5 79 -12 179 -17 223 -7 68 -8 52 -10 -112z"/>
<path d="M1380 2989 c-48 -21 -77 -28 -113 -27 -26 2 -47 0 -47 -4 0 -5 15 -8
32 -8 l32 0 -48 -42 c-38 -35 -48 -51 -53 -83 -3 -27 0 -46 11 -60 14 -19 15
-18 4 11 -27 74 25 133 164 188 51 21 97 42 103 47 18 17 -19 8 -85 -22z"/>
<path d="M4745 2933 c-57 -108 -112 -186 -128 -180 -8 3 -12 31 -11 88 l2 84
-13 -95 c-7 -52 -13 -108 -13 -125 l0 -30 11 31 c7 17 17 29 24 27 6 -2 23 12
38 32 16 19 29 34 31 32 2 -1 -12 -41 -31 -87 -19 -47 -35 -98 -35 -114 0 -23
-3 -27 -17 -21 -10 4 -34 8 -53 11 l-35 4 33 -9 c19 -5 39 -14 44 -19 14 -14
37 -240 37 -371 1 -100 0 -103 -16 -85 -25 26 -102 28 -124 2 -15 -16 -18 -16
-29 -3 -14 16 -30 20 -30 7 0 -5 11 -15 25 -22 22 -12 27 -11 44 9 13 15 25
20 33 15 7 -5 22 -7 34 -6 11 2 31 -5 43 -15 22 -18 23 -20 10 -121 l-12 -102
-34 -9 c-25 -7 -45 -6 -76 5 -114 41 -506 129 -612 138 -40 4 -26 -1 45 -13
196 -35 553 -123 573 -141 5 -4 -4 -11 -20 -15 -53 -13 -218 -78 -310 -121
l-92 -44 -133 15 c-242 26 -684 49 -655 34 7 -4 100 -9 207 -13 239 -7 431
-26 748 -71 477 -69 839 -157 1185 -288 37 -15 67 -23 67 -19 0 9 -329 125
-450 158 -223 61 -572 129 -880 172 l-65 9 105 50 c103 50 340 133 378 133 15
0 18 -5 14 -27 -2 -16 -2 -26 1 -23 6 5 9 30 28 184 11 94 8 349 -6 466 -4 34
5 16 38 -75 84 -234 190 -413 273 -463 24 -15 44 -30 44 -33 0 -3 -33 -12 -74
-18 -41 -7 -123 -26 -183 -42 -59 -16 -114 -30 -120 -31 -7 -1 -13 -7 -13 -15
0 -11 5 -11 29 2 40 20 168 54 280 74 52 9 96 22 98 27 2 6 -8 16 -22 22 -58
26 -18 35 212 49 62 3 113 2 113 -2 0 -5 -7 -17 -17 -27 -15 -17 -13 -18 71
-18 83 0 86 1 76 19 -15 29 -14 29 33 34 l42 4 -46 1 c-46 2 -46 2 -60 49 -10
36 -10 48 -1 51 7 2 12 10 12 18 0 17 1 17 34 4 19 -7 29 -6 41 6 8 9 15 20
15 25 0 15 -30 10 -36 -6 -4 -10 -14 -13 -29 -9 -16 4 -26 0 -33 -13 -13 -22
-18 -17 -24 27 -5 32 -3 36 25 50 36 17 97 93 96 118 0 10 -6 4 -14 -14 -18
-40 -39 -56 -67 -52 -40 5 -35 42 11 79 47 37 47 52 1 19 -23 -17 -34 -20 -39
-11 -5 7 -7 62 -5 124 2 83 1 102 -6 72 -5 -22 -9 -65 -10 -95 0 -30 -4 -61
-9 -69 -7 -10 -4 -19 6 -27 11 -7 17 -27 17 -58 1 -52 -13 -60 -39 -20 -16 25
-16 26 5 19 21 -7 21 -6 5 25 -9 17 -14 38 -11 46 6 15 -51 150 -60 141 -3 -3
10 -48 29 -101 19 -53 31 -96 27 -96 -4 0 -24 18 -44 40 -41 45 -56 44 -56 -3
1 -66 56 -147 101 -147 12 0 15 -7 12 -27 -9 -52 -12 -58 -26 -40 -10 14 -14
14 -25 1 -7 -8 -9 -14 -5 -14 4 0 16 -7 26 -14 16 -13 17 -19 7 -54 l-12 -39
-132 -7 c-72 -4 -156 -10 -187 -14 -31 -5 -66 -5 -77 -1 -18 7 -102 107 -102
121 0 14 46 16 60 3 10 -9 21 -11 30 -5 8 5 21 5 31 -1 12 -6 20 -5 24 1 4 6
15 1 26 -12 12 -13 17 -17 13 -9 -5 9 -3 12 5 7 6 -4 10 -15 9 -24 -2 -13 4
-16 27 -14 17 2 35 9 40 17 8 9 16 10 29 3 28 -16 41 4 28 42 -14 39 1 80 27
73 10 -2 24 4 32 14 13 16 12 17 -3 5 -12 -10 -22 -11 -37 -3 -27 15 -34 14
-27 -5 4 -9 1 -23 -5 -30 -8 -10 -8 -22 0 -45 15 -42 15 -41 -18 -34 -20 4
-30 2 -34 -8 -3 -8 -14 -17 -25 -19 -16 -5 -21 1 -26 24 -4 22 -10 29 -21 24
-8 -3 -15 -1 -15 4 0 5 -24 8 -52 6 -38 -3 -58 0 -70 11 -11 10 -18 12 -18 5
0 -7 -11 -12 -23 -12 -20 0 -30 13 -60 78 -21 43 -37 81 -37 85 0 4 20 25 44
47 54 50 117 168 146 271 22 82 41 239 28 239 -4 0 -8 -20 -8 -44 0 -160 -100
-412 -189 -475 -37 -27 -34 -31 -90 139 -29 86 -40 134 -36 155 13 62 40 134
107 284 38 85 67 156 64 158 -2 2 -25 -35 -51 -84z m562 -673 c51 -70 62 -100
35 -100 -37 0 -92 84 -92 142 0 36 1 35 57 -42z m123 -72 c0 -9 -34 -28 -49
-28 -14 0 -14 27 0 32 19 6 49 4 49 -4z m-21 -247 c6 -11 11 -22 11 -25 0 -3
-30 -6 -67 -6 -38 0 -63 4 -57 8 21 13 43 68 55 137 l13 68 17 -81 c10 -45 23
-90 28 -101z"/>
<path d="M4242 2865 c3 -3 42 -21 87 -40 69 -28 89 -33 124 -27 40 7 42 9 43
42 l2 35 -5 -32 c-4 -30 -7 -33 -41 -33 -20 0 -71 13 -112 30 -69 27 -111 38
-98 25z"/>
<path d="M4141 2820 c-1 -39 44 -197 79 -274 36 -80 106 -182 164 -239 60 -58
176 -111 191 -87 4 6 -5 10 -20 10 -150 0 -335 254 -399 550 -8 36 -14 54 -15
40z"/>
<path d="M4464 2758 c21 -17 45 -46 52 -65 18 -42 26 -43 12 0 -11 31 -73 97
-93 97 -5 0 8 -14 29 -32z"/>
<path d="M2490 2755 c-6 -8 -31 -27 -53 -43 -23 -15 -43 -34 -45 -41 -2 -12
111 70 123 89 10 16 -11 12 -25 -5z"/>
<path d="M2125 2730 c3 -5 8 -10 11 -10 2 0 4 5 4 10 0 6 -5 10 -11 10 -5 0
-7 -4 -4 -10z"/>
<path d="M2370 2631 c-14 -28 -12 -63 5 -88 14 -19 13 -21 -10 -27 -14 -4 -25
-12 -25 -18 0 -9 3 -9 12 0 16 16 41 16 32 0 -4 -7 2 -5 13 5 14 12 38 17 84
18 l64 2 -73 7 c-40 5 -79 13 -87 20 -17 14 -19 53 -5 81 6 10 8 19 6 19 -3 0
-10 -9 -16 -19z"/>
<path d="M5360 2617 c-37 -19 -88 -92 -104 -150 -20 -72 -27 -129 -15 -122 5
4 9 21 9 38 0 79 59 195 111 223 44 22 77 17 111 -16 17 -17 28 -24 24 -15 -3
9 -6 18 -6 21 0 2 -13 10 -30 19 -35 18 -67 19 -100 2z"/>
<path d="M4503 2606 c-4 -8 -52 -28 -106 -46 -54 -18 -97 -33 -95 -35 2 -2 51
9 108 25 58 16 101 29 97 29 -4 1 -3 10 3 21 12 22 6 28 -7 6z"/>
<path d="M1461 2314 c-1 -28 -4 -31 -27 -26 -21 4 -25 1 -22 -14 4 -26 -27
-29 -54 -5 -25 24 -38 27 -38 9 0 -7 -3 -24 -5 -38 -5 -22 -4 -22 6 3 11 27
12 28 36 12 31 -21 78 -12 69 12 -5 12 -1 14 14 10 11 -3 22 -1 25 3 6 10 24
8 44 -4 8 -5 16 -4 21 4 5 7 9 8 11 2 2 -6 13 -12 24 -14 16 -2 20 2 17 24 -2
22 1 25 18 21 11 -3 20 -14 20 -24 0 -11 5 -16 14 -13 7 3 20 -2 29 -10 9 -9
22 -16 30 -16 9 0 18 -6 20 -12 4 -10 8 -9 16 2 8 12 13 12 30 -4 11 -10 24
-15 30 -12 15 9 43 -25 38 -45 -4 -15 1 -19 23 -19 29 0 48 16 35 28 -4 4 -10
1 -12 -5 -7 -21 -33 -15 -34 7 -1 11 -3 25 -4 30 -1 6 -3 15 -4 22 -1 9 -4 9
-13 0 -8 -8 -19 -8 -45 3 -18 8 -40 12 -48 9 -8 -4 -15 -1 -15 6 0 7 -7 10
-15 6 -8 -3 -15 -1 -15 4 0 5 -11 12 -25 16 -14 3 -25 12 -25 19 0 7 -10 15
-22 19 -34 9 -38 8 -38 -10 0 -11 -6 -13 -19 -9 -11 3 -22 2 -25 -4 -10 -15
-43 -1 -54 22 -10 20 -11 20 -11 -9z"/>
<path d="M1240 2239 c-8 -12 -21 -27 -28 -35 -8 -9 -9 -15 -1 -19 6 -4 13 2
16 14 4 16 14 21 42 22 20 1 28 3 19 6 -10 2 -18 11 -18 19 0 20 -13 17 -30
-7z"/>
<path d="M2698 2252 c-10 -2 -18 -8 -18 -13 0 -6 -4 -7 -10 -4 -5 3 -10 1 -10
-4 0 -6 7 -11 15 -11 8 0 15 5 15 10 0 6 7 10 16 10 10 0 14 -5 10 -16 -3 -8
-2 -12 4 -9 6 3 10 1 10 -4 0 -18 77 -13 84 4 6 18 -22 34 -33 18 -13 -20 -36
-19 -51 1 -8 12 -23 20 -32 18z"/>
<path d="M648 2243 c7 -3 16 -2 19 1 4 3 -2 6 -13 5 -11 0 -14 -3 -6 -6z"/>
<path d="M2963 2226 c-13 -15 -33 -26 -48 -26 -15 0 -25 -6 -25 -15 0 -23 -30
-6 -31 19 -1 17 -2 18 -6 3 -5 -21 13 -47 33 -47 8 0 14 7 14 15 0 9 9 15 22
15 12 0 30 7 40 17 10 9 18 11 18 6 0 -18 60 -21 76 -5 13 13 17 12 29 -4 11
-16 16 -17 27 -6 11 11 10 12 -4 7 -12 -5 -18 -2 -18 8 0 23 -28 29 -39 8 -14
-25 -59 -17 -63 11 -3 19 -5 18 -25 -6z"/>
<path d="M85 2230 c-4 -6 -12 -7 -18 -4 -9 5 -9 3 0 -6 9 -10 16 -10 25 -2 8
6 36 12 63 15 l50 3 -57 2 c-31 1 -60 -3 -63 -8z"/>
<path d="M3775 2200 c20 -21 35 -28 48 -24 15 5 19 3 14 -9 -3 -9 6 -23 26
-36 l32 -22 -25 23 c-14 13 -25 30 -25 38 0 8 -10 16 -21 18 -12 2 -30 12 -40
23 -9 10 -22 19 -27 19 -6 0 2 -14 18 -30z"/>
<path d="M4595 2220 c4 -6 11 -8 16 -5 14 9 11 15 -7 15 -8 0 -12 -5 -9 -10z"/>
<path d="M10 2210 c-18 -12 -2 -12 25 0 13 6 15 9 5 9 -8 0 -22 -4 -30 -9z"/>
<path d="M2820 2211 c0 -6 5 -13 10 -16 6 -3 10 1 10 9 0 9 -4 16 -10 16 -5 0
-10 -4 -10 -9z"/>
<path d="M3130 2200 c0 -5 5 -10 10 -10 6 0 10 5 10 10 0 6 -4 10 -10 10 -5 0
-10 -4 -10 -10z"/>
<path d="M4228 2163 c-16 -2 -28 -8 -28 -13 0 -5 -14 -4 -30 2 -41 14 -63 4
-55 -24 6 -22 5 -22 -9 -5 -9 12 -16 14 -21 8 -3 -6 -18 -10 -33 -9 -65 4
-101 -2 -96 -16 6 -17 -12 -31 -21 -16 -3 5 -15 10 -26 10 -11 0 -18 -4 -14
-10 3 -5 12 -7 19 -4 8 3 17 1 20 -5 9 -14 36 -2 36 16 0 12 8 14 35 9 19 -4
35 -3 35 1 0 5 12 8 28 7 15 -1 26 -7 25 -13 -3 -13 7 -14 26 -2 8 5 11 16 8
25 -9 22 13 29 49 16 20 -8 30 -8 32 -1 2 6 19 11 37 11 27 0 40 -7 61 -34 26
-32 27 -33 45 -15 11 11 19 24 19 29 0 6 5 10 10 10 9 0 14 -14 11 -32 0 -5 6
-8 15 -8 15 0 15 2 2 23 -20 30 -44 33 -51 7 -8 -29 -38 -22 -55 13 -13 27
-19 28 -74 20z"/>
<path d="M5227 2149 c4 -12 15 -24 25 -27 15 -3 18 -10 14 -28 -4 -14 -2 -24
4 -24 5 0 10 12 10 26 0 17 -6 28 -20 31 -11 3 -20 11 -20 19 0 7 -4 15 -9 18
-5 4 -7 -4 -4 -15z"/>
<path d="M30 2080 c-19 -3 37 -5 125 -2 88 3 162 6 164 8 8 7 -253 2 -289 -6z"/>
<path d="M3681 2026 c2 -2 36 -6 74 -9 54 -4 61 -4 30 3 -40 9 -112 13 -104 6z"/>
<path d="M2385 1704 c-88 -7 -175 -13 -194 -13 -19 -1 -32 -4 -28 -7 3 -3 108
1 234 10 125 9 251 18 278 19 28 2 10 4 -40 4 -49 0 -162 -5 -250 -13z"/>
<path d="M1420 1571 c-251 -52 -475 -114 -679 -187 -172 -62 -381 -149 -471
-197 -104 -55 -270 -158 -270 -168 0 -5 42 19 93 52 179 116 461 241 787 348
211 69 315 96 590 152 129 26 224 48 210 48 -14 0 -131 -22 -260 -48z"/>
<path d="M3400 1344 c60 -8 128 -8 123 -1 -2 4 -37 6 -76 6 -40 -1 -61 -3 -47
-5z"/>
<path d="M3590 1255 c35 -36 67 -65 69 -65 3 0 -24 29 -59 65 -35 36 -67 65
-69 65 -3 0 24 -29 59 -65z"/>
<path d="M3700 1145 c19 -19 36 -35 39 -35 3 0 -10 16 -29 35 -19 19 -36 35
-39 35 -3 0 10 -16 29 -35z"/>
<path d="M1597 1028 c-6 -4 17 -7 53 -7 66 1 65 5 -3 11 -20 2 -43 0 -50 -4z"/>
<path d="M1720 1029 c0 -5 5 -7 10 -4 6 3 10 8 10 11 0 2 -4 4 -10 4 -5 0 -10
-5 -10 -11z"/>
<path d="M4280 1028 c0 -15 9 -18 58 -16 l57 2 -50 3 c-27 3 -53 10 -57 16 -5
8 -8 6 -8 -5z"/>
<path d="M3990 1018 c0 -5 45 -8 100 -8 55 0 100 3 100 8 0 4 -45 7 -100 7
-55 0 -100 -3 -100 -7z"/>
<path d="M4409 1007 c5 -5 21 -7 37 -5 27 3 26 4 -8 9 -22 3 -34 1 -29 -4z"/>
</g>
</svg>
