
<svg xmlns="http://www.w3.org/2000/svg" version="1.1" xmlns:xlink="http://www.w3.org/1999/xlink" preserveAspectRatio="none" x="0px" y="0px" width="550px" height="400px" viewBox="0 0 550 400">
<defs>
<g id="Layer6_0_FILL">
<path fill="#FFFFFF" stroke="none" d="
M 416.05 403.2
Q 417.9 407.15 420.05 408.5 421.05 409.15 422.25 410.4
L 435.5 410.4 433.7 382.7 416.05 403.2
M 52.55 409.4
Q 52.8 409.9 53.05 410.4
L 71.55 410.4 70.2 388.85 52.55 409.4
M 93.8 408
Q 95.7 401.9 98.15 398.15 98.6 397.6 99 396.9
L 74.75 387.9 76.35 410.4 93.1 410.4
Q 93.4 409.3 93.8 408
M 187.3 410.4
Q 189.3 408.95 189.85 408.2 190.45 407.2 192.55 403.85
L 192.55 403.8
Q 194.5 400.3 196.8 398.6 197.2 398.35 197.6 398
L 179.35 385.6 178.05 410.4 187.3 410.4
M 187.3 410.4
L 194.7 410.4
Q 193.9 406.95 192.55 403.85 190.45 407.2 189.85 408.2 189.3 408.95 187.3 410.4
M 175.75 385
L 160.1 393.45
Q 161.1 396.45 162.7 398 165.1 400.35 169.05 408 169.65 409.25 170.25 410.4
L 174.2 410.4 175.75 385
M 179.5 381.95
L 199.6 395.9
Q 201.3 394.05 203.45 391.25 205.8 388 208.6 383.9
L 180.3 368.3 179.5 381.95
M 181.2 351.1
L 180.45 365.4 210.05 381.75
Q 211.45 379.65 212.9 377.3 216.35 371.9 218.7 368.15
L 182.35 351.35 181.2 351.1
M 238.65 333.3
Q 238.7 333.15 238.25 332
L 181.9 338.05 181.4 347.95 220.4 365.3
Q 220.6 364.9 220.85 364.55 223.55 360.05 222.7 359.45 221.95 358.9 224.05 356 226.2 353.1 226.3 352.25 226.6 350.4 228.1 348.9 229.1 348.15 231.45 346.8 233.8 345.45 234.8 344.65 236.35 343.2 236.6 341.35 236.7 340.45 236.15 338.05 235.85 336.5 235.8 335.55 238.45 334.4 238.65 333.3
M 227.85 295.45
Q 226.95 295.05 226 294.7
L 227.2 295.9 182.5 326.05 182.1 335.45 237.3 329.6
Q 236.75 327.85 236.9 326.95 237.05 326.05 238.1 324.6 239.15 323.15 239.3 322.3 239.4 321.4 238.95 318.25 238.6 315 238.7 314.2 239.15 311.95 239.25 311.05 239.45 309.55 238 308 236.45 306.55 235.25 304 234.05 301.6 232.2 298.9 230.75 296.85 227.85 295.45
M 191.15 290.55
Q 191.95 291.25 191.35 292.1 190.15 293.55 187.05 293.7 185.65 293.9 185 294.8 184.55 295.4 184.3 296.85 184.2 297.25 184.2 297.55 184.15 297.85 184.05 298.05
L 182.8 322.2 183.3 322.3 223.65 293.85
Q 221.1 292.65 219.85 291.4 218.05 289.55 216.05 288.75 214 287.85 213.75 287.55 212.8 286.65 206.95 286 201.15 285.3 195.35 286.05 189.6 286.9 189.95 288.35 190.35 289.85 191.15 290.55
M 144.7 365.6
Q 146.8 368.45 145.3 367.8 144.2 367.15 147.75 371.55
L 177.05 364 178 349.45 131.8 345.25
Q 133.1 347.8 136.15 352.6 142.55 362.75 144.7 365.6
M 72.8 361.95
L 74.3 382.45 101.1 392.8
Q 102.8 389.25 104.9 384 107.25 377.95 109.95 370.5
L 72.8 361.95
M 36.45 385.6
Q 37.2 386.15 37.95 386.8 47.6 394.95 50.4 403.75 50.6 404.35 50.8 405.05
L 69.85 383.3 68.55 361.95 36.45 385.6
M 10 352.6
Q 12 355.8 16.55 361.35 26.15 373 29.2 376.1 32.2 379.3 30.3 378.95 28.8 378.7 33.9 383.3
L 68.2 357.3 66.85 335.35 10 352.6
M 65.9 332.2
L 66.85 335.35 65.6 315.85 -8.9 305.8
Q -8.7 307.2 -8.6 308.85 -7.85 319.05 -2.65 324.6 2.5 330.2 6.25 338.9 10.05 347.6 8.5 348.65 8.35 348.75 8.35 348.95
L 65.9 332.2
M 66.85 335.35
L 65.9 332.2 8.35 348.95
Q 8.15 349.9 10 352.6
L 66.85 335.35
M 72.5 335.95
L 71 336.05 72.55 357.6 111.3 366.65
Q 112.65 362.8 114.1 358.6 117.35 348.85 119.5 342.1
L 72.5 335.95
M 65.4 312
L 64.5 298.45 64.5 298.25 -9.6 259.4
Q -10.35 259.9 -11 260.45 -12.3 261.55 -12.55 263.45 -12.85 265.35 -12.85 271.5 -12.85 273.8 -14.1 275.45 -14.75 276.35 -16.65 277.9 -18.5 279.45 -19.2 280.55 -20.35 282.3 -20.35 288.1 -20.35 293.8 -14.8 296.2 -11.75 297.5 -10.15 301.3
L 65.4 312
M 47.95 237.05
Q 44.9 232.9 42.75 233.8 41.65 234.25 39.65 234.35 37.9 234.4 35.5 234.2 30.25 233.85 29.7 234.85 29.1 235.9 27.2 235.05 26.25 234.65 25.6 234.65 23.55 234.65 19.85 235.9 16.25 237.15 12.2 239.3 2.8 244.2 -0.1 248.55 -3.55 253.55 -6.55 256.65
L 64.25 293.85 61.7 254.6
Q 61.05 252.3 60.55 249.05 59.5 242.45 55.25 241.9 51.05 241.3 47.95 237.05
M 117.45 231.3
L 115.85 230.1
Q 114.2 230.1 112.8 230
L 68.65 292.55 68 292.65 65.45 256.4
Q 65.3 257.7 65.1 258.45 64.8 259.65 64.25 260.65 63.8 259.8 63.3 258.75 62.4 257.15 61.7 254.6
L 64.25 293.85 -6.55 256.65
Q -6.6 256.7 -6.65 256.75 -6.95 257 -7.15 257.2 -8.3 258.35 -9.6 259.4
L 64.5 298.25 64.5 298.45 65.4 312 -10.15 301.3
Q -9.35 303.2 -8.9 305.8
L 65.6 315.85 66.85 335.35 68.2 357.3 33.9 383.3
Q 35 384.25 36.45 385.6
L 68.55 361.95 69.85 383.3 50.8 405.05
Q 51.65 407.55 52.55 409.4
L 70.2 388.85 71.55 410.4 76.35 410.4 74.75 387.9 99 396.9
Q 99.9 395.25 101.1 392.8
L 74.3 382.45 72.8 361.95 109.95 370.5
Q 107.25 377.95 104.9 384 102.8 389.25 101.1 392.8 99.9 395.25 99 396.9 98.6 397.6 98.15 398.15 95.7 401.9 93.8 408 93.4 409.3 93.1 410.4
L 170.25 410.4
Q 169.65 409.25 169.05 408 165.1 400.35 162.7 398 161.1 396.45 160.1 393.45
L 175.75 385 174.2 410.4 178.05 410.4 179.35 385.6 197.6 398
Q 198.5 397.2 199.6 395.9
L 179.5 381.95 180.3 368.3 208.6 383.9
Q 209.3 382.9 210.05 381.75
L 180.45 365.4 181.2 351.1 182.35 351.35 218.7 368.15
Q 219.65 366.6 220.4 365.3
L 181.4 347.95 181.9 338.05 238.25 332
Q 238.05 331.4 237.7 330.5 237.5 330 237.3 329.6
L 182.1 335.45 182.5 326.05 227.2 295.9 226 294.7
Q 224.75 294.25 223.65 293.85
L 183.3 322.3 182.8 322.2 184.05 298.05
Q 183.85 298.8 183.6 299.25 183.3 300 182.7 300.45 182.45 299.8 182.15 298.9 181.6 297.7 181.25 295.8
L 179.7 321.9 127.55 278.65
Q 127.5 278.65 127.45 278.65 127.25 278.8 127 278.9 126.05 279.25 124.9 279.6
L 179.5 324.8 179.45 325 178.95 334 120.65 306.55
Q 121.05 307.95 121.2 309.75
L 178.75 336.55 178 349.45 177.05 364 147.75 371.55
Q 144.2 367.15 145.3 367.8 146.8 368.45 144.7 365.6 142.55 362.75 136.15 352.6 133.1 347.8 131.8 345.25
L 178 349.45 177.5 347.15 130.8 342.4
Q 130.85 342.2 131 342.2 132.25 341.95 130.15 335.35 127.95 328.65 124.45 323.65 124 323.05 123.7 322.45 122.05 326.9 122.95 327.3 124 327.75 121.55 335.7 121.3 336.35 121.15 337.15 120.4 339.4 119.5 342.1 117.35 348.85 114.1 358.6 112.65 362.8 111.3 366.65
L 72.55 357.6 71 336.05 72.5 335.95 119.5 342.1
Q 120.4 339.4 121.15 337.15
L 70.75 331.45 69.7 316.55 114.95 291.25
Q 115.2 290.9 115.45 290.65 116.1 290.15 117.75 289.65
L 120.65 288.1
Q 121.1 287.45 121.2 286.55 121.5 284.7 121.7 283.45
L 69.45 312.6 68.4 298.45 117.45 231.3
M 158.8 389.2
Q 157.45 382.75 150.6 374.9 150.05 374.25 149.55 373.7
L 176.9 367.1 175.95 381.3 159.1 390.25
Q 158.95 389.7 158.8 389.2
M 150.6 374.9
Q 157.45 382.75 158.8 389.2 158.95 389.7 159.1 390.25
L 175.95 381.3 176.9 367.1 149.55 373.7
Q 150.05 374.25 150.6 374.9
M 99.7 225.8
Q 98.4 224.95 91.15 227 84 228.9 77.1 233 70.2 237.05 70.95 239.15 71.65 241.1 72.75 241.75 73.85 242.35 73.25 243.9 72.05 246.65 68.35 248.55 66.6 249.55 66.05 251.2 65.6 252.3 65.55 254.6 65.55 255.2 65.5 255.7 65.5 256.05 65.45 256.4
L 68 292.65 68.65 292.55 112.8 230
Q 109.5 229.6 107.75 228.35 105.25 226.6 102.7 226.4 100.1 226.1 99.7 225.8
M 128.4 215.45
Q 144.95 214.35 146.3 214.35
L 128.55 213.2
Q 117.6 212.5 99.85 211.4 88.9 210.7 76.45 209.85
L 76.35 209.85
Q 71.2 209.6 65.65 209.2 65.15 209.2 64.65 209.15 60.9 208.95 56.95 208.7 56.85 208.7 56.8 208.7
L 56.75 208.7
Q 56.65 208.65 56.65 208.7 52 208.45 47.15 208.1 39.75 207.65 31.95 207.2 27.2 206.9 22.3 206.6 22.85 209.05 23.25 210.35 23.35 210.65 23.45 210.95 27.9 211 31.65 211.05 42.3 211.15 46.95 211.15 51.8 211.15 56.5 211.4
L 56.55 211.4
Q 56.65 211.4 56.8 211.4 60.7 211.55 64.5 211.95 64.95 211.95 65.5 212 69.8 212.4 76.1 213.3
L 76.15 213.3
Q 76.25 213.3 76.45 213.35 77.95 213.6 79.65 213.85 88.75 215.15 93.4 215.65 101.55 216.5 110.45 216.5 111.8 216.5 128.4 215.45
M 128.65 239.2
Q 126.75 236.2 124.05 233.2 122 230.8 118.15 230.35 117.05 230.1 115.85 230.1
L 117.45 231.3 68.4 298.45 69.45 312.6 121.7 283.45
Q 121.5 284.7 121.2 286.55 121.1 287.45 120.65 288.1
L 117.75 289.65
Q 116.1 290.15 115.45 290.65 115.2 290.9 114.95 291.25
L 69.7 316.55 70.75 331.45 121.15 337.15
Q 121.3 336.35 121.55 335.7 124 327.75 122.95 327.3 122.05 326.9 123.7 322.45 124 323.05 124.45 323.65 127.95 328.65 130.15 335.35 132.25 341.95 131 342.2 130.85 342.2 130.8 342.4
L 177.5 347.15 178 349.45 178.75 336.55 121.2 309.75
Q 121.05 307.95 120.65 306.55
L 178.95 334 179.45 325 179.5 324.8 124.9 279.6
Q 126.05 279.25 127 278.9 127.25 278.8 127.45 278.65 127.5 278.65 127.55 278.65
L 179.7 321.9 181.25 295.8
Q 181 294.15 180.95 291.95 180.7 287.45 177.45 285.9 174.15 284.3 172.2 280.8 170.1 277.25 168.35 277.25 166.65 277.25 162.55 275.55 158.5 273.85 157.95 274.4 157.4 274.95 156.05 273.85 155.3 273.35 154.85 273.15 153.25 272.6 150.1 272.45 147.2 272.25 143.9 272.55 137.95 273.05 135 274.3 134.55 272.95 134.55 272.05 134.55 270.75 135.6 268.05 136.65 265.4 136.65 264.05 136.65 262.75 135.6 258.15 134.55 253.65 134.55 252.35 134.75 248.85 134.75 247.4 134.75 245.05 132.65 243.65 130.5 242.15 128.65 239.2
M 59.65 143
Q 58.15 141.55 54.85 142.3 54.3 142.45 53.75 142.55 51.45 142.95 49.55 141.45 48.9 140.95 47.9 140.85 45.85 140.55 44.3 138.55 43.9 138.05 43.05 137.75 42.5 137.6 41.95 137.05 38.3 133.65 33.7 129.65 33.1 129.15 32.15 128.95 31.15 128.6 30.1 128.3 28.15 127.7 26.3 126.9 25.75 126.7 25.1 126.55 23.7 126.2 22.3 126 21.6 125.9 20.95 125.85 20.4 127.05 19.85 128.4 17.7 133.05 15.85 135.25 14.8 136.45 10.55 140.55 5 145.9 2.65 148.25 -7.55 158.6 -7.55 162 -7.55 164.3 -1.5 170.5 -0.55 171.1 -0.7 171.35 3.25 168.35 8.45 165.1 9.05 164.75 9.6 164.2 11.8 162.45 14.95 162.55 15.45 162.55 16.1 162.45 18.7 162.05 21.3 161.65 21.85 161.5 22.45 161.45 27.75 160.95 33.1 160.5 33.65 160.5 34.05 159.8 35.25 158.3 37.2 157.35 38.45 156.65 39.75 156.1 40.6 155.6 41.65 155.65 44.6 155.9 46.15 155 47 154.55 48 154.75 50.3 155.25 50.95 153.8 51.25 152.95 52.1 152.15 54.75 149.5 59.8 148.75 60.35 148.65 61 148.5 62.55 148.15 64 147.8 65 147.6 66.2 147.35 64.95 146.6 63.7 145.9 61.6 144.8 59.65 143
M 32.7 15.1
Q 34.8 14.45 36.55 13.95 34.65 11.05 33.3 8.4 32.4 11.8 31.3 15.5 32 15.3 32.7 15.1
M 163.65 107.55
Q 164 108.5 163.45 111.9 164.35 109.75 165.45 108.75 166.5 107.65 168.3 109 170.05 110.3 170.3 112.6
L 170.6 114.6
Q 170.6 114.4 170.75 108.9 170.95 103.55 169 99.55 166.6 94.55 161.45 94.65 157.25 94.5 153.5 99.1 150.6 102.65 148.95 107.7 148.9 107.55 148.85 107.45 148.9 107.6 148.9 107.8 148.858984375 107.841015625 148.85 107.9 148.859375 107.85 148.9 107.85 148.9 108.2 148.9 108.7 148.55 108.2 146.85 106.05 144.9 103.45 142.15 102.4 141.1 102 140.1 102 141.15 99.5 142.5 98.25 143.95 96.7 146.05 98.7 148.2 100.6 148.4 103.75
L 148.7 106.55
Q 148.7 106.1 149.2 98.75 149.75 91.35 147.5 85.7 144.7 78.7 138.2 78.5 132.75 78.35 127.85 84.5 124 89.35 121.45 96.45 125.05 91.2 128.8 91.3 130.55 91.35 131.5 93.15 132.4 94.75 132.2 96.7 132.1 97.55 131.35 99.75 132.7 96.95 134.7 95.6 136.65 94.25 138.25 94.55 139.75 94.95 140.2 96.4 140.6 97.7 140 102 137.7 101.95 135.55 103.55 132.85 105.55 132.35 109.45 131.95 112.45 132.85 115.8 133 112.7 134.85 111.25 135.7 110.6 136.75 110.9 137.65 111.1 138.15 111.8 138.35 112.15 138.55 113.15 138.4 111.7 138.95 110.5 139.55 109.3 140.3 108.85 141.2 108.35 141.8 108.7 142.45 109 143.55 110.85 143.15 109.4 143.45 108.4 143.8 107.4 145.35 107.2 146.95 107.05 148.05 108.05
L 148.9 108.75
Q 148.75 110.35 148 113.25 146.85 117.6 145.55 120.75 143.5 126.15 140.6 130.8 139.75 132.2 139 133.2 137.9 133.25 136.8 133.45 133.35 133.95 132.55 132.05 131.65 130.2 130.35 129.95 128.2 129.45 126.05 129.05 125 128.95 124.65 128.4 121.3 123.55 114.15 126.4 113.3 126.75 112.45 127.25 107.55 130.1 101.5 129.5 101.25 129.5 100.85 129.5 100.15 129.4 99.3 129.35 93.95 128.85 91.1 131.4 90.25 132.1 89.35 132.65 88.65 133.1 88 133.55 87.7 131.5 87.55 129.45 87.25 126.1 87.45 121.5 87.5 119.55 87.7 118.2 87.9 118.4 88.05 118.6 87.9 118.25 87.7 117.95 87.8 117.35 87.95 116.85 88 117.2 88 117.25
L 88 116.65
Q 88.15 116.1 88.3 115.75 88.15 116 88 116.2
L 88 114.5
Q 88 111.45 89.9 109.2 91.75 107 93.4 108.2 94.9 109.3 96.1 111.65 95.15 111.8 94.25 112.3 91.6 113.8 89.9 116.6 88.15 119.35 88.1 119.55
L 88.9 118.65
Q 89.9 117.55 91.5 117.45 93 117.4 93.4 118.4 93.8 119.3 93.55 120.7 94.5 118.8 95.05 118.4 95.65 118 96.55 118.35 97.35 118.65 98 119.75 98.65 120.8 98.6 122.2 98.75 121.25 98.95 120.85 99.35 120.1 100.25 119.75 101.25 119.35 102.15 119.85 104.1 120.95 104.4 123.9 105.05 120.55 104.4 117.75 103.6 114 100.85 112.45 98.5 111.15 96.2 111.65 95.15 107.45 95.55 106.05 95.75 104.65 97.25 104.05 98.75 103.5 100.8 104.5 102.9 105.45 104.45 108.05 103.5 106 103.3 105.25 103 103.35 103.7 101.65 104.45 99.7 106.15 99.4 109.9 98.75 113.8 103.35 110.8 96.8 106.65 92.7 101.3 87.45 96.05 88.4 89.65 89.55 87.45 96.75 85.75 102.6 86.85 109.75 87.6 114.75 87.9 116.4 87.6 116.8 87.45 117.3 85.4 113.4 82.7 110.7 78.75 106.85 74.55 107.5 69.5 108.25 67.55 113.45 65.9 117.65 66.6 122.85 67.2 128.15 67.25 128.35
L 67.35 126.4
Q 67.4 124.1 69.05 122.6 70.7 120.95 71.8 121.9 72.95 122.7 74.05 124.7 73.2 121.4 73.5 120.4 73.8 119.3 75 118.95 76.15 118.55 77.8 119.25 79.35 120.1 80.55 121.9 79.85 120.4 79.7 119.8 79.55 118.45 80.15 117.2 80.8 115.85 82.2 115.65 84.7 115.25 87.2 117.8 85.95 121.05 85.35 128.05 85.05 132.55 85 135.9 84.7 136.1 84.45 136.4 81.95 138.7 81.55 140.7 81 143.55 79.1 145 78.8 145.2 78.5 145.45 75.25 147.55 70.6 146.75 69.5 146.6 68.55 146.75 67.3 147.05 66.2 147.35 65 147.6 64 147.8 62.55 148.15 61 148.5 60.35 148.65 59.8 148.75 54.75 149.5 52.1 152.15 51.25 152.95 50.95 153.8 50.3 155.25 48 154.75 47 154.55 46.15 155 44.6 155.9 41.65 155.65 40.6 155.6 39.75 156.1 38.45 156.65 37.2 157.35 35.25 158.3 34.05 159.8 33.65 160.5 33.1 160.5 27.75 160.95 22.45 161.45 21.85 161.5 21.3 161.65 18.7 162.05 16.1 162.45 15.45 162.55 14.95 162.55 11.8 162.45 9.6 164.2 9.05 164.75 8.45 165.1 3.25 168.35 -0.7 171.35 0.8 172.85 2.6 174.55 7.85 179.6 14.8 185.45 17.25 187.7 18.9 192.25 19.95 195.2 21.1 201.2 21.75 204.35 22.3 206.6 27.2 206.9 31.95 207.2 39.75 207.65 47.15 208.1 52 208.45 56.65 208.7 56.65 208.65 56.75 208.7
L 56.8 208.7
Q 56.85 208.7 56.95 208.7 60.9 208.95 64.65 209.15 65.15 209.2 65.65 209.2 71.2 209.6 76.35 209.85
L 76.45 209.85
Q 88.9 210.7 99.85 211.4 117.6 212.5 128.55 213.2
L 146.3 214.35
Q 144.95 214.35 128.4 215.45 111.8 216.5 110.45 216.5 101.55 216.5 93.4 215.65 88.75 215.15 79.65 213.85 77.95 213.6 76.45 213.35 76.25 213.3 76.15 213.3
L 76.1 213.3
Q 69.8 212.4 65.5 212 64.95 211.95 64.5 211.95 60.7 211.55 56.8 211.4 56.65 211.4 56.55 211.4
L 56.5 211.4
Q 51.8 211.15 46.95 211.15 42.3 211.15 31.65 211.05 27.9 211 23.45 210.95 24.35 213.95 25.6 216 28.5 216 31.35 216.3 34.25 216.6 37.15 216.95 43.8 218.05 51.2 217.85 54.15 217.8 57.15 217.65 60 217.45 62.8 217.25 63.45 217.2 64.05 217.1 70.1 216.6 75.95 216.85 81.75 217.1 87.25 218.05 89.1 218.35 90.9 218.45 96.7 218.95 103.4 219.4 106.7 218.45 110.45 218.35 111.75 218.3 113 218.35 124.7 218.95 136.4 218.35 137 218.35 137.55 218.35 146.2 218.6 155.05 218.4 157.95 218.35 160.9 218.05 160.8 217.5 161.05 216.65 161.5 215.45 162.25 215.2 167.3 214.25 172.55 214.25 173.75 214.25 174.55 214.8 176.25 216 178.4 215.35 182.8 214.05 187.75 214.65 188.95 214.85 189.8 214.55 192.05 213.85 195.9 214.6 197.1 214.85 198.3 214.85 204.55 215 209.9 216.75 211.1 217.2 212.35 217.3 216.95 217.75 221.55 218.2 225.95 218.55 227.45 216.6 226.85 216 226.25 215.55 223.2 213.2 225.1 213.1 225.7 212.5 226.45 212.3 227.45 212.05 228.55 211.85
L 228.6 211.85
Q 229.15 211.65 229.75 211.55 230.95 211.35 232.1 211.35 233.3 211.35 234.55 211.5 238 211.95 241.45 211.5 242.65 211.35 243.5 211.6 245.75 212.3 250.6 212.4 252.05 212 254.3 212.4 254.9 212.5 255.5 212.5 256.65 212.5 257.9 212.2 259 211.95 259.95 211.45 262.1 210.35 266 210.6 267.15 210.75 267.7 210.2 270.3 207.2 275.4 208.15 276.5 208.45 277.45 207.95 279.65 206.85 283.45 207.6 284.65 207.85 285.8 208.5 289.5 210.7 293.9 212.25 294.65 212.5 295.3 212.55 300.7 212.85 305.75 210.75 304.55 210.75 303.45 210.5 298.35 209.45 294.2 206.55 296.75 205.8 299.4 205.15
L 324.8 204.9
Q 295.85 201.95 292.75 202.3
L 293 201.7 293.4 200.55
Q 292.95 200.35 292.5 200.2 288.95 198.85 287.55 197.6 286.1 196.35 286.25 195.75 286.35 195.15 283.15 197.1 279.8 198.95 277.8 196.85 275.7 194.7 273.95 191.8 272.2 188.8 266.1 188.35 265 188.2 263.95 188.2 262.9 188.2 260.7 188.55 260.35 186.55 258.6 186.65 256.5 186.65 255.4 187.7 254.85 188.2 254.25 188.45 253.3 188.8 252.75 189.35 249.1 193.35 244.9 190.65 242.95 189.45 239.45 190.2 238.8 190.35 238.2 190.55 237.2 190.9 236.45 190.4 233.2 188.3 227.65 188.95 224.95 189.35 222.2 189.45 219.85 189.55 219.5 187.65 218.5 182.45 215.25 179.95
L 215.2 179.95 215.2 179.9
Q 214.75 179.15 213.85 179.05 211.25 177.65 209.8 176.55 208.9 175.9 208.1 175.05 206.6 173.45 206.35 171.5 206.25 171 206.25 170.55 206.25 169.5 205.7 169 205.2 168.45 204.55 167.95 201.85 165.7 199.35 162.3 196.8 158.9 194.35 157.65 191.85 156.3 192.2 155.4 192.55 154.45 192.5 152 192.4 149.5 186.75 149.5 185.25 143.45 182.05 144.05 178.75 144.6 177.3 145.85 175.8 147.1 172.45 144.7 169.05 142.3 167.85 141.05 166.6 139.75 165.4 138.7 164.25 137.6 158.75 137.4 153.25 137.2 154.4 138.7 155.5 140.15 154.95 140.15 153.85 140.15 152.75 139.75 148.65 138.3 147.15 135.4 146.9 134.75 146.25 134.4 145.25 133.95 144.1 133.6 144.5 132.65 144.9 131.45 146.45 127.6 148.1 120.1 150 111.05 148.95 107.75 151.55 104.05 154.45 104 155.85 104 156.7 105.25 157.3 106.45 157.3 107.85 157.25 108.55 156.65 110.1 157.75 108.05 159.2 107 160.8 106 161.95 106.3 163.2 106.45 163.65 107.55
M 543.05 375.7
L 563.15 389.7
Q 564.85 387.8 567 385.05 569.35 381.75 572.1 377.65
L 543.8 362.05 543.05 375.7
M 560.35 392.35
Q 560.75 392.1 561.1 391.75
L 542.9 379.35 541.25 410.4 542.45 410.4
Q 543 409.85 543.8 409.15 547.1 406.55 549.95 404.75 552.75 402.9 553.4 401.95 554 400.95 556.1 397.55 558.05 394.05 560.35 392.35
M 523.6 387.2
Q 524.65 390.25 526.25 391.75 528.65 394.1 532.6 401.8 534.85 406.1 536.7 410.4
L 537.35 410.4 539.3 378.75 523.6 387.2
M 513.1 367.45
Q 513.6 368 514.15 368.65 521 376.5 522.35 382.95 522.45 383.45 522.65 384
L 539.5 375.05 540.45 360.85 513.1 367.45
M 513.1 367.45
Q 512.05 366.25 511.3 365.3 510.6 364.4 510.05 363.75 501.15 373.35 495.75 381.05 493.75 383.85 491.65 387.5 489.3 391.7 488.15 393.75 483.95 401.2 479.7 405.65 477.7 407.85 474.15 410.4
L 536.7 410.4
Q 534.85 406.1 532.6 401.8 528.65 394.1 526.25 391.75 524.65 390.25 523.6 387.2 523 385.8 522.65 384 522.45 383.45 522.35 382.95 521 376.5 514.15 368.65 513.6 368 513.1 367.45
M 495.3 339
Q 496.65 341.55 499.7 346.4 506.1 356.5 508.25 359.35 510.3 362.2 508.85 361.55 507.95 361.05 510.05 363.75 510.6 364.4 511.3 365.3
L 540.6 357.75 541.5 343.2 495.3 339
M 545.9 345.1
L 544.75 344.85 544 359.15 573.6 375.5
Q 574.95 373.45 576.45 371.05 579.9 365.65 582.25 361.95
L 545.9 345.1
M 545.45 331.8
L 544.9 341.75 583.95 359.1
Q 584.15 358.65 584.4 358.3 587.05 353.85 586.25 353.25 585.5 352.7 587.6 349.8 589.75 346.9 589.85 346 590.15 344.15 591.65 342.65 592.65 341.9 595 340.6 597.35 339.2 598.35 338.4 599.9 336.95 600.15 335.1 600.25 334.25 599.7 331.8 599.4 330.25 599.35 329.3 602 328.15 602.15 327.05 602.25 326.9 601.8 325.75
L 545.45 331.8
M 595.7 292.7
Q 594.3 290.6 591.4 289.25 590.5 288.8 589.55 288.45
L 590.75 289.65 546.05 319.85 545.65 329.2 600.85 323.35
Q 600.3 321.6 600.4 320.7 600.6 319.85 601.65 318.35 602.65 316.95 602.85 316.05 602.95 315.2 602.5 312 602.1 308.8 602.25 307.95 602.65 305.7 602.8 304.85 603 303.3 601.5 301.75 600 300.3 598.8 297.75 597.6 295.35 595.7 292.7
M 583.4 285.2
Q 581.6 283.3 579.55 282.5 577.55 281.6 577.25 281.3 576.5 280.55 572.4 280 571.55 279.85 570.5 279.75 564.7 279.05 558.85 279.8 553.15 280.65 553.5 282.1 553.9 283.6 554.7 284.3 555.5 285 554.9 285.85 553.65 287.3 550.6 287.5 549.2 287.65 548.55 288.6 548.1 289.2 547.8 290.6 547.75 291 547.75 291.3 547.7 291.6 547.6 291.8
L 546.35 315.95 546.85 316.05 587.2 287.6
Q 584.65 286.4 583.4 285.2
M 579.5 201.7
L 595.3 199.5
Q 586.05 200.1 577.65 200.7 570 201.2 563.1 201.7
L 579.5 201.7
M 461.65 392
Q 462.1 391.45 462.45 390.7
L 438.2 381.7 440.25 410.4 454.55 410.4
Q 454.7 410 454.8 409.7 455.35 407.95 457.25 401.85 459.2 395.7 461.65 392
M 484.2 300.3
Q 484.6 301.7 484.75 303.5
L 542.3 330.3 541.5 343.2 540.6 357.75 511.3 365.3
Q 512.05 366.25 513.1 367.45
L 540.45 360.85 539.5 375.05 522.65 384
Q 523 385.8 523.6 387.2
L 539.3 378.75 537.35 410.4 541.25 410.4 542.9 379.35 561.1 391.75
Q 562.05 390.95 563.15 389.7
L 543.05 375.7 543.8 362.05 572.1 377.65
Q 572.85 376.65 573.6 375.5
L 544 359.15 544.75 344.85 545.9 345.1 582.25 361.95
Q 583.2 360.35 583.95 359.1
L 544.9 341.75 545.45 331.8 601.8 325.75
Q 601.55 325.15 601.25 324.25 601 323.8 600.85 323.35
L 545.65 329.2 546.05 319.85 590.75 289.65 589.55 288.45
Q 588.25 288.05 587.2 287.6
L 546.85 316.05 546.35 315.95 547.6 291.8
Q 547.4 292.55 547.15 293 546.85 293.8 546.25 294.2 546 293.55 545.7 292.7 545.15 291.5 544.8 289.55
L 543.2 315.65 491.1 272.45
Q 491.05 272.45 491 272.45 490.8 272.55 490.55 272.65 489.55 273.05 488.4 273.35
L 543.05 318.55 543 318.75 542.5 327.75 484.2 300.3
M 393.75 372.75
Q 392.3 372.5 397.4 377.1
L 431.7 351.1 430.35 329.15 373.45 346.45
Q 375.5 349.6 380.05 355.15 389.6 366.8 392.7 369.9 395.7 373.1 393.75 372.75
M 399.95 379.4
Q 400.65 379.95 401.45 380.6 411.05 388.75 413.85 397.55 414.1 398.15 414.3 398.9
L 433.35 377.1 432.05 355.75 399.95 379.4
M 371.8 342.75
Q 371.65 343.7 373.45 346.45
L 430.35 329.15 429.4 326 371.8 342.75
M 372 342.45
Q 371.8 342.55 371.8 342.75
L 429.4 326 430.35 329.15 429.1 309.65 354.6 299.65
Q 354.8 301 354.9 302.65 355.6 312.9 360.8 318.4 365.95 324 369.75 332.7 373.5 341.4 372 342.45
M 349.4 269.25
Q 348.7 270.2 346.85 271.7 345 273.25 344.3 274.35 343.15 276.1 343.15 281.9 343.15 287.6 348.65 290 351.75 291.3 353.3 295.1
L 428.85 305.8 428 292.1 353.85 253.2
Q 353.15 253.7 352.5 254.25 351.2 255.35 350.9 257.25 350.65 259.2 350.65 265.3 350.65 267.6 349.4 269.25
M 424.05 242.85
Q 423 236.25 418.75 235.7 414.5 235.1 411.45 230.9 408.4 226.7 406.25 227.6 404.15 228.45 398.95 228.05 393.7 227.65 393.15 228.7 392.55 229.75 390.7 228.85 389.7 228.45 389.05 228.45 387.05 228.45 383.3 229.75 379.75 231 375.7 233.1 366.3 238 363.4 242.35 359.95 247.35 356.95 250.5
L 427.7 287.65 425.2 248.4
Q 424.55 246.1 424.05 242.85
M 479.35 223.95
L 480.9 225.15 431.85 292.25 432.9 306.4 485.25 277.25
Q 485.05 278.45 484.75 280.3 484.65 281.25 484.2 281.9
L 481.4 283.45
Q 481.35 283.45 481.3 283.45 479.65 283.9 479 284.4 478.75 284.65 478.45 285.05
L 433.2 310.35 434.25 325.25 484.65 330.95
Q 484.8 330.2 485.05 329.5 487.5 321.6 486.45 321.1 485.5 320.7 487.15 316.2 487.55 316.8 488 317.4 491.5 322.4 493.7 329.1 495.8 335.7 494.55 336 494.4 336 494.35 336.15
L 541.05 340.9 541.5 343.2 542.3 330.3 484.75 303.5
Q 484.6 301.7 484.2 300.3
L 542.5 327.75 543 318.75 543.05 318.55 488.4 273.35
Q 489.55 273.05 490.55 272.65 490.8 272.55 491 272.45 491.05 272.45 491.1 272.45
L 543.2 315.65 544.8 289.55
Q 544.55 287.9 544.5 285.75 544.25 281.2 540.95 279.65 537.7 278.05 535.7 274.55 533.65 271 531.9 271 530.2 271 526.1 269.3 522.05 267.6 521.5 268.15 520.95 268.7 519.55 267.6 518.85 267.1 518.35 266.9 516.8 266.35 513.65 266.2 510.75 266 507.4 266.3 501.45 266.8 498.5 268.05 498.05 266.75 498.05 265.85 498.05 264.55 499.1 261.85 500.15 259.25 500.15 257.85 500.15 256.55 499.1 251.95 498.05 247.45 498.05 246.15 498.2 242.65 498.2 241.2 498.2 238.85 496.15 237.45 494 235.95 492.15 233 490.25 230 487.55 227 485.45 224.65 481.65 224.15 480.55 223.95 479.35 223.95
M 479.35 223.95
Q 477.7 223.95 476.25 223.8
L 432.15 286.4 431.5 286.45 428.9 250.2
Q 428.8 251.5 428.6 252.3 428.25 253.5 427.7 254.45 427.25 253.6 426.8 252.55 425.9 250.95 425.2 248.4
L 427.7 287.65 356.95 250.5
Q 356.9 250.55 356.8 250.6 356.55 250.8 356.35 251 355.2 252.15 353.85 253.2
L 428 292.1 428.85 305.8 353.3 295.1
Q 354.15 297 354.6 299.65
L 429.1 309.65 430.35 329.15 431.7 351.1 397.4 377.1
Q 398.5 378.1 399.95 379.4
L 432.05 355.75 433.35 377.1 414.3 398.9
Q 415.1 401.35 416.05 403.2
L 433.7 382.7 435.5 410.4 440.25 410.4 438.2 381.7 462.45 390.7
Q 462.1 391.45 461.65 392 459.2 395.7 457.25 401.85 455.35 407.95 454.8 409.7 454.7 410 454.55 410.4
L 474.15 410.4
Q 477.7 407.85 479.7 405.65 483.95 401.2 488.15 393.75 489.3 391.7 491.65 387.5 493.75 383.85 495.75 381.05 501.15 373.35 510.05 363.75 507.95 361.05 508.85 361.55 510.3 362.2 508.25 359.35 506.1 356.5 499.7 346.4 496.65 341.55 495.3 339
L 541.5 343.2 541.05 340.9 494.35 336.15
Q 494.4 336 494.55 336 495.8 335.7 493.7 329.1 491.5 322.4 488 317.4 487.55 316.8 487.15 316.2 485.5 320.7 486.45 321.1 487.5 321.6 485.05 329.5 484.8 330.2 484.65 330.95
L 434.25 325.25 433.2 310.35 478.45 285.05
Q 478.75 284.65 479 284.4 479.65 283.9 481.3 283.45 481.35 283.45 481.4 283.45
L 484.2 281.9
Q 484.65 281.25 484.75 280.3 485.05 278.45 485.25 277.25
L 432.9 306.4 431.85 292.25 480.9 225.15 479.35 223.95
M 434.5 329.85
L 436 329.75 483 335.95
Q 480.8 342.65 477.6 352.4 476.15 356.6 474.8 360.45
L 436.05 351.4 434.5 329.85
M 437.8 376.25
L 436.3 355.75 473.4 364.35
Q 470.75 371.8 468.4 377.8 466.3 383.05 464.6 386.6
L 437.8 376.25
M 436.3 355.75
L 437.8 376.25 464.6 386.6
Q 466.3 383.05 468.4 377.8 470.75 371.8 473.4 364.35
L 436.3 355.75
M 436 329.75
L 434.5 329.85 436.05 351.4 474.8 360.45
Q 476.15 356.6 477.6 352.4 480.8 342.65 483 335.95
L 436 329.75
M 471.25 222.15
Q 468.7 220.4 466.2 220.2 463.55 219.95 463.2 219.6 461.85 218.8 454.65 220.8 447.45 222.7 440.6 226.85 433.7 230.9 434.45 232.95 435.15 234.95 436.25 235.6 437.35 236.2 436.75 237.7 435.55 240.45 431.8 242.35 430.05 243.35 429.5 245 429.1 246.1 429.05 248.4 429.05 249 428.95 249.5 428.95 249.85 428.9 250.2
L 431.5 286.45 432.15 286.4 476.25 223.8
Q 473 223.45 471.25 222.15
M 466.2 220.2
Q 468.7 220.4 471.25 222.15 473 223.45 476.25 223.8 477.7 223.95 479.35 223.95 480.55 223.95 481.65 224.15 485.45 224.65 487.55 227 490.25 230 492.15 233 494 235.95 496.15 237.45 498.2 238.85 498.2 241.2 498.2 242.65 498.05 246.15 498.05 247.45 499.1 251.95 500.15 256.55 500.15 257.85 500.15 259.25 499.1 261.85 498.05 264.55 498.05 265.85 498.05 266.75 498.5 268.05 501.45 266.8 507.4 266.3 510.75 266 513.65 266.2 516.8 266.35 518.35 266.9 518.85 267.1 519.55 267.6 520.95 268.7 521.5 268.15 522.05 267.6 526.1 269.3 530.2 271 531.9 271 533.65 271 535.7 274.55 537.7 278.05 540.95 279.65 544.25 281.2 544.5 285.75 544.55 287.9 544.8 289.55 545.15 291.5 545.7 292.7 546 293.55 546.25 294.2 546.85 293.8 547.15 293 547.4 292.55 547.6 291.8 547.7 291.6 547.75 291.3 547.75 291 547.8 290.6 548.1 289.2 548.55 288.6 549.2 287.65 550.6 287.5 553.65 287.3 554.9 285.85 555.5 285 554.7 284.3 553.9 283.6 553.5 282.1 553.15 280.65 558.85 279.8 564.7 279.05 570.5 279.75 571.55 279.85 572.4 280 575.35 274.25 581.25 265.15 584.2 260.65 589.35 252.95 593.05 247.35 593.05 246.5 593.05 245.15 591.9 239.2 590.85 233.3 590.85 231.9 590.85 224.75 593.95 219.5 595.2 217.35 597.3 215 598.35 213.8 601.2 210.85 603.25 208.7 604.95 206.8 601.1 206.35 595 206.15 592.6 206.05 589.8 205.95 584.25 205.85 578.1 205.85 573.5 205.85 567.1 206.3 564.45 206.5 554.95 207.4 538.15 209.05 527.05 209.05 526.9 209.05 526.75 209.05
L 579.5 201.7 563.1 201.7
Q 541 203.2 526.75 204.25 526.6 204.25 526.4 204.25 501.55 206.05 500.3 206.25 497.75 206.75 487.95 206.25 478.05 205.7 473.15 205.4 461.8 204.75 453 204.75 452.95 204.75 452.85 204.75 452.25 204.75 451.25 204.95 452 204.5 452.65 204.15
L 452.75 204.15
Q 455.2 202.9 457.1 201.7
L 293 201.7 292.75 202.3
Q 295.85 201.95 324.8 204.9
L 299.4 205.15
Q 296.75 205.8 294.2 206.55 298.35 209.45 303.45 210.5 304.55 210.75 305.75 210.75 300.7 212.85 295.3 212.55 294.65 212.5 293.9 212.25 289.5 210.7 285.8 208.5 284.65 207.85 283.45 207.6 279.65 206.85 277.45 207.95 276.5 208.45 275.4 208.15 270.3 207.2 267.7 210.2 267.15 210.75 266 210.6 262.1 210.35 259.95 211.45 259 211.95 257.9 212.2 256.65 212.5 255.5 212.5 254.9 212.5 254.3 212.4 252.05 212 250.6 212.4 245.75 212.3 243.5 211.6 242.65 211.35 241.45 211.5 238 211.95 234.55 211.5 233.3 211.35 232.1 211.35 230.95 211.35 229.75 211.55 229.15 211.65 228.6 211.85
L 228.55 211.85
Q 227.45 212.05 226.45 212.3 225.7 212.5 225.1 213.1 223.2 213.2 226.25 215.55 226.85 216 227.45 216.6 225.95 218.55 221.55 218.2 216.95 217.75 212.35 217.3 211.1 217.2 209.9 216.75 204.55 215 198.3 214.85 197.1 214.85 195.9 214.6 192.05 213.85 189.8 214.55 188.95 214.85 187.75 214.65 182.8 214.05 178.4 215.35 176.25 216 174.55 214.8 173.75 214.25 172.55 214.25 167.3 214.25 162.25 215.2 161.5 215.45 161.05 216.65 160.8 217.5 160.9 218.05 157.95 218.35 155.05 218.4 146.2 218.6 137.55 218.35 137 218.35 136.4 218.35 124.7 218.95 113 218.35 111.75 218.3 110.45 218.35 106.7 218.45 103.4 219.4 96.7 218.95 90.9 218.45 89.1 218.35 87.25 218.05 81.75 217.1 75.95 216.85 70.1 216.6 64.05 217.1 63.45 217.2 62.8 217.25 60 217.45 57.15 217.65 54.15 217.8 51.2 217.85 43.8 218.05 37.15 216.95 34.25 216.6 31.35 216.3 28.5 216 25.6 216 26.1 216.9 26.7 217.6 29.85 221.3 37.3 231.25 38.5 232.85 39.65 234.35 41.65 234.25 42.75 233.8 44.9 232.9 47.95 237.05 51.05 241.3 55.25 241.9 59.5 242.45 60.55 249.05 61.05 252.3 61.7 254.6 62.4 257.15 63.3 258.75 63.8 259.8 64.25 260.65 64.8 259.65 65.1 258.45 65.3 257.7 65.45 256.4 65.5 256.05 65.5 255.7 65.55 255.2 65.55 254.6 65.6 252.3 66.05 251.2 66.6 249.55 68.35 248.55 72.05 246.65 73.25 243.9 73.85 242.35 72.75 241.75 71.65 241.1 70.95 239.15 70.2 237.05 77.1 233 84 228.9 91.15 227 98.4 224.95 99.7 225.8 100.1 226.1 102.7 226.4 105.25 226.6 107.75 228.35 109.5 229.6 112.8 230 114.2 230.1 115.85 230.1 117.05 230.1 118.15 230.35 122 230.8 124.05 233.2 126.75 236.2 128.65 239.2 130.5 242.15 132.65 243.65 134.75 245.05 134.75 247.4 134.75 248.85 134.55 252.35 134.55 253.65 135.6 258.15 136.65 262.75 136.65 264.05 136.65 265.4 135.6 268.05 134.55 270.75 134.55 272.05 134.55 272.95 135 274.3 137.95 273.05 143.9 272.55 147.2 272.25 150.1 272.45 153.25 272.6 154.85 273.15 155.3 273.35 156.05 273.85 157.4 274.95 157.95 274.4 158.5 273.85 162.55 275.55 166.65 277.25 168.35 277.25 170.1 277.25 172.2 280.8 174.15 284.3 177.45 285.9 180.7 287.45 180.95 291.95 181 294.15 181.25 295.8 181.6 297.7 182.15 298.9 182.45 299.8 182.7 300.45 183.3 300 183.6 299.25 183.85 298.8 184.05 298.05 184.15 297.85 184.2 297.55 184.2 297.25 184.3 296.85 184.55 295.4 185 294.8 185.65 293.9 187.05 293.7 190.15 293.55 191.35 292.1 191.95 291.25 191.15 290.55 190.35 289.85 189.95 288.35 189.6 286.9 195.35 286.05 201.15 285.3 206.95 286 212.8 286.65 213.75 287.55 214 287.85 216.05 288.75 218.05 289.55 219.85 291.4 221.1 292.65 223.65 293.85 224.75 294.25 226 294.7 226.95 295.05 227.85 295.45 230.75 296.85 232.2 298.9 234.05 301.6 235.25 304 236.45 306.55 238 308 239.45 309.55 239.25 311.05 239.15 311.95 238.7 314.2 238.6 315 238.95 318.25 239.4 321.4 239.3 322.3 239.15 323.15 238.1 324.6 237.05 326.05 236.9 326.95 236.75 327.85 237.3 329.6 237.5 330 237.7 330.5 238.05 331.4 238.25 332 238.7 333.15 238.65 333.3 238.45 334.4 235.8 335.55 235.85 336.5 236.15 338.05 236.7 340.45 236.6 341.35 236.35 343.2 234.8 344.65 233.8 345.45 231.45 346.8 229.1 348.15 228.1 348.9 226.6 350.4 226.3 352.25 226.2 353.1 224.05 356 221.95 358.9 222.7 359.45 223.55 360.05 220.85 364.55 220.6 364.9 220.4 365.3 219.65 366.6 218.7 368.15 216.35 371.9 212.9 377.3 211.45 379.65 210.05 381.75 209.3 382.9 208.6 383.9 205.8 388 203.45 391.25 201.3 394.05 199.6 395.9 198.5 397.2 197.6 398 197.2 398.35 196.8 398.6 194.5 400.3 192.55 403.8
L 192.55 403.85
Q 193.9 406.95 194.7 410.4
L 422.25 410.4
Q 421.05 409.15 420.05 408.5 417.9 407.15 416.05 403.2 415.1 401.35 414.3 398.9 414.1 398.15 413.85 397.55 411.05 388.75 401.45 380.6 400.65 379.95 399.95 379.4 398.5 378.1 397.4 377.1 392.3 372.5 393.75 372.75 395.7 373.1 392.7 369.9 389.6 366.8 380.05 355.15 375.5 349.6 373.45 346.45 371.65 343.7 371.8 342.75 371.8 342.55 372 342.45 373.5 341.4 369.75 332.7 365.95 324 360.8 318.4 355.6 312.9 354.9 302.65 354.8 301 354.6 299.65 354.15 297 353.3 295.1 351.75 291.3 348.65 290 343.15 287.6 343.15 281.9 343.15 276.1 344.3 274.35 345 273.25 346.85 271.7 348.7 270.2 349.4 269.25 350.65 267.6 350.65 265.3 350.65 259.2 350.9 257.25 351.2 255.35 352.5 254.25 353.15 253.7 353.85 253.2 355.2 252.15 356.35 251 356.55 250.8 356.8 250.6 356.9 250.55 356.95 250.5 359.95 247.35 363.4 242.35 366.3 238 375.7 233.1 379.75 231 383.3 229.75 387.05 228.45 389.05 228.45 389.7 228.45 390.7 228.85 392.55 229.75 393.15 228.7 393.7 227.65 398.95 228.05 404.15 228.45 406.25 227.6 408.4 226.7 411.45 230.9 414.5 235.1 418.75 235.7 423 236.25 424.05 242.85 424.55 246.1 425.2 248.4 425.9 250.95 426.8 252.55 427.25 253.6 427.7 254.45 428.25 253.5 428.6 252.3 428.8 251.5 428.9 250.2 428.95 249.85 428.95 249.5 429.05 249 429.05 248.4 429.1 246.1 429.5 245 430.05 243.35 431.8 242.35 435.55 240.45 436.75 237.7 437.35 236.2 436.25 235.6 435.15 234.95 434.45 232.95 433.7 230.9 440.6 226.85 447.45 222.7 454.65 220.8 461.85 218.8 463.2 219.6 463.55 219.95 466.2 220.2
M 341 184.8
Q 338.9 185.35 338.25 186.1 337.65 186.65 336.6 186.6 334.65 186.55 332.95 185 332.35 184.45 331.3 184.3 328.25 183.7 326.6 181.55 325.25 179.8 321.75 180.5 320.55 180.75 319.45 180.95 314.2 181.85 312.8 178.15 312.55 177.5 311.95 177.3 309.9 176.45 307.75 176.45 306.75 176.45 305.8 177.2 304.25 178.25 301.5 177.65 300.8 177.5 300.15 177.3 296.75 175.9 292.85 176.4 292.25 176.45 291.75 176.45 291.2 176.45 290.65 176.45 290.15 176.45 289.6 176.45 289.05 176.45 288.45 176.2 284.55 174.4 280.8 172.15 279.95 171.7 279.05 171.3 278.4 171.1 277.8 170.9 275.6 169.95 274.85 171.2 274.65 171.7 273.55 171.7 269.95 171.75 266.9 170 266.05 169.5 265.15 169.9 264.45 170.05 264.2 170.65 262.6 174.65 256.45 174.4 254.85 174.35 254.3 173.85 251.4 171.3 245.8 172.05 244.7 172.2 243.6 172.4 238.7 173.5 234.1 175.05 232.95 175.45 231.8 175.6 227.6 176.3 226.5 176.2 225.45 176.15 224.45 176.1
L 224.45 175.5
Q 220.85 172.6 216.65 171.3 214.5 170.65 211.5 172.15 210.65 172.6 209.7 172.6 207.65 172.65 206.35 171.5 206.6 173.45 208.1 175.05 208.9 175.9 209.8 176.55 211.25 177.65 213.85 179.05 214.75 179.15 215.2 179.9
L 215.2 179.95 215.25 179.95
Q 218.5 182.45 219.5 187.65 219.85 189.55 222.2 189.45 224.95 189.35 227.65 188.95 233.2 188.3 236.45 190.4 237.2 190.9 238.2 190.55 238.8 190.35 239.45 190.2 242.95 189.45 244.9 190.65 249.1 193.35 252.75 189.35 253.3 188.8 254.25 188.45 254.85 188.2 255.4 187.7 256.5 186.65 258.6 186.65 260.35 186.55 260.7 188.55 262.9 188.2 263.95 188.2 265 188.2 266.1 188.35 272.2 188.8 273.95 191.8 275.7 194.7 277.8 196.85 279.8 198.95 283.15 197.1 286.35 195.15 286.25 195.75 286.1 196.35 287.55 197.6 288.95 198.85 292.5 200.2 292.95 200.35 293.4 200.55
L 293 201.7 457.1 201.7
Q 460.5 199.55 462.05 197.6 462.75 196.75 463.45 195.9 465.35 193.6 466.7 190.75 468.05 188 471.35 188.45 472.55 188.55 473.8 187 473 186.5 472.2 186.05 465.45 182.15 461.7 181.85 461.1 181.8 460.55 181.3 459 179.75 457.1 180.8 456.35 181.3 455.3 180.95 454.75 180.75 454.15 180.7 448.85 180.2 443.55 179.8 442.45 179.7 441.3 179.65 438.45 179.3 437.25 177.65 437.15 177.5 435.9 177.65 433.3 178.05 430.7 177.65 429.65 177.5 428.5 177.2 426.4 176.45 424.3 175.75 423.2 175.45 422 175.25 418.45 174.75 415.45 176.5 414.65 177 413.8 176.55 411.15 175.15 406.05 175.75 402.7 176.15 399.8 177.3 399.15 177.5 398.65 177.5 397.5 177.5 396.45 177.5 395.95 177.5 395.3 177.9 389.55 180.7 385.8 177 382.65 178.7 379.7 182.85 379.4 183.4 378.4 183.2 376.75 182.85 375.05 182.6 368.9 181.5 366.05 183.95 365.45 184.45 364.5 184.8 362.45 185.35 361.7 186.1 361.2 186.65 360.15 186.35 357.85 185.95 357.5 187.15 354.65 185.95 354 187.25 353.7 187.7 352.65 187.75 345.85 188 342.6 185 342 184.45 341 184.8
M 534.7 113.2
L 536.55 115.2
Q 536.3 114.85 532.15 108.75 528.05 102.6 522.85 99.5 516.35 95.7 511.1 99.55 506.7 102.75 506.6 110.6 506.55 116.75 508.85 123.9 508.5 117.55 511.5 115.35 512.95 114.35 514.85 115.2 516.45 115.9 517.5 117.55 517.95 118.25 518.7 120.5 518.05 117.4 518.75 115.15 519.55 112.9 521 112.2 522.4 111.55 523.6 112.4 524.75 113.2 526.85 117 525 118.35 524.3 121 523.4 124.25 525.3 127.6 526.85 130.2 529.65 132.3 527.85 129.75 528.45 127.55 528.7 126.5 529.65 126.05 530.45 125.65 531.35 125.95 531.65 126.05 532.5 126.7 531.5 125.65 531.15 124.35 530.95 123.05 531.3 122.2 531.65 121.35 532.3 121.2 533.05 121.05 535 121.85 533.9 120.9 533.45 119.9 533.05 118.95 534.25 117.85 535.4 116.8 536.8 116.8
L 537.9 116.85
Q 537.4 116.7 534.75 116 531.55 115.15 528.75 116.05 527.8 116.35 526.95 116.9 526.25 114.3 526.5 112.45 526.8 110.4 529.65 110.55 532.55 110.85 534.7 113.2
M 548.25 97.25
Q 543.25 94.8 539.3 98 535.9 100.55 535.75 106.45 535.65 110.95 537.4 116.05 537.25 115.9 537.15 115.85 537.3 116 537.45 116.2 537.7 116.45 537.9 116.85
L 537.95 116.85
Q 538.8 118.15 540 120.9 541.8 125.05 542.8 128.3 544.4 133.8 544.9 139.3 545.1 141.05 545.15 142.55 545 142.55 544.95 142.55 543.45 142.85 541.9 143.25 537.05 144.65 530.35 143.4 527.3 145.05 524.65 145.75 523.6 145.95 523.4 146.45 522.7 147.75 520.4 147.45 515.35 146.8 511.9 148.2 510.8 148.65 510 149.4 507.4 151.9 504.45 152.45 503.1 152.65 502 154.4 501.25 155.6 500.25 155.55 492.95 155.15 496.9 159.9 493.3 158.55 489.75 161.45 486.1 164.3 485.5 163.4 484.85 162.45 482.05 162 479.3 161.5 478.75 162.05 478.25 162.55 479.3 164.9 480.3 167.15 477.95 168.85 475.6 170.5 474 171.1 472.4 171.7 472.95 172.15 474.2 173.4 475.85 175.75 479.3 180.8 475.25 185.2 474.5 186.05 473.95 186.8 473.9 186.85 473.85 186.9 473.8 186.95 473.8 187 472.55 188.55 471.35 188.45 468.05 188 466.7 190.75 465.35 193.6 463.45 195.9 462.75 196.75 462.05 197.6 460.5 199.55 457.1 201.7 455.2 202.9 452.75 204.15
L 452.65 204.15
Q 452 204.5 451.25 204.95 452.25 204.75 452.85 204.75 452.95 204.75 453 204.75 461.8 204.75 473.15 205.4 478.05 205.7 487.95 206.25 497.75 206.75 500.3 206.25 501.55 206.05 526.4 204.25 526.6 204.25 526.75 204.25 541 203.2 563.1 201.7 570 201.2 577.65 200.7 586.05 200.1 595.3 199.5
L 579.5 201.7 526.75 209.05
Q 526.9 209.05 527.05 209.05 538.15 209.05 554.95 207.4 564.45 206.5 567.1 206.3 573.5 205.85 578.1 205.85 584.25 205.85 589.8 205.95 592.6 206.05 595 206.15 601.1 206.35 604.95 206.8 607.7 203.55 609.4 200.9 613.7 193.95 615.5 184.4 617.45 174 619.15 159.05 620.8 143.65 620.8 135.8 620.8 129.55 615.2 124.4 611.7 121.2 608.75 118.7 604.25 119.65 600.85 122.8 599.45 124.1 597.45 123.3 591.6 121.1 587.8 124.7 587.25 125.1 587.25 125.65 587.4 129.1 584.5 130.9 583.5 131.6 582.7 132.4 581.85 133.2 581.1 133.95 579.2 135.85 574.95 135.85 573.35 135.9 571.7 136 567.45 136.4 563.25 136.05 561.05 135.85 558.85 135.45 557.9 135.3 557.2 135.85 555.4 137.2 552.45 137.4 551.45 137.45 551.05 138 550.3 138.95 549.6 140.1 549.3 138.85 548.8 137.15 547.6 133.15 544.25 126.2 540.25 118 537.45 116.1 537.25 111.5 539.5 109.75 540.65 108.9 542 109.35 543.25 109.85 544.1 111.05 544.4 111.55 544.9 113.2 544.55 110.9 545 109.15 545.7 107.45 546.8 106.9 547.85 106.3 548.9 106.85 549.75 107.4 551.45 110.4 550.75 108.15 551.05 106.65 551.2 105.15 553.45 105.2 555.65 105.1 557.3 106.8
L 558.7 108.2
Q 558.6 108 555.4 103.6 552.25 99.2 548.25 97.25
M 586.9 24.45
Q 586.9 10.55 590.4 2.55 588.45 3.9 586.15 5.1 583.2 6.65 566.65 12 563.95 12.85 561.6 13.65 563.95 15.5 567.15 18.15 572.4 22.4 576.55 25.05 581.75 28.35 587.3 30.6 586.9 27.25 586.9 24.45
M 627.55 17.55
Q 624.6 15.6 622.15 13.55 621.85 22.8 618.75 29.75 617.4 32.8 614.85 36.6 620 36.95 625.6 36.95 630.9 36.95 637.85 33.15 639.6 32.2 642.65 30.6 644.55 29.7 645.9 29.5 643.95 27.95 641.55 26.35 632.15 20.65 627.55 17.55
M 640.15 -15.95
Q 641.55 -13.3 642.8 -10.3 646.35 -1.95 648.6 7.9
L 648.6 -15.95 640.15 -15.95
M 599.65 -8.65
Q 601.95 -10.3 604.7 -11.55 605.55 -11.2 605.55 -12
L 607.2 -13.3
Q 608.95 -13 610.55 -12.1 610.75 -14.1 611.2 -15.95
L 601.35 -15.95
Q 601.15 -13.1 600.2 -10.2 599.95 -9.45 599.65 -8.65
M 564.5 -15.95
Q 562 -11.45 557 -1.35 551.2 10.5 546.7 17 545.05 19.3 543.6 20.9 545.15 19.9 546.1 19.35 549.5 17.65 561.6 13.65 563.95 12.85 566.65 12 583.2 6.65 586.15 5.1 588.45 3.9 590.4 2.55 586.9 10.55 586.9 24.45 586.9 27.25 587.3 30.6 588.25 38.35 591.3 49.1 593.6 57.45 597.7 70.85
L 597.7 71.6
Q 598.55 61.3 602.65 53.5 604.8 49.4 610.95 41.8 613.15 39.05 614.85 36.6 617.4 32.8 618.75 29.75 621.85 22.8 622.15 13.55 624.6 15.6 627.55 17.55 632.15 20.65 641.55 26.35 643.95 27.95 645.9 29.5 647.4 30.65 648.6 31.8
L 648.6 7.9
Q 646.35 -1.95 642.8 -10.3 641.55 -13.3 640.15 -15.95
L 611.2 -15.95
Q 610.75 -14.1 610.55 -12.1 608.95 -13 607.2 -13.3
L 605.55 -12
Q 605.55 -11.2 604.7 -11.55 601.95 -10.3 599.65 -8.65 599.95 -9.45 600.2 -10.2 601.15 -13.1 601.35 -15.95
L 564.5 -15.95
M 471.95 -15.45
Q 471.8 -15.75 471.65 -15.95
L 425.15 -15.95
Q 420.1 -4.65 420.1 6.9 420.1 25.3 427.2 41.45 428.3 43.95 432.8 52.85 435.8 58.85 436.75 62.35
L 436.75 60.25
Q 436.75 59.35 436 56.1 435.2 52.75 435.2 51.85 435.2 50.5 437 44.2 438.85 37.85 442.45 26.45 444.55 19.85 446.05 14.15 449.55 21.05 456.6 29.55 469.15 44.25 469.15 44.35 475 52.1 477.8 59.65 477.6 58.9 477.45 58 477.05 55.3 477.05 54 477.05 52.3 478.85 38.35 480.6 24.4 480.6 20.5 480.6 19.1 480.55 17.75 480.1 2.55 474.85 -9.65 474.2 -11.05 473.55 -12.45 472.8 -13.95 471.95 -15.45
M 485.3 -6.65
Q 480.65 -9.35 476.55 -11.2
L 474.85 -9.65
Q 480.1 2.55 480.55 17.75 483.95 21.35 493.25 23.55 503.9 26.1 509.3 31.2 514.65 36.25 515.05 41.15 515.3 46.05 524.75 49.75 533.35 53.3 539.6 57.3 546.35 61.6 549.75 65.8 553.15 69.85 555.35 74.05 557.5 78.2 564 88 570.5 97.75 578.25 103.75 586.05 109.8 593 108.55 599.95 107.35 601.4 110.6 602.95 113.8 606.7 116.95 607.7 117.75 608.75 118.7 611.7 121.2 615.2 124.4 620.8 129.55 620.8 135.8 620.8 143.65 619.15 159.05 617.45 174 615.5 184.4 613.7 193.95 609.4 200.9 607.7 203.55 604.95 206.8 603.25 208.7 601.2 210.85 598.35 213.8 597.3 215 595.2 217.35 593.95 219.5 590.85 224.75 590.85 231.9 590.85 233.3 591.9 239.2 593.05 245.15 593.05 246.5 593.05 247.35 589.35 252.95 584.2 260.65 581.25 265.15 575.35 274.25 572.4 280 576.5 280.55 577.25 281.3 577.55 281.6 579.55 282.5 581.6 283.3 583.4 285.2 584.65 286.4 587.2 287.6 588.25 288.05 589.55 288.45 590.5 288.8 591.4 289.25 594.3 290.6 595.7 292.7 597.6 295.35 598.8 297.75 600 300.3 601.5 301.75 603 303.3 602.8 304.85 602.65 305.7 602.25 307.95 602.1 308.8 602.5 312 602.95 315.2 602.85 316.05 602.65 316.95 601.65 318.35 600.6 319.85 600.4 320.7 600.3 321.6 600.85 323.35 601 323.8 601.25 324.25 601.55 325.15 601.8 325.75 602.25 326.9 602.15 327.05 602 328.15 599.35 329.3 599.4 330.25 599.7 331.8 600.25 334.25 600.15 335.1 599.9 336.95 598.35 338.4 597.35 339.2 595 340.6 592.65 341.9 591.65 342.65 590.15 344.15 589.85 346 589.75 346.9 587.6 349.8 585.5 352.7 586.25 353.25 587.05 353.85 584.4 358.3 584.15 358.65 583.95 359.1 583.2 360.35 582.25 361.95 579.9 365.65 576.45 371.05 574.95 373.45 573.6 375.5 572.85 376.65 572.1 377.65 569.35 381.75 567 385.05 564.85 387.8 563.15 389.7 562.05 390.95 561.1 391.75 560.75 392.1 560.35 392.35 558.05 394.05 556.1 397.55 554 400.95 553.4 401.95 552.75 402.9 549.95 404.75 547.1 406.55 543.8 409.15 543 409.85 542.45 410.4
L 648.6 410.4 648.6 31.8
Q 647.4 30.65 645.9 29.5 644.55 29.7 642.65 30.6 639.6 32.2 637.85 33.15 630.9 36.95 625.6 36.95 620 36.95 614.85 36.6 613.15 39.05 610.95 41.8 604.8 49.4 602.65 53.5 598.55 61.3 597.7 71.6
L 597.7 70.85
Q 593.6 57.45 591.3 49.1 588.25 38.35 587.3 30.6 581.75 28.35 576.55 25.05 572.4 22.4 567.15 18.15 563.95 15.5 561.6 13.65 549.5 17.65 546.1 19.35 545.15 19.9 543.6 20.9 545.05 19.3 546.7 17 542.75 17.05 535.9 12.35 523.8 4.05 516.1 2.8 508.4 1.55 507.1 1.55 502.55 1.55 498.75 0.45 495.75 -0.45 492.1 -2.55 487.7 -5.15 485.3 -6.65
M 476.55 -11.2
Q 480.65 -9.35 485.3 -6.65 487.7 -5.15 492.1 -2.55 495.75 -0.45 498.75 0.45 502.55 1.55 507.1 1.55 508.4 1.55 516.1 2.8 523.8 4.05 535.9 12.35 542.75 17.05 546.7 17 551.2 10.5 557 -1.35 562 -11.45 564.5 -15.95
L 471.65 -15.95
Q 471.8 -15.75 471.95 -15.45 472.8 -13.95 473.55 -12.45 474.2 -11.05 474.85 -9.65
L 476.55 -11.2
M 390.75 -4.85
Q 393.5 -11.15 396.25 -15.95
L 230.05 -15.95
Q 238.2 3.3 239.3 30 236.3 25.7 228.75 20.65 219.35 15 214.75 11.85 211.8 9.9 209.35 7.85 209 17.1 205.95 24 203.7 29.1 198.15 36.05 192 43.65 189.85 47.75 185.75 55.55 184.9 65.85
L 184.9 65.1
Q 180.75 51.7 178.45 43.35 174.1 27.9 174.1 18.7 174.1 15 174.35 11.7 173.1 12.8 171.5 13.65 166.8 16.35 155.8 20.85 144.8 25.3 133.6 33.8 122.3 42.25 120.25 42.25 118.85 42.25 114.55 41.15 110.2 40.1 108.9 40.1 103.85 40.1 99.75 45.7 99.05 46.65 96.75 50.35 95.05 53 93.95 54.05 92.1 55.9 88.6 57.55 86.35 58.6 81.85 60.2 76.7 61.95 74.95 62.7 71.4 64.25 69.45 65.85 66.15 68.5 62.2 73.4 62.05 73.65 55.1 82.8 50.5 88.9 46.8 92.75 41.75 98.25 36.25 102.2 32.1 105.2 28.75 110.05 26.25 113.8 23.7 119.4 22.65 121.9 20.95 125.85 21.6 125.9 22.3 126 23.7 126.2 25.1 126.55 25.75 126.7 26.3 126.9 28.15 127.7 30.1 128.3 31.15 128.6 32.15 128.95 33.1 129.15 33.7 129.65 38.3 133.65 41.95 137.05 42.5 137.6 43.05 137.75 43.9 138.05 44.3 138.55 45.85 140.55 47.9 140.85 48.9 140.95 49.55 141.45 51.45 142.95 53.75 142.55 54.3 142.45 54.85 142.3 58.15 141.55 59.65 143 61.6 144.8 63.7 145.9 64.95 146.6 66.2 147.35 67.3 147.05 68.55 146.75 69.5 146.6 70.6 146.75 75.25 147.55 78.5 145.45 78.8 145.2 79.1 145 81 143.55 81.55 140.7 81.95 138.7 84.45 136.4 84.7 136.1 85 135.9 85.05 132.55 85.35 128.05 85.95 121.05 87.2 117.8 84.7 115.25 82.2 115.65 80.8 115.85 80.15 117.2 79.55 118.45 79.7 119.8 79.85 120.4 80.55 121.9 79.35 120.1 77.8 119.25 76.15 118.55 75 118.95 73.8 119.3 73.5 120.4 73.2 121.4 74.05 124.7 72.95 122.7 71.8 121.9 70.7 120.95 69.05 122.6 67.4 124.1 67.35 126.4
L 67.25 128.35
Q 67.2 128.15 66.6 122.85 65.9 117.65 67.55 113.45 69.5 108.25 74.55 107.5 78.75 106.85 82.7 110.7 85.4 113.4 87.45 117.3 87.6 116.8 87.9 116.4 87.6 114.75 86.85 109.75 85.75 102.6 87.45 96.75 89.65 89.55 96.05 88.4 101.3 87.45 106.65 92.7 110.8 96.8 113.8 103.35 109.9 98.75 106.15 99.4 104.45 99.7 103.7 101.65 103 103.35 103.3 105.25 103.5 106 104.45 108.05 102.9 105.45 100.8 104.5 98.75 103.5 97.25 104.05 95.75 104.65 95.55 106.05 95.15 107.45 96.2 111.65 98.5 111.15 100.85 112.45 103.6 114 104.4 117.75 105.05 120.55 104.4 123.9 104.1 120.95 102.15 119.85 101.25 119.35 100.25 119.75 99.35 120.1 98.95 120.85 98.75 121.25 98.6 122.2 98.65 120.8 98 119.75 97.35 118.65 96.55 118.35 95.65 118 95.05 118.4 94.5 118.8 93.55 120.7 93.8 119.3 93.4 118.4 93 117.4 91.5 117.45 89.9 117.55 88.9 118.65
L 88.1 119.55
Q 88.15 119.35 89.9 116.6 91.6 113.8 94.25 112.3 95.15 111.8 96.1 111.65 94.9 109.3 93.4 108.2 91.75 107 89.9 109.2 88 111.45 88 114.5
L 88 116.2
Q 88.15 116 88.3 115.75 88.15 116.1 88 116.65
L 88 117.25
Q 88 117.2 87.95 116.85 87.8 117.35 87.7 117.95 87.9 118.25 88.05 118.6 87.9 118.4 87.7 118.2 87.5 119.55 87.45 121.5 87.25 126.1 87.55 129.45 87.7 131.5 88 133.55 88.65 133.1 89.35 132.65 90.25 132.1 91.1 131.4 93.95 128.85 99.3 129.35 100.15 129.4 100.85 129.5 101.25 129.5 101.5 129.5 107.55 130.1 112.45 127.25 113.3 126.75 114.15 126.4 121.3 123.55 124.65 128.4 125 128.95 126.05 129.05 128.2 129.45 130.35 129.95 131.65 130.2 132.55 132.05 133.35 133.95 136.8 133.45 137.9 133.25 139 133.2 139.75 132.2 140.6 130.8 143.5 126.15 145.55 120.75 146.85 117.6 148 113.25 148.75 110.35 148.9 108.75
L 148.05 108.05
Q 146.95 107.05 145.35 107.2 143.8 107.4 143.45 108.4 143.15 109.4 143.55 110.85 142.45 109 141.8 108.7 141.2 108.35 140.3 108.85 139.55 109.3 138.95 110.5 138.4 111.7 138.55 113.15 138.35 112.15 138.15 111.8 137.65 111.1 136.75 110.9 135.7 110.6 134.85 111.25 133 112.7 132.85 115.8 131.95 112.45 132.35 109.45 132.85 105.55 135.55 103.55 137.7 101.95 140 102 140.6 97.7 140.2 96.4 139.75 94.95 138.25 94.55 136.65 94.25 134.7 95.6 132.7 96.95 131.35 99.75 132.1 97.55 132.2 96.7 132.4 94.75 131.5 93.15 130.55 91.35 128.8 91.3 125.05 91.2 121.45 96.45 124 89.35 127.85 84.5 132.75 78.35 138.2 78.5 144.7 78.7 147.5 85.7 149.75 91.35 149.2 98.75 148.7 106.1 148.7 106.55
L 148.4 103.75
Q 148.2 100.6 146.05 98.7 143.95 96.7 142.5 98.25 141.15 99.5 140.1 102 141.1 102 142.15 102.4 144.9 103.45 146.85 106.05 148.55 108.2 148.9 108.7 148.9 108.2 148.9 107.85 148.859375 107.85 148.85 107.9 148.858984375 107.841015625 148.9 107.8 148.9 107.6 148.85 107.45 148.9 107.55 148.95 107.7 150.6 102.65 153.5 99.1 157.25 94.5 161.45 94.65 166.6 94.55 169 99.55 170.95 103.55 170.75 108.9 170.6 114.4 170.6 114.6
L 170.3 112.6
Q 170.05 110.3 168.3 109 166.5 107.65 165.45 108.75 164.35 109.75 163.45 111.9 164 108.5 163.65 107.55 163.2 106.45 161.95 106.3 160.8 106 159.2 107 157.75 108.05 156.65 110.1 157.25 108.55 157.3 107.85 157.3 106.45 156.7 105.25 155.85 104 154.45 104 151.55 104.05 148.95 107.75 150 111.05 148.1 120.1 146.45 127.6 144.9 131.45 144.5 132.65 144.1 133.6 145.25 133.95 146.25 134.4 146.9 134.75 147.15 135.4 148.65 138.3 152.75 139.75 153.85 140.15 154.95 140.15 155.5 140.15 154.4 138.7 153.25 137.2 158.75 137.4 164.25 137.6 165.4 138.7 166.6 139.75 167.85 141.05 169.05 142.3 172.45 144.7 175.8 147.1 177.3 145.85 178.75 144.6 182.05 144.05 185.25 143.45 186.75 149.5 192.4 149.5 192.5 152 192.55 154.45 192.2 155.4 191.85 156.3 194.35 157.65 196.8 158.9 199.35 162.3 201.85 165.7 204.55 167.95 205.2 168.45 205.7 169 206.25 169.5 206.25 170.55 206.25 171 206.35 171.5 207.65 172.65 209.7 172.6 210.65 172.6 211.5 172.15 214.5 170.65 216.65 171.3 220.85 172.6 224.45 175.5
L 224.45 176.1
Q 225.45 176.15 226.5 176.2 227.6 176.3 231.8 175.6 232.95 175.45 234.1 175.05 238.7 173.5 243.6 172.4 244.7 172.2 245.8 172.05 251.4 171.3 254.3 173.85 254.85 174.35 256.45 174.4 262.6 174.65 264.2 170.65 264.45 170.05 265.15 169.9 266.05 169.5 266.9 170 269.95 171.75 273.55 171.7 274.65 171.7 274.85 171.2 275.6 169.95 277.8 170.9 278.4 171.1 279.05 171.3 279.95 171.7 280.8 172.15 284.55 174.4 288.45 176.2 289.05 176.45 289.6 176.45 290.15 176.45 290.65 176.45 291.2 176.45 291.75 176.45 292.25 176.45 292.85 176.4 296.75 175.9 300.15 177.3 300.8 177.5 301.5 177.65 304.25 178.25 305.8 177.2 306.75 176.45 307.75 176.45 309.9 176.45 311.95 177.3 312.55 177.5 312.8 178.15 314.2 181.85 319.45 180.95 320.55 180.75 321.75 180.5 325.25 179.8 326.6 181.55 328.25 183.7 331.3 184.3 332.35 184.45 332.95 185 334.65 186.55 336.6 186.6 337.65 186.65 338.25 186.1 338.9 185.35 341 184.8 342 184.45 342.6 185 345.85 188 352.65 187.75 353.7 187.7 354 187.25 354.65 185.95 357.5 187.15 357.85 185.95 360.15 186.35 361.2 186.65 361.7 186.1 362.45 185.35 364.5 184.8 365.45 184.45 366.05 183.95 368.9 181.5 375.05 182.6 376.75 182.85 378.4 183.2 379.4 183.4 379.7 182.85 382.65 178.7 385.8 177 389.55 180.7 395.3 177.9 395.95 177.5 396.45 177.5 397.5 177.5 398.65 177.5 399.15 177.5 399.8 177.3 402.7 176.15 406.05 175.75 411.15 175.15 413.8 176.55 414.65 177 415.45 176.5 418.45 174.75 422 175.25 423.2 175.45 424.3 175.75 426.4 176.45 428.5 177.2 429.65 177.5 430.7 177.65 433.3 178.05 435.9 177.65 437.15 177.5 437.25 177.65 438.45 179.3 441.3 179.65 442.45 179.7 443.55 179.8 448.85 180.2 454.15 180.7 454.75 180.75 455.3 180.95 456.35 181.3 457.1 180.8 459 179.75 460.55 181.3 461.1 181.8 461.7 181.85 465.45 182.15 472.2 186.05 473 186.5 473.8 187 473.8 186.95 473.85 186.9 473.9 186.85 473.95 186.8 474.5 186.05 475.25 185.2 479.3 180.8 475.85 175.75 474.2 173.4 472.95 172.15 472.4 171.7 474 171.1 475.6 170.5 477.95 168.85 480.3 167.15 479.3 164.9 478.25 162.55 478.75 162.05 479.3 161.5 482.05 162 484.85 162.45 485.5 163.4 486.1 164.3 489.75 161.45 493.3 158.55 496.9 159.9 492.95 155.15 500.25 155.55 501.25 155.6 502 154.4 503.1 152.65 504.45 152.45 507.4 151.9 510 149.4 510.8 148.65 511.9 148.2 515.35 146.8 520.4 147.45 522.7 147.75 523.4 146.45 523.6 145.95 524.65 145.75 527.3 145.05 530.35 143.4 537.05 144.65 541.9 143.25 543.45 142.85 544.95 142.55 545 142.55 545.15 142.55 545.1 141.05 544.9 139.3 544.4 133.8 542.8 128.3 541.8 125.05 540 120.9 538.8 118.15 537.95 116.85
L 537.9 116.85 536.8 116.8
Q 535.4 116.8 534.25 117.85 533.05 118.95 533.45 119.9 533.9 120.9 535 121.85 533.05 121.05 532.3 121.2 531.65 121.35 531.3 122.2 530.95 123.05 531.15 124.35 531.5 125.65 532.5 126.7 531.65 126.05 531.35 125.95 530.45 125.65 529.65 126.05 528.7 126.5 528.45 127.55 527.85 129.75 529.65 132.3 526.85 130.2 525.3 127.6 523.4 124.25 524.3 121 525 118.35 526.85 117 524.75 113.2 523.6 112.4 522.4 111.55 521 112.2 519.55 112.9 518.75 115.15 518.05 117.4 518.7 120.5 517.95 118.25 517.5 117.55 516.45 115.9 514.85 115.2 512.95 114.35 511.5 115.35 508.5 117.55 508.85 123.9 506.55 116.75 506.6 110.6 506.7 102.75 511.1 99.55 516.35 95.7 522.85 99.5 528.05 102.6 532.15 108.75 536.3 114.85 536.55 115.2
L 534.7 113.2
Q 532.55 110.85 529.65 110.55 526.8 110.4 526.5 112.45 526.25 114.3 526.95 116.9 527.8 116.35 528.75 116.05 531.55 115.15 534.75 116 537.4 116.7 537.9 116.85 537.7 116.45 537.45 116.2 537.3 116 537.15 115.85 537.25 115.9 537.4 116.05 535.65 110.95 535.75 106.45 535.9 100.55 539.3 98 543.25 94.8 548.25 97.25 552.25 99.2 555.4 103.6 558.6 108 558.7 108.2
L 557.3 106.8
Q 555.65 105.1 553.45 105.2 551.2 105.15 551.05 106.65 550.75 108.15 551.45 110.4 549.75 107.4 548.9 106.85 547.85 106.3 546.8 106.9 545.7 107.45 545 109.15 544.55 110.9 544.9 113.2 544.4 111.55 544.1 111.05 543.25 109.85 542 109.35 540.65 108.9 539.5 109.75 537.25 111.5 537.45 116.1 540.25 118 544.25 126.2 547.6 133.15 548.8 137.15 549.3 138.85 549.6 140.1 550.3 138.95 551.05 138 551.45 137.45 552.45 137.4 555.4 137.2 557.2 135.85 557.9 135.3 558.85 135.45 561.05 135.85 563.25 136.05 567.45 136.4 571.7 136 573.35 135.9 574.95 135.85 579.2 135.85 581.1 133.95 581.85 133.2 582.7 132.4 583.5 131.6 584.5 130.9 587.4 129.1 587.25 125.65 587.25 125.1 587.8 124.7 591.6 121.1 597.45 123.3 599.45 124.1 600.85 122.8 604.25 119.65 608.75 118.7 607.7 117.75 606.7 116.95 602.95 113.8 601.4 110.6 599.95 107.35 593 108.55 586.05 109.8 578.25 103.75 570.5 97.75 564 88 557.5 78.2 555.35 74.05 553.15 69.85 549.75 65.8 546.35 61.6 539.6 57.3 533.35 53.3 524.75 49.75 515.3 46.05 515.05 41.15 514.65 36.25 509.3 31.2 503.9 26.1 493.25 23.55 483.95 21.35 480.55 17.75 480.6 19.1 480.6 20.5 480.6 24.4 478.85 38.35 477.05 52.3 477.05 54 477.05 55.3 477.45 58 477.6 58.9 477.8 59.65 475 52.1 469.15 44.35 469.15 44.25 456.6 29.55 449.55 21.05 446.05 14.15 444.55 19.85 442.45 26.45 438.85 37.85 437 44.2 435.2 50.5 435.2 51.85 435.2 52.75 436 56.1 436.75 59.35 436.75 60.25
L 436.75 62.35
Q 435.8 58.85 432.8 52.85 428.3 43.95 427.2 41.45 420.1 25.3 420.1 6.9 420.1 -4.65 425.15 -15.95
L 421.95 -15.95
Q 421.45 -10.3 420.2 -6.2 417.55 2.65 410.7 7.7 407.85 9.7 402.3 12.55 399.2 14.15 392.55 17.55 380.55 24 376.25 31.4 378 28.2 382.45 16.45 387.8 2 390.75 -4.85
M 396.25 -15.95
Q 393.5 -11.15 390.75 -4.85 387.8 2 382.45 16.45 378 28.2 376.25 31.4 380.55 24 392.55 17.55 399.2 14.15 402.3 12.55 407.85 9.7 410.7 7.7 417.55 2.65 420.2 -6.2 421.45 -10.3 421.95 -15.95
L 396.25 -15.95
M 186.85 -14.4
Q 188 -15.25 189.25 -15.95
L 187.4 -15.95
Q 187.1 -15.2 186.85 -14.4
M 177.6 -3.2
Q 175.65 -1.85 173.35 -0.6 170.35 0.9 153.85 6.25 137.35 11.55 133.3 13.6 132.35 14.15 130.8 15.15 133.15 12.55 135.9 8.15 135.5 8.15 135.1 8.15 133.7 8.15 127.2 10.45 120.6 12.75 118.25 9.55 115.95 6.45 113.35 6.95 110.65 7.4 107.65 10.75 104.1 14.7 103.15 15.5 100.75 17.7 98.7 17.7
L 86.8 16.15
Q 74.9 14.55 73.65 14.55 72.45 14.55 67.75 17.2 67.45 22 66.1 32.6 64.3 46.55 64.3 48.25 64.3 49.55 64.7 52.25 64.85 53.15 65.05 53.9 62.25 46.35 56.4 38.65 56.4 38.5 43.85 23.8 39.5 18.55 36.55 13.95 34.8 14.45 32.7 15.1 32 15.3 31.3 15.5 30.55 18.05 29.7 20.75 26.05 32.1 24.25 38.45 22.45 44.75 22.45 46.15 22.45 47 23.25 50.35 24 53.6 24 54.5
L 24 56.6
Q 23.05 53.1 20.05 47.1 15.55 38.2 14.45 35.7 11 27.85 9.25 19.5 6.05 18.45 3.55 14.5 1.35 11 -1.8 2.15 -1.85 2 -1.9 1.85 -2 1.9 -2.05 1.95 -4.9 3.95 -10.45 6.8 -13.55 8.4 -20.2 11.8 -32.15 18.2 -36.45 25.55 -34.7 22.3 -30.3 10.7 -24.95 -3.75 -22 -10.6 -20.75 -13.45 -19.55 -15.95
L -46.4 -15.95 -46.4 410.4 53.05 410.4
Q 52.8 409.9 52.55 409.4 51.65 407.55 50.8 405.05 50.6 404.35 50.4 403.75 47.6 394.95 37.95 386.8 37.2 386.15 36.45 385.6 35 384.25 33.9 383.3 28.8 378.7 30.3 378.95 32.2 379.3 29.2 376.1 26.15 373 16.55 361.35 12 355.8 10 352.6 8.15 349.9 8.35 348.95 8.35 348.75 8.5 348.65 10.05 347.6 6.25 338.9 2.5 330.2 -2.65 324.6 -7.85 319.05 -8.6 308.85 -8.7 307.2 -8.9 305.8 -9.35 303.2 -10.15 301.3 -11.75 297.5 -14.8 296.2 -20.35 293.8 -20.35 288.1 -20.35 282.3 -19.2 280.55 -18.5 279.45 -16.65 277.9 -14.75 276.35 -14.1 275.45 -12.85 273.8 -12.85 271.5 -12.85 265.35 -12.55 263.45 -12.3 261.55 -11 260.45 -10.35 259.9 -9.6 259.4 -8.3 258.35 -7.15 257.2 -6.95 257 -6.65 256.75 -6.6 256.7 -6.55 256.65 -3.55 253.55 -0.1 248.55 2.8 244.2 12.2 239.3 16.25 237.15 19.85 235.9 23.55 234.65 25.6 234.65 26.25 234.65 27.2 235.05 29.1 235.9 29.7 234.85 30.25 233.85 35.5 234.2 37.9 234.4 39.65 234.35 38.5 232.85 37.3 231.25 29.85 221.3 26.7 217.6 26.1 216.9 25.6 216 24.35 213.95 23.45 210.95 23.35 210.65 23.25 210.35 22.85 209.05 22.3 206.6 21.75 204.35 21.1 201.2 19.95 195.2 18.9 192.25 17.25 187.7 14.8 185.45 7.85 179.6 2.6 174.55 0.8 172.85 -0.7 171.35 -0.55 171.1 -1.5 170.5 -7.55 164.3 -7.55 162 -7.55 158.6 2.65 148.25 5 145.9 10.55 140.55 14.8 136.45 15.85 135.25 17.7 133.05 19.85 128.4 20.4 127.05 20.95 125.85 22.65 121.9 23.7 119.4 26.25 113.8 28.75 110.05 32.1 105.2 36.25 102.2 41.75 98.25 46.8 92.75 50.5 88.9 55.1 82.8 62.05 73.65 62.2 73.4 66.15 68.5 69.45 65.85 71.4 64.25 74.95 62.7 76.7 61.95 81.85 60.2 86.35 58.6 88.6 57.55 92.1 55.9 93.95 54.05 95.05 53 96.75 50.35 99.05 46.65 99.75 45.7 103.85 40.1 108.9 40.1 110.2 40.1 114.55 41.15 118.85 42.25 120.25 42.25 122.3 42.25 133.6 33.8 144.8 25.3 155.8 20.85 166.8 16.35 171.5 13.65 173.1 12.8 174.35 11.7 175.05 2.65 177.6 -3.2
M 144.2 -7.1
Q 146.7 -12.25 148.65 -15.95
L 61.8 -15.95
Q 67.85 -2.45 67.85 14.75 67.85 15.7 67.75 17.2 72.45 14.55 73.65 14.55 74.9 14.55 86.8 16.15
L 98.7 17.7
Q 100.75 17.7 103.15 15.5 104.1 14.7 107.65 10.75 110.65 7.4 113.35 6.95 115.95 6.45 118.25 9.55 120.6 12.75 127.2 10.45 133.7 8.15 135.1 8.15 135.5 8.15 135.9 8.15 139.65 2.15 144.2 -7.1
M 148.65 -15.95
Q 146.7 -12.25 144.2 -7.1 139.65 2.15 135.9 8.15 133.15 12.55 130.8 15.15 132.35 14.15 133.3 13.6 137.35 11.55 153.85 6.25 170.35 0.9 173.35 -0.6 175.65 -1.85 177.6 -3.2 175.05 2.65 174.35 11.7 174.1 15 174.1 18.7 174.1 27.9 178.45 43.35 180.75 51.7 184.9 65.1
L 184.9 65.85
Q 185.75 55.55 189.85 47.75 192 43.65 198.15 36.05 203.7 29.1 205.95 24 209 17.1 209.35 7.85 211.8 9.9 214.75 11.85 219.35 15 228.75 20.65 236.3 25.7 239.3 30 238.2 3.3 230.05 -15.95
L 189.25 -15.95
Q 188 -15.25 186.85 -14.4 187.1 -15.2 187.4 -15.95
L 148.65 -15.95
M 61.8 -15.95
L 10.15 -15.95
Q 7.35 -7.5 7.35 1.15 7.35 10.65 9.25 19.5 11 27.85 14.45 35.7 15.55 38.2 20.05 47.1 23.05 53.1 24 56.6
L 24 54.5
Q 24 53.6 23.25 50.35 22.45 47 22.45 46.15 22.45 44.75 24.25 38.45 26.05 32.1 29.7 20.75 30.55 18.05 31.3 15.5 32.4 11.8 33.3 8.4 34.65 11.05 36.55 13.95 39.5 18.55 43.85 23.8 56.4 38.5 56.4 38.65 62.25 46.35 65.05 53.9 64.85 53.15 64.7 52.25 64.3 49.55 64.3 48.25 64.3 46.55 66.1 32.6 67.45 22 67.75 17.2 67.85 15.7 67.85 14.75 67.85 -2.45 61.8 -15.95
M 7.45 -11.95
Q 8 -13.8 8.45 -15.95
L -19.55 -15.95
Q -20.75 -13.45 -22 -10.6 -24.95 -3.75 -30.3 10.7 -34.7 22.3 -36.45 25.55 -32.15 18.2 -20.2 11.8 -13.55 8.4 -10.45 6.8 -4.9 3.95 -2.05 1.95 -2 1.9 -1.9 1.85 4.85 -3.2 7.45 -11.95
M 10.15 -15.95
L 8.45 -15.95
Q 8 -13.8 7.45 -11.95 4.85 -3.2 -1.9 1.85 -1.85 2 -1.8 2.15 1.35 11 3.55 14.5 6.05 18.45 9.25 19.5 7.35 10.65 7.35 1.15 7.35 -7.5 10.15 -15.95 Z"/>
</g>

<path id="Layer6_0_1_STROKES" stroke="#000000" stroke-width="1" stroke-linejoin="round" stroke-linecap="round" fill="none" d="
M 8.45 -15.95
Q 8 -13.8 7.45 -11.95 4.85 -3.2 -1.9 1.85 -1.85 2 -1.8 2.15 1.35 11 3.55 14.5 6.05 18.45 9.25 19.5 7.35 10.65 7.35 1.15 7.35 -7.5 10.15 -15.95
L 61.8 -15.95 148.65 -15.95 187.4 -15.95
M 189.25 -15.95
L 230.05 -15.95 396.25 -15.95
M 421.95 -15.95
L 425.15 -15.95 471.65 -15.95 564.5 -15.95 601.35 -15.95 611.2 -15.95 640.15 -15.95 648.6 -15.95 648.6 7.9 648.6 31.8 648.6 410.4 542.45 410.4
M 541.25 410.4
L 537.35 410.4 536.7 410.4 474.15 410.4 454.55 410.4 440.25 410.4 435.5 410.4 422.25 410.4 194.7 410.4 187.3 410.4 178.05 410.4 174.2 410.4 170.25 410.4 93.1 410.4 76.35 410.4 71.55 410.4 53.05 410.4 -46.4 410.4 -46.4 -15.95 -19.55 -15.95 8.45 -15.95
M 148.65 -15.95
Q 146.7 -12.25 144.2 -7.1 139.65 2.15 135.9 8.15 133.15 12.55 130.8 15.15 132.35 14.15 133.3 13.6 137.35 11.55 153.85 6.25 170.35 0.9 173.35 -0.6 175.65 -1.85 177.6 -3.2 175.05 2.65 174.35 11.7 174.1 15 174.1 18.7 174.1 27.9 178.45 43.35 180.75 51.7 184.9 65.1
L 184.9 65.85
Q 185.75 55.55 189.85 47.75 192 43.65 198.15 36.05 203.7 29.1 205.95 24 209 17.1 209.35 7.85 211.8 9.9 214.75 11.85 219.35 15 228.75 20.65 236.3 25.7 239.3 30 238.2 3.3 230.05 -15.95
M 187.4 -15.95
Q 187.1 -15.2 186.85 -14.4 188 -15.25 189.25 -15.95
M 396.25 -15.95
Q 393.5 -11.15 390.75 -4.85 387.8 2 382.45 16.45 378 28.2 376.25 31.4 380.55 24 392.55 17.55 399.2 14.15 402.3 12.55 407.85 9.7 410.7 7.7 417.55 2.65 420.2 -6.2 421.45 -10.3 421.95 -15.95
M 471.65 -15.95
Q 471.8 -15.75 471.95 -15.45 472.8 -13.95 473.55 -12.45 474.2 -11.05 474.85 -9.65
L 476.55 -11.2
Q 480.65 -9.35 485.3 -6.65 487.7 -5.15 492.1 -2.55 495.75 -0.45 498.75 0.45 502.55 1.55 507.1 1.55 508.4 1.55 516.1 2.8 523.8 4.05 535.9 12.35 542.75 17.05 546.7 17 551.2 10.5 557 -1.35 562 -11.45 564.5 -15.95
M 611.2 -15.95
Q 610.75 -14.1 610.55 -12.1 608.95 -13 607.2 -13.3
L 605.55 -12
Q 605.55 -11.2 604.7 -11.55 601.95 -10.3 599.65 -8.65 599.95 -9.45 600.2 -10.2 601.15 -13.1 601.35 -15.95
M 648.6 7.9
Q 646.35 -1.95 642.8 -10.3 641.55 -13.3 640.15 -15.95
M 546.7 17
Q 545.05 19.3 543.6 20.9 545.15 19.9 546.1 19.35 549.5 17.65 561.6 13.65 563.95 12.85 566.65 12 583.2 6.65 586.15 5.1 588.45 3.9 590.4 2.55 586.9 10.55 586.9 24.45 586.9 27.25 587.3 30.6 588.25 38.35 591.3 49.1 593.6 57.45 597.7 70.85
L 597.7 71.6
Q 598.55 61.3 602.65 53.5 604.8 49.4 610.95 41.8 613.15 39.05 614.85 36.6 617.4 32.8 618.75 29.75 621.85 22.8 622.15 13.55 624.6 15.6 627.55 17.55 632.15 20.65 641.55 26.35 643.95 27.95 645.9 29.5 647.4 30.65 648.6 31.8
M 614.85 36.6
Q 620 36.95 625.6 36.95 630.9 36.95 637.85 33.15 639.6 32.2 642.65 30.6 644.55 29.7 645.9 29.5
M 561.6 13.65
Q 563.95 15.5 567.15 18.15 572.4 22.4 576.55 25.05 581.75 28.35 587.3 30.6
M 174.35 11.7
Q 173.1 12.8 171.5 13.65 166.8 16.35 155.8 20.85 144.8 25.3 133.6 33.8 122.3 42.25 120.25 42.25 118.85 42.25 114.55 41.15 110.2 40.1 108.9 40.1 103.85 40.1 99.75 45.7 99.05 46.65 96.75 50.35 95.05 53 93.95 54.05 92.1 55.9 88.6 57.55 86.35 58.6 81.85 60.2 76.7 61.95 74.95 62.7 71.4 64.25 69.45 65.85 66.15 68.5 62.2 73.4 62.05 73.65 55.1 82.8 50.5 88.9 46.8 92.75 41.75 98.25 36.25 102.2 32.1 105.2 28.75 110.05 26.25 113.8 23.7 119.4 22.65 121.9 20.95 125.85 21.6 125.9 22.3 126 23.7 126.2 25.1 126.55 25.75 126.7 26.3 126.9 28.15 127.7 30.1 128.3 31.15 128.6 32.15 128.95 33.1 129.15 33.7 129.65 38.3 133.65 41.95 137.05 42.5 137.6 43.05 137.75 43.9 138.05 44.3 138.55 45.85 140.55 47.9 140.85 48.9 140.95 49.55 141.45 51.45 142.95 53.75 142.55 54.3 142.45 54.85 142.3 58.15 141.55 59.65 143 61.6 144.8 63.7 145.9 64.95 146.6 66.2 147.35 67.3 147.05 68.55 146.75 69.5 146.6 70.6 146.75 75.25 147.55 78.5 145.45 78.8 145.2 79.1 145 81 143.55 81.55 140.7 81.95 138.7 84.45 136.4 84.7 136.1 85 135.9 85.05 132.55 85.35 128.05 85.95 121.05 87.2 117.8 84.7 115.25 82.2 115.65 80.8 115.85 80.15 117.2 79.55 118.45 79.7 119.8 79.85 120.4 80.55 121.9 79.35 120.1 77.8 119.25 76.15 118.55 75 118.95 73.8 119.3 73.5 120.4 73.2 121.4 74.05 124.7 72.95 122.7 71.8 121.9 70.7 120.95 69.05 122.6 67.4 124.1 67.35 126.4
L 67.25 128.35
Q 67.2 128.15 66.6 122.85 65.9 117.65 67.55 113.45 69.5 108.25 74.55 107.5 78.75 106.85 82.7 110.7 85.4 113.4 87.45 117.3 87.6 116.8 87.9 116.4 87.6 114.75 86.85 109.75 85.75 102.6 87.45 96.75 89.65 89.55 96.05 88.4 101.3 87.45 106.65 92.7 110.8 96.8 113.8 103.35 109.9 98.75 106.15 99.4 104.45 99.7 103.7 101.65 103 103.35 103.3 105.25 103.5 106 104.45 108.05 102.9 105.45 100.8 104.5 98.75 103.5 97.25 104.05 95.75 104.65 95.55 106.05 95.15 107.45 96.2 111.65 98.5 111.15 100.85 112.45 103.6 114 104.4 117.75 105.05 120.55 104.4 123.9 104.1 120.95 102.15 119.85 101.25 119.35 100.25 119.75 99.35 120.1 98.95 120.85 98.75 121.25 98.6 122.2 98.65 120.8 98 119.75 97.35 118.65 96.55 118.35 95.65 118 95.05 118.4 94.5 118.8 93.55 120.7 93.8 119.3 93.4 118.4 93 117.4 91.5 117.45 89.9 117.55 88.9 118.65
L 88.1 119.55
Q 88.15 119.35 89.9 116.6 91.6 113.8 94.25 112.3 95.15 111.8 96.1 111.65 94.9 109.3 93.4 108.2 91.75 107 89.9 109.2 88 111.45 88 114.5
L 88 116.2
Q 88.15 116 88.3 115.75 88.15 116.1 88 116.65
L 88 117.25
Q 88 117.2 87.95 116.85 87.8 117.35 87.7 117.95 87.9 118.25 88.05 118.6 87.9 118.4 87.7 118.2 87.5 119.55 87.45 121.5 87.25 126.1 87.55 129.45 87.7 131.5 88 133.55 88.65 133.1 89.35 132.65 90.25 132.1 91.1 131.4 93.95 128.85 99.3 129.35 100.15 129.4 100.85 129.5 101.25 129.5 101.5 129.5 107.55 130.1 112.45 127.25 113.3 126.75 114.15 126.4 121.3 123.55 124.65 128.4 125 128.95 126.05 129.05 128.2 129.45 130.35 129.95 131.65 130.2 132.55 132.05 133.35 133.95 136.8 133.45 137.9 133.25 139 133.2 139.75 132.2 140.6 130.8 143.5 126.15 145.55 120.75 146.85 117.6 148 113.25 148.75 110.35 148.9 108.75
L 148.05 108.05
Q 146.95 107.05 145.35 107.2 143.8 107.4 143.45 108.4 143.15 109.4 143.55 110.85 142.45 109 141.8 108.7 141.2 108.35 140.3 108.85 139.55 109.3 138.95 110.5 138.4 111.7 138.55 113.15 138.35 112.15 138.15 111.8 137.65 111.1 136.75 110.9 135.7 110.6 134.85 111.25 133 112.7 132.85 115.8 131.95 112.45 132.35 109.45 132.85 105.55 135.55 103.55 137.7 101.95 140 102 140.6 97.7 140.2 96.4 139.75 94.95 138.25 94.55 136.65 94.25 134.7 95.6 132.7 96.95 131.35 99.75 132.1 97.55 132.2 96.7 132.4 94.75 131.5 93.15 130.55 91.35 128.8 91.3 125.05 91.2 121.45 96.45 124 89.35 127.85 84.5 132.75 78.35 138.2 78.5 144.7 78.7 147.5 85.7 149.75 91.35 149.2 98.75 148.7 106.1 148.7 106.55
L 148.4 103.75
Q 148.2 100.6 146.05 98.7 143.95 96.7 142.5 98.25 141.15 99.5 140.1 102 141.1 102 142.15 102.4 144.9 103.45 146.85 106.05 148.55 108.2 148.9 108.7 148.9 108.2 148.9 107.85 148.859375 107.85 148.85 107.925 148.858984375 107.841015625 148.9 107.8 148.9 107.6 148.85 107.45 148.9 107.55 148.95 107.7 150.6 102.65 153.5 99.1 157.25 94.5 161.45 94.65 166.6 94.55 169 99.55 170.95 103.55 170.75 108.9 170.6 114.4 170.6 114.6
L 170.3 112.6
Q 170.05 110.3 168.3 109 166.5 107.65 165.45 108.75 164.35 109.75 163.45 111.9 164 108.5 163.65 107.55 163.2 106.45 161.95 106.3 160.8 106 159.2 107 157.75 108.05 156.65 110.1 157.25 108.55 157.3 107.85 157.3 106.45 156.7 105.25 155.85 104 154.45 104 151.55 104.05 148.95 107.75 150 111.05 148.1 120.1 146.45 127.6 144.9 131.45 144.5 132.65 144.1 133.6 145.25 133.95 146.25 134.4 146.9 134.75 147.15 135.4 148.65 138.3 152.75 139.75 153.85 140.15 154.95 140.15 155.5 140.15 154.4 138.7 153.25 137.2 158.75 137.4 164.25 137.6 165.4 138.7 166.6 139.75 167.85 141.05 169.05 142.3 172.45 144.7 175.8 147.1 177.3 145.85 178.75 144.6 182.05 144.05 185.25 143.45 186.75 149.5 192.4 149.5 192.5 152 192.55 154.45 192.2 155.4 191.85 156.3 194.35 157.65 196.8 158.9 199.35 162.3 201.85 165.7 204.55 167.95 205.2 168.45 205.7 169 206.25 169.5 206.25 170.55 206.25 171 206.35 171.5 207.65 172.65 209.7 172.6 210.65 172.6 211.5 172.15 214.5 170.65 216.65 171.3 220.85 172.6 224.45 175.5
L 224.45 176.1
Q 225.45 176.15 226.5 176.2 227.6 176.3 231.8 175.6 232.95 175.45 234.1 175.05 238.7 173.5 243.6 172.4 244.7 172.2 245.8 172.05 251.4 171.3 254.3 173.85 254.85 174.35 256.45 174.4 262.6 174.65 264.2 170.65 264.45 170.05 265.15 169.9 266.05 169.5 266.9 170 269.95 171.75 273.55 171.7 274.65 171.7 274.85 171.2 275.6 169.95 277.8 170.9 278.4 171.1 279.05 171.3 279.95 171.7 280.8 172.15 284.55 174.4 288.45 176.2 289.05 176.45 289.6 176.45 290.15 176.45 290.65 176.45 291.2 176.45 291.75 176.45 292.25 176.45 292.85 176.4 296.75 175.9 300.15 177.3 300.8 177.5 301.5 177.65 304.25 178.25 305.8 177.2 306.75 176.45 307.75 176.45 309.9 176.45 311.95 177.3 312.55 177.5 312.8 178.15 314.2 181.85 319.45 180.95 320.55 180.75 321.75 180.5 325.25 179.8 326.6 181.55 328.25 183.7 331.3 184.3 332.35 184.45 332.95 185 334.65 186.55 336.6 186.6 337.65 186.65 338.25 186.1 338.9 185.35 341 184.8 342 184.45 342.6 185 345.85 188 352.65 187.75 353.7 187.7 354 187.25 354.65 185.95 357.5 187.15 357.85 185.95 360.15 186.35 361.2 186.65 361.7 186.1 362.45 185.35 364.5 184.8 365.45 184.45 366.05 183.95 368.9 181.5 375.05 182.6 376.75 182.85 378.4 183.2 379.4 183.4 379.7 182.85 382.65 178.7 385.8 177 389.55 180.7 395.3 177.9 395.95 177.5 396.45 177.5 397.5 177.5 398.65 177.5 399.15 177.5 399.8 177.3 402.7 176.15 406.05 175.75 411.15 175.15 413.8 176.55 414.65 177 415.45 176.5 418.45 174.75 422 175.25 423.2 175.45 424.3 175.75 426.4 176.45 428.5 177.2 429.65 177.5 430.7 177.65 433.3 178.05 435.9 177.65 437.15 177.5 437.25 177.65 438.45 179.3 441.3 179.65 442.45 179.7 443.55 179.8 448.85 180.2 454.15 180.7 454.75 180.75 455.3 180.95 456.35 181.3 457.1 180.8 459 179.75 460.55 181.3 461.1 181.8 461.7 181.85 465.45 182.15 472.2 186.05 473 186.5 473.8 187 473.8 186.95 473.85 186.9 473.9 186.85 473.95 186.8 474.5 186.05 475.25 185.2 479.3 180.8 475.85 175.75 474.2 173.4 472.95 172.15 472.4 171.7 474 171.1 475.6 170.5 477.95 168.85 480.3 167.15 479.3 164.9 478.25 162.55 478.75 162.05 479.3 161.5 482.05 162 484.85 162.45 485.5 163.4 486.1 164.3 489.75 161.45 493.3 158.55 496.9 159.9 492.95 155.15 500.25 155.55 501.25 155.6 502 154.4 503.1 152.65 504.45 152.45 507.4 151.9 510 149.4 510.8 148.65 511.9 148.2 515.35 146.8 520.4 147.45 522.7 147.75 523.4 146.45 523.6 145.95 524.65 145.75 527.3 145.05 530.35 143.4 537.05 144.65 541.9 143.25 543.45 142.85 544.95 142.55 545 142.55 545.15 142.55 545.1 141.05 544.9 139.3 544.4 133.8 542.8 128.3 541.8 125.05 540 120.9 538.8 118.15 537.95 116.85
L 537.9 116.85 536.8 116.8
Q 535.4 116.8 534.25 117.85 533.05 118.95 533.45 119.9 533.9 120.9 535 121.85 533.05 121.05 532.3 121.2 531.65 121.35 531.3 122.2 530.95 123.05 531.15 124.35 531.5 125.65 532.5 126.7 531.65 126.05 531.35 125.95 530.45 125.65 529.65 126.05 528.7 126.5 528.45 127.55 527.85 129.75 529.65 132.3 526.85 130.2 525.3 127.6 523.4 124.25 524.3 121 525 118.35 526.85 117 524.75 113.2 523.6 112.4 522.4 111.55 521 112.2 519.55 112.9 518.75 115.15 518.05 117.4 518.7 120.5 517.95 118.25 517.5 117.55 516.45 115.9 514.85 115.2 512.95 114.35 511.5 115.35 508.5 117.55 508.85 123.9 506.55 116.75 506.6 110.6 506.7 102.75 511.1 99.55 516.35 95.7 522.85 99.5 528.05 102.6 532.15 108.75 536.3 114.85 536.55 115.2
L 534.7 113.2
Q 532.55 110.85 529.65 110.55 526.8 110.4 526.5 112.45 526.25 114.3 526.95 116.9 527.8 116.35 528.75 116.05 531.55 115.15 534.75 116 537.4 116.7 537.9 116.85 537.7 116.45 537.45 116.2 537.3 116 537.15 115.85 537.25 115.9 537.4 116.05 535.65 110.95 535.75 106.45 535.9 100.55 539.3 98 543.25 94.8 548.25 97.25 552.25 99.2 555.4 103.6 558.6 108 558.7 108.2
L 557.3 106.8
Q 555.65 105.1 553.45 105.2 551.2 105.15 551.05 106.65 550.75 108.15 551.45 110.4 549.75 107.4 548.9 106.85 547.85 106.3 546.8 106.9 545.7 107.45 545 109.15 544.55 110.9 544.9 113.2 544.4 111.55 544.1 111.05 543.25 109.85 542 109.35 540.65 108.9 539.5 109.75 537.25 111.5 537.45 116.1 540.25 118 544.25 126.2 547.6 133.15 548.8 137.15 549.3 138.85 549.6 140.1 550.3 138.95 551.05 138 551.45 137.45 552.45 137.4 555.4 137.2 557.2 135.85 557.9 135.3 558.85 135.45 561.05 135.85 563.25 136.05 567.45 136.4 571.7 136 573.35 135.9 574.95 135.85 579.2 135.85 581.1 133.95 581.85 133.2 582.7 132.4 583.5 131.6 584.5 130.9 587.4 129.1 587.25 125.65 587.25 125.1 587.8 124.7 591.6 121.1 597.45 123.3 599.45 124.1 600.85 122.8 604.25 119.65 608.75 118.7 607.7 117.75 606.7 116.95 602.95 113.8 601.4 110.6 599.95 107.35 593 108.55 586.05 109.8 578.25 103.75 570.5 97.75 564 88 557.5 78.2 555.35 74.05 553.15 69.85 549.75 65.8 546.35 61.6 539.6 57.3 533.35 53.3 524.75 49.75 515.3 46.05 515.05 41.15 514.65 36.25 509.3 31.2 503.9 26.1 493.25 23.55 483.95 21.35 480.55 17.75 480.6 19.1 480.6 20.5 480.6 24.4 478.85 38.35 477.05 52.3 477.05 54 477.05 55.3 477.45 58 477.6 58.9 477.8 59.65 475 52.1 469.15 44.35 469.15 44.25 456.6 29.55 449.55 21.05 446.05 14.15 444.55 19.85 442.45 26.45 438.85 37.85 437 44.2 435.2 50.5 435.2 51.85 435.2 52.75 436 56.1 436.75 59.35 436.75 60.25
L 436.75 62.35
Q 435.8 58.85 432.8 52.85 428.3 43.95 427.2 41.45 420.1 25.3 420.1 6.9 420.1 -4.65 425.15 -15.95
M 473.8 187
Q 472.55 188.55 471.35 188.45 468.05 188 466.7 190.75 465.35 193.6 463.45 195.9 462.75 196.75 462.05 197.6 460.5 199.55 457.1 201.7 455.2 202.9 452.75 204.15
L 452.65 204.15
Q 452 204.5 451.25 204.95 452.25 204.75 452.85 204.75 452.95 204.75 453 204.75 461.8 204.75 473.15 205.4 478.05 205.7 487.95 206.25 497.75 206.75 500.3 206.25 501.55 206.05 526.4 204.25 526.6 204.25 526.75 204.25 541 203.2 563.1 201.7 570 201.2 577.65 200.7 586.05 200.1 595.3 199.5
L 579.5 201.7 526.75 209.05
Q 526.9 209.05 527.05 209.05 538.15 209.05 554.95 207.4 564.45 206.5 567.1 206.3 573.5 205.85 578.1 205.85 584.25 205.85 589.8 205.95 592.6 206.05 595 206.15 601.1 206.35 604.95 206.8 607.7 203.55 609.4 200.9 613.7 193.95 615.5 184.4 617.45 174 619.15 159.05 620.8 143.65 620.8 135.8 620.8 129.55 615.2 124.4 611.7 121.2 608.75 118.7
M 422.25 410.4
Q 421.05 409.15 420.05 408.5 417.9 407.15 416.05 403.2 415.1 401.35 414.3 398.9 414.1 398.15 413.85 397.55 411.05 388.75 401.45 380.6 400.65 379.95 399.95 379.4 398.5 378.1 397.4 377.1 392.3 372.5 393.75 372.75 395.7 373.1 392.7 369.9 389.6 366.8 380.05 355.15 375.5 349.6 373.45 346.45 371.65 343.7 371.8 342.75 371.8 342.55 372 342.45 373.5 341.4 369.75 332.7 365.95 324 360.8 318.4 355.6 312.9 354.9 302.65 354.8 301 354.6 299.65 354.15 297 353.3 295.1 351.75 291.3 348.65 290 343.15 287.6 343.15 281.9 343.15 276.1 344.3 274.35 345 273.25 346.85 271.7 348.7 270.2 349.4 269.25 350.65 267.6 350.65 265.3 350.65 259.2 350.9 257.25 351.2 255.35 352.5 254.25 353.15 253.7 353.85 253.2 355.2 252.15 356.35 251 356.55 250.8 356.8 250.6 356.9 250.55 356.95 250.5 359.95 247.35 363.4 242.35 366.3 238 375.7 233.1 379.75 231 383.3 229.75 387.05 228.45 389.05 228.45 389.7 228.45 390.7 228.85 392.55 229.75 393.15 228.7 393.7 227.65 398.95 228.05 404.15 228.45 406.25 227.6 408.4 226.7 411.45 230.9 414.5 235.1 418.75 235.7 423 236.25 424.05 242.85 424.55 246.1 425.2 248.4 425.9 250.95 426.8 252.55 427.25 253.6 427.7 254.45 428.25 253.5 428.6 252.3 428.8 251.5 428.9 250.2 428.95 249.85 428.95 249.5 429.05 249 429.05 248.4 429.1 246.1 429.5 245 430.05 243.35 431.8 242.35 435.55 240.45 436.75 237.7 437.35 236.2 436.25 235.6 435.15 234.95 434.45 232.95 433.7 230.9 440.6 226.85 447.45 222.7 454.65 220.8 461.85 218.8 463.2 219.6 463.55 219.95 466.2 220.2 468.7 220.4 471.25 222.15 473 223.45 476.25 223.8 477.7 223.95 479.35 223.95 480.55 223.95 481.65 224.15 485.45 224.65 487.55 227 490.25 230 492.15 233 494 235.95 496.15 237.45 498.2 238.85 498.2 241.2 498.2 242.65 498.05 246.15 498.05 247.45 499.1 251.95 500.15 256.55 500.15 257.85 500.15 259.25 499.1 261.85 498.05 264.55 498.05 265.85 498.05 266.75 498.5 268.05 501.45 266.8 507.4 266.3 510.75 266 513.65 266.2 516.8 266.35 518.35 266.9 518.85 267.1 519.55 267.6 520.95 268.7 521.5 268.15 522.05 267.6 526.1 269.3 530.2 271 531.9 271 533.65 271 535.7 274.55 537.7 278.05 540.95 279.65 544.25 281.2 544.5 285.75 544.55 287.9 544.8 289.55 545.15 291.5 545.7 292.7 546 293.55 546.25 294.2 546.85 293.8 547.15 293 547.4 292.55 547.6 291.8 547.7 291.6 547.75 291.3 547.75 291 547.8 290.6 548.1 289.2 548.55 288.6 549.2 287.65 550.6 287.5 553.65 287.3 554.9 285.85 555.5 285 554.7 284.3 553.9 283.6 553.5 282.1 553.15 280.65 558.85 279.8 564.7 279.05 570.5 279.75 571.55 279.85 572.4 280 575.35 274.25 581.25 265.15 584.2 260.65 589.35 252.95 593.05 247.35 593.05 246.5 593.05 245.15 591.9 239.2 590.85 233.3 590.85 231.9 590.85 224.75 593.95 219.5 595.2 217.35 597.3 215 598.35 213.8 601.2 210.85 603.25 208.7 604.95 206.8
M 479.35 223.95
L 480.9 225.15 431.85 292.25 432.9 306.4 485.25 277.25
Q 485.05 278.45 484.75 280.3 484.65 281.25 484.2 281.9
L 481.4 283.45
Q 481.35 283.45 481.3 283.45 479.65 283.9 479 284.4 478.75 284.65 478.45 285.05
L 433.2 310.35 434.25 325.25 484.65 330.95
Q 484.8 330.2 485.05 329.5 487.5 321.6 486.45 321.1 485.5 320.7 487.15 316.2 487.55 316.8 488 317.4 491.5 322.4 493.7 329.1 495.8 335.7 494.55 336 494.4 336 494.35 336.15
L 541.05 340.9 541.5 343.2 542.3 330.3 484.75 303.5
Q 484.6 301.7 484.2 300.3
L 542.5 327.75 543 318.75 543.05 318.55 488.4 273.35
Q 489.55 273.05 490.55 272.65 490.8 272.55 491 272.45 491.05 272.45 491.1 272.45
L 543.2 315.65 544.8 289.55
M 428.9 250.2
L 431.5 286.45 432.15 286.4 476.25 223.8
M 425.2 248.4
L 427.7 287.65 356.95 250.5
M 373.45 346.45
L 430.35 329.15 429.4 326 371.8 342.75
M 436 329.75
L 483 335.95
Q 480.8 342.65 477.6 352.4 476.15 356.6 474.8 360.45
L 436.05 351.4 434.5 329.85 436 329.75 Z
M 354.6 299.65
L 429.1 309.65 430.35 329.15 431.7 351.1 397.4 377.1
M 468.4 377.8
Q 466.3 383.05 464.6 386.6
L 437.8 376.25 436.3 355.75 473.4 364.35
Q 470.75 371.8 468.4 377.8 Z
M 399.95 379.4
L 432.05 355.75 433.35 377.1 414.3 398.9
M 440.25 410.4
L 438.2 381.7 462.45 390.7
Q 462.1 391.45 461.65 392 459.2 395.7 457.25 401.85 455.35 407.95 454.8 409.7 454.7 410 454.55 410.4
M 353.3 295.1
L 428.85 305.8 428 292.1 353.85 253.2
M 547.6 291.8
L 546.35 315.95 546.85 316.05 587.2 287.6
Q 584.65 286.4 583.4 285.2 581.6 283.3 579.55 282.5 577.55 281.6 577.25 281.3 576.5 280.55 572.4 280
M 545.65 329.2
L 600.85 323.35
Q 600.3 321.6 600.4 320.7 600.6 319.85 601.65 318.35 602.65 316.95 602.85 316.05 602.95 315.2 602.5 312 602.1 308.8 602.25 307.95 602.65 305.7 602.8 304.85 603 303.3 601.5 301.75 600 300.3 598.8 297.75 597.6 295.35 595.7 292.7 594.3 290.6 591.4 289.25 590.5 288.8 589.55 288.45
L 590.75 289.65 546.05 319.85 545.65 329.2 Z
M 587.2 287.6
Q 588.25 288.05 589.55 288.45
M 541.25 410.4
L 542.9 379.35 561.1 391.75
Q 562.05 390.95 563.15 389.7
L 543.05 375.7 543.8 362.05 572.1 377.65
Q 572.85 376.65 573.6 375.5
L 544 359.15 544.75 344.85 545.9 345.1 582.25 361.95
Q 583.2 360.35 583.95 359.1
L 544.9 341.75 545.45 331.8 601.8 325.75
Q 601.55 325.15 601.25 324.25 601 323.8 600.85 323.35
M 474.15 410.4
Q 477.7 407.85 479.7 405.65 483.95 401.2 488.15 393.75 489.3 391.7 491.65 387.5 493.75 383.85 495.75 381.05 501.15 373.35 510.05 363.75 507.95 361.05 508.85 361.55 510.3 362.2 508.25 359.35 506.1 356.5 499.7 346.4 496.65 341.55 495.3 339
L 541.5 343.2 540.6 357.75 511.3 365.3
Q 512.05 366.25 513.1 367.45
L 540.45 360.85 539.5 375.05 522.65 384
Q 523 385.8 523.6 387.2
L 539.3 378.75 537.35 410.4
M 522.65 384
Q 522.45 383.45 522.35 382.95 521 376.5 514.15 368.65 513.6 368 513.1 367.45
M 511.3 365.3
Q 510.6 364.4 510.05 363.75
M 536.7 410.4
Q 534.85 406.1 532.6 401.8 528.65 394.1 526.25 391.75 524.65 390.25 523.6 387.2
M 561.1 391.75
Q 560.75 392.1 560.35 392.35 558.05 394.05 556.1 397.55 554 400.95 553.4 401.95 552.75 402.9 549.95 404.75 547.1 406.55 543.8 409.15 543 409.85 542.45 410.4
M 601.8 325.75
Q 602.25 326.9 602.15 327.05 602 328.15 599.35 329.3 599.4 330.25 599.7 331.8 600.25 334.25 600.15 335.1 599.9 336.95 598.35 338.4 597.35 339.2 595 340.6 592.65 341.9 591.65 342.65 590.15 344.15 589.85 346 589.75 346.9 587.6 349.8 585.5 352.7 586.25 353.25 587.05 353.85 584.4 358.3 584.15 358.65 583.95 359.1
M 582.25 361.95
Q 579.9 365.65 576.45 371.05 574.95 373.45 573.6 375.5
M 572.1 377.65
Q 569.35 381.75 567 385.05 564.85 387.8 563.15 389.7
M 579.5 201.7
L 563.1 201.7
M 206.35 171.5
Q 206.6 173.45 208.1 175.05 208.9 175.9 209.8 176.55 211.25 177.65 213.85 179.05 214.75 179.15 215.2 179.9
L 215.2 179.95 215.25 179.95
Q 218.5 182.45 219.5 187.65 219.85 189.55 222.2 189.45 224.95 189.35 227.65 188.95 233.2 188.3 236.45 190.4 237.2 190.9 238.2 190.55 238.8 190.35 239.45 190.2 242.95 189.45 244.9 190.65 249.1 193.35 252.75 189.35 253.3 188.8 254.25 188.45 254.85 188.2 255.4 187.7 256.5 186.65 258.6 186.65 260.35 186.55 260.7 188.55 262.9 188.2 263.95 188.2 265 188.2 266.1 188.35 272.2 188.8 273.95 191.8 275.7 194.7 277.8 196.85 279.8 198.95 283.15 197.1 286.35 195.15 286.25 195.75 286.1 196.35 287.55 197.6 288.95 198.85 292.5 200.2 292.95 200.35 293.4 200.55
L 293 201.7 457.1 201.7
M 135.9 8.15
Q 135.5 8.15 135.1 8.15 133.7 8.15 127.2 10.45 120.6 12.75 118.25 9.55 115.95 6.45 113.35 6.95 110.65 7.4 107.65 10.75 104.1 14.7 103.15 15.5 100.75 17.7 98.7 17.7
L 86.8 16.15
Q 74.9 14.55 73.65 14.55 72.45 14.55 67.75 17.2 67.45 22 66.1 32.6 64.3 46.55 64.3 48.25 64.3 49.55 64.7 52.25 64.85 53.15 65.05 53.9 62.25 46.35 56.4 38.65 56.4 38.5 43.85 23.8 39.5 18.55 36.55 13.95 34.8 14.45 32.7 15.1 32 15.3 31.3 15.5 30.55 18.05 29.7 20.75 26.05 32.1 24.25 38.45 22.45 44.75 22.45 46.15 22.45 47 23.25 50.35 24 53.6 24 54.5
L 24 56.6
Q 23.05 53.1 20.05 47.1 15.55 38.2 14.45 35.7 11 27.85 9.25 19.5
M 61.8 -15.95
Q 67.85 -2.45 67.85 14.75 67.85 15.7 67.75 17.2
M 31.3 15.5
Q 32.4 11.8 33.3 8.4 34.65 11.05 36.55 13.95
M 20.95 125.85
Q 20.4 127.05 19.85 128.4 17.7 133.05 15.85 135.25 14.8 136.45 10.55 140.55 5 145.9 2.65 148.25 -7.55 158.6 -7.55 162 -7.55 164.3 -1.5 170.5 -0.55 171.1 -0.7 171.35 3.25 168.35 8.45 165.1 9.05 164.75 9.6 164.2 11.8 162.45 14.95 162.55 15.45 162.55 16.1 162.45 18.7 162.05 21.3 161.65 21.85 161.5 22.45 161.45 27.75 160.95 33.1 160.5 33.65 160.5 34.05 159.8 35.25 158.3 37.2 157.35 38.45 156.65 39.75 156.1 40.6 155.6 41.65 155.65 44.6 155.9 46.15 155 47 154.55 48 154.75 50.3 155.25 50.95 153.8 51.25 152.95 52.1 152.15 54.75 149.5 59.8 148.75 60.35 148.65 61 148.5 62.55 148.15 64 147.8 65 147.6 66.2 147.35
M 53.05 410.4
Q 52.8 409.9 52.55 409.4 51.65 407.55 50.8 405.05 50.6 404.35 50.4 403.75 47.6 394.95 37.95 386.8 37.2 386.15 36.45 385.6 35 384.25 33.9 383.3 28.8 378.7 30.3 378.95 32.2 379.3 29.2 376.1 26.15 373 16.55 361.35 12 355.8 10 352.6 8.15 349.9 8.35 348.95 8.35 348.75 8.5 348.65 10.05 347.6 6.25 338.9 2.5 330.2 -2.65 324.6 -7.85 319.05 -8.6 308.85 -8.7 307.2 -8.9 305.8 -9.35 303.2 -10.15 301.3 -11.75 297.5 -14.8 296.2 -20.35 293.8 -20.35 288.1 -20.35 282.3 -19.2 280.55 -18.5 279.45 -16.65 277.9 -14.75 276.35 -14.1 275.45 -12.85 273.8 -12.85 271.5 -12.85 265.35 -12.55 263.45 -12.3 261.55 -11 260.45 -10.35 259.9 -9.6 259.4 -8.3 258.35 -7.15 257.2 -6.95 257 -6.65 256.75 -6.6 256.7 -6.55 256.65 -3.55 253.55 -0.1 248.55 2.8 244.2 12.2 239.3 16.25 237.15 19.85 235.9 23.55 234.65 25.6 234.65 26.25 234.65 27.2 235.05 29.1 235.9 29.7 234.85 30.25 233.85 35.5 234.2 37.9 234.4 39.65 234.35 38.5 232.85 37.3 231.25 29.85 221.3 26.7 217.6 26.1 216.9 25.6 216 24.35 213.95 23.45 210.95 23.35 210.65 23.25 210.35 22.85 209.05 22.3 206.6 21.75 204.35 21.1 201.2 19.95 195.2 18.9 192.25 17.25 187.7 14.8 185.45 7.85 179.6 2.6 174.55 0.8 172.85 -0.7 171.35
M 293 201.7
L 292.75 202.3
Q 295.85 201.95 324.8 204.9
L 299.4 205.15
Q 296.75 205.8 294.2 206.55 298.35 209.45 303.45 210.5 304.55 210.75 305.75 210.75 300.7 212.85 295.3 212.55 294.65 212.5 293.9 212.25 289.5 210.7 285.8 208.5 284.65 207.85 283.45 207.6 279.65 206.85 277.45 207.95 276.5 208.45 275.4 208.15 270.3 207.2 267.7 210.2 267.15 210.75 266 210.6 262.1 210.35 259.95 211.45 259 211.95 257.9 212.2 256.65 212.5 255.5 212.5 254.9 212.5 254.3 212.4 252.05 212 250.6 212.4 245.75 212.3 243.5 211.6 242.65 211.35 241.45 211.5 238 211.95 234.55 211.5 233.3 211.35 232.1 211.35 230.95 211.35 229.75 211.55 229.15 211.65 228.6 211.85
L 228.55 211.85
Q 227.45 212.05 226.45 212.3 225.7 212.5 225.1 213.1 223.2 213.2 226.25 215.55 226.85 216 227.45 216.6 225.95 218.55 221.55 218.2 216.95 217.75 212.35 217.3 211.1 217.2 209.9 216.75 204.55 215 198.3 214.85 197.1 214.85 195.9 214.6 192.05 213.85 189.8 214.55 188.95 214.85 187.75 214.65 182.8 214.05 178.4 215.35 176.25 216 174.55 214.8 173.75 214.25 172.55 214.25 167.3 214.25 162.25 215.2 161.5 215.45 161.05 216.65 160.8 217.5 160.9 218.05 157.95 218.35 155.05 218.4 146.2 218.6 137.55 218.35 137 218.35 136.4 218.35 124.7 218.95 113 218.35 111.75 218.3 110.45 218.35 106.7 218.45 103.4 219.4 96.7 218.95 90.9 218.45 89.1 218.35 87.25 218.05 81.75 217.1 75.95 216.85 70.1 216.6 64.05 217.1 63.45 217.2 62.8 217.25 60 217.45 57.15 217.65 54.15 217.8 51.2 217.85 43.8 218.05 37.15 216.95 34.25 216.6 31.35 216.3 28.5 216 25.6 216
M 39.65 234.35
Q 41.65 234.25 42.75 233.8 44.9 232.9 47.95 237.05 51.05 241.3 55.25 241.9 59.5 242.45 60.55 249.05 61.05 252.3 61.7 254.6 62.4 257.15 63.3 258.75 63.8 259.8 64.25 260.65 64.8 259.65 65.1 258.45 65.3 257.7 65.45 256.4 65.5 256.05 65.5 255.7 65.55 255.2 65.55 254.6 65.6 252.3 66.05 251.2 66.6 249.55 68.35 248.55 72.05 246.65 73.25 243.9 73.85 242.35 72.75 241.75 71.65 241.1 70.95 239.15 70.2 237.05 77.1 233 84 228.9 91.15 227 98.4 224.95 99.7 225.8 100.1 226.1 102.7 226.4 105.25 226.6 107.75 228.35 109.5 229.6 112.8 230 114.2 230.1 115.85 230.1 117.05 230.1 118.15 230.35 122 230.8 124.05 233.2 126.75 236.2 128.65 239.2 130.5 242.15 132.65 243.65 134.75 245.05 134.75 247.4 134.75 248.85 134.55 252.35 134.55 253.65 135.6 258.15 136.65 262.75 136.65 264.05 136.65 265.4 135.6 268.05 134.55 270.75 134.55 272.05 134.55 272.95 135 274.3 137.95 273.05 143.9 272.55 147.2 272.25 150.1 272.45 153.25 272.6 154.85 273.15 155.3 273.35 156.05 273.85 157.4 274.95 157.95 274.4 158.5 273.85 162.55 275.55 166.65 277.25 168.35 277.25 170.1 277.25 172.2 280.8 174.15 284.3 177.45 285.9 180.7 287.45 180.95 291.95 181 294.15 181.25 295.8 181.6 297.7 182.15 298.9 182.45 299.8 182.7 300.45 183.3 300 183.6 299.25 183.85 298.8 184.05 298.05 184.15 297.85 184.2 297.55 184.2 297.25 184.3 296.85 184.55 295.4 185 294.8 185.65 293.9 187.05 293.7 190.15 293.55 191.35 292.1 191.95 291.25 191.15 290.55 190.35 289.85 189.95 288.35 189.6 286.9 195.35 286.05 201.15 285.3 206.95 286 212.8 286.65 213.75 287.55 214 287.85 216.05 288.75 218.05 289.55 219.85 291.4 221.1 292.65 223.65 293.85 224.75 294.25 226 294.7 226.95 295.05 227.85 295.45 230.75 296.85 232.2 298.9 234.05 301.6 235.25 304 236.45 306.55 238 308 239.45 309.55 239.25 311.05 239.15 311.95 238.7 314.2 238.6 315 238.95 318.25 239.4 321.4 239.3 322.3 239.15 323.15 238.1 324.6 237.05 326.05 236.9 326.95 236.75 327.85 237.3 329.6 237.5 330 237.7 330.5 238.05 331.4 238.25 332 238.7 333.15 238.65 333.3 238.45 334.4 235.8 335.55 235.85 336.5 236.15 338.05 236.7 340.45 236.6 341.35 236.35 343.2 234.8 344.65 233.8 345.45 231.45 346.8 229.1 348.15 228.1 348.9 226.6 350.4 226.3 352.25 226.2 353.1 224.05 356 221.95 358.9 222.7 359.45 223.55 360.05 220.85 364.55 220.6 364.9 220.4 365.3 219.65 366.6 218.7 368.15 216.35 371.9 212.9 377.3 211.45 379.65 210.05 381.75 209.3 382.9 208.6 383.9 205.8 388 203.45 391.25 201.3 394.05 199.6 395.9 198.5 397.2 197.6 398 197.2 398.35 196.8 398.6 194.5 400.3 192.55 403.8
L 192.55 403.85
Q 193.9 406.95 194.7 410.4
M 23.45 210.95
Q 27.9 211 31.65 211.05 42.3 211.15 46.95 211.15 51.8 211.15 56.5 211.4
L 56.55 211.4
Q 56.65 211.4 56.8 211.4 60.7 211.55 64.5 211.95 64.95 211.95 65.5 212 69.8 212.4 76.1 213.3
L 76.15 213.3
Q 76.25 213.3 76.45 213.35 77.95 213.6 79.65 213.85 88.75 215.15 93.4 215.65 101.55 216.5 110.45 216.5 111.8 216.5 128.4 215.45 144.95 214.35 146.3 214.35
L 128.55 213.2
Q 117.6 212.5 99.85 211.4 88.9 210.7 76.45 209.85
L 76.35 209.85
Q 71.2 209.6 65.65 209.2 65.15 209.2 64.65 209.15 60.9 208.95 56.95 208.7 56.85 208.7 56.8 208.7
L 56.75 208.7
Q 56.65 208.65 56.65 208.7 52 208.45 47.15 208.1 39.75 207.65 31.95 207.2 27.2 206.9 22.3 206.6
M 115.85 230.1
L 117.45 231.3 68.4 298.45 69.45 312.6 121.7 283.45
Q 121.5 284.7 121.2 286.55 121.1 287.45 120.65 288.1
L 117.75 289.65
Q 116.1 290.15 115.45 290.65 115.2 290.9 114.95 291.25
L 69.7 316.55 70.75 331.45 121.15 337.15
Q 121.3 336.35 121.55 335.7 124 327.75 122.95 327.3 122.05 326.9 123.7 322.45 124 323.05 124.45 323.65 127.95 328.65 130.15 335.35 132.25 341.95 131 342.2 130.85 342.2 130.8 342.4
L 177.5 347.15 178 349.45 178.75 336.55 121.2 309.75
Q 121.05 307.95 120.65 306.55
L 178.95 334 179.45 325 179.5 324.8 124.9 279.6
Q 126.05 279.25 127 278.9 127.25 278.8 127.45 278.65 127.5 278.65 127.55 278.65
L 179.7 321.9 181.25 295.8
M 65.45 256.4
L 68 292.65 68.65 292.55 112.8 230
M 61.7 254.6
L 64.25 293.85 -6.55 256.65
M -10.15 301.3
L 65.4 312 64.5 298.45 64.5 298.25 -9.6 259.4
M 121.15 337.15
Q 120.4 339.4 119.5 342.1 117.35 348.85 114.1 358.6 112.65 362.8 111.3 366.65
L 72.55 357.6 71 336.05 72.5 335.95 119.5 342.1
M 10 352.6
L 66.85 335.35 65.9 332.2 8.35 348.95
M -8.9 305.8
L 65.6 315.85 66.85 335.35 68.2 357.3 33.9 383.3
M 76.35 410.4
L 74.75 387.9 99 396.9
Q 99.9 395.25 101.1 392.8
L 74.3 382.45 72.8 361.95 109.95 370.5
Q 107.25 377.95 104.9 384 102.8 389.25 101.1 392.8
M 36.45 385.6
L 68.55 361.95 69.85 383.3 50.8 405.05
M 178 349.45
L 177.05 364 147.75 371.55
Q 144.2 367.15 145.3 367.8 146.8 368.45 144.7 365.6 142.55 362.75 136.15 352.6 133.1 347.8 131.8 345.25
L 178 349.45 Z
M 149.55 373.7
L 176.9 367.1 175.95 381.3 159.1 390.25
Q 158.95 389.7 158.8 389.2 157.45 382.75 150.6 374.9 150.05 374.25 149.55 373.7 Z
M 226 294.7
L 227.2 295.9 182.5 326.05 182.1 335.45 237.3 329.6
M 184.05 298.05
L 182.8 322.2 183.3 322.3 223.65 293.85
M 210.05 381.75
L 180.45 365.4 181.2 351.1 182.35 351.35 218.7 368.15
M 199.6 395.9
L 179.5 381.95 180.3 368.3 208.6 383.9
M 238.25 332
L 181.9 338.05 181.4 347.95 220.4 365.3
M 170.25 410.4
Q 169.65 409.25 169.05 408 165.1 400.35 162.7 398 161.1 396.45 160.1 393.45
L 175.75 385 174.2 410.4
M 187.3 410.4
Q 189.3 408.95 189.85 408.2 190.45 407.2 192.55 403.85
M 99 396.9
Q 98.6 397.6 98.15 398.15 95.7 401.9 93.8 408 93.4 409.3 93.1 410.4
M 52.55 409.4
L 70.2 388.85 71.55 410.4
M 178.05 410.4
L 179.35 385.6 197.6 398
M 416.05 403.2
L 433.7 382.7 435.5 410.4
M 474.85 -9.65
Q 480.1 2.55 480.55 17.75
M -19.55 -15.95
Q -20.75 -13.45 -22 -10.6 -24.95 -3.75 -30.3 10.7 -34.7 22.3 -36.45 25.55 -32.15 18.2 -20.2 11.8 -13.55 8.4 -10.45 6.8 -4.9 3.95 -2.05 1.95 -2 1.9 -1.9 1.85"/>
</defs>

<g transform="matrix( 1, 0, 0, 1, 0,0) ">
<use xlink:href="#Layer6_0_FILL"/>

<use xlink:href="#Layer6_0_1_STROKES"/>
</g>
</svg>
